<svg width="80" height="80" viewBox="0 0 80 80" fill="none" xmlns="http://www.w3.org/2000/svg">
<g clip-path="url(#clip0_843_78507)">
<path d="M78.4177 22.1544C74.9244 13.2656 64.1636 7.93532 55.0495 11.4627C44.3355 15.6094 48.2886 31.9683 38.6459 35.3827C33.5414 37.1902 25.9955 30.4383 20.8383 29.403C11.335 27.4952 2.73188 34.2006 0.613439 43.4864C-1.54781 52.9598 1.91859 65.613 12.327 68.1842C24.7255 71.247 31.1838 60.1016 41.5847 56.9013C52.2581 53.617 64.1258 61.3734 72.9619 51.9363C79.49 44.9642 81.8767 30.9563 78.4177 22.1544Z" fill="url(#paint0_linear_843_78507)"/>
<path opacity="0.1" d="M68.6805 19.9434H11.3196C10.4566 19.9434 9.75708 20.643 9.75708 21.5059V56.8822C9.75708 57.7452 10.4566 58.4447 11.3196 58.4447H34.0455C32.8627 65.6553 30.6482 69.0705 29.9927 69.9527H27.7329C27.215 69.9527 26.7954 70.3723 26.7954 70.8902V72.3478C26.7954 72.8656 27.215 73.2853 27.7329 73.2853H52.2672C52.785 73.2853 53.2047 72.8656 53.2047 72.3478V70.8902C53.2047 70.3723 52.785 69.9527 52.2672 69.9527H50.0074C49.3519 69.0705 47.1374 65.6553 45.9546 58.4447H68.6805C69.5435 58.4447 70.243 57.7452 70.243 56.8822V21.5059C70.243 20.643 69.5435 19.9434 68.6805 19.9434ZM42.7938 61.2386C42.7938 62.7808 41.5422 64.0323 40 64.0323C38.4579 64.0323 37.2063 62.7808 37.2063 61.2386C37.2063 59.6964 38.4579 58.4448 40 58.4448C41.5422 58.4448 42.7938 59.6964 42.7938 61.2386Z" fill="#0000CB"/>
<path opacity="0.1" d="M40 64.0323C38.4579 64.0323 37.2063 62.7808 37.2063 61.2386C37.2063 59.6964 38.4579 58.4448 40 58.4448C41.5422 58.4448 42.7938 59.6964 42.7938 61.2386C42.7938 62.7808 41.5422 64.0323 40 64.0323Z" fill="#0000CB"/>
<g opacity="0.1">
<path d="M20.8842 62.9245H23.7877C24.2192 62.9245 24.569 62.5747 24.569 62.1433C24.569 61.7119 24.2192 61.362 23.7877 61.362H20.8842C20.4527 61.362 20.1029 61.7119 20.1029 62.1433C20.1029 62.5747 20.4527 62.9245 20.8842 62.9245Z" fill="#0000CB"/>
<path d="M23.7877 64.5467H15.8842C15.4527 64.5467 15.1029 64.8966 15.1029 65.328C15.1029 65.7594 15.4527 66.1092 15.8842 66.1092H23.7877C24.2192 66.1092 24.569 65.7594 24.569 65.328C24.569 64.8966 24.2192 64.5467 23.7877 64.5467Z" fill="#0000CB"/>
<path d="M23.7877 67.7314H15.8842C15.4527 67.7314 15.1029 68.0812 15.1029 68.5126C15.1029 68.9441 15.4527 69.2939 15.8842 69.2939H23.7877C24.2192 69.2939 24.569 68.9441 24.569 68.5126C24.569 68.0812 24.2192 67.7314 23.7877 67.7314Z" fill="#0000CB"/>
</g>
<path d="M45.1953 44.5836H34.8047C34.8047 60.7789 29.8047 66.4414 29.8047 66.4414H50.1953C50.1953 66.4414 45.1953 60.7789 45.1953 44.5836ZM40 60.2823C38.4578 60.2823 37.2062 59.0308 37.2062 57.4886C37.2062 55.9464 38.4578 54.6948 40 54.6948C41.5422 54.6948 42.7938 55.9464 42.7938 57.4886C42.7938 59.0308 41.5422 60.2823 40 60.2823Z" fill="#D8D8FF"/>
<path d="M42.6266 58.4441C42.7344 58.1456 42.7938 57.8238 42.7938 57.4878C42.7938 55.9456 41.5422 54.6941 40 54.6941C38.4578 54.6941 37.2063 55.9456 37.2063 57.4878C37.2063 57.8238 37.2656 58.1456 37.3735 58.4441H33.2672C34.125 55.0925 34.8047 50.5534 34.8047 44.5831H45.1953C45.1953 50.5534 45.875 55.0925 46.7328 58.4441H42.6266Z" fill="#B2B2FF"/>
<path d="M52.2673 69.5353H27.7329C27.2151 69.5353 26.7954 69.1156 26.7954 68.5978V67.1402C26.7954 66.6223 27.2151 66.2027 27.7329 66.2027H52.2673C52.7851 66.2027 53.2048 66.6223 53.2048 67.1402V68.5978C53.2048 69.1156 52.7851 69.5353 52.2673 69.5353Z" fill="#B2B2FF"/>
<path d="M70.243 53.1323V17.7559C70.243 16.893 69.5435 16.1934 68.6805 16.1934H11.3196C10.4566 16.1934 9.75708 16.893 9.75708 17.7559V53.1322C9.75708 53.9952 10.4566 54.6947 11.3196 54.6947H68.6805C69.5435 54.6948 70.243 53.9952 70.243 53.1323Z" fill="#9393FF"/>
<path d="M48.6556 35.4441H65.0678V54.6947H48.6556V35.4441Z" fill="#D8D8FF"/>
<path d="M62.8247 54.6948L62.0781 51.8466C62.0033 51.5594 61.8066 51.3192 61.5403 51.1894L58.0002 49.4606V47.5444H55.5894V49.4606L52.0506 51.1894C51.7844 51.3192 51.5877 51.5592 51.5128 51.8466L50.7656 54.6948H62.8247Z" fill="#FFC498"/>
<path d="M55.5897 49.46C55.5897 49.46 55.7319 50.4195 56.7952 50.4195C57.8585 50.4195 58.0007 49.46 58.0007 49.46V47.545H55.5897V49.46Z" fill="#FF9393"/>
<path d="M60.5391 45.4966C61.2668 45.4966 61.8567 44.9066 61.8567 44.1789C61.8567 43.4512 61.2668 42.8613 60.5391 42.8613C59.8114 42.8613 59.2214 43.4512 59.2214 44.1789C59.2214 44.9066 59.8114 45.4966 60.5391 45.4966Z" fill="#FF9393"/>
<path d="M53.0514 45.4966C53.7791 45.4966 54.3691 44.9066 54.3691 44.1789C54.3691 43.4512 53.7791 42.8613 53.0514 42.8613C52.3237 42.8613 51.7338 43.4512 51.7338 44.1789C51.7338 44.9066 52.3237 45.4966 53.0514 45.4966Z" fill="#FF9393"/>
<path d="M56.7952 48.6741C54.9004 48.6741 53.3643 47.138 53.3643 45.2431V43.0702C53.3643 41.1753 54.9004 39.6392 56.7952 39.6392C58.69 39.6392 60.2261 41.1753 60.2261 43.0702V45.2431C60.2261 47.138 58.69 48.6741 56.7952 48.6741Z" fill="#FFB2B2"/>
<path d="M48.6556 16.1934H65.0678V35.4441H48.6556V16.1934Z" fill="white"/>
<path d="M45.2853 54.6948L42.0456 47.5376C41.8808 47.1733 41.5823 46.8861 41.2122 46.7351L32.2331 43.0739V39.6561H27.3764V43.0739L18.3973 46.7351C18.027 46.8861 17.7287 47.1734 17.5639 47.5376L14.3242 54.6948H45.2853Z" fill="#FF9C33"/>
<path d="M27.3764 43.0739C27.3764 43.0739 27.6628 45.007 29.8047 45.007C31.9465 45.007 32.2329 43.0739 32.2329 43.0739V39.6561H27.3762V43.0739H27.3764Z" fill="#FF6C6C"/>
<path d="M21.4509 27.4262C21.4509 27.4262 20.6225 33.0039 23.6698 34.9264V27.4262H21.4509Z" fill="#FFC498"/>
<path d="M38.1586 27.4262C38.1586 27.4262 38.987 33.0039 35.9397 34.9264V27.4262H38.1586Z" fill="#FFC498"/>
<path d="M37.3465 35.5297C38.8126 35.5297 40.0011 34.3412 40.0011 32.8751C40.0011 31.4091 38.8126 30.2206 37.3465 30.2206C35.8805 30.2206 34.692 31.4091 34.692 32.8751C34.692 34.3412 35.8805 35.5297 37.3465 35.5297Z" fill="#FF6C6C"/>
<path d="M22.2628 35.5297C23.7289 35.5297 24.9173 34.3412 24.9173 32.8751C24.9173 31.4091 23.7289 30.2206 22.2628 30.2206C20.7968 30.2206 19.6083 31.4091 19.6083 32.8751C19.6083 34.3412 20.7968 35.5297 22.2628 35.5297Z" fill="#FF6C6C"/>
<path d="M29.8047 41.9306C25.9875 41.9306 22.8933 38.8362 22.8933 35.0192V27.4262H36.7163V35.0192C36.7163 38.8362 33.6219 41.9306 29.8047 41.9306Z" fill="#FF9393"/>
<path d="M38.9542 25.9711C38.9542 23.4906 34.8578 20.1319 29.8048 20.1319C24.7519 20.1319 20.6555 23.4906 20.6555 25.9711C20.6555 25.9711 20.4387 29.7851 27.7848 30.2191C28.3645 30.2533 28.8103 29.7495 28.8165 29.177C29.8745 29.943 33.9084 30.3825 36.4147 29.6494C37.0589 29.4609 37.3203 28.7741 37.0458 28.1462C38.2128 27.9283 38.9542 27.2683 38.9542 25.9711Z" fill="#FFE7DB"/>
<path d="M62.8247 35.4441L62.0775 32.5958C62.0027 32.3086 61.806 32.0684 61.5397 31.9386L58.0008 30.2098V28.2936H55.59V30.2098L52.0499 31.9386C51.7836 32.0684 51.5869 32.3084 51.5121 32.5958L50.7655 35.4441H62.8247Z" fill="#9393FF"/>
<path d="M55.5897 30.2094C55.5897 30.2094 55.7319 31.1689 56.7952 31.1689C57.8585 31.1689 58.0007 30.2094 58.0007 30.2094V28.2944H55.5897V30.2094Z" fill="#FF6C6C"/>
<path d="M52.8825 22.6299C52.8825 22.6299 52.4945 25.2422 53.9218 26.1427V22.6299H52.8825Z" fill="#FF2C2C"/>
<path d="M60.7078 22.6299C60.7078 22.6299 61.0958 25.2422 59.6685 26.1427V22.6299H60.7078Z" fill="#FF2C2C"/>
<path d="M60.3276 26.4253C61.0143 26.4253 61.5709 25.8687 61.5709 25.182C61.5709 24.4954 61.0143 23.9388 60.3276 23.9388C59.641 23.9388 59.0844 24.4954 59.0844 25.182C59.0844 25.8687 59.641 26.4253 60.3276 26.4253Z" fill="#FF6C6C"/>
<path d="M53.2628 26.4253C53.9495 26.4253 54.5061 25.8687 54.5061 25.182C54.5061 24.4954 53.9495 23.9388 53.2628 23.9388C52.5762 23.9388 52.0195 24.4954 52.0195 25.182C52.0195 25.8687 52.5762 26.4253 53.2628 26.4253Z" fill="#FF6C6C"/>
<path d="M56.7952 29.4234C55.0074 29.4234 53.558 27.9741 53.558 26.1863V22.63H60.0322V26.1863C60.0324 27.9741 58.583 29.4234 56.7952 29.4234Z" fill="#FF9393"/>
<path d="M52.8825 22.6298C52.8825 22.6298 51.9634 19.6495 55.3487 18.9478C58.55 18.2842 58.9789 19.9477 60.2028 19.6102C60.5084 19.5259 60.8319 19.6716 60.9481 19.9666C61.3558 21.0017 61.8219 23.0964 59.015 23.2688C57.5447 23.3591 56.8959 22.7928 56.8959 22.7928L57.0842 23.0677C57.3086 23.3952 57.0894 23.8433 56.693 23.8645C55.5697 23.9247 53.673 23.8295 52.8825 22.6298Z" fill="#FF4D4D"/>
<path d="M13.8529 19.9078V21.5358C13.8529 21.7717 14.1043 21.9225 14.3124 21.8116L15.8396 20.9975C16.0603 20.8798 16.0603 20.5636 15.8396 20.4459L14.3124 19.6319C14.1043 19.5211 13.8529 19.672 13.8529 19.9078Z" fill="white"/>
<path d="M18.5322 21.8606C19.1611 21.8606 19.6709 21.3508 19.6709 20.7219C19.6709 20.093 19.1611 19.5831 18.5322 19.5831C17.9033 19.5831 17.3934 20.093 17.3934 20.7219C17.3934 21.3508 17.9033 21.8606 18.5322 21.8606Z" fill="#FF6C6C"/>
<path d="M28.0166 50.6364H14.6797C14.2483 50.6364 13.8984 50.2866 13.8984 49.8552V48.9512C13.8984 48.5198 14.2483 48.17 14.6797 48.17H28.0166C28.448 48.17 28.7978 48.5198 28.7978 48.9512V49.8552C28.7978 50.2867 28.448 50.6364 28.0166 50.6364Z" fill="#D8D8FF"/>
<path d="M17.0236 40.94H14.6797C14.2483 40.94 13.8984 40.5902 13.8984 40.1587C13.8984 39.7273 14.2483 39.3775 14.6797 39.3775H17.0236C17.455 39.3775 17.8048 39.7273 17.8048 40.1587C17.8048 40.5902 17.4552 40.94 17.0236 40.94Z" fill="#FF6C6C"/>
<path d="M22.0691 43.668H14.6797C14.2483 43.668 13.8984 43.3181 13.8984 42.8867C13.8984 42.4553 14.2483 42.1055 14.6797 42.1055H22.0691C22.5005 42.1055 22.8503 42.4553 22.8503 42.8867C22.8503 43.3181 22.5005 43.668 22.0691 43.668Z" fill="white"/>
<path d="M22.0691 46.3961H14.6797C14.2483 46.3961 13.8984 46.0462 13.8984 45.6148C13.8984 45.1834 14.2483 44.8336 14.6797 44.8336H22.0691C22.5005 44.8336 22.8503 45.1834 22.8503 45.6148C22.8503 46.0462 22.5005 46.3961 22.0691 46.3961Z" fill="white"/>
<path d="M16.005 12.8866C15.5734 12.8866 15.2238 12.5367 15.2238 12.1053C15.2238 11.6314 14.8381 11.2459 14.3644 11.2459C13.9328 11.2459 13.5831 10.8961 13.5831 10.4647C13.5831 10.0333 13.9328 9.68344 14.3644 9.68344C14.8381 9.68344 15.2238 9.29797 15.2238 8.82407C15.2238 8.39266 15.5734 8.04282 16.005 8.04282C16.4366 8.04282 16.7863 8.39266 16.7863 8.82407C16.7863 9.29797 17.1719 9.68344 17.6456 9.68344C18.0772 9.68344 18.4269 10.0333 18.4269 10.4647C18.4269 10.8961 18.0772 11.2459 17.6456 11.2459C17.1719 11.2459 16.7863 11.6314 16.7863 12.1053C16.7863 12.5369 16.4364 12.8866 16.005 12.8866Z" fill="#FF9C33"/>
<path d="M24.0078 11.5584C23.5762 11.5584 23.2266 11.2086 23.2266 10.7772C23.2266 10.3033 22.8409 9.91782 22.3672 9.91782C21.9356 9.91782 21.5859 9.56797 21.5859 9.13657C21.5859 8.70516 21.9356 8.35532 22.3672 8.35532C22.8409 8.35532 23.2266 7.96985 23.2266 7.49594C23.2266 7.06453 23.5762 6.71469 24.0078 6.71469C24.4394 6.71469 24.7891 7.06453 24.7891 7.49594C24.7891 7.96985 25.1747 8.35532 25.6484 8.35532C26.08 8.35532 26.4297 8.70516 26.4297 9.13657C26.4297 9.56797 26.08 9.91782 25.6484 9.91782C25.1747 9.91782 24.7891 10.3033 24.7891 10.7772C24.7891 11.2086 24.4394 11.5584 24.0078 11.5584Z" fill="#6C6CFF"/>
<path d="M65.0679 68.8638C64.6363 68.8638 64.2866 68.5139 64.2866 68.0825C64.2866 67.6086 63.901 67.2231 63.4272 67.2231C62.9957 67.2231 62.646 66.8733 62.646 66.4419C62.646 66.0105 62.9957 65.6606 63.4272 65.6606C63.901 65.6606 64.2866 65.2752 64.2866 64.8013C64.2866 64.3698 64.6363 64.02 65.0679 64.02C65.4994 64.02 65.8491 64.3698 65.8491 64.8013C65.8491 65.2752 66.2347 65.6606 66.7085 65.6606C67.1401 65.6606 67.4897 66.0105 67.4897 66.4419C67.4897 66.8733 67.1401 67.2231 66.7085 67.2231C66.2347 67.2231 65.8491 67.6086 65.8491 68.0825C65.8491 68.5139 65.4993 68.8638 65.0679 68.8638Z" fill="#6C6CFF"/>
<path d="M9.75708 65.3464C9.32552 65.3464 8.97583 64.9966 8.97583 64.5652C8.97583 64.0912 8.59021 63.7058 8.11646 63.7058C7.68489 63.7058 7.33521 63.3559 7.33521 62.9245C7.33521 62.4931 7.68489 62.1433 8.11646 62.1433C8.59021 62.1433 8.97583 61.7578 8.97583 61.2839C8.97583 60.8525 9.32552 60.5027 9.75708 60.5027C10.1886 60.5027 10.5383 60.8525 10.5383 61.2839C10.5383 61.7578 10.924 62.1433 11.3977 62.1433C11.8293 62.1433 12.179 62.4931 12.179 62.9245C12.179 63.3559 11.8293 63.7058 11.3977 63.7058C10.924 63.7058 10.5383 64.0912 10.5383 64.5652C10.5383 64.9967 10.1886 65.3464 9.75708 65.3464Z" fill="#FF6C6C"/>
<path d="M60.1095 65.0339C59.9096 65.0339 59.7095 64.9577 59.5571 64.8052L58.7032 63.9514L57.8493 64.8052C57.5445 65.1102 57.0495 65.1102 56.7446 64.8052C56.4395 64.5 56.4395 64.0053 56.7446 63.7003L58.1509 62.2941C58.4557 61.9891 58.9507 61.9891 59.2555 62.2941L60.6618 63.7003C60.967 64.0055 60.967 64.5002 60.6618 64.8052C60.5095 64.9577 60.3093 65.0339 60.1095 65.0339Z" fill="#FF6C6C"/>
<path d="M68.6805 15.4122H60.755C60.3235 15.4122 59.9738 15.762 59.9738 16.1934C59.9738 16.6248 60.3235 16.9747 60.755 16.9747H68.6805C69.1113 16.9747 69.4618 17.3252 69.4618 17.7559V53.1322C69.4618 53.563 69.1113 53.9134 68.6805 53.9134H11.3196C10.8888 53.9134 10.5383 53.563 10.5383 53.1322V34.7967C10.5383 34.3653 10.1886 34.0155 9.75708 34.0155C9.32552 34.0155 8.97583 34.3653 8.97583 34.7967V53.1322C8.97583 54.4245 10.0272 55.4759 11.3196 55.4759H33.1079C32.0404 61.2306 30.3277 64.3006 29.5835 65.4214H27.7329C26.7852 65.4214 26.0141 66.1925 26.0141 67.1402V68.5978C26.0141 69.5455 26.7852 70.3166 27.7329 70.3166H52.2672C53.2149 70.3166 53.986 69.5455 53.986 68.5978V67.1402C53.986 66.1925 53.2149 65.4214 52.2672 65.4214H50.4169C49.6713 64.2984 47.9593 61.2283 46.8922 55.4759H68.6805C69.9729 55.4759 71.0243 54.4245 71.0243 53.1322V17.7559C71.0243 16.4636 69.9729 15.4122 68.6805 15.4122ZM42.0125 57.4886C42.0125 58.5983 41.1097 59.5011 40 59.5011C38.8904 59.5011 37.9875 58.5983 37.9875 57.4886C37.9875 56.3789 38.8904 55.4761 40 55.4761C41.1097 55.4761 42.0125 56.3789 42.0125 57.4886ZM52.2672 66.9839C52.3535 66.9839 52.4235 67.0541 52.4235 67.1402V68.5978C52.4235 68.6839 52.3535 68.7541 52.2672 68.7541H27.7329C27.6466 68.7541 27.5766 68.6839 27.5766 68.5978V67.1402C27.5766 67.0541 27.6466 66.9839 27.7329 66.9839H52.2672ZM48.573 65.4214H31.4271C32.3896 63.7398 33.8016 60.5833 34.7076 55.4759H37.0472C36.6551 56.0497 36.425 56.7427 36.425 57.4884C36.425 59.4597 38.0288 61.0634 40 61.0634C41.9713 61.0634 43.575 59.4597 43.575 57.4884C43.575 56.7425 43.3452 56.0495 42.9529 55.4759H45.2925C46.1983 60.5833 47.6105 63.74 48.573 65.4214Z" fill="#0000CB"/>
<path d="M9.75708 31.2539C10.1886 31.2539 10.5383 30.9041 10.5383 30.4727V17.7559C10.5383 17.3252 10.8888 16.9747 11.3196 16.9747H56.4308C56.8624 16.9747 57.2121 16.6248 57.2121 16.1934C57.2121 15.762 56.8624 15.4122 56.4308 15.4122H11.3196C10.0272 15.4122 8.97583 16.4636 8.97583 17.7559V30.4727C8.97583 30.9041 9.32567 31.2539 9.75708 31.2539Z" fill="#0000CB"/>
<path d="M23.7877 59.1745H20.8842C20.4526 59.1745 20.1029 58.8247 20.1029 58.3933C20.1029 57.9619 20.4526 57.612 20.8842 57.612H23.7877C24.2193 57.612 24.569 57.9619 24.569 58.3933C24.569 58.8247 24.2193 59.1745 23.7877 59.1745Z" fill="#0000CB"/>
<path d="M23.7877 62.3592H15.8842C15.4526 62.3592 15.1029 62.0094 15.1029 61.578C15.1029 61.1466 15.4526 60.7967 15.8842 60.7967H23.7877C24.2193 60.7967 24.569 61.1466 24.569 61.578C24.569 62.0094 24.2193 62.3592 23.7877 62.3592Z" fill="#0000CB"/>
<path d="M23.7877 65.5439H15.8842C15.4526 65.5439 15.1029 65.1941 15.1029 64.7627C15.1029 64.3312 15.4526 63.9814 15.8842 63.9814H23.7877C24.2193 63.9814 24.569 64.3312 24.569 64.7627C24.569 65.1941 24.2193 65.5439 23.7877 65.5439Z" fill="#0000CB"/>
</g>
<defs>
<linearGradient id="paint0_linear_843_78507" x1="11.8103" y1="70.5842" x2="70.367" y2="12.0274" gradientUnits="userSpaceOnUse">
<stop stop-color="#FFD8D8" stop-opacity="0"/>
<stop offset="0.9981" stop-color="#FFB2B2"/>
</linearGradient>
<clipPath id="clip0_843_78507">
<rect width="80" height="80" fill="white"/>
</clipPath>
</defs>
</svg>
