<svg width="80" height="80" viewBox="0 0 80 80" fill="none" xmlns="http://www.w3.org/2000/svg">
<path d="M79.3609 19.2183C75.3489 -8.93719 60.4945 11.8142 40.697 12.8861C32.2231 13.3448 23.5345 13.8372 15.3995 16.338C3.24951 20.0731 -2.7283 34.6444 1.19842 46.4928C2.4881 50.3844 4.62513 54.1317 4.63279 58.2317C4.63748 60.7602 3.62138 63.3564 4.33873 65.7808C7.8717 77.7203 26.8398 76.1536 34.5356 68.3278C40.514 62.2484 42.694 51.7758 50.6976 48.8377C70.1687 41.6897 83.0815 45.328 79.3609 19.2183Z" fill="url(#paint0_linear_843_78699)"/>
<path opacity="0.1" d="M69.6259 30.5128H59.8311V12.5684C59.8311 11.7055 59.1315 11.0059 58.2686 11.0059H10.374C9.51105 11.0059 8.81152 11.7055 8.81152 12.5684V44.4141C8.81152 45.277 9.51105 45.9766 10.374 45.9766H26.9571L24.16 48.5373C23.1506 49.4623 22.574 50.7686 22.574 52.1373V54.1995L17.1365 53.5233C17.0584 53.5138 16.9828 53.5195 16.9092 53.532C16.5914 52.6145 15.7218 51.9548 14.6962 51.9548C13.4018 51.9548 12.3525 53.0042 12.3525 54.2986C12.3525 55.593 13.4018 56.6423 14.6962 56.6423C15.7215 56.6423 16.5907 55.983 16.9089 55.0659C16.9207 55.068 16.9315 55.0723 16.9436 55.0739L22.5739 55.7742V56.525C22.5739 58.425 23.2395 60.2656 24.4551 61.7266L26.1659 63.7839C21.46 64.9894 18.4484 66.8361 18.4484 68.9066C18.4484 72.5386 27.7121 75.4828 39.1396 75.4828C50.5672 75.4828 59.8311 72.5381 59.8311 68.9063C59.8311 66.962 57.1746 65.2156 52.9545 64.0117L62.9067 60.7639C63.2278 61.6755 64.0942 62.33 65.1154 62.33C66.4098 62.33 67.4592 61.2806 67.4592 59.9863C67.4592 58.6919 66.4098 57.6425 65.1154 57.6425C64.0901 57.6425 63.2209 58.3019 62.9028 59.2189C62.8909 59.2169 62.8801 59.2125 62.8681 59.2109L52.865 57.9669L53.1346 57.2123C53.6004 55.9097 53.9686 54.577 54.2392 53.2255H69.6256C70.4881 53.2255 71.1881 52.5255 71.1881 51.663V32.0755C71.1884 31.2113 70.4884 30.5128 69.6259 30.5128ZM59.2018 60.3294L51.0721 62.9823L52.3264 59.4742L59.2018 60.3294Z" fill="#0000CB"/>
<path d="M71.1884 28.3253V47.9128C71.1884 48.7753 70.4884 49.4753 69.6259 49.4753H50.0369C49.1744 49.4753 48.4744 48.7753 48.4744 47.9128V28.3253C48.4744 27.4613 49.1744 26.7628 50.0369 26.7628H69.6259C70.4884 26.7628 71.1884 27.4613 71.1884 28.3253Z" fill="#8282FF"/>
<path d="M65.1156 45.9769C66.41 45.9769 67.4594 44.9275 67.4594 43.6331C67.4594 42.3387 66.41 41.2894 65.1156 41.2894C63.8212 41.2894 62.7719 42.3387 62.7719 43.6331C62.7719 44.9275 63.8212 45.9769 65.1156 45.9769Z" fill="#6C6CFF"/>
<path d="M59.8309 26.7628V44.4144C59.8309 45.2769 59.1324 45.9769 58.2684 45.9769H48.4746V28.3253C48.4746 27.4613 49.1746 26.7628 50.0371 26.7628H59.8309Z" fill="#6C6CFF"/>
<path d="M39.1399 71.7325C50.5673 71.7325 59.8311 68.7882 59.8311 65.1562C59.8311 61.5243 50.5673 58.58 39.1399 58.58C27.7124 58.58 18.4486 61.5243 18.4486 65.1562C18.4486 68.7882 27.7124 71.7325 39.1399 71.7325Z" fill="#FF6C6C"/>
<path d="M56.0399 61.3613L41.5883 66.0773C41.1736 65.418 40.4414 64.9783 39.6049 64.9783C38.3105 64.9783 37.2611 66.0277 37.2611 67.322C37.2611 68.6164 38.3105 69.6658 39.6049 69.6658C40.7935 69.6658 41.773 68.7803 41.9256 67.6334L57.9236 62.3955C57.3933 62.0316 56.762 61.6855 56.0399 61.3613Z" fill="#FF4D4D"/>
<path d="M39.1398 71.7325C46.0715 71.7325 52.2065 70.6489 55.9614 68.9859C54.5775 66.4311 47.5732 64.4873 39.1398 64.4873C30.7064 64.4873 23.7021 66.4311 22.3182 68.9859C26.0731 70.6489 32.2079 71.7325 39.1398 71.7325Z" fill="#FF4D4D"/>
<path d="M58.2686 42.2264H10.374C9.51105 42.2264 8.81152 41.5269 8.81152 40.6639V8.81844C8.81152 7.95547 9.51105 7.25594 10.374 7.25594H58.2687C59.1317 7.25594 59.8312 7.95547 59.8312 8.81844V40.6641C59.8311 41.5269 59.1315 42.2264 58.2686 42.2264Z" fill="#B2B2FF"/>
<path d="M50.037 26.7625C49.174 26.7625 48.4745 27.462 48.4745 28.325V42.2266H58.2686C59.1315 42.2266 59.8311 41.527 59.8311 40.6641V26.7625H50.037Z" fill="#9393FF"/>
<path d="M54.2552 15.3725H42.9185L42.1372 13.3014L42.9185 11.2303H54.2552C54.6866 11.2303 55.0364 11.5802 55.0364 12.0116V14.5913C55.0364 15.0227 54.6867 15.3725 54.2552 15.3725Z" fill="white"/>
<path d="M37.436 11.2303H14.3875C13.956 11.2303 13.6062 11.5802 13.6062 12.0116V14.5913C13.6062 15.0227 13.956 15.3725 14.3875 15.3725H37.436L38.2173 13.3014L37.436 11.2303Z" fill="#FFAA66"/>
<path d="M37.436 11.2303H42.9184V15.3725H37.436V11.2303Z" fill="#FF6C6C"/>
<path d="M22.4747 21.2766L20.418 19.2205C20.3539 19.1564 20.267 19.1205 20.1764 19.1205H19.2814C19.1519 19.1205 19.0302 19.1922 18.9762 19.31C18.8255 19.6384 18.4934 19.8662 18.1087 19.8662C17.7242 19.8662 17.392 19.6384 17.2412 19.31C17.1872 19.1923 17.0656 19.1205 16.9361 19.1205H16.0403C15.9497 19.1205 15.8628 19.1564 15.7987 19.2205L13.7427 21.2766C13.6092 21.41 13.6092 21.6262 13.7427 21.7597L14.6136 22.6306C14.747 22.7641 14.9633 22.7641 15.0967 22.6306L15.8981 21.8292V25.7025C15.8981 25.8913 16.0511 26.0442 16.2398 26.0442H19.9762C20.165 26.0442 20.318 25.8913 20.318 25.7025V21.8281L21.1206 22.6308C21.2541 22.7642 21.4703 22.7642 21.6038 22.6308L22.4747 21.7598C22.6081 21.6262 22.6081 21.41 22.4747 21.2766Z" fill="#6C6CFF"/>
<path d="M18.1087 30.795H14.4091C13.9775 30.795 13.6278 30.4452 13.6278 30.0137C13.6278 29.5823 13.9775 29.2325 14.4091 29.2325H18.1087C18.5403 29.2325 18.89 29.5823 18.89 30.0137C18.89 30.4452 18.5402 30.795 18.1087 30.795Z" fill="white"/>
<path d="M23.6833 33.7397H14.4091C13.9775 33.7397 13.6278 33.3898 13.6278 32.9584C13.6278 32.527 13.9775 32.1772 14.4091 32.1772H23.6833C24.1148 32.1772 24.4645 32.527 24.4645 32.9584C24.4645 33.3898 24.1148 33.7397 23.6833 33.7397Z" fill="white"/>
<path d="M23.6833 36.6842H14.4091C13.9775 36.6842 13.6278 36.3344 13.6278 35.903C13.6278 35.4716 13.9775 35.1217 14.4091 35.1217H23.6833C24.1148 35.1217 24.4645 35.4716 24.4645 35.903C24.4645 36.3344 24.1148 36.6842 23.6833 36.6842Z" fill="white"/>
<path d="M16.2587 26.9286C17.1216 26.9286 17.8212 26.229 17.8212 25.3661C17.8212 24.5031 17.1216 23.8036 16.2587 23.8036C15.3957 23.8036 14.6962 24.5031 14.6962 25.3661C14.6962 26.229 15.3957 26.9286 16.2587 26.9286Z" fill="#FF6C6C"/>
<path d="M54.7943 41.5091V43.8903C54.7943 47.1528 54.2333 50.3903 53.1349 53.4622L50.0599 62.0638C49.5568 63.47 49.299 64.9512 49.299 66.445V70.8856C46.2974 71.4247 42.8318 71.7325 39.1396 71.7325C35.7084 71.7325 32.4708 71.4669 29.6224 70.9966V67.1294C29.6224 65.2294 28.9568 63.3888 27.7412 61.9278L24.4552 57.9762C23.2396 56.5153 22.574 54.6747 22.574 52.7747V48.3872C22.574 47.0184 23.1505 45.7122 24.1599 44.7872L28.3193 40.9794V21.3059C28.3193 20.3919 28.6896 19.5638 29.2896 18.9653C29.888 18.3669 30.7162 17.9966 31.6287 17.9966C33.4568 17.9966 34.938 19.4778 34.938 21.3059V35.4106C34.938 34.7356 35.2115 34.1263 35.6537 33.6841C36.0943 33.2434 36.7052 32.97 37.3787 32.97C39.6865 32.97 41.5568 34.8403 41.5568 37.1481V37.5919C41.5568 36.9169 41.8302 36.3075 42.2724 35.8653C42.713 35.4247 43.324 35.1513 43.9974 35.1513C46.3052 35.1513 48.1755 37.0216 48.1755 39.3294V39.7716C48.1755 38.4247 49.2677 37.3309 50.6162 37.3309C52.924 37.3309 54.7943 39.2028 54.7943 41.5091Z" fill="#FFD8D8"/>
<path d="M49.6531 63.4455L41.5883 66.0773C41.1736 65.418 40.4414 64.9783 39.6049 64.9783C38.3105 64.9783 37.2611 66.0277 37.2611 67.322C37.2611 68.6164 38.3105 69.6658 39.6049 69.6658C40.7935 69.6658 41.773 68.7803 41.9256 67.6334L49.361 65.1991C49.418 64.6083 49.5161 64.0228 49.6531 63.4455Z" fill="#FFB2B2"/>
<path d="M14.6962 52.8922C15.9906 52.8922 17.0399 51.8428 17.0399 50.5484C17.0399 49.254 15.9906 48.2047 14.6962 48.2047C13.4017 48.2047 12.3524 49.254 12.3524 50.5484C12.3524 51.8428 13.4017 52.8922 14.6962 52.8922Z" fill="#FF4D4D"/>
<path d="M39.6049 65.9159C40.8993 65.9159 41.9486 64.8666 41.9486 63.5722C41.9486 62.2778 40.8993 61.2284 39.6049 61.2284C38.3104 61.2284 37.2611 62.2778 37.2611 63.5722C37.2611 64.8666 38.3104 65.9159 39.6049 65.9159Z" fill="#FF4D4D"/>
<path d="M65.1155 58.5798C66.4099 58.5798 67.4592 57.5305 67.4592 56.2361C67.4592 54.9417 66.4099 53.8923 65.1155 53.8923C63.8211 53.8923 62.7717 54.9417 62.7717 56.2361C62.7717 57.5305 63.8211 58.5798 65.1155 58.5798Z" fill="#FF4D4D"/>
<path d="M65.1155 43.002C66.4099 43.002 67.4592 41.9527 67.4592 40.6583C67.4592 39.3639 66.4099 38.3145 65.1155 38.3145C63.8211 38.3145 62.7717 39.3639 62.7717 40.6583C62.7717 41.9527 63.8211 43.002 65.1155 43.002Z" fill="#FF4D4D"/>
<path d="M69.6253 25.9811H64.2834C63.8518 25.9811 63.5021 26.3309 63.5021 26.7623C63.5021 27.1937 63.8518 27.5436 64.2834 27.5436H69.6253C70.056 27.5436 70.4065 27.8941 70.4065 28.3248V47.9131C70.4065 48.3439 70.056 48.6944 69.6253 48.6944H65.8968V43.6805C67.2425 43.3322 68.2406 42.1112 68.2406 40.6583C68.2406 38.9352 66.8387 37.5333 65.1156 37.5333C63.3925 37.5333 61.9906 38.9352 61.9906 40.6583C61.9906 42.1112 62.9887 43.3322 64.3343 43.6805V48.6944H55.1778C55.4414 47.112 55.5756 45.5075 55.5756 43.8903V43.0077H58.2686C59.5609 43.0077 60.6123 41.9562 60.6123 40.6639V8.81844C60.6123 7.52609 59.5609 6.47469 58.2686 6.47469H10.374C9.08168 6.47469 8.03027 7.52609 8.03027 8.81844V40.6641C8.03027 41.9564 9.08168 43.0078 10.374 43.0078H24.9468L23.6321 44.2114C22.4632 45.2827 21.7928 46.8047 21.7928 48.3873V50.3523L17.7393 49.8483C17.4201 48.4617 16.1784 47.4236 14.6964 47.4236C12.9732 47.4236 11.5714 48.8255 11.5714 50.5486C11.5714 52.2717 12.9732 53.6736 14.6964 53.6736C16.1178 53.6736 17.3184 52.7188 17.6959 51.4175L21.7928 51.927V52.775C21.7928 54.8533 22.5251 56.8781 23.8545 58.4761L24.7914 59.6028C20.1862 60.9694 17.6678 62.9212 17.6678 65.1562C17.6678 68.0761 22.0893 70.5477 29.4951 71.7677C32.4528 72.2559 35.7876 72.5141 39.1396 72.5141C42.7464 72.5141 46.3071 72.217 49.4367 71.655C56.5393 70.3823 60.6129 68.0136 60.6129 65.1562C60.6129 63.0594 58.3321 61.1858 54.2454 59.8408L62.1664 57.2558C62.5901 58.4791 63.7498 59.3614 65.1156 59.3614C66.8387 59.3614 68.2406 57.9595 68.2406 56.2364C68.2406 54.7834 67.2425 53.5625 65.8968 53.2142V50.2572H69.6251C70.9175 50.2572 71.9689 49.2058 71.9689 47.9134V28.3248C71.969 27.0325 70.9176 25.9811 69.6253 25.9811ZM14.6964 52.1108C13.8348 52.1108 13.1339 51.4098 13.1339 50.5483C13.1339 49.6867 13.8348 48.9858 14.6964 48.9858C15.5579 48.9858 16.2589 49.6867 16.2589 50.5483C16.2589 51.4098 15.5578 52.1108 14.6964 52.1108ZM19.2303 65.1559C19.2303 63.6472 21.7661 62.0392 25.8834 60.9158L27.1406 62.4275C28.2373 63.7453 28.8412 65.4152 28.8412 67.1294V70.0655C22.2476 68.8402 19.2303 66.6939 19.2303 65.1559ZM30.4037 70.3258V67.1294C30.4037 65.0508 29.6714 63.0261 28.342 61.4283L25.0559 57.4766C23.9592 56.1584 23.3553 54.4886 23.3553 52.7747V48.3872C23.3553 47.2414 23.8409 46.1392 24.6875 45.3634L27.5389 42.753V46.3092C27.5389 47.702 26.9965 49.0112 26.0118 49.9959C25.7067 50.3009 25.7067 50.7956 26.0117 51.1008C26.1643 51.2534 26.3643 51.3297 26.5642 51.3297C26.764 51.3297 26.964 51.2534 27.1165 51.1009C28.3964 49.8212 29.1014 48.1195 29.1014 46.3094L29.1006 33.2902C29.1006 32.8587 28.7509 32.5089 28.3193 32.5089C27.8878 32.5089 27.5381 32.8587 27.5381 33.2902V40.6356L26.6536 41.4455H10.374C9.94324 41.4455 9.59277 41.095 9.59277 40.6642V8.81844C9.59277 8.38765 9.94324 8.03719 10.374 8.03719H58.2686C58.6993 8.03719 59.0498 8.38765 59.0498 8.81844V40.6641C59.0498 41.0948 58.6993 41.4453 58.2686 41.4453H55.5739C55.5393 38.7402 53.3293 36.5498 50.6162 36.5498C49.8214 36.5498 49.0929 36.8392 48.5303 37.318C47.7573 35.5828 46.0162 34.3702 43.9973 34.3702C43.2242 34.3702 42.4929 34.6403 41.9112 35.1362C41.1381 33.4012 39.3971 32.1889 37.3784 32.1889C36.7842 32.1889 36.2148 32.3484 35.719 32.6475V21.3062C35.719 19.0506 33.884 17.2156 31.6284 17.2156C30.5362 17.2156 29.5093 17.6409 28.7376 18.4125C27.964 19.1842 27.5378 20.212 27.5378 21.3062V28.8553C27.5378 29.2867 27.8875 29.6366 28.319 29.6366C28.7506 29.6366 29.1003 29.2867 29.1003 28.8553V21.3062C29.1003 20.63 29.3634 19.9952 29.8417 19.5181C30.319 19.0409 30.9534 18.7781 31.6284 18.7781C33.0225 18.7781 34.1565 19.9122 34.1565 21.3062V35.4109C34.1565 35.8423 34.5062 36.1922 34.9378 36.1922C35.3693 36.1922 35.719 35.8423 35.719 35.4109C35.719 34.9677 35.8918 34.5506 36.2057 34.2367C36.5187 33.9239 36.9351 33.7516 37.3784 33.7516C39.2514 33.7516 40.7753 35.2753 40.7753 37.1484V37.5922C40.7753 38.0236 41.125 38.3734 41.5565 38.3734C41.9881 38.3734 42.3378 38.0236 42.3378 37.5922C42.3378 37.1489 42.5106 36.7319 42.8245 36.418C43.1375 36.1052 43.5539 35.9328 43.9972 35.9328C45.8701 35.9328 47.394 37.4566 47.394 39.3297V39.7719C47.394 40.2033 47.7437 40.5531 48.1753 40.5531C48.6068 40.5531 48.9565 40.2033 48.9565 39.7719C48.9565 38.857 49.7009 38.1125 50.6159 38.1125C52.4889 38.1125 54.0126 39.6362 54.0126 41.5094V43.8906C54.0126 47.0728 53.4696 50.2048 52.399 53.1995L50.1325 59.5394L42.349 62.0794C41.8184 61.108 40.7873 60.4475 39.6046 60.4475C37.8815 60.4475 36.4796 61.8494 36.4796 63.5725C36.4796 65.2956 37.8815 66.6975 39.6046 66.6975C41.3187 66.6975 42.7137 65.31 42.7282 63.5992L49.4671 61.4L49.3239 61.8009C48.7887 63.297 48.5173 64.8597 48.5173 66.4453V70.2272C45.6357 70.7014 42.4095 70.9516 39.1392 70.9516C36.1156 70.9512 33.1137 70.7339 30.4037 70.3258ZM41.1676 63.572C41.1676 64.4336 40.4667 65.1345 39.6051 65.1345C38.7436 65.1345 38.0426 64.4336 38.0426 63.572C38.0426 62.7105 38.7436 62.0095 39.6051 62.0095C40.4667 62.0095 41.1676 62.7105 41.1676 63.572ZM51.3462 60.7866C55.9096 61.9081 59.0506 63.5419 59.0506 65.1559C59.0506 66.6698 56.2657 68.6947 50.0803 69.9408V66.445C50.0803 65.0392 50.3209 63.6536 50.7956 62.3267L51.3462 60.7866ZM52.0114 58.9259L53.1207 55.8231L59.2018 56.5794L52.0114 58.9259ZM62.1161 55.3672L53.6596 54.3155L53.8707 53.7252C54.2779 52.5864 54.6115 51.4288 54.8736 50.2569H64.3345V53.2105C63.2682 53.4864 62.422 54.313 62.1161 55.3672ZM66.6781 56.2361C66.6781 57.0977 65.9771 57.7986 65.1156 57.7986C64.254 57.7986 63.5531 57.0977 63.5531 56.2361C63.5531 55.3745 64.254 54.6736 65.1156 54.6736C65.9771 54.6736 66.6781 55.3745 66.6781 56.2361ZM65.1156 42.2208C64.254 42.2208 63.5531 41.5198 63.5531 40.6583C63.5531 39.7967 64.254 39.0958 65.1156 39.0958C65.9771 39.0958 66.6781 39.7967 66.6781 40.6583C66.6781 41.5198 65.9771 42.2208 65.1156 42.2208Z" fill="#0000CB"/>
<path d="M50.3612 21.3162L48.4755 32.4631C48.3579 32.4631 48.2423 32.438 48.1329 32.3895L42.653 29.9448C42.651 29.9448 42.651 29.9428 42.6488 29.9428C42.3482 29.8083 42.1549 29.5076 42.1549 29.1776V21.8606C42.1549 21.6861 42.2096 21.5201 42.3083 21.3834C42.323 21.3603 42.3419 21.3372 42.3608 21.3162H50.3612Z" fill="#FFD5BA"/>
<path d="M54.7943 29.1776C54.7943 29.5076 54.6009 29.8083 54.3004 29.9428C54.2982 29.9428 54.2982 29.9448 54.2962 29.9448L48.8184 32.3895C48.709 32.4378 48.5913 32.4631 48.4757 32.4631V21.3162H54.5841C54.6052 21.3394 54.622 21.3625 54.6388 21.3856C54.7356 21.5222 54.7902 21.6883 54.7902 21.8606L54.7943 29.1776Z" fill="#FFC498"/>
<path d="M54.6387 21.3856L48.4735 24.1372L42.3083 21.3836C42.3904 21.2617 42.508 21.1628 42.6488 21.0956C42.6509 21.0956 42.653 21.0936 42.6551 21.0936L48.1307 18.6511C48.3493 18.5523 48.5994 18.5523 48.816 18.6511L54.2916 21.0936C54.4349 21.1586 54.5546 21.2616 54.6387 21.3856Z" fill="#FFF2ED"/>
<path d="M10.1807 62.9245H8.61816C7.7566 62.9245 7.05566 62.2236 7.05566 61.362V59.7995C7.05566 58.938 7.7566 58.237 8.61816 58.237H10.1807C11.0422 58.237 11.7432 58.938 11.7432 59.7995V61.362C11.7432 62.2237 11.0422 62.9245 10.1807 62.9245ZM8.61816 59.7995V61.363L10.1807 61.362V59.7995H8.61816Z" fill="#FF6C6C"/>
<path d="M65.8969 20.9859H64.3344C63.4728 20.9859 62.7719 20.285 62.7719 19.4234V17.8609C62.7719 16.9994 63.4728 16.2984 64.3344 16.2984H65.8969C66.7584 16.2984 67.4594 16.9994 67.4594 17.8609V19.4234C67.4594 20.285 66.7584 20.9859 65.8969 20.9859ZM64.3344 17.8609V19.4244L65.8969 19.4234V17.8609H64.3344Z" fill="#6C6CFF"/>
<path d="M69.7086 70.482C69.5086 70.482 69.3086 70.4058 69.1561 70.2531L68.9199 70.0169C68.4933 69.5905 67.7991 69.5903 67.3722 70.017L67.1361 70.2531C66.831 70.5583 66.3364 70.5583 66.0313 70.2533C65.8786 70.1008 65.8024 69.9008 65.8024 69.7009C65.8024 69.5009 65.8785 69.3009 66.0311 69.1484L66.2674 68.9122C66.4742 68.7055 66.5881 68.4306 66.5881 68.1383C66.5881 67.8459 66.4742 67.5713 66.2675 67.3645L66.0311 67.1281C65.8785 66.9755 65.8024 66.7756 65.8024 66.5756C65.8024 66.3758 65.8786 66.1758 66.0313 66.0233C66.3366 65.718 66.8311 65.7183 67.1361 66.0234L67.3724 66.2597C67.7989 66.6861 68.4931 66.6863 68.92 66.2595L69.1561 66.0234C69.4613 65.7183 69.9558 65.7183 70.261 66.0233C70.4136 66.1758 70.4899 66.3758 70.4899 66.5756C70.4899 66.7756 70.4138 66.9756 70.2611 67.1281L70.0249 67.3644C69.818 67.5711 69.7041 67.8459 69.7041 68.1383C69.7041 68.4306 69.818 68.7053 70.0247 68.912L70.2611 69.1484C70.4138 69.3011 70.4899 69.5009 70.4899 69.7009C70.4899 69.9008 70.4136 70.1008 70.261 70.2533C70.1083 70.4058 69.9085 70.482 69.7086 70.482Z" fill="#6C6CFF"/>
<path d="M7.62061 55.0975C7.42061 55.0975 7.22061 55.0213 7.06811 54.8686L6.83186 54.6323C6.40514 54.2056 5.71107 54.2058 5.28436 54.6323L5.04795 54.8688C4.74264 55.1739 4.24811 55.1736 3.94311 54.8686C3.79045 54.7159 3.71436 54.5161 3.71436 54.3161C3.71436 54.1162 3.79061 53.9163 3.94326 53.7638L4.17967 53.5275C4.38623 53.3209 4.50014 53.0461 4.50014 52.7538C4.50014 52.4614 4.38623 52.1867 4.17967 51.98L3.94326 51.7438C3.79061 51.5913 3.71436 51.3913 3.71436 51.1914C3.71436 50.9914 3.79045 50.7914 3.94311 50.6389C4.24826 50.3337 4.74279 50.3338 5.04795 50.6388L5.28436 50.875C5.71076 51.3016 6.40529 51.3017 6.83201 50.875L7.06811 50.6388C7.37326 50.3336 7.86779 50.3336 8.17295 50.6386C8.32561 50.7911 8.40186 50.9911 8.40186 51.1909C8.40186 51.3909 8.32576 51.5909 8.17311 51.7434L7.93686 51.9797C7.51014 52.4064 7.51014 53.1006 7.9367 53.5273L8.17311 53.7638C8.32576 53.9164 8.40186 54.1163 8.40186 54.3163C8.40186 54.5161 8.32561 54.7161 8.17295 54.8686C8.02029 55.0211 7.82061 55.0975 7.62061 55.0975Z" fill="#FF9C33"/>
<path d="M71.2711 14.5845C71.0711 14.5845 70.8711 14.5083 70.7186 14.3556L70.4824 14.1194C70.0558 13.693 69.3616 13.6928 68.9347 14.1195L68.6986 14.3556C68.3935 14.6608 67.8989 14.6608 67.5938 14.3558C67.4411 14.2033 67.3649 14.0033 67.3649 13.8034C67.3649 13.6034 67.441 13.4034 67.5936 13.2509L67.8299 13.0147C68.0367 12.808 68.1506 12.5331 68.1506 12.2408C68.1506 11.9484 68.0367 11.6737 67.83 11.467L67.5936 11.2306C67.441 11.078 67.3649 10.8781 67.3649 10.6781C67.3649 10.4783 67.4411 10.2783 67.5938 10.1258C67.8991 9.82062 68.3936 9.82078 68.6986 10.1259L68.9349 10.3622C69.3614 10.7886 70.0556 10.7887 70.4825 10.362L70.7186 10.1259C71.0238 9.82078 71.5183 9.82078 71.8235 10.1258C71.9761 10.2783 72.0524 10.4783 72.0524 10.6781C72.0524 10.8781 71.9763 11.0781 71.8236 11.2306L71.5874 11.4669C71.3805 11.6736 71.2666 11.9484 71.2666 12.2408C71.2666 12.5331 71.3805 12.8078 71.5872 13.0145L71.8236 13.2509C71.9763 13.4036 72.0524 13.6034 72.0524 13.8034C72.0524 14.0033 71.9761 14.2033 71.8235 14.3558C71.6708 14.5083 71.471 14.5845 71.2711 14.5845Z" fill="#FF9C33"/>
<defs>
<linearGradient id="paint0_linear_843_78699" x1="4.25779" y1="67.6516" x2="70.0708" y2="1.8386" gradientUnits="userSpaceOnUse">
<stop stop-color="#FFF2ED" stop-opacity="0"/>
<stop offset="0.2938" stop-color="#FFE9DD" stop-opacity="0.373"/>
<stop offset="0.7874" stop-color="#FFD5BA"/>
</linearGradient>
</defs>
</svg>
