<svg width="80" height="80" viewBox="0 0 80 80" fill="none" xmlns="http://www.w3.org/2000/svg">
<path d="M21.263 64.3156C19.839 39.8236 9.0667 47.5736 2.90139 37.8489C-7.17408 21.9569 10.9176 2.32953 27.6558 10.9719C30.6244 12.5047 33.1458 14.7862 36.0562 16.4283C53.2745 27.1933 68.3697 2.40844 76.9926 21.1061C81.1253 30.067 81.5275 43.4255 74.8329 51.1458C67.6534 59.4255 52.4175 56.9406 45.9103 65.758C37.937 76.562 21.8417 74.27 21.263 64.3156Z" fill="url(#paint0_linear_843_78891)"/>
<path opacity="0.1" d="M69.4654 23.3214H62.4251V16.788C62.4251 15.0614 61.0251 13.663 59.3001 13.663H20.7001C18.9751 13.663 17.5751 15.0614 17.5751 16.788V52.0458H16.661C12.6735 52.0458 9.44116 55.2783 9.44116 59.2658C9.44116 63.2533 12.6737 66.4856 16.661 66.4856H17.5751V73.6926C17.5751 75.4192 18.9751 76.8176 20.7001 76.8176H59.3001C61.0251 76.8176 62.4251 75.4192 62.4251 73.6926V40.8862H69.4652C70.0693 40.8862 70.559 40.3966 70.559 39.7925V24.4152C70.5591 23.8111 70.0693 23.3214 69.4654 23.3214Z" fill="#0000CB"/>
<path d="M62.4251 13.038V69.9426C62.4251 71.6692 61.0251 73.0676 59.3001 73.0676H20.7001C18.9751 73.0676 17.5751 71.6692 17.5751 69.9426V13.038C17.5751 11.3114 18.9751 9.91296 20.7001 9.91296H59.3001C61.0251 9.91296 62.4251 11.3114 62.4251 13.038Z" fill="#FFAA66"/>
<path d="M35.4204 53.1395V59.2661C35.4204 63.2536 32.1876 66.4864 28.2001 66.4864H17.5751V52.0458H34.3266C34.9298 52.0458 35.4204 52.5348 35.4204 53.1395Z" fill="#FF9C33"/>
<path d="M62.4251 23.3208V40.8864H60.5533L54.4314 44.9755C53.7048 45.4598 52.7298 44.9395 52.7298 44.0661V40.8864H48.7986C48.1955 40.8864 47.7048 40.3973 47.7048 39.7927V24.4145C47.7048 23.8114 48.1955 23.3208 48.7986 23.3208H62.4251Z" fill="#FF9C33"/>
<path d="M58.4235 15.4176V67.5614C58.4235 68.4239 57.7235 69.1239 56.861 69.1239H23.1392C22.2767 69.1239 21.5767 68.4239 21.5767 67.5614V15.4176C21.5767 14.5551 22.2767 13.8551 23.1392 13.8551H56.861C57.7235 13.8551 58.4235 14.5551 58.4235 15.4176Z" fill="white"/>
<path d="M53.9064 35.3158H26.0939C25.4898 35.3158 25.0001 34.8261 25.0001 34.222V25.3164C25.0001 24.7123 25.4898 24.2227 26.0939 24.2227H53.9064C54.5104 24.2227 55.0001 24.7123 55.0001 25.3164V34.222C55.0001 34.8261 54.5104 35.3158 53.9064 35.3158Z" fill="#FF6C6C"/>
<path d="M53.9064 35.3158H26.0939C25.4898 35.3158 25.0001 34.8261 25.0001 34.222V25.3164C25.0001 24.7123 25.4898 24.2227 26.0939 24.2227H53.9064C54.5104 24.2227 55.0001 24.7123 55.0001 25.3164V34.222C55.0001 34.8261 54.5104 35.3158 53.9064 35.3158Z" fill="#FF6C6C"/>
<path d="M58.4236 23.3208V42.3083L54.4314 44.9755C53.7048 45.4598 52.7298 44.9395 52.7298 44.0661V40.8864H48.7986C48.1955 40.8864 47.7048 40.3973 47.7048 39.7927V24.4145C47.7048 23.8114 48.1955 23.3208 48.7986 23.3208H58.4236Z" fill="#D8D8FF"/>
<path d="M35.4204 53.1395V59.2661C35.4204 63.2536 32.1876 66.4864 28.2001 66.4864H21.5767V52.0458H34.3267C34.9298 52.0458 35.4204 52.5348 35.4204 53.1395Z" fill="#D8D8FF"/>
<path d="M51.7782 13.8555V17.2133C51.7782 18.0758 51.0797 18.7758 50.2157 18.7758H29.7844C28.9204 18.7758 28.2219 18.0758 28.2219 17.2133V13.8555H51.7782Z" fill="#D8D8FF"/>
<path d="M44.3028 8.23015C44.2827 5.87047 42.3644 3.96359 40 3.96359C37.6357 3.96359 35.7174 5.87047 35.6972 8.23015H29.7839C28.921 8.23015 28.2214 8.92969 28.2214 9.79265V13.463C28.2214 14.3259 28.921 15.0255 29.7839 15.0255H50.216C51.0789 15.0255 51.7785 14.3259 51.7785 13.463V9.79265C51.7785 8.92969 51.0789 8.23015 50.216 8.23015H44.3028Z" fill="#B2B2FF"/>
<path d="M49.5911 15.0255V13.0831C49.5911 12.6517 49.2412 12.3019 48.8098 12.3019H31.1904C30.759 12.3019 30.4092 12.6517 30.4092 13.0831V15.0255H49.5911Z" fill="#9393FF"/>
<path d="M40 9.47031C40.7767 9.47031 41.4062 8.84071 41.4062 8.06406C41.4062 7.28741 40.7767 6.65781 40 6.65781C39.2233 6.65781 38.5938 7.28741 38.5938 8.06406C38.5938 8.84071 39.2233 9.47031 40 9.47031Z" fill="#6C6CFF"/>
<path d="M30.6619 21.5245C31.0933 21.5245 31.4431 21.1748 31.4431 20.7433C31.4431 20.3118 31.0933 19.962 30.6619 19.962C30.2304 19.962 29.8806 20.3118 29.8806 20.7433C29.8806 21.1748 30.2304 21.5245 30.6619 21.5245Z" fill="#FFAA66"/>
<path d="M28.2217 21.5245C28.6532 21.5245 29.0029 21.1748 29.0029 20.7433C29.0029 20.3118 28.6532 19.962 28.2217 19.962C27.7902 19.962 27.4404 20.3118 27.4404 20.7433C27.4404 21.1748 27.7902 21.5245 28.2217 21.5245Z" fill="#FFAA66"/>
<path d="M25.7814 21.5245C26.2128 21.5245 26.5626 21.1748 26.5626 20.7433C26.5626 20.3118 26.2128 19.962 25.7814 19.962C25.3499 19.962 25.0001 20.3118 25.0001 20.7433C25.0001 21.1748 25.3499 21.5245 25.7814 21.5245Z" fill="#FFAA66"/>
<path d="M34.3265 48.2959H16.661C12.6735 48.2959 9.44116 51.5284 9.44116 55.5158C9.44116 59.5033 12.6737 62.7356 16.661 62.7356H28.2004C32.1879 62.7356 35.4202 59.5031 35.4202 55.5158V49.3895C35.4202 48.7856 34.9305 48.2959 34.3265 48.2959Z" fill="#FF6C6C"/>
<path d="M27.809 57.2377C28.76 57.2377 29.5309 56.4668 29.5309 55.5158C29.5309 54.5648 28.76 53.7939 27.809 53.7939C26.8581 53.7939 26.0872 54.5648 26.0872 55.5158C26.0872 56.4668 26.8581 57.2377 27.809 57.2377Z" fill="white"/>
<path d="M22.4307 57.2377C23.3817 57.2377 24.1526 56.4668 24.1526 55.5158C24.1526 54.5648 23.3817 53.7939 22.4307 53.7939C21.4798 53.7939 20.7089 54.5648 20.7089 55.5158C20.7089 56.4668 21.4798 57.2377 22.4307 57.2377Z" fill="white"/>
<path d="M17.0524 57.2377C18.0034 57.2377 18.7743 56.4668 18.7743 55.5158C18.7743 54.5648 18.0034 53.7939 17.0524 53.7939C16.1015 53.7939 15.3306 54.5648 15.3306 55.5158C15.3306 56.4668 16.1015 57.2377 17.0524 57.2377Z" fill="white"/>
<path d="M69.4653 19.5714H48.7986C48.1945 19.5714 47.7048 20.0611 47.7048 20.6652V36.0425C47.7048 36.6466 48.1945 37.1363 48.7986 37.1363H52.73V40.3156C52.73 41.1897 53.7044 41.7106 54.4312 41.2252L60.5533 37.1363H69.4651C70.0692 37.1363 70.5589 36.6466 70.5589 36.0425V20.6652C70.5591 20.0611 70.0692 19.5714 69.4653 19.5714Z" fill="#8282FF"/>
<path d="M52.7754 25.9714H55.679C56.1104 25.9714 56.4602 25.6216 56.4602 25.1902C56.4602 24.7587 56.1104 24.4089 55.679 24.4089H52.7754C52.344 24.4089 51.9941 24.7587 51.9941 25.1902C51.9941 25.6216 52.344 25.9714 52.7754 25.9714Z" fill="white"/>
<path d="M52.7754 29.1561H61.929C62.3604 29.1561 62.7102 28.8063 62.7102 28.3748C62.7102 27.9434 62.3604 27.5936 61.929 27.5936H52.7754C52.344 27.5936 51.9941 27.9434 51.9941 28.3748C51.9941 28.8063 52.344 29.1561 52.7754 29.1561Z" fill="white"/>
<path d="M52.7754 32.3406H61.929C62.3604 32.3406 62.7102 31.9908 62.7102 31.5594C62.7102 31.128 62.3604 30.7781 61.929 30.7781H52.7754C52.344 30.7781 51.9941 31.128 51.9941 31.5594C51.9941 31.9908 52.344 32.3406 52.7754 32.3406Z" fill="white"/>
<path d="M30.1047 40.2759C30.1047 38.8447 28.9401 37.6802 27.5089 37.6802C26.0776 37.6802 24.9131 38.8447 24.9131 40.2759C24.9131 40.9819 25.1972 41.622 25.6559 42.0905C25.1972 42.5589 24.9131 43.1991 24.9131 43.905C24.9131 44.3364 25.2629 44.6863 25.6943 44.6863C26.1257 44.6863 26.4756 44.3364 26.4756 43.905C26.4756 43.3353 26.939 42.8717 27.5089 42.8717C28.0787 42.8717 28.5422 43.3353 28.5422 43.905C28.5422 44.3364 28.892 44.6863 29.3234 44.6863C29.7548 44.6863 30.1047 44.3364 30.1047 43.905C30.1047 43.1991 29.8206 42.5589 29.3617 42.0905C29.8206 41.6222 30.1047 40.9819 30.1047 40.2759ZM27.5089 39.2427C28.0786 39.2427 28.5422 39.7061 28.5422 40.2759C28.5422 40.8458 28.0786 41.3092 27.5089 41.3092C26.9392 41.3092 26.4756 40.8456 26.4756 40.2759C26.4756 39.7063 26.9392 39.2427 27.5089 39.2427Z" fill="#FFAA66"/>
<path d="M44.5293 43.1239H32.9031C32.4717 43.1239 32.1218 43.4738 32.1218 43.9052C32.1218 44.3366 32.4717 44.6864 32.9031 44.6864H44.5293C44.9607 44.6864 45.3106 44.3366 45.3106 43.9052C45.3106 43.4738 44.9609 43.1239 44.5293 43.1239Z" fill="#B2B2FF"/>
<path d="M38.2793 39.9392H32.9031C32.4717 39.9392 32.1218 40.2891 32.1218 40.7205C32.1218 41.1519 32.4717 41.5017 32.9031 41.5017H38.2793C38.7107 41.5017 39.0606 41.1519 39.0606 40.7205C39.0606 40.2891 38.7109 39.9392 38.2793 39.9392Z" fill="#FF9393"/>
<path d="M44.5293 38.8213H44.1849V38.4769C44.1849 38.0455 43.8351 37.6956 43.4037 37.6956C42.9723 37.6956 42.6224 38.0455 42.6224 38.4769V38.8213H42.2781C41.8467 38.8213 41.4968 39.1711 41.4968 39.6025C41.4968 40.0339 41.8467 40.3838 42.2781 40.3838H42.6224V40.7281C42.6224 41.1595 42.9723 41.5094 43.4037 41.5094C43.8351 41.5094 44.1849 41.1595 44.1849 40.7281V40.3838H44.5293C44.9607 40.3838 45.3106 40.0339 45.3106 39.6025C45.3106 39.1711 44.9609 38.8213 44.5293 38.8213Z" fill="#FF6C6C"/>
<path d="M40.1223 50.0184H53.6236C54.055 50.0184 54.4048 49.6686 54.4048 49.2372C54.4048 48.8058 54.055 48.4559 53.6236 48.4559H40.1223C39.6909 48.4559 39.3411 48.8058 39.3411 49.2372C39.3411 49.6686 39.6909 50.0184 40.1223 50.0184Z" fill="#FF6C6C"/>
<path d="M40.1223 57.9503H53.6236C54.055 57.9503 54.4048 57.6004 54.4048 57.169C54.4048 56.7376 54.055 56.3878 53.6236 56.3878H40.1223C39.6909 56.3878 39.3411 56.7376 39.3411 57.169C39.3411 57.6004 39.6909 57.9503 40.1223 57.9503Z" fill="#9393FF"/>
<path d="M40.1223 54.7656H53.6236C54.055 54.7656 54.4048 54.4158 54.4048 53.9844C54.4048 53.553 54.055 53.2031 53.6236 53.2031H40.1223C39.6909 53.2031 39.3411 53.553 39.3411 53.9844C39.3411 54.4158 39.6909 54.7656 40.1223 54.7656Z" fill="#9393FF"/>
<path d="M40.1223 64.3195H53.6236C54.055 64.3195 54.4048 63.9697 54.4048 63.5383C54.4048 63.1069 54.055 62.757 53.6236 62.757H40.1223C39.6909 62.757 39.3411 63.1069 39.3411 63.5383C39.3411 63.9697 39.6909 64.3195 40.1223 64.3195Z" fill="#9393FF"/>
<path d="M40.1223 61.135H53.6236C54.055 61.135 54.4048 60.7851 54.4048 60.3537C54.4048 59.9223 54.055 59.5725 53.6236 59.5725H40.1223C39.6909 59.5725 39.3411 59.9223 39.3411 60.3537C39.3411 60.7851 39.6909 61.135 40.1223 61.135Z" fill="#9393FF"/>
<path d="M66.9399 9.50984C66.7401 9.50984 66.5399 9.43359 66.3876 9.28109L64.7469 7.64046C64.4418 7.33531 64.4418 6.84062 64.7469 6.53562L66.3876 4.89499C66.6924 4.58999 67.1874 4.58999 67.4922 4.89499L69.1329 6.53562C69.438 6.84078 69.438 7.33546 69.1329 7.64046L67.4922 9.28109C67.3399 9.43359 67.1397 9.50984 66.9399 9.50984ZM66.4041 7.08796L66.9399 7.62374L67.4757 7.08796L66.9399 6.55218L66.4041 7.08796Z" fill="#FF9C33"/>
<path d="M9.44112 46.327C9.24128 46.327 9.04112 46.2508 8.88878 46.0983L7.24815 44.4577C6.943 44.1525 6.943 43.6578 7.24815 43.3528L8.88878 41.7122C9.19362 41.4072 9.68862 41.4072 9.99347 41.7122L11.6341 43.3528C11.9392 43.658 11.9392 44.1527 11.6341 44.4577L9.99347 46.0983C9.84097 46.2508 9.64097 46.327 9.44112 46.327ZM8.90534 43.9052L9.44112 44.4409L9.9769 43.9052L9.44112 43.3694L8.90534 43.9052Z" fill="#8282FF"/>
<path d="M70.559 70.9345C70.3592 70.9345 70.159 70.8583 70.0067 70.7058L68.3661 69.0652C68.0609 68.76 68.0609 68.2653 68.3661 67.9603L70.0067 66.3197C70.3115 66.0147 70.8065 66.0147 71.1114 66.3197L72.752 67.9603C73.0572 68.2655 73.0572 68.7602 72.752 69.0652L71.1114 70.7058C70.959 70.8583 70.7589 70.9345 70.559 70.9345ZM70.0233 68.5127L70.559 69.0484L71.0948 68.5127L70.559 67.9769L70.0233 68.5127Z" fill="#FF6C6C"/>
<path d="M66.9399 63.5988C66.7401 63.5988 66.5399 63.5225 66.3876 63.37C66.0824 63.0648 66.0824 62.5702 66.3876 62.2652L67.9501 60.7027C68.2549 60.3977 68.7499 60.3977 69.0547 60.7027C69.3599 61.0078 69.3599 61.5025 69.0547 61.8075L67.4922 63.37C67.3399 63.5225 67.1397 63.5988 66.9399 63.5988Z" fill="#8282FF"/>
<path d="M10.8184 31.8361C10.6186 31.8361 10.4184 31.7598 10.2661 31.6073C9.96094 31.3022 9.96094 30.8075 10.2661 30.5025L11.8286 28.94C12.1334 28.635 12.6284 28.635 12.9333 28.94C13.2384 29.2451 13.2384 29.7398 12.9333 30.0448L11.3708 31.6073C11.2184 31.7598 11.0184 31.8361 10.8184 31.8361Z" fill="#FF9C33"/>
<path d="M69.4651 18.7902H63.2056V13.0375C63.2056 10.8836 61.4532 9.13125 59.2993 9.13125H52.4631C52.1767 8.16015 51.2785 7.44875 50.2159 7.44875H45.0176C44.6237 5.03547 42.5164 3.18234 39.9999 3.18234C37.4835 3.18234 35.3762 5.03547 34.9821 7.4489H29.7839C28.7212 7.4489 27.8229 8.16031 27.5367 9.13141H20.7004C18.5465 9.13141 16.7942 10.8837 16.7942 13.0377V43.6802C16.7942 44.1116 17.1439 44.4614 17.5754 44.4614C18.007 44.4614 18.3567 44.1116 18.3567 43.6802V13.0375C18.3567 11.7452 19.4081 10.6937 20.7004 10.6937H27.4401V13.4628C27.4401 14.7552 28.4915 15.8066 29.7839 15.8066H50.216C51.5084 15.8066 52.5598 14.7552 52.5598 13.4628V10.6937H59.2995C60.5918 10.6937 61.6432 11.7452 61.6432 13.0375V18.7902H48.7985C47.7646 18.7902 46.9235 19.6312 46.9235 20.6652V36.0425C46.9235 37.0764 47.7646 37.9175 48.7985 37.9175H51.9487V40.3156C51.9487 41.0087 52.3285 41.6423 52.9396 41.9692C53.2173 42.1177 53.5212 42.1912 53.824 42.1912C54.1879 42.1912 54.5506 42.085 54.8653 41.875L60.7903 37.9177H61.6432V69.9428C61.6432 71.2352 60.5918 72.2866 59.2995 72.2866H20.7004C19.4081 72.2866 18.3567 71.2352 18.3567 69.9428V63.517H28.2001C32.612 63.517 36.2014 59.9277 36.2014 55.5158V49.3895C36.2014 48.3556 35.3603 47.5145 34.3264 47.5145H16.6609C12.2492 47.5145 8.65979 51.1039 8.65979 55.5158C8.65979 59.9277 12.2492 63.517 16.6609 63.517H16.7943V69.9428C16.7943 72.0967 18.5467 73.8491 20.7006 73.8491H59.2995C61.4534 73.8491 63.2057 72.0967 63.2057 69.9428V37.9175H69.4653C70.4992 37.9175 71.3403 37.0764 71.3403 36.0425V20.6652C71.3401 19.6312 70.499 18.7902 69.4651 18.7902ZM50.9973 13.4628C50.9973 13.8936 50.6468 14.2441 50.216 14.2441H29.7839C29.3531 14.2441 29.0026 13.8936 29.0026 13.4628V9.7925C29.0026 9.36172 29.3531 9.01125 29.7839 9.01125H35.6973C36.1262 9.01125 36.4749 8.66547 36.4785 8.23656C36.4948 6.31109 38.0746 4.74469 39.9999 4.74469C41.9253 4.74469 43.5051 6.31109 43.5214 8.23656C43.5249 8.66547 43.8737 9.01125 44.3026 9.01125H50.216C50.6468 9.01125 50.9973 9.36172 50.9973 9.7925V13.4628ZM10.2223 55.5158C10.2223 51.9655 13.1106 49.077 16.6609 49.077H34.3265C34.4989 49.077 34.639 49.2172 34.639 49.3895V55.5158C34.639 59.0661 31.7506 61.9545 28.2003 61.9545H16.6609C13.1106 61.9545 10.2223 59.0661 10.2223 55.5158ZM69.7776 36.0425C69.7776 36.2148 69.6374 36.355 69.4651 36.355H60.5532C60.3988 36.355 60.2478 36.4008 60.1193 36.4866L53.9973 40.5755C53.8623 40.6656 53.7381 40.6242 53.6763 40.5911C53.6145 40.5581 53.511 40.4784 53.511 40.3155V37.1361C53.511 36.7047 53.1614 36.3548 52.7298 36.3548H48.7984C48.626 36.3548 48.4859 36.2147 48.4859 36.0423V20.665C48.4859 20.4927 48.626 20.3525 48.7984 20.3525H69.4651C69.6374 20.3525 69.7776 20.4927 69.7776 20.665V36.0425Z" fill="#0000CB"/>
<defs>
<linearGradient id="paint0_linear_843_78891" x1="13.5747" y1="59.6438" x2="65.3637" y2="7.85469" gradientUnits="userSpaceOnUse">
<stop stop-color="#FFF2ED" stop-opacity="0"/>
<stop offset="0.2938" stop-color="#FFE9DD" stop-opacity="0.373"/>
<stop offset="0.7874" stop-color="#FFD5BA"/>
</linearGradient>
</defs>
</svg>
