<svg width="80" height="80" viewBox="0 0 80 80" fill="none" xmlns="http://www.w3.org/2000/svg">
<path d="M64.2893 26.1941C73.4367 21.4678 79.9462 6.30063 68.9037 1.48641C53.4284 -5.26046 52.3328 13.5316 23.1887 6.95063C17.2945 5.61969 12.8473 14.4717 18.4415 17.6033C21.774 19.4688 25.3739 18.4728 28.8412 18.5423C38.1742 18.7295 27.5732 26.0628 24.0557 28.278C6.63637 39.2473 1.82528 47.7453 4.50512 58.0273C9.31762 76.4919 54.1664 85.1369 63.2509 76.8375C72.0654 68.7849 72.8801 53.8369 61.2843 47.5408C56.529 44.9589 50.5353 45.6956 46.1179 42.8319C35.9582 36.2455 58.5983 29.1345 64.2893 26.1941Z" fill="url(#paint0_linear_843_78603)"/>
<path opacity="0.1" d="M75.4058 33.5647C75.4058 30.5698 73.8002 27.9508 71.4035 26.5187V16.088C71.4035 15.2255 70.705 14.5255 69.841 14.5255H43.1503C42.2878 14.5255 41.5878 15.2255 41.5878 16.088V25.1439H11.775C10.9121 25.1439 10.2125 25.8434 10.2125 26.7064V61.3391C10.2125 62.202 10.9121 62.9016 11.775 62.9016H30.1438V72.2669H27.1094C26.8505 72.2669 26.6406 72.4767 26.6406 72.7356V75.277C26.6406 75.5359 26.8505 75.7458 27.1094 75.7458H51.4121C51.671 75.7458 51.8808 75.5359 51.8808 75.277V72.7356C51.8808 72.4767 51.671 72.2669 51.4121 72.2669H48.3781V62.9016H66.7463C67.6092 62.9016 68.3088 62.202 68.3088 61.3391V41.6914C72.3158 41.1511 75.4058 37.7197 75.4058 33.5647ZM41.0969 66.9591C41.0969 67.973 40.2749 68.795 39.261 68.795C38.2471 68.795 37.425 67.973 37.425 66.9591V62.9016H41.0969V66.9591Z" fill="#2626BC"/>
<path d="M48.3782 57.8856V68.5169H30.1438V57.8856H37.425V63.2091C37.425 64.223 38.2471 65.045 39.261 65.045C40.2749 65.045 41.0969 64.223 41.0969 63.2091V57.8856H48.3782Z" fill="#6582FD"/>
<path d="M30.1438 57.8856H37.425V62.9012H30.1438V57.8856Z" fill="#4369FC"/>
<path d="M41.0969 57.8856H48.3782V62.9012H41.0969V57.8856Z" fill="#4369FC"/>
<path d="M51.4121 68.5169H27.1093C26.8503 68.5169 26.6405 68.7267 26.6405 68.9856V71.527C26.6405 71.7859 26.8503 71.9958 27.1093 71.9958H51.4119C51.6708 71.9958 51.8807 71.7859 51.8807 71.527V68.9856C51.8808 68.7267 51.6708 68.5169 51.4121 68.5169Z" fill="#B6C4FF"/>
<path d="M66.7463 59.1516H11.775C10.9121 59.1516 10.2125 58.452 10.2125 57.5891V22.9564C10.2125 22.0934 10.9121 21.3939 11.775 21.3939H66.7461C67.6091 21.3939 68.3086 22.0934 68.3086 22.9564V57.5891C68.3088 58.4519 67.6092 59.1516 66.7463 59.1516Z" fill="#8298FD"/>
<path d="M68.3087 41.6914V22.9564C68.3087 22.0934 67.6092 21.3939 66.7462 21.3939H41.5876V31.702C41.5876 32.5645 42.2876 33.2645 43.1501 33.2645H48.6501L51.0751 35.9411C51.3845 36.2833 51.922 36.2833 52.233 35.9411L54.658 33.2645H59.007C59.0034 33.3644 58.9994 33.4641 58.9994 33.5647C58.9994 38.0952 62.672 41.7678 67.2025 41.7678C67.578 41.7678 67.9467 41.7403 68.3087 41.6914Z" fill="#6582FD"/>
<path d="M30.4378 21.3939H11.775C10.9121 21.3939 10.2125 22.0934 10.2125 22.9564V57.5891C10.2125 58.452 10.9121 59.1516 11.775 59.1516H30.4378V21.3939Z" fill="#D1DDFF"/>
<path d="M10.2125 54.7495V57.5891C10.2125 58.452 10.9121 59.1516 11.775 59.1516H66.7461C67.6091 59.1516 68.3086 58.452 68.3086 57.5891V54.7495H10.2125Z" fill="#B6C4FF"/>
<path d="M71.4033 12.338V27.952C71.4033 28.8145 70.7048 29.5145 69.8408 29.5145H54.658L52.233 32.1911C51.922 32.5333 51.3845 32.5333 51.0751 32.1911L48.6501 29.5145H43.1501C42.2876 29.5145 41.5876 28.8145 41.5876 27.952V12.338C41.5876 11.4755 42.2876 10.7755 43.1501 10.7755H69.8408C70.7048 10.7755 71.4033 11.4755 71.4033 12.338Z" fill="#9EAFFD"/>
<path d="M66.7666 16.4285H49.1925C48.7609 16.4285 48.4113 16.0786 48.4113 15.6472C48.4113 15.2158 48.7609 14.866 49.1925 14.866H66.7666C67.1981 14.866 67.5478 15.2158 67.5478 15.6472C67.5478 16.0786 67.198 16.4285 66.7666 16.4285Z" fill="white"/>
<path d="M61.3108 20.2519H58.9995C58.5679 20.2519 58.2183 19.902 58.2183 19.4706C58.2183 19.0392 58.5679 18.6894 58.9995 18.6894H61.3108C61.7423 18.6894 62.092 19.0392 62.092 19.4706C62.092 19.902 61.7422 20.2519 61.3108 20.2519Z" fill="white"/>
<path d="M54.9329 20.2519H46.225C45.7934 20.2519 45.4437 19.902 45.4437 19.4706C45.4437 19.0392 45.7934 18.6894 46.225 18.6894H54.9329C55.3645 18.6894 55.7142 19.0392 55.7142 19.4706C55.7142 19.902 55.3645 20.2519 54.9329 20.2519Z" fill="white"/>
<path d="M54.9329 24.0755H46.225C45.7934 24.0755 45.4437 23.7256 45.4437 23.2942C45.4437 22.8628 45.7934 22.513 46.225 22.513H54.9329C55.3645 22.513 55.7142 22.8628 55.7142 23.2942C55.7142 23.7256 55.3645 24.0755 54.9329 24.0755Z" fill="white"/>
<path d="M46.225 16.4464C45.7934 16.4464 45.4437 16.0966 45.4437 15.6652V15.6472C45.4437 15.2158 45.7934 14.866 46.225 14.866C46.6565 14.866 47.0062 15.2158 47.0062 15.6472V15.6652C47.0062 16.0966 46.6565 16.4464 46.225 16.4464Z" fill="white"/>
<path d="M67.2026 38.0178C71.7331 38.0178 75.4058 34.3452 75.4058 29.8147C75.4058 25.2842 71.7331 21.6116 67.2026 21.6116C62.6722 21.6116 58.9995 25.2842 58.9995 29.8147C58.9995 34.3452 62.6722 38.0178 67.2026 38.0178Z" fill="#02FFB2"/>
<path d="M76.1871 29.8147C76.1871 26.7024 74.5956 23.9553 72.1846 22.3425V12.3375C72.1846 11.0452 71.1331 9.99376 69.8408 9.99376H43.1516C41.8592 9.99376 40.8078 11.0452 40.8078 12.3375V27.9516C40.8078 29.2439 41.8592 30.2953 43.1516 30.2953H48.3038L50.4957 32.7145C50.7905 33.0406 51.2117 33.228 51.6514 33.2284H51.6533C52.093 33.2284 52.515 33.0417 52.8117 32.7152L55.0042 30.2953H58.2314C58.4821 35.0267 62.4099 38.7991 67.2027 38.7991C67.3116 38.7991 67.4196 38.7947 67.5275 38.7908V57.5889C67.5275 58.0197 67.1771 58.3702 66.7463 58.3702H11.775C11.3442 58.3702 10.9938 58.0197 10.9938 57.5889V22.9564C10.9938 22.5256 11.3442 22.1752 11.775 22.1752H36.3663C36.7977 22.1752 37.1475 21.8253 37.1475 21.3939C37.1475 20.9625 36.7977 20.6127 36.3663 20.6127H11.775C10.4827 20.6127 9.43127 21.6641 9.43127 22.9564V57.5889C9.43127 58.8813 10.4827 59.9327 11.775 59.9327H29.3624V67.7355H27.1094C26.4202 67.7355 25.8594 68.2963 25.8594 68.9855V71.5269C25.8594 72.2161 26.4202 72.7769 27.1094 72.7769H51.4121C52.1013 72.7769 52.6621 72.2161 52.6621 71.5269V68.9855C52.6621 68.2963 52.1013 67.7355 51.4121 67.7355H30.9249V59.9327H36.6438V63.2091C36.6438 64.6522 37.8178 65.8263 39.261 65.8263C40.7041 65.8263 41.8781 64.6522 41.8781 63.2091V59.9327H47.5966V63.3788C47.5966 63.8102 47.9463 64.16 48.3778 64.16C48.8094 64.16 49.1591 63.8102 49.1591 63.3788V59.9327H66.7464C68.0388 59.9327 69.0902 58.8813 69.0902 57.5889V38.598C73.1407 37.7283 76.1871 34.1213 76.1871 29.8147ZM51.0994 71.2144H27.4219V69.298H51.0996L51.0994 71.2144ZM40.3156 63.2091C40.3156 63.7906 39.8425 64.2638 39.261 64.2638C38.6794 64.2638 38.2063 63.7906 38.2063 63.2091V59.9327H40.3156V63.2091ZM54.658 28.7328C54.4374 28.7328 54.2271 28.8261 54.0791 28.9895L51.6539 31.6661L49.2289 28.9895C49.081 28.8261 48.8706 28.7328 48.65 28.7328H43.1516C42.7208 28.7328 42.3703 28.3824 42.3703 27.9516V12.3375C42.3703 11.9067 42.7208 11.5563 43.1516 11.5563H69.8406C70.2714 11.5563 70.6219 11.9067 70.6219 12.3375V21.5081C69.5672 21.0724 68.4128 20.8303 67.2025 20.8303C62.6149 20.8303 58.8219 24.2875 58.2857 28.7328H54.658ZM67.2027 37.2366C63.1103 37.2366 59.7808 33.907 59.7808 29.8147C59.7808 25.7224 63.1103 22.3928 67.2027 22.3928C71.295 22.3928 74.6246 25.7224 74.6246 29.8147C74.6246 33.907 71.295 37.2366 67.2027 37.2366Z" fill="#2626BC"/>
<path d="M66.5377 34.8388C67.052 34.8388 67.4689 34.4218 67.4689 33.9075C67.4689 33.3932 67.052 32.9763 66.5377 32.9763C66.0234 32.9763 65.6064 33.3932 65.6064 33.9075C65.6064 34.4218 66.0234 34.8388 66.5377 34.8388Z" fill="white"/>
<path d="M66.5376 32.1114C66.1061 32.1114 65.7564 31.7616 65.7564 31.3302V30.5858C65.7564 29.7242 66.4573 29.0233 67.3189 29.0233H68.8261C69.2904 29.0233 69.6681 28.6456 69.6681 28.1813V27.2635C69.6681 26.7991 69.2904 26.4213 68.8261 26.4213H65.5793C65.115 26.4213 64.7373 26.7991 64.7373 27.2635C64.7373 27.6949 64.3876 28.0447 63.9561 28.0447C63.5245 28.0447 63.1748 27.6949 63.1748 27.2635C63.1748 25.9375 64.2534 24.8588 65.5793 24.8588H68.8261C70.1518 24.8588 71.2306 25.9375 71.2306 27.2635V28.1813C71.2306 29.5072 70.152 30.5858 68.8261 30.5858H67.3189V31.3302C67.3189 31.7616 66.9692 32.1114 66.5376 32.1114Z" fill="white"/>
<path d="M49.0188 44.4063H58.6958C59.1272 44.4063 59.4771 44.0564 59.4771 43.625V40.8708C59.4771 40.4394 59.1272 40.0895 58.6958 40.0895H49.0188C48.5874 40.0895 48.2375 40.4394 48.2375 40.8708V43.625C48.2375 44.0566 48.5872 44.4063 49.0188 44.4063Z" fill="#6582FD"/>
<path d="M34.7487 44.4063H44.4257C44.8571 44.4063 45.2069 44.0564 45.2069 43.625V40.8708C45.2069 40.4394 44.8571 40.0895 44.4257 40.0895H34.7487C34.3173 40.0895 33.9674 40.4394 33.9674 40.8708V43.625C33.9674 44.0566 34.3173 44.4063 34.7487 44.4063Z" fill="#6582FD"/>
<path d="M49.0188 51.6216H58.6958C59.1272 51.6216 59.4771 51.2717 59.4771 50.8403V48.0861C59.4771 47.6547 59.1272 47.3049 58.6958 47.3049H49.0188C48.5874 47.3049 48.2375 47.6547 48.2375 48.0861V50.8403C48.2375 51.2719 48.5872 51.6216 49.0188 51.6216Z" fill="#6582FD"/>
<path d="M34.7487 51.6216H44.4257C44.8571 51.6216 45.2069 51.2717 45.2069 50.8403V48.0861C45.2069 47.6547 44.8571 47.3049 44.4257 47.3049H34.7487C34.3173 47.3049 33.9674 47.6547 33.9674 48.0861V50.8403C33.9674 51.2719 34.3173 51.6216 34.7487 51.6216Z" fill="#6582FD"/>
<path d="M49.0188 42.6975H58.6958C59.1272 42.6975 59.4771 42.3477 59.4771 41.9163V39.162C59.4771 38.7306 59.1272 38.3808 58.6958 38.3808H49.0188C48.5874 38.3808 48.2375 38.7306 48.2375 39.162V41.9163C48.2375 42.3478 48.5872 42.6975 49.0188 42.6975Z" fill="#02FFB2"/>
<path d="M56.7378 41.3205H50.9766C50.545 41.3205 50.1953 40.9706 50.1953 40.5392C50.1953 40.1078 50.545 39.758 50.9766 39.758H56.7378C57.1694 39.758 57.5191 40.1078 57.5191 40.5392C57.5191 40.9706 57.1694 41.3205 56.7378 41.3205Z" fill="#DBFCED"/>
<path d="M34.7487 42.6975H44.4257C44.8571 42.6975 45.2069 42.3477 45.2069 41.9163V39.162C45.2069 38.7306 44.8571 38.3808 44.4257 38.3808H34.7487C34.3173 38.3808 33.9674 38.7306 33.9674 39.162V41.9163C33.9674 42.3478 34.3173 42.6975 34.7487 42.6975Z" fill="#FFA7CE"/>
<path d="M42.4677 41.3205H36.7064C36.275 41.3205 35.9252 40.9706 35.9252 40.5392C35.9252 40.1078 36.275 39.758 36.7064 39.758H42.4677C42.8992 39.758 43.2489 40.1078 43.2489 40.5392C43.2489 40.9706 42.8992 41.3205 42.4677 41.3205Z" fill="#FFDAEC"/>
<path d="M49.0188 49.9128H58.6958C59.1272 49.9128 59.4771 49.563 59.4771 49.1316V46.3774C59.4771 45.9459 59.1272 45.5961 58.6958 45.5961H49.0188C48.5874 45.5961 48.2375 45.9459 48.2375 46.3774V49.1316C48.2375 49.5631 48.5872 49.9128 49.0188 49.9128Z" fill="#FFA7CE"/>
<path d="M56.7378 48.5358H50.9766C50.545 48.5358 50.1953 48.186 50.1953 47.7545C50.1953 47.3231 50.545 46.9733 50.9766 46.9733H56.7378C57.1694 46.9733 57.5191 47.3231 57.5191 47.7545C57.5191 48.186 57.1694 48.5358 56.7378 48.5358Z" fill="#FFDAEC"/>
<path d="M34.7487 49.9128H44.4257C44.8571 49.9128 45.2069 49.563 45.2069 49.1316V46.3774C45.2069 45.9459 44.8571 45.5961 44.4257 45.5961H34.7487C34.3173 45.5961 33.9674 45.9459 33.9674 46.3774V49.1316C33.9674 49.5631 34.3173 49.9128 34.7487 49.9128Z" fill="#FFA7CE"/>
<path d="M42.4677 48.5358H36.7064C36.275 48.5358 35.9252 48.186 35.9252 47.7545C35.9252 47.3231 36.275 46.9733 36.7064 46.9733H42.4677C42.8992 46.9733 43.2489 47.3231 43.2489 47.7545C43.2489 48.186 42.8992 48.5358 42.4677 48.5358Z" fill="#FFDAEC"/>
<path d="M25.6811 43.0292H16.2433C15.8119 43.0292 15.462 42.6794 15.462 42.248C15.462 41.8166 15.8119 41.4667 16.2433 41.4667H25.6811C26.1125 41.4667 26.4623 41.8166 26.4623 42.248C26.4623 42.6794 26.1125 43.0292 25.6811 43.0292Z" fill="white"/>
<path d="M25.6811 46.2055H16.2433C15.8119 46.2055 15.462 45.8556 15.462 45.4242C15.462 44.9928 15.8119 44.643 16.2433 44.643H25.6811C26.1125 44.643 26.4623 44.9928 26.4623 45.4242C26.4623 45.8556 26.1125 46.2055 25.6811 46.2055Z" fill="white"/>
<path d="M23.1797 50.5934H18.7445C18.3131 50.5934 17.9633 50.2436 17.9633 49.8122C17.9633 49.3808 18.3131 49.0309 18.7445 49.0309H23.1797C23.6111 49.0309 23.9609 49.3808 23.9609 49.8122C23.9609 50.2436 23.6111 50.5934 23.1797 50.5934Z" fill="white"/>
<path d="M21.3585 28.8723H20.5253C19.5085 28.8723 18.6813 29.6997 18.6813 30.7166V34.3508C18.6813 34.7822 19.0311 35.132 19.4625 35.132C19.8939 35.132 20.2438 34.7822 20.2438 34.3508V34.1298H21.6402V34.3508C21.6402 34.7822 21.99 35.132 22.4214 35.132C22.8528 35.132 23.2027 34.7822 23.2027 34.3508V30.7166C23.2027 29.6997 22.3753 28.8723 21.3585 28.8723ZM20.2439 32.5673V30.7164C20.2439 30.5611 20.3703 30.4347 20.5255 30.4347H21.3586C21.5139 30.4347 21.6403 30.5611 21.6403 30.7164V32.5673H20.2439Z" fill="#FF5BA7"/>
<path d="M20.942 38.6148C17.2958 38.6148 14.3292 35.6484 14.3292 32.0022C14.3292 28.3559 17.2956 25.3894 20.942 25.3894C24.5883 25.3894 27.5547 28.3558 27.5547 32.0022C27.5547 35.6484 24.5883 38.6148 20.942 38.6148ZM20.942 26.9519C18.1573 26.9519 15.8917 29.2175 15.8917 32.0022C15.8917 34.7869 18.1573 37.0523 20.942 37.0523C23.7267 37.0523 25.9922 34.7867 25.9922 32.0022C25.9922 29.2175 23.7267 26.9519 20.942 26.9519Z" fill="#FF5BA7"/>
<path d="M19.4626 69.4516C18.1703 69.4516 17.1189 68.4002 17.1189 67.1078C17.1189 65.8155 18.1703 64.7641 19.4626 64.7641C20.755 64.7641 21.8064 65.8155 21.8064 67.1078C21.8064 68.4002 20.755 69.4516 19.4626 69.4516ZM19.4626 66.3266C19.0319 66.3266 18.6814 66.677 18.6814 67.1078C18.6814 67.5386 19.0319 67.8891 19.4626 67.8891C19.8934 67.8891 20.2439 67.5386 20.2439 67.1078C20.2439 66.677 19.8933 66.3266 19.4626 66.3266Z" fill="#01EBA4"/>
<path d="M35.3469 14.0566C34.0546 14.0566 33.0032 13.0052 33.0032 11.7128C33.0032 10.4205 34.0546 9.36906 35.3469 9.36906C36.6393 9.36906 37.6907 10.4205 37.6907 11.7128C37.6907 13.0052 36.6393 14.0566 35.3469 14.0566ZM35.3469 10.9316C34.9161 10.9316 34.5657 11.282 34.5657 11.7128C34.5657 12.1436 34.9161 12.4941 35.3469 12.4941C35.7777 12.4941 36.1282 12.1436 36.1282 11.7128C36.1282 11.282 35.7777 10.9316 35.3469 10.9316Z" fill="#01EBA4"/>
<path d="M61.3108 66.9073C60.0184 66.9073 58.967 65.8559 58.967 64.5636C58.967 63.2713 60.0184 62.2198 61.3108 62.2198C62.6031 62.2198 63.6545 63.2713 63.6545 64.5636C63.6545 65.8559 62.6031 66.9073 61.3108 66.9073ZM61.3108 63.7823C60.88 63.7823 60.5295 64.1328 60.5295 64.5636C60.5295 64.9944 60.88 65.3448 61.3108 65.3448C61.7416 65.3448 62.092 64.9944 62.092 64.5636C62.092 64.1328 61.7416 63.7823 61.3108 63.7823Z" fill="#FF7EB7"/>
<path d="M64.3241 74.5478C63.8926 74.5478 63.5429 74.198 63.5429 73.7666C63.5429 73.2209 63.099 72.777 62.5533 72.777C62.1218 72.777 61.7721 72.4272 61.7721 71.9958C61.7721 71.5644 62.1218 71.2145 62.5533 71.2145C63.099 71.2145 63.5429 70.7706 63.5429 70.225C63.5429 69.7936 63.8926 69.4438 64.3241 69.4438C64.7557 69.4438 65.1054 69.7936 65.1054 70.225C65.1054 70.7706 65.5493 71.2145 66.0949 71.2145C66.5265 71.2145 66.8762 71.5644 66.8762 71.9958C66.8762 72.4272 66.5265 72.777 66.0949 72.777C65.5493 72.777 65.1054 73.2209 65.1054 73.7666C65.1054 74.198 64.7557 74.5478 64.3241 74.5478Z" fill="#8298FD"/>
<path d="M17.182 17.0775C16.7506 17.0775 16.4008 16.7277 16.4008 16.2962C16.4008 15.7506 15.9569 15.3067 15.4113 15.3067C14.9798 15.3067 14.63 14.9569 14.63 14.5255C14.63 14.0941 14.9798 13.7442 15.4113 13.7442C15.9569 13.7442 16.4008 13.3003 16.4008 12.7547C16.4008 12.3233 16.7506 11.9734 17.182 11.9734C17.6134 11.9734 17.9633 12.3233 17.9633 12.7547C17.9633 13.3003 18.4072 13.7442 18.9528 13.7442C19.3842 13.7442 19.7341 14.0941 19.7341 14.5255C19.7341 14.9569 19.3842 15.3067 18.9528 15.3067C18.4072 15.3067 17.9633 15.7506 17.9633 16.2962C17.9633 16.7277 17.6136 17.0775 17.182 17.0775Z" fill="#FF7EB7"/>
<defs>
<linearGradient id="paint0_linear_843_78603" x1="13.3912" y1="69.9244" x2="75.9156" y2="7.4" gradientUnits="userSpaceOnUse">
<stop stop-color="#FFFCFF" stop-opacity="0"/>
<stop offset="1" stop-color="#FFDAEC"/>
</linearGradient>
</defs>
</svg>
