<svg width="1440" height="300" viewBox="0 0 1440 300" fill="none" xmlns="http://www.w3.org/2000/svg">
<g clip-path="url(#clip0_304_13420)">
<rect width="1440" height="300" fill="black"/>
<path d="M1818.36 0H-378V1250H1818.36V0Z" fill="url(#paint0_linear_304_13420)"/>
<mask id="mask0_304_13420" style="mask-type:alpha" maskUnits="userSpaceOnUse" x="-378" y="0" width="2197" height="1251">
<path d="M1818.36 0.00012207H-378V1250H1818.36V0.00012207Z" fill="#2E80C7"/>
</mask>
<g mask="url(#mask0_304_13420)">
<path opacity="0.6" d="M612.836 -10.8886C1118.87 224.848 1772.35 164.416 2006.5 103.985V1269.6L-453.494 1310.43L-422.825 -164.416L-232.915 -227.025C-119.676 -233.558 208.008 -199.477 612.836 -10.8886Z" fill="url(#paint1_linear_304_13420)"/>
<g filter="url(#filter0_i_304_13420)">
<path d="M1895.26 347.234C1811.51 315.44 1702.52 315.44 1583.27 305.967C1464.01 296.385 1388.28 257.295 1287.31 217.008C1186.34 176.72 1070.51 136.542 839.902 139.699C609.296 142.857 379.87 92.0078 243.394 49.6516C106.918 7.2953 -322.091 29.5078 -416.221 45.405C-510.232 61.3023 -426.601 1208.08 -426.601 1208.08L1903.16 1185.87L1895.26 347.234Z" fill="url(#paint2_linear_304_13420)"/>
</g>
<path d="M1933.13 519.816C1827.55 467.878 1785.21 492.269 1638.35 438.262C1491.49 384.255 1363.04 331.337 1286.13 317.508C1209.22 303.789 1049.86 302.7 945.473 248.693C841.081 194.686 694.225 185.213 596.792 184.124C499.242 183.035 405.23 128.048 328.323 94.076C251.415 60.1039 56.432 53.7886 -155.772 58.0351C-367.977 62.2816 -570.98 299.433 -570.98 299.433L-682.332 892.53L-442.643 1256.75L1911.19 1197.41L1933.13 519.816Z" fill="url(#paint3_linear_304_13420)"/>
<g filter="url(#filter1_f_304_13420)">
<path d="M1266.13 462.311C1257.07 501.405 1058.18 495.292 821.897 448.656C585.61 402.021 401.403 332.523 410.458 293.428C419.513 254.334 618.402 260.447 854.689 307.082C1090.98 353.718 1275.18 423.216 1266.13 462.311Z" fill="#230046"/>
</g>
<g filter="url(#filter2_i_304_13420)">
<path d="M1894.08 565.331C1774.83 499.673 1673.86 494.338 1572.88 484.865C1471.91 475.392 1393.94 463.741 1330.84 434.016C1267.73 404.399 1228.57 396.342 1185.16 388.502C1135.97 375.109 1114.03 342.988 1049.75 340.81C985.459 338.741 969.417 330.248 877.646 337.652C785.876 345.057 561.05 343.968 402.752 263.502C244.454 183.036 -178.775 74.0419 -481.571 149.173C-784.366 224.303 -544.677 616.18 -544.677 616.18L-433.444 1238.78L1911.18 1216.57L1894.08 565.331Z" fill="url(#paint4_linear_304_13420)"/>
</g>
<mask id="mask1_304_13420" style="mask-type:alpha" maskUnits="userSpaceOnUse" x="261" y="168" width="1702" height="1159">
<path d="M261.323 168.772H1962.26V1326.22H261.323V168.772Z" fill="url(#paint5_linear_304_13420)"/>
</mask>
<g mask="url(#mask1_304_13420)">
<g filter="url(#filter3_f_304_13420)">
<path d="M2115.96 831.119C1897.97 829.05 1771.85 813.697 1531.13 677.264C1337.09 567.291 780.686 458.623 445.924 304.878C289.985 293.227 -403.482 383.384 -403.482 383.384L-384.02 1235.74C-384.02 1235.74 2063.94 1266.44 2070.78 1265.35C2077.74 1264.37 2115.96 831.119 2115.96 831.119Z" fill="#8A0FC4"/>
</g>
<g filter="url(#filter4_f_304_13420)">
<path d="M2115.96 831.119C1897.97 829.05 1771.85 813.697 1531.13 677.264C1337.09 567.291 780.686 458.623 445.924 304.878C289.985 293.227 -403.482 383.384 -403.482 383.384L-384.02 1235.74C-384.02 1235.74 2063.94 1266.44 2070.78 1265.35C2077.74 1264.37 2115.96 831.119 2115.96 831.119Z" fill="#8A0FC4"/>
</g>
<path d="M2144.27 796.276C1926.28 794.207 1800.16 778.854 1559.44 642.421C1365.4 532.448 875.052 484.756 540.29 331.01C384.351 319.36 -403.483 383.384 -403.483 383.384L-384.02 1235.74C-384.02 1235.74 2063.94 1266.44 2070.78 1265.35C2077.74 1264.37 2144.27 796.276 2144.27 796.276Z" fill="#6800EC"/>
</g>
<g filter="url(#filter6_i_304_13420)">
<path d="M2019.11 890.462C1921.56 842.77 1865.42 827.962 1736.96 833.297C1608.51 838.632 1602.73 836.455 1550 778.201C1497.27 719.948 1478.87 735.845 1437.59 729.53C1396.3 723.214 1350.42 722.125 1241.43 651.132C1132.43 580.139 1111.79 601.372 1026.86 571.646C941.933 542.03 938.512 535.605 901.828 500.653C865.143 465.701 839.9 441.311 752.73 420.187C665.56 399.063 603.633 404.29 507.262 303.68C410.891 203.07 98.5428 -26.6768 -256.507 -2.93985C-481.451 -12.5217 -527.218 13.0662 -527.218 13.0662L-419.642 1175.3L1896.32 1178.46L2019.11 890.462Z" fill="#090035"/>
</g>
<mask id="mask2_304_13420" style="mask-type:alpha" maskUnits="userSpaceOnUse" x="-528" y="-6" width="2548" height="1185">
<path d="M2019.11 890.461C1921.56 842.77 1865.42 827.961 1736.96 833.297C1608.51 838.632 1602.73 836.454 1550 778.201C1497.27 719.947 1478.87 735.845 1437.59 729.529C1396.3 723.214 1350.42 722.125 1241.43 651.132C1132.43 580.139 1111.79 601.372 1026.86 571.646C941.933 542.029 938.512 535.605 901.828 500.653C865.143 465.701 839.9 441.31 752.73 420.187C665.56 399.063 603.633 404.289 507.262 303.68C410.891 203.07 98.5428 -26.6771 -256.507 -2.94018C-481.451 -12.5221 -527.218 13.0659 -527.218 13.0659L-419.642 1175.3L1896.32 1178.46L2019.11 890.461Z" fill="url(#paint6_linear_304_13420)"/>
</mask>
<g mask="url(#mask2_304_13420)">
<g opacity="0.6" filter="url(#filter7_f_304_13420)">
<ellipse cx="602.22" cy="126.261" rx="602.22" ry="126.261" transform="matrix(0.887511 0.460786 -0.520327 0.853967 898.912 290.814)" fill="#69008E"/>
</g>
</g>
<g filter="url(#filter8_f_304_13420)">
<ellipse cx="574.41" cy="126.423" rx="574.41" ry="126.423" transform="matrix(0.879517 0.475868 -0.536037 0.844194 -432.379 168.772)" fill="#260268"/>
</g>
<g filter="url(#filter9_f_304_13420)">
<ellipse cx="574.41" cy="126.423" rx="574.41" ry="126.423" transform="matrix(0.879517 0.475868 -0.536037 0.844194 -218.874 329.921)" fill="#0B0020"/>
</g>
<path d="M1932.3 1146.13C1760.2 1130.23 1246.96 1135.56 838.597 950.242C430.23 764.92 304.016 689.789 -16.0007 648.522C-336.018 607.254 -419.767 510.891 -554.002 367.925C-688.237 224.959 -579.245 1220.28 -579.245 1220.28H1956.37L1932.3 1146.13Z" fill="#002569"/>
<g filter="url(#filter10_f_304_13420)">
<path d="M1932.3 1146.13C1760.2 1130.23 1318.22 1092.12 838.593 985.085C430.226 799.763 274.297 716.464 -16.0046 648.522C-336.021 607.255 -422.472 443.489 -556.707 300.523C-690.942 157.557 -579.248 1220.28 -579.248 1220.28H1956.36L1932.3 1146.13Z" fill="#022567"/>
</g>
<g filter="url(#filter11_f_304_13420)">
<path d="M2001.78 946.211C1829.68 930.314 1494.56 1180.31 838.594 985.085C430.227 799.763 274.298 716.463 -16.0037 648.522C-331.41 558.58 -373.52 345.492 -507.755 202.526C-641.99 59.5602 -579.248 1220.28 -579.248 1220.28H1956.36L2001.78 946.211Z" fill="#022467"/>
</g>
<path d="M1982.31 1095.93C1810.21 1080.03 1502.85 1323.18 846.881 1127.95C438.515 942.625 282.586 859.325 -7.71625 791.384C-323.123 701.442 -365.233 627.727 -499.467 484.761C-633.702 341.795 -570.96 1363.14 -570.96 1363.14L1964.65 1659.31L1982.31 1095.93Z" fill="#023F8F"/>
<g filter="url(#filter13_f_304_13420)">
<path d="M2103.22 1264.15C1931.12 1248.26 1425.1 1445.23 769.128 1250C360.761 1064.68 65.5455 1069.91 -224.757 1001.96C-540.163 912.022 -531.582 666.158 -665.817 523.192C-800.052 380.226 -788 1573.72 -788 1573.72L1747.61 1869.89L2103.22 1264.15Z" fill="#0052A8"/>
</g>
</g>
</g>
<defs>
<filter id="filter0_i_304_13420" x="-460.876" y="25.1924" width="2364.04" height="1185.89" filterUnits="userSpaceOnUse" color-interpolation-filters="sRGB">
<feFlood flood-opacity="0" result="BackgroundImageFix"/>
<feBlend mode="normal" in="SourceGraphic" in2="BackgroundImageFix" result="shape"/>
<feColorMatrix in="SourceAlpha" type="matrix" values="0 0 0 0 0 0 0 0 0 0 0 0 0 0 0 0 0 0 127 0" result="hardAlpha"/>
<feOffset dy="3"/>
<feGaussianBlur stdDeviation="40.5"/>
<feComposite in2="hardAlpha" operator="arithmetic" k2="-1" k3="1"/>
<feColorMatrix type="matrix" values="0 0 0 0 1 0 0 0 0 1 0 0 0 0 1 0 0 0 0.02 0"/>
<feBlend mode="normal" in2="shape" result="effect1_innerShadow_304_13420"/>
</filter>
<filter id="filter1_f_304_13420" x="317.138" y="174.68" width="1042.31" height="406.378" filterUnits="userSpaceOnUse" color-interpolation-filters="sRGB">
<feFlood flood-opacity="0" result="BackgroundImageFix"/>
<feBlend mode="normal" in="SourceGraphic" in2="BackgroundImageFix" result="shape"/>
<feGaussianBlur stdDeviation="46.5" result="effect1_foregroundBlur_304_13420"/>
</filter>
<filter id="filter2_i_304_13420" x="-634.709" y="123.95" width="2545.89" height="1135.83" filterUnits="userSpaceOnUse" color-interpolation-filters="sRGB">
<feFlood flood-opacity="0" result="BackgroundImageFix"/>
<feBlend mode="normal" in="SourceGraphic" in2="BackgroundImageFix" result="shape"/>
<feColorMatrix in="SourceAlpha" type="matrix" values="0 0 0 0 0 0 0 0 0 0 0 0 0 0 0 0 0 0 127 0" result="hardAlpha"/>
<feOffset dy="21"/>
<feGaussianBlur stdDeviation="22.5"/>
<feComposite in2="hardAlpha" operator="arithmetic" k2="-1" k3="1"/>
<feColorMatrix type="matrix" values="0 0 0 0 0.577083 0 0 0 0 0.154167 0 0 0 0 1 0 0 0 0.79 0"/>
<feBlend mode="normal" in2="shape" result="effect1_innerShadow_304_13420"/>
</filter>
<filter id="filter3_f_304_13420" x="-460.482" y="246.838" width="2633.44" height="1075.54" filterUnits="userSpaceOnUse" color-interpolation-filters="sRGB">
<feFlood flood-opacity="0" result="BackgroundImageFix"/>
<feBlend mode="normal" in="SourceGraphic" in2="BackgroundImageFix" result="shape"/>
<feGaussianBlur stdDeviation="28.5" result="effect1_foregroundBlur_304_13420"/>
</filter>
<filter id="filter4_f_304_13420" x="-460.482" y="246.838" width="2633.44" height="1075.54" filterUnits="userSpaceOnUse" color-interpolation-filters="sRGB">
<feFlood flood-opacity="0" result="BackgroundImageFix"/>
<feBlend mode="normal" in="SourceGraphic" in2="BackgroundImageFix" result="shape"/>
<feGaussianBlur stdDeviation="28.5" result="effect1_foregroundBlur_304_13420"/>
</filter>
<filter id="filter6_i_304_13420" x="-527.218" y="-5.08737" width="2546.33" height="1252.55" filterUnits="userSpaceOnUse" color-interpolation-filters="sRGB">
<feFlood flood-opacity="0" result="BackgroundImageFix"/>
<feBlend mode="normal" in="SourceGraphic" in2="BackgroundImageFix" result="shape"/>
<feColorMatrix in="SourceAlpha" type="matrix" values="0 0 0 0 0 0 0 0 0 0 0 0 0 0 0 0 0 0 127 0" result="hardAlpha"/>
<feOffset dy="69"/>
<feGaussianBlur stdDeviation="43.5"/>
<feComposite in2="hardAlpha" operator="arithmetic" k2="-1" k3="1"/>
<feColorMatrix type="matrix" values="0 0 0 0 0 0 0 0 0 0.0843883 0 0 0 0 0.333333 0 0 0 1 0"/>
<feBlend mode="normal" in2="shape" result="effect1_innerShadow_304_13420"/>
</filter>
<filter id="filter7_f_304_13420" x="712.137" y="261.345" width="1311.11" height="829.573" filterUnits="userSpaceOnUse" color-interpolation-filters="sRGB">
<feFlood flood-opacity="0" result="BackgroundImageFix"/>
<feBlend mode="normal" in="SourceGraphic" in2="BackgroundImageFix" result="shape"/>
<feGaussianBlur stdDeviation="58.5" result="effect1_foregroundBlur_304_13420"/>
</filter>
<filter id="filter8_f_304_13420" x="-645.73" y="114.322" width="1301.58" height="869.037" filterUnits="userSpaceOnUse" color-interpolation-filters="sRGB">
<feFlood flood-opacity="0" result="BackgroundImageFix"/>
<feBlend mode="normal" in="SourceGraphic" in2="BackgroundImageFix" result="shape"/>
<feGaussianBlur stdDeviation="70.5" result="effect1_foregroundBlur_304_13420"/>
</filter>
<filter id="filter9_f_304_13420" x="-432.226" y="275.472" width="1301.58" height="869.037" filterUnits="userSpaceOnUse" color-interpolation-filters="sRGB">
<feFlood flood-opacity="0" result="BackgroundImageFix"/>
<feBlend mode="normal" in="SourceGraphic" in2="BackgroundImageFix" result="shape"/>
<feGaussianBlur stdDeviation="70.5" result="effect1_foregroundBlur_304_13420"/>
</filter>
<filter id="filter10_f_304_13420" x="-661.829" y="248.291" width="2657.19" height="1010.99" filterUnits="userSpaceOnUse" color-interpolation-filters="sRGB">
<feFlood flood-opacity="0" result="BackgroundImageFix"/>
<feBlend mode="normal" in="SourceGraphic" in2="BackgroundImageFix" result="shape"/>
<feGaussianBlur stdDeviation="19.5" result="effect1_foregroundBlur_304_13420"/>
</filter>
<filter id="filter11_f_304_13420" x="-680.894" y="103.326" width="2769.67" height="1203.95" filterUnits="userSpaceOnUse" color-interpolation-filters="sRGB">
<feFlood flood-opacity="0" result="BackgroundImageFix"/>
<feBlend mode="normal" in="SourceGraphic" in2="BackgroundImageFix" result="shape"/>
<feGaussianBlur stdDeviation="43.5" result="effect1_foregroundBlur_304_13420"/>
</filter>
<filter id="filter13_f_304_13420" x="-1001.28" y="298.302" width="3317.5" height="1784.58" filterUnits="userSpaceOnUse" color-interpolation-filters="sRGB">
<feFlood flood-opacity="0" result="BackgroundImageFix"/>
<feBlend mode="normal" in="SourceGraphic" in2="BackgroundImageFix" result="shape"/>
<feGaussianBlur stdDeviation="106.5" result="effect1_foregroundBlur_304_13420"/>
</filter>
<linearGradient id="paint0_linear_304_13420" x1="310.278" y1="97.9965" x2="1779.19" y2="146.547" gradientUnits="userSpaceOnUse">
<stop stop-color="#700090"/>
<stop offset="0.494792" stop-color="#080034"/>
<stop offset="1" stop-color="#013F8C"/>
</linearGradient>
<linearGradient id="paint1_linear_304_13420" x1="-48.1211" y1="-142.293" x2="1982.17" y2="129.553" gradientUnits="userSpaceOnUse">
<stop offset="0.161458" stop-color="#2E0062"/>
<stop offset="0.484375" stop-color="#03043C"/>
<stop offset="0.713542" stop-color="#011654"/>
<stop offset="1" stop-color="#01157C"/>
</linearGradient>
<linearGradient id="paint2_linear_304_13420" x1="-71.3141" y1="90.919" x2="1860.67" y2="414.184" gradientUnits="userSpaceOnUse">
<stop offset="0.0260417" stop-color="#440079"/>
<stop offset="0.505208" stop-color="#280D62"/>
<stop offset="0.671875" stop-color="#00114B"/>
<stop offset="1" stop-color="#000D7F"/>
</linearGradient>
<linearGradient id="paint3_linear_304_13420" x1="-251.34" y1="123.539" x2="1875.14" y2="511.611" gradientUnits="userSpaceOnUse">
<stop offset="0.380208" stop-color="#440079"/>
<stop offset="0.671875" stop-color="#08004E"/>
<stop offset="0.869792" stop-color="#292171"/>
</linearGradient>
<linearGradient id="paint4_linear_304_13420" x1="1054.58" y1="580.357" x2="1105.64" y2="419.953" gradientUnits="userSpaceOnUse">
<stop stop-color="#FF5C00"/>
<stop offset="1" stop-color="#FF005C"/>
</linearGradient>
<linearGradient id="paint5_linear_304_13420" x1="978.5" y1="510.671" x2="351.958" y2="342.408" gradientUnits="userSpaceOnUse">
<stop stop-color="#C4C4C4"/>
<stop offset="1" stop-color="#C4C4C4" stop-opacity="0"/>
</linearGradient>
<linearGradient id="paint6_linear_304_13420" x1="-170.989" y1="47.9093" x2="1507.14" y2="1246.72" gradientUnits="userSpaceOnUse">
<stop stop-color="#030840"/>
<stop offset="1" stop-color="#0E0137"/>
</linearGradient>
<clipPath id="clip0_304_13420">
<rect width="1440" height="300" fill="white"/>
</clipPath>
</defs>
</svg>
