<?xml version="1.0" encoding="UTF-8"?>
<svg id="Layer_2" data-name="Layer 2" xmlns="http://www.w3.org/2000/svg" viewBox="0 0 1215.85 216.39">
  <defs>
    <style>
      .cls-1 {
        fill: #dbe1fc;
        stroke: #4762f0;
        stroke-miterlimit: 10;
      }

      .cls-2 {
        fill: #4762f0;
        stroke-width: 0px;
      }
    </style>
  </defs>
  <g id="Layer_1-2" data-name="Layer 1">
    <g>
      <path class="cls-1" d="m113.9,53.64v-12.77h-19.43v-9.52h51.52v9.52h-19.43v12.77h-12.66Zm-17.47-44.35V1.9h47.6v7.39h-47.6Zm0,19.1V11.36h47.38v7.11h-34.89v2.35h35.67v7.56h-48.16Z"/>
      <path class="cls-1" d="m153.83,39.31c5.21-2.24,10.75-7.84,10.92-24.3v-1.96h-10.36V2.74h32.31v10.3h-10.36v1.96c.17,16.46,5.71,22.06,10.92,24.3v12.1c-6.72-2.02-12.71-6.27-16.74-14.5-4.03,8.23-10.02,12.49-16.69,14.5v-12.1Zm36.4,13.78V1.06h12.32v18.87h5.82v10.7h-5.82v22.46h-12.32Z"/>
      <path class="cls-1" d="m218.34,53.36l3.14-13.83h-9.41v-10.08h51.52v10.08h-8.51v13.83h-12.1v-13.83h-9.13l-3.14,13.83h-12.38Zm7.22-27.55c-6.66,0-12.1-5.43-12.1-12.1s5.43-12.1,12.1-12.1h24.53c6.66,0,12.1,5.43,12.1,12.1s-5.43,12.1-12.1,12.1h-24.53Zm22.01-9.41c1.51,0,2.63-1.12,2.63-2.63s-1.12-2.63-2.63-2.63h-19.49c-1.51,0-2.58,1.23-2.58,2.63,0,1.51,1.06,2.63,2.58,2.63h19.49Z"/>
      <path class="cls-1" d="m271.43,39.25c6.83-2.8,11.26-8.18,11.26-19.43v-3.7h-10.7V6.66h10.47V.5h12.54v6.16h10.47v9.46h-10.64v3.7c0,11.31,4.31,16.58,11.2,19.43v12.15c-7.39-2.07-13.5-6.78-17.3-13.05-3.81,6.22-9.91,10.98-17.3,13.05v-12.15Zm37.74,13.83V1.06h12.6v52.02h-12.6Z"/>
      <path class="cls-1" d="m349.83,20.55c7.62-2.24,10.58-8.4,10.58-15.57V1.34h12.21v3.64c0,7.17,2.97,12.77,10.58,15.01v10.14c-7.67-1.62-13.05-4.87-16.63-9.52-3.53,4.93-8.96,8.34-16.74,10.08v-10.14Zm13.22,12.32h25.65c6.16,0,10.98,4.26,10.98,10.25s-4.82,10.25-10.98,10.25h-25.65c-6.05,0-10.86-4.42-10.86-10.25s4.82-10.25,10.86-10.25Zm21.67,12.04c1.57,0,2.63-.45,2.63-1.79,0-1.51-1.06-1.85-2.63-1.85h-17.75c-1.34,0-2.41.34-2.41,1.85,0,1.34,1.06,1.79,2.41,1.79h17.75Zm1.51-13.16V1.06h12.32v9.58h5.82v9.8h-5.82v11.31h-12.32Z"/>
      <path class="cls-1" d="m409.19,27.88V1.9h30.46v8.68h-18.14v7.9l22.12-1.57v8.74l-34.44,2.24Zm2.35,25.2v-22.01h45.81v22.01h-12.38v-1.46l-33.43,1.46Zm12.43-8.9l21-.78v-3.98h-21v4.76Zm21.06-14.5V1.06h12.32v8.79h5.82v9.8h-5.82v10.02h-12.32Z"/>
    </g>
    <path class="cls-2" d="m1205.72,196.13c-4.54,0-8.39,3-9.68,7.13H27c-11.58,0-21-9.42-21-21V45.29c0-11.58,9.42-21,21-21h33.04c1.28,4.13,5.14,7.13,9.68,7.13,5.59,0,10.13-4.54,10.13-10.13s-4.54-10.13-10.13-10.13c-4.54,0-8.4,3-9.68,7.13H27C12.11,18.29,0,30.4,0,45.29v136.97c0,14.89,12.11,27,27,27h1169.05c1.28,4.13,5.13,7.13,9.68,7.13,5.59,0,10.13-4.54,10.13-10.13s-4.54-10.13-10.13-10.13ZM69.71,17.16c2.28,0,4.13,1.85,4.13,4.13s-1.85,4.13-4.13,4.13-4.13-1.85-4.13-4.13,1.85-4.13,4.13-4.13Zm1136.01,193.23c-2.28,0-4.13-1.85-4.13-4.13s1.85-4.13,4.13-4.13,4.13,1.85,4.13,4.13-1.85,4.13-4.13,4.13Z"/>
  </g>
</svg>