<?xml version="1.0" encoding="UTF-8"?>
<svg id="Layer_2" data-name="Layer 2" xmlns="http://www.w3.org/2000/svg" viewBox="0 0 1215.85 216.95">
  <defs>
    <style>
      .cls-1 {
        fill: #ffe8d2;
        stroke: #ff931f;
        stroke-miterlimit: 10;
      }

      .cls-2 {
        fill: #ff931f;
        stroke-width: 0px;
      }
    </style>
  </defs>
  <g id="Layer_1-2" data-name="Layer 1">
    <g>
      <path class="cls-1" d="m113.9,54.2v-12.77h-19.43v-9.52h51.52v9.52h-19.43v12.77h-12.66Zm-17.47-44.35V2.46h47.6v7.39h-47.6Zm0,19.1V11.92h47.38v7.11h-34.89v2.35h35.67v7.56h-48.16Z"/>
      <path class="cls-1" d="m153.83,39.87c5.21-2.24,10.75-7.84,10.92-24.3v-1.96h-10.36V3.3h32.31v10.3h-10.36v1.96c.17,16.46,5.71,22.06,10.92,24.3v12.1c-6.72-2.02-12.71-6.27-16.74-14.5-4.03,8.23-10.02,12.49-16.69,14.5v-12.1Zm36.4,13.78V1.62h12.32v18.87h5.82v10.7h-5.82v22.46h-12.32Z"/>
      <path class="cls-1" d="m231.67,43.34v-8.68h51.52v8.68h-19.43v10.86h-12.66v-10.86h-19.43Zm.84-31.08v-7.73h18.48V.5h12.88v4.03h18.48v7.73h-49.84Zm9.13,1.79h31.86c4.26,0,8.01,3.98,8.01,8.9s-3.75,8.9-8.01,8.9h-31.86c-4.26,0-8.29-3.98-8.29-8.9s4.03-8.9,8.29-8.9Zm28,10.19c.62,0,1.06-.62,1.06-1.23,0-.67-.45-1.29-1.06-1.29h-24.08c-.62,0-1.06.62-1.06,1.29,0,.62.45,1.23,1.06,1.23h24.08Z"/>
      <path class="cls-1" d="m310.63,39.87c5.21-2.24,11.31-7.84,11.48-24.3v-1.96h-10.92V3.3h33.43v10.3h-10.92v1.96c.17,16.46,6.27,22.06,11.48,24.3v12.1c-6.78-2.07-13.1-6.55-17.3-14.45-4.09,7.84-10.47,12.38-17.25,14.45v-12.1Zm37.74,13.78V1.62h12.6v52.02h-12.6Z"/>
      <path class="cls-1" d="m383.88,45.47h36.74v8.18h-48.27v-16.63h6.44l1.29-7.17h-11.2v-8.34h37.24v8.34h-14.73l-1.74,9.8h-5.77v5.82Zm-5.04-25.7c-5.21,0-8.85-3.98-8.85-8.74s3.64-8.85,8.85-8.85h15.51c5.15,0,8.9,3.98,8.9,8.85s-3.75,8.74-8.9,8.74h-15.51Zm3.53-10.36c-.73,0-1.4.78-1.4,1.74,0,.9.67,1.68,1.4,1.68h8.62c.73,0,1.46-.78,1.46-1.68,0-.95-.73-1.74-1.46-1.74h-8.62Zm11.42,29.96v-7.5h13.66V1.62h12.32v40.66h-12.32v-2.91h-13.66Z"/>
      <path class="cls-1" d="m428.23,38.75c5.99-4.03,10.64-9.58,10.64-25.98V2.74h12.15v10.02c0,16.41,4.65,21.95,10.64,25.98v13.22c-7.11-2.97-12.88-8.23-16.74-15.57-3.81,7.34-9.69,12.6-16.69,15.57v-13.22Zm36.4,14.9V1.62h12.32v18.87h5.82v10.7h-5.82v22.46h-12.32Z"/>
      <path class="cls-1" d="m525.05,1.62h12.38v28h-12.38v-9.46h-8.06c-1.62,5.88-7.5,8.85-14.45,8.85-8.23,0-14.95-4.2-14.95-12.43v-2.41c0-8.23,6.72-12.54,14.95-12.54,6.94,0,12.82,3.08,14.45,8.96h8.06V1.62Zm0,32.03v-2.91h12.38v22.9h-12.38v-1.51l-35.11,1.51v-22.9h12.32v2.91h22.79Zm-18.54-20.38c0-2.18-1.68-3.58-3.86-3.58s-3.81,1.4-3.81,3.58v4.14c0,2.18,1.62,3.53,3.81,3.53s3.86-1.34,3.86-3.53v-4.14Zm18.54,30.69v-2.35h-22.79v3.19l22.79-.84Z"/>
    </g>
    <path class="cls-2" d="m1205.72,196.69c-4.54,0-8.39,3-9.68,7.13H27c-11.58,0-21-9.42-21-21V45.85c0-11.58,9.42-21,21-21h33.04c1.28,4.13,5.14,7.13,9.68,7.13,5.59,0,10.13-4.54,10.13-10.13s-4.54-10.13-10.13-10.13c-4.54,0-8.4,3-9.68,7.13H27C12.11,18.85,0,30.96,0,45.85v136.97c0,14.89,12.11,27,27,27h1169.05c1.28,4.13,5.13,7.13,9.68,7.13,5.59,0,10.13-4.54,10.13-10.13s-4.54-10.13-10.13-10.13ZM69.71,17.72c2.28,0,4.13,1.85,4.13,4.13s-1.85,4.13-4.13,4.13-4.13-1.85-4.13-4.13,1.85-4.13,4.13-4.13Zm1136.01,193.23c-2.28,0-4.13-1.85-4.13-4.13s1.85-4.13,4.13-4.13,4.13,1.85,4.13,4.13-1.85,4.13-4.13,4.13Z"/>
  </g>
</svg>