<?xml version="1.0" encoding="UTF-8"?>
<svg id="Layer_2" data-name="Layer 2" xmlns="http://www.w3.org/2000/svg" viewBox="0 0 1215.89 216.11">
  <defs>
    <style>
      .cls-1 {
        fill: #e0f9c7;
        stroke: #65b029;
        stroke-miterlimit: 10;
      }

      .cls-2 {
        fill: #65b029;
        stroke-width: 0px;
      }
    </style>
  </defs>
  <g id="Layer_1-2" data-name="Layer 1">
    <g>
      <path class="cls-1" d="m576.71,21.84h19.71v8.79h-51.52v-8.79h20.05v-4.42h-18.09V.5h12.04v8.51h35.84v8.4h-18.03v4.42Zm9.02,11.31c5.21,0,9.58,4.31,9.58,9.91s-4.37,10.02-9.58,10.02h-30.18c-5.21,0-9.52-4.48-9.52-10.02s4.31-9.91,9.52-9.91h30.18Zm-3.25,11.2c.73,0,1.29-.67,1.29-1.51s-.56-1.46-1.29-1.46h-23.74c-.73,0-1.29.62-1.29,1.46s.56,1.51,1.29,1.51h23.74Z"/>
      <path class="cls-1" d="m604.26,19.76c7.62-2.24,11.09-8.4,11.09-15.57V1.06h12.38v3.14c0,7.17,3.47,13.33,11.09,15.57v10.42c-7.9-1.74-13.55-5.32-17.3-10.98-3.75,5.66-9.35,9.24-17.25,10.98v-10.42Zm2.35,22.23v-9.24h47.99v20.61h-13.16v-11.37h-34.83Zm35.39-10.64V.78h12.6v30.58h-12.6Z"/>
      <path class="cls-1" d="m714.02,31.52h-19.88v2.97h17.92v18.31h-11.87v-1.46l-35.73,1.46v-18.31h17.86v-2.97h-19.82v-8.29h51.52v8.29Zm-1.4-17.64v7.34h-48.72v-7.34h7.28l-.78-4.65h11.26l.62,4.65h11.76l.67-4.65h11.26l-.78,4.65h7.45Zm-.56-13.1v7.34h-47.6V.78h47.6Zm-11.87,42.9v-1.9h-23.91v2.69l23.91-.78Z"/>
      <path class="cls-1" d="m721.3,41.6h51.52v10.36h-51.52v-10.36Zm36.12-22.01l.56-7.84h-35V1.62h48.16l-2.63,38.58h-12.66l.84-11.14h-33.15v-9.46h33.88Z"/>
      <path class="cls-1" d="m781.22,51.12v-30.18h17.81v-8.68h-17.81V2.46h29.96v28h-17.64v9.58l22.06-1.85v10.08l-34.38,2.86Zm35.84,1.68V.78h12.32v18.87h5.82v10.7h-5.82v22.46h-12.32Z"/>
      <path class="cls-1" d="m858.33,53.36v-13.89h-19.43v-10.08h51.52v10.08h-19.43v13.89h-12.66Zm-5.94-27.83c-6.66,0-12.1-5.43-12.1-12.1s5.43-12.1,12.1-12.1h24.53c6.66,0,12.1,5.43,12.1,12.1s-5.43,12.1-12.1,12.1h-24.53Zm22.01-9.41c1.51,0,2.63-1.12,2.63-2.63s-1.12-2.63-2.63-2.63h-19.49c-1.51,0-2.58,1.23-2.58,2.63,0,1.51,1.06,2.63,2.58,2.63h19.49Z"/>
      <path class="cls-1" d="m897.7,51.96v-10.64h51.52v10.64h-51.52Zm1.96-19.43V1.62h47.6v10.19h-35.11v10.36h35.67v10.36h-48.16Z"/>
      <path class="cls-1" d="m976.66,33.37v-8.9h4.03l-1.18-13.1h10.36l.95,13.1h3.25l1.01-13.1h10.36l-1.23,13.1h4.59v8.9h-32.14Zm.56-23.41V1.62h31.02v8.34h-31.02Zm2.35,42.84v-16.8h12.49v7.62h35.84v9.18h-48.33Zm35.17-12.6v-17.75h-7.62v-9.46h7.62V.78h12.32v39.42h-12.32Z"/>
      <path class="cls-1" d="m1036.02,29.84V1.62h32.2v9.07h-19.88v9.18l23.46-1.51v9.24l-35.78,2.24Zm12.66,2.13h26.77c6.16,0,10.98,4.42,10.98,10.58s-4.82,10.53-10.98,10.53h-26.77c-6.05,0-10.86-4.48-10.86-10.53s4.82-10.58,10.86-10.58Zm22.96,12.38c1.57,0,2.46-.45,2.46-1.79,0-1.57-.9-1.9-2.46-1.9h-19.21c-1.34,0-2.24.34-2.24,1.9,0,1.34.9,1.79,2.24,1.79h19.21Zm1.57-13.5V.72h12.6v30.13h-12.6Z"/>
    </g>
    <path class="cls-2" d="m1188.89,18.01h-59.07c-1.28-4.13-5.13-7.13-9.68-7.13-5.59,0-10.13,4.54-10.13,10.13s4.54,10.13,10.13,10.13c4.54,0,8.39-3,9.68-7.13h59.07c11.58,0,21,9.42,21,21v136.97c0,11.58-9.42,21-21,21H19.81c-1.28-4.13-5.13-7.13-9.68-7.13-5.59,0-10.13,4.54-10.13,10.13s4.54,10.13,10.13,10.13c4.54,0,8.39-3,9.68-7.13h1169.08c14.89,0,27-12.11,27-27V45.01c0-14.89-12.11-27-27-27Zm-68.75,7.13c-2.28,0-4.13-1.85-4.13-4.13s1.85-4.13,4.13-4.13,4.13,1.85,4.13,4.13-1.85,4.13-4.13,4.13ZM10.13,210.11c-2.28,0-4.13-1.85-4.13-4.13s1.85-4.13,4.13-4.13,4.13,1.85,4.13,4.13-1.85,4.13-4.13,4.13Z"/>
  </g>
</svg>