<svg width="40" height="40" viewBox="0 0 40 40" fill="none" xmlns="http://www.w3.org/2000/svg">
<g clip-path="url(#clip0_620_62947)">
<path d="M13.3335 19.1667V32.1083C13.3328 33.2278 13.0207 34.325 12.432 35.2772C11.8433 36.2294 11.0013 36.999 10.0002 37.5V38.3333C10.0002 38.5543 9.91238 38.7663 9.7561 38.9226C9.59982 39.0789 9.38786 39.1667 9.16684 39.1667H1.66684C1.44583 39.1667 1.23387 39.0789 1.07759 38.9226C0.921307 38.7663 0.833509 38.5543 0.833509 38.3333V25.4C0.831481 24.5204 1.06155 23.6557 1.50049 22.8935C1.93944 22.1312 2.57172 21.4981 3.33351 21.0583C8.33351 18.2167 8.03351 18.3333 8.33351 18.3333H12.5002C12.7212 18.3333 12.9332 18.4211 13.0894 18.5774C13.2457 18.7337 13.3335 18.9456 13.3335 19.1667Z" fill="url(#paint0_linear_620_62947)"/>
<path d="M27.5002 2.5H7.50016C6.57969 2.5 5.8335 3.24619 5.8335 4.16667V30.8333C5.8335 31.7538 6.57969 32.5 7.50016 32.5H27.5002C28.4206 32.5 29.1668 31.7538 29.1668 30.8333V4.16667C29.1668 3.24619 28.4206 2.5 27.5002 2.5Z" fill="url(#paint1_linear_620_62947)"/>
<path d="M25.0003 14.1667H10.0003C9.77931 14.1667 9.56735 14.2545 9.41107 14.4107C9.25479 14.567 9.16699 14.779 9.16699 15V28.3333C9.16699 28.5543 9.25479 28.7663 9.41107 28.9226C9.56735 29.0789 9.77931 29.1667 10.0003 29.1667H25.0003C25.2213 29.1667 25.4333 29.0789 25.5896 28.9226C25.7459 28.7663 25.8337 28.5543 25.8337 28.3333V15C25.8337 14.779 25.7459 14.567 25.5896 14.4107C25.4333 14.2545 25.2213 14.1667 25.0003 14.1667ZM15.0003 20.8333H10.8337V19.1667H15.0003V20.8333ZM16.667 19.1667H24.167V20.8333H16.667V19.1667ZM10.8337 22.5H15.0003V24.1667H10.8337V22.5ZM16.667 22.5H24.167V24.1667H16.667V22.5ZM24.167 17.5H16.667V15.8333H24.167V17.5ZM15.0003 15.8333V17.5H10.8337V15.8333H15.0003ZM10.8337 25.8333H15.0003V27.5H10.8337V25.8333ZM16.667 27.5V25.8333H24.167V27.5H16.667Z" fill="#B4CDE1"/>
<path d="M25.0003 5H10.0003C9.54009 5 9.16699 5.3731 9.16699 5.83333V10.8333C9.16699 11.2936 9.54009 11.6667 10.0003 11.6667H25.0003C25.4606 11.6667 25.8337 11.2936 25.8337 10.8333V5.83333C25.8337 5.3731 25.4606 5 25.0003 5Z" fill="url(#paint2_linear_620_62947)"/>
<path d="M0.833496 32.5L9.9335 23.4C10.0456 23.2882 10.1804 23.2018 10.3287 23.1465C10.477 23.0912 10.6354 23.0683 10.7934 23.0793C10.9513 23.0904 11.105 23.1351 11.2442 23.2106C11.3833 23.286 11.5047 23.3904 11.6002 23.5167C12.0821 24.1585 12.3163 24.9527 12.2596 25.7534C12.203 26.5541 11.8594 27.3074 11.2918 27.875L10.8335 28.3333C10.8332 30.4682 9.9849 32.5156 8.47516 34.025L5.00016 37.5" fill="url(#paint3_linear_620_62947)"/>
<path d="M36.667 4.16667V12.5C36.667 12.942 36.4914 13.3659 36.1788 13.6785C35.8663 13.9911 35.4424 14.1667 35.0003 14.1667H27.1837L26.5753 15.375C26.5054 15.5115 26.3991 15.6261 26.2683 15.706C26.1374 15.786 25.987 15.8284 25.8337 15.8284C25.6803 15.8284 25.5299 15.786 25.399 15.706C25.2682 15.6261 25.1619 15.5115 25.092 15.375L24.492 14.1667H23.3337C22.8916 14.1667 22.4677 13.9911 22.1551 13.6785C21.8426 13.3659 21.667 12.942 21.667 12.5V4.16667C21.667 3.72464 21.8426 3.30072 22.1551 2.98816C22.4677 2.67559 22.8916 2.5 23.3337 2.5H35.0003C35.4424 2.5 35.8663 2.67559 36.1788 2.98816C36.4914 3.30072 36.667 3.72464 36.667 4.16667Z" fill="url(#paint4_linear_620_62947)"/>
<path d="M34.1668 5.83332H24.1668C23.9458 5.83332 23.7339 5.74553 23.5776 5.58925C23.4213 5.43297 23.3335 5.221 23.3335 4.99999C23.3335 4.77898 23.4213 4.56701 23.5776 4.41073C23.7339 4.25445 23.9458 4.16666 24.1668 4.16666H34.1668C34.3878 4.16666 34.5998 4.25445 34.7561 4.41073C34.9124 4.56701 35.0002 4.77898 35.0002 4.99999C35.0002 5.221 34.9124 5.43297 34.7561 5.58925C34.5998 5.74553 34.3878 5.83332 34.1668 5.83332Z" fill="#EB7F58"/>
<path d="M34.1668 9.16667H24.1668C23.9458 9.16667 23.7339 9.07887 23.5776 8.92259C23.4213 8.76631 23.3335 8.55435 23.3335 8.33333C23.3335 8.11232 23.4213 7.90036 23.5776 7.74408C23.7339 7.5878 23.9458 7.5 24.1668 7.5H34.1668C34.3878 7.5 34.5998 7.5878 34.7561 7.74408C34.9124 7.90036 35.0002 8.11232 35.0002 8.33333C35.0002 8.55435 34.9124 8.76631 34.7561 8.92259C34.5998 9.07887 34.3878 9.16667 34.1668 9.16667Z" fill="#EB7F58"/>
<path d="M29.1668 12.5H24.1668C23.9458 12.5 23.7339 12.4122 23.5776 12.2559C23.4213 12.0996 23.3335 11.8877 23.3335 11.6667C23.3335 11.4456 23.4213 11.2337 23.5776 11.0774C23.7339 10.9211 23.9458 10.8333 24.1668 10.8333H29.1668C29.3878 10.8333 29.5998 10.9211 29.7561 11.0774C29.9124 11.2337 30.0002 11.4456 30.0002 11.6667C30.0002 11.8877 29.9124 12.0996 29.7561 12.2559C29.5998 12.4122 29.3878 12.5 29.1668 12.5Z" fill="#EB7F58"/>
<path d="M35.0002 9.16666C37.3014 9.16666 39.1668 7.30118 39.1668 5C39.1668 2.69881 37.3014 0.833328 35.0002 0.833328C32.699 0.833328 30.8335 2.69881 30.8335 5C30.8335 7.30118 32.699 9.16666 35.0002 9.16666Z" fill="url(#paint5_linear_620_62947)"/>
<path d="M38.0502 7.82499C37.7894 7.23349 37.3622 6.73059 36.8207 6.37753C36.2791 6.02448 35.6466 5.8365 35.0002 5.8365C34.3537 5.8365 33.7212 6.02448 33.1797 6.37753C32.6382 6.73059 32.211 7.23349 31.9502 7.82499C32.3401 8.24393 32.8122 8.57805 33.3369 8.80652C33.8617 9.03498 34.4279 9.15289 35.0002 9.15289C35.5725 9.15289 36.1387 9.03498 36.6635 8.80652C37.1882 8.57805 37.6603 8.24393 38.0502 7.82499Z" fill="#4795EA"/>
<path d="M35.0002 5.83333C35.9206 5.83333 36.6668 5.08714 36.6668 4.16667C36.6668 3.24619 35.9206 2.5 35.0002 2.5C34.0797 2.5 33.3335 3.24619 33.3335 4.16667C33.3335 5.08714 34.0797 5.83333 35.0002 5.83333Z" fill="#4795EA"/>
</g>
<defs>
<linearGradient id="paint0_linear_620_62947" x1="7.08351" y1="39.1667" x2="7.08351" y2="18.3333" gradientUnits="userSpaceOnUse">
<stop stop-color="#54A5FF"/>
<stop offset="1" stop-color="#8AD3FE"/>
</linearGradient>
<linearGradient id="paint1_linear_620_62947" x1="17.5002" y1="32.5" x2="17.5002" y2="2.5" gradientUnits="userSpaceOnUse">
<stop stop-color="#D3E6F5"/>
<stop offset="1" stop-color="#F0F7FC"/>
</linearGradient>
<linearGradient id="paint2_linear_620_62947" x1="17.5003" y1="11.6667" x2="17.5003" y2="5" gradientUnits="userSpaceOnUse">
<stop stop-color="#54A5FF"/>
<stop offset="1" stop-color="#8AD3FE"/>
</linearGradient>
<linearGradient id="paint3_linear_620_62947" x1="6.55016" y1="37.5" x2="6.55016" y2="23.075" gradientUnits="userSpaceOnUse">
<stop stop-color="#54A5FF"/>
<stop offset="1" stop-color="#8AD3FE"/>
</linearGradient>
<linearGradient id="paint4_linear_620_62947" x1="29.167" y1="15.8333" x2="29.167" y2="2.5" gradientUnits="userSpaceOnUse">
<stop stop-color="#FE9661"/>
<stop offset="1" stop-color="#FFB369"/>
</linearGradient>
<linearGradient id="paint5_linear_620_62947" x1="35.0002" y1="9.16666" x2="35.0002" y2="0.833328" gradientUnits="userSpaceOnUse">
<stop stop-color="#54A5FF"/>
<stop offset="1" stop-color="#8AD3FE"/>
</linearGradient>
<clipPath id="clip0_620_62947">
<rect width="40" height="40" fill="white"/>
</clipPath>
</defs>
</svg>
