<svg width="40" height="40" viewBox="0 0 40 40" fill="none" xmlns="http://www.w3.org/2000/svg">
<path d="M24.166 19.1667V32.1083C24.1667 33.2278 24.4789 34.325 25.0676 35.2772C25.6562 36.2294 26.4982 36.999 27.4993 37.5V38.3333C27.4993 38.5543 27.5871 38.7663 27.7434 38.9226C27.8997 39.0789 28.1117 39.1667 28.3327 39.1667H35.8327C36.0537 39.1667 36.2657 39.0789 36.4219 38.9226C36.5782 38.7663 36.666 38.5543 36.666 38.3333V25.4C36.668 24.5204 36.438 23.6557 35.999 22.8935C35.5601 22.1312 34.9278 21.4981 34.166 21.0583C29.166 18.2167 29.466 18.3333 29.166 18.3333H24.9993C24.7783 18.3333 24.5664 18.4211 24.4101 18.5774C24.2538 18.7337 24.166 18.9456 24.166 19.1667Z" fill="url(#paint0_linear_620_66268)"/>
<path d="M15.833 19.1667V32.1083C15.8323 33.2278 15.5202 34.325 14.9315 35.2772C14.3428 36.2294 13.5008 36.999 12.4997 37.5V38.3333C12.4997 38.5543 12.4119 38.7663 12.2556 38.9226C12.0993 39.0789 11.8874 39.1667 11.6664 39.1667H4.16635C3.94534 39.1667 3.73338 39.0789 3.5771 38.9226C3.42082 38.7663 3.33302 38.5543 3.33302 38.3333V25.4C3.33099 24.5204 3.56106 23.6557 4 22.8935C4.43895 22.1312 5.07123 21.4981 5.83302 21.0583C10.833 18.2167 10.533 18.3333 10.833 18.3333H14.9997C15.2207 18.3333 15.4327 18.4211 15.5889 18.5774C15.7452 18.7337 15.833 18.9456 15.833 19.1667Z" fill="url(#paint1_linear_620_66268)"/>
<path d="M29.9997 0.833328H9.99967C9.0792 0.833328 8.33301 1.57952 8.33301 2.49999V30.8333C8.33301 31.7538 9.0792 32.5 9.99967 32.5H29.9997C30.9201 32.5 31.6663 31.7538 31.6663 30.8333V2.49999C31.6663 1.57952 30.9201 0.833328 29.9997 0.833328Z" fill="url(#paint2_linear_620_66268)"/>
<path d="M3.33301 32.5L12.433 23.4C12.5451 23.2882 12.6799 23.2018 12.8282 23.1465C12.9765 23.0912 13.135 23.0683 13.2929 23.0793C13.4508 23.0904 13.6045 23.1351 13.7437 23.2106C13.8828 23.286 14.0042 23.3904 14.0997 23.5167C14.5816 24.1585 14.8158 24.9527 14.7592 25.7534C14.7025 26.5541 14.3589 27.3074 13.7913 27.875L13.333 28.3333C13.3327 30.4682 12.4844 32.5156 10.9747 34.025L7.49967 37.5" fill="url(#paint3_linear_620_66268)"/>
<path d="M36.6659 32.5L27.5659 23.4C27.4538 23.2882 27.319 23.2018 27.1707 23.1465C27.0224 23.0912 26.864 23.0683 26.706 23.0793C26.5481 23.0904 26.3944 23.1351 26.2552 23.2106C26.1161 23.286 25.9947 23.3904 25.8992 23.5167C25.4173 24.1585 25.1831 24.9527 25.2398 25.7534C25.2964 26.5541 25.6401 27.3074 26.2076 27.875L26.6659 28.3333C26.6662 30.4682 27.5145 32.5156 29.0242 34.025L32.4992 37.5" fill="url(#paint4_linear_620_66268)"/>
<path d="M14.9997 11.6667C17.3009 11.6667 19.1663 9.80118 19.1663 7.5C19.1663 5.19881 17.3009 3.33333 14.9997 3.33333C12.6985 3.33333 10.833 5.19881 10.833 7.5C10.833 9.80118 12.6985 11.6667 14.9997 11.6667Z" fill="url(#paint5_linear_620_66268)"/>
<path d="M18.0492 10.325C17.7884 9.73349 17.3612 9.23059 16.8197 8.87753C16.2782 8.52448 15.6457 8.3365 14.9992 8.3365C14.3528 8.3365 13.7203 8.52448 13.1787 8.87753C12.6372 9.23059 12.21 9.73349 11.9492 10.325C12.3391 10.7439 12.8112 11.0781 13.336 11.3065C13.8607 11.535 14.4269 11.6529 14.9992 11.6529C15.5715 11.6529 16.1377 11.535 16.6625 11.3065C17.1872 11.0781 17.6593 10.7439 18.0492 10.325Z" fill="#EB7F58"/>
<path d="M14.9997 8.33333C15.9201 8.33333 16.6663 7.58714 16.6663 6.66667C16.6663 5.74619 15.9201 5 14.9997 5C14.0792 5 13.333 5.74619 13.333 6.66667C13.333 7.58714 14.0792 8.33333 14.9997 8.33333Z" fill="#EB7F58"/>
<path d="M28.333 5H21.6663C21.2061 5 20.833 5.3731 20.833 5.83333V9.16667C20.833 9.6269 21.2061 10 21.6663 10H28.333C28.7932 10 29.1663 9.6269 29.1663 9.16667V5.83333C29.1663 5.3731 28.7932 5 28.333 5Z" fill="url(#paint6_linear_620_66268)"/>
<path d="M28.333 15.8333H11.6663C11.4453 15.8333 11.2334 15.7455 11.0771 15.5892C10.9208 15.433 10.833 15.221 10.833 15C10.833 14.779 10.9208 14.567 11.0771 14.4107C11.2334 14.2545 11.4453 14.1667 11.6663 14.1667H28.333C28.554 14.1667 28.766 14.2545 28.9223 14.4107C29.0785 14.567 29.1663 14.779 29.1663 15C29.1663 15.221 29.0785 15.433 28.9223 15.5892C28.766 15.7455 28.554 15.8333 28.333 15.8333Z" fill="#B4CDE1"/>
<path d="M28.333 20H11.6663C11.4453 20 11.2334 19.9122 11.0771 19.7559C10.9208 19.5996 10.833 19.3877 10.833 19.1667C10.833 18.9456 10.9208 18.7337 11.0771 18.5774C11.2334 18.4211 11.4453 18.3333 11.6663 18.3333H28.333C28.554 18.3333 28.766 18.4211 28.9223 18.5774C29.0785 18.7337 29.1663 18.9456 29.1663 19.1667C29.1663 19.3877 29.0785 19.5996 28.9223 19.7559C28.766 19.9122 28.554 20 28.333 20Z" fill="#B4CDE1"/>
<path d="M22.4993 24.1667H17.4993C17.2783 24.1667 17.0664 24.0789 16.9101 23.9226C16.7538 23.7663 16.666 23.5543 16.666 23.3333C16.666 23.1123 16.7538 22.9004 16.9101 22.7441C17.0664 22.5878 17.2783 22.5 17.4993 22.5H22.4993C22.7204 22.5 22.9323 22.5878 23.0886 22.7441C23.2449 22.9004 23.3327 23.1123 23.3327 23.3333C23.3327 23.5543 23.2449 23.7663 23.0886 23.9226C22.9323 24.0789 22.7204 24.1667 22.4993 24.1667Z" fill="#B4CDE1"/>
<defs>
<linearGradient id="paint0_linear_620_66268" x1="30.416" y1="39.1667" x2="30.416" y2="18.3333" gradientUnits="userSpaceOnUse">
<stop stop-color="#54A5FF"/>
<stop offset="1" stop-color="#8AD3FE"/>
</linearGradient>
<linearGradient id="paint1_linear_620_66268" x1="9.58302" y1="39.1667" x2="9.58302" y2="18.3333" gradientUnits="userSpaceOnUse">
<stop stop-color="#54A5FF"/>
<stop offset="1" stop-color="#8AD3FE"/>
</linearGradient>
<linearGradient id="paint2_linear_620_66268" x1="19.9997" y1="32.5" x2="19.9997" y2="0.833328" gradientUnits="userSpaceOnUse">
<stop stop-color="#D3E6F5"/>
<stop offset="1" stop-color="#F0F7FC"/>
</linearGradient>
<linearGradient id="paint3_linear_620_66268" x1="9.04967" y1="37.5" x2="9.04967" y2="23.075" gradientUnits="userSpaceOnUse">
<stop stop-color="#54A5FF"/>
<stop offset="1" stop-color="#8AD3FE"/>
</linearGradient>
<linearGradient id="paint4_linear_620_66268" x1="30.9492" y1="37.5" x2="30.9492" y2="23.075" gradientUnits="userSpaceOnUse">
<stop stop-color="#54A5FF"/>
<stop offset="1" stop-color="#8AD3FE"/>
</linearGradient>
<linearGradient id="paint5_linear_620_66268" x1="14.9997" y1="11.6667" x2="14.9997" y2="3.33333" gradientUnits="userSpaceOnUse">
<stop stop-color="#FE9661"/>
<stop offset="1" stop-color="#FFB369"/>
</linearGradient>
<linearGradient id="paint6_linear_620_66268" x1="24.9997" y1="10" x2="24.9997" y2="5" gradientUnits="userSpaceOnUse">
<stop stop-color="#54A5FF"/>
<stop offset="1" stop-color="#8AD3FE"/>
</linearGradient>
</defs>
</svg>
