<svg width="40" height="40" viewBox="0 0 40 40" fill="none" xmlns="http://www.w3.org/2000/svg">
<path d="M30 0.833328H6.66667C5.74619 0.833328 5 1.57952 5 2.49999V34.1667C5 35.0871 5.74619 35.8333 6.66667 35.8333H30C30.9205 35.8333 31.6667 35.0871 31.6667 34.1667V2.49999C31.6667 1.57952 30.9205 0.833328 30 0.833328Z" fill="url(#paint0_linear_617_56849)"/>
<path d="M33.3333 4.16666H9.99998C9.07951 4.16666 8.33331 4.91285 8.33331 5.83332V37.5C8.33331 38.4205 9.07951 39.1667 9.99998 39.1667H33.3333C34.2538 39.1667 35 38.4205 35 37.5V5.83332C35 4.91285 34.2538 4.16666 33.3333 4.16666Z" fill="url(#paint1_linear_617_56849)"/>
<path d="M21.6666 18.3333C24.8883 18.3333 27.5 15.7217 27.5 12.5C27.5 9.27833 24.8883 6.66666 21.6666 6.66666C18.445 6.66666 15.8333 9.27833 15.8333 12.5C15.8333 15.7217 18.445 18.3333 21.6666 18.3333Z" fill="url(#paint2_linear_617_56849)"/>
<path d="M30 20.8333H13.3333C12.8731 20.8333 12.5 21.2064 12.5 21.6667V25C12.5 25.4602 12.8731 25.8333 13.3333 25.8333H30C30.4602 25.8333 30.8333 25.4602 30.8333 25V21.6667C30.8333 21.2064 30.4602 20.8333 30 20.8333Z" fill="url(#paint3_linear_617_56849)"/>
<path d="M30 29.1667H13.3333C13.1123 29.1667 12.9004 29.0789 12.7441 28.9226C12.5878 28.7663 12.5 28.5543 12.5 28.3333C12.5 28.1123 12.5878 27.9004 12.7441 27.7441C12.9004 27.5878 13.1123 27.5 13.3333 27.5H30C30.221 27.5 30.433 27.5878 30.5893 27.7441C30.7455 27.9004 30.8333 28.1123 30.8333 28.3333C30.8333 28.5543 30.7455 28.7663 30.5893 28.9226C30.433 29.0789 30.221 29.1667 30 29.1667Z" fill="#B4CDE1"/>
<path d="M30 32.5H13.3333C13.1123 32.5 12.9004 32.4122 12.7441 32.2559C12.5878 32.0996 12.5 31.8877 12.5 31.6667C12.5 31.4456 12.5878 31.2337 12.7441 31.0774C12.9004 30.9211 13.1123 30.8333 13.3333 30.8333H30C30.221 30.8333 30.433 30.9211 30.5893 31.0774C30.7455 31.2337 30.8333 31.4456 30.8333 31.6667C30.8333 31.8877 30.7455 32.0996 30.5893 32.2559C30.433 32.4122 30.221 32.5 30 32.5Z" fill="#B4CDE1"/>
<path d="M30 35.8333H13.3333C13.1123 35.8333 12.9004 35.7455 12.7441 35.5892C12.5878 35.433 12.5 35.221 12.5 35C12.5 34.779 12.5878 34.567 12.7441 34.4107C12.9004 34.2545 13.1123 34.1667 13.3333 34.1667H30C30.221 34.1667 30.433 34.2545 30.5893 34.4107C30.7455 34.567 30.8333 34.779 30.8333 35C30.8333 35.221 30.7455 35.433 30.5893 35.5892C30.433 35.7455 30.221 35.8333 30 35.8333Z" fill="#B4CDE1"/>
<path d="M26.1834 16.1917C25.7777 15.3373 25.1379 14.6155 24.3384 14.11C23.539 13.6046 22.6125 13.3364 21.6667 13.3364C20.7209 13.3364 19.7944 13.6046 18.9949 14.11C18.1955 14.6155 17.5557 15.3373 17.15 16.1917C17.6971 16.8611 18.3862 17.4005 19.1673 17.7709C19.9485 18.1413 20.8022 18.3335 21.6667 18.3335C22.5312 18.3335 23.3849 18.1413 24.1661 17.7709C24.9472 17.4005 25.6363 16.8611 26.1834 16.1917Z" fill="#EB7F58"/>
<path d="M21.6667 13.3333C23.0474 13.3333 24.1667 12.214 24.1667 10.8333C24.1667 9.45262 23.0474 8.33333 21.6667 8.33333C20.286 8.33333 19.1667 9.45262 19.1667 10.8333C19.1667 12.214 20.286 13.3333 21.6667 13.3333Z" fill="#EB7F58"/>
<defs>
<linearGradient id="paint0_linear_617_56849" x1="27.0417" y1="27.0417" x2="1.88333" y2="1.88333" gradientUnits="userSpaceOnUse">
<stop stop-color="#54A5FF"/>
<stop offset="0.98" stop-color="#89D2FE"/>
<stop offset="1" stop-color="#8AD3FE"/>
</linearGradient>
<linearGradient id="paint1_linear_617_56849" x1="21.6666" y1="39.1667" x2="21.6666" y2="4.16666" gradientUnits="userSpaceOnUse">
<stop stop-color="#D3E6F5"/>
<stop offset="1" stop-color="#F0F7FC"/>
</linearGradient>
<linearGradient id="paint2_linear_617_56849" x1="21.6666" y1="18.3333" x2="21.6666" y2="6.66666" gradientUnits="userSpaceOnUse">
<stop stop-color="#FE9661"/>
<stop offset="1" stop-color="#FFB369"/>
</linearGradient>
<linearGradient id="paint3_linear_617_56849" x1="21.6667" y1="25.8333" x2="21.6667" y2="20.8333" gradientUnits="userSpaceOnUse">
<stop stop-color="#54A5FF"/>
<stop offset="1" stop-color="#8AD3FE"/>
</linearGradient>
</defs>
</svg>
