<svg width="40" height="40" viewBox="0 0 40 40" fill="none" xmlns="http://www.w3.org/2000/svg">
<path d="M26.6667 4.16669H6.66667C5.28596 4.16669 4.16667 5.28598 4.16667 6.66669V33.3334C4.16667 34.7141 5.28596 35.8334 6.66667 35.8334H26.6667C28.0474 35.8334 29.1667 34.7141 29.1667 33.3334V6.66669C29.1667 5.28598 28.0474 4.16669 26.6667 4.16669Z" fill="url(#paint0_linear_383_15877)"/>
<path d="M26.6667 5.83334H6.66668C6.20644 5.83334 5.83334 6.20644 5.83334 6.66668V33.3333C5.83334 33.7936 6.20644 34.1667 6.66668 34.1667H26.6667C27.1269 34.1667 27.5 33.7936 27.5 33.3333V6.66668C27.5 6.20644 27.1269 5.83334 26.6667 5.83334Z" fill="url(#paint1_linear_383_15877)"/>
<path d="M28.3333 39.1667C27.8913 39.1667 27.4674 38.9911 27.1548 38.6786C26.8423 38.366 26.6667 37.9421 26.6667 37.5V30.8334H30V37.5C30 37.9421 29.8244 38.366 29.5119 38.6786C29.1993 38.9911 28.7754 39.1667 28.3333 39.1667Z" fill="url(#paint2_linear_383_15877)"/>
<path d="M28.3333 33.3334C32.4755 33.3334 35.8333 29.9755 35.8333 25.8334C35.8333 21.6912 32.4755 18.3334 28.3333 18.3334C24.1912 18.3334 20.8333 21.6912 20.8333 25.8334C20.8333 29.9755 24.1912 33.3334 28.3333 33.3334Z" fill="url(#paint3_linear_383_15877)"/>
<path d="M28.3333 31.6667C31.555 31.6667 34.1667 29.055 34.1667 25.8333C34.1667 22.6117 31.555 20 28.3333 20C25.1117 20 22.5 22.6117 22.5 25.8333C22.5 29.055 25.1117 31.6667 28.3333 31.6667Z" fill="url(#paint4_linear_383_15877)"/>
<path d="M28.3333 27.5C27.1417 27.5 27.225 25.4083 28.6 24.9583C28.7451 24.9093 28.8739 24.8212 28.9723 24.7038C29.0706 24.5863 29.1347 24.4441 29.1574 24.2926C29.1802 24.1411 29.1607 23.9863 29.1012 23.8451C29.0417 23.704 28.9445 23.5819 28.8201 23.4924C28.6958 23.403 28.5492 23.3495 28.3965 23.3379C28.2437 23.3263 28.0907 23.357 27.9543 23.4267C27.8179 23.4964 27.7033 23.6023 27.6232 23.7328C27.543 23.8634 27.5004 24.0135 27.5 24.1667C27.5 24.3877 27.4122 24.5996 27.2559 24.7559C27.0997 24.9122 26.8877 25 26.6667 25C25.075 25 25.8333 21.6667 28.3333 21.6667C28.9326 21.6536 29.5166 21.8563 29.9789 22.2377C30.4412 22.6192 30.7511 23.154 30.8521 23.7448C30.9531 24.3356 30.8385 24.9431 30.5291 25.4564C30.2197 25.9698 29.7362 26.3549 29.1667 26.5417V26.6667C29.1667 26.8877 29.0789 27.0996 28.9226 27.2559C28.7663 27.4122 28.5544 27.5 28.3333 27.5Z" fill="#B4CDE1"/>
<path d="M28.3333 30C28.1685 30 28.0074 29.9512 27.8704 29.8596C27.7333 29.768 27.6265 29.6379 27.5634 29.4856C27.5004 29.3333 27.4839 29.1658 27.516 29.0041C27.5482 28.8425 27.6275 28.694 27.7441 28.5775C27.8606 28.4609 28.0091 28.3815 28.1708 28.3494C28.3324 28.3172 28.5 28.3337 28.6522 28.3968C28.8045 28.4599 28.9347 28.5667 29.0262 28.7037C29.1178 28.8408 29.1667 29.0019 29.1667 29.1667C29.1667 29.3877 29.0789 29.5997 28.9226 29.756C28.7663 29.9122 28.5544 30 28.3333 30Z" fill="#B4CDE1"/>
<path d="M21.6667 2.5H11.6667C11.2064 2.5 10.8333 2.8731 10.8333 3.33333V7.5C10.8333 7.96024 11.2064 8.33333 11.6667 8.33333H21.6667C22.1269 8.33333 22.5 7.96024 22.5 7.5V3.33333C22.5 2.8731 22.1269 2.5 21.6667 2.5Z" fill="url(#paint5_linear_383_15877)"/>
<path d="M18.3333 2.50001H15C15 2.05798 15.1756 1.63406 15.4882 1.3215C15.8007 1.00894 16.2246 0.833344 16.6667 0.833344C17.1087 0.833344 17.5326 1.00894 17.8452 1.3215C18.1577 1.63406 18.3333 2.05798 18.3333 2.50001Z" fill="url(#paint6_linear_383_15877)"/>
<path d="M10.8333 10.8333H9.16668C8.70644 10.8333 8.33334 11.2064 8.33334 11.6667V13.3333C8.33334 13.7936 8.70644 14.1667 9.16668 14.1667H10.8333C11.2936 14.1667 11.6667 13.7936 11.6667 13.3333V11.6667C11.6667 11.2064 11.2936 10.8333 10.8333 10.8333Z" fill="#8AD3FE"/>
<path d="M24.1667 13.3334H14.1667C13.9457 13.3334 13.7337 13.2456 13.5774 13.0893C13.4211 12.933 13.3333 12.721 13.3333 12.5C13.3333 12.279 13.4211 12.067 13.5774 11.9108C13.7337 11.7545 13.9457 11.6667 14.1667 11.6667H24.1667C24.3877 11.6667 24.5997 11.7545 24.7559 11.9108C24.9122 12.067 25 12.279 25 12.5C25 12.721 24.9122 12.933 24.7559 13.0893C24.5997 13.2456 24.3877 13.3334 24.1667 13.3334Z" fill="#B4CDE1"/>
<path d="M10.8333 16.6667H9.16668C8.70644 16.6667 8.33334 17.0398 8.33334 17.5V19.1667C8.33334 19.6269 8.70644 20 9.16668 20H10.8333C11.2936 20 11.6667 19.6269 11.6667 19.1667V17.5C11.6667 17.0398 11.2936 16.6667 10.8333 16.6667Z" fill="#8AD3FE"/>
<path d="M21.6667 19.1667H14.1667C13.9457 19.1667 13.7337 19.0789 13.5774 18.9226C13.4211 18.7663 13.3333 18.5543 13.3333 18.3333C13.3333 18.1123 13.4211 17.9004 13.5774 17.7441C13.7337 17.5878 13.9457 17.5 14.1667 17.5H21.6667C21.8877 17.5 22.0997 17.5878 22.2559 17.7441C22.4122 17.9004 22.5 18.1123 22.5 18.3333C22.5 18.5543 22.4122 18.7663 22.2559 18.9226C22.0997 19.0789 21.8877 19.1667 21.6667 19.1667Z" fill="#B4CDE1"/>
<path d="M10.8333 22.5H9.16668C8.70644 22.5 8.33334 22.8731 8.33334 23.3333V25C8.33334 25.4602 8.70644 25.8333 9.16668 25.8333H10.8333C11.2936 25.8333 11.6667 25.4602 11.6667 25V23.3333C11.6667 22.8731 11.2936 22.5 10.8333 22.5Z" fill="#8AD3FE"/>
<path d="M18.3333 25H14.1667C13.9457 25 13.7337 24.9122 13.5774 24.756C13.4211 24.5997 13.3333 24.3877 13.3333 24.1667C13.3333 23.9457 13.4211 23.7337 13.5774 23.5775C13.7337 23.4212 13.9457 23.3334 14.1667 23.3334H18.3333C18.5544 23.3334 18.7663 23.4212 18.9226 23.5775C19.0789 23.7337 19.1667 23.9457 19.1667 24.1667C19.1667 24.3877 19.0789 24.5997 18.9226 24.756C18.7663 24.9122 18.5544 25 18.3333 25Z" fill="#B4CDE1"/>
<path d="M10.8333 28.3334H9.16668C8.70644 28.3334 8.33334 28.7065 8.33334 29.1667V30.8334C8.33334 31.2936 8.70644 31.6667 9.16668 31.6667H10.8333C11.2936 31.6667 11.6667 31.2936 11.6667 30.8334V29.1667C11.6667 28.7065 11.2936 28.3334 10.8333 28.3334Z" fill="#8AD3FE"/>
<path d="M18.3333 30.8334H14.1667C13.9457 30.8334 13.7337 30.7456 13.5774 30.5893C13.4211 30.433 13.3333 30.221 13.3333 30C13.3333 29.779 13.4211 29.567 13.5774 29.4108C13.7337 29.2545 13.9457 29.1667 14.1667 29.1667H18.3333C18.5544 29.1667 18.7663 29.2545 18.9226 29.4108C19.0789 29.567 19.1667 29.779 19.1667 30C19.1667 30.221 19.0789 30.433 18.9226 30.5893C18.7663 30.7456 18.5544 30.8334 18.3333 30.8334Z" fill="#B4CDE1"/>
<defs>
<linearGradient id="paint0_linear_383_15877" x1="16.6667" y1="35.8334" x2="16.6667" y2="4.16669" gradientUnits="userSpaceOnUse">
<stop stop-color="#54A5FF"/>
<stop offset="0.32" stop-color="#57A8FF"/>
<stop offset="0.56" stop-color="#61B0FF"/>
<stop offset="0.78" stop-color="#71BEFE"/>
<stop offset="0.99" stop-color="#88D2FE"/>
<stop offset="1" stop-color="#8AD3FE"/>
</linearGradient>
<linearGradient id="paint1_linear_383_15877" x1="16.6667" y1="34.1667" x2="16.6667" y2="5.83334" gradientUnits="userSpaceOnUse">
<stop stop-color="#D3E6F5"/>
<stop offset="1" stop-color="#F0F7FC"/>
</linearGradient>
<linearGradient id="paint2_linear_383_15877" x1="28.3333" y1="39.1667" x2="28.3333" y2="30.8334" gradientUnits="userSpaceOnUse">
<stop stop-color="#FE9661"/>
<stop offset="1" stop-color="#FFB369"/>
</linearGradient>
<linearGradient id="paint3_linear_383_15877" x1="1.29103e-05" y1="33.3334" x2="0.833346" y2="18.3334" gradientUnits="userSpaceOnUse">
<stop stop-color="#FE9661"/>
<stop offset="1" stop-color="#FFB369"/>
</linearGradient>
<linearGradient id="paint4_linear_383_15877" x1="22.5" y1="25.8333" x2="34.1667" y2="25.8333" gradientUnits="userSpaceOnUse">
<stop stop-color="#D3E6F5"/>
<stop offset="1" stop-color="#F0F7FC"/>
</linearGradient>
<linearGradient id="paint5_linear_383_15877" x1="16.6667" y1="8.33333" x2="16.6667" y2="2.5" gradientUnits="userSpaceOnUse">
<stop stop-color="#FE9661"/>
<stop offset="1" stop-color="#FFB369"/>
</linearGradient>
<linearGradient id="paint6_linear_383_15877" x1="16.6667" y1="2.50001" x2="16.6667" y2="0.833344" gradientUnits="userSpaceOnUse">
<stop stop-color="#FE9661"/>
<stop offset="1" stop-color="#FFB369"/>
</linearGradient>
</defs>
</svg>
