<?xml version="1.0" encoding="UTF-8"?>
<svg id="Layer_2" data-name="Layer 2" xmlns="http://www.w3.org/2000/svg" viewBox="0 0 1215.85 216.17">
  <defs>
    <style>
      .cls-1 {
        fill: #26b194;
      }

      .cls-1, .cls-2 {
        stroke-width: 0px;
      }

      .cls-2 {
        fill: #dcf9f2;
      }
    </style>
  </defs>
  <g id="Layer_1-2" data-name="Layer 1">
    <g>
      <g>
        <g>
          <path class="cls-2" d="m94.47,52.02v-9.97h7.67v-19.54h10.42v19.54h4.48v-19.54h10.42v19.54h18.54v9.97h-51.52Zm36.01-11.65l1.68-29.74h-36.01V1.68h48.16l-2.41,38.7h-11.42Z"/>
          <path class="cls-1" d="m146.49,52.52h-52.52v-10.97h7.67v-19.54h11.42v19.54h3.48v-19.54h11.42v19.54h18.54v10.97Zm-51.52-1h50.52v-8.97h-18.54v-19.54h-9.42v19.54h-5.48v-19.54h-9.42v19.54h-7.67v8.97Zm47.4-10.65h-12.42l1.68-29.74h-35.98V1.18h49.19l-2.47,39.7Zm-11.36-1h10.43l2.35-37.7h-47.13v7.96h36.04l-1.68,29.74Z"/>
        </g>
        <g>
          <path class="cls-2" d="m204.79,31.8h-9.58v4.42h7.62v17.19h-12.1v-8.96h-35.78v-8.23h7.06l.9-4.42h-9.63v-8.79h51.52v8.79Zm-40.71-11.09c-5.21,0-9.41-4.48-9.41-10.08s4.2-10.14,9.41-10.14h29.85c5.15,0,9.46,4.54,9.46,10.14s-4.31,10.08-9.46,10.08h-29.85Zm3.3-11.76c-.73,0-1.29.67-1.29,1.51s.56,1.51,1.29,1.51h23.18c.73,0,1.29-.67,1.29-1.51s-.56-1.51-1.29-1.51h-23.18Zm5.88,27.27h10.7v-4.42h-9.8l-.9,4.42Z"/>
          <path class="cls-1" d="m203.33,53.92h-13.1v-8.96h-35.78v-9.23h7.15l.69-3.42h-9.52v-9.79h52.52v9.79h-9.58v3.42h7.62v18.19Zm-12.1-1h11.1v-16.19h-7.62v-5.42h9.58v-7.79h-50.52v7.79h9.74l-1.1,5.42h-6.96v7.23h35.78v8.96Zm-6.78-16.19h-11.81l1.1-5.42h10.71v5.42Zm-10.58-1h9.58v-3.42h-8.89l-.69,3.42Zm20.05-14.51h-29.85c-5.46,0-9.91-4.75-9.91-10.58s4.44-10.64,9.91-10.64h29.85c5.49,0,9.96,4.77,9.96,10.64s-4.47,10.58-9.96,10.58ZM164.08,1c-4.91,0-8.91,4.32-8.91,9.64s4,9.58,8.91,9.58h29.85c4.94,0,8.96-4.3,8.96-9.58s-4.02-9.64-8.96-9.64h-29.85Zm26.49,11.48h-23.18c-1,0-1.79-.88-1.79-2.01s.79-2.01,1.79-2.01h23.18c1,0,1.79.88,1.79,2.01s-.79,2.01-1.79,2.01Zm-23.18-3.02c-.44,0-.79.45-.79,1.01s.35,1.01.79,1.01h23.18c.44,0,.79-.44.79-1.01s-.35-1.01-.79-1.01h-23.18Z"/>
        </g>
        <g>
          <path class="cls-2" d="m212.63,39.08c5.21-2.24,11.31-7.84,11.48-24.3v-1.96h-10.92V2.52h33.43v10.3h-10.92v1.96c.17,16.46,6.27,22.06,11.48,24.3v12.1c-6.78-2.07-13.1-6.55-17.3-14.45-4.09,7.84-10.47,12.38-17.25,14.45v-12.1Zm37.74,13.78V.84h12.6v52.02h-12.6Z"/>
          <path class="cls-1" d="m263.47,53.36h-13.6V.34h13.6v53.02Zm-12.6-1h11.6V1.34h-11.6v51.02Zm-3.19-.5l-.65-.2c-7.36-2.25-13.27-7.04-17.15-13.88-4.79,8.59-11.9,12.29-17.11,13.88l-.65.2v-13.1l.3-.13c7.29-3.13,11.05-11.16,11.18-23.85v-1.46h-10.92V2.02h34.43v11.3h-10.92v1.46c.13,12.69,3.89,20.71,11.18,23.84l.3.13v13.1Zm-17.81-16.2l.45.84c3.63,6.83,9.28,11.66,16.36,14v-11.09c-7.49-3.39-11.35-11.67-11.48-24.62v-2.46h10.92V3.02h-32.43v9.3h10.92v2.46c-.13,12.96-3.99,21.24-11.48,24.63v11.09c5.12-1.69,11.87-5.49,16.3-14l.44-.84Z"/>
        </g>
        <g>
          <path class="cls-2" d="m285.88,44.68h36.74v8.18h-48.27v-16.63h6.44l1.29-7.17h-11.2v-8.34h37.24v8.34h-14.73l-1.74,9.8h-5.77v5.82Zm-5.04-25.7c-5.21,0-8.85-3.98-8.85-8.74s3.64-8.85,8.85-8.85h15.51c5.15,0,8.9,3.98,8.9,8.85s-3.75,8.74-8.9,8.74h-15.51Zm3.53-10.36c-.73,0-1.4.78-1.4,1.74,0,.9.67,1.68,1.4,1.68h8.62c.73,0,1.46-.78,1.46-1.68,0-.95-.73-1.74-1.46-1.74h-8.62Zm11.42,29.96v-7.5h13.66V.84h12.32v40.66h-12.32v-2.91h-13.66Z"/>
          <path class="cls-1" d="m323.11,53.36h-49.27v-17.63h6.52l1.11-6.17h-11.1v-9.34h38.24v9.34h-14.81l-1.74,9.8h-5.69v4.82h36.74v9.18Zm-48.27-1h47.27v-7.18h-36.74v-6.82h5.85l1.74-9.8h14.65v-7.34h-36.24v7.34h11.3l-1.47,8.17h-6.36v15.63Zm47.43-10.37h-13.32v-2.91h-13.66v-8.5h13.66V.34h13.32v41.66Zm-12.32-1h11.32V1.34h-11.32v30.24h-13.66v6.5h13.66v2.91Zm-13.6-21.51h-15.51c-5.33,0-9.35-3.97-9.35-9.24s4.02-9.35,9.35-9.35h15.51c5.27,0,9.4,4.11,9.4,9.35s-4.13,9.24-9.4,9.24Zm-15.51-17.58c-4.76,0-8.35,3.59-8.35,8.35s3.59,8.24,8.35,8.24h15.51c4.71,0,8.4-3.62,8.4-8.24s-3.61-8.35-8.4-8.35h-15.51Zm12.15,10.64h-8.62c-1.01,0-1.9-1.02-1.9-2.18s.87-2.24,1.9-2.24h8.62c1.04,0,1.96,1.04,1.96,2.24s-.93,2.18-1.96,2.18Zm-8.62-3.42c-.42,0-.9.53-.9,1.24,0,.65.49,1.18.9,1.18h8.62c.43,0,.96-.54.96-1.18,0-.68-.52-1.24-.96-1.24h-8.62Z"/>
        </g>
      </g>
      <path class="cls-1" d="m1205.72,195.91c-4.54,0-8.39,3-9.68,7.13H27c-11.58,0-21-9.42-21-21V45.06c0-11.58,9.42-21,21-21h33.04c1.28,4.13,5.13,7.13,9.68,7.13,5.59,0,10.13-4.54,10.13-10.13s-4.54-10.13-10.13-10.13c-4.54,0-8.39,3-9.68,7.13H27C12.11,18.06,0,30.18,0,45.06v136.97c0,14.89,12.11,27,27,27h1169.05c1.28,4.13,5.13,7.13,9.68,7.13,5.59,0,10.13-4.54,10.13-10.13s-4.54-10.13-10.13-10.13ZM69.71,16.93c2.28,0,4.13,1.85,4.13,4.13s-1.85,4.13-4.13,4.13-4.13-1.85-4.13-4.13,1.85-4.13,4.13-4.13Zm1136.01,193.23c-2.28,0-4.13-1.85-4.13-4.13s1.85-4.13,4.13-4.13,4.13,1.85,4.13,4.13-1.85,4.13-4.13,4.13Z"/>
    </g>
  </g>
</svg>