<?xml version="1.0" encoding="UTF-8"?>
<svg id="Layer_2" data-name="Layer 2" xmlns="http://www.w3.org/2000/svg" viewBox="0 0 1215.85 237.23">
  <defs>
    <style>
      .cls-1 {
        fill: #4762f0;
      }

      .cls-1, .cls-2 {
        stroke-width: 0px;
      }

      .cls-2 {
        fill: #dbe1fc;
      }
    </style>
  </defs>
  <g id="Layer_1-2" data-name="Layer 1">
    <g>
      <g>
        <path class="cls-2" d="m96.56,28.15c11.35-2.51,16.12-8.75,16.38-19.41V.93h18.89v7.02c0,11.09,4.68,17.51,16.38,20.19v13.95c-11.53-1.39-20.28-5.89-25.83-13.26-5.72,7.45-14.3,11.87-25.83,13.26v-13.95Zm4.51,52.87v-22.79h54.43v-2.95h-54.43v-10.14h73.5v22.01h-54.34v3.38h55.64v10.49h-74.8Zm38.48-57.38v-13.69h15.95V.5h19.07v42.47h-19.07v-19.33h-15.95Z"/>
        <path class="cls-1" d="m176.37,81.52h-75.8v-23.79h54.43v-1.95h-54.43v-11.14h74.5v23.01h-54.34v2.38h55.64v11.49Zm-74.8-1h73.8v-9.49h-55.64v-4.38h54.34v-21.01h-72.5v9.14h54.43v3.95h-54.43v21.79Zm73.5-37.05h-20.07v-19.33h-15.45c2.32,1.55,5.23,2.7,8.79,3.52l.39.09v14.92l-.56-.07c-11.43-1.38-20.1-5.73-25.77-12.94-5.78,7.23-14.45,11.58-25.76,12.94l-.56.07v-14.92l.39-.09c10.8-2.39,15.73-8.23,15.99-18.94V.43h19.89v7.52c0,7.41,2.08,12.5,6.71,15.84v-14.35h15.95V0h20.07v43.47Zm-19.07-1h18.07V1h-18.07v9.45h-15.95v12.69h15.95v19.33Zm-33.6-14.45l.4.53c5.4,7.18,13.79,11.55,24.93,12.99v-12.99c-11.32-2.72-16.38-9.08-16.38-20.59V1.43h-17.89v7.3c-.27,11.13-5.33,17.25-16.38,19.81v12.99c11.03-1.44,19.41-5.81,24.93-13l.4-.52Z"/>
      </g>
      <g>
        <path class="cls-2" d="m188.43,46.7v-28.25h30.68v-4.77h-30.68V1.8h48.97v27.56h-30.68v4.94l37.18-1.56v11.87l-55.47,2.08Zm3.64,34.32v-31.55h19.07v5.11h35.19v-5.11h19.15v31.55h-19.15v-2.25l-54.25,2.25Zm19.07-11.53l35.19-1.21v-3.55h-35.19v4.77Zm34.84-22.27V.5h19.5v46.72h-19.5Z"/>
        <path class="cls-1" d="m191.57,81.54v-32.57h20.07v5.11h34.19v-5.11h20.15v32.55h-20.15v-2.23l-54.25,2.25Zm55.25-1.02h18.15v-30.55h-18.15v5.11h-36.19v-5.11h-18.07v30.53l54.25-2.25v2.27Zm-36.19-10.51v-5.78h36.19v4.54l-36.19,1.25Zm1-4.78v3.75l34.19-1.18v-2.57h-34.19Zm54.34-17.51h-20.5V0h20.5v47.72Zm-19.5-1h18.5V1h-18.5v45.72Zm-58.55.5v-29.27h30.68v-3.77h-30.68V1.3h49.97v28.56h-30.68v3.92l37.18-1.56v12.88l-56.47,2.12Zm1-28.27v27.24l54.47-2.04v-10.87l-37.18,1.56v-5.96h30.68V2.3h-47.97v10.87h30.68v5.77h-30.68Z"/>
      </g>
      <g>
        <path class="cls-2" d="m326.67,36.38h30.77v13.43h-79.74v-13.43h30.68v-6.67h-27.65V.5h73.67v29.21h-27.73v6.67Zm-46.37,29.9v-11.87h74.1v27.47h-18.72v-15.6h-55.38Zm18.72-54.52v6.67h37.09v-6.67h-37.09Z"/>
        <path class="cls-1" d="m354.9,82.38h-19.72v-15.6h-55.38v-12.87h75.1v28.47Zm-18.72-1h17.72v-26.47h-73.1v10.87h55.38v15.6Zm21.75-31.07h-80.74v-14.43h30.68v-5.67h-27.65V0h74.67v30.21h-27.73v5.67h30.77v14.43Zm-79.74-1h78.74v-12.43h-30.77v-7.67h27.73V1h-72.67v28.21h27.65v7.67h-30.68v12.43Zm58.42-30.37h-38.09v-7.67h38.09v7.67Zm-37.09-1h36.09v-5.67h-36.09v5.67Z"/>
      </g>
      <g>
        <path class="cls-2" d="m369.57,34.13c10.14-.69,17.25-5.46,17.25-16.38v-1.3h-16.38V1.8h49.92v14.65h-16.38v1.3c0,10.92,7.02,15.69,17.25,16.38v14.99c-11.35-.26-20.19-3.99-25.83-11.18-5.81,7.19-14.65,10.92-25.83,11.18v-14.99Zm3.73,31.46v-13.87h74.28v30.16h-19.93v-16.29h-54.34Zm41.08-34.06v-13h14.13V.5h19.07v49.06h-19.07v-18.03h-14.13Z"/>
        <path class="cls-1" d="m448.07,82.38h-20.93v-16.29h-54.34v-14.87h75.28v31.16Zm-19.93-1h18.93v-29.16h-73.28v12.87h54.34v16.29Zm19.93-31.33h-20.07v-18.03h-14.13v-14h14.13V0h20.07v50.06Zm-19.07-1h18.07V1h-18.07v18.03h-14.13v12h14.13v18.03Zm-59.94.58v-15.97l.47-.03c7.66-.52,16.78-3.7,16.78-15.88v-.8h-16.38V1.3h50.92v15.65h-16.38v.8c0,9.78,5.65,15.13,16.78,15.88l.47.03v15.97h-.51c-11.43-.27-20.11-3.94-25.82-10.9-5.87,6.96-14.55,10.63-25.81,10.89h-.51Zm26.33-12.5l.39.5c5.42,6.93,13.81,10.62,24.93,10.97v-14.02c-11.29-.91-17.25-6.73-17.25-16.84v-1.8h16.38V2.3h-48.92v13.65h16.38v1.8c0,10.11-5.96,15.93-17.25,16.84v14.02c10.96-.36,19.35-4.05,24.94-10.98l.39-.49Z"/>
      </g>
    </g>
    <path class="cls-1" d="m1205.72,216.97c-4.54,0-8.39,3-9.68,7.13H27c-11.58,0-21-9.42-21-21V68.13c0-11.58,9.42-21,21-21h33.04c1.28,4.13,5.14,7.13,9.68,7.13,5.59,0,10.13-4.54,10.13-10.13s-4.54-10.13-10.13-10.13c-4.54,0-8.4,3-9.68,7.13H27c-14.89,0-27,12.11-27,27v134.97c0,14.89,12.11,27,27,27h1169.05c1.28,4.13,5.13,7.13,9.68,7.13,5.59,0,10.13-4.54,10.13-10.13s-4.54-10.13-10.13-10.13ZM69.71,40c2.28,0,4.13,1.85,4.13,4.13s-1.85,4.13-4.13,4.13-4.13-1.85-4.13-4.13,1.85-4.13,4.13-4.13Zm1136.01,191.23c-2.28,0-4.13-1.85-4.13-4.13s1.85-4.13,4.13-4.13,4.13,1.85,4.13,4.13-1.85,4.13-4.13,4.13Z"/>
  </g>
</svg>