<?xml version="1.0" encoding="UTF-8"?>
<svg id="Layer_2" data-name="Layer 2" xmlns="http://www.w3.org/2000/svg" viewBox="0 0 1215.89 238.96">
  <defs>
    <style>
      .cls-1 {
        fill: #e6e5f9;
        stroke: #6c5dd3;
        stroke-miterlimit: 10;
      }

      .cls-2 {
        fill: #6c5dd3;
        stroke-width: 0px;
      }
    </style>
  </defs>
  <g id="Layer_1-2" data-name="Layer 1">
    <g>
      <path class="cls-1" d="m759.6,83.62v-22.36h-30.07v-15.34h79.74v15.34h-30.07v22.36h-19.59Zm-27.04-58.68c18.2,0,27.13-11.35,27.13-19.67v-2.17h19.5v2.17c0,8.32,8.93,19.67,27.13,19.67v15.25c-18.89,0-30.42-6.93-36.92-14.99-6.67,8.06-17.77,14.99-36.83,14.99v-15.25Z"/>
      <path class="cls-1" d="m821.4,18.44V6.74h12.83V.5h15.95v6.24h12.83v11.7h-41.6Zm12.91,2.43h15.95c6.67,0,12.05,6.33,12.05,13.87s-5.37,13.78-12.05,13.78h-15.95c-6.67,0-12.05-6.33-12.05-13.78s5.37-13.87,12.05-13.87Zm6.24,32.59h44.72c9.53,0,15.86,6.24,15.86,14.82s-6.33,14.91-15.86,14.91h-44.72c-9.36,0-15.69-6.33-15.69-14.91s6.33-14.82,15.69-14.82Zm6.24-16.21c1.39,0,2.25-1.39,2.25-2.51,0-1.39-.87-2.6-2.25-2.6h-9.1c-1.39,0-2.25,1.21-2.25,2.6,0,1.13.87,2.51,2.25,2.51h9.1Zm31.72,33.63c2.43,0,3.55-.87,3.55-2.6s-1.13-2.6-3.55-2.6h-31.2c-2.08,0-3.29.87-3.29,2.6s1.21,2.6,3.29,2.6h31.2Zm-12.74-19.15V2.23h15.17v16.99h3.81V2.23h15.51v49.49h-15.51v-17.77h-3.81v17.77h-15.17Z"/>
      <path class="cls-1" d="m971.25,2.23h19.15v43.33h-19.15v-14.65h-12.48c-2.51,9.1-11.61,13.69-22.36,13.69-12.74,0-23.14-6.5-23.14-19.24v-3.73c0-12.74,10.4-19.41,23.14-19.41,10.75,0,19.85,4.77,22.36,13.87h12.48V2.23Zm0,49.58v-4.51h19.15v35.45h-19.15v-2.34l-54.34,2.34v-35.45h19.07v4.51h35.27Zm-28.69-31.55c0-3.38-2.6-5.55-5.98-5.55s-5.89,2.17-5.89,5.55v6.41c0,3.38,2.51,5.46,5.89,5.46s5.98-2.08,5.98-5.46v-6.41Zm28.69,47.5v-3.64h-35.27v4.94l35.27-1.3Z"/>
      <path class="cls-1" d="m1032.61,83.62v-20.63h-30.08v-15.6h79.74v15.6h-30.07v20.63h-19.59Zm-27.04-42.64V3.53h73.67v37.44h-73.67Zm18.63-14.56h36.4v-8.15h-36.4v8.15Z"/>
    </g>
    <path class="cls-2" d="m1188.89,42.86h-59.07c-1.28-4.13-5.14-7.13-9.68-7.13-5.59,0-10.13,4.54-10.13,10.13s4.54,10.13,10.13,10.13c4.54,0,8.4-3,9.68-7.13h59.07c11.58,0,21,9.42,21,21v134.97c0,11.58-9.42,21-21,21H19.81c-1.28-4.13-5.14-7.13-9.68-7.13-5.59,0-10.13,4.54-10.13,10.13s4.54,10.13,10.13,10.13c4.54,0,8.4-3,9.68-7.13h1169.08c14.89,0,27-12.11,27-27V69.86c0-14.89-12.11-27-27-27Zm-68.75,7.13c-2.28,0-4.13-1.85-4.13-4.13s1.85-4.13,4.13-4.13,4.13,1.85,4.13,4.13-1.85,4.13-4.13,4.13ZM10.13,232.96c-2.28,0-4.13-1.85-4.13-4.13s1.85-4.13,4.13-4.13,4.13,1.85,4.13,4.13-1.85,4.13-4.13,4.13Z"/>
  </g>
</svg>