<?xml version="1.0" encoding="UTF-8"?>
<svg id="Layer_2" data-name="Layer 2" xmlns="http://www.w3.org/2000/svg" viewBox="0 0 1215.89 216.17">
  <defs>
    <style>
      .cls-1 {
        fill: #e0f9c7;
      }

      .cls-1, .cls-2 {
        stroke-width: 0px;
      }

      .cls-2 {
        fill: #65b029;
      }
    </style>
  </defs>
  <g id="Layer_1-2" data-name="Layer 1">
    <g>
      <g>
        <g>
          <path class="cls-1" d="m871.89,26.04h19.88v8.46h-51.52v-8.46h19.82v-4.59h-9.02c-5.21,0-9.41-4.65-9.41-10.42s4.2-10.53,9.41-10.53h29.96c5.15,0,9.46,4.76,9.46,10.53s-4.31,10.42-9.46,10.42h-9.13v4.59Zm-17.53,10.64v7.95h36.29v8.23h-48.44v-16.18h12.15Zm.06-24.3h23.18c.84,0,1.34-.73,1.34-1.57s-.5-1.57-1.34-1.57h-23.18c-.84,0-1.34.73-1.34,1.57s.5,1.57,1.34,1.57Z"/>
          <path class="cls-2" d="m891.15,53.36h-49.44v-17.18h13.15v7.95h36.29v9.23Zm-48.44-1h47.44v-7.23h-36.29v-7.95h-11.15v15.18Zm49.56-17.37h-52.52v-9.46h19.82v-3.59h-8.52c-5.46,0-9.91-4.9-9.91-10.92s4.44-11.03,9.91-11.03h29.96c5.4,0,9.96,5.05,9.96,11.03s-4.47,10.92-9.96,10.92h-8.63v3.59h19.88v9.46Zm-51.52-1h50.52v-7.46h-19.88v-5.59h9.63c4.94,0,8.96-4.45,8.96-9.92s-4.1-10.03-8.96-10.03h-29.96c-4.91,0-8.91,4.5-8.91,10.03s4,9.92,8.91,9.92h9.52v5.59h-19.82v7.46Zm36.85-21.12h-23.18c-1.07,0-1.84-.87-1.84-2.07s.78-2.07,1.84-2.07h23.18c1.07,0,1.84.87,1.84,2.07s-.78,2.07-1.84,2.07Zm-23.18-3.14c-.58,0-.84.55-.84,1.07s.26,1.07.84,1.07h23.18c.58,0,.84-.55.84-1.07s-.26-1.07-.84-1.07h-23.18Z"/>
        </g>
        <g>
          <path class="cls-1" d="m900.17,51.18v-30.18h17.81v-8.68h-17.81V2.52h29.96v28h-17.64v9.58l22.06-1.85v10.08l-34.38,2.86Zm35.84,1.68V.84h12.32v18.87h5.82v10.7h-5.82v22.46h-12.32Z"/>
          <path class="cls-2" d="m948.83,53.36h-13.32V.34h13.32v18.87h5.82v11.7h-5.82v22.46Zm-12.32-1h11.32v-22.46h5.82v-9.7h-5.82V1.34h-11.32v51.02Zm-36.84-.64v-31.23h17.81v-7.68h-17.81V2.02h30.96v29h-17.64v8.53l22.06-1.85v11.08l-35.38,2.94Zm1-30.23v29.14l33.38-2.77v-9.08l-22.06,1.85v-10.62h17.64V3.02h-28.96v8.8h17.81v9.68h-17.81Z"/>
        </g>
        <g>
          <path class="cls-1" d="m958.97,19.54v-5.94c0-8.23,7.11-12.77,15.85-12.77s15.79,4.54,15.79,12.77v5.94c0,8.06-7.11,12.6-15.79,12.6s-15.85-4.54-15.85-12.6Zm2.35,33.32v-17.81h12.49v8.62h35.78v9.18h-48.27Zm17.25-32.65v-7.28c0-1.96-1.68-3.53-3.75-3.53-2.18,0-3.75,1.57-3.75,3.53v7.28c0,1.96,1.57,3.36,3.75,3.36,2.07,0,3.75-1.4,3.75-3.36Zm17.58,18.48V.84h12.6v37.86h-12.6Z"/>
          <path class="cls-2" d="m1010.09,53.36h-49.27v-18.81h13.49v8.62h35.78v10.18Zm-48.27-1h47.27v-8.18h-35.78v-8.62h-11.49v16.81Zm47.43-13.17h-13.6V.34h13.6v38.86Zm-12.6-1h11.6V1.34h-11.6v36.86Zm-21.84-5.55c-9.78,0-16.35-5.26-16.35-13.1v-5.94c0-7.94,6.57-13.27,16.35-13.27s16.29,5.33,16.29,13.27v5.94c0,7.84-6.55,13.1-16.29,13.1Zm0-31.3c-7.64,0-15.35,3.79-15.35,12.27v5.94c0,8.36,7.71,12.1,15.35,12.1s15.29-3.74,15.29-12.1v-5.94c0-8.47-7.68-12.27-15.29-12.27Zm0,22.74c-2.46,0-4.25-1.62-4.25-3.86v-7.28c0-2.3,1.83-4.03,4.25-4.03s4.25,1.81,4.25,4.03v7.28c0,2.2-1.83,3.86-4.25,3.86Zm0-14.17c-1.85,0-3.25,1.3-3.25,3.03v7.28c0,1.68,1.34,2.86,3.25,2.86s3.25-1.23,3.25-2.86v-7.28c0-1.67-1.46-3.03-3.25-3.03Z"/>
        </g>
        <g>
          <path class="cls-1" d="m1048.57,1.68v50.34h-12.32V1.68h12.32Z"/>
          <path class="cls-2" d="m1049.07,52.52h-13.32V1.18h13.32v51.34Zm-12.32-1h11.32V2.18h-11.32v49.34Z"/>
        </g>
        <g>
          <path class="cls-1" d="m1086.98,52.02h-11.48v-16.3c0-2.41-2.35-2.8-5.04-2.8h-2.86v19.1h-11.76V1.68h19.38c7.34,0,11.03,1.34,11.2,8.96v9.52c0,3.64-3.3,7.22-7.56,7.39,4.37.28,8.12,4.03,8.12,7.95v16.52Zm-12.04-36.34c0-2.41-.67-3.92-3.36-3.92h-3.98v11.09h3.98c2.41-.06,3.36-1.18,3.36-3.92v-3.25Z"/>
          <path class="cls-2" d="m1087.48,52.52h-12.48v-16.8c0-1.66-1.27-2.3-4.54-2.3h-2.36v19.1h-12.76V1.18h19.88c7.45,0,11.52,1.51,11.7,9.45v9.53c0,3.3-2.37,6.28-5.56,7.41,3.46,1.25,6.12,4.5,6.12,7.93v17.02Zm-11.48-1h10.48v-16.02c0-3.71-3.58-7.19-7.65-7.45v-1c3.78-.15,7.09-3.37,7.09-6.89v-9.52c-.16-7.24-3.43-8.46-10.7-8.46h-18.88v49.34h10.76v-19.1h3.36c1.66,0,5.54,0,5.54,3.3v15.8Zm-8.4-28.18h-.5v-12.09h4.48c3.42,0,3.86,2.36,3.86,4.42v3.25c0,3.04-1.15,4.36-3.85,4.42h-3.99Zm.5-1h3.48c2.11-.05,2.86-.95,2.86-3.42v-3.25c0-2.53-.75-3.42-2.86-3.42h-3.48v10.09Z"/>
        </g>
      </g>
      <path class="cls-2" d="m1188.89,18.06h-59.07c-1.28-4.13-5.13-7.13-9.68-7.13-5.59,0-10.13,4.54-10.13,10.13s4.54,10.13,10.13,10.13c4.54,0,8.39-3,9.68-7.13h59.07c11.58,0,21,9.42,21,21v136.97c0,11.58-9.42,21-21,21H19.81c-1.28-4.13-5.13-7.13-9.68-7.13-5.59,0-10.13,4.54-10.13,10.13s4.54,10.13,10.13,10.13c4.54,0,8.39-3,9.68-7.13h1169.08c14.89,0,27-12.11,27-27V45.06c0-14.89-12.11-27-27-27Zm-68.75,7.13c-2.28,0-4.13-1.85-4.13-4.13s1.85-4.13,4.13-4.13,4.13,1.85,4.13,4.13-1.85,4.13-4.13,4.13ZM10.13,210.17c-2.28,0-4.13-1.85-4.13-4.13s1.85-4.13,4.13-4.13,4.13,1.85,4.13,4.13-1.85,4.13-4.13,4.13Z"/>
    </g>
  </g>
</svg>