<?xml version="1.0" encoding="UTF-8"?>
<svg id="Layer_2" data-name="Layer 2" xmlns="http://www.w3.org/2000/svg" viewBox="0 0 1215.85 215.83">
  <defs>
    <style>
      .cls-1 {
        fill: #ff931f;
      }

      .cls-1, .cls-2 {
        stroke-width: 0px;
      }

      .cls-2 {
        fill: #ffe8d2;
      }
    </style>
  </defs>
  <g id="Layer_1-2" data-name="Layer 1">
    <g>
      <g>
        <g>
          <path class="cls-2" d="m113.9,53.08v-13.89h-19.43v-10.08h51.52v10.08h-19.43v13.89h-12.66Zm-5.94-27.83c-6.66,0-12.1-5.43-12.1-12.1s5.43-12.1,12.1-12.1h24.53c6.66,0,12.1,5.43,12.1,12.1s-5.43,12.1-12.1,12.1h-24.53Zm22.01-9.41c1.51,0,2.63-1.12,2.63-2.63s-1.12-2.63-2.63-2.63h-19.49c-1.51,0-2.58,1.23-2.58,2.63,0,1.51,1.06,2.63,2.58,2.63h19.49Z"/>
          <path class="cls-1" d="m127.06,53.58h-13.66v-13.89h-19.43v-11.08h52.52v11.08h-19.43v13.89Zm-12.66-1h11.66v-13.89h19.43v-9.08h-50.52v9.08h19.43v13.89Zm18.09-26.83h-24.53c-6.95,0-12.6-5.65-12.6-12.6S101.02.56,107.97.56h24.53c6.95,0,12.6,5.65,12.6,12.6s-5.65,12.6-12.6,12.6ZM107.97,1.56c-6.39,0-11.6,5.2-11.6,11.6s5.2,11.6,11.6,11.6h24.53c6.39,0,11.6-5.2,11.6-11.6s-5.2-11.6-11.6-11.6h-24.53Zm22.01,14.78h-19.49c-1.78,0-3.08-1.32-3.08-3.13s1.35-3.13,3.08-3.13h19.49c1.79,0,3.13,1.35,3.13,3.13s-1.35,3.13-3.13,3.13Zm-19.49-5.26c-1.3,0-2.08,1.08-2.08,2.13,0,1.26.85,2.13,2.08,2.13h19.49c1.24,0,2.13-.9,2.13-2.13s-.9-2.13-2.13-2.13h-19.49Z"/>
        </g>
        <g>
          <path class="cls-2" d="m172.7,53.08v-14.45h-19.43v-9.91h51.52v9.91h-19.43v14.45h-12.66Zm-17.47-37.91c11.76,0,17.53-7.34,17.53-12.71v-1.4h12.6v1.4c0,5.38,5.77,12.71,17.53,12.71v9.86c-12.21,0-19.66-4.48-23.86-9.69-4.31,5.21-11.48,9.69-23.8,9.69v-9.86Z"/>
          <path class="cls-1" d="m185.86,53.58h-13.66v-14.45h-19.43v-10.91h52.52v10.91h-19.43v14.45Zm-12.66-1h11.66v-14.45h19.43v-8.91h-50.52v8.91h19.43v14.45Zm30.18-27.06h-.5c-13,0-20.12-5.01-23.86-9.41-5.42,6.24-13.42,9.41-23.8,9.41h-.5v-10.86h.5c11.62,0,17.03-7.29,17.03-12.21V.56h13.6v1.9c0,4.92,5.41,12.21,17.03,12.21h.5v10.86Zm-47.66-9.86v8.86c10.07-.1,17.78-3.3,22.91-9.5l.39-.47.38.48c3.45,4.28,10.23,9.37,22.97,9.5v-8.86c-6.58-.11-10.69-2.47-13-4.46-2.83-2.44-4.53-5.71-4.53-8.75v-.9h-11.6v.9c0,3.04-1.69,6.31-4.53,8.75-2.31,1.99-6.42,4.34-13,4.46Z"/>
        </g>
        <g>
          <path class="cls-2" d="m212.63,37.63c5.99-4.03,10.64-9.58,10.64-25.98V1.62h12.15v10.02c0,16.41,4.65,21.95,10.64,25.98v13.22c-7.11-2.97-12.88-8.23-16.74-15.57-3.81,7.34-9.69,12.6-16.69,15.57v-13.22Zm36.4,14.9V.5h12.32v18.87h5.82v10.7h-5.82v22.46h-12.32Z"/>
          <path class="cls-1" d="m261.85,53.02h-13.32V0h13.32v18.87h5.82v11.7h-5.82v22.46Zm-12.32-1h11.32v-22.46h5.82v-9.7h-5.82V1h-11.32v51.02Zm-37.4-.42v-14.24l.22-.15c6.43-4.33,10.42-10.12,10.42-25.57V1.12h13.15v10.52c0,15.45,3.99,21.24,10.42,25.57l.22.15v14.23l-.69-.29c-7-2.92-12.7-8.09-16.55-14.98-3.76,6.82-9.45,11.99-16.5,14.97l-.7.29Zm17.18-17.4l.45.85c3.61,6.86,9.07,12.04,15.8,15.04v-12.19c-8.85-6.08-10.64-14.56-10.64-26.25V2.12h-11.15v9.52c0,15.72-4.06,21.75-10.64,26.25v12.19c6.79-3.06,12.22-8.25,15.74-15.03l.44-.85Z"/>
        </g>
        <g>
          <path class="cls-2" d="m271.99,50.84v-30.07h10.64l1.06-8.79h-11.7V2.18h23.35l-3.19,27.83h-9.52v9.74l16.35-1.85v10.08l-26.99,2.86Zm23.02-15.96v-9.52h5.38v-5.21h-5.38v-9.52h5.38V.5h9.8v52.02h-9.8v-17.64h-5.38Zm17.36,17.64V.5h10.02v52.02h-10.02Z"/>
          <path class="cls-1" d="m322.89,53.02h-11.02V0h11.02v53.02Zm-10.02-1h9.02V1h-9.02v51.02Zm-2.18,1h-10.8v-17.64h-5.38v-10.52h5.38v-4.21h-5.38v-6.8l-1.91,16.65h-9.47v8.68l16.35-1.85v11.09l-27.99,2.96v-31.13h10.7l.94-7.79h-11.64V1.68h24.41l-.97,8.46h4.95V0h10.8v53.02Zm-9.8-1h8.8V1h-8.8v10.14h-5.38v8.52h5.38v6.21h-5.38v8.52h5.38v17.64Zm-28.39-30.75v29.02l25.99-2.75v-9.07l-16.35,1.85v-10.8h9.57l3.08-26.83h-22.29v8.8h11.77l-1.18,9.79h-10.58Z"/>
        </g>
        <g>
          <path class="cls-2" d="m349.27,51.68v-10.08h19.6v-11.7h12.32v11.7h19.6v10.08h-51.52Zm1.4-31.08c11.76-.9,18.09-9.02,18.09-15.29V.78h12.6v4.54c0,6.27,6.61,14.39,18.09,15.29v9.74c-11.42-.28-20.22-5.43-24.42-11.7-4.2,6.27-12.99,11.42-24.36,11.7v-9.74Z"/>
          <path class="cls-1" d="m401.29,52.18h-52.52v-11.08h19.6v-11.7h13.32v11.7h19.6v11.08Zm-51.52-1h50.52v-9.08h-19.6v-11.7h-11.32v11.7h-19.6v9.08Zm.4-20.32v-10.72l.46-.04c8.48-.65,17.63-6.48,17.63-14.79V.28h13.6v5.04c0,8.75,10.24,14.21,17.63,14.79l.46.04v10.72h-.51c-10.26-.26-19.53-4.58-24.4-11.34-4.88,6.76-14.12,11.08-24.35,11.33h-.51Zm24.86-13.12l.42.62c3.53,5.28,11.55,11.02,23.5,11.47v-8.77c-11.19-1.07-18.09-8.94-18.09-15.75V1.28h-11.6v4.04c0,3.4-1.79,7.15-4.79,10.02-2.38,2.29-6.61,5.11-13.3,5.73v8.77c11.91-.45,19.91-6.19,23.44-11.47l.42-.62Z"/>
        </g>
        <g>
          <path class="cls-2" d="m408.63,40.93c12.99-4.03,14.84-18.14,14.84-28.67h-14.56V2.18h25.26v7.28c0,28.39-10.81,38.92-25.54,41.94v-10.47Zm28.39,11.59V.5h9.8v19.1h2.74V.5h10.02v52.02h-10.02v-22.79h-2.74v22.79h-9.8Z"/>
          <path class="cls-1" d="m460.09,53.02h-11.02v-22.79h-1.74v22.79h-10.8V0h10.8v19.1h1.74V0h11.02v53.02Zm-10.02-1h9.02V1h-9.02v19.1h-3.74V1h-8.8v51.02h8.8v-22.79h3.74v22.79Zm-41.94,0v-11.45l.35-.11c9.65-2.99,14.39-12.06,14.49-27.69h-14.56V1.68h26.26v7.78c0,25.32-8.24,38.8-25.94,42.43l-.6.12Zm1-10.72v9.49c16.74-3.7,24.54-16.85,24.54-41.33V2.68h-24.26v9.08h14.56v.5c0,16.25-4.86,25.76-14.84,29.04Z"/>
        </g>
      </g>
      <path class="cls-1" d="m1205.72,195.57c-4.54,0-8.39,3-9.68,7.13H27c-11.58,0-21-9.42-21-21V44.73c0-11.58,9.42-21,21-21h33.04c1.28,4.13,5.13,7.13,9.68,7.13,5.59,0,10.13-4.54,10.13-10.13s-4.54-10.13-10.13-10.13c-4.54,0-8.39,3-9.68,7.13H27C12.11,17.73,0,29.84,0,44.73v136.97c0,14.89,12.11,27,27,27h1169.05c1.28,4.13,5.13,7.13,9.68,7.13,5.59,0,10.13-4.54,10.13-10.13s-4.54-10.13-10.13-10.13ZM69.71,16.6c2.28,0,4.13,1.85,4.13,4.13s-1.85,4.13-4.13,4.13-4.13-1.85-4.13-4.13,1.85-4.13,4.13-4.13Zm1136.01,193.23c-2.28,0-4.13-1.85-4.13-4.13s1.85-4.13,4.13-4.13,4.13,1.85,4.13,4.13-1.85,4.13-4.13,4.13Z"/>
    </g>
  </g>
</svg>