<?xml version="1.0" encoding="UTF-8"?>
<svg id="Layer_2" data-name="Layer 2" xmlns="http://www.w3.org/2000/svg" viewBox="0 0 1215.89 215.83">
  <defs>
    <style>
      .cls-1 {
        fill: #6c5dd3;
      }

      .cls-1, .cls-2 {
        stroke-width: 0px;
      }

      .cls-2 {
        fill: #e6e5f9;
      }
    </style>
  </defs>
  <g id="Layer_1-2" data-name="Layer 1">
    <g>
      <g>
        <g>
          <path class="cls-2" d="m677.51,44.35h36.74v8.18h-48.27v-16.63h6.44l1.29-7.17h-11.2v-8.34h37.24v8.34h-14.73l-1.74,9.8h-5.77v5.82Zm-5.04-25.7c-5.21,0-8.85-3.98-8.85-8.74s3.64-8.85,8.85-8.85h15.51c5.15,0,8.9,3.98,8.9,8.85s-3.75,8.74-8.9,8.74h-15.51Zm3.53-10.36c-.73,0-1.4.78-1.4,1.74,0,.9.67,1.68,1.4,1.68h8.62c.73,0,1.46-.78,1.46-1.68,0-.95-.73-1.74-1.46-1.74h-8.62Zm11.42,29.96v-7.5h13.66V.5h12.32v40.66h-12.32v-2.91h-13.66Z"/>
          <path class="cls-1" d="m714.75,53.02h-49.27v-17.63h6.52l1.11-6.17h-11.1v-9.34h38.24v9.34h-14.81l-1.74,9.8h-5.69v4.82h36.74v9.18Zm-48.27-1h47.27v-7.18h-36.74v-6.82h5.85l1.74-9.8h14.65v-7.34h-36.24v7.34h11.3l-1.47,8.17h-6.36v15.63Zm47.43-10.37h-13.32v-2.91h-13.66v-8.5h13.66V0h13.32v41.66Zm-12.32-1h11.32V1h-11.32v30.24h-13.66v6.5h13.66v2.91Zm-13.6-21.51h-15.51c-5.33,0-9.35-3.97-9.35-9.24s4.02-9.35,9.35-9.35h15.51c5.27,0,9.4,4.11,9.4,9.35s-4.13,9.24-9.4,9.24Zm-15.51-17.58c-4.76,0-8.35,3.59-8.35,8.35s3.59,8.24,8.35,8.24h15.51c4.71,0,8.4-3.62,8.4-8.24s-3.61-8.35-8.4-8.35h-15.51Zm12.15,10.64h-8.62c-1.01,0-1.9-1.02-1.9-2.18s.87-2.24,1.9-2.24h8.62c1.04,0,1.96,1.04,1.96,2.24s-.93,2.18-1.96,2.18Zm-8.62-3.42c-.42,0-.9.53-.9,1.24,0,.65.49,1.18.9,1.18h8.62c.43,0,.96-.54.96-1.18,0-.68-.52-1.24-.96-1.24h-8.62Z"/>
        </g>
        <g>
          <path class="cls-2" d="m721.3,51.68v-10.36h51.52v10.36h-51.52Zm1.4-30.52c11.76-.9,18.09-9.3,18.09-15.57V.78h12.6v4.82c0,6.27,6.33,14.67,18.09,15.57v10.02c-11.82-.28-19.77-5.32-24.42-11.65-4.65,6.33-12.6,11.37-24.36,11.65v-10.02Z"/>
          <path class="cls-1" d="m773.32,52.18h-52.52v-11.36h52.52v11.36Zm-51.52-1h50.52v-9.36h-50.52v9.36Zm.4-19.48v-11l.46-.04c12.02-.92,17.63-9.53,17.63-15.07V.28h13.6v5.32c0,5.54,5.6,14.15,17.63,15.07l.46.04v11h-.51c-10.31-.26-18.95-4.27-24.4-11.33-5.46,7.06-14.07,11.07-24.35,11.32h-.51Zm24.86-13l.4.55c3.66,4.98,10.7,10.97,23.51,11.43v-9.05c-11.19-1.05-18.09-9.07-18.09-16.03V1.28h-11.6v4.32c0,6.95-6.9,14.97-18.09,16.03v9.05c9.99-.36,18.3-4.41,23.46-11.43l.4-.55Z"/>
        </g>
        <g>
          <path class="cls-2" d="m811.74,24.8h19.88v7.56h-51.52v-7.56h19.82v-2.63h-17.86v-13.94h47.32v5.82h-34.89v1.85h35.73v6.27h-18.48v2.63Zm17.92-24.3v6.1h-47.6V.5h47.6Zm-11.98,35.45v-2.3h11.98v18.87h-11.98v-1.46l-35.62,1.46v-18.87h11.93v2.3h23.69Zm0,8.57v-1.9h-23.69v2.69l23.69-.78Z"/>
          <path class="cls-1" d="m781.56,53.04v-19.89h12.93v2.3h22.69v-2.3h12.98v19.87h-12.98v-1.44l-35.62,1.46Zm36.62-1.02h10.98v-17.87h-10.98v2.3h-24.69v-2.3h-10.93v17.85l35.62-1.46v1.48Zm-24.69-6.21v-3.7h24.69v2.89l-24.69.82Zm1-2.7v1.67l22.69-.75v-.92h-22.69Zm37.63-10.25h-52.52v-8.56h19.82v-1.63h-17.86V7.73h48.32v6.82h-34.89v.85h35.73v7.27h-18.48v1.63h19.88v8.56Zm-51.52-1h50.52v-6.56h-19.88v-3.63h18.48v-5.27h-35.73v-2.85h34.89v-4.82h-46.32v12.94h17.86v3.63h-19.82v6.56Zm49.56-24.76h-48.6V0h48.6v7.1Zm-47.6-1h46.6V1h-46.6v5.1Z"/>
        </g>
        <g>
          <path class="cls-2" d="m877.93,53.08v-12.77h-19.43v-9.52h51.52v9.52h-19.43v12.77h-12.66Zm-17.47-44.35V1.34h47.6v7.39h-47.6Zm0,19.1V10.8h47.38v7.11h-34.89v2.35h35.67v7.56h-48.16Z"/>
          <path class="cls-1" d="m891.09,53.58h-13.66v-12.77h-19.43v-10.52h52.52v10.52h-19.43v12.77Zm-12.66-1h11.66v-12.77h19.43v-8.52h-50.52v8.52h19.43v12.77Zm30.69-24.26h-49.16V10.3h48.38v8.11h-34.89v1.35h35.67v8.56Zm-48.16-1h47.16v-6.56h-35.67v-3.35h34.89v-6.11h-46.38v16.02Zm47.6-18.1h-48.6V.84h48.6v8.39Zm-47.6-1h46.6V1.84h-46.6v6.39Z"/>
        </g>
        <g>
          <path class="cls-2" d="m917.86,38.75c5.21-2.24,10.75-7.84,10.92-24.3v-1.96h-10.36V2.18h32.31v10.3h-10.36v1.96c.17,16.46,5.71,22.06,10.92,24.3v12.1c-6.72-2.02-12.71-6.27-16.74-14.5-4.03,8.23-10.02,12.49-16.69,14.5v-12.1Zm36.4,13.78V.5h12.32v18.87h5.82v10.7h-5.82v22.46h-12.32Z"/>
          <path class="cls-1" d="m967.08,53.02h-13.32V0h13.32v18.87h5.82v11.7h-5.82v22.46Zm-12.32-1h11.32v-22.46h5.82v-9.7h-5.82V1h-11.32v51.02Zm-37.4-.51v-13.1l.3-.13c7.01-3.02,10.48-10.82,10.62-23.85v-1.46h-10.36V1.68h33.31v11.3h-10.36v1.46c.13,13.03,3.61,20.83,10.62,23.84l.3.13v13.1l-.64-.19c-7.44-2.23-12.88-6.78-16.6-13.88-3.72,7.09-9.14,11.64-16.54,13.88l-.64.2Zm17.19-16.31l.45.92c3.49,7.13,8.67,11.73,15.79,14.04v-11.09c-7.21-3.28-10.78-11.34-10.92-24.62v-2.46h10.36V2.68h-31.31v9.3h10.36v2.46c-.14,13.29-3.71,21.35-10.92,24.63v11.09c7.1-2.32,12.25-6.92,15.74-14.04l.45-.92Z"/>
        </g>
        <g>
          <path class="cls-2" d="m976.66,38.75c5.21-2.24,11.31-7.84,11.48-24.3v-1.96h-10.92V2.18h33.43v10.3h-10.92v1.96c.17,16.46,6.27,22.06,11.48,24.3v12.1c-6.78-2.07-13.1-6.55-17.3-14.45-4.09,7.84-10.47,12.38-17.25,14.45v-12.1Zm37.74,13.78V.5h12.6v52.02h-12.6Z"/>
          <path class="cls-1" d="m1027.51,53.02h-13.6V0h13.6v53.02Zm-12.6-1h11.6V1h-11.6v51.02Zm-3.19-.5l-.65-.2c-7.36-2.25-13.27-7.04-17.15-13.88-4.79,8.59-11.9,12.29-17.11,13.88l-.65.2v-13.1l.3-.13c7.29-3.13,11.05-11.16,11.18-23.85v-1.46h-10.92V1.68h34.43v11.3h-10.92v1.46c.13,12.69,3.89,20.71,11.18,23.84l.3.13v13.1Zm-17.81-16.2l.45.84c3.63,6.83,9.28,11.66,16.36,14v-11.09c-7.49-3.39-11.35-11.67-11.48-24.62v-2.46h10.92V2.68h-32.43v9.3h10.92v2.46c-.13,12.95-3.99,21.24-11.48,24.63v11.09c5.12-1.69,11.87-5.49,16.3-13.99l.44-.84Z"/>
        </g>
        <g>
          <path class="cls-2" d="m1049.91,44.35h36.74v8.18h-48.27v-16.63h6.44l1.29-7.17h-11.2v-8.34h37.24v8.34h-14.73l-1.74,9.8h-5.77v5.82Zm-5.04-25.7c-5.21,0-8.85-3.98-8.85-8.74s3.64-8.85,8.85-8.85h15.51c5.15,0,8.9,3.98,8.9,8.85s-3.75,8.74-8.9,8.74h-15.51Zm3.53-10.36c-.73,0-1.4.78-1.4,1.74,0,.9.67,1.68,1.4,1.68h8.62c.73,0,1.46-.78,1.46-1.68,0-.95-.73-1.74-1.46-1.74h-8.62Zm11.42,29.96v-7.5h13.66V.5h12.32v40.66h-12.32v-2.91h-13.66Z"/>
          <path class="cls-1" d="m1087.15,53.02h-49.27v-17.63h6.52l1.11-6.17h-11.1v-9.34h38.24v9.34h-14.81l-1.74,9.8h-5.69v4.82h36.74v9.18Zm-48.27-1h47.27v-7.18h-36.74v-6.82h5.85l1.74-9.8h14.65v-7.34h-36.24v7.34h11.3l-1.47,8.17h-6.36v15.63Zm47.43-10.37h-13.32v-2.91h-13.66v-8.5h13.66V0h13.32v41.66Zm-12.32-1h11.32V1h-11.32v30.24h-13.66v6.5h13.66v2.91Zm-13.6-21.51h-15.51c-5.33,0-9.35-3.97-9.35-9.24s4.02-9.35,9.35-9.35h15.51c5.27,0,9.4,4.11,9.4,9.35s-4.13,9.24-9.4,9.24Zm-15.51-17.58c-4.76,0-8.35,3.59-8.35,8.35s3.59,8.24,8.35,8.24h15.51c4.71,0,8.4-3.62,8.4-8.24s-3.61-8.35-8.4-8.35h-15.51Zm12.15,10.64h-8.62c-1.01,0-1.9-1.02-1.9-2.18s.87-2.24,1.9-2.24h8.62c1.04,0,1.96,1.04,1.96,2.24s-.93,2.18-1.96,2.18Zm-8.62-3.42c-.42,0-.9.53-.9,1.24,0,.65.49,1.18.9,1.18h8.62c.43,0,.96-.54.96-1.18,0-.68-.52-1.24-.96-1.24h-8.62Z"/>
        </g>
      </g>
      <path class="cls-1" d="m1188.89,17.73h-59.07c-1.28-4.13-5.13-7.13-9.68-7.13-5.59,0-10.13,4.54-10.13,10.13s4.54,10.13,10.13,10.13c4.54,0,8.39-3,9.68-7.13h59.07c11.58,0,21,9.42,21,21v136.97c0,11.58-9.42,21-21,21H19.81c-1.28-4.13-5.13-7.13-9.68-7.13-5.59,0-10.13,4.54-10.13,10.13s4.54,10.13,10.13,10.13c4.54,0,8.39-3,9.68-7.13h1169.08c14.89,0,27-12.11,27-27V44.73c0-14.89-12.11-27-27-27Zm-68.75,7.13c-2.28,0-4.13-1.85-4.13-4.13s1.85-4.13,4.13-4.13,4.13,1.85,4.13,4.13-1.85,4.13-4.13,4.13ZM10.13,209.83c-2.28,0-4.13-1.85-4.13-4.13s1.85-4.13,4.13-4.13,4.13,1.85,4.13,4.13-1.85,4.13-4.13,4.13Z"/>
    </g>
  </g>
</svg>