<?xml version="1.0" encoding="UTF-8"?>
<svg id="Layer_2" data-name="Layer 2" xmlns="http://www.w3.org/2000/svg" viewBox="0 0 1215.85 216.39">
  <defs>
    <style>
      .cls-1 {
        fill: #4762f0;
      }

      .cls-1, .cls-2 {
        stroke-width: 0px;
      }

      .cls-2 {
        fill: #dbe1fc;
      }
    </style>
  </defs>
  <g id="Layer_1-2" data-name="Layer 1">
    <g>
      <g>
        <g>
          <path class="cls-2" d="m113.9,53.64v-12.77h-19.43v-9.52h51.52v9.52h-19.43v12.77h-12.66Zm-17.47-44.35V1.9h47.6v7.39h-47.6Zm0,19.1V11.36h47.38v7.11h-34.89v2.35h35.67v7.56h-48.16Z"/>
          <path class="cls-1" d="m127.06,54.14h-13.66v-12.77h-19.43v-10.52h52.52v10.52h-19.43v12.77Zm-12.66-1h11.66v-12.77h19.43v-8.52h-50.52v8.52h19.43v12.77Zm30.69-24.26h-49.16V10.86h48.38v8.11h-34.89v1.35h35.67v8.56Zm-48.16-1h47.16v-6.56h-35.67v-3.35h34.89v-6.11h-46.38v16.02Zm47.6-18.1h-48.6V1.4h48.6v8.39Zm-47.6-1h46.6V2.4h-46.6v6.39Z"/>
        </g>
        <g>
          <path class="cls-2" d="m153.83,39.31c5.21-2.24,10.75-7.84,10.92-24.3v-1.96h-10.36V2.74h32.31v10.3h-10.36v1.96c.17,16.46,5.71,22.06,10.92,24.3v12.1c-6.72-2.02-12.71-6.27-16.74-14.5-4.03,8.23-10.02,12.49-16.69,14.5v-12.1Zm36.4,13.78V1.06h12.32v18.87h5.82v10.7h-5.82v22.46h-12.32Z"/>
          <path class="cls-1" d="m203.05,53.58h-13.32V.56h13.32v18.87h5.82v11.7h-5.82v22.46Zm-12.32-1h11.32v-22.46h5.82v-9.7h-5.82V1.56h-11.32v51.02Zm-37.4-.51v-13.1l.3-.13c7.01-3.02,10.48-10.82,10.62-23.85v-1.46h-10.36V2.24h33.31v11.3h-10.36v1.46c.13,13.03,3.61,20.83,10.62,23.84l.3.13v13.1l-.64-.19c-7.44-2.23-12.88-6.78-16.6-13.88-3.72,7.09-9.14,11.64-16.54,13.88l-.64.2Zm17.19-16.31l.45.92c3.49,7.13,8.67,11.73,15.79,14.04v-11.09c-7.21-3.28-10.78-11.34-10.92-24.62v-2.46h10.36V3.24h-31.31v9.3h10.36v2.46c-.14,13.29-3.71,21.35-10.92,24.63v11.09c7.1-2.32,12.25-6.92,15.74-14.04l.45-.92Z"/>
        </g>
        <g>
          <path class="cls-2" d="m218.34,53.36l3.14-13.83h-9.41v-10.08h51.52v10.08h-8.51v13.83h-12.1v-13.83h-9.13l-3.14,13.83h-12.38Zm7.22-27.55c-6.66,0-12.1-5.43-12.1-12.1s5.43-12.1,12.1-12.1h24.53c6.66,0,12.1,5.43,12.1,12.1s-5.43,12.1-12.1,12.1h-24.53Zm22.01-9.41c1.51,0,2.63-1.12,2.63-2.63s-1.12-2.63-2.63-2.63h-19.49c-1.51,0-2.58,1.23-2.58,2.63,0,1.51,1.06,2.63,2.58,2.63h19.49Z"/>
          <path class="cls-1" d="m255.58,53.86h-13.1v-13.83h-8.23l-3.14,13.83h-13.4l3.14-13.83h-9.28v-11.08h52.52v11.08h-8.51v13.83Zm-12.1-1h11.1v-13.83h8.51v-9.08h-50.52v9.08h9.53l-3.14,13.83h11.35l3.14-13.83h10.03v13.83Zm6.61-26.55h-24.53c-6.95,0-12.6-5.65-12.6-12.6s5.65-12.6,12.6-12.6h24.53c6.95,0,12.6,5.65,12.6,12.6s-5.65,12.6-12.6,12.6Zm-24.53-24.19c-6.39,0-11.6,5.2-11.6,11.6s5.2,11.6,11.6,11.6h24.53c6.39,0,11.6-5.2,11.6-11.6s-5.2-11.6-11.6-11.6h-24.53Zm22.01,14.78h-19.49c-1.78,0-3.08-1.32-3.08-3.13s1.35-3.13,3.08-3.13h19.49c1.79,0,3.13,1.35,3.13,3.13s-1.35,3.13-3.13,3.13Zm-19.49-5.26c-1.3,0-2.08,1.08-2.08,2.13,0,1.26.85,2.13,2.08,2.13h19.49c1.24,0,2.13-.9,2.13-2.13s-.9-2.13-2.13-2.13h-19.49Z"/>
        </g>
        <g>
          <path class="cls-2" d="m271.43,39.25c6.83-2.8,11.26-8.18,11.26-19.43v-3.7h-10.7V6.66h10.47V.5h12.54v6.16h10.47v9.46h-10.64v3.7c0,11.31,4.31,16.58,11.2,19.43v12.15c-7.39-2.07-13.5-6.78-17.3-13.05-3.81,6.22-9.91,10.98-17.3,13.05v-12.15Zm37.74,13.83V1.06h12.6v52.02h-12.6Z"/>
          <path class="cls-1" d="m322.27,53.58h-13.6V.56h13.6v53.02Zm-12.6-1h11.6V1.56h-11.6v51.02Zm-3.14-.52l-.63-.18c-7.15-2-13.22-6.46-17.17-12.59-3.99,6.14-10.06,10.6-17.17,12.59l-.63.18v-13.15l.31-.13c7.57-3.1,10.95-8.95,10.95-18.97v-3.2h-10.7V6.16h10.47V0h13.54v6.16h10.47v10.46h-10.64v3.2c0,10,3.36,15.85,10.89,18.97l.31.13v13.15Zm-17.8-14.67l.43.7c3.69,6.08,9.49,10.54,16.38,12.64v-11.15c-7.74-3.33-11.2-9.44-11.2-19.76v-4.2h10.64V7.16h-10.47V1h-11.54v6.16h-10.47v8.46h10.7v4.2c0,10.2-3.58,16.49-11.26,19.76v11.15c6.85-2.09,12.65-6.55,16.38-12.64l.43-.7Z"/>
        </g>
        <g>
          <path class="cls-2" d="m349.83,20.55c7.62-2.24,10.58-8.4,10.58-15.57V1.34h12.21v3.64c0,7.17,2.97,12.77,10.58,15.01v10.14c-7.67-1.62-13.05-4.87-16.63-9.52-3.53,4.93-8.96,8.34-16.74,10.08v-10.14Zm13.22,12.32h25.65c6.16,0,10.98,4.26,10.98,10.25s-4.82,10.25-10.98,10.25h-25.65c-6.05,0-10.86-4.42-10.86-10.25s4.82-10.25,10.86-10.25Zm21.67,12.04c1.57,0,2.63-.45,2.63-1.79,0-1.51-1.06-1.85-2.63-1.85h-17.75c-1.34,0-2.41.34-2.41,1.85,0,1.34,1.06,1.79,2.41,1.79h17.75Zm1.51-13.16V1.06h12.32v9.58h5.82v9.8h-5.82v11.31h-12.32Z"/>
          <path class="cls-1" d="m388.69,53.86h-25.65c-6.37,0-11.36-4.72-11.36-10.75s4.89-10.75,11.36-10.75h25.65c6.54,0,11.48,4.62,11.48,10.75s-5.04,10.75-11.48,10.75Zm-25.65-20.5c-5.91,0-10.36,4.19-10.36,9.75s4.55,9.75,10.36,9.75h25.65c5.87,0,10.48-4.28,10.48-9.75s-4.5-9.75-10.48-9.75h-25.65Zm21.67,12.04h-17.75c-2.62,0-2.91-1.6-2.91-2.29,0-2.35,2.19-2.35,2.91-2.35h17.75c.86,0,3.13,0,3.13,2.35,0,1.05-.54,2.29-3.13,2.29Zm-17.75-3.64c-1.59,0-1.91.52-1.91,1.35,0,.35,0,1.29,1.91,1.29h17.75c1.88,0,2.13-.65,2.13-1.29,0-.87-.34-1.35-2.13-1.35h-17.75Zm32.08-9.52h-13.32V.56h13.32v9.58h5.82v10.8h-5.82v11.31Zm-12.32-1h11.32v-11.31h5.82v-8.8h-5.82V1.56h-11.32v29.69Zm-37.4.06v-11.13l.36-.11c8.45-2.49,10.23-9.58,10.23-15.09V.84h13.21v4.14c0,7.64,3.44,12.53,10.23,14.53l.36.11v11.13l-.6-.13c-7.32-1.55-12.73-4.56-16.51-9.19-3.71,4.88-9.16,8.08-16.65,9.75l-.61.14Zm1-10.39v9.14c7.19-1.71,12.37-4.9,15.84-9.74l.39-.55.41.53c3.54,4.6,8.7,7.61,15.74,9.2v-9.14c-7.02-2.2-10.58-7.37-10.58-15.38V1.84h-11.21v3.14c0,8.13-3.75,13.78-10.58,15.94Z"/>
        </g>
        <g>
          <path class="cls-2" d="m409.19,27.88V1.9h30.46v8.68h-18.14v7.9l22.12-1.57v8.74l-34.44,2.24Zm2.35,25.2v-22.01h45.81v22.01h-12.38v-1.46l-33.43,1.46Zm12.43-8.9l21-.78v-3.98h-21v4.76Zm21.06-14.5V1.06h12.32v8.79h5.82v9.8h-5.82v10.02h-12.32Z"/>
          <path class="cls-1" d="m411.04,53.61v-23.03h46.81v23.01h-13.38v-1.43l-33.43,1.46Zm34.43-1.02h11.38v-21.01h-44.81v20.99l33.43-1.46v1.48Zm-22-7.88v-5.78h22v4.96l-22,.82Zm1-4.78v3.74l20-.75v-2.99h-20Zm33.38-9.74h-13.32V.56h13.32v8.79h5.82v10.8h-5.82v10.02Zm-12.32-1h11.32v-10.02h5.82v-8.8h-5.82V1.56h-11.32v27.62Zm-36.84-.76V1.4h31.46v9.68h-18.14v6.86l22.12-1.57v9.74l-35.44,2.31Zm1-26.02v24.95l33.44-2.18v-7.73l-22.12,1.57v-8.93h18.14V2.4h-29.46Z"/>
        </g>
      </g>
      <path class="cls-1" d="m1205.72,196.13c-4.54,0-8.39,3-9.68,7.13H27c-11.58,0-21-9.42-21-21V45.29c0-11.58,9.42-21,21-21h33.04c1.28,4.13,5.13,7.13,9.68,7.13,5.59,0,10.13-4.54,10.13-10.13s-4.54-10.13-10.13-10.13c-4.54,0-8.39,3-9.68,7.13H27C12.11,18.29,0,30.4,0,45.29v136.97c0,14.89,12.11,27,27,27h1169.05c1.28,4.13,5.13,7.13,9.68,7.13,5.59,0,10.13-4.54,10.13-10.13s-4.54-10.13-10.13-10.13ZM69.71,17.16c2.28,0,4.13,1.85,4.13,4.13s-1.85,4.13-4.13,4.13-4.13-1.85-4.13-4.13,1.85-4.13,4.13-4.13Zm1136.01,193.23c-2.28,0-4.13-1.85-4.13-4.13s1.85-4.13,4.13-4.13,4.13,1.85,4.13,4.13-1.85,4.13-4.13,4.13Z"/>
    </g>
  </g>
</svg>