<?xml version="1.0" encoding="UTF-8"?><svg id="_레이어_1" xmlns="http://www.w3.org/2000/svg" xmlns:xlink="http://www.w3.org/1999/xlink" viewBox="0 0 197.35 80"><defs><style>.cls-1{fill:#e0f0eb;}.cls-1,.cls-2,.cls-3,.cls-4,.cls-5,.cls-6,.cls-7,.cls-8,.cls-9,.cls-10,.cls-11{stroke-width:0px;}.cls-2{fill:#6cb795;}.cls-3{fill:url(#_무제_그라디언트_2);}.cls-4{fill:none;}.cls-5{fill:#76a6bd;}.cls-6{fill:#417ea3;}.cls-7{fill:#c6e6e4;}.cls-8{fill:#595757;}.cls-9{fill:#e1efd8;}.cls-12{clip-path:url(#clippath);}.cls-10{fill:#4aaa81;}.cls-11{fill:#90ccbc;}</style><clipPath id="clippath"><polygon class="cls-4" points="35.04 24.88 35.04 35.05 38.63 35.05 38.63 64.38 48.8 64.38 48.8 24.88 35.04 24.88"/></clipPath><linearGradient id="_무제_그라디언트_2" x1="927.27" y1="302.58" x2="927.56" y2="302.58" gradientTransform="translate(-42457.15 -130215.08) rotate(90) scale(140.45 -140.45)" gradientUnits="userSpaceOnUse"><stop offset="0" stop-color="#417da3"/><stop offset="1" stop-color="#00384f"/></linearGradient></defs><path class="cls-6" d="m81.65,36.81c-.06-.02-.16.09-.21.13l-5.68,4.37c-.07.05-.09.14-.07.22.03.08.1.13.18.13h4.41s.14-.02.2-.1l1.91-1.48c.06-.05.09-.13.07-.2l-.69-2.93c-.02-.06-.06-.11-.12-.13"/><path class="cls-6" d="m171.24,36.87c-.06-.02-.13-.01-.18.03l-6.74,4.42c-.07.05-.09.14-.07.21.03.08.1.13.18.13h4.6s.3-.02.37-.1l1.89-1.09c.06-.05.09-.13.07-.2v-3.27c-.01-.06-.06-.11-.12-.13"/><path class="cls-8" d="m61.14,42.88h-4.38c-.11,0-.19.09-.19.19v21.13c0,.11.09.19.19.19h4.38c.11,0,.19-.09.19-.19v-21.13c0-.11-.09-.19-.19-.19"/><path class="cls-8" d="m80.3,42.86h-4.42c-.11,0-.19.09-.19.19v7.88c0,.14,0,.28.02.45l-6.28-14.38c-.03-.07-.1-.11-.17-.11h-4.15c-.11,0-.19.09-.19.19v27.13c0,.11.09.19.19.19h4.43c.11,0,.19-.09.19-.19v-15.36c0-.12,0-.26-.02-.41l6.77,15.85c.03.07.1.12.18.12h3.63c.11,0,.19-.09.19-.19l.02-21.15c0-.11-.09-.19-.19-.19"/><path class="cls-8" d="m99.86,36.86h-4.56c-.09,0-.17.07-.19.16l-3.35,18.1-3.32-18.1c-.02-.09-.1-.16-.19-.16h-4.62c-.06,0-.11.02-.15.06-.04.04-.05.1-.04.16l5.81,27.19c.02.09.1.15.19.15h4.61c.09,0,.17-.06.19-.15l5.81-27.19c.01-.06,0-.11-.04-.16-.04-.04-.09-.07-.15-.07"/><path class="cls-8" d="m114.96,60.36h-7.96v-8.36h6.77c.11,0,.19-.09.19-.19v-3.58c0-.11-.09-.19-.19-.19h-6.77v-7.13h7.38c.11,0,.19-.09.19-.19v-3.65c0-.11-.09-.19-.19-.19h-12.2c-.11,0-.19.09-.19.19v27.13c0,.11.09.19.19.19h12.78c.11,0,.19-.09.19-.19v-3.65c0-.11-.09-.19-.19-.19"/><path class="cls-8" d="m149.64,60.36h-7.96v-8.27h6.77c.11,0,.19-.09.19-.19v-3.58c0-.11-.09-.19-.19-.19h-6.77v-7.23h7.38c.11,0,.19-.09.19-.19v-3.65c0-.11-.09-.19-.19-.19h-12.2c-.11,0-.19.09-.19.19v27.13c0,.11.09.19.19.19h12.78c.11,0,.19-.09.19-.19v-3.65c0-.11-.09-.19-.19-.19"/><path class="cls-8" d="m130.09,36.88h-8.78c-1.98,0-2.98.92-2.98,2.73v5.69c0,.95.36,1.74,1.08,2.35l9.21,7.76v5.13h-5.09v-5.53c0-.11-.09-.19-.19-.19h-4.4c-.11,0-.19.09-.19.19v6.67c0,1.8,1,2.71,2.98,2.71h8.91c1.99,0,3-.91,3-2.71v-6.57c0-.98-.36-1.78-1.08-2.38l-9.21-7.73v-4.26h4.96v4.33c0,.11.09.19.19.19h4.4c.11,0,.19-.09.19-.19v-5.49c0-1.79-1.01-2.69-3-2.69"/><path class="cls-8" d="m168.77,42.86h-4.4c-.11,0-.19.09-.19.19v17.42h-5.98v-23.4c0-.11-.09-.19-.19-.19h-4.4c-.11,0-.19.09-.19.19v24.61c0,1.8,1.01,2.71,3,2.71h9.51c2.02,0,3.04-.91,3.04-2.71v-18.63c0-.11-.09-.19-.19-.19"/><path class="cls-8" d="m191.49,36.88h-4.41c-.08,0-.16.05-.18.13l-4.8,14.6-4.8-14.6c-.03-.08-.1-.13-.18-.13h-4.37c-.11,0-.19.09-.19.19v27.13c0,.11.09.19.19.19h4.4c.11,0,.19-.09.19-.19v-13.6c0-.22,0-.47-.03-.76l3.44,12.01c.02.08.1.14.18.14h2.35c.09,0,.16-.06.18-.14l3.47-11.99c-.02.27-.03.52-.03.74v13.6c0,.11.09.19.19.19h4.39c.11,0,.19-.09.19-.19v-27.13c0-.11-.09-.19-.19-.19"/><path class="cls-6" d="m61.14,36.88h-4.38c-.11,0-.19.09-.19.19v4.4c0,.11.09.19.19.19h4.38c.11,0,.19-.09.19-.19v-4.4c0-.11-.09-.19-.19-.19"/><path class="cls-8" d="m63.37,27.95h1.2v1.08h-1.2v4.56h-1.2v-8.67h1.2v3.03Zm-6.99,3.51c.49-.29.91-.56,1.26-.79.35-.23.74-.45.97-.64.23-.19.42-.37.55-.54.13-.17.23-.35.3-.53.07-.18.11-.36.13-.56.02-.2.02-.42.02-.66v-.47h-2.94v-1.11h4.19v1.64c0,.33-.02.63-.05.9-.03.27-.1.51-.19.75s-.23.46-.39.67c-.17.22-.43.42-.71.65-.28.23-.67.51-1.07.77-.4.27-.87.57-1.41.9l-.66-.98Z"/><path class="cls-8" d="m68.51,25.92c-.56,0-.99.09-1.3.26s-.47.37-.47.6v.21c0,.23.16.43.47.6.31.17.75.26,1.3.26s.99-.09,1.3-.26c.31-.17.47-.37.47-.6v-.21c0-.23-.16-.43-.47-.6-.31-.17-.75-.26-1.3-.26m-1.86,6.56h5.13v1.11h-6.24v-2.61h1.11v1.51Zm1.36-3.06v-.59c-.35-.03-.57-.08-.94-.18-.37-.1-.7-.23-.91-.39-.21-.15-.37-.33-.48-.54-.11-.2-.17-.43-.17-.68v-.33c0-.28.07-.54.22-.76.15-.23.35-.42.62-.57.27-.15.58-.27.95-.35.37-.08.77-.12,1.21-.12s.84.04,1.21.12c.37.08.68.2.95.35.26.15.47.34.62.57.15.23.22.48.22.76v.33c0,.25-.06.47-.17.68-.11.2-.27.38-.48.54-.21.15-.46.28-.75.37-.29.1-.62.16-.97.19v.59h3.15v1.12h-7.34v-1.12h3.08Z"/><path class="cls-8" d="m73.99,28.98v-3.64h1.05v2.59h4.75v1.05h-5.8Zm6.81.73v1.12h-3.3v3.02h-1.15v-3.02h-3.41v-1.12h7.86Z"/><path class="cls-8" d="m88.82,33.84h-1.25v-8.92h1.25v8.92Zm-5.93-2.84h1.06c.45,0,.92-.01,1.4-.04.48-.03.96-.07,1.41-.13l.14,1.04c-.47.07-.97.12-1.52.15-.55.03-1.13.04-1.73.04l-1.99-.03v-3.91l3.05.03v-1.29h-3.05v-1.05h4.28v3.36h-3.05v1.85Z"/><path class="cls-8" d="m121.58,74.43c-.2,0-.65.02-.84.05-.19.03-.36.08-.51.14-.15.06-.27.13-.36.22-.09.09-.14.18-.14.29v.15c0,.11.05.21.14.29.09.09.21.16.36.22.15.06.32.11.51.14.19.03.64.05.84.05s.85-.02,1.04-.05.36-.08.51-.14c.15-.06.27-.13.36-.22.09-.09.14-.18.14-.29v-.15c0-.11-.05-.21-.14-.29-.09-.09-.21-.16-.36-.22-.15-.06-.32-.11-.51-.14s-.84-.05-1.04-.05m0,2.5c-.37,0-.98-.03-1.31-.1-.33-.06-.63-.16-.88-.29-.25-.13-.45-.29-.6-.49-.15-.2-.22-.43-.22-.7v-.3c0-.26.07-.49.22-.69.15-.2.35-.36.6-.49.25-.13.54-.22.88-.29.33-.06.94-.1,1.31-.1s1.18.03,1.51.1c.33.06.62.16.88.29.25.13.45.29.6.49.15.2.22.43.22.69v.3c0,.27-.07.5-.22.7-.15.2-.35.36-.6.49-.25.13-.54.22-.88.29-.33.06-1.14.1-1.51.1m-1.63-8.92v2.39h4.4v1.11h-2.23v.77h3.34v.97h-7.8v-.97h3.31v-.77h-2.12v-3.5h1.11Z"/><path class="cls-8" d="m132.71,73.02h-1.1v-5h1.1v5Zm-5.9.65h5.9v3.24h-1.16v-2.26h-4.74v-.98Zm1.78-2.42c-.02.08-.08.18-.19.29-.11.11-.17.23-.31.36-.21.2-.42.38-.63.56-.21.18-.46.39-.75.62l-.72-.84c.24-.18.48-.38.72-.6.24-.21.47-.42.69-.62.22-.21.38-.43.47-.64.09-.21.14-.48.14-.79v-1.58h1.12v1.53c0,.17,0,.31.03.44.02.13.05.24.09.35.04.1.1.2.18.3.08.1.18.19.3.3.22.19.44.37.67.55.23.17.45.34.67.5l-.67.81c-.18-.13-.37-.27-.57-.43-.2-.16-.41-.32-.63-.5-.16-.13-.29-.24-.4-.34-.11-.1-.18-.19-.21-.27h0Z"/><path class="cls-8" d="m136.42,70.4h2.15v-1.28h-2.15v1.28Zm-.62,5.6h3.56v-1.39h-3.56v1.39Zm4.86-7.99v1.12h-.95v1.28h1.04v1.12h-6.5v-1.12h1.04v-1.28h-.94v-1.12h6.32Zm-6.01,5.67h2.34v-.66h-3.31v-.97h7.8v.97h-3.33v.66h2.35v3.24h-5.85v-3.24Z"/><path class="cls-8" d="m150.89,72.19h-6.17v-4.17h6.13v1.09h-4.99v.62h4.91v.95h-4.91v.56h5.03v.95Zm.81.61v1.1h-3.3v3.02h-1.16v-3.02h-3.33v-1.1h7.8Z"/><path class="cls-8" d="m159.39,71.07h1.17v.98h-1.17v4.87h-1.16v-8.91h1.16v3.06Zm-6.35-3.06h4.21v1.11h-1.48v1.79c0,.18,0,.34.03.48s.05.28.1.41c.05.13.11.26.2.39.09.13.2.27.34.41.2.21.41.43.64.66.23.23.46.44.69.65l-.74.77c-.2-.18-.39-.37-.59-.56-.2-.19-.38-.38-.55-.55-.18-.18-.33-.34-.45-.48-.12-.14-.2-.25-.23-.33h-.02c-.04.09-.13.21-.27.37-.13.16-.28.32-.43.48-.17.18-.35.36-.53.55-.18.19-.4.4-.66.63l-.76-.78c.5-.45.95-.89,1.36-1.33.13-.15.25-.29.34-.42.09-.13.17-.26.22-.39.05-.13.09-.28.11-.43s.03-.32.03-.51v-1.79h-1.55v-1.11Z"/><path class="cls-8" d="m167.76,76.92h-1.11v-8.91h1.11v8.91Zm-6.37-8.9h4.22v1.1h-1.49v1.72c0,.18,0,.34.03.48.02.14.05.28.1.41.05.13.11.26.2.39s.2.27.34.41c.2.21.41.43.64.66.23.23.46.44.69.65l-.74.77c-.2-.18-.39-.37-.59-.56-.2-.19-.38-.38-.55-.55-.18-.18-.33-.34-.45-.48-.12-.14-.2-.25-.23-.33h-.02c-.04.09-.13.21-.27.37-.13.16-.28.32-.43.48-.17.18-.35.36-.53.55-.18.19-.4.4-.66.63l-.76-.78c.5-.45.95-.89,1.36-1.33.13-.15.25-.29.34-.42.09-.13.16-.26.22-.39.06-.13.09-.28.11-.43.02-.15.03-.32.03-.51v-1.72h-1.56v-1.1Z"/><path class="cls-8" d="m173.21,73.16h1.82v-5.14h1.11v6.71h-1.11v-.63h-1.82v-.94Zm-1.68-4.21c-.31,0-.57.06-.76.18-.2.12-.29.27-.29.44v.13c0,.18.1.33.29.44.2.12.45.18.76.18s.57-.06.76-.18c.2-.12.29-.27.29-.44v-.13c0-.18-.1-.33-.29-.44-.2-.12-.45-.18-.76-.18m-.15,6.96h4.75v1.01h-5.89v-2.5h1.14v1.49Zm.15-4.64c-.31,0-.59-.04-.85-.11-.26-.07-.49-.18-.68-.31-.19-.13-.34-.29-.45-.48-.11-.19-.17-.39-.17-.61v-.26c0-.22.06-.42.17-.61.11-.19.26-.35.45-.48.19-.13.42-.23.68-.31.26-.07.54-.11.85-.11s.58.04.84.11c.26.07.49.18.68.31.19.13.34.29.45.48s.17.39.17.61v.26c0,.22-.06.42-.17.61s-.26.35-.45.48c-.19.13-.42.23-.68.31-.26.07-.54.11-.84.11m-2.7.48c.7,0,1.32,0,1.86,0,.53,0,1.01-.02,1.44-.03.42-.01.81-.03,1.14-.05.34-.02.65-.04.95-.07l.08.96c-.29.04-.63.07-1,.09-.38.02-.82.04-1.33.05v1.28h-1.15v-1.26c-.3,0-.61,0-.94,0h-1.05v-.97Z"/><path class="cls-8" d="m183.86,73.98h-1.1v-5.97h1.1v5.97Zm-2.85-2.91h-1.12v-1.01h1.12v-2.05h1.09v5.97h-1.09v-2.91Zm-1.81,4.86h4.68v.99h-5.85v-2.92h1.16v1.93Zm.93-2.81c-.14-.12-.3-.26-.47-.41-.17-.15-.32-.28-.44-.39-.14-.13-.25-.24-.33-.33-.08-.09-.13-.17-.16-.23h0c-.03.08-.08.16-.15.25-.07.09-.17.2-.3.33-.12.12-.28.28-.48.47-.2.19-.41.39-.64.6l-.74-.77c.2-.17.39-.35.58-.53.19-.18.38-.37.56-.57.11-.12.2-.23.28-.34.07-.11.13-.22.17-.34.04-.12.07-.24.09-.36.02-.13.02-.26.02-.42v-2.07h1.14v2.01c0,.15,0,.29.02.41s.04.24.08.35c.04.11.1.22.17.33s.16.22.27.33c.32.32.66.64,1.02.94l-.68.74Z"/><path class="cls-8" d="m189.22,71.07h1.29v-3.07h1.16v8.93h-1.16v-4.82h-1.29v-1.04Zm-4.37-3.05h4.08v1.11h-2.93v1.94h2.3v1.05h-2.3v1.87h.73c.44,0,.91-.01,1.41-.03.5-.02.97-.06,1.4-.12l.12,1.11c-.21.04-.45.07-.71.09-.26.02-.52.04-.8.05-.28.01-.56.02-.85.02-.29,0-.57,0-.85,0h-1.61v-7.09Z"/><rect class="cls-5" x="31.45" y="21.33" width="2.99" height="2.99"/><rect class="cls-7" x="31.45" y="15.87" width="2.99" height="2.99"/><rect class="cls-5" x="27.86" y="21.33" width="2.99" height="2.99"/><rect class="cls-7" x="27.86" y="11.09" width="2.99" height="2.99"/><rect class="cls-7" x="24.27" y="14.68" width="2.99" height="2.99"/><rect class="cls-6" x="31.45" y="24.88" width="2.99" height="2.99"/><rect class="cls-5" x="27.86" y="24.88" width="2.99" height="2.99"/><rect class="cls-5" x="24.27" y="24.88" width="2.99" height="2.99"/><rect class="cls-9" x="13.5" y="22.51" width="2.99" height="2.99"/><rect class="cls-6" x="31.45" y="28.47" width="2.99" height="2.99"/><rect class="cls-5" x="27.86" y="28.47" width="2.99" height="2.99"/><rect class="cls-11" x="20.69" y="28.47" width="2.99" height="2.99"/><rect class="cls-6" x="31.45" y="32.06" width="2.99" height="2.99"/><rect class="cls-5" x="27.86" y="32.06" width="2.99" height="2.99"/><rect class="cls-11" x="24.27" y="32.06" width="2.99" height="2.99"/><rect class="cls-11" x="20.69" y="32.06" width="2.99" height="2.99"/><rect class="cls-11" x="17.11" y="32.06" width="2.99" height="2.99"/><rect class="cls-11" x="13.52" y="33.78" width="2.99" height="2.99"/><rect class="cls-11" x="8.72" y="38.07" width="2.99" height="2.99"/><rect class="cls-11" x="3.93" y="30.22" width="2.99" height="2.99"/><rect class="cls-9" x="17.09" y="15.86" width="2.99" height="2.99"/><rect class="cls-9" x="9.24" y="14.68" width="2.99" height="2.99"/><rect class="cls-9" x="2.73" y="21.33" width="2.99" height="2.99"/><rect class="cls-1" x="17.1" y="6.98" width="2.99" height="2.99"/><rect class="cls-1" x="12.31" y="1.52" width="2.99" height="2.99"/><rect class="cls-7" x="28.37" y="3.39" width="2.99" height="2.99"/><rect class="cls-7" x="35.03" y="6.98" width="2.99" height="2.99"/><rect class="cls-11" x="20.69" y="35.65" width="2.99" height="2.99"/><rect class="cls-11" x="24.27" y="35.65" width="2.99" height="2.99"/><rect class="cls-11" x="24.27" y="39.24" width="2.99" height="2.99"/><rect class="cls-11" x="20.69" y="39.24" width="2.99" height="2.99"/><rect class="cls-11" x="17.11" y="39.24" width="2.99" height="2.99"/><rect class="cls-11" x="24.27" y="42.86" width="2.99" height="2.99"/><rect class="cls-11" x="20.69" y="42.86" width="2.99" height="2.99"/><rect class="cls-11" x="17.1" y="42.86" width="2.99" height="2.99"/><rect class="cls-11" x="13.51" y="42.86" width="2.99" height="2.99"/><rect class="cls-11" x="24.27" y="46.42" width="2.99" height="2.99"/><rect class="cls-11" x="20.69" y="46.42" width="2.99" height="2.99"/><rect class="cls-11" x="17.1" y="46.42" width="2.99" height="2.99"/><rect class="cls-2" x="24.27" y="50.01" width="2.99" height="2.99"/><rect class="cls-2" x="20.69" y="50.01" width="2.99" height="2.99"/><rect class="cls-2" x="17.1" y="50.01" width="2.99" height="2.99"/><rect class="cls-2" x="24.27" y="53.62" width="2.99" height="2.99"/><rect class="cls-2" x="20.69" y="53.6" width="2.99" height="2.99"/><rect class="cls-2" x="17.1" y="53.62" width="2.99" height="2.99"/><rect class="cls-10" x="17.1" y="57.21" width="10.17" height="7.18"/><g class="cls-12"><rect class="cls-3" x="35.04" y="24.88" width="13.76" height="39.5"/></g></svg>