<svg width="120" height="50" viewBox="0 0 120 50" fill="none" xmlns="http://www.w3.org/2000/svg">
<path fill-rule="evenodd" clip-rule="evenodd" d="M45.5 7.47001C45.63 7.92001 45.65 8.39002 45.58 8.85002C45.56 8.97002 45.53 9.08001 45.5 9.20001C45.44 9.42001 45.58 8.96001 45.5 9.17001C45.48 9.23001 45.46 9.29002 45.44 9.35002C45.34 9.62002 45.21 9.88001 45.08 10.13C44.77 10.69 44.37 11.21 43.95 11.69C43.89 11.75 43.84 11.82 43.78 11.88C43.58 12.1 43.97 11.68 43.76 11.9C43.64 12.03 43.51 12.15 43.38 12.28C43.08 12.57 42.77 12.84 42.45 13.11C41.77 13.68 41.05 14.2 40.32 14.7C39.94 14.96 39.54 15.21 39.15 15.45C39.05 15.51 38.95 15.57 38.84 15.64C38.79 15.67 38.43 15.88 38.76 15.69C38.51 15.83 38.26 15.98 38 16.11C36.02 17.2 33.94 18.12 31.82 18.93C31.55 19.03 31.27 19.13 31 19.23C30.86 19.28 30.72 19.33 30.58 19.38C31 19.24 30.52 19.4 30.46 19.42C29.84 19.63 29.21 19.83 28.59 20.02C27.32 20.4 26.04 20.74 24.76 21.03C24.17 21.17 23.57 21.29 22.98 21.41C23.52 21.31 23.02 21.41 22.92 21.41C22.77 21.44 22.63 21.46 22.49 21.49C22.15 21.55 21.82 21.6 21.49 21.65C20.36 21.82 19.22 21.94 18.08 22.02C17.6 22.05 18.62 21.99 18.14 22.02C18.01 22.02 17.88 22.03 17.76 22.04C17.51 22.04 17.26 22.06 17.01 22.06C16.49 22.07 15.97 22.06 15.45 22.05C15.26 22.05 14.43 21.99 15.24 22.05C15.02 22.03 14.8 22.02 14.59 22C14.14 21.96 13.7 21.9 13.26 21.82C13.11 21.8 12.73 21.72 13.4 21.85C13.31 21.83 13.21 21.81 13.12 21.79C12.94 21.75 12.76 21.71 12.58 21.66C12.41 21.61 12.24 21.57 12.07 21.51C11.99 21.49 11.91 21.46 11.83 21.43C12.42 21.63 12.02 21.49 11.88 21.44C11.59 21.33 11.31 21.2 11.04 21.05C10.79 20.91 11.38 21.25 11.13 21.11C11.07 21.07 11.01 21.04 10.95 21C10.82 20.91 10.69 20.82 10.57 20.72C10.47 20.64 10.38 20.55 10.28 20.46C10.11 20.29 10.49 20.69 10.33 20.51C10.29 20.46 10.25 20.42 10.22 20.37C10.06 20.17 9.92997 19.94 9.82997 19.71C9.80997 19.66 9.78997 19.6 9.76997 19.55C9.68997 19.34 9.83997 19.8 9.77997 19.6C9.74997 19.49 9.72997 19.39 9.70997 19.28C9.66997 19.04 9.66997 18.8 9.69997 18.56C9.69997 18.45 9.72997 18.33 9.74997 18.22C9.76997 18.14 9.87997 17.73 9.77997 18.07C9.85997 17.8 9.96997 17.54 10.1 17.29C10.38 16.73 10.74 16.22 11.14 15.74C11.25 15.61 11.36 15.48 11.47 15.36C11.51 15.31 11.72 15.1 11.48 15.34C11.54 15.28 11.6 15.21 11.67 15.15C11.96 14.86 12.25 14.59 12.56 14.32C13.21 13.75 13.91 13.22 14.62 12.73C15 12.47 15.38 12.22 15.76 11.98C15.96 11.85 16.16 11.73 16.37 11.61C16.47 11.55 16.57 11.49 16.68 11.43C16.34 11.63 16.81 11.36 16.87 11.32C17.81 10.79 18.77 10.3 19.74 9.84001C20.79 9.35001 21.86 8.90001 22.94 8.47002C23.48 8.26002 24.03 8.06001 24.58 7.86001C25.05 7.69001 24.23 7.98001 24.69 7.82001C24.83 7.77001 24.97 7.73001 25.12 7.68001C25.45 7.57001 25.79 7.46001 26.12 7.36001C27.38 6.96001 28.65 6.61001 29.94 6.30001C30.54 6.16001 31.14 6.02001 31.74 5.90001C31.89 5.87001 32.03 5.84001 32.18 5.81001C32.68 5.71001 31.74 5.89001 32.24 5.81001C32.58 5.75001 32.91 5.69001 33.25 5.63001C34.4 5.44001 35.55 5.30001 36.7 5.21001C36.88 5.19001 37.8 5.14001 37.03 5.18001C37.29 5.17001 37.54 5.15001 37.79 5.15001C38.32 5.13002 38.85 5.13001 39.38 5.14001C39.61 5.14001 39.84 5.15001 40.07 5.16001C40.18 5.16001 40.3 5.16001 40.41 5.18001C39.68 5.14001 40.11 5.16001 40.27 5.18001C40.73 5.21001 41.19 5.27001 41.64 5.33001C41.84 5.36001 42.03 5.39001 42.23 5.43001C41.49 5.30001 42.19 5.43001 42.36 5.46001C42.73 5.55001 43.1 5.65001 43.47 5.78001C42.83 5.56001 43.48 5.79001 43.64 5.86001C43.81 5.93001 43.97 6.00002 44.13 6.09001C44.2 6.12001 44.26 6.16001 44.32 6.20001C43.86 5.94001 44.19 6.12001 44.29 6.18001C44.44 6.28001 44.59 6.39001 44.72 6.50001C44.84 6.59001 44.95 6.70002 45.05 6.80001C44.74 6.48002 45.1 6.89001 45.18 6.99001C45.35 7.23001 45.47 7.50001 45.56 7.78001C45.66 8.10002 46.3 8.30001 46.57 8.37001C47.12 8.51001 47.7 8.54002 48.26 8.47002C48.71 8.41002 49.2 8.30002 49.57 8.02002C49.87 7.79002 49.9 7.59001 49.79 7.26002C49.4 6.03001 48.26 5.22001 47.16 4.66001C45.58 3.85001 43.73 3.51001 41.99 3.33001C37.13 2.82001 32.14 3.54001 27.42 4.69001C22.69 5.84001 18.01 7.55001 13.76 9.95001C12.06 10.91 10.41 11.96 8.91997 13.23C7.80997 14.18 6.72997 15.27 5.99997 16.55C5.48997 17.46 5.13997 18.59 5.39997 19.63C5.73997 20.99 6.75997 21.84 7.93997 22.49C9.44997 23.33 11.29 23.68 12.99 23.89C15.28 24.16 17.6 24.11 19.89 23.92C25.07 23.49 30.2 22.15 35.06 20.31C38.98 18.83 42.91 16.9 46.16 14.22C47.34 13.25 48.49 12.11 49.27 10.77C49.82 9.81002 50.2 8.61001 49.88 7.52001C49.63 6.66001 48.45 6.54001 47.69 6.54001C47.17 6.54001 46.62 6.61001 46.14 6.83001C45.95 6.91001 45.41 7.21001 45.5 7.53001" fill="#05AABC"/>
<path fill-rule="evenodd" clip-rule="evenodd" d="M24.89 6.49001C16.03 9.15001 8.73005 13.46 6.72005 17.21C6.16005 18.25 6.01005 19.22 6.28005 20.11C6.54005 20.99 7.21005 21.72 8.25005 22.28C12 24.29 20.46 23.86 29.32 21.19C34.81 19.54 39.76 17.26 43.26 14.77C46.9 12.18 48.5601 9.63001 47.9501 7.57001C47.3301 5.51001 44.53 4.30001 40.07 4.15001C35.78 4.01001 30.39 4.84001 24.91 6.49001M8.70005 21.42C7.89005 20.99 7.39005 20.45 7.20005 19.83C7.01005 19.2 7.13005 18.47 7.57005 17.67C8.46005 16.01 10.63 14.11 13.69 12.3C16.89 10.4 20.87 8.72001 25.17 7.42001C37.07 3.84001 46.07 4.75001 47 7.85001C47.05 8.03001 47.0801 8.23001 47.0801 8.43001C47.0801 11.62 40.2201 16.89 29.0301 20.25C24.7201 21.55 20.48 22.33 16.76 22.52C13.22 22.7 10.35 22.31 8.70005 21.41" fill="#CCE1EC"/>
<path fill-rule="evenodd" clip-rule="evenodd" d="M25.4099 5.93001C16.9799 8.51001 10.0099 12.68 8.06994 16.32C7.54994 17.31 7.40994 18.22 7.64994 19.04C7.89994 19.86 8.52994 20.54 9.50994 21.06C13.1499 23 21.2599 22.58 29.6999 20.01C34.9899 18.39 39.7599 16.15 43.1099 13.7C46.0299 11.56 47.5799 9.47001 47.5799 7.72001C47.5799 7.44001 47.5399 7.17001 47.4599 6.91001C47.2099 6.09001 46.5799 5.42001 45.5999 4.89001C41.9499 2.95001 33.8399 3.37001 25.4099 5.94001M9.62994 20.85C8.69994 20.35 8.11994 19.72 7.88994 18.97C7.65994 18.22 7.79994 17.37 8.28994 16.44C10.1999 12.85 17.1099 8.72001 25.4799 6.17001C33.8499 3.62001 41.8899 3.19001 45.4799 5.10001C46.4099 5.59001 46.9899 6.23001 47.2199 6.98001C48.3599 10.73 40.4699 16.47 29.6299 19.78C21.2499 22.33 13.2199 22.76 9.62994 20.85Z" fill="white"/>
<path fill-rule="evenodd" clip-rule="evenodd" d="M26.96 5.41001C21.6 7.05001 16.77 9.30001 13.37 11.75C9.93996 14.23 8.35996 16.63 8.92996 18.52C9.16996 19.31 9.77996 19.97 10.74 20.48C14.38 22.42 22.61 21.96 31.21 19.34C36.57 17.7 41.4 15.45 44.8 12.99C47.77 10.84 49.35 8.76001 49.35 7.01001C49.35 6.74001 49.31 6.48001 49.23 6.22001C48.99 5.43001 48.38 4.77001 47.42 4.26001C43.78 2.32001 35.55 2.78001 26.95 5.40001M10.85 20.27C9.94996 19.79 9.37996 19.18 9.15996 18.45C8.61996 16.68 10.16 14.36 13.51 11.95C16.89 9.51001 21.69 7.27001 27.03 5.64001C35.57 3.03001 43.72 2.57001 47.31 4.48001C48.21 4.96001 48.78 5.57001 49 6.30001C49.54 8.07001 48 10.39 44.65 12.8C41.27 15.24 36.47 17.48 31.13 19.11C22.59 21.71 14.44 22.18 10.85 20.27Z" fill="white"/>
<path fill-rule="evenodd" clip-rule="evenodd" d="M41.63 9.32C41.63 9.32 33.73 15.48 22.22 17.31C10.58 19.16 10.2 17.7 9.31004 17.11C8.47004 16.55 6.20004 13.36 16.59 7.39C23.05 3.68 31.09 1.93 32.51 1.67C38.58 0.54 44.05 1.22 43.99 1.58C43.95 1.83 43.79 1.5 43.15 2.19C42.96 2.4 46.9 2.68 46.99 2.76C47.07 2.84 45.51 0 45.51 0C45.51 0 45.4 0.81 45.04 0.69C43.68 0.24 38.13 -0.38 32.06 0.69C25.84 1.79 18.69 4.52 15.17 6.62C11.57 8.77 6.27004 12.08 5.24004 15.9C3.81004 21.23 9.15004 21.49 10.12 21.77C11.09 22.06 16.73 22.37 21.6 21.4C21.86 21.35 18.82 31.5 18.82 31.5H24.74L27.87 19.78C27.87 19.78 38.8 16.9 46.04 10.93C46.26 10.75 41.64 9.32 41.64 9.32" fill="#2865A2"/>
<path fill-rule="evenodd" clip-rule="evenodd" d="M35.07 45.97L5.20996 45.99V39H36.99L35.07 45.97Z" fill="#2865A2"/>
<path fill-rule="evenodd" clip-rule="evenodd" d="M115.42 26.32C115.65 25.58 115.77 25.03 115.8 24.49C115.67 22.21 114.61 19.59 110.01 19.61C105.22 19.64 101.94 23.8 102.13 26.62C102.32 29.4 103.71 31.77 108.61 31.57C110.63 31.49 113.15 30.15 114.71 27.61H111.34C111.12 27.96 110.16 29.1 108.19 29.1C106.56 29.1 104.8 28.08 104.91 26.32H115.42ZM105.75 24.25C106.03 23.18 107.4 22.11 109.67 22.11C111.72 22.11 112.73 22.77 112.64 24.27L105.75 24.24V24.25Z" fill="#2865A2"/>
<path fill-rule="evenodd" clip-rule="evenodd" d="M47.17 26.32C47.4 25.58 47.53 25.03 47.56 24.49C47.42 22.21 46.37 19.59 41.76 19.61C36.97 19.64 33.7 23.8 33.88 26.62C34.06 29.4 35.46 31.77 40.36 31.57C42.38 31.49 44.9 30.15 46.46 27.61H43.09C42.86 27.96 41.9 29.1 39.94 29.1C38.31 29.1 36.54 28.08 36.67 26.32H47.17ZM37.5 24.25C37.78 23.18 39.15 22.11 41.42 22.11C43.47 22.11 44.48 22.77 44.39 24.27L37.5 24.24V24.25Z" fill="#2865A2"/>
<path fill-rule="evenodd" clip-rule="evenodd" d="M53.05 14.54H56.76L54.04 24.84L53.95 25.25L59.56 20.42H63.73L57.33 25.99L60.87 31.59H56.63L53.54 26.78L53.25 27.93L52.41 31.59H48.61L53.05 14.54Z" fill="#2865A2"/>
<path fill-rule="evenodd" clip-rule="evenodd" d="M67.1899 31.59L64.9399 20.41H68.5299L69.4399 25.21C69.4699 25.27 69.4999 25.45 69.5499 25.66C69.6899 26.35 69.8499 27.04 69.9099 27.83H69.9599C70.0399 27.63 70.1299 27.53 70.4399 27.1L70.9999 26.33C71.2299 25.98 71.5599 25.51 71.9199 25.04L75.3599 20.4H79.5899L71.3599 31.57H67.1999L67.1899 31.59Z" fill="#2865A2"/>
<path fill-rule="evenodd" clip-rule="evenodd" d="M91.26 14.54L94.92 14.55L90.53 31.59H86.84L91.26 14.54Z" fill="#2865A2"/>
<path fill-rule="evenodd" clip-rule="evenodd" d="M85.96 17.98C85.03 18.93 83.65 19.09 82.89 18.35C82.13 17.6 82.27 16.22 83.2 15.28C84.13 14.33 85.51 14.17 86.27 14.92C87.03 15.67 86.89 17.05 85.96 17.99" fill="#2865A2"/>
<path fill-rule="evenodd" clip-rule="evenodd" d="M81.98 20.42H85.6L82.62 31.6L78.97 31.67L81.98 20.42Z" fill="#2865A2"/>
<path fill-rule="evenodd" clip-rule="evenodd" d="M98.5899 14.55H102.25L97.8599 31.58L94.1899 31.54L98.5899 14.55Z" fill="#2865A2"/>
<path fill-rule="evenodd" clip-rule="evenodd" d="M97.32 43.43C97.39 42.9 97.53 42.36 97.73 41.82C97.93 41.28 98.17 40.76 98.46 40.25C98.75 39.75 99.08 39.27 99.44 38.81C99.8 38.36 100.18 37.94 100.58 37.58H101.41C100.57 38.57 99.9 39.55 99.41 40.54C98.92 41.53 98.61 42.49 98.48 43.43C98.35 44.37 98.4 45.33 98.62 46.32C98.84 47.31 99.24 48.29 99.81 49.28H98.98C98.68 48.91 98.41 48.5 98.17 48.04C97.93 47.58 97.74 47.11 97.58 46.6C97.43 46.09 97.32 45.57 97.27 45.03C97.22 44.49 97.23 43.96 97.3 43.42" fill="#63696A"/>
<path fill-rule="evenodd" clip-rule="evenodd" d="M110.16 38.37C109.89 38.84 109.55 39.27 109.14 39.67C108.73 40.07 108.26 40.44 107.73 40.79C108.22 41.05 108.76 41.28 109.34 41.49C109.92 41.7 110.54 41.87 111.2 42.02L110.54 42.94C109.83 42.76 109.16 42.53 108.53 42.27C107.9 42.01 107.31 41.7 106.76 41.35C106.09 41.7 105.38 42.01 104.61 42.29C103.85 42.56 103.05 42.8 102.21 43L101.81 42.1C102.63 41.93 103.38 41.73 104.09 41.49C104.79 41.25 105.42 41 105.99 40.72C106.55 40.44 107.05 40.16 107.47 39.86C107.9 39.57 108.24 39.27 108.49 38.96C108.01 38.99 107.54 39 107.08 39C106.62 39 106.16 39 105.69 39H103.34L103.47 38.07H108.34C108.89 38.07 109.46 38.07 110.05 38.05C110.14 38.05 110.2 38.07 110.22 38.15C110.24 38.23 110.22 38.3 110.18 38.36L110.16 38.37ZM100.88 43.98H111.53L111.4 44.92H106.71L106.15 49H105.05L105.61 44.92H100.75L100.88 43.98Z" fill="#63696A"/>
<path fill-rule="evenodd" clip-rule="evenodd" d="M115.35 43.43C115.28 43.96 115.14 44.5 114.94 45.04C114.74 45.58 114.5 46.1 114.21 46.61C113.92 47.12 113.59 47.59 113.23 48.05C112.87 48.5 112.48 48.92 112.08 49.29H111.26C112.1 48.3 112.77 47.32 113.26 46.33C113.75 45.34 114.06 44.38 114.19 43.44C114.32 42.5 114.27 41.54 114.05 40.55C113.83 39.56 113.43 38.57 112.86 37.59H113.69C113.99 37.96 114.26 38.37 114.5 38.82C114.74 39.28 114.93 39.76 115.09 40.26C115.24 40.77 115.35 41.29 115.4 41.83C115.45 42.37 115.44 42.91 115.37 43.44" fill="#63696A"/>
<path fill-rule="evenodd" clip-rule="evenodd" d="M50.7 49.06H49.63L51.19 37.62H52.26L50.7 49.06ZM48.92 37.75H49.99L48.48 48.77H47.42L48.26 42.58H46.78L46.9 41.69H48.38L48.92 37.74V37.75ZM41.97 46.18L43.01 38.56H47.09L46.97 39.48H43.99L43.66 41.9H46.29L46.17 42.8H43.54L43.21 45.24H43.76C44.47 45.24 45.12 45.19 45.71 45.1C46.3 45 46.79 44.91 47.18 44.83L47.06 45.73C46.85 45.79 46.61 45.84 46.32 45.9C46.04 45.96 45.74 46 45.43 46.04C45.11 46.08 44.79 46.12 44.46 46.14C44.13 46.16 43.81 46.18 43.5 46.18H41.97Z" fill="#63696A"/>
<path fill-rule="evenodd" clip-rule="evenodd" d="M61.08 39.59H54.73L54.85 38.66H62.26C62.16 39.28 62.04 39.93 61.9 40.6C61.76 41.27 61.61 41.95 61.44 42.62C61.27 43.29 61.1 43.95 60.93 44.59C60.75 45.23 60.58 45.83 60.4 46.38H62.85L62.73 47.29H52.08L52.2 46.38H59.29C59.47 45.85 59.65 45.31 59.82 44.74C59.99 44.17 60.16 43.59 60.32 42.99C59.83 43.07 59.32 43.12 58.77 43.15C58.22 43.18 57.64 43.19 57.04 43.19H54.06L54.18 42.27H57.39C57.97 42.27 58.53 42.27 59.06 42.24C59.59 42.22 60.09 42.18 60.55 42.12C60.65 41.69 60.74 41.27 60.83 40.85C60.91 40.43 60.99 40 61.06 39.58" fill="#63696A"/>
<path fill-rule="evenodd" clip-rule="evenodd" d="M72.72 37.63H73.8L73.01 43.42H71.93L72.72 37.63ZM68.87 40.4H65.69L65.47 42H68.65L68.87 40.4ZM72.5 48.94H65.06L65.46 46.03H71.58L71.72 44.99H65.6L65.73 44.06H72.92L72.53 46.94H66.41L66.26 48.01H72.63L72.5 48.94ZM64.24 42.93L64.92 37.97H66.02L65.81 39.5H68.99L69.2 37.97H70.28L69.6 42.93H64.24Z" fill="#63696A"/>
<path fill-rule="evenodd" clip-rule="evenodd" d="M82.47 44.92H81.42C81.75 44.1 82.03 43.22 82.28 42.28C82.52 41.34 82.72 40.41 82.87 39.49H76.5L76.63 38.53H84.07C83.99 39.04 83.9 39.57 83.78 40.13C83.67 40.69 83.54 41.25 83.4 41.8C83.26 42.35 83.11 42.9 82.95 43.43C82.79 43.96 82.63 44.46 82.47 44.91V44.92ZM80.89 42.5L80.36 46.38H84.58L84.45 47.29H73.8L73.92 46.38H76.84L77.37 42.5H78.38L77.85 46.4H79.33L79.86 42.5H80.87H80.89Z" fill="#63696A"/>
<path fill-rule="evenodd" clip-rule="evenodd" d="M91.68 45.42L91.9 43.82H89.1L88.88 45.42H91.69H91.68ZM93.6 39.87C93.62 39.69 93.6 39.51 93.52 39.33C93.44 39.16 93.31 39 93.12 38.87C92.92 38.74 92.67 38.64 92.36 38.56C92.05 38.48 91.67 38.44 91.22 38.44C90.77 38.44 90.37 38.48 90.03 38.56C89.69 38.64 89.41 38.75 89.18 38.87C88.95 39 88.77 39.15 88.65 39.33C88.53 39.51 88.45 39.68 88.43 39.87C88.4 40.05 88.43 40.22 88.51 40.39C88.59 40.55 88.72 40.7 88.92 40.82C89.12 40.95 89.37 41.04 89.69 41.11C90.01 41.18 90.4 41.22 90.85 41.22C91.3 41.22 91.69 41.19 92.02 41.11C92.35 41.04 92.63 40.94 92.86 40.82C93.09 40.7 93.27 40.55 93.39 40.39C93.51 40.22 93.59 40.05 93.61 39.87H93.6ZM94.78 39.84C94.73 40.17 94.61 40.48 94.41 40.76C94.21 41.04 93.95 41.28 93.6 41.48C93.26 41.68 92.85 41.84 92.36 41.95C91.87 42.06 91.32 42.12 90.7 42.12C90.08 42.12 89.53 42.06 89.08 41.95C88.63 41.84 88.26 41.68 87.97 41.48C87.68 41.28 87.47 41.04 87.36 40.76C87.24 40.48 87.2 40.17 87.25 39.84C87.29 39.51 87.42 39.2 87.61 38.92C87.81 38.64 88.08 38.4 88.42 38.19C88.77 37.98 89.18 37.82 89.67 37.7C90.15 37.58 90.71 37.52 91.34 37.52C91.97 37.52 92.49 37.58 92.95 37.7C93.41 37.82 93.78 37.98 94.06 38.19C94.34 38.4 94.55 38.64 94.67 38.92C94.79 39.2 94.83 39.51 94.78 39.84ZM87.77 45.41L87.99 43.82H85.02L85.15 42.91H96.06L95.94 43.82H93.01L92.79 45.41H93.94L93.44 49.09H92.36L92.74 46.33H86.27L86.4 45.4H87.79L87.77 45.41Z" fill="#63696A"/>
</svg>
