<svg width="120" height="50" viewBox="0 0 120 50" fill="none" xmlns="http://www.w3.org/2000/svg">
<path d="M5.40006 19.58C5.74006 20.94 6.76006 21.79 7.94006 22.44C9.46006 23.28 11.2901 23.63 12.9901 23.84C15.2801 24.11 17.6001 24.06 19.8901 23.87C20.2801 23.84 20.6601 23.79 21.0501 23.75C20.2301 26.74 18.8101 31.5 18.8101 31.5H24.7301L27.0801 22.71C29.8001 22.07 32.4701 21.24 35.0701 20.26C38.9901 18.78 42.9201 16.85 46.1701 14.17C47.3501 13.19 48.5001 12.06 49.2801 10.72C49.8301 9.76 50.2101 8.56 49.8901 7.47C49.8901 7.44 49.8601 7.42 49.8501 7.39C49.8901 7.62 49.8201 7.78 49.5901 7.96C49.4501 8.07 49.2901 8.15 49.1201 8.21C49.2701 7.8 49.3601 7.39 49.3601 7.01C49.3601 6.95 49.3601 6.89 49.3501 6.83C49.5701 6.96 49.7601 7.14 49.8501 7.39C49.8501 7.33 49.8301 7.27 49.8101 7.2C49.6801 6.79 49.4601 6.43 49.1901 6.11C48.9301 5.37 48.3401 4.74 47.4301 4.26C45.6001 3.29 42.6201 2.92 39.0201 3.12C35.1201 3.09 31.1901 3.72 27.4201 4.64C22.6901 5.79 18.0101 7.5 13.7601 9.9C12.4801 10.62 11.2301 11.39 10.0501 12.27C11.2401 10.92 13.2601 9.3 16.5901 7.38C23.0501 3.68 31.0901 1.93 32.5101 1.67C38.5801 0.54 44.0501 1.22 43.9901 1.58C43.9501 1.83 43.7901 1.5 43.1501 2.19C42.9601 2.4 46.9001 2.68 46.9901 2.76C47.0701 2.84 45.5101 0 45.5101 0C45.5101 0 45.4001 0.81 45.0401 0.69C43.6801 0.24 38.1301 -0.38 32.0601 0.69C25.8401 1.78 18.6901 4.52 15.1701 6.62C11.5701 8.77 6.26006 12.08 5.24006 15.9C4.86006 17.3 4.97006 18.35 5.33006 19.14C5.34006 19.29 5.37006 19.43 5.40006 19.58ZM21.6001 21.59C19.5701 21.89 17.6601 22.03 15.9501 22.02C17.7401 21.95 19.7201 21.77 21.5901 21.4C21.5901 21.4 21.6001 21.4 21.6101 21.4C21.6301 21.4 21.6301 21.47 21.6101 21.6L21.6001 21.59ZM39.1601 15.44C39.0601 15.5 38.9501 15.56 38.8501 15.62C38.8201 15.64 38.7101 15.7 38.6601 15.73C38.7001 15.71 38.7401 15.69 38.7801 15.67C38.6301 15.76 38.6201 15.76 38.6601 15.73C38.4501 15.85 38.2301 15.97 38.0201 16.09C36.2101 17.09 34.3201 17.93 32.3901 18.69C31.9801 18.83 31.5601 18.96 31.1401 19.09C30.0201 19.43 28.9001 19.74 27.8001 20L27.8601 19.77C27.8601 19.77 33.9001 18.18 39.9801 14.9C39.7001 15.08 39.4301 15.26 39.1501 15.43L39.1601 15.44ZM48.8201 8.3C48.6401 8.35 48.4601 8.38 48.2801 8.41C48.2101 8.41 48.1401 8.41 48.0701 8.41C48.0701 8.12 48.0301 7.83 47.9501 7.55C47.8301 7.16 47.6201 6.82 47.3501 6.49C47.4701 6.49 47.5901 6.46 47.7001 6.46C48.1101 6.46 48.6401 6.5 49.0701 6.67C49.1401 7.17 49.0501 7.71 48.8201 8.29V8.3ZM47.3201 4.47C47.8701 4.76 48.2801 5.11 48.5801 5.5C48.1501 5.14 47.6601 4.85 47.1801 4.6C45.8301 3.91 44.2901 3.57 42.7801 3.37C44.6501 3.51 46.2101 3.88 47.3201 4.47ZM10.0901 17.27C10.3701 16.71 10.7301 16.2 11.1301 15.72C11.2401 15.59 11.3501 15.46 11.4601 15.34C11.4801 15.32 11.5101 15.29 11.5401 15.25C11.5201 15.27 11.5001 15.29 11.4701 15.32C11.6201 15.16 11.5901 15.2 11.5401 15.25C11.5801 15.21 11.6201 15.17 11.6601 15.13C11.9501 14.84 12.2401 14.57 12.5501 14.3C13.2001 13.73 13.9001 13.21 14.6101 12.71C14.9901 12.45 15.3701 12.2 15.7501 11.96C15.9501 11.83 16.1501 11.71 16.3601 11.59C16.4401 11.54 16.5101 11.5 16.5901 11.45C16.5301 11.49 16.5201 11.49 16.6701 11.4C16.6401 11.41 16.6201 11.43 16.5901 11.45C16.6701 11.41 16.8201 11.31 16.8601 11.3C17.8001 10.77 18.7601 10.28 19.7301 9.82C20.7801 9.33 21.8501 8.87 22.9301 8.45C23.4701 8.24 24.0201 8.04 24.5701 7.84C24.5901 7.84 24.6001 7.83 24.6201 7.82C24.3601 7.91 24.9301 7.71 24.6201 7.82C24.6401 7.82 24.6601 7.81 24.6901 7.8C24.8301 7.75 24.9701 7.7 25.1201 7.66C25.4501 7.55 25.7901 7.44 26.1201 7.34C27.3801 6.94 28.6501 6.59 29.9401 6.28C30.5401 6.14 31.1401 6 31.7401 5.88C31.8601 5.86 31.9801 5.83 32.1001 5.81C32.0901 5.81 32.5801 5.72 32.1801 5.79C32.1501 5.79 32.1301 5.8 32.1001 5.81C32.1001 5.81 32.1401 5.81 32.2501 5.78C32.5901 5.72 32.9201 5.66 33.2601 5.61C34.1101 5.47 34.9601 5.37 35.8201 5.28C37.5201 5.12 39.0701 5.09 40.4401 5.16C40.8501 5.19 41.2601 5.24 41.6701 5.3C41.8001 5.32 41.9201 5.34 42.0501 5.36C41.8901 5.33 41.8301 5.32 42.2601 5.39C42.1901 5.38 42.1201 5.37 42.0501 5.36C42.1601 5.38 42.3201 5.41 42.3901 5.43C42.7101 5.51 43.0301 5.6 43.3501 5.7C43.2001 5.64 43.1201 5.61 43.5001 5.74C43.4501 5.72 43.4001 5.71 43.3501 5.7C43.4601 5.74 43.6001 5.79 43.6701 5.82C43.8401 5.89 44.0001 5.96 44.1601 6.05C44.2101 6.07 44.2501 6.1 44.3001 6.13C44.3001 6.13 44.3001 6.13 44.2901 6.13C43.9901 5.96 44.1801 6.06 44.2901 6.13C44.3101 6.14 44.3301 6.15 44.3601 6.17C44.3401 6.16 44.3201 6.15 44.3101 6.14C44.3101 6.14 44.3301 6.14 44.3301 6.15C44.4801 6.25 44.6301 6.36 44.7601 6.47C44.8401 6.53 44.9101 6.6 44.9801 6.67C44.9501 6.64 44.9801 6.65 45.0901 6.77C45.0501 6.73 45.0101 6.7 44.9801 6.67C45.0201 6.72 45.1801 6.9 45.2201 6.96C45.3601 7.15 45.4601 7.37 45.5401 7.6C45.5401 7.56 45.5401 7.53 45.5201 7.49C45.4301 7.18 45.9701 6.88 46.1601 6.79C46.1901 6.78 46.2201 6.78 46.2401 6.77C46.6301 7.1 46.9001 7.46 47.0201 7.87C47.0701 8.04 47.0901 8.23 47.1001 8.41C46.9301 8.39 46.7601 8.38 46.6001 8.33C46.3301 8.26 45.7001 8.07 45.5901 7.74C45.5701 7.69 45.5501 7.64 45.5301 7.58C45.6401 8 45.6601 8.42 45.5901 8.85C45.5701 8.97 45.5401 9.08 45.5201 9.2V9.18C45.5901 8.96 45.4601 9.42 45.5201 9.21C45.5001 9.26 45.4801 9.31 45.4701 9.36C45.3701 9.63 45.2401 9.89 45.1101 10.14C45.0601 10.24 44.9901 10.32 44.9301 10.41C43.6201 9.94 41.6601 9.33 41.6601 9.33C41.6601 9.33 33.7601 15.49 22.2501 17.32C13.2001 18.75 10.9501 18.19 9.99006 17.59C10.0301 17.49 10.0701 17.38 10.1201 17.27H10.0901ZM5.20006 39H36.9901L35.0701 45.98L5.21006 46V39.01L5.20006 39ZM110.01 19.62C105.22 19.65 101.94 23.81 102.13 26.63C102.32 29.41 103.71 31.78 108.61 31.58C110.63 31.5 113.15 30.16 114.71 27.62H111.34C111.12 27.97 110.16 29.11 108.19 29.11C106.56 29.11 104.8 28.09 104.91 26.33H115.42C115.65 25.59 115.77 25.04 115.8 24.5C115.67 22.22 114.61 19.6 110.01 19.62ZM105.75 24.26C106.03 23.19 107.4 22.12 109.67 22.12C111.72 22.12 112.73 22.78 112.64 24.28L105.75 24.25V24.26ZM46.4601 27.62H43.0901C42.8601 27.97 41.9101 29.11 39.9401 29.11C38.3101 29.11 36.5401 28.09 36.6601 26.33H47.1601C47.3901 25.59 47.5201 25.04 47.5501 24.5C47.4101 22.22 46.3601 19.6 41.7501 19.62C36.9601 19.65 33.6901 23.81 33.8701 26.63C34.0501 29.41 35.4501 31.78 40.3501 31.58C42.3701 31.5 44.8901 30.16 46.4501 27.62H46.4601ZM41.4201 22.13C43.4701 22.13 44.4801 22.79 44.3901 24.29L37.5001 24.26C37.7901 23.19 39.1501 22.12 41.4201 22.12V22.13ZM59.5601 20.43H63.7301L57.3301 26L60.8701 31.6H56.6301L53.5401 26.79L53.2501 27.94L52.4101 31.61H48.6101L53.0501 14.55H56.7601L54.0401 24.85L53.9601 25.26L59.5701 20.43H59.5601ZM67.1901 31.6L64.9401 20.42H68.5301L69.4401 25.22C69.4701 25.28 69.5001 25.46 69.5501 25.67C69.6901 26.36 69.8501 27.05 69.9101 27.84H69.9601C70.0501 27.64 70.1301 27.54 70.4401 27.11L71.0001 26.34C71.2301 25.99 71.5601 25.52 71.9201 25.05L75.3601 20.41H79.5901L71.3601 31.58H67.2001L67.1901 31.6ZM90.5301 31.6H86.8501L91.2601 14.55H94.9301L90.5301 31.6ZM82.9001 18.36C82.1401 17.61 82.2801 16.23 83.2101 15.28C84.1401 14.33 85.5201 14.17 86.2801 14.92C87.0401 15.67 86.9001 17.04 85.9701 17.99C85.0401 18.94 83.6601 19.1 82.9001 18.36ZM78.9801 31.68L81.9901 20.43H85.6101L82.6401 31.61L78.9901 31.68H78.9801ZM94.2001 31.56L98.6101 14.57H102.27L97.8801 31.6L94.2101 31.56H94.2001ZM98.6401 46.33C98.8601 47.32 99.2601 48.3 99.8301 49.29H99.0001C98.7001 48.92 98.4301 48.51 98.1901 48.06C97.9501 47.6 97.7601 47.13 97.6001 46.62C97.4501 46.11 97.3401 45.59 97.2901 45.05C97.2401 44.51 97.2501 43.98 97.3201 43.44C97.3901 42.91 97.5301 42.37 97.7301 41.83C97.9301 41.29 98.1701 40.77 98.4601 40.26C98.7501 39.75 99.0801 39.28 99.4401 38.82C99.8001 38.37 100.18 37.95 100.58 37.59H101.41C100.57 38.58 99.9001 39.56 99.4101 40.55C98.9201 41.54 98.6101 42.5 98.4901 43.44C98.3601 44.38 98.4101 45.34 98.6301 46.33H98.6401ZM108.49 38.97C108.01 39 107.54 39.01 107.08 39.01C106.62 39.01 106.16 39.01 105.69 39.01H103.34L103.47 38.08H108.34C108.89 38.08 109.46 38.08 110.05 38.06C110.14 38.06 110.2 38.08 110.22 38.16C110.24 38.24 110.22 38.31 110.18 38.37C109.91 38.84 109.57 39.27 109.16 39.67C108.75 40.07 108.28 40.44 107.75 40.79C108.24 41.05 108.78 41.28 109.36 41.49C109.94 41.7 110.56 41.88 111.22 42.02L110.56 42.93C109.85 42.75 109.18 42.52 108.55 42.27C107.92 42.01 107.33 41.7 106.78 41.35C106.11 41.7 105.4 42.01 104.63 42.28C103.87 42.55 103.07 42.79 102.23 42.99L101.83 42.09C102.65 41.92 103.4 41.72 104.11 41.48C104.81 41.24 105.44 40.99 106.01 40.71C106.57 40.43 107.07 40.15 107.49 39.85C107.91 39.56 108.26 39.26 108.51 38.95L108.49 38.97ZM111.41 44.93H106.72L106.16 49.01H105.06L105.62 44.93H100.76L100.89 43.99H111.53L111.4 44.93H111.41ZM115.39 41.83C115.44 42.37 115.43 42.91 115.36 43.44C115.28 43.97 115.15 44.51 114.95 45.05C114.75 45.59 114.51 46.11 114.22 46.62C113.93 47.13 113.6 47.6 113.24 48.06C112.88 48.51 112.49 48.92 112.09 49.29H111.26C112.1 48.3 112.77 47.32 113.26 46.33C113.75 45.34 114.06 44.38 114.19 43.44C114.32 42.5 114.27 41.54 114.05 40.55C113.83 39.56 113.43 38.57 112.86 37.59H113.69C113.99 37.96 114.26 38.37 114.5 38.82C114.74 39.28 114.93 39.76 115.09 40.26C115.24 40.77 115.35 41.29 115.4 41.83H115.39ZM45.7301 45.11C46.3201 45.01 46.8101 44.93 47.2001 44.84L47.0801 45.74C46.8701 45.8 46.6201 45.85 46.3401 45.91C46.0601 45.96 45.7601 46.01 45.4501 46.05C45.1301 46.09 44.8101 46.13 44.4801 46.15C44.1501 46.17 43.8301 46.19 43.5201 46.19H41.9901L43.0301 38.57H47.1101L46.9901 39.49H44.0101L43.6801 41.91H46.3101L46.1901 42.81H43.5601L43.2201 45.25H43.7701C44.4801 45.25 45.1301 45.2 45.7201 45.11H45.7301ZM50.0101 37.76L48.5001 48.78H47.4301L48.2701 42.59H46.7901L46.9101 41.7H48.3901L48.9301 37.75H50.0001L50.0101 37.76ZM52.2801 37.64L50.7201 49.07H49.6501L51.2101 37.64H52.2801ZM60.4301 46.41H62.8801L62.7601 47.32H52.1101L52.2301 46.41H59.3201C59.5001 45.88 59.6801 45.34 59.8501 44.77C60.0201 44.2 60.1901 43.62 60.3501 43.02C59.8601 43.1 59.3501 43.15 58.8001 43.18C58.2501 43.21 57.6701 43.22 57.0701 43.22H54.0901L54.2101 42.3H57.4201C58.0001 42.3 58.5601 42.3 59.0901 42.27C59.6201 42.25 60.1201 42.21 60.5801 42.15C60.6801 41.72 60.7701 41.3 60.8601 40.88C60.9401 40.46 61.0201 40.03 61.0901 39.61H54.7401L54.8601 38.68H62.2701C62.1701 39.3 62.0501 39.95 61.9101 40.62C61.7701 41.29 61.6201 41.97 61.4501 42.64C61.2901 43.31 61.1101 43.97 60.9401 44.61C60.7601 45.25 60.5901 45.85 60.4101 46.4L60.4301 46.41ZM72.7401 37.64H73.8201L73.0301 43.43H71.9501L72.7401 37.64ZM66.4201 46.96L66.2701 48.03H72.6401L72.5101 48.96H65.0701L65.4701 46.05H71.5901L71.7301 45.01H65.6101L65.7401 44.08H72.9301L72.5401 46.96H66.4201ZM70.3001 37.98H69.2201L69.0101 39.51H65.8301L66.0401 37.98H64.9401L64.2601 42.94H69.6201L70.3001 37.98ZM68.6801 42.01H65.5001L65.7201 40.41H68.9001L68.6801 42.01ZM82.3001 42.29C82.5401 41.35 82.7401 40.42 82.8901 39.5H76.5201L76.6501 38.54H84.0901C84.0101 39.05 83.9201 39.58 83.8001 40.14C83.6801 40.7 83.5601 41.26 83.4201 41.81C83.2801 42.36 83.1301 42.91 82.9701 43.44C82.8101 43.98 82.6501 44.47 82.4901 44.92H81.4401C81.7701 44.1 82.0501 43.22 82.3001 42.28V42.29ZM80.3901 46.39H84.6101L84.4801 47.3H73.8301L73.9501 46.39H76.8701L77.4001 42.51H78.4101L77.8801 46.41H79.3601L79.8901 42.51H80.9001L80.3701 46.39H80.3901ZM85.0501 43.83H88.0201L87.8001 45.42H86.4101L86.2801 46.35H92.7501L92.3701 49.11H93.4501L93.9501 45.43H92.8001L93.0201 43.84H95.9501L96.0701 42.93H85.1601L85.0301 43.84L85.0501 43.83ZM89.1201 43.82H91.9201L91.7001 45.42H88.8901L89.1101 43.82H89.1201ZM94.0901 38.2C93.8101 37.99 93.4301 37.83 92.9801 37.71C92.5201 37.59 91.9901 37.53 91.3701 37.53C90.7501 37.53 90.1901 37.59 89.7101 37.71C89.2301 37.82 88.8101 37.99 88.4701 38.2C88.1201 38.41 87.8501 38.65 87.6601 38.93C87.4601 39.21 87.3401 39.52 87.3001 39.85C87.2501 40.18 87.3001 40.49 87.4101 40.77C87.5301 41.05 87.7301 41.29 88.0201 41.49C88.3101 41.69 88.6801 41.85 89.1301 41.96C89.5801 42.07 90.1201 42.13 90.7501 42.13C91.3801 42.13 91.9201 42.07 92.4101 41.96C92.9001 41.85 93.3101 41.69 93.6501 41.49C93.9901 41.29 94.2601 41.05 94.4501 40.77C94.6501 40.49 94.7701 40.18 94.8201 39.85C94.8601 39.52 94.8201 39.21 94.7101 38.93C94.5901 38.65 94.3901 38.41 94.1001 38.2H94.0901ZM93.4101 40.4C93.2901 40.56 93.1101 40.71 92.8801 40.83C92.6501 40.96 92.3701 41.05 92.0401 41.12C91.7101 41.19 91.3201 41.23 90.8701 41.23C90.4201 41.23 90.0301 41.2 89.7101 41.12C89.3901 41.05 89.1301 40.95 88.9401 40.83C88.7401 40.71 88.6101 40.56 88.5301 40.4C88.4501 40.23 88.4201 40.06 88.4501 39.88C88.4701 39.7 88.5501 39.52 88.6701 39.34C88.7901 39.17 88.9701 39.01 89.2001 38.88C89.4301 38.75 89.7201 38.65 90.0601 38.57C90.4001 38.49 90.8001 38.45 91.2501 38.45C91.7001 38.45 92.0801 38.49 92.3901 38.57C92.7001 38.65 92.9501 38.75 93.1501 38.88C93.3401 39.01 93.4801 39.16 93.5501 39.34C93.6301 39.52 93.6501 39.69 93.6301 39.88C93.6001 40.06 93.5301 40.23 93.4101 40.4Z" fill="white"/>
</svg>
