<svg width="120" height="51" viewBox="0 0 120 51" fill="none" xmlns="http://www.w3.org/2000/svg">
<g clip-path="url(#clip0_25_551)">
<path d="M5.4 20.1401C5.74 21.5001 6.76 22.3501 7.94 23.0001C9.46 23.8401 11.29 24.1901 12.99 24.4001C15.28 24.6701 17.6 24.6201 19.89 24.4301C20.28 24.4001 20.66 24.3501 21.05 24.3101C20.23 27.3001 18.81 32.0601 18.81 32.0601H24.73L27.08 23.2701C29.8 22.6301 32.47 21.8001 35.07 20.8201C38.99 19.3401 42.92 17.4101 46.17 14.7301C47.35 13.7501 48.5 12.6201 49.28 11.2801C49.83 10.3201 50.21 9.12006 49.89 8.03006C49.89 8.00006 49.86 7.98006 49.85 7.95006C49.89 8.18006 49.82 8.34006 49.59 8.52006C49.45 8.63006 49.29 8.71006 49.12 8.77006C49.27 8.36006 49.36 7.95006 49.36 7.57006C49.36 7.51006 49.36 7.45006 49.35 7.39006C49.57 7.52006 49.76 7.70006 49.85 7.95006C49.85 7.89006 49.83 7.83006 49.81 7.76006C49.68 7.35006 49.46 6.99006 49.19 6.67006C48.93 5.93006 48.34 5.30006 47.43 4.82006C45.6 3.85006 42.62 3.48006 39.02 3.68006C35.12 3.65006 31.19 4.28006 27.42 5.20006C22.69 6.35006 18.01 8.06006 13.76 10.4601C12.48 11.1801 11.23 11.9501 10.05 12.8301C11.24 11.4801 13.26 9.86006 16.59 7.94006C23.05 4.24006 31.09 2.49006 32.51 2.23006C38.58 1.10006 44.05 1.78006 43.99 2.14006C43.95 2.39006 43.79 2.06006 43.15 2.75006C42.96 2.96006 46.9 3.24006 46.99 3.32006C47.07 3.40006 45.51 0.560059 45.51 0.560059C45.51 0.560059 45.4 1.37006 45.04 1.25006C43.68 0.800059 38.13 0.180059 32.06 1.25006C25.84 2.34006 18.69 5.08006 15.17 7.18006C11.57 9.33006 6.26 12.6401 5.24 16.4601C4.86 17.8601 4.97 18.9101 5.33 19.7001C5.34 19.8501 5.37 19.9901 5.4 20.1401V20.1401ZM21.6 22.1501C19.57 22.4501 17.66 22.5901 15.95 22.5801C17.74 22.5101 19.72 22.3301 21.59 21.9601C21.59 21.9601 21.6 21.9601 21.61 21.9601C21.63 21.9601 21.63 22.0301 21.61 22.1601L21.6 22.1501ZM39.16 16.0001C39.06 16.0601 38.95 16.1201 38.85 16.1801C38.82 16.2001 38.71 16.2601 38.66 16.2901C38.7 16.2701 38.74 16.2501 38.78 16.2301C38.63 16.3201 38.62 16.3201 38.66 16.2901C38.45 16.4101 38.23 16.5301 38.02 16.6501C36.21 17.6501 34.32 18.4901 32.39 19.2501C31.98 19.3901 31.56 19.5201 31.14 19.6501C30.02 19.9901 28.9 20.3001 27.8 20.5601L27.86 20.3301C27.86 20.3301 33.9 18.7401 39.98 15.4601C39.7 15.6401 39.43 15.8201 39.15 15.9901L39.16 16.0001ZM48.82 8.86006C48.64 8.91006 48.46 8.94006 48.28 8.97006C48.21 8.97006 48.14 8.97006 48.07 8.97006C48.07 8.68006 48.03 8.39006 47.95 8.11006C47.83 7.72006 47.62 7.38006 47.35 7.05006C47.47 7.05006 47.59 7.02006 47.7 7.02006C48.11 7.02006 48.64 7.06006 49.07 7.23006C49.14 7.73006 49.05 8.27006 48.82 8.85006V8.86006ZM47.32 5.03006C47.87 5.32006 48.28 5.67006 48.58 6.06006C48.15 5.70006 47.66 5.41006 47.18 5.16006C45.83 4.47006 44.29 4.13006 42.78 3.93006C44.65 4.07006 46.21 4.44006 47.32 5.03006ZM10.09 17.8301C10.37 17.2701 10.73 16.7601 11.13 16.2801C11.24 16.1501 11.35 16.0201 11.46 15.9001C11.48 15.8801 11.51 15.8501 11.54 15.8101C11.52 15.8301 11.5 15.8501 11.47 15.8801C11.62 15.7201 11.59 15.7601 11.54 15.8101C11.58 15.7701 11.62 15.7301 11.66 15.6901C11.95 15.4001 12.24 15.1301 12.55 14.8601C13.2 14.2901 13.9 13.7701 14.61 13.2701C14.99 13.0101 15.37 12.7601 15.75 12.5201C15.95 12.3901 16.15 12.2701 16.36 12.1501C16.44 12.1001 16.51 12.0601 16.59 12.0101C16.53 12.0501 16.52 12.0501 16.67 11.9601C16.64 11.9701 16.62 11.9901 16.59 12.0101C16.67 11.9701 16.82 11.8701 16.86 11.8601C17.8 11.3301 18.76 10.8401 19.73 10.3801C20.78 9.89006 21.85 9.43006 22.93 9.01006C23.47 8.80006 24.02 8.60006 24.57 8.40006C24.59 8.40006 24.6 8.39006 24.62 8.38006C24.36 8.47006 24.93 8.27006 24.62 8.38006C24.64 8.38006 24.66 8.37006 24.69 8.36006C24.83 8.31006 24.97 8.26006 25.12 8.22006C25.45 8.11006 25.79 8.00006 26.12 7.90006C27.38 7.50006 28.65 7.15006 29.94 6.84006C30.54 6.70006 31.14 6.56006 31.74 6.44006C31.86 6.42006 31.98 6.39006 32.1 6.37006C32.09 6.37006 32.58 6.28006 32.18 6.35006C32.15 6.35006 32.13 6.36006 32.1 6.37006C32.1 6.37006 32.14 6.37006 32.25 6.34006C32.59 6.28006 32.92 6.22006 33.26 6.17006C34.11 6.03006 34.96 5.93006 35.82 5.84006C37.52 5.68006 39.07 5.65006 40.44 5.72006C40.85 5.75006 41.26 5.80006 41.67 5.86006C41.8 5.88006 41.92 5.90006 42.05 5.92006C41.89 5.89006 41.83 5.88006 42.26 5.95006C42.19 5.94006 42.12 5.93006 42.05 5.92006C42.16 5.94006 42.32 5.97006 42.39 5.99006C42.71 6.07006 43.03 6.16006 43.35 6.26006C43.2 6.20006 43.12 6.17006 43.5 6.30006C43.45 6.28006 43.4 6.27006 43.35 6.26006C43.46 6.30006 43.6 6.35006 43.67 6.38006C43.84 6.45006 44 6.52006 44.16 6.61006C44.21 6.63006 44.25 6.66006 44.3 6.69006C44.3 6.69006 44.3 6.69006 44.29 6.69006C43.99 6.52006 44.18 6.62006 44.29 6.69006C44.31 6.70006 44.33 6.71006 44.36 6.73006C44.34 6.72006 44.32 6.71006 44.31 6.70006C44.31 6.70006 44.33 6.70006 44.33 6.71006C44.48 6.81006 44.63 6.92006 44.76 7.03006C44.84 7.09006 44.91 7.16006 44.98 7.23006C44.95 7.20006 44.98 7.21006 45.09 7.33006C45.05 7.29006 45.01 7.26006 44.98 7.23006C45.02 7.28006 45.18 7.46006 45.22 7.52006C45.36 7.71006 45.46 7.93006 45.54 8.16006C45.54 8.12006 45.54 8.09006 45.52 8.05006C45.43 7.74006 45.97 7.44006 46.16 7.35006C46.19 7.34006 46.22 7.34006 46.24 7.33006C46.63 7.66006 46.9 8.02006 47.02 8.43006C47.07 8.60006 47.09 8.79006 47.1 8.97006C46.93 8.95006 46.76 8.94006 46.6 8.89006C46.33 8.82006 45.7 8.63006 45.59 8.30006C45.57 8.25006 45.55 8.20006 45.53 8.14006C45.64 8.56006 45.66 8.98006 45.59 9.41006C45.57 9.53006 45.54 9.64006 45.52 9.76006V9.74006C45.59 9.52006 45.46 9.98006 45.52 9.77006C45.5 9.82006 45.48 9.87006 45.47 9.92006C45.37 10.1901 45.24 10.4501 45.11 10.7001C45.06 10.8001 44.99 10.8801 44.93 10.9701C43.62 10.5001 41.66 9.89006 41.66 9.89006C41.66 9.89006 33.76 16.0501 22.25 17.8801C13.2 19.3101 10.95 18.7501 9.99 18.1501C10.03 18.0501 10.07 17.9401 10.12 17.8301H10.09ZM5.2 39.5601H36.99L35.07 46.5401L5.21 46.5601V39.5701L5.2 39.5601ZM110.01 20.1801C105.22 20.2101 101.94 24.3701 102.13 27.1901C102.32 29.9701 103.71 32.3401 108.61 32.1401C110.63 32.0601 113.15 30.7201 114.71 28.1801H111.34C111.12 28.5301 110.16 29.6701 108.19 29.6701C106.56 29.6701 104.8 28.6501 104.91 26.8901H115.42C115.65 26.1501 115.77 25.6001 115.8 25.0601C115.67 22.7801 114.61 20.1601 110.01 20.1801V20.1801ZM105.75 24.8201C106.03 23.7501 107.4 22.6801 109.67 22.6801C111.72 22.6801 112.73 23.3401 112.64 24.8401L105.75 24.8101V24.8201ZM46.46 28.1801H43.09C42.86 28.5301 41.91 29.6701 39.94 29.6701C38.31 29.6701 36.54 28.6501 36.66 26.8901H47.16C47.39 26.1501 47.52 25.6001 47.55 25.0601C47.41 22.7801 46.36 20.1601 41.75 20.1801C36.96 20.2101 33.69 24.3701 33.87 27.1901C34.05 29.9701 35.45 32.3401 40.35 32.1401C42.37 32.0601 44.89 30.7201 46.45 28.1801H46.46ZM41.42 22.6901C43.47 22.6901 44.48 23.3501 44.39 24.8501L37.5 24.8201C37.79 23.7501 39.15 22.6801 41.42 22.6801V22.6901ZM59.56 20.9901H63.73L57.33 26.5601L60.87 32.1601H56.63L53.54 27.3501L53.25 28.5001L52.41 32.1701H48.61L53.05 15.1101H56.76L54.04 25.4101L53.96 25.8201L59.57 20.9901H59.56ZM67.19 32.1601L64.94 20.9801H68.53L69.44 25.7801C69.47 25.8401 69.5 26.0201 69.55 26.2301C69.69 26.9201 69.85 27.6101 69.91 28.4001H69.96C70.05 28.2001 70.13 28.1001 70.44 27.6701L71 26.9001C71.23 26.5501 71.56 26.0801 71.92 25.6101L75.36 20.9701H79.59L71.36 32.1401H67.2L67.19 32.1601ZM90.53 32.1601H86.85L91.26 15.1101H94.93L90.53 32.1601V32.1601ZM82.9 18.9201C82.14 18.1701 82.28 16.7901 83.21 15.8401C84.14 14.8901 85.52 14.7301 86.28 15.4801C87.04 16.2301 86.9 17.6001 85.97 18.5501C85.04 19.5001 83.66 19.6601 82.9 18.9201ZM78.98 32.2401L81.99 20.9901H85.61L82.64 32.1701L78.99 32.2401H78.98ZM94.2 32.1201L98.61 15.1301H102.27L97.88 32.1601L94.21 32.1201H94.2ZM98.64 46.8901C98.86 47.8801 99.26 48.8601 99.83 49.8501H99C98.7 49.4801 98.43 49.0701 98.19 48.6201C97.95 48.1601 97.76 47.6901 97.6 47.1801C97.45 46.6701 97.34 46.1501 97.29 45.6101C97.24 45.0701 97.25 44.5401 97.32 44.0001C97.39 43.4701 97.53 42.9301 97.73 42.3901C97.93 41.8501 98.17 41.3301 98.46 40.8201C98.75 40.3101 99.08 39.8401 99.44 39.3801C99.8 38.9301 100.18 38.5101 100.58 38.1501H101.41C100.57 39.1401 99.9 40.1201 99.41 41.1101C98.92 42.1001 98.61 43.0601 98.49 44.0001C98.36 44.9401 98.41 45.9001 98.63 46.8901H98.64ZM108.49 39.5301C108.01 39.5601 107.54 39.5701 107.08 39.5701C106.62 39.5701 106.16 39.5701 105.69 39.5701H103.34L103.47 38.6401H108.34C108.89 38.6401 109.46 38.6401 110.05 38.6201C110.14 38.6201 110.2 38.6401 110.22 38.7201C110.24 38.8001 110.22 38.8701 110.18 38.9301C109.91 39.4001 109.57 39.8301 109.16 40.2301C108.75 40.6301 108.28 41.0001 107.75 41.3501C108.24 41.6101 108.78 41.8401 109.36 42.0501C109.94 42.2601 110.56 42.4401 111.22 42.5801L110.56 43.4901C109.85 43.3101 109.18 43.0801 108.55 42.8301C107.92 42.5701 107.33 42.2601 106.78 41.9101C106.11 42.2601 105.4 42.5701 104.63 42.8401C103.87 43.1101 103.07 43.3501 102.23 43.5501L101.83 42.6501C102.65 42.4801 103.4 42.2801 104.11 42.0401C104.81 41.8001 105.44 41.5501 106.01 41.2701C106.57 40.9901 107.07 40.7101 107.49 40.4101C107.91 40.1201 108.26 39.8201 108.51 39.5101L108.49 39.5301ZM111.41 45.4901H106.72L106.16 49.5701H105.06L105.62 45.4901H100.76L100.89 44.5501H111.53L111.4 45.4901H111.41ZM115.39 42.3901C115.44 42.9301 115.43 43.4701 115.36 44.0001C115.28 44.5301 115.15 45.0701 114.95 45.6101C114.75 46.1501 114.51 46.6701 114.22 47.1801C113.93 47.6901 113.6 48.1601 113.24 48.6201C112.88 49.0701 112.49 49.4801 112.09 49.8501H111.26C112.1 48.8601 112.77 47.8801 113.26 46.8901C113.75 45.9001 114.06 44.9401 114.19 44.0001C114.32 43.0601 114.27 42.1001 114.05 41.1101C113.83 40.1201 113.43 39.1301 112.86 38.1501H113.69C113.99 38.5201 114.26 38.9301 114.5 39.3801C114.74 39.8401 114.93 40.3201 115.09 40.8201C115.24 41.3301 115.35 41.8501 115.4 42.3901H115.39ZM45.73 45.6701C46.32 45.5701 46.81 45.4901 47.2 45.4001L47.08 46.3001C46.87 46.3601 46.62 46.4101 46.34 46.4701C46.06 46.5201 45.76 46.5701 45.45 46.6101C45.13 46.6501 44.81 46.6901 44.48 46.7101C44.15 46.7301 43.83 46.7501 43.52 46.7501H41.99L43.03 39.1301H47.11L46.99 40.0501H44.01L43.68 42.4701H46.31L46.19 43.3701H43.56L43.22 45.8101H43.77C44.48 45.8101 45.13 45.7601 45.72 45.6701H45.73ZM50.01 38.3201L48.5 49.3401H47.43L48.27 43.1501H46.79L46.91 42.2601H48.39L48.93 38.3101H50L50.01 38.3201ZM52.28 38.2001L50.72 49.6301H49.65L51.21 38.2001H52.28ZM60.43 46.9701H62.88L62.76 47.8801H52.11L52.23 46.9701H59.32C59.5 46.4401 59.68 45.9001 59.85 45.3301C60.02 44.7601 60.19 44.1801 60.35 43.5801C59.86 43.6601 59.35 43.7101 58.8 43.7401C58.25 43.7701 57.67 43.7801 57.07 43.7801H54.09L54.21 42.8601H57.42C58 42.8601 58.56 42.8601 59.09 42.8301C59.62 42.8101 60.12 42.7701 60.58 42.7101C60.68 42.2801 60.77 41.8601 60.86 41.4401C60.94 41.0201 61.02 40.5901 61.09 40.1701H54.74L54.86 39.2401H62.27C62.17 39.8601 62.05 40.5101 61.91 41.1801C61.77 41.8501 61.62 42.5301 61.45 43.2001C61.29 43.8701 61.11 44.5301 60.94 45.1701C60.76 45.8101 60.59 46.4101 60.41 46.9601L60.43 46.9701ZM72.74 38.2001H73.82L73.03 43.9901H71.95L72.74 38.2001ZM66.42 47.5201L66.27 48.5901H72.64L72.51 49.5201H65.07L65.47 46.6101H71.59L71.73 45.5701H65.61L65.74 44.6401H72.93L72.54 47.5201H66.42V47.5201ZM70.3 38.5401H69.22L69.01 40.0701H65.83L66.04 38.5401H64.94L64.26 43.5001H69.62L70.3 38.5401V38.5401ZM68.68 42.5701H65.5L65.72 40.9701H68.9L68.68 42.5701ZM82.3 42.8501C82.54 41.9101 82.74 40.9801 82.89 40.0601H76.52L76.65 39.1001H84.09C84.01 39.6101 83.92 40.1401 83.8 40.7001C83.68 41.2601 83.56 41.8201 83.42 42.3701C83.28 42.9201 83.13 43.4701 82.97 44.0001C82.81 44.5401 82.65 45.0301 82.49 45.4801H81.44C81.77 44.6601 82.05 43.7801 82.3 42.8401V42.8501ZM80.39 46.9501H84.61L84.48 47.8601H73.83L73.95 46.9501H76.87L77.4 43.0701H78.41L77.88 46.9701H79.36L79.89 43.0701H80.9L80.37 46.9501H80.39ZM85.05 44.3901H88.02L87.8 45.9801H86.41L86.28 46.9101H92.75L92.37 49.6701H93.45L93.95 45.9901H92.8L93.02 44.4001H95.95L96.07 43.4901H85.16L85.03 44.4001L85.05 44.3901ZM89.12 44.3801H91.92L91.7 45.9801H88.89L89.11 44.3801H89.12ZM94.09 38.7601C93.81 38.5501 93.43 38.3901 92.98 38.2701C92.52 38.1501 91.99 38.0901 91.37 38.0901C90.75 38.0901 90.19 38.1501 89.71 38.2701C89.23 38.3801 88.81 38.5501 88.47 38.7601C88.12 38.9701 87.85 39.2101 87.66 39.4901C87.46 39.7701 87.34 40.0801 87.3 40.4101C87.25 40.7401 87.3 41.0501 87.41 41.3301C87.53 41.6101 87.73 41.8501 88.02 42.0501C88.31 42.2501 88.68 42.4101 89.13 42.5201C89.58 42.6301 90.12 42.6901 90.75 42.6901C91.38 42.6901 91.92 42.6301 92.41 42.5201C92.9 42.4101 93.31 42.2501 93.65 42.0501C93.99 41.8501 94.26 41.6101 94.45 41.3301C94.65 41.0501 94.77 40.7401 94.82 40.4101C94.86 40.0801 94.82 39.7701 94.71 39.4901C94.59 39.2101 94.39 38.9701 94.1 38.7601H94.09ZM93.41 40.9601C93.29 41.1201 93.11 41.2701 92.88 41.3901C92.65 41.5201 92.37 41.6101 92.04 41.6801C91.71 41.7501 91.32 41.7901 90.87 41.7901C90.42 41.7901 90.03 41.7601 89.71 41.6801C89.39 41.6101 89.13 41.5101 88.94 41.3901C88.74 41.2701 88.61 41.1201 88.53 40.9601C88.45 40.7901 88.42 40.6201 88.45 40.4401C88.47 40.2601 88.55 40.0801 88.67 39.9001C88.79 39.7301 88.97 39.5701 89.2 39.4401C89.43 39.3101 89.72 39.2101 90.06 39.1301C90.4 39.0501 90.8 39.0101 91.25 39.0101C91.7 39.0101 92.08 39.0501 92.39 39.1301C92.7 39.2101 92.95 39.3101 93.15 39.4401C93.34 39.5701 93.48 39.7201 93.55 39.9001C93.63 40.0801 93.65 40.2501 93.63 40.4401C93.6 40.6201 93.53 40.7901 93.41 40.9601V40.9601Z" fill="white" fill-opacity="0.5"/>
</g>
<defs>
<clipPath id="clip0_25_551">
<rect width="120" height="50" fill="white" transform="translate(0 0.560059)"/>
</clipPath>
</defs>
</svg>
