<svg width="131" height="28" viewBox="0 0 131 28" fill="none" xmlns="http://www.w3.org/2000/svg">
<g id="Layer_1" clip-path="url(#clip0_1_3868)">
<g id="Group">
<path id="Vector" d="M40.5299 24.6501C28.7799 24.6501 17.6899 22.9301 7.92993 19.8701C16.2899 24.8901 27.8099 27.9901 40.5299 27.9901C53.2499 27.9901 64.7699 24.8901 73.1299 19.8701C63.3599 22.9201 52.2799 24.6501 40.5299 24.6501Z" fill="#4DB858"/>
<g id="Group_2">
<path id="Vector_2" d="M13.6499 14.9504L14.2599 18.8804H18.8199L17.1299 9.86035L13.6499 14.9504Z" fill="#244787"/>
<path id="Vector_3" d="M24.92 1.37969C22.78 2.45969 21.78 4.46969 21.78 6.80969C21.78 8.81969 22.81 10.1097 24.74 10.8997C25.93 11.3497 26.88 11.5597 27.75 11.8497C28.91 12.2697 29.25 12.7997 29.25 13.6997C29.25 14.5997 28.94 15.0697 28.43 15.3397C27.77 15.6797 26.5 15.7897 25.26 15.7897C24.02 15.7897 22.22 15.6597 20.67 15.4197L20.04 18.9297C21.7 19.1197 23.5 19.2497 25.19 19.2497C27.41 19.2497 29.7 18.9297 31.34 17.7697C32.77 16.7697 33.69 15.0497 33.69 12.8397C33.69 10.3297 32.45 9.08969 30.52 8.34969C29.83 8.08969 28.57 7.74969 27.78 7.47969C26.64 7.07969 26.22 6.68969 26.22 5.75969C26.22 4.91969 26.56 4.32969 27.22 4.06969C27.8 3.80969 28.75 3.77969 29.51 3.77969C31.02 3.77969 32.47 3.90969 33.95 4.14969L34.53 0.769687C33.11 0.529687 31.2 0.429688 29.73 0.429688C28.04 0.429688 26.35 0.639687 24.93 1.37969H24.92Z" fill="#244787"/>
<path id="Vector_4" d="M39.67 1.37969C37.53 2.45969 36.53 4.46969 36.53 6.80969C36.53 8.81969 37.56 10.1097 39.48 10.8997C40.67 11.3497 41.62 11.5597 42.49 11.8497C43.65 12.2697 44 12.7997 44 13.6997C44 14.5997 43.68 15.0697 43.18 15.3397C42.52 15.6797 41.25 15.7897 40.01 15.7897C38.77 15.7897 36.97 15.6597 35.42 15.4197L34.78 18.9297C36.44 19.1197 38.24 19.2497 39.93 19.2497C42.15 19.2497 44.44 18.9297 46.08 17.7697C47.5 16.7697 48.43 15.0497 48.43 12.8397C48.43 10.3297 47.19 9.08969 45.26 8.34969C44.57 8.08969 43.31 7.74969 42.51 7.47969C41.38 7.07969 40.96 6.68969 40.96 5.75969C40.96 4.91969 41.3 4.32969 41.96 4.06969C42.54 3.80969 43.49 3.77969 44.26 3.77969C45.76 3.77969 47.21 3.90969 48.69 4.14969L49.27 0.769687C47.84 0.529687 45.94 0.429688 44.46 0.429688C42.77 0.429688 41.08 0.639687 39.66 1.37969H39.67Z" fill="#244787"/>
<path id="Vector_5" d="M50.28 18.8798H54.51L57.7 0.799805H53.48L50.28 18.8798Z" fill="#244787"/>
<path id="Vector_6" d="M62.87 1.37969C60.73 2.45969 59.73 4.46969 59.73 6.80969C59.73 8.81969 60.76 10.1097 62.68 10.8997C63.87 11.3497 64.82 11.5597 65.69 11.8497C66.85 12.2697 67.19 12.7997 67.19 13.6997C67.19 14.5997 66.87 15.0697 66.37 15.3397C65.71 15.6797 64.44 15.7897 63.2 15.7897C61.96 15.7897 60.16 15.6597 58.61 15.4197L57.97 18.9297C59.63 19.1197 61.43 19.2497 63.12 19.2497C65.34 19.2497 67.63 18.9297 69.27 17.7697C70.69 16.7697 71.62 15.0497 71.62 12.8397C71.62 10.3297 70.38 9.08969 68.45 8.34969C67.76 8.08969 66.5 7.74969 65.7 7.47969C64.57 7.07969 64.15 6.68969 64.15 5.75969C64.15 4.91969 64.49 4.32969 65.15 4.06969C65.73 3.80969 66.68 3.77969 67.45 3.77969C68.95 3.77969 70.4 3.90969 71.88 4.14969L72.46 0.769687C71.03 0.529687 69.13 0.429688 67.65 0.429688C65.96 0.429688 64.27 0.639687 62.85 1.37969H62.87Z" fill="#244787"/>
<path id="Vector_7" d="M73.7201 0.799805L73.1101 4.1798H78.9701L76.3601 18.8798H80.5801L83.1901 4.1798H89.0301L89.6401 0.799805H73.7201Z" fill="#244787"/>
<path id="Vector_8" d="M20.51 3.69L21.23 4.2L21.62 0L17.79 1.76L18.54 2.29L16.32 5.53L15.36 0.41H9.94L0 18.88H4.58L7.06 16.46L10.03 13.55L10.91 17.73L16.94 8.9L20.5 3.69H20.51ZM12.11 11.7L11.49 8.75L7.96 12.21L11.92 4.36H12L12.95 10.48L12.11 11.71V11.7Z" fill="#244787"/>
</g>
</g>
<g id="Group_3">
<path id="Vector_9" d="M99.28 19.19C94.89 19.19 92.45 16.83 92.45 12.44C92.45 8.52996 93.61 4.42996 96.73 2.16996C98.62 0.799961 100.75 0.459961 103.45 0.459961C105.39 0.459961 107.31 0.589961 109.23 0.769961L108.63 4.23996C107 4.05996 105.32 3.94996 103.56 3.94996C98.68 3.94996 96.78 7.28996 96.78 11.96C96.78 14.11 97.83 15.87 100.64 15.87C101.59 15.87 102.95 15.63 103.84 15.42L104.44 11.95H100.32L100.87 8.82996H108.49L106.89 18C104.32 18.66 101.61 19.18 99.27 19.18L99.28 19.19Z" fill="#231F20"/>
<path id="Vector_10" d="M109.42 18.8298L112.6 0.839844H116.8L113.62 18.8298H109.42Z" fill="#231F20"/>
<path id="Vector_11" d="M127.6 17.7202C125.97 18.8802 123.69 19.1902 121.48 19.1902C119.8 19.1902 118.01 19.0602 116.36 18.8702L116.99 15.3802C118.54 15.6202 120.3 15.7502 121.56 15.7502C122.82 15.7502 124.05 15.6402 124.71 15.3002C125.21 15.0402 125.52 14.5402 125.52 13.6702C125.52 12.8002 125.18 12.2502 124.02 11.8302C123.15 11.5402 122.21 11.3302 121.03 10.8802C119.11 10.0902 118.09 8.8102 118.09 6.8102C118.09 4.4702 119.09 2.4802 121.22 1.4002C122.64 0.670195 124.32 0.450195 126 0.450195C127.47 0.450195 129.36 0.560195 130.78 0.790195L130.2 4.1502C128.73 3.9102 127.28 3.7802 125.79 3.7802C125.03 3.7802 124.08 3.8102 123.51 4.0702C122.85 4.3302 122.51 4.9102 122.51 5.7502C122.51 6.6702 122.93 7.0602 124.06 7.4602C124.85 7.7202 126.11 8.0602 126.79 8.3302C128.71 9.0702 129.94 10.3002 129.94 12.7902C129.94 15.0002 129.02 16.7002 127.6 17.7002V17.7202Z" fill="#231F20"/>
</g>
</g>
<defs>
<clipPath id="clip0_1_3868">
<rect width="130.78" height="28" fill="white"/>
</clipPath>
</defs>
</svg>
