<svg width="103" height="32" viewBox="0 0 103 32" fill="none" xmlns="http://www.w3.org/2000/svg">
<g id="Group 47287">
<path id="Vector" d="M46.3201 28.17C32.8901 28.17 20.2201 26.2 9.06006 22.71C18.6201 28.45 31.7901 31.99 46.3201 31.99C60.8501 31.99 74.0201 28.44 83.5801 22.71C72.4201 26.2 59.7501 28.17 46.3201 28.17Z" fill="#4DB858"/>
<g id="Group">
<path id="Vector_2" d="M15.6001 17.09L16.3001 21.58H21.5001L19.5801 11.27L15.6001 17.09Z" fill="#244787"/>
<path id="Vector_3" d="M28.4799 1.58C26.0299 2.82 24.8899 5.11 24.8899 7.79C24.8899 10.08 26.0699 11.56 28.2699 12.47C29.6299 12.98 30.7199 13.22 31.7099 13.56C33.0399 14.04 33.4299 14.65 33.4299 15.67C33.4299 16.69 33.0699 17.24 32.4999 17.54C31.7499 17.93 30.2999 18.05 28.8799 18.05C27.4599 18.05 25.4099 17.9 23.6299 17.63L22.9099 21.64C24.8099 21.85 26.8599 22 28.7899 22C31.3199 22 33.9499 21.64 35.8199 20.31C37.4499 19.17 38.4999 17.2 38.4999 14.67C38.4999 11.8 37.0799 10.39 34.8799 9.54C34.0999 9.24 32.6499 8.85 31.7399 8.55C30.4399 8.1 29.9599 7.64 29.9599 6.59C29.9599 5.62 30.3499 4.96 31.1099 4.66C31.7699 4.36 32.8599 4.33 33.7299 4.33C35.4499 4.33 37.1099 4.48 38.7999 4.75L39.4599 0.89C37.8299 0.62 35.6599 0.5 33.9699 0.5C32.0399 0.5 30.1099 0.74 28.4799 1.59V1.58Z" fill="#244787"/>
<path id="Vector_4" d="M45.34 1.58C42.89 2.82 41.75 5.11 41.75 7.79C41.75 10.08 42.92 11.56 45.13 12.47C46.49 12.98 47.58 13.22 48.57 13.56C49.9 14.04 50.29 14.65 50.29 15.67C50.29 16.69 49.93 17.24 49.36 17.54C48.6 17.93 47.15 18.05 45.74 18.05C44.33 18.05 42.27 17.9 40.49 17.63L39.76 21.64C41.66 21.85 43.71 22 45.64 22C48.17 22 50.8 21.64 52.67 20.31C54.3 19.17 55.35 17.2 55.35 14.67C55.35 11.8 53.93 10.39 51.73 9.54C50.94 9.24 49.5 8.85 48.59 8.55C47.3 8.1 46.81 7.64 46.81 6.59C46.81 5.62 47.2 4.96 47.95 4.66C48.61 4.36 49.7 4.33 50.58 4.33C52.3 4.33 53.96 4.48 55.65 4.75L56.31 0.89C54.68 0.62 52.51 0.5 50.82 0.5C48.89 0.5 46.96 0.74 45.33 1.59L45.34 1.58Z" fill="#244787"/>
<path id="Vector_5" d="M57.46 21.58H62.29L65.94 0.920044H61.11L57.46 21.58Z" fill="#244787"/>
<path id="Vector_6" d="M71.85 1.58C69.4 2.82 68.26 5.11 68.26 7.79C68.26 10.08 69.43 11.56 71.64 12.47C73 12.98 74.09 13.22 75.08 13.56C76.4 14.04 76.8 14.65 76.8 15.67C76.8 16.69 76.44 17.24 75.87 17.54C75.11 17.93 73.67 18.05 72.25 18.05C70.83 18.05 68.78 17.9 67 17.63L66.27 21.64C68.17 21.85 70.22 22 72.15 22C74.68 22 77.31 21.64 79.18 20.31C80.81 19.17 81.86 17.2 81.86 14.67C81.86 11.8 80.44 10.39 78.24 9.54C77.46 9.24 76.01 8.85 75.1 8.55C73.81 8.1 73.32 7.64 73.32 6.59C73.32 5.62 73.71 4.96 74.46 4.66C75.12 4.36 76.21 4.33 77.09 4.33C78.81 4.33 80.47 4.48 82.16 4.75L82.82 0.89C81.19 0.62 79.02 0.5 77.33 0.5C75.4 0.5 73.47 0.74 71.84 1.59L71.85 1.58Z" fill="#244787"/>
<path id="Vector_7" d="M84.2501 0.920044L83.5601 4.78004H90.2501L87.2701 21.58H92.0901L95.0801 4.78004H101.75L102.44 0.920044H84.2501Z" fill="#244787"/>
<path id="Vector_8" d="M23.44 4.22L24.26 4.8L24.71 0L20.33 2.01L21.19 2.62L18.65 6.33L17.56 0.48H11.37L0 21.58H5.23L8.06 18.81L11.46 15.48L12.47 20.25L19.37 10.16L23.44 4.21V4.22ZM13.84 13.37L13.13 9.99L9.09 13.94L13.61 4.97H13.7L14.79 11.96L13.83 13.36L13.84 13.37Z" fill="#244787"/>
</g>
</g>
</svg>
