<svg width="159" height="33" viewBox="0 0 159 33" fill="none" xmlns="http://www.w3.org/2000/svg">
<g clip-path="url(#clip0_2_26)">
<path d="M25.96 28.26C26.39 28.83 26.57 29.45 26.5 30.12C26.43 30.79 26.11 31.36 25.56 31.82C24.98 32.25 24.35 32.43 23.69 32.36C23.02 32.29 22.46 31.97 22 31.42L18.28 26.75C17.83 26.17 17.65 25.54 17.73 24.88C17.81 24.21 18.12 23.65 18.66 23.19C19.24 22.76 19.87 22.58 20.54 22.65C21.21 22.72 21.78 23.04 22.24 23.59L25.96 28.26ZM26.49 2.36999C26.41 1.69999 26.1 1.14999 25.56 0.69999C24.98 0.26999 24.35 0.0899902 23.69 0.15999C23.02 0.23999 22.47 0.54999 22.02 1.09999L13.26 12.18L4.48997 1.09999C4.03997 0.54999 3.47997 0.22999 2.81997 0.15999C2.14997 0.0899902 1.53997 0.25999 0.969973 0.69999C0.419973 1.13999 0.0999733 1.69999 0.0199733 2.36999C-0.0600267 3.03999 0.109973 3.64999 0.549973 4.21999L10.04 16.26L0.549973 28.28C0.119973 28.85 -0.0600267 29.47 0.0199733 30.13C0.0999733 30.8 0.419973 31.36 0.969973 31.82C1.53997 32.25 2.14997 32.43 2.81997 32.35C3.48997 32.27 4.03997 31.95 4.48997 31.4L13.26 20.32L16.47 16.26L25.96 4.21999C26.39 3.64999 26.57 3.03999 26.49 2.36999ZM51.22 4.50999C50.76 3.74999 50.16 3.05999 49.43 2.44999C48.79 1.77999 48.02 1.25999 47.14 0.88999C46.26 0.51999 45.11 0.32999 43.71 0.31999C43.47 0.30999 43.23 0.29999 42.99 0.29999V0.31999H40.72C40.63 0.31999 40.53 0.31999 40.43 0.33999L36.1 0.29999H33.61C32.92 0.29999 32.33 0.54999 31.84 1.03999C31.35 1.52999 31.1 2.12999 31.1 2.82999C31.1 3.52999 31.35 4.11999 31.85 4.63999C32.35 5.15999 32.95 5.40999 33.66 5.40999L36.49 5.38999H42.99C44.22 5.38999 45.22 5.80999 46.01 6.65999C46.8 7.49999 47.19 8.49999 47.19 9.62999H47.21C47.18 10.77 46.78 11.75 46.01 12.57C45.24 13.39 44.24 13.8 43.02 13.8H36.52L33.69 13.78C32.96 13.78 32.33 14.06 31.81 14.61C31.36 15.09 31.14 15.66 31.14 16.34V29.89C31.14 30.59 31.39 31.19 31.88 31.67C32.37 32.16 32.96 32.4 33.65 32.4C34.34 32.4 34.95 32.16 35.44 31.67C35.93 31.18 36.18 30.59 36.18 29.89V18.88L43 18.84C44.78 18.84 46.29 18.55 47.53 17.96C48.77 17.38 49.77 16.62 50.52 15.69C51.27 14.76 51.82 13.77 52.15 12.7C52.48 11.63 52.63 10.59 52.6 9.56999C52.66 7.96999 52.26 6.35999 51.41 4.74999C51.35 4.67999 51.29 4.59999 51.23 4.52999L51.22 4.50999ZM47.59 23.73C47.05 23.24 46.46 22.99 45.81 22.99C45.16 22.99 44.56 23.24 44 23.73C43.51 24.28 43.26 24.88 43.26 25.54C43.26 26.2 43.51 26.78 44 27.32L48.24 31.56C48.78 32.05 49.37 32.3 50.02 32.3C50.67 32.3 51.27 32.05 51.83 31.56C52.32 31.01 52.57 30.4 52.57 29.75C52.57 29.1 52.32 28.51 51.83 27.97L47.59 23.73ZM77.81 4.83999C78.65 6.37999 79.05 8.01999 79.02 9.76999C79.03 12.4 78.18 14.64 76.46 16.5C74.62 18.35 72.2 19.28 69.19 19.28L63.13 19.32V29.41C63.13 30.23 62.84 30.93 62.25 31.52C61.66 32.11 60.96 32.39 60.14 32.39C59.32 32.39 58.61 32.1 58.03 31.52C57.45 30.94 57.16 30.23 57.16 29.41V16.31C57.16 15.55 57.43 14.87 57.97 14.27C58.61 13.61 59.35 13.28 60.17 13.28L62.93 13.3H69.21C70.15 13.3 70.96 12.98 71.62 12.35C72.29 11.71 72.66 10.91 72.73 9.93999C72.71 9.89999 72.71 9.84999 72.71 9.80999C72.71 8.80999 72.37 7.96999 71.69 7.28999C71.01 6.60999 70.18 6.26999 69.19 6.26999H62.91L60.15 6.28999C59.34 6.28999 58.64 5.98999 58.04 5.37999C57.44 4.76999 57.14 4.05999 57.14 3.23999C57.14 2.41999 57.43 1.71999 58.01 1.12999C58.59 0.54999 59.3 0.25999 60.12 0.25999H62.52L66.69 0.27999H69.02C69.02 0.27999 69.12 0.25999 69.18 0.25999C69.4 0.25999 69.64 0.25999 69.9 0.27999C72.38 0.23999 74.34 0.95999 75.78 2.45999C76.48 3.05999 77.09 3.75999 77.6 4.56999L77.76 4.76999C77.76 4.76999 77.79 4.80999 77.8 4.83999H77.81ZM77.92 9.74999C77.96 8.20999 77.62 6.75999 76.89 5.39999L76.73 5.21999C76.73 5.21999 76.7 5.17999 76.69 5.14999C76.26 4.42999 75.72 3.80999 75.08 3.28999L75.06 3.26999C74.49 2.66999 73.82 2.20999 73.05 1.87999C72.28 1.54999 71.23 1.37999 69.9 1.35999H67.01C66.95 1.35999 66.88 1.35999 66.81 1.37999H66.74L62.55 1.35999L60.15 1.33999C59.63 1.33999 59.18 1.52999 58.8 1.89999C58.43 2.26999 58.24 2.71999 58.24 3.24999C58.24 3.77999 58.43 4.24999 58.81 4.63999C59.19 5.02999 59.64 5.21999 60.17 5.21999L62.93 5.17999H69.21C70.47 5.17999 71.53 5.60999 72.41 6.45999C73.29 7.30999 73.75 8.37999 73.81 9.66999C73.82 9.72999 73.83 9.77999 73.83 9.82999C73.79 11.15 73.33 12.24 72.45 13.12C71.58 14 70.5 14.43 69.23 14.43C68.8 14.43 68.02 14.43 66.89 14.42C65.76 14.42 64.74 14.41 63.83 14.41H62.95L60.19 14.39C59.67 14.39 59.2 14.61 58.8 15.04H58.78C58.44 15.43 58.26 15.86 58.26 16.34V29.44C58.26 29.96 58.45 30.41 58.82 30.77C59.19 31.14 59.64 31.32 60.17 31.32C60.7 31.32 61.14 31.14 61.5 30.77C61.86 30.4 62.05 29.96 62.05 29.44V18.79C62.05 18.64 62.1 18.52 62.21 18.42C62.31 18.32 62.44 18.27 62.59 18.25L69.18 18.21C71.93 18.21 74.1 17.4 75.68 15.77C77.2 14.14 77.95 12.16 77.92 9.82999V9.78999V9.74999ZM104.74 27.33C105.32 27.91 105.61 28.62 105.61 29.44C105.61 30.26 105.32 30.94 104.74 31.53C104.16 32.11 103.45 32.4 102.63 32.4H86.51C85.7 32.4 85.01 32.11 84.42 31.53C83.84 30.95 83.55 30.25 83.55 29.44V3.02999C83.55 2.20999 83.84 1.50999 84.42 0.91999C85 0.32999 85.71 0.0399902 86.53 0.0399902C87.35 0.0399902 88.05 0.32999 88.64 0.91999C89.22 1.49999 89.52 2.20999 89.52 3.02999V26.46H102.64C103.46 26.46 104.17 26.75 104.75 27.33H104.74ZM104.52 29.44C104.52 28.92 104.34 28.47 103.97 28.11C103.6 27.74 103.16 27.56 102.64 27.56H88.96C88.81 27.56 88.68 27.5 88.58 27.39C88.48 27.28 88.42 27.15 88.42 27V3.02999C88.42 2.50999 88.24 2.05999 87.87 1.67999C87.5 1.30999 87.06 1.11999 86.54 1.11999C86.02 1.11999 85.57 1.30999 85.19 1.67999C84.81 2.04999 84.63 2.49999 84.63 3.02999V29.45C84.64 29.97 84.84 30.42 85.2 30.78C85.57 31.15 86 31.33 86.51 31.33H102.63C103.15 31.33 103.6 31.14 103.96 30.77C104.33 30.4 104.51 29.96 104.51 29.45L104.52 29.44ZM119.43 27.29C120.01 27.87 120.31 28.58 120.31 29.4C120.31 30.22 120.02 30.92 119.43 31.51C118.84 32.1 118.14 32.38 117.32 32.38H113.08C112.26 32.38 111.56 32.09 110.97 31.51C110.39 30.93 110.1 30.22 110.1 29.4V2.97999C110.1 2.15999 110.39 1.45999 110.97 0.86999C111.55 0.28999 112.26 -0.0100098 113.08 -0.0100098C113.9 -0.0100098 114.6 0.27999 115.19 0.86999C115.77 1.44999 116.07 2.15999 116.07 2.97999V26.42H117.33C118.15 26.42 118.85 26.71 119.44 27.3L119.43 27.29ZM119.23 29.4C119.23 28.88 119.04 28.43 118.67 28.05C118.3 27.68 117.85 27.49 117.32 27.49H115.53C115.37 27.49 115.23 27.44 115.13 27.33C115.03 27.23 114.97 27.1 114.97 26.95V2.97999C114.97 2.45999 114.79 2.00999 114.42 1.64999C114.05 1.27999 113.61 1.09999 113.09 1.09999C112.57 1.09999 112.12 1.27999 111.74 1.64999C111.37 2.01999 111.18 2.45999 111.18 2.97999V29.4C111.18 29.92 111.37 30.37 111.74 30.73C112.11 31.1 112.56 31.28 113.09 31.28H117.33C117.85 31.28 118.3 31.1 118.68 30.73C119.05 30.36 119.24 29.92 119.24 29.4H119.23ZM131.32 0.87999C131.9 1.45999 132.19 2.16999 132.19 2.98999V29.4C132.19 30.22 131.9 30.92 131.32 31.51C130.74 32.09 130.03 32.38 129.21 32.38H124.97C124.15 32.38 123.45 32.09 122.86 31.51C122.28 30.93 121.99 30.22 121.99 29.4C121.99 28.58 122.28 27.88 122.86 27.29C123.44 26.71 124.15 26.41 124.97 26.41H126.23V2.97999C126.23 2.15999 126.52 1.45999 127.11 0.86999C127.7 0.27999 128.4 -0.0100098 129.22 -0.0100098C130.04 -0.0100098 130.75 0.27999 131.33 0.86999L131.32 0.87999ZM131.12 2.98999C131.12 2.46999 130.93 2.01999 130.56 1.65999C130.19 1.28999 129.74 1.10999 129.21 1.10999C128.68 1.10999 128.24 1.28999 127.88 1.65999C127.51 2.02999 127.33 2.46999 127.33 2.98999V26.96C127.33 27.11 127.28 27.24 127.17 27.34C127.06 27.44 126.94 27.5 126.79 27.5H124.97C124.45 27.5 124 27.69 123.64 28.06C123.27 28.43 123.09 28.88 123.09 29.41C123.09 29.94 123.27 30.38 123.64 30.74C124.01 31.11 124.45 31.29 124.97 31.29H129.21C129.73 31.29 130.18 31.11 130.56 30.74C130.93 30.37 131.12 29.93 131.12 29.41V2.97999V2.98999ZM157.76 14.29C158.3 14.89 158.57 15.57 158.57 16.33V29.43C158.57 30.25 158.28 30.95 157.69 31.54C157.1 32.13 156.4 32.41 155.58 32.41C154.76 32.41 154.06 32.12 153.47 31.54C152.89 30.96 152.6 30.25 152.6 29.43V19.32L146.54 19.3C143.55 19.3 141.13 18.37 139.27 16.52C137.55 14.67 136.7 12.42 136.71 9.78999C136.68 8.02999 137.08 6.37999 137.92 4.85999C137.93 4.82999 137.95 4.79999 137.96 4.76999L138.12 4.58999C138.63 3.77999 139.23 3.07999 139.94 2.47999C141.38 0.97999 143.34 0.25999 145.84 0.29999C146.08 0.27999 146.31 0.27999 146.54 0.27999C146.6 0.27999 146.65 0.27999 146.7 0.29999H149.03L153.2 0.27999H155.6C156.42 0.27999 157.12 0.56999 157.71 1.14999C158.29 1.72999 158.59 2.43999 158.59 3.25999C158.59 4.07999 158.29 4.79999 157.69 5.39999C157.09 5.99999 156.39 6.30999 155.58 6.30999L152.82 6.28999H146.54C145.55 6.28999 144.72 6.62999 144.04 7.30999C143.36 7.98999 143.02 8.82999 143.02 9.82999V9.95999C143.08 10.93 143.44 11.74 144.11 12.37C144.78 13.01 145.59 13.32 146.54 13.32H152.8L155.56 13.3C156.38 13.3 157.11 13.63 157.76 14.29ZM157.49 16.33C157.49 15.84 157.32 15.4 156.97 15.03C156.55 14.6 156.08 14.38 155.56 14.38L152.82 14.4H146.54C145.25 14.4 144.17 13.97 143.3 13.1C142.42 12.23 141.97 11.14 141.92 9.82999C141.92 9.76999 141.92 9.71999 141.94 9.66999C142 8.37999 142.47 7.31999 143.34 6.45999C144.21 5.60999 145.28 5.17999 146.54 5.17999H152.82L155.58 5.21999C156.1 5.21999 156.56 5.01999 156.94 4.62999C157.32 4.22999 157.51 3.76999 157.51 3.24999C157.51 2.72999 157.32 2.27999 156.95 1.89999C156.58 1.52999 156.13 1.33999 155.6 1.33999L153.2 1.35999L149.01 1.37999H148.94C148.87 1.36999 148.8 1.35999 148.74 1.35999H146.54C146.54 1.35999 146.45 1.35999 146.41 1.33999C146.25 1.35999 146.07 1.35999 145.87 1.35999H145.85C144.52 1.37999 143.47 1.54999 142.7 1.87999C141.93 2.20999 141.27 2.66999 140.72 3.26999C140.7 3.26999 140.69 3.26999 140.68 3.28999C140.04 3.80999 139.5 4.42999 139.07 5.14999C139.05 5.17999 139.04 5.19999 139.03 5.21999L138.87 5.39999C138.14 6.75999 137.79 8.20999 137.84 9.74999V9.78999C137.81 12.11 138.56 14.09 140.08 15.73C141.66 17.36 143.83 18.17 146.56 18.17L153.18 18.21C153.33 18.21 153.46 18.26 153.56 18.37C153.66 18.47 153.72 18.6 153.72 18.75V29.4C153.72 29.92 153.9 30.37 154.27 30.73C154.64 31.1 155.08 31.28 155.6 31.28C156.12 31.28 156.57 31.1 156.95 30.73C157.32 30.36 157.51 29.92 157.51 29.4V16.3L157.49 16.33ZM147.62 27.35C148.2 27.94 148.5 28.65 148.5 29.47C148.5 30.29 148.21 31 147.62 31.59C147.04 32.18 146.33 32.48 145.51 32.48H139.72C138.88 32.48 138.17 32.18 137.59 31.59C137.01 31 136.72 30.29 136.72 29.47C136.72 28.65 137.01 27.95 137.59 27.34C138.2 26.76 138.91 26.47 139.72 26.47H145.51C146.33 26.47 147.03 26.77 147.62 27.36V27.35ZM147.42 29.47C147.42 28.95 147.23 28.5 146.86 28.12C146.49 27.75 146.04 27.56 145.51 27.56H139.72C139.21 27.56 138.76 27.75 138.35 28.12C137.98 28.51 137.79 28.96 137.79 29.47C137.79 29.98 137.98 30.44 138.35 30.82C138.72 31.19 139.18 31.38 139.72 31.38H145.51C146.03 31.38 146.48 31.19 146.86 30.82C147.24 30.45 147.42 30 147.42 29.47Z" fill="#6C5DD3"/>
</g>
<defs>
<clipPath id="clip0_2_26">
<rect width="158.59" height="32.48" fill="white"/>
</clipPath>
</defs>
</svg>
