<svg width="103" height="32" viewBox="0 0 103 32" fill="none" xmlns="http://www.w3.org/2000/svg">
<g id="&#236;&#187;&#172;&#235;&#159;&#172;=&#237;&#136;&#172;&#236;&#158;&#165;&#236;&#160;&#149;&#235;&#179;&#180;&#237;&#148;&#140;&#235;&#158;&#171;&#237;&#143;&#188; &#235;&#161;&#156;&#234;&#179;&#160; W" clip-path="url(#clip0_35_7200)">
<path id="Vector" d="M46.32 28.17C59.75 28.17 72.42 26.2 83.58 22.71C74.02 28.45 60.85 31.99 46.32 31.99C31.79 31.99 18.62 28.44 9.06 22.71C20.22 26.2 32.89 28.17 46.32 28.17ZM16.3 21.57H21.51L19.58 11.26L15.6 17.08L16.3 21.57ZM28.27 12.46C29.63 12.97 30.72 13.21 31.71 13.55C33.04 14.03 33.43 14.64 33.43 15.66C33.43 16.68 33.07 17.23 32.5 17.53C31.75 17.92 30.3 18.04 28.88 18.04C27.46 18.04 25.41 17.89 23.63 17.62L22.91 21.63C24.81 21.84 26.86 21.99 28.79 21.99C31.32 21.99 33.95 21.63 35.82 20.3C37.45 19.16 38.5 17.19 38.5 14.66C38.5 11.79 37.08 10.38 34.88 9.53C34.1 9.23 32.65 8.84 31.74 8.54C30.44 8.09 29.96 7.63 29.96 6.58C29.96 5.61 30.35 4.95 31.11 4.65C31.77 4.35 32.86 4.32 33.73 4.32C35.45 4.32 37.11 4.47 38.8 4.74L39.46 0.88C37.83 0.61 35.66 0.49 33.97 0.49C32.04 0.49 30.11 0.73 28.48 1.58C26.03 2.82 24.89 5.11 24.89 7.79C24.89 10.08 26.07 11.56 28.27 12.47V12.46ZM52.68 20.3C54.31 19.16 55.36 17.19 55.36 14.66C55.36 11.79 53.94 10.38 51.74 9.53C50.95 9.23 49.51 8.84 48.6 8.54C47.31 8.09 46.82 7.63 46.82 6.58C46.82 5.61 47.21 4.95 47.96 4.65C48.62 4.35 49.71 4.32 50.59 4.32C52.31 4.32 53.97 4.47 55.66 4.74L56.32 0.88C54.69 0.61 52.52 0.49 50.83 0.49C48.9 0.49 46.97 0.73 45.34 1.58C42.89 2.82 41.75 5.11 41.75 7.79C41.75 10.08 42.92 11.56 45.13 12.47C46.49 12.98 47.58 13.22 48.57 13.56C49.9 14.04 50.29 14.65 50.29 15.67C50.29 16.69 49.93 17.24 49.36 17.54C48.6 17.93 47.15 18.05 45.74 18.05C44.33 18.05 42.27 17.9 40.49 17.63L39.76 21.64C41.66 21.85 43.71 22 45.64 22C48.17 22 50.8 21.64 52.67 20.31L52.68 20.3ZM65.94 0.92H61.11L57.46 21.58H62.29L65.94 0.92ZM79.18 20.32C80.81 19.18 81.86 17.21 81.86 14.68C81.86 11.81 80.44 10.4 78.24 9.55C77.46 9.25 76.01 8.86 75.1 8.56C73.81 8.11 73.32 7.65 73.32 6.6C73.32 5.63 73.71 4.97 74.46 4.67C75.12 4.37 76.21 4.34 77.09 4.34C78.81 4.34 80.47 4.49 82.16 4.76L82.82 0.9C81.19 0.63 79.02 0.51 77.33 0.51C75.4 0.51 73.47 0.75 71.84 1.6C69.39 2.84 68.25 5.13 68.25 7.81C68.25 10.1 69.42 11.58 71.63 12.49C72.99 13 74.08 13.24 75.07 13.58C76.39 14.06 76.79 14.67 76.79 15.69C76.79 16.71 76.43 17.26 75.86 17.56C75.1 17.95 73.66 18.07 72.24 18.07C70.82 18.07 68.77 17.92 66.99 17.65L66.26 21.66C68.16 21.87 70.21 22.02 72.14 22.02C74.67 22.02 77.3 21.66 79.17 20.33L79.18 20.32ZM84.25 0.92L83.56 4.78H90.25L87.26 21.58H92.09L95.08 4.78H101.75L102.45 0.92H84.26H84.25ZM11.46 15.48L8.06 18.81L5.23 21.58H0L11.37 0.48H17.56L18.65 6.33L21.19 2.62L20.33 2.01L24.71 0L24.26 4.8L23.44 4.22L19.37 10.17L12.47 20.26L11.46 15.49V15.48ZM9.09 13.94L13.13 9.99L13.84 13.37L14.8 11.97L13.71 4.98H13.62L9.1 13.95L9.09 13.94Z" fill="white"/>
</g>
<defs>
<clipPath id="clip0_35_7200">
<rect width="103" height="32" fill="white"/>
</clipPath>
</defs>
</svg>
