<svg width="131" height="28" viewBox="0 0 131 28" fill="none" xmlns="http://www.w3.org/2000/svg">
<g id="Property 1=GIS B" clip-path="url(#clip0_436_23582)">
<path id="Vector" d="M40.53 24.65C52.28 24.65 63.37 22.93 73.13 19.87C64.77 24.89 53.25 27.99 40.53 27.99C27.81 27.99 16.29 24.89 7.93 19.87C17.7 22.92 28.78 24.65 40.53 24.65ZM14.26 18.88H18.82L17.13 9.86001L13.65 14.95L14.26 18.88ZM24.73 10.91C25.92 11.36 26.87 11.57 27.74 11.86C28.9 12.28 29.24 12.81 29.24 13.71C29.24 14.61 28.93 15.08 28.42 15.35C27.76 15.69 26.49 15.8 25.25 15.8C24.01 15.8 22.21 15.67 20.66 15.43L20.03 18.94C21.69 19.13 23.49 19.26 25.18 19.26C27.4 19.26 29.69 18.94 31.33 17.78C32.76 16.78 33.68 15.06 33.68 12.85C33.68 10.34 32.44 9.10001 30.51 8.36001C29.82 8.10001 28.56 7.76001 27.77 7.49001C26.63 7.09001 26.21 6.70001 26.21 5.77001C26.21 4.93001 26.55 4.34001 27.21 4.08001C27.79 3.82001 28.74 3.79001 29.5 3.79001C31.01 3.79001 32.46 3.92001 33.94 4.16001L34.52 0.78001C33.1 0.54001 31.19 0.44001 29.72 0.44001C28.03 0.44001 26.34 0.65001 24.92 1.39001C22.78 2.47001 21.78 4.48001 21.78 6.82001C21.78 8.83001 22.81 10.12 24.74 10.91H24.73ZM46.08 17.77C47.5 16.77 48.43 15.05 48.43 12.84C48.43 10.33 47.19 9.09001 45.26 8.35001C44.57 8.09001 43.31 7.75001 42.51 7.48001C41.38 7.08001 40.96 6.69001 40.96 5.76001C40.96 4.92001 41.3 4.33001 41.96 4.07001C42.54 3.81001 43.49 3.78001 44.26 3.78001C45.76 3.78001 47.21 3.91001 48.69 4.15001L49.27 0.77001C47.84 0.53001 45.94 0.43001 44.46 0.43001C42.77 0.43001 41.08 0.64001 39.66 1.38001C37.52 2.46001 36.52 4.47001 36.52 6.81001C36.52 8.82001 37.55 10.11 39.47 10.9C40.66 11.35 41.61 11.56 42.48 11.85C43.64 12.27 43.99 12.8 43.99 13.7C43.99 14.6 43.67 15.07 43.17 15.34C42.51 15.68 41.24 15.79 40 15.79C38.76 15.79 36.96 15.66 35.41 15.42L34.77 18.93C36.43 19.12 38.23 19.25 39.92 19.25C42.14 19.25 44.43 18.93 46.07 17.77H46.08ZM57.7 0.80001H53.48L50.29 18.88H54.51L57.7 0.80001ZM69.29 17.77C70.71 16.77 71.64 15.05 71.64 12.84C71.64 10.33 70.4 9.09001 68.47 8.35001C67.78 8.09001 66.52 7.75001 65.72 7.48001C64.59 7.08001 64.17 6.69001 64.17 5.76001C64.17 4.92001 64.51 4.33001 65.17 4.07001C65.75 3.81001 66.7 3.78001 67.47 3.78001C68.97 3.78001 70.42 3.91001 71.9 4.15001L72.48 0.77001C71.05 0.53001 69.15 0.43001 67.67 0.43001C65.98 0.43001 64.29 0.64001 62.87 1.38001C60.73 2.46001 59.73 4.47001 59.73 6.81001C59.73 8.82001 60.76 10.11 62.68 10.9C63.87 11.35 64.82 11.56 65.69 11.85C66.85 12.27 67.19 12.8 67.19 13.7C67.19 14.6 66.87 15.07 66.37 15.34C65.71 15.68 64.44 15.79 63.2 15.79C61.96 15.79 60.16 15.66 58.61 15.42L57.97 18.93C59.63 19.12 61.43 19.25 63.12 19.25C65.34 19.25 67.63 18.93 69.27 17.77H69.29ZM73.12 4.18001H78.98L76.37 18.88H80.59L83.2 4.18001H89.03L89.64 0.80001H73.72L73.12 4.18001ZM10.03 13.55L7.06 16.46L4.58 18.88H0L9.94 0.42001H15.36L16.32 5.54001L18.54 2.30001L17.79 1.77001L21.62 0.0100098L21.23 4.21001L20.51 3.70001L16.95 8.91001L10.92 17.74L10.04 13.56L10.03 13.55ZM7.95 12.2L11.48 8.74001L12.1 11.69L12.94 10.46L11.99 4.34001H11.91L7.95 12.19V12.2ZM96.73 2.18001C93.61 4.44001 92.45 8.54001 92.45 12.45C92.45 16.84 94.89 19.2 99.28 19.2C101.62 19.2 104.32 18.68 106.9 18.02L108.5 8.85001H100.88L100.33 11.97H104.45L103.85 15.44C102.96 15.65 101.59 15.89 100.65 15.89C97.84 15.89 96.79 14.13 96.79 11.98C96.79 7.31001 98.68 3.97001 103.57 3.97001C105.33 3.97001 107.01 4.08001 108.64 4.26001L109.24 0.79001C107.32 0.61001 105.41 0.48001 103.46 0.48001C100.76 0.48001 98.63 0.82001 96.74 2.19001L96.73 2.18001ZM112.6 0.84001L109.42 18.83H113.62L116.8 0.84001H112.6ZM123.5 4.10001C124.08 3.84001 125.02 3.81001 125.78 3.81001C127.28 3.81001 128.72 3.94001 130.19 4.18001L130.77 0.82001C129.35 0.58001 127.46 0.48001 125.99 0.48001C124.31 0.48001 122.63 0.69001 121.21 1.43001C119.08 2.51001 118.08 4.50001 118.08 6.84001C118.08 8.84001 119.1 10.12 121.02 10.91C122.2 11.36 123.15 11.57 124.01 11.86C125.17 12.28 125.51 12.81 125.51 13.7C125.51 14.59 125.19 15.07 124.7 15.33C124.04 15.67 122.78 15.78 121.55 15.78C120.32 15.78 118.53 15.65 116.98 15.41L116.35 18.9C118 19.08 119.79 19.22 121.47 19.22C123.68 19.22 125.96 18.9 127.59 17.75C129.01 16.75 129.93 15.05 129.93 12.84C129.93 10.34 128.7 9.11001 126.78 8.38001C126.1 8.12001 124.84 7.78001 124.05 7.51001C122.92 7.12001 122.5 6.72001 122.5 5.80001C122.5 4.96001 122.84 4.38001 123.5 4.12001V4.10001Z" fill="white"/>
</g>
<defs>
<clipPath id="clip0_436_23582">
<rect width="131" height="28" fill="white"/>
</clipPath>
</defs>
</svg>
