<svg width="154" height="28" viewBox="0 0 154 28" fill="none" xmlns="http://www.w3.org/2000/svg">
<g clip-path="url(#clip0_2_30)">
<path d="M4.68 0L23.55 26.94H18.87L11.78 16.81L4.69 26.94H0L9.43 13.47L0 0H4.68ZM14.71 5.94L17.05 9.29L23.55 0H18.87L14.71 5.94ZM43.46 16.29C46.42 14.87 48.34 11.87 48.34 8.58C48.33 3.89 44.49 0.04 39.79 0.04H30.66V3.88H39.79C42.37 3.88 44.49 6.01 44.49 8.58C44.49 11.15 42.36 13.28 39.79 13.28H30.66V17.12H38.12L43.99 26.94H48.46L42.39 16.8L43.45 16.29H43.46ZM64.73 0.04H55.6V3.88H64.73C67.31 3.88 69.43 6.01 69.43 8.58C69.43 11.15 67.3 13.28 64.73 13.28H55.6V26.94H59.44V17.12H64.73C66 17.12 67.25 16.84 68.39 16.29C71.35 14.87 73.27 11.87 73.27 8.58C73.27 3.89 69.43 0.04 64.73 0.04ZM84.25 0.04H80.41V26.94H99.03V23.1H84.25V0.04ZM124.08 16.69C124.08 20.56 120.9 23.75 117.03 23.75C113.16 23.75 109.97 20.57 109.97 16.69V0.04H106.13V16.69C106.13 22.68 111.03 27.58 117.02 27.58C123.01 27.58 127.91 22.68 127.91 16.69V0.04H124.07V16.69H124.08ZM151.65 11.45C150.61 10.06 149.43 9.11 147.96 8.2C146.65 7.38 145.3 6.63 144.07 5.69C142.11 4.18 141.6 2.38 141.54 0.05H137.7C137.76 2.59 138.31 5.06 139.97 7.06C141.15 8.49 142.69 9.45 144.27 10.4C145.81 11.33 147.48 12.28 148.57 13.74C149.44 14.91 149.81 16.22 149.81 17.67C149.81 21.01 147.11 23.71 143.77 23.71C143.36 23.71 142.95 23.67 142.55 23.59C140.73 23.22 139.19 22.02 138.37 20.37L135.03 22.26C136.73 25.5 140.1 27.55 143.78 27.55C147.13 27.55 150.23 25.87 152.06 23.06C153.11 21.45 153.66 19.59 153.66 17.67C153.66 15.39 153.02 13.28 151.66 11.45H151.65Z" fill="white"/>
</g>
<defs>
<clipPath id="clip0_2_30">
<rect width="153.65" height="27.58" fill="white"/>
</clipPath>
</defs>
</svg>
