<svg width="180" height="67" viewBox="0 0 180 67" fill="none" xmlns="http://www.w3.org/2000/svg">
<g id="&#234;&#176;&#128;&#235;&#161;&#156;&#237;&#152;&#149; &#234;&#181;&#173;&#235;&#172;&#184; &#236;&#161;&#176;&#237;&#149;&#169;" clip-path="url(#clip0_866_35238)">
<g id="Layer 1">
<g id="Group">
<g id="Group_2">
<path id="Vector" d="M22.6245 5.6996C22.7091 5.22503 22.9957 4.90081 23.4327 4.67527C23.9965 4.38395 24.8141 4.27118 25.721 4.27118C26.6184 4.27118 27.3984 4.38395 27.8542 4.67997C28.2113 4.90551 28.3899 5.22972 28.3053 5.7043C28.2207 6.17887 27.9294 6.50309 27.4877 6.72863C26.9192 7.02935 26.1016 7.13272 25.2088 7.13272C24.3066 7.13272 23.5266 7.02935 23.0662 6.72863C22.7091 6.50309 22.5399 6.17887 22.6245 5.7043V5.6996ZM23.7522 0.0375977H24.8987L24.6543 1.40024H28.9819L28.8127 2.35878H26.6184L26.5151 2.92263H29.0994L28.9255 3.89528H22.6433L22.8171 2.92263H25.378L25.4813 2.35878H23.3434L23.7569 0.0422964L23.7522 0.0375977ZM23.7616 5.7043C23.7381 5.83117 23.7945 5.92984 23.9119 6.00502C24.1422 6.15538 24.645 6.21646 25.3733 6.21646C26.0969 6.21646 26.6184 6.15538 26.9051 6.00502C27.046 5.92984 27.14 5.83117 27.1635 5.7043C27.187 5.58213 27.1306 5.47876 27.0131 5.41298C26.7876 5.25322 26.2801 5.20153 25.5612 5.20153C24.8282 5.20153 24.3066 5.25322 24.0247 5.41298C23.8838 5.47876 23.7898 5.58683 23.771 5.7043H23.7616Z" fill="#244787"/>
<path id="Vector_2" d="M31.9703 0.0375901H33.1168L32.957 0.939752C32.7409 2.13793 33.1967 2.66889 34.0189 2.91793L33.8404 3.90467C33.0463 3.7825 32.3509 3.38311 32.0408 2.88034C31.5615 3.4066 30.7157 3.83419 29.8464 3.97985L30.0203 3.00251C30.9553 2.73938 31.5944 2.11444 31.8058 0.949149L31.9703 0.0375901ZM30.1472 5.31899L30.321 4.35575H35.687L35.203 7.05753H34.0565L34.3666 5.31899H30.1472ZM36.467 0L35.7481 4.01744H34.6016L35.3205 0H36.467Z" fill="#244787"/>
<path id="Vector_3" d="M39.6669 3.97986H37.0967L37.2658 3.04011H43.548L43.3789 3.97986H40.804L40.7147 4.48263H42.862L42.4062 7.01996H36.9745L37.4303 4.48263H39.5776L39.6669 3.97986ZM42.4438 1.73856H43.4776L43.3131 2.65481H37.6464L37.8109 1.73386H38.76L38.8916 0.991453H38.0552L38.2197 0.0751953H43.6514L43.487 0.996152H42.6506L42.5895 1.32506C42.5613 1.47543 42.5143 1.61639 42.4391 1.73856H42.4438ZM38.2854 6.1084H41.4336L41.5605 5.40829H38.4123L38.2854 6.1084ZM41.5323 0.996152H40.024L39.8924 1.73856H41.3302C41.396 1.63518 41.4383 1.50362 41.4618 1.38615L41.5323 0.996152Z" fill="#244787"/>
<path id="Vector_4" d="M48.8295 5.56334H46.3063L46.4801 4.586H52.6872L52.5133 5.56334H49.976L49.7082 7.06225H48.5617L48.8295 5.56334ZM53.1524 0.079895L52.9785 1.04314H48.6087L48.5147 1.5694H52.8L52.6308 2.52795H48.3455L48.2469 3.0777H52.6919L52.518 4.05034H46.9218L47.6313 0.0845938H53.1524V0.079895Z" fill="#244787"/>
<path id="Vector_5" d="M54.4492 1.09011L54.623 0.126867H58.4337L58.2599 1.09011H56.9207L56.6435 2.6407C56.2958 4.57659 56.808 5.15924 57.5316 5.50694L57.353 6.51718C56.5589 6.31983 55.9058 5.77007 55.6239 5.14044C55.1258 5.77947 54.2424 6.32923 53.4014 6.51718L53.5799 5.50694C54.4257 5.16863 55.1399 4.57659 55.4876 2.6407L55.7648 1.09011H54.4445H54.4492ZM59.0681 0.00469971H60.2146L59.7259 2.72058H60.7408L60.5623 3.70732H59.5473L58.9647 6.94946H57.8182L59.0681 0.00469971Z" fill="#244787"/>
<path id="Vector_6" d="M61.7698 1.04313L61.9437 0.0798798H65.6228L65.4489 1.04313H64.1662C63.9547 2.21781 64.387 2.68299 65.2469 2.86624L65.0731 3.83419C64.279 3.73081 63.6023 3.37371 63.2969 2.84745C62.7801 3.38311 61.9343 3.81539 61.1167 3.91407L61.2906 2.93672C62.2115 2.75817 62.8176 2.23191 63.0338 1.04313H61.7698ZM61.2671 5.58212C61.3516 5.10285 61.6571 4.75514 62.0752 4.51551C62.6626 4.1678 63.4943 4.05033 64.3072 4.05033C65.1153 4.05033 65.9047 4.1725 66.3699 4.51551C66.6941 4.75514 66.8727 5.10285 66.7881 5.58212C66.7035 6.0614 66.3981 6.40911 65.9846 6.65814C65.3973 7.00585 64.5609 7.11862 63.7527 7.11862C62.9445 7.11862 62.1504 7.00585 61.6852 6.65814C61.3516 6.40911 61.1731 6.0661 61.2624 5.58212H61.2671ZM62.4136 5.58212C62.3854 5.74188 62.4511 5.83586 62.578 5.92983C62.8411 6.10839 63.358 6.16477 63.9313 6.16477C64.5045 6.16477 65.0402 6.11308 65.3597 5.92983C65.5241 5.84056 65.6181 5.74188 65.6463 5.58212C65.6745 5.43176 65.6181 5.32839 65.4818 5.23442C65.2281 5.06056 64.7018 4.99948 64.138 4.99948C63.5647 4.99948 63.0291 5.06056 62.7002 5.23442C62.5404 5.32369 62.437 5.43176 62.4136 5.58212ZM67.6292 0.00939846L66.9197 3.96575H65.7732L66.0598 2.35408H64.8146L64.9838 1.40493H66.2289L66.478 0.00469971H67.6245L67.6292 0.00939846Z" fill="#244787"/>
<path id="Vector_7" d="M70.4813 0.126892L70.2557 1.38146H73.4791L73.7046 0.126892H74.8511L74.0852 4.40746H71.9097L71.6795 5.69492H74.2027L74.0288 6.66756H67.8218L67.9956 5.69492H70.533L70.7632 4.40746H68.5642L69.3301 0.126892H70.4813ZM69.8892 3.43482H73.1126L73.3052 2.3541H70.0819L69.8892 3.43482Z" fill="#244787"/>
<path id="Vector_8" d="M83.2243 5.88756H78.9391L78.8874 6.17888H83.3277L83.1773 7.02936H77.5952L77.9523 5.03239H82.247L82.3034 4.72227H78.0087L78.1638 3.8624H83.5955L83.2337 5.87816L83.2243 5.88756ZM84.0795 3.51939H77.7973L77.957 2.61723H84.2393L84.0795 3.51939ZM83.1163 1.44254H84.1406L83.9855 2.30711H78.3188L78.4739 1.44254H79.423L79.5123 0.953866H78.6759L78.831 0.0892944H84.2628L84.1077 0.953866H83.2713L83.2384 1.15121C83.2196 1.26398 83.1867 1.36266 83.1163 1.44254ZM82.1483 0.953866H80.64L80.5507 1.44254H81.9979C82.0496 1.37675 82.0872 1.26868 82.106 1.17001L82.1436 0.953866H82.1483Z" fill="#244787"/>
<path id="Vector_9" d="M87.7493 6.0614C87.068 6.61585 85.9121 6.98705 84.681 7.03874L84.8502 6.08959C86.2645 5.94863 87.2794 5.49755 87.4439 4.5531L87.4674 4.41683H88.6139L88.5904 4.5531C88.4212 5.48345 89.2623 5.92983 90.6344 6.08959L90.4652 7.03874C89.2482 6.98705 88.2286 6.61585 87.7446 6.0614H87.7493ZM86.4431 2.54203L86.3209 3.20925H87.5191C87.9843 3.20925 88.2756 3.14347 88.534 2.97432L89.0603 0.0469895H90.094L89.8168 1.58348H90.3007L90.5827 0.00939941H91.654L90.8411 4.5484H89.7698L90.1269 2.56082H89.6429L89.3469 4.22418H88.3132L88.3837 3.82479C88.1393 4.02214 87.7822 4.10202 87.1197 4.10202H85.0992L85.5409 1.63987H87.1761L87.2935 0.977343H85.6584L85.8181 0.0798808H88.5246L88.0829 2.53263H86.4384L86.4431 2.54203Z" fill="#244787"/>
<path id="Vector_10" d="M97.9503 4.49673L97.4945 7.03406H92.0627L92.5185 4.49673H97.9503ZM97.5321 1.75266H98.5658L98.4014 2.66891H96.1272L96.0473 3.12939H98.6316L98.4625 4.06914H92.1802L92.3494 3.12939H94.9102L94.9901 2.67361H92.7394L92.9038 1.75736H93.853L93.9845 1.01495H93.1482L93.3126 0.0986938H98.7444L98.5799 1.01965H97.7435L97.6825 1.34856C97.6543 1.49892 97.6073 1.63989 97.5321 1.76205V1.75266ZM93.3737 6.1225H96.5219L96.6487 5.42239H93.5006L93.3737 6.1225ZM96.6205 1.00555H95.1122L94.9807 1.74796H96.4185C96.4843 1.64459 96.5266 1.51302 96.5501 1.39555L96.6205 1.00555Z" fill="#244787"/>
</g>
<g id="Group_3">
<path id="Vector_11" d="M81.3872 59.6695C57.7853 59.6695 35.5273 56.2066 15.9147 50.0794C32.7127 60.1629 55.8447 66.3935 81.3872 66.3935C106.93 66.3935 130.062 60.1629 146.86 50.0794C127.247 56.2066 104.989 59.6695 81.3872 59.6695Z" fill="#4DB858"/>
<g id="Group_4">
<path id="Vector_12" d="M27.4078 40.1932L28.6342 48.0824H37.7827L34.3949 29.9687L27.4078 40.1932Z" fill="#244787"/>
<path id="Vector_13" d="M50.0371 12.9451C45.7424 15.1159 43.7267 19.1427 43.7267 23.8603C43.7267 27.8918 45.7988 30.4902 49.6659 32.0784C52.0482 32.9806 53.9605 33.4035 55.7085 33.9861C58.0438 34.8366 58.7298 35.8938 58.7298 37.6981C58.7298 39.5025 58.1001 40.4516 57.0852 40.9826C55.7602 41.6686 53.2181 41.8847 50.7278 41.8847C48.2375 41.8847 44.6335 41.6216 41.5041 41.1376L40.2355 48.1905C43.5763 48.5617 47.1802 48.8295 50.5727 48.8295C55.0272 48.8295 59.6319 48.1905 62.9164 45.8552C65.7826 43.8441 67.6339 40.3999 67.6339 35.9455C67.6339 30.9084 65.1436 28.4181 61.2765 26.9333C59.8998 26.4023 57.353 25.7163 55.7649 25.19C53.486 24.396 52.6355 23.5972 52.6355 21.7412C52.6355 20.0449 53.3262 18.8749 54.6513 18.3487C55.8166 17.8177 57.7243 17.766 59.2607 17.766C62.2867 17.766 65.2 18.0291 68.1743 18.5131L69.3349 11.7281C66.478 11.2535 62.6579 11.0421 59.6883 11.0421C56.2958 11.0421 52.9033 11.465 50.0418 12.9498L50.0371 12.9451Z" fill="#244787"/>
<path id="Vector_14" d="M79.6628 12.9451C75.3681 15.1159 73.357 19.1427 73.357 23.8603C73.357 27.8918 75.4198 30.4902 79.2869 32.0784C81.6738 32.9806 83.5815 33.4035 85.3295 33.9861C87.6647 34.8366 88.3555 35.8938 88.3555 37.6981C88.3555 39.5025 87.7164 40.4516 86.7109 40.9826C85.3811 41.6686 82.8344 41.8847 80.3441 41.8847C77.8537 41.8847 74.2498 41.6216 71.1251 41.1376L69.847 48.1905C73.1879 48.5617 76.7918 48.8295 80.1843 48.8295C84.6387 48.8295 89.2435 48.1905 92.5373 45.8552C95.3942 43.8441 97.2549 40.3999 97.2549 35.9455C97.2549 30.9084 94.7646 28.4181 90.8975 26.9333C89.5113 26.4023 86.974 25.7163 85.3811 25.19C83.1069 24.396 82.2612 23.5972 82.2612 21.7412C82.2612 20.0449 82.9472 18.8749 84.2722 18.3487C85.4375 17.8177 87.3452 17.766 88.8864 17.766C91.9077 17.766 94.8162 18.0291 97.7906 18.5131L98.9559 11.7281C96.0896 11.2535 92.2789 11.0421 89.3046 11.0421C85.9121 11.0421 82.5243 11.465 79.6581 12.9498L79.6628 12.9451Z" fill="#244787"/>
<path id="Vector_15" d="M100.967 48.0824H109.453L115.867 11.7751H107.381L100.967 48.0824Z" fill="#244787"/>
<path id="Vector_16" d="M126.251 12.9451C121.956 15.1159 119.945 19.1427 119.945 23.8603C119.945 27.8918 122.008 30.4902 125.875 32.0784C128.262 32.9806 130.17 33.4035 131.922 33.9861C134.248 34.8366 134.944 35.8938 134.944 37.6981C134.944 39.5025 134.305 40.4516 133.299 40.9826C131.969 41.6686 129.432 41.8847 126.932 41.8847C124.432 41.8847 120.838 41.6216 117.713 41.1376L116.435 48.1905C119.776 48.5617 123.38 48.8295 126.772 48.8295C131.227 48.8295 135.832 48.1905 139.125 45.8552C141.982 43.8441 143.843 40.3999 143.843 35.9455C143.843 30.9084 141.353 28.4181 137.486 26.9333C136.109 26.4023 133.562 25.7163 131.969 25.19C129.695 24.396 128.849 23.5972 128.849 21.7412C128.849 20.0449 129.535 18.8749 130.86 18.3487C132.026 17.8177 133.933 17.766 135.475 17.766C138.496 17.766 141.404 18.0291 144.379 18.5131L145.544 11.7281C142.678 11.2535 138.867 11.0421 135.893 11.0421C132.5 11.0421 129.112 11.465 126.246 12.9498L126.251 12.9451Z" fill="#244787"/>
<path id="Vector_17" d="M148.03 11.7751L146.817 18.5554H158.578L153.335 48.0824H161.816L167.064 18.5554H178.778L180 11.7751H148.03Z" fill="#244787"/>
<path id="Vector_18" d="M41.1893 17.5781L42.6365 18.6024L43.4212 10.1681L35.7247 13.7063L37.233 14.7729L32.7785 21.2854L30.8567 11.0045H19.9744L0 48.0824H9.20017L14.1762 43.2145L20.1436 37.3692L21.9197 45.7565L34.0378 28.0328L41.194 17.5734L41.1893 17.5781ZM24.3161 33.6572L23.0615 27.7227L15.9711 34.6674L23.9214 18.9031H24.0858L25.9982 31.1857L24.3161 33.6525V33.6572Z" fill="#244787"/>
</g>
</g>
</g>
</g>
</g>
<defs>
<clipPath id="clip0_866_35238">
<rect width="180" height="66.3934" fill="white"/>
</clipPath>
</defs>
</svg>
