<svg width="1218" height="446" viewBox="0 0 1218 446" fill="none" xmlns="http://www.w3.org/2000/svg">
<g clip-path="url(#clip0_866_33031)">
<path d="M1 0.5H586.24" stroke="#464747" stroke-miterlimit="10"/>
<path d="M1 23.92H586.24" stroke="#636363" stroke-width="0.5" stroke-miterlimit="10"/>
<path d="M1 47.34H586.24" stroke="#636363" stroke-width="0.5" stroke-miterlimit="10"/>
<path d="M1 70.76H586.24" stroke="#636363" stroke-width="0.5" stroke-miterlimit="10"/>
<path d="M1 94.18H586.24" stroke="#636363" stroke-width="0.5" stroke-miterlimit="10"/>
<path d="M1 117.6H586.24" stroke="#636363" stroke-width="0.5" stroke-miterlimit="10"/>
<path d="M1 141.02H586.24" stroke="#636363" stroke-width="0.5" stroke-miterlimit="10"/>
<path d="M1 164.44H586.24" stroke="#636363" stroke-width="0.5" stroke-miterlimit="10"/>
<path d="M1 187.86H586.24" stroke="#636363" stroke-width="0.5" stroke-miterlimit="10"/>
<path d="M1 211.28H586.24" stroke="#636363" stroke-width="0.5" stroke-miterlimit="10"/>
<path d="M1 234.7H586.24" stroke="#636363" stroke-width="0.5" stroke-miterlimit="10"/>
<path d="M1 258.12H586.24" stroke="#636363" stroke-width="0.5" stroke-miterlimit="10"/>
<path d="M1 281.54H586.24" stroke="#636363" stroke-width="0.5" stroke-miterlimit="10"/>
<path d="M1 304.96H586.24" stroke="#636363" stroke-width="0.5" stroke-miterlimit="10"/>
<path d="M1 328.38H586.24" stroke="#636363" stroke-width="0.5" stroke-miterlimit="10"/>
<path d="M1 351.8H586.24" stroke="#636363" stroke-width="0.5" stroke-miterlimit="10"/>
<path d="M1 375.22H586.24" stroke="#636363" stroke-width="0.5" stroke-miterlimit="10"/>
<path d="M1 398.64H586.24" stroke="#636363" stroke-width="0.5" stroke-miterlimit="10"/>
<path d="M1 422.06H586.24" stroke="#636363" stroke-width="0.5" stroke-miterlimit="10"/>
<path d="M1 445.48H586.24" stroke="#464747" stroke-miterlimit="10"/>
<path d="M1 0.349976V445.36" stroke="#464747" stroke-miterlimit="10"/>
<path d="M24.42 0.349976V445.36" stroke="#636363" stroke-width="0.5" stroke-miterlimit="10"/>
<path d="M47.84 0.469971V445.48" stroke="#636363" stroke-width="0.5" stroke-miterlimit="10"/>
<path d="M71.26 0.469971V445.48" stroke="#636363" stroke-width="0.5" stroke-miterlimit="10"/>
<path d="M94.68 0.469971V445.48" stroke="#636363" stroke-width="0.5" stroke-miterlimit="10"/>
<path d="M118.1 0.469971V445.48" stroke="#636363" stroke-width="0.5" stroke-miterlimit="10"/>
<path d="M141.52 0.469971V445.48" stroke="#636363" stroke-width="0.5" stroke-miterlimit="10"/>
<path d="M164.94 0.469971V445.48" stroke="#636363" stroke-width="0.5" stroke-miterlimit="10"/>
<path d="M188.36 0.349976V445.36" stroke="#636363" stroke-width="0.5" stroke-miterlimit="10"/>
<path d="M211.77 0.349976V445.36" stroke="#636363" stroke-width="0.5" stroke-miterlimit="10"/>
<path d="M235.19 0.349976V445.36" stroke="#636363" stroke-width="0.5" stroke-miterlimit="10"/>
<path d="M258.61 0.349976V445.36" stroke="#636363" stroke-width="0.5" stroke-miterlimit="10"/>
<path d="M282.03 0.469971V445.48" stroke="#636363" stroke-width="0.5" stroke-miterlimit="10"/>
<path d="M305.45 0.469971V445.48" stroke="#636363" stroke-width="0.5" stroke-miterlimit="10"/>
<path d="M328.87 0.469971V445.48" stroke="#636363" stroke-width="0.5" stroke-miterlimit="10"/>
<path d="M352.29 0.469971V445.48" stroke="#636363" stroke-width="0.5" stroke-miterlimit="10"/>
<path d="M375.71 0.469971V445.48" stroke="#636363" stroke-width="0.5" stroke-miterlimit="10"/>
<path d="M399.13 0.469971V445.48" stroke="#636363" stroke-width="0.5" stroke-miterlimit="10"/>
<path d="M422.55 0.469971V445.48" stroke="#636363" stroke-width="0.5" stroke-miterlimit="10"/>
<path d="M445.97 0.469971V445.48" stroke="#636363" stroke-width="0.5" stroke-miterlimit="10"/>
<path d="M469.44 0.349976V445.36" stroke="#636363" stroke-width="0.5" stroke-miterlimit="10"/>
<path d="M492.85 0.469971V445.48" stroke="#636363" stroke-width="0.5" stroke-miterlimit="10"/>
<path d="M516.27 0.469971V445.48" stroke="#636363" stroke-width="0.5" stroke-miterlimit="10"/>
<path d="M539.69 0.469971V445.48" stroke="#636363" stroke-width="0.5" stroke-miterlimit="10"/>
<path d="M563.11 0.469971V445.48" stroke="#636363" stroke-width="0.5" stroke-miterlimit="10"/>
<path d="M586.53 0.469971V445.48" stroke="#464747" stroke-miterlimit="10"/>
<path d="M405.9 153.1C405.56 153.1 405.22 152.99 404.93 152.77C404.25 152.23 404.12 151.25 404.66 150.56L434.19 112.77C434.72 112.09 435.71 111.96 436.4 112.5C437.08 113.04 437.21 114.02 436.67 114.71L407.14 152.5C406.83 152.9 406.37 153.1 405.9 153.1Z" fill="#5B5A5C"/>
<path d="M108.66 75.34V77.85C108.66 81.36 110.58 83.17 113.18 83.96V86.11C110.63 85.57 108.5 84.14 107.45 82.44C106.49 84.21 104.34 85.73 101.7 86.36V84.21C104.36 83.36 106.24 81.28 106.24 77.86V75.35H108.66V75.34ZM103.31 91.65C103.31 90.42 103.89 89.48 104.81 88.79C106.26 87.76 108.55 87.34 111.19 87.34C113.83 87.34 116.11 87.76 117.54 88.79C118.46 89.48 119.04 90.42 119.04 91.65C119.04 92.88 118.46 93.84 117.54 94.54C116.11 95.57 113.8 95.97 111.19 95.97C108.58 95.97 106.27 95.57 104.81 94.54C103.89 93.85 103.31 92.91 103.31 91.65ZM105.75 91.65C105.75 92.21 106.04 92.68 106.58 93.04C107.47 93.64 109.11 93.89 111.19 93.89C113.27 93.89 114.88 93.64 115.82 93.04C116.33 92.68 116.6 92.21 116.6 91.65C116.6 91.09 116.33 90.62 115.82 90.26C114.88 89.68 113.25 89.41 111.19 89.41C109.13 89.41 107.48 89.68 106.58 90.26C106.04 90.62 105.75 91.09 105.75 91.65ZM118.55 75.21V79.77H121.5V81.9H118.55V86.78H116.11V75.21H118.55Z" fill="#5B5A5C"/>
<path d="M123.48 86.6V84.54H141.76V86.6H123.48ZM132.59 79.46C131.07 81.23 127.85 82.64 124.07 83.02V80.92C127.87 80.38 131.39 78.79 131.39 75.91V75.35H133.81V75.91C133.81 78.8 137.28 80.38 141.17 80.92V83.02C137.34 82.64 134.12 81.23 132.6 79.46H132.59ZM124.45 92.24C124.45 90.99 125.03 90.14 126.08 89.51C127.49 88.7 129.77 88.37 132.66 88.37C135.55 88.37 137.81 88.71 139.21 89.51C140.26 90.14 140.84 90.99 140.84 92.24C140.84 93.49 140.26 94.34 139.21 94.97C137.8 95.78 135.56 96.09 132.66 96.09C129.76 96.09 127.49 95.78 126.08 94.97C125.03 94.34 124.45 93.49 124.45 92.24ZM126.89 92.24C126.89 92.69 127.14 93.07 127.58 93.33C128.5 93.85 130.2 94.05 132.66 94.05C135.12 94.05 136.82 93.85 137.72 93.33C138.19 93.06 138.44 92.68 138.44 92.24C138.44 91.8 138.19 91.43 137.72 91.14C136.82 90.62 135.12 90.42 132.66 90.42C130.2 90.42 128.5 90.62 127.58 91.14C127.13 91.43 126.89 91.79 126.89 92.24Z" fill="#5B5A5C"/>
<path d="M144.94 86.64V84.49H151.11V80.15H153.55V84.49H163.22V86.64H144.94ZM159.46 79.53V77.58H146.15V75.46H161.9V79.46C161.9 80.56 161.74 81.85 161.48 82.77H159.11C159.36 81.83 159.47 80.62 159.47 79.53H159.46ZM159.46 95.84V91.12H146.15V89.02H161.9V95.84H159.46Z" fill="#5B5A5C"/>
<path d="M173.28 75.34V78.81C173.28 82.32 175.23 84.11 177.82 84.92V87.07C175.27 86.51 173.14 85.1 172.09 83.4C171.13 85.15 168.98 86.69 166.34 87.32V85.15C169 84.32 170.86 82.24 170.86 78.82V75.35H173.28V75.34ZM183.84 95.59H168.31V88.7H170.75V93.49H183.84V95.59ZM183.48 89.41H181.04V81.09H176.61V79.01H181.04V75.21H183.48V89.42V89.41Z" fill="#5B5A5C"/>
<path d="M188.25 95.81C189.23 95.76 189.7 95.23 189.7 94.15H188.34V91.2H191.09V94.38C191.09 95.99 190.06 96.91 188.25 97.04V95.81Z" fill="#5B5A5C"/>
<path d="M202.32 85.01C202.32 83.49 202.95 82.26 204.02 81.43C204.89 80.78 206.03 80.4 207.38 80.4C208.57 80.4 209.59 80.69 210.4 81.21C211.68 81.99 212.44 83.36 212.44 85.01C212.44 86.66 211.7 88.01 210.43 88.79C209.92 89.1 209.31 89.33 208.62 89.46V92.26H211.33C213.14 92.26 214.55 91.9 215.38 91.21V75.21H217.82V83.49H221V85.61H217.82V95.5H215.38V93.2C214.55 93.96 212.9 94.34 210.86 94.34H201.49V92.26H206.19V89.46C205.47 89.33 204.83 89.08 204.29 88.72C203.1 87.91 202.34 86.62 202.34 85.01H202.32ZM206.12 74.63H208.58V77.09H212.96V79.17H201.75V77.09H206.11V74.63H206.12ZM204.73 85.01C204.73 85.79 205.04 86.49 205.6 86.96C206.05 87.34 206.65 87.54 207.37 87.54C208.09 87.54 208.67 87.34 209.11 86.98C209.69 86.51 210.01 85.84 210.01 85.01C210.01 84.18 209.7 83.47 209.11 83.02C208.66 82.66 208.06 82.44 207.37 82.44C206.68 82.44 206.05 82.69 205.6 83.07C205.06 83.54 204.73 84.21 204.73 85.02V85.01Z" fill="#5B5A5C"/>
<path d="M229.38 75.34V76.86C229.38 80.35 231.35 81.96 233.9 82.68V84.81C231.42 84.34 229.22 82.98 228.17 81.3C227.19 83.05 224.99 84.5 222.42 85.06V82.94C225.04 82.18 226.96 80.28 226.96 76.88V75.36H229.38V75.34ZM226.72 91.96V93.73H239.52V95.7H224.31V90.04H236.84V88.23H224.31V86.28H239.28V91.96H226.73H226.72ZM239.27 75.2V79H242.22V81.15H239.27V85.07H236.83V75.2H239.27Z" fill="#5B5A5C"/>
<path d="M257.98 84.96H261.65V87.09H258.34V92.5H262.34V94.6H244.33V92.5H248.47V87.09H245.03V84.96H248.03V77.71H245.39V75.56H261.3V77.71H258.64V80.93C258.64 82.41 258.44 83.99 257.99 84.96H257.98ZM250.49 77.71V84.96H255.64C256.07 84 256.2 82.5 256.2 81.18V77.71H250.5H250.49ZM255.9 87.08H250.89V92.49H255.9V87.08Z" fill="#5B5A5C"/>
<path d="M271.7 84.92H279.35V87.09H271.7V84.92Z" fill="#5B5A5C"/>
<path d="M291.76 74.67V75.9C290.64 75.95 290.31 76.5 290.31 77.62H291.65V80.62H288.9V77.46C288.9 75.8 289.88 74.77 291.76 74.66V74.67Z" fill="#5B5A5C"/>
<path d="M295.27 91.18V89.06H313.28V91.18H305.45V95.83H303.03V91.18H295.27ZM312.23 77.58H298.76V79.97H312V82.07H298.76V84.57H312.47V86.7H296.32V75.45H312.23V77.57V77.58Z" fill="#5B5A5C"/>
<path d="M317.04 77.71V75.56H328.02V77.71H323.7V83.17C323.7 88.58 325.85 90.78 328.2 91.89V94.13C325.67 93.26 323.48 91.29 322.52 89.14C321.54 91.29 319.3 93.28 316.82 94.13V91.89C319.12 90.8 321.29 88.58 321.29 83.17V77.71H317.04ZM333.13 75.21V83.49H336.31V85.61H333.13V95.5H330.69V75.21H333.13Z" fill="#5B5A5C"/>
<path d="M338.44 95.81C339.42 95.76 339.89 95.23 339.89 94.15H338.53V91.2H341.28V94.38C341.28 95.99 340.25 96.91 338.44 97.04V95.81Z" fill="#5B5A5C"/>
<path d="M368.55 77.71H355.08V84.6H368.71V86.72H361.86V92.49H369.6V94.59H351.59V92.49H359.44V86.72H352.64V75.56H368.55V77.71Z" fill="#5B5A5C"/>
<path d="M373.1 80.67C373.1 78.7 373.73 77.2 374.85 76.24C375.72 75.48 376.95 75.08 378.41 75.08C379.87 75.08 381.09 75.48 381.99 76.24C383.13 77.2 383.74 78.7 383.74 80.67C383.74 82.64 383.14 84.16 381.99 85.12C381.09 85.86 379.91 86.28 378.41 86.28C376.91 86.28 375.72 85.85 374.85 85.12C373.73 84.16 373.1 82.64 373.1 80.67ZM374.22 88.25H389.46V95.84H387.02V90.38H374.22V88.25ZM375.47 80.67C375.47 81.95 375.83 82.89 376.45 83.47C376.94 83.94 377.59 84.21 378.4 84.21C379.21 84.21 379.9 83.94 380.37 83.47C381.02 82.89 381.35 81.95 381.35 80.67C381.35 79.39 381.01 78.48 380.37 77.87C379.9 77.42 379.23 77.18 378.4 77.18C377.57 77.18 376.95 77.43 376.45 77.87C375.82 78.47 375.47 79.44 375.47 80.67ZM389.45 77.65H392.29V79.8H389.45V82.26H392.29V84.39H389.45V86.94H387.01V75.22H389.45V77.66V77.65Z" fill="#5B5A5C"/>
<path d="M394.57 80.62V79.39C395.69 79.35 396.02 78.79 396.02 77.67H394.68V74.67H397.43V77.82C397.43 79.48 396.45 80.51 394.57 80.62Z" fill="#5B5A5C"/>
<path d="M417.99 75.21V95.5H415.55V93.2C414.68 94.03 412.84 94.34 410.61 94.34H401.17V92.26H411.24C413.07 92.26 414.62 91.99 415.56 91.21V75.21H418H417.99ZM401.86 81.65C401.86 79.41 402.51 77.65 403.76 76.55C404.68 75.77 405.97 75.32 407.41 75.32C408.85 75.32 410.14 75.77 411.06 76.55C412.36 77.65 412.96 79.41 412.96 81.65C412.96 83.89 412.36 85.63 411.06 86.75C410.14 87.53 408.84 87.98 407.41 87.98C405.98 87.98 404.68 87.53 403.76 86.75C402.51 85.63 401.86 83.89 401.86 81.65ZM404.3 81.65C404.3 83.17 404.61 84.4 405.37 85.12C405.88 85.61 406.58 85.86 407.4 85.86C408.22 85.86 408.97 85.61 409.44 85.12C410.2 84.4 410.54 83.17 410.54 81.65C410.54 80.13 410.2 78.88 409.44 78.16C408.97 77.67 408.25 77.44 407.4 77.44C406.55 77.44 405.88 77.66 405.37 78.16C404.61 78.88 404.3 80.15 404.3 81.65Z" fill="#5B5A5C"/>
<path d="M445.96 75.21V95.5H443.52V93.2C442.65 94.03 440.81 94.34 438.58 94.34H429.14V92.26H439.21C441.04 92.26 442.59 91.99 443.53 91.21V75.21H445.97H445.96ZM429.83 81.65C429.83 79.41 430.48 77.65 431.73 76.55C432.65 75.77 433.95 75.32 435.38 75.32C436.81 75.32 438.11 75.77 439.03 76.55C440.33 77.65 440.93 79.41 440.93 81.65C440.93 83.89 440.33 85.63 439.03 86.75C438.11 87.53 436.81 87.98 435.38 87.98C433.95 87.98 432.65 87.53 431.73 86.75C430.48 85.63 429.83 83.89 429.83 81.65ZM432.27 81.65C432.27 83.17 432.58 84.4 433.34 85.12C433.86 85.61 434.55 85.86 435.38 85.86C436.21 85.86 436.95 85.61 437.42 85.12C438.18 84.4 438.51 83.17 438.51 81.65C438.51 80.13 438.17 78.88 437.42 78.16C436.95 77.67 436.23 77.44 435.38 77.44C434.53 77.44 433.86 77.66 433.34 78.16C432.58 78.88 432.27 80.15 432.27 81.65Z" fill="#5B5A5C"/>
<path d="M461.03 75.57V94.14H451.23V75.57H461.03ZM453.65 92.04H458.62V77.72H453.65V92.04ZM467.43 75.22V95.51H464.99V75.22H467.43Z" fill="#5B5A5C"/>
<path d="M323.22 287.5L329.04 324.9H372.41L356.35 239.03L323.22 287.5Z" fill="#5B5A5C"/>
<path d="M388.56 180.28L395.42 185.13L399.13 145.14L362.64 161.92L369.78 166.98L348.65 197.85L339.55 149.12H287.96L193.29 324.89H236.9L260.49 301.82L288.78 274.12L297.19 313.88L354.63 229.86L388.55 180.28H388.56ZM308.57 256.51L302.62 228.38L269 261.31L306.69 186.59H307.48L316.55 244.82L308.56 256.52L308.57 256.51Z" fill="#5B5A5C"/>
<path d="M631.47 0.5H1216.71" stroke="#464747" stroke-miterlimit="10"/>
<path d="M631.47 23.92H1216.71" stroke="#636363" stroke-width="0.5" stroke-miterlimit="10"/>
<path d="M631.47 47.34H1216.71" stroke="#636363" stroke-width="0.5" stroke-miterlimit="10"/>
<path d="M631.47 70.76H1216.71" stroke="#636363" stroke-width="0.5" stroke-miterlimit="10"/>
<path d="M631.47 94.18H1216.71" stroke="#636363" stroke-width="0.5" stroke-miterlimit="10"/>
<path d="M631.47 117.6H1216.71" stroke="#636363" stroke-width="0.5" stroke-miterlimit="10"/>
<path d="M631.47 141.02H1216.71" stroke="#636363" stroke-width="0.5" stroke-miterlimit="10"/>
<path d="M631.47 164.44H1216.71" stroke="#636363" stroke-width="0.5" stroke-miterlimit="10"/>
<path d="M631.47 187.86H1216.71" stroke="#636363" stroke-width="0.5" stroke-miterlimit="10"/>
<path d="M631.47 211.28H1216.71" stroke="#636363" stroke-width="0.5" stroke-miterlimit="10"/>
<path d="M631.47 234.7H1216.71" stroke="#636363" stroke-width="0.5" stroke-miterlimit="10"/>
<path d="M631.47 258.12H1216.71" stroke="#636363" stroke-width="0.5" stroke-miterlimit="10"/>
<path d="M631.47 281.54H1216.71" stroke="#636363" stroke-width="0.5" stroke-miterlimit="10"/>
<path d="M631.47 304.96H1216.71" stroke="#636363" stroke-width="0.5" stroke-miterlimit="10"/>
<path d="M631.47 328.38H1216.71" stroke="#636363" stroke-width="0.5" stroke-miterlimit="10"/>
<path d="M631.47 351.8H1216.71" stroke="#636363" stroke-width="0.5" stroke-miterlimit="10"/>
<path d="M631.47 375.22H1216.71" stroke="#636363" stroke-width="0.5" stroke-miterlimit="10"/>
<path d="M631.47 398.64H1216.71" stroke="#636363" stroke-width="0.5" stroke-miterlimit="10"/>
<path d="M631.47 422.06H1216.71" stroke="#636363" stroke-width="0.5" stroke-miterlimit="10"/>
<path d="M631.47 445.48H1216.71" stroke="#464747" stroke-miterlimit="10"/>
<path d="M631.47 0.349976V445.36" stroke="#464747" stroke-miterlimit="10"/>
<path d="M654.89 0.349976V445.36" stroke="#636363" stroke-width="0.5" stroke-miterlimit="10"/>
<path d="M678.31 0.469971V445.48" stroke="#636363" stroke-width="0.5" stroke-miterlimit="10"/>
<path d="M701.73 0.469971V445.48" stroke="#636363" stroke-width="0.5" stroke-miterlimit="10"/>
<path d="M725.15 0.469971V445.48" stroke="#636363" stroke-width="0.5" stroke-miterlimit="10"/>
<path d="M748.56 0.469971V445.48" stroke="#636363" stroke-width="0.5" stroke-miterlimit="10"/>
<path d="M771.99 0.469971V445.48" stroke="#636363" stroke-width="0.5" stroke-miterlimit="10"/>
<path d="M795.41 0.469971V445.48" stroke="#636363" stroke-width="0.5" stroke-miterlimit="10"/>
<path d="M818.82 0.349976V445.36" stroke="#636363" stroke-width="0.5" stroke-miterlimit="10"/>
<path d="M842.24 0.349976V445.36" stroke="#636363" stroke-width="0.5" stroke-miterlimit="10"/>
<path d="M865.66 0.349976V445.36" stroke="#636363" stroke-width="0.5" stroke-miterlimit="10"/>
<path d="M889.08 0.349976V445.36" stroke="#636363" stroke-width="0.5" stroke-miterlimit="10"/>
<path d="M912.5 0.469971V445.48" stroke="#636363" stroke-width="0.5" stroke-miterlimit="10"/>
<path d="M935.92 0.469971V445.48" stroke="#636363" stroke-width="0.5" stroke-miterlimit="10"/>
<path d="M959.34 0.469971V445.48" stroke="#636363" stroke-width="0.5" stroke-miterlimit="10"/>
<path d="M982.76 0.469971V445.48" stroke="#636363" stroke-width="0.5" stroke-miterlimit="10"/>
<path d="M1006.18 0.469971V445.48" stroke="#636363" stroke-width="0.5" stroke-miterlimit="10"/>
<path d="M1029.6 0.469971V445.48" stroke="#636363" stroke-width="0.5" stroke-miterlimit="10"/>
<path d="M1053.02 0.469971V445.48" stroke="#636363" stroke-width="0.5" stroke-miterlimit="10"/>
<path d="M1076.44 0.469971V445.48" stroke="#636363" stroke-width="0.5" stroke-miterlimit="10"/>
<path d="M1099.9 0.349976V445.36" stroke="#636363" stroke-width="0.5" stroke-miterlimit="10"/>
<path d="M1123.32 0.469971V445.48" stroke="#636363" stroke-width="0.5" stroke-miterlimit="10"/>
<path d="M1146.74 0.469971V445.48" stroke="#636363" stroke-width="0.5" stroke-miterlimit="10"/>
<path d="M1170.16 0.469971V445.48" stroke="#636363" stroke-width="0.5" stroke-miterlimit="10"/>
<path d="M1193.58 0.469971V445.48" stroke="#636363" stroke-width="0.5" stroke-miterlimit="10"/>
<path d="M1217 0.469971V445.48" stroke="#464747" stroke-miterlimit="10"/>
<path d="M885.56 327.97C885.24 327.97 884.92 327.87 884.65 327.68C883.94 327.17 883.78 326.19 884.29 325.49L910.06 289.46C910.57 288.75 911.55 288.59 912.25 289.1C912.96 289.61 913.12 290.59 912.61 291.29L886.84 327.32C886.53 327.75 886.05 327.98 885.56 327.98V327.97Z" fill="#5B5A5C"/>
<path d="M812.54 342.55V348.68H814.71C816.59 348.68 817.82 348.41 818.69 347.74V340.24H821.13V344.83H823.93V346.96H821.13V352.06H818.69V349.71C817.84 350.4 816.39 350.72 814.08 350.72H804.44V340.5H816.07V342.56H812.54V342.55ZM805.54 356.8C805.54 355.41 806.23 354.43 807.44 353.76C808.9 352.89 811.09 352.55 813.5 352.55C815.91 352.55 818.11 352.89 819.58 353.76C820.77 354.43 821.48 355.42 821.48 356.8C821.48 358.18 820.76 359.17 819.58 359.84C818.1 360.69 815.89 361 813.5 361C811.11 361 808.89 360.69 807.44 359.84C806.23 359.17 805.54 358.18 805.54 356.8ZM810.17 348.68V342.55H806.81V348.68H810.17ZM807.95 356.8C807.95 357.34 808.24 357.74 808.78 358.08C809.7 358.68 811.42 358.93 813.5 358.93C815.58 358.93 817.28 358.68 818.24 358.08C818.76 357.74 819.05 357.34 819.05 356.8C819.05 356.26 818.76 355.84 818.24 355.5C817.28 354.9 815.56 354.65 813.5 354.65C811.44 354.65 809.7 354.9 808.78 355.5C808.24 355.84 807.95 356.26 807.95 356.8Z" fill="#5B5A5C"/>
<path d="M826.06 360.85C827.04 360.8 827.51 360.27 827.51 359.19H826.15V356.24H828.9V359.42C828.9 361.03 827.87 361.95 826.06 362.08V360.85Z" fill="#5B5A5C"/>
<path d="M856.17 342.75H842.7V345.99H855.94V348.09H842.7V351.4H856.41V353.5H849.47V357.53H857.21V359.63H839.2V357.53H847.05V353.5H840.25V340.59H856.16V342.74L856.17 342.75Z" fill="#5B5A5C"/>
<path d="M861.12 342.75V340.6H872.13V342.75H867.83V348.21C867.83 353.62 869.95 355.82 872.3 356.93V359.17C869.77 358.3 867.58 356.33 866.59 354.18C865.61 356.33 863.39 358.32 860.88 359.17V356.93C863.18 355.84 865.36 353.62 865.36 348.21V342.75H861.11H861.12ZM877.56 340.24V360.53H875.12V340.24H877.56Z" fill="#5B5A5C"/>
<path d="M888.04 349.95H895.69V352.12H888.04V349.95Z" fill="#5B5A5C"/>
<path d="M908.1 339.71V340.94C906.98 340.99 906.65 341.54 906.65 342.66H907.99V345.66H905.24V342.5C905.24 340.84 906.23 339.81 908.1 339.7V339.71Z" fill="#5B5A5C"/>
<path d="M915.23 340.38V344.72H928.54V346.84H921.78V349.17H929.74V351.29H911.46V349.17H919.36V346.84H912.81V340.37H915.23V340.38ZM912.43 357.16C912.43 355.82 913.12 354.9 914.26 354.27C915.76 353.46 918.02 353.15 920.64 353.15C923.26 353.15 925.52 353.46 927.02 354.27C928.16 354.9 928.83 355.81 928.83 357.16C928.83 358.51 928.16 359.42 927.02 360.02C925.52 360.83 923.24 361.12 920.64 361.12C918.04 361.12 915.76 360.83 914.26 360.02C913.12 359.42 912.43 358.5 912.43 357.16ZM914.87 357.16C914.87 357.65 915.14 358.03 915.63 358.32C916.57 358.88 918.29 359.08 920.64 359.08C922.99 359.08 924.69 358.88 925.63 358.32C926.12 358.03 926.41 357.65 926.41 357.16C926.41 356.67 926.12 356.27 925.63 355.97C924.69 355.43 922.97 355.21 920.64 355.21C918.31 355.21 916.57 355.43 915.63 355.97C915.14 356.26 914.87 356.64 914.87 357.16Z" fill="#5B5A5C"/>
<path d="M933.34 345.34C933.34 343.51 934.03 342.12 935.15 341.22C936.07 340.5 937.28 340.1 938.66 340.1C940.04 340.1 941.28 340.5 942.17 341.22C943.09 341.94 943.69 342.97 943.89 344.28H947.56V340.23H950V350.95H947.56V346.36H943.91C943.71 347.7 943.08 348.75 942.16 349.45C941.27 350.19 940.06 350.59 938.65 350.59C937.24 350.59 936.05 350.19 935.14 349.45C934.02 348.58 933.33 347.19 933.33 345.33L933.34 345.34ZM947.57 354.4V352.03H950.01V360.73H934.84V352.03H937.28V354.4H947.57ZM935.71 345.34C935.71 346.39 936.07 347.26 936.69 347.78C937.18 348.25 937.88 348.5 938.66 348.5C939.44 348.5 940.14 348.25 940.65 347.78C941.28 347.27 941.61 346.39 941.61 345.34C941.61 344.29 941.27 343.46 940.65 342.9C940.14 342.45 939.44 342.21 938.66 342.21C937.88 342.21 937.18 342.46 936.69 342.9C936.06 343.46 935.71 344.29 935.71 345.34ZM947.57 356.48H937.28V358.67H947.57V356.48Z" fill="#5B5A5C"/>
<path d="M954.58 345.66V344.43C955.7 344.39 956.04 343.83 956.04 342.71H954.7V339.71H957.45V342.86C957.45 344.52 956.47 345.55 954.59 345.66H954.58Z" fill="#5B5A5C"/>
<path d="M978.01 340.24V360.53H975.57V358.23C974.7 359.06 972.86 359.37 970.63 359.37H961.19V357.29H971.26C973.09 357.29 974.64 357.02 975.58 356.24V340.24H978.02H978.01ZM961.88 346.68C961.88 344.44 962.53 342.67 963.78 341.58C964.7 340.8 966 340.35 967.43 340.35C968.86 340.35 970.16 340.8 971.08 341.58C972.38 342.68 972.98 344.44 972.98 346.68C972.98 348.92 972.38 350.66 971.08 351.78C970.16 352.56 968.86 353.01 967.43 353.01C966 353.01 964.7 352.56 963.78 351.78C962.53 350.66 961.88 348.92 961.88 346.68ZM964.32 346.68C964.32 348.2 964.63 349.43 965.39 350.15C965.91 350.64 966.6 350.89 967.43 350.89C968.26 350.89 969 350.64 969.47 350.15C970.23 349.43 970.56 348.2 970.56 346.68C970.56 345.16 970.22 343.91 969.47 343.19C969 342.7 968.28 342.47 967.43 342.47C966.58 342.47 965.91 342.69 965.39 343.19C964.63 343.91 964.32 345.18 964.32 346.68Z" fill="#5B5A5C"/>
<path d="M1005.98 340.24V360.53H1003.54V358.23C1002.67 359.06 1000.83 359.37 998.6 359.37H989.16V357.29H999.23C1001.06 357.29 1002.61 357.02 1003.55 356.24V340.24H1005.99H1005.98ZM989.85 346.68C989.85 344.44 990.5 342.67 991.75 341.58C992.67 340.8 993.96 340.35 995.4 340.35C996.84 340.35 998.13 340.8 999.05 341.58C1000.35 342.68 1000.95 344.44 1000.95 346.68C1000.95 348.92 1000.35 350.66 999.05 351.78C998.13 352.56 996.83 353.01 995.4 353.01C993.97 353.01 992.67 352.56 991.75 351.78C990.5 350.66 989.85 348.92 989.85 346.68ZM992.29 346.68C992.29 348.2 992.6 349.43 993.36 350.15C993.88 350.64 994.57 350.89 995.4 350.89C996.23 350.89 996.97 350.64 997.44 350.15C998.2 349.43 998.53 348.2 998.53 346.68C998.53 345.16 998.19 343.91 997.44 343.19C996.97 342.7 996.25 342.47 995.4 342.47C994.55 342.47 993.88 342.69 993.36 343.19C992.6 343.91 992.29 345.18 992.29 346.68Z" fill="#5B5A5C"/>
<path d="M1021.05 340.6V359.17H1011.25V340.6H1021.05ZM1013.67 357.07H1018.64V342.75H1013.67V357.07ZM1027.45 340.25V360.54H1025.01V340.25H1027.45Z" fill="#5B5A5C"/>
<path d="M930.35 267.18C882.32 267.18 837.02 260.13 797.11 247.66C831.29 268.18 878.37 280.86 930.35 280.86C982.33 280.86 1029.41 268.18 1063.59 247.66C1023.68 260.13 978.38 267.18 930.35 267.18Z" fill="#5B5A5C"/>
<path d="M820.5 204.91L823 220.96H841.62L834.72 184.1L820.5 204.91Z" fill="#5B5A5C"/>
<path d="M866.56 149.45C857.82 153.87 853.71 162.06 853.71 171.66C853.71 179.86 857.92 185.16 865.8 188.39C870.65 190.23 874.54 191.08 878.09 192.27C882.84 194 884.24 196.15 884.24 199.83C884.24 203.51 882.96 205.44 880.9 206.52C878.21 207.92 873.03 208.36 867.96 208.36C862.89 208.36 855.56 207.82 849.19 206.84L846.61 221.19C853.41 221.95 860.74 222.49 867.65 222.49C876.71 222.49 886.09 221.19 892.78 216.44C898.61 212.35 902.38 205.33 902.38 196.27C902.38 186.02 897.31 180.95 889.44 177.93C886.64 176.85 881.46 175.46 878.22 174.38C873.58 172.76 871.85 171.13 871.85 167.36C871.85 163.91 873.26 161.53 875.95 160.45C878.33 159.37 882.21 159.26 885.33 159.26C891.49 159.26 897.42 159.8 903.47 160.78L905.83 146.97C900.01 146 892.24 145.57 886.2 145.57C879.29 145.57 872.39 146.43 866.57 149.45H866.56Z" fill="#5B5A5C"/>
<path d="M926.85 149.45C918.11 153.87 914.02 162.06 914.02 171.66C914.02 179.86 918.22 185.16 926.09 188.39C930.95 190.23 934.83 191.08 938.38 192.27C943.13 194 944.54 196.15 944.54 199.83C944.54 203.51 943.24 205.44 941.2 206.52C938.49 207.92 933.31 208.36 928.24 208.36C923.17 208.36 915.84 207.82 909.48 206.84L906.88 221.19C913.68 221.95 921.01 222.49 927.92 222.49C936.98 222.49 946.36 221.19 953.06 216.44C958.88 212.35 962.66 205.33 962.66 196.27C962.66 186.02 957.59 180.95 949.72 177.93C946.9 176.85 941.74 175.46 938.49 174.38C933.86 172.76 932.14 171.13 932.14 167.36C932.14 163.91 933.54 161.53 936.23 160.45C938.61 159.37 942.49 159.26 945.62 159.26C951.77 159.26 957.69 159.8 963.74 160.78L966.12 146.97C960.29 146 952.53 145.57 946.48 145.57C939.57 145.57 932.68 146.43 926.85 149.45Z" fill="#5B5A5C"/>
<path d="M970.21 220.96H987.47L1000.52 147.08H983.26L970.21 220.96Z" fill="#5B5A5C"/>
<path d="M1021.66 149.45C1012.92 153.87 1008.83 162.06 1008.83 171.66C1008.83 179.86 1013.03 185.16 1020.9 188.39C1025.76 190.23 1029.64 191.08 1033.21 192.27C1037.95 194 1039.36 196.15 1039.36 199.83C1039.36 203.51 1038.06 205.44 1036.02 206.52C1033.31 207.92 1028.15 208.36 1023.06 208.36C1017.97 208.36 1010.66 207.82 1004.3 206.84L1001.7 221.19C1008.5 221.95 1015.83 222.49 1022.74 222.49C1031.8 222.49 1041.18 221.19 1047.88 216.44C1053.7 212.35 1057.48 205.33 1057.48 196.27C1057.48 186.02 1052.41 180.95 1044.54 177.93C1041.74 176.85 1036.56 175.46 1033.31 174.38C1028.68 172.76 1026.96 171.13 1026.96 167.36C1026.96 163.91 1028.35 161.53 1031.05 160.45C1033.43 159.37 1037.31 159.26 1040.44 159.26C1046.59 159.26 1052.51 159.8 1058.56 160.78L1060.94 146.97C1055.11 146 1047.35 145.57 1041.3 145.57C1034.39 145.57 1027.5 146.43 1021.67 149.45H1021.66Z" fill="#5B5A5C"/>
<path d="M1065.98 147.08L1063.51 160.88H1087.45L1076.77 220.96H1094.04L1104.71 160.88H1128.55L1131.04 147.08H1065.98Z" fill="#5B5A5C"/>
<path d="M848.55 158.88L851.49 160.96L853.08 143.79L837.42 150.99L840.49 153.16L831.42 166.41L827.51 145.49H805.36L764.72 220.95H783.44L793.57 211.05L805.72 199.16L809.33 216.23L833.99 180.16L848.55 158.88ZM814.21 191.6L811.66 179.52L797.23 193.65L813.41 161.57H813.75L817.64 186.57L814.21 191.59V191.6Z" fill="#5B5A5C"/>
<path d="M761.46 238.03L760.07 240.94H758.19L763.3 230.74H765.51L766.8 240.94H764.95L764.66 238.03H761.45H761.46ZM764.56 236.67L764.27 234.13C764.22 233.58 764.16 232.8 764.12 232.19H764.09C763.82 232.8 763.55 233.52 763.26 234.13L762.02 236.67H764.56Z" fill="#5B5A5C"/>
<path d="M768.07 242.25C768.51 242.51 769.33 242.69 770.02 242.69C771.17 242.69 772.05 242.14 772.41 240.43L772.59 239.6H772.56C771.95 240.48 771.18 240.9 770.24 240.9C768.77 240.9 767.94 239.69 767.93 238.3C767.93 235.85 769.7 233.4 772.76 233.4C773.71 233.4 774.64 233.61 775.32 233.91L774.2 239.99C773.93 241.43 773.5 242.58 772.69 243.27C771.92 243.91 770.87 244.09 769.95 244.09C769.03 244.09 768.13 243.89 767.65 243.59L768.07 242.24V242.25ZM773.4 234.96C773.22 234.87 772.84 234.78 772.43 234.78C770.89 234.78 769.8 236.44 769.8 238.03C769.78 238.8 770.1 239.53 770.98 239.53C771.86 239.53 772.74 238.49 772.99 237.15L773.4 234.96Z" fill="#5B5A5C"/>
<path d="M776 240.94L776.86 236.4C777.06 235.36 777.15 234.24 777.24 233.57H778.77C778.72 234.07 778.68 234.58 778.6 235.13H778.65C779.15 234.13 779.95 233.41 780.96 233.41C781.08 233.41 781.22 233.42 781.34 233.44L780.99 235.16C780.9 235.14 780.78 235.13 780.66 235.13C779.4 235.13 778.6 236.4 778.31 237.97L777.75 240.94H775.99H776Z" fill="#5B5A5C"/>
<path d="M781.25 240.94L782.64 233.57H784.41L783 240.94H781.24H781.25ZM782.93 231.57C782.93 230.93 783.41 230.5 783.99 230.5C784.53 230.5 784.93 230.89 784.93 231.45C784.91 232.1 784.43 232.51 783.84 232.51C783.3 232.51 782.92 232.12 782.93 231.57Z" fill="#5B5A5C"/>
<path d="M790.28 240.68C789.86 240.89 789.1 241.09 788.16 241.09C786.31 241.09 785.18 239.91 785.18 238.16C785.18 235.59 787.13 233.41 789.87 233.41C790.52 233.41 791.1 233.58 791.37 233.7L790.92 235.08C790.65 234.96 790.3 234.85 789.82 234.85C788.11 234.85 787.04 236.42 787.04 237.95C787.04 239.05 787.68 239.67 788.66 239.67C789.34 239.67 789.86 239.49 790.23 239.32L790.29 240.68H790.28Z" fill="#5B5A5C"/>
<path d="M799.14 233.57L798.17 238.65C798 239.53 797.9 240.3 797.81 240.94H796.25L796.4 239.65H796.37C795.66 240.6 794.74 241.1 793.81 241.1C792.74 241.1 791.89 240.53 791.89 239.01C791.89 238.62 791.94 238.19 792.04 237.69L792.83 233.56H794.59L793.83 237.58C793.75 237.94 793.71 238.31 793.71 238.59C793.71 239.2 793.95 239.63 794.65 239.63C795.47 239.63 796.42 238.66 796.71 237.13L797.39 233.54H799.15L799.14 233.57Z" fill="#5B5A5C"/>
<path d="M799.76 240.94L801.82 230.2H803.58L801.54 240.94H799.77H799.76Z" fill="#5B5A5C"/>
<path d="M807.3 231.54L806.92 233.57H808.58L808.31 234.93H806.66L806.07 237.91C806.01 238.26 805.95 238.64 805.95 238.95C805.95 239.34 806.13 239.6 806.6 239.6C806.81 239.6 807.02 239.6 807.21 239.57L807.04 240.95C806.78 241.04 806.31 241.1 805.89 241.1C804.68 241.1 804.13 240.43 804.13 239.59C804.13 239.17 804.18 238.76 804.3 238.21L804.94 234.93H803.94L804.2 233.57H805.2L805.5 231.98L807.3 231.54Z" fill="#5B5A5C"/>
<path d="M816.2 233.57L815.23 238.65C815.06 239.53 814.96 240.3 814.87 240.94H813.31L813.46 239.65H813.43C812.72 240.6 811.8 241.1 810.87 241.1C809.8 241.1 808.95 240.53 808.95 239.01C808.95 238.62 809 238.19 809.1 237.69L809.89 233.56H811.65L810.89 237.58C810.81 237.94 810.77 238.31 810.77 238.59C810.77 239.2 811.01 239.63 811.71 239.63C812.53 239.63 813.48 238.66 813.77 237.13L814.45 233.54H816.21L816.2 233.57Z" fill="#5B5A5C"/>
<path d="M816.82 240.94L817.68 236.4C817.88 235.36 817.97 234.24 818.06 233.57H819.59C819.54 234.07 819.5 234.58 819.42 235.13H819.47C819.97 234.13 820.77 233.41 821.79 233.41C821.91 233.41 822.05 233.42 822.17 233.44L821.82 235.16C821.73 235.14 821.61 235.13 821.49 235.13C820.23 235.13 819.43 236.4 819.14 237.97L818.58 240.94H816.82Z" fill="#5B5A5C"/>
<path d="M827.79 240.51C827.06 240.89 826.08 241.09 825.19 241.09C823.15 241.09 822.16 239.85 822.16 238.05C822.16 235.83 823.79 233.41 826.34 233.41C827.79 233.41 828.72 234.26 828.72 235.48C828.72 237.37 826.74 237.98 823.89 237.92C823.86 238.18 823.92 238.68 824.09 238.96C824.38 239.46 824.91 239.72 825.6 239.72C826.43 239.72 827.1 239.51 827.63 239.24L827.8 240.53L827.79 240.51ZM826.11 234.72C825.01 234.72 824.28 235.7 824.07 236.6C825.89 236.63 827.05 236.37 827.05 235.5C827.05 235.02 826.67 234.73 826.11 234.73V234.72Z" fill="#5B5A5C"/>
<path d="M832.4 238.93C832.98 239.31 833.81 239.58 834.7 239.58C835.68 239.58 836.59 239.05 836.59 238.07C836.59 237.4 836.15 236.95 835.15 236.42C833.97 235.79 833.08 234.97 833.08 233.76C833.08 231.81 834.77 230.58 836.83 230.58C837.97 230.58 838.71 230.87 839.1 231.09L838.53 232.56C838.2 232.38 837.52 232.09 836.68 232.11C835.56 232.11 834.92 232.76 834.92 233.44C834.92 234.12 835.5 234.54 836.45 235.09C837.69 235.74 838.43 236.56 838.43 237.8C838.43 239.84 836.78 241.1 834.5 241.1C833.26 241.1 832.25 240.75 831.79 240.39L832.4 238.94V238.93Z" fill="#5B5A5C"/>
<path d="M843.2 231.54L842.82 233.57H844.48L844.21 234.93H842.56L841.97 237.91C841.91 238.26 841.85 238.64 841.85 238.95C841.85 239.34 842.03 239.6 842.5 239.6C842.71 239.6 842.92 239.6 843.11 239.57L842.94 240.95C842.68 241.04 842.21 241.1 841.79 241.1C840.58 241.1 840.03 240.43 840.03 239.59C840.03 239.17 840.08 238.76 840.2 238.21L840.84 234.93H839.84L840.1 233.57H841.1L841.4 231.98L843.2 231.54Z" fill="#5B5A5C"/>
<path d="M849.32 240.94C849.34 240.5 849.4 239.91 849.46 239.28H849.41C848.68 240.64 847.72 241.11 846.78 241.11C845.46 241.11 844.6 240.08 844.6 238.6C844.6 236.09 846.36 233.41 849.79 233.41C850.59 233.41 851.45 233.56 852.01 233.74L851.25 237.58C851.04 238.68 850.92 240.06 850.95 240.94H849.32ZM850.05 234.84C849.87 234.8 849.64 234.76 849.32 234.76C847.69 234.76 846.43 236.59 846.43 238.27C846.43 239.04 846.72 239.68 847.49 239.68C848.31 239.68 849.31 238.65 849.65 236.77L850.04 234.83L850.05 234.84Z" fill="#5B5A5C"/>
<path d="M852.69 240.94L853.55 236.4C853.75 235.36 853.84 234.24 853.93 233.57H855.46C855.41 234.07 855.37 234.58 855.29 235.13H855.34C855.84 234.13 856.64 233.41 857.65 233.41C857.77 233.41 857.91 233.42 858.03 233.44L857.68 235.16C857.59 235.14 857.47 235.13 857.35 235.13C856.09 235.13 855.29 236.4 855 237.97L854.44 240.94H852.68H852.69Z" fill="#5B5A5C"/>
<path d="M862.1 231.54L861.72 233.57H863.38L863.11 234.93H861.46L860.87 237.91C860.81 238.26 860.75 238.64 860.75 238.95C860.75 239.34 860.93 239.6 861.4 239.6C861.61 239.6 861.82 239.6 862.01 239.57L861.84 240.95C861.58 241.04 861.11 241.1 860.69 241.1C859.48 241.1 858.93 240.43 858.93 239.59C858.93 239.17 858.98 238.76 859.1 238.21L859.74 234.93H858.74L859 233.57H860L860.3 231.98L862.1 231.54Z" fill="#5B5A5C"/>
<path d="M871 233.57L870.03 238.65C869.86 239.53 869.76 240.3 869.67 240.94H868.11L868.26 239.65H868.23C867.52 240.6 866.6 241.1 865.67 241.1C864.6 241.1 863.75 240.53 863.75 239.01C863.75 238.62 863.8 238.19 863.9 237.69L864.69 233.56H866.45L865.69 237.58C865.61 237.94 865.57 238.31 865.57 238.59C865.57 239.2 865.81 239.63 866.51 239.63C867.33 239.63 868.28 238.66 868.57 237.13L869.25 233.54H871.01L871 233.57Z" fill="#5B5A5C"/>
<path d="M871 243.93L872.44 236.3C872.61 235.42 872.77 234.32 872.86 233.56H874.45L874.28 234.77H874.31C874.95 233.89 875.85 233.39 876.81 233.39C878.4 233.39 879.14 234.69 879.14 236.13C879.14 238.7 877.35 241.09 874.84 241.09C874.16 241.09 873.64 240.94 873.37 240.77H873.34L872.75 243.92H870.99L871 243.93ZM873.63 239.38C873.9 239.61 874.3 239.74 874.81 239.74C876.17 239.74 877.29 237.92 877.29 236.27C877.29 235.59 876.99 234.83 876.12 234.83C875.25 234.83 874.26 235.84 873.94 237.57L873.62 239.37L873.63 239.38Z" fill="#5B5A5C"/>
<path d="M883.01 238.93C883.59 239.31 884.42 239.58 885.31 239.58C886.29 239.58 887.2 239.05 887.2 238.07C887.2 237.4 886.76 236.95 885.76 236.42C884.58 235.79 883.69 234.97 883.69 233.76C883.69 231.81 885.38 230.58 887.44 230.58C888.58 230.58 889.32 230.87 889.71 231.09L889.14 232.56C888.81 232.38 888.13 232.09 887.29 232.11C886.17 232.11 885.53 232.76 885.53 233.44C885.53 234.12 886.11 234.54 887.06 235.09C888.3 235.74 889.04 236.56 889.04 237.8C889.04 239.84 887.39 241.1 885.11 241.1C883.87 241.1 882.86 240.75 882.4 240.39L883.01 238.94V238.93Z" fill="#5B5A5C"/>
<path d="M897.67 233.57L896.7 238.65C896.53 239.53 896.43 240.3 896.34 240.94H894.78L894.93 239.65H894.9C894.19 240.6 893.27 241.1 892.34 241.1C891.27 241.1 890.42 240.53 890.42 239.01C890.42 238.62 890.47 238.19 890.57 237.69L891.36 233.56H893.12L892.36 237.58C892.28 237.94 892.24 238.31 892.24 238.59C892.24 239.2 892.48 239.63 893.18 239.63C894 239.63 894.95 238.66 895.24 237.13L895.92 233.54H897.68L897.67 233.57Z" fill="#5B5A5C"/>
<path d="M897.67 243.93L899.11 236.3C899.28 235.42 899.44 234.32 899.53 233.56H901.12L900.95 234.77H900.98C901.62 233.89 902.52 233.39 903.48 233.39C905.07 233.39 905.81 234.69 905.81 236.13C905.81 238.7 904.02 241.09 901.51 241.09C900.83 241.09 900.31 240.94 900.04 240.77H900.01L899.42 243.92H897.66L897.67 243.93ZM900.3 239.38C900.57 239.61 900.97 239.74 901.48 239.74C902.84 239.74 903.96 237.92 903.96 236.27C903.96 235.59 903.66 234.83 902.8 234.83C901.94 234.83 900.94 235.84 900.62 237.57L900.3 239.37V239.38Z" fill="#5B5A5C"/>
<path d="M905.92 243.93L907.36 236.3C907.53 235.42 907.69 234.32 907.78 233.56H909.37L909.2 234.77H909.23C909.87 233.89 910.77 233.39 911.73 233.39C913.32 233.39 914.06 234.69 914.06 236.13C914.06 238.7 912.27 241.09 909.76 241.09C909.08 241.09 908.56 240.94 908.29 240.77H908.26L907.67 243.92H905.91L905.92 243.93ZM908.55 239.38C908.82 239.61 909.22 239.74 909.73 239.74C911.09 239.74 912.21 237.92 912.21 236.27C912.21 235.59 911.91 234.83 911.04 234.83C910.17 234.83 909.18 235.84 908.86 237.57L908.54 239.37L908.55 239.38Z" fill="#5B5A5C"/>
<path d="M922.3 236.46C922.3 238.96 920.54 241.1 918.03 241.1C916.17 241.1 915.02 239.81 915.02 238.06C915.02 235.56 916.76 233.4 919.27 233.4C921.25 233.4 922.3 234.82 922.3 236.46ZM916.84 238.02C916.84 239.03 917.38 239.74 918.28 239.74C919.6 239.74 920.47 237.92 920.47 236.46C920.47 235.7 920.14 234.77 919.06 234.77C917.65 234.77 916.84 236.65 916.84 238.02Z" fill="#5B5A5C"/>
<path d="M923.06 240.94L923.92 236.4C924.12 235.36 924.21 234.24 924.3 233.57H925.83C925.78 234.07 925.74 234.58 925.66 235.13H925.71C926.21 234.13 927.01 233.41 928.03 233.41C928.15 233.41 928.29 233.42 928.41 233.44L928.06 235.16C927.97 235.14 927.85 235.13 927.73 235.13C926.47 235.13 925.67 236.4 925.38 237.97L924.82 240.94H923.06Z" fill="#5B5A5C"/>
<path d="M932.47 231.54L932.09 233.57H933.75L933.48 234.93H931.83L931.24 237.91C931.18 238.26 931.12 238.64 931.12 238.95C931.12 239.34 931.3 239.6 931.77 239.6C931.98 239.6 932.19 239.6 932.38 239.57L932.21 240.95C931.95 241.04 931.48 241.1 931.06 241.1C929.85 241.1 929.3 240.43 929.3 239.59C929.3 239.17 929.35 238.76 929.47 238.21L930.11 234.93H929.11L929.37 233.57H930.37L930.67 231.98L932.47 231.54Z" fill="#5B5A5C"/>
<path d="M940.25 230.74L938.31 240.94H936.54L938.48 230.74H940.25Z" fill="#5B5A5C"/>
<path d="M940.38 240.94L941.33 235.86C941.51 234.98 941.62 234.21 941.71 233.57H943.27L943.12 234.9H943.15C943.83 233.9 944.77 233.4 945.8 233.4C946.83 233.4 947.68 234.03 947.68 235.43C947.68 235.76 947.62 236.28 947.54 236.66L946.72 240.94H944.96L945.75 236.78C945.8 236.51 945.84 236.19 945.84 235.9C945.84 235.29 945.61 234.84 944.92 234.84C944.12 234.84 943.09 235.81 942.77 237.53L942.13 240.93H940.37L940.38 240.94Z" fill="#5B5A5C"/>
<path d="M950.81 233.57L951.28 237.23C951.37 238.11 951.46 238.67 951.49 239.15H951.54C951.72 238.68 951.93 238.15 952.34 237.27L954.17 233.56H956.12L952.02 240.93H950.25L948.99 233.56H950.81V233.57Z" fill="#5B5A5C"/>
<path d="M961.56 240.51C960.83 240.89 959.85 241.09 958.96 241.09C956.92 241.09 955.93 239.85 955.93 238.05C955.93 235.83 957.56 233.41 960.11 233.41C961.56 233.41 962.49 234.26 962.49 235.48C962.49 237.37 960.51 237.98 957.66 237.92C957.63 238.18 957.69 238.68 957.86 238.96C958.15 239.46 958.68 239.72 959.37 239.72C960.2 239.72 960.87 239.51 961.4 239.24L961.57 240.53L961.56 240.51ZM959.88 234.72C958.78 234.72 958.05 235.7 957.84 236.6C959.66 236.63 960.82 236.37 960.82 235.5C960.82 235.02 960.44 234.73 959.88 234.73V234.72Z" fill="#5B5A5C"/>
<path d="M963.21 239.29C963.59 239.5 964.31 239.79 964.98 239.79C965.69 239.77 966.11 239.37 966.11 238.88C966.11 238.39 965.87 238.12 965.14 237.75C964.29 237.31 963.69 236.68 963.69 235.83C963.69 234.41 964.93 233.41 966.67 233.41C967.44 233.41 968.08 233.59 968.41 233.79L967.96 235.06C967.69 234.91 967.19 234.73 966.58 234.73C965.91 234.73 965.46 235.09 965.46 235.59C965.46 236 965.79 236.29 966.41 236.6C967.21 237.04 967.94 237.64 967.94 238.58C967.94 240.2 966.58 241.09 964.81 241.09C963.95 241.09 963.15 240.85 962.75 240.56L963.2 239.29H963.21Z" fill="#5B5A5C"/>
<path d="M972.81 231.54L972.43 233.57H974.09L973.82 234.93H972.17L971.58 237.91C971.52 238.26 971.46 238.64 971.46 238.95C971.46 239.34 971.64 239.6 972.11 239.6C972.32 239.6 972.53 239.6 972.72 239.57L972.55 240.95C972.29 241.04 971.82 241.1 971.4 241.1C970.19 241.1 969.64 240.43 969.64 239.59C969.64 239.17 969.69 238.76 969.81 238.21L970.45 234.93H969.45L969.71 233.57H970.71L971.01 231.98L972.81 231.54Z" fill="#5B5A5C"/>
<path d="M974.08 240.94L975.02 235.86C975.19 234.98 975.31 234.21 975.38 233.57H976.91L976.76 234.86H976.77C977.47 233.88 978.37 233.41 979.33 233.41C980.48 233.41 981.01 234.14 981.07 234.92C981.72 233.91 982.66 233.42 983.67 233.41C984.68 233.41 985.47 234.06 985.47 235.38C985.47 235.7 985.41 236.24 985.35 236.64L984.53 240.95H982.82L983.59 236.83C983.64 236.53 983.7 236.19 983.7 235.89C983.7 235.27 983.44 234.85 982.79 234.85C981.99 234.85 981.1 235.86 980.81 237.42L980.14 240.95H978.45L979.24 236.77C979.3 236.47 979.33 236.18 979.33 235.91C979.33 235.35 979.16 234.85 978.45 234.85C977.63 234.85 976.69 235.95 976.42 237.45L975.78 240.95H974.07L974.08 240.94Z" fill="#5B5A5C"/>
<path d="M992.28 240.51C991.55 240.89 990.57 241.09 989.68 241.09C987.64 241.09 986.65 239.85 986.65 238.05C986.65 235.83 988.28 233.41 990.83 233.41C992.28 233.41 993.21 234.26 993.21 235.48C993.21 237.37 991.23 237.98 988.38 237.92C988.35 238.18 988.41 238.68 988.58 238.96C988.87 239.46 989.4 239.72 990.09 239.72C990.92 239.72 991.59 239.51 992.12 239.24L992.29 240.53L992.28 240.51ZM990.6 234.72C989.5 234.72 988.77 235.7 988.56 236.6C990.38 236.63 991.54 236.37 991.54 235.5C991.54 235.02 991.16 234.73 990.6 234.73V234.72Z" fill="#5B5A5C"/>
<path d="M993.75 240.94L994.7 235.86C994.88 234.98 994.99 234.21 995.08 233.57H996.64L996.49 234.9H996.52C997.2 233.9 998.14 233.4 999.17 233.4C1000.2 233.4 1001.05 234.03 1001.05 235.43C1001.05 235.76 1000.99 236.28 1000.91 236.66L1000.09 240.94H998.33L999.12 236.78C999.17 236.51 999.21 236.19 999.21 235.9C999.21 235.29 998.98 234.84 998.29 234.84C997.49 234.84 996.46 235.81 996.14 237.53L995.5 240.93H993.74L993.75 240.94Z" fill="#5B5A5C"/>
<path d="M1005.83 231.54L1005.45 233.57H1007.11L1006.84 234.93H1005.19L1004.6 237.91C1004.54 238.26 1004.48 238.64 1004.48 238.95C1004.48 239.34 1004.66 239.6 1005.13 239.6C1005.34 239.6 1005.55 239.6 1005.74 239.57L1005.57 240.95C1005.31 241.04 1004.84 241.1 1004.42 241.1C1003.21 241.1 1002.66 240.43 1002.66 239.59C1002.66 239.17 1002.71 238.76 1002.83 238.21L1003.47 234.93H1002.47L1002.73 233.57H1003.73L1004.03 231.98L1005.83 231.54Z" fill="#5B5A5C"/>
<path d="M1010.25 238.93C1010.83 239.31 1011.66 239.58 1012.55 239.58C1013.53 239.58 1014.44 239.05 1014.44 238.07C1014.44 237.4 1014 236.95 1013 236.42C1011.82 235.79 1010.93 234.97 1010.93 233.76C1010.93 231.81 1012.62 230.58 1014.68 230.58C1015.82 230.58 1016.56 230.87 1016.95 231.09L1016.38 232.56C1016.05 232.38 1015.37 232.09 1014.53 232.11C1013.41 232.11 1012.77 232.76 1012.77 233.44C1012.77 234.12 1013.35 234.54 1014.3 235.09C1015.54 235.74 1016.28 236.56 1016.28 237.8C1016.28 239.84 1014.63 241.1 1012.35 241.1C1011.11 241.1 1010.1 240.75 1009.64 240.39L1010.25 238.94V238.93Z" fill="#5B5A5C"/>
<path d="M1023.19 240.51C1022.46 240.89 1021.48 241.09 1020.59 241.09C1018.55 241.09 1017.56 239.85 1017.56 238.05C1017.56 235.83 1019.19 233.41 1021.74 233.41C1023.19 233.41 1024.12 234.26 1024.12 235.48C1024.12 237.37 1022.14 237.98 1019.29 237.92C1019.26 238.18 1019.32 238.68 1019.49 238.96C1019.78 239.46 1020.31 239.72 1021 239.72C1021.83 239.72 1022.5 239.51 1023.03 239.24L1023.2 240.53L1023.19 240.51ZM1021.51 234.72C1020.41 234.72 1019.68 235.7 1019.47 236.6C1021.29 236.63 1022.45 236.37 1022.45 235.5C1022.45 235.02 1022.07 234.73 1021.51 234.73V234.72Z" fill="#5B5A5C"/>
<path d="M1024.66 240.94L1025.52 236.4C1025.72 235.36 1025.81 234.24 1025.9 233.57H1027.43C1027.38 234.07 1027.34 234.58 1027.26 235.13H1027.31C1027.81 234.13 1028.61 233.41 1029.63 233.41C1029.75 233.41 1029.89 233.42 1030.01 233.44L1029.66 235.16C1029.57 235.14 1029.45 235.13 1029.33 235.13C1028.07 235.13 1027.27 236.4 1026.98 237.97L1026.42 240.94H1024.66Z" fill="#5B5A5C"/>
<path d="M1032.46 233.57L1032.93 237.23C1033.02 238.11 1033.11 238.67 1033.14 239.15H1033.19C1033.37 238.68 1033.58 238.15 1033.99 237.27L1035.82 233.56H1037.77L1033.67 240.93H1031.9L1030.64 233.56H1032.46V233.57Z" fill="#5B5A5C"/>
<path d="M1037.58 240.94L1038.97 233.57H1040.74L1039.33 240.94H1037.57H1037.58ZM1039.26 231.57C1039.26 230.93 1039.74 230.5 1040.32 230.5C1040.86 230.5 1041.26 230.89 1041.26 231.45C1041.24 232.1 1040.76 232.51 1040.17 232.51C1039.63 232.51 1039.25 232.12 1039.26 231.57Z" fill="#5B5A5C"/>
<path d="M1046.61 240.68C1046.19 240.89 1045.43 241.09 1044.49 241.09C1042.64 241.09 1041.51 239.91 1041.51 238.16C1041.51 235.59 1043.46 233.41 1046.2 233.41C1046.85 233.41 1047.43 233.58 1047.7 233.7L1047.25 235.08C1046.98 234.96 1046.63 234.85 1046.15 234.85C1044.44 234.85 1043.37 236.42 1043.37 237.95C1043.37 239.05 1044.01 239.67 1044.99 239.67C1045.67 239.67 1046.19 239.49 1046.56 239.32L1046.62 240.68H1046.61Z" fill="#5B5A5C"/>
<path d="M1053.48 240.51C1052.75 240.89 1051.77 241.09 1050.88 241.09C1048.84 241.09 1047.85 239.85 1047.85 238.05C1047.85 235.83 1049.48 233.41 1052.03 233.41C1053.48 233.41 1054.41 234.26 1054.41 235.48C1054.41 237.37 1052.43 237.98 1049.58 237.92C1049.55 238.18 1049.61 238.68 1049.78 238.96C1050.07 239.46 1050.6 239.72 1051.29 239.72C1052.12 239.72 1052.79 239.51 1053.32 239.24L1053.49 240.53L1053.48 240.51ZM1051.8 234.72C1050.7 234.72 1049.97 235.7 1049.76 236.6C1051.58 236.63 1052.74 236.37 1052.74 235.5C1052.74 235.02 1052.36 234.73 1051.8 234.73V234.72Z" fill="#5B5A5C"/>
<path d="M1057.09 243.93L1058.53 236.3C1058.7 235.42 1058.86 234.32 1058.95 233.56H1060.54L1060.37 234.77H1060.4C1061.04 233.89 1061.94 233.39 1062.9 233.39C1064.49 233.39 1065.23 234.69 1065.23 236.13C1065.23 238.7 1063.44 241.09 1060.93 241.09C1060.25 241.09 1059.73 240.94 1059.46 240.77H1059.43L1058.84 243.92H1057.08L1057.09 243.93ZM1059.72 239.38C1059.99 239.61 1060.39 239.74 1060.9 239.74C1062.26 239.74 1063.38 237.92 1063.38 236.27C1063.38 235.59 1063.08 234.83 1062.21 234.83C1061.34 234.83 1060.35 235.84 1060.03 237.57L1059.71 239.37L1059.72 239.38Z" fill="#5B5A5C"/>
<path d="M1065.96 240.94L1068.02 230.2H1069.78L1067.74 240.94H1065.97H1065.96Z" fill="#5B5A5C"/>
<path d="M1074.57 240.94C1074.59 240.5 1074.65 239.91 1074.71 239.28H1074.66C1073.93 240.64 1072.97 241.11 1072.03 241.11C1070.71 241.11 1069.85 240.08 1069.85 238.6C1069.85 236.09 1071.61 233.41 1075.04 233.41C1075.84 233.41 1076.7 233.56 1077.26 233.74L1076.5 237.58C1076.29 238.68 1076.17 240.06 1076.2 240.94H1074.57ZM1075.3 234.84C1075.12 234.8 1074.89 234.76 1074.57 234.76C1072.94 234.76 1071.68 236.59 1071.68 238.27C1071.68 239.04 1071.97 239.68 1072.74 239.68C1073.56 239.68 1074.56 238.65 1074.9 236.77L1075.29 234.83L1075.3 234.84Z" fill="#5B5A5C"/>
<path d="M1080.73 232.28H1077.9L1078.2 230.74H1085.63L1085.33 232.28H1082.49L1080.86 240.93H1079.09L1080.74 232.28H1080.73Z" fill="#5B5A5C"/>
<path d="M1085.02 240.94L1086.15 234.93H1085.2L1085.46 233.57H1086.41L1086.49 233.19C1086.66 232.25 1087.02 231.31 1087.72 230.71C1088.26 230.24 1088.98 230.03 1089.66 230.03C1090.17 230.03 1090.55 230.12 1090.75 230.23L1090.42 231.62C1090.24 231.54 1090 231.5 1089.71 231.5C1088.88 231.5 1088.41 232.27 1088.24 233.22L1088.18 233.57H1089.71L1089.45 234.93H1087.92L1086.79 240.94H1085.03H1085.02Z" fill="#5B5A5C"/>
<path d="M1096.93 236.46C1096.93 238.96 1095.17 241.1 1092.66 241.1C1090.8 241.1 1089.65 239.81 1089.65 238.06C1089.65 235.56 1091.39 233.4 1093.9 233.4C1095.88 233.4 1096.93 234.82 1096.93 236.46ZM1091.47 238.02C1091.47 239.03 1092.01 239.74 1092.91 239.74C1094.23 239.74 1095.1 237.92 1095.1 236.46C1095.1 235.7 1094.77 234.77 1093.69 234.77C1092.28 234.77 1091.47 236.65 1091.47 238.02Z" fill="#5B5A5C"/>
<path d="M1097.69 240.94L1098.55 236.4C1098.75 235.36 1098.84 234.24 1098.93 233.57H1100.46C1100.41 234.07 1100.37 234.58 1100.29 235.13H1100.34C1100.84 234.13 1101.64 233.41 1102.65 233.41C1102.77 233.41 1102.91 233.42 1103.03 233.44L1102.68 235.16C1102.59 235.14 1102.47 235.13 1102.35 235.13C1101.09 235.13 1100.29 236.4 1100 237.97L1099.44 240.94H1097.68H1097.69Z" fill="#5B5A5C"/>
<path d="M1102.94 240.94L1103.88 235.86C1104.05 234.98 1104.17 234.21 1104.24 233.57H1105.77L1105.62 234.86H1105.63C1106.33 233.88 1107.23 233.41 1108.19 233.41C1109.34 233.41 1109.87 234.14 1109.93 234.92C1110.58 233.91 1111.52 233.42 1112.53 233.41C1113.54 233.41 1114.33 234.06 1114.33 235.38C1114.33 235.7 1114.27 236.24 1114.21 236.64L1113.39 240.95H1111.68L1112.45 236.83C1112.5 236.53 1112.56 236.19 1112.56 235.89C1112.56 235.27 1112.3 234.85 1111.65 234.85C1110.85 234.85 1109.96 235.86 1109.67 237.42L1109 240.95H1107.31L1108.1 236.77C1108.16 236.47 1108.19 236.18 1108.19 235.91C1108.19 235.35 1108.02 234.85 1107.31 234.85C1106.49 234.85 1105.55 235.95 1105.28 237.45L1104.64 240.95H1102.93L1102.94 240.94Z" fill="#5B5A5C"/>
<path d="M810.77 134.71C810.94 133.74 811.52 133.09 812.42 132.63C813.57 132.03 815.24 131.8 817.08 131.8C818.9 131.8 820.49 132.03 821.43 132.63C822.16 133.09 822.52 133.75 822.34 134.71C822.17 135.67 821.57 136.33 820.68 136.79C819.53 137.4 817.86 137.62 816.04 137.61C814.2 137.61 812.61 137.4 811.68 136.78C810.95 136.32 810.61 135.66 810.78 134.7L810.77 134.71ZM813.07 123.18H815.4L814.9 125.95H823.7L823.35 127.9H818.89L818.68 129.05H823.94L823.59 131.03H810.8L811.15 129.05H816.36L816.57 127.9H812.21L813.06 123.18H813.07ZM813.09 134.71C813.04 134.97 813.16 135.17 813.39 135.32C813.86 135.63 814.88 135.75 816.36 135.75C817.83 135.75 818.9 135.63 819.47 135.32C819.76 135.17 819.95 134.97 819.99 134.71C820.03 134.46 819.92 134.25 819.68 134.11C819.22 133.79 818.19 133.68 816.72 133.68C815.23 133.68 814.17 133.79 813.59 134.11C813.3 134.25 813.11 134.46 813.07 134.71H813.09Z" fill="#5B5A5C"/>
<path d="M829.79 123.19H832.12L831.79 125.03C831.35 127.47 832.28 128.55 833.95 129.06L833.59 131.07C831.98 130.82 830.56 130.01 829.93 128.99C828.96 130.06 827.23 130.93 825.47 131.22L825.83 129.23C827.74 128.69 829.04 127.43 829.46 125.05L829.79 123.2V123.19ZM826.08 133.94L826.43 131.98H837.35L836.36 137.48H834.03L834.66 133.94H826.07H826.08ZM838.94 123.12L837.47 131.3H835.14L836.61 123.12H838.94Z" fill="#5B5A5C"/>
<path d="M845.45 131.21H840.22L840.56 129.3H853.35L853.01 131.22H847.77L847.59 132.24H851.96L851.03 137.4H839.97L840.9 132.24H845.27L845.45 131.22V131.21ZM851.1 126.65H853.2L852.86 128.52H841.33L841.67 126.65H843.6L843.87 125.13H842.17L842.5 123.26H853.56L853.23 125.13H851.53L851.41 125.8C851.36 126.11 851.26 126.4 851.11 126.64L851.1 126.65ZM842.63 135.54H849.04L849.3 134.12H842.89L842.63 135.54ZM849.24 125.13H846.17L845.9 126.64H848.83C848.96 126.43 849.05 126.17 849.1 125.92L849.24 125.12V125.13Z" fill="#5B5A5C"/>
<path d="M864.1 134.43H858.96L859.32 132.44H871.96L871.6 134.43H866.43L865.88 137.48H863.55L864.1 134.43ZM872.89 123.27L872.54 125.23H863.65L863.46 126.3H872.19L871.84 128.25H863.11L862.91 129.37H871.96L871.61 131.35H860.22L861.67 123.28H872.91L872.89 123.27Z" fill="#5B5A5C"/>
<path d="M875.53 125.33L875.88 123.37H883.64L883.29 125.33H880.56L879.99 128.48C879.28 132.42 880.33 133.61 881.8 134.31L881.43 136.36C879.81 135.96 878.48 134.84 877.92 133.56C876.9 134.86 875.11 135.98 873.4 136.36L873.77 134.31C875.49 133.62 876.95 132.41 877.65 128.48L878.22 125.33H875.54H875.53ZM884.93 123.13H887.26L886.27 128.66H888.34L887.98 130.67H885.91L884.73 137.27H882.4L884.93 123.14V123.13Z" fill="#5B5A5C"/>
<path d="M890.43 125.24L890.78 123.28H898.26L897.91 125.24H895.3C894.87 127.63 895.75 128.58 897.5 128.95L897.15 130.92C895.53 130.71 894.16 129.99 893.54 128.91C892.49 130 890.76 130.88 889.1 131.08L889.46 129.09C891.34 128.72 892.57 127.65 893 125.23H890.42L890.43 125.24ZM889.4 134.47C889.58 133.49 890.19 132.79 891.05 132.3C892.25 131.6 893.93 131.35 895.59 131.35C897.23 131.35 898.84 131.59 899.79 132.3C900.45 132.79 900.82 133.49 900.64 134.47C900.46 135.45 899.85 136.15 899.01 136.66C897.81 137.36 896.11 137.59 894.47 137.59C892.83 137.59 891.21 137.36 890.27 136.66C889.59 136.15 889.23 135.45 889.4 134.47ZM891.73 134.47C891.67 134.79 891.81 134.99 892.06 135.17C892.59 135.54 893.65 135.64 894.81 135.64C895.97 135.64 897.07 135.53 897.72 135.17C898.06 134.99 898.25 134.79 898.31 134.47C898.36 134.16 898.25 133.95 897.98 133.77C897.46 133.42 896.39 133.3 895.24 133.3C894.07 133.3 892.98 133.42 892.32 133.77C892 133.95 891.79 134.17 891.73 134.47ZM902.35 123.13L900.91 131.18H898.58L899.17 127.9H896.64L896.99 125.97H899.52L900.03 123.12H902.36L902.35 123.13Z" fill="#5B5A5C"/>
<path d="M908.16 123.37L907.7 125.93H914.26L914.72 123.38H917.05L915.49 132.09H911.06L910.59 134.71H915.73L915.38 136.69H902.74L903.09 134.71H908.26L908.73 132.09H904.25L905.81 123.38H908.16V123.37ZM906.95 130.11H913.51L913.91 127.91H907.35L906.95 130.11Z" fill="#5B5A5C"/>
<path d="M934.1 135.09H925.37L925.26 135.68H934.29L933.98 137.41H922.62L923.35 133.35H932.09L932.2 132.72H923.46L923.77 130.97H934.83L934.09 135.08L934.1 135.09ZM935.84 130.27H923.05L923.38 128.43H936.17L935.84 130.27ZM933.88 126.04H935.97L935.65 127.8H924.12L924.44 126.04H926.37L926.55 125.04H924.85L925.17 123.28H936.23L935.91 125.04H934.21L934.14 125.44C934.1 125.67 934.03 125.87 933.89 126.04H933.88ZM931.91 125.04H928.84L928.66 126.04H931.6C931.7 125.9 931.79 125.69 931.82 125.49L931.9 125.05L931.91 125.04Z" fill="#5B5A5C"/>
<path d="M943.3 135.45C941.92 136.58 939.56 137.33 937.05 137.44L937.4 135.51C940.27 135.22 942.34 134.3 942.68 132.39L942.73 132.11H945.06L945.01 132.39C944.67 134.29 946.38 135.19 949.17 135.51L948.82 137.44C946.34 137.33 944.27 136.58 943.29 135.45H943.3ZM940.64 128.28L940.4 129.64H942.84C943.79 129.64 944.38 129.5 944.9 129.17L945.97 123.21H948.07L947.51 126.33H948.49L949.06 123.13H951.24L949.58 132.36H947.4L948.12 128.32H947.14L946.53 131.7H944.43L944.58 130.89C944.08 131.29 943.36 131.46 942.01 131.46H937.9L938.8 126.45H942.13L942.37 125.1H939.04L939.37 123.28H944.88L943.98 128.27H940.64V128.28Z" fill="#5B5A5C"/>
<path d="M964.06 132.27L963.13 137.43H952.07L953 132.27H964.06ZM963.21 126.68H965.31L964.97 128.55H960.34L960.17 129.48H965.43L965.09 131.4H952.3L952.64 129.48H957.85L958.02 128.55H953.43L953.77 126.68H955.7L955.97 125.16H954.27L954.6 123.29H965.66L965.33 125.16H963.63L963.51 125.83C963.46 126.14 963.36 126.43 963.21 126.67V126.68ZM954.74 135.57H961.15L961.41 134.15H955L954.74 135.57ZM961.35 125.16H958.28L958.01 126.67H960.94C961.07 126.46 961.16 126.2 961.21 125.95L961.35 125.15V125.16Z" fill="#5B5A5C"/>
</g>
<defs>
<clipPath id="clip0_866_33031">
<rect width="1217" height="445.98" fill="white" transform="translate(0.5)"/>
</clipPath>
</defs>
</svg>
