<svg width="181" height="57" viewBox="0 0 181 57" fill="none" xmlns="http://www.w3.org/2000/svg">
<g id="&#234;&#176;&#128;&#235;&#161;&#156;&#237;&#152;&#149; &#234;&#184;&#176;&#235;&#179;&#184;" clip-path="url(#clip0_866_35226)">
<g id="Layer 1">
<g id="Group">
<path id="Vector" d="M81.8393 49.7811C58.1063 49.7811 35.7246 46.2989 16.0031 40.1377C32.8944 50.2772 56.1549 56.5424 81.8393 56.5424C107.524 56.5424 130.784 50.2772 147.675 40.1377C127.954 46.2989 105.572 49.7811 81.8393 49.7811Z" fill="#4DB858"/>
<g id="Group_2">
<path id="Vector_2" d="M27.5601 30.1966L28.7932 38.1249H37.9926L34.5859 19.9153L27.5601 30.1966Z" fill="#244787"/>
<path id="Vector_3" d="M50.315 2.79238C45.9965 4.97527 43.9696 9.02448 43.9696 13.7682C43.9696 17.8222 46.0532 20.435 49.9418 22.032C52.3373 22.9392 54.2603 23.3644 56.018 23.9503C58.3662 24.8055 59.056 25.8686 59.056 27.683C59.056 29.4973 58.4229 30.4517 57.4023 30.9856C56.0699 31.6755 53.5138 31.8928 51.0096 31.8928C48.5054 31.8928 44.8815 31.6282 41.7347 31.1416L40.459 38.2336C43.8184 38.6068 47.4423 38.8762 50.8537 38.8762C55.3328 38.8762 59.9632 38.2336 63.2659 35.8853C66.1481 33.8631 68.0097 30.3997 68.0097 25.9206C68.0097 20.8555 65.5055 18.3514 61.6169 16.8583C60.2325 16.3244 57.6717 15.6346 56.0747 15.1054C53.7831 14.3069 52.9279 13.5036 52.9279 11.6373C52.9279 9.93165 53.6224 8.75516 54.9549 8.22597C56.1266 7.69207 58.0449 7.64009 59.59 7.64009C62.6328 7.64009 65.5622 7.90468 68.553 8.39135L69.7201 1.56864C66.8473 1.09143 63.006 0.878815 60.0199 0.878815C56.6086 0.878815 53.1972 1.30405 50.3198 2.79711L50.315 2.79238Z" fill="#244787"/>
<path id="Vector_4" d="M80.1053 2.79238C75.7868 4.97527 73.7646 9.02448 73.7646 13.7682C73.7646 17.8222 75.8388 20.435 79.7274 22.032C82.1276 22.9392 84.0459 23.3644 85.8035 23.9503C88.1518 24.8055 88.8463 25.8686 88.8463 27.683C88.8463 29.4973 88.2038 30.4517 87.1926 30.9856C85.8555 31.6755 83.2946 31.8928 80.7905 31.8928C78.2863 31.8928 74.6623 31.6282 71.5203 31.1416L70.2351 38.2336C73.5945 38.6068 77.2185 38.8762 80.6298 38.8762C85.109 38.8762 89.7393 38.2336 93.0515 35.8853C95.9242 33.8631 97.7952 30.3997 97.7952 25.9206C97.7952 20.8555 95.2911 18.3514 91.4025 16.8583C90.0087 16.3244 87.4572 15.6346 85.8555 15.1054C83.5687 14.3069 82.7182 13.5036 82.7182 11.6373C82.7182 9.93165 83.408 8.75516 84.7404 8.22597C85.9122 7.69207 87.8305 7.64009 89.3803 7.64009C92.4183 7.64009 95.343 7.90468 98.3339 8.39135L99.5056 1.56864C96.6235 1.09143 92.7916 0.878815 89.8008 0.878815C86.3894 0.878815 82.9828 1.30405 80.1006 2.79711L80.1053 2.79238Z" fill="#244787"/>
<path id="Vector_5" d="M101.528 38.1249H110.061L116.51 1.62064H107.977L101.528 38.1249Z" fill="#244787"/>
<path id="Vector_6" d="M126.952 2.79238C122.634 4.97527 120.612 9.02448 120.612 13.7682C120.612 17.8222 122.686 20.435 126.574 22.032C128.975 22.9392 130.893 23.3644 132.655 23.9503C134.994 24.8055 135.693 25.8686 135.693 27.683C135.693 29.4973 135.051 30.4517 134.04 30.9856C132.702 31.6755 130.151 31.8928 127.637 31.8928C125.124 31.8928 121.509 31.6282 118.367 31.1416L117.082 38.2336C120.441 38.6068 124.065 38.8762 127.477 38.8762C131.956 38.8762 136.586 38.2336 139.898 35.8853C142.771 33.8631 144.642 30.3997 144.642 25.9206C144.642 20.8555 142.138 18.3514 138.249 16.8583C136.865 16.3244 134.304 15.6346 132.702 15.1054C130.416 14.3069 129.565 13.5036 129.565 11.6373C129.565 9.93165 130.255 8.75516 131.587 8.22597C132.759 7.69207 134.677 7.64009 136.227 7.64009C139.265 7.64009 142.19 7.90468 145.181 8.39135L146.353 1.56864C143.47 1.09143 139.639 0.878815 136.648 0.878815C133.236 0.878815 129.83 1.30405 126.948 2.79711L126.952 2.79238Z" fill="#244787"/>
<path id="Vector_7" d="M148.852 1.62064L147.633 8.43861H159.459L154.186 38.1249H162.715L167.992 8.43861H179.772L181 1.62064H148.852Z" fill="#244787"/>
<path id="Vector_8" d="M41.4181 7.45111L42.8734 8.48113L43.6624 0L35.9231 3.55782L37.4398 4.63036L32.9606 11.179L31.0282 0.841025H20.0854L0 38.1249H9.25128L14.2549 33.2299L20.2555 27.3522L22.0415 35.7861L34.2269 17.9639L41.4229 7.44638L41.4181 7.45111ZM24.4512 23.6196L23.1896 17.6521L16.0598 24.6354L24.0543 8.78352H24.2196L26.1427 21.1343L24.4512 23.6149V23.6196Z" fill="#244787"/>
</g>
</g>
</g>
</g>
<defs>
<clipPath id="clip0_866_35226">
<rect width="181" height="56.5377" fill="white"/>
</clipPath>
</defs>
</svg>
