<svg width="180" height="67" viewBox="0 0 180 67" fill="none" xmlns="http://www.w3.org/2000/svg">
<g id="&#234;&#176;&#128;&#235;&#161;&#156;&#237;&#152;&#149; &#236;&#152;&#129;&#235;&#172;&#184;&#236;&#161;&#176;&#237;&#149;&#169;" clip-path="url(#clip0_866_35087)">
<g id="Layer 1">
<g id="Group">
<g id="Group_2">
<path id="Vector" d="M83.1171 59.5599C59.9292 59.5599 38.0617 56.1577 18.7931 50.138C35.2965 60.0446 58.0227 66.1659 83.1171 66.1659C108.211 66.1659 130.938 60.0446 147.441 50.138C128.172 56.1577 106.305 59.5599 83.1171 59.5599Z" fill="#4DB858"/>
<g id="Group_3">
<path id="Vector_2" d="M30.0846 29.503L31.2895 37.2492H40.2775L36.9491 19.4578L30.0846 29.503Z" fill="#244787"/>
<path id="Vector_3" d="M52.3169 2.72826C48.0976 4.861 46.1172 8.8172 46.1172 13.452C46.1172 17.4128 48.153 19.9656 51.9522 21.526C54.2927 22.4123 56.1716 22.8278 57.8888 23.4002C60.1832 24.2357 60.8571 25.2744 60.8571 27.0471C60.8571 28.8198 60.2385 29.7523 59.2414 30.2739C57.9396 30.9479 55.4422 31.1602 52.9955 31.1602C50.5489 31.1602 47.0081 30.9017 43.9337 30.4262L42.6873 37.3554C45.9695 37.72 49.5102 37.9832 52.8432 37.9832C57.2195 37.9832 61.7435 37.3554 64.9703 35.061C67.7863 33.0852 69.6051 29.7015 69.6051 25.3252C69.6051 20.3765 67.1584 17.9298 63.3592 16.4711C62.0066 15.9494 59.5045 15.2754 57.9442 14.7584C55.7053 13.9783 54.8698 13.1935 54.8698 11.37C54.8698 9.70353 55.5484 8.55407 56.8502 8.03704C57.995 7.51539 59.8692 7.46461 61.3788 7.46461C64.3517 7.46461 67.2138 7.72313 70.136 8.19861L71.2762 1.53263C68.4695 1.06638 64.7164 0.858643 61.7989 0.858643C58.4659 0.858643 55.1329 1.27411 52.3215 2.73287L52.3169 2.72826Z" fill="#244787"/>
<path id="Vector_4" d="M81.4229 2.72826C77.2036 4.861 75.2278 8.8172 75.2278 13.452C75.2278 17.4128 77.2544 19.9656 81.0536 21.526C83.3987 22.4123 85.273 22.8278 86.9902 23.4002C89.2845 24.2357 89.9631 25.2744 89.9631 27.0471C89.9631 28.8198 89.3353 29.7523 88.3474 30.2739C87.041 30.9479 84.539 31.1602 82.0923 31.1602C79.6456 31.1602 76.1049 30.9017 73.0351 30.4262L71.7794 37.3554C75.0616 37.72 78.6024 37.9832 81.9353 37.9832C86.3116 37.9832 90.8356 37.3554 94.0717 35.061C96.8784 33.0852 98.7065 29.7015 98.7065 25.3252C98.7065 20.3765 96.2598 17.9298 92.4606 16.4711C91.0988 15.9494 88.6059 15.2754 87.041 14.7584C84.8067 13.9783 83.9758 13.1935 83.9758 11.37C83.9758 9.70353 84.6497 8.55407 85.9516 8.03704C87.0964 7.51539 88.9706 7.46461 90.4848 7.46461C93.4531 7.46461 96.3106 7.72313 99.2327 8.19861L100.378 1.53263C97.5616 1.06638 93.8178 0.858643 90.8956 0.858643C87.5627 0.858643 84.2343 1.27411 81.4183 2.73287L81.4229 2.72826Z" fill="#244787"/>
<path id="Vector_5" d="M102.353 37.2492H110.69L116.992 1.5834H108.655L102.353 37.2492Z" fill="#244787"/>
<path id="Vector_6" d="M127.194 2.72826C122.974 4.861 120.999 8.8172 120.999 13.452C120.999 17.4128 123.025 19.9656 126.825 21.526C129.17 22.4123 131.044 22.8278 132.766 23.4002C135.051 24.2357 135.734 25.2744 135.734 27.0471C135.734 28.8198 135.106 29.7523 134.118 30.2739C132.812 30.9479 130.319 31.1602 127.863 31.1602C125.407 31.1602 121.876 30.9017 118.806 30.4262L117.55 37.3554C120.833 37.72 124.373 37.9832 127.706 37.9832C132.083 37.9832 136.607 37.3554 139.843 35.061C142.649 33.0852 144.477 29.7015 144.477 25.3252C144.477 20.3765 142.031 17.9298 138.231 16.4711C136.879 15.9494 134.377 15.2754 132.812 14.7584C130.578 13.9783 129.747 13.1935 129.747 11.37C129.747 9.70353 130.421 8.55407 131.722 8.03704C132.867 7.51539 134.742 7.46461 136.256 7.46461C139.224 7.46461 142.081 7.72313 145.004 8.19861L146.148 1.53263C143.333 1.06638 139.589 0.858643 136.667 0.858643C133.334 0.858643 130.005 1.27411 127.189 2.73287L127.194 2.72826Z" fill="#244787"/>
<path id="Vector_7" d="M148.59 1.5834L147.399 8.24477H158.954L153.798 37.2492H162.135L167.287 8.24477H178.8L180 1.5834H148.59Z" fill="#244787"/>
<path id="Vector_8" d="M43.6244 7.27995L45.0462 8.28631L45.8171 0L38.2556 3.4761L39.7374 4.524L35.3611 10.9222L33.473 0.821707H22.7816L3.15759 37.2492H12.1964L17.0851 32.4667L22.9478 26.7239L24.6928 34.9641L36.5983 17.5513L43.629 7.27534L43.6244 7.27995ZM27.0471 23.077L25.8145 17.2466L18.8485 24.0696L26.6593 8.58176H26.8209L28.6998 20.6488L27.0471 23.0724V23.077Z" fill="#244787"/>
</g>
</g>
<g id="Group_4">
<path id="Vector_9" d="M1.57879 45.4939L0.904801 46.8973H0L2.46974 41.9717H3.53611L4.15931 46.8973H3.26836L3.12987 45.4939H1.5834H1.57879ZM3.07448 44.8384L2.93599 43.6105C2.91291 43.3473 2.88521 42.9688 2.86213 42.6734H2.84828C2.71902 42.9642 2.58515 43.315 2.44666 43.6105L1.84653 44.8384H3.07448Z" fill="#244787"/>
<path id="Vector_10" d="M4.76867 47.5297C4.98102 47.6544 5.37341 47.7421 5.7104 47.7421C6.26436 47.7421 6.68906 47.4789 6.86448 46.6526L6.95219 46.251H6.93835C6.64752 46.6757 6.27359 46.8788 5.82119 46.8788C5.11489 46.8788 4.71327 46.2926 4.70404 45.6232C4.70404 44.4414 5.55806 43.255 7.03529 43.255C7.49692 43.255 7.94009 43.3566 8.26785 43.5043L7.72774 46.4403C7.59848 47.1327 7.39075 47.6913 6.99836 48.0237C6.62444 48.333 6.12126 48.4161 5.67809 48.4161C5.23492 48.4161 4.80098 48.3237 4.56555 48.176L4.76867 47.5251V47.5297ZM7.33997 44.0075C7.25226 43.9659 7.0676 43.9198 6.87372 43.9198C6.13049 43.9198 5.60423 44.723 5.60423 45.4893C5.59499 45.8632 5.75195 46.2141 6.17203 46.2141C6.59212 46.2141 7.02144 45.7109 7.14146 45.0692L7.33997 44.0121V44.0075Z" fill="#244787"/>
<path id="Vector_11" d="M8.59558 46.8927L9.01105 44.6999C9.10799 44.1967 9.14954 43.6566 9.1957 43.3335H9.93432C9.91124 43.5735 9.89277 43.8228 9.85584 44.0859H9.87892C10.119 43.6058 10.5067 43.255 10.9961 43.255C11.0561 43.255 11.1207 43.2642 11.1807 43.2689L11.0145 44.0998C10.973 44.0906 10.913 44.0859 10.853 44.0859C10.2482 44.0859 9.86046 44.6999 9.72197 45.457L9.4496 46.8881H8.6002L8.59558 46.8927Z" fill="#244787"/>
<path id="Vector_12" d="M11.13 46.8927L11.804 43.3335H12.658L11.9794 46.8927H11.13ZM11.9425 42.3733C11.9425 42.0686 12.1779 41.8563 12.4549 41.8563C12.718 41.8563 12.9073 42.0455 12.9073 42.3179C12.8981 42.6318 12.6672 42.8303 12.381 42.8303C12.1179 42.8303 11.9332 42.641 11.9425 42.3779V42.3733Z" fill="#244787"/>
<path id="Vector_13" d="M15.4925 46.768C15.2893 46.8696 14.9247 46.9665 14.4676 46.9665C13.5767 46.9665 13.0273 46.3987 13.0273 45.5493C13.0273 44.3075 13.9691 43.255 15.294 43.255C15.6079 43.255 15.8849 43.3335 16.0187 43.3935L15.8018 44.0582C15.6679 43.9982 15.5017 43.9475 15.2663 43.9475C14.4399 43.9475 13.9229 44.7092 13.9229 45.4431C13.9229 45.9786 14.2276 46.2741 14.7031 46.2741C15.0308 46.2741 15.2801 46.1864 15.4648 46.1079L15.4925 46.7634V46.768Z" fill="#244787"/>
<path id="Vector_14" d="M19.7718 43.3381L19.3055 45.794C19.2271 46.2187 19.1763 46.588 19.1301 46.8973H18.3777L18.4515 46.2787H18.4377C18.0961 46.7403 17.6483 46.9804 17.2051 46.9804C16.6881 46.9804 16.2772 46.7034 16.2772 45.974C16.2772 45.7848 16.3003 45.5816 16.3511 45.337L16.7296 43.3427H17.579L17.2143 45.2862C17.1774 45.4616 17.1543 45.637 17.1543 45.7755C17.1543 46.0664 17.2697 46.2787 17.6067 46.2787C17.9991 46.2787 18.4607 45.8125 18.5992 45.0738L18.927 43.3427H19.7764L19.7718 43.3381Z" fill="#244787"/>
<path id="Vector_15" d="M20.0718 46.8927L21.0643 41.7085H21.9137L20.9258 46.8927H20.0718Z" fill="#244787"/>
<path id="Vector_16" d="M23.7095 42.3594L23.5249 43.3381H24.3281L24.1989 43.9936H23.4002L23.114 45.4339C23.0863 45.6001 23.054 45.7848 23.054 45.9371C23.054 46.1264 23.1417 46.251 23.3679 46.251C23.4695 46.251 23.571 46.251 23.6587 46.2372L23.5803 46.9019C23.4556 46.9435 23.2294 46.9758 23.0263 46.9758C22.44 46.9758 22.1769 46.6526 22.1769 46.2464C22.1769 46.0433 22.2 45.8448 22.2554 45.5816L22.5601 43.9982H22.08L22.2046 43.3427H22.6847L22.8324 42.5764L23.7003 42.364L23.7095 42.3594Z" fill="#244787"/>
<path id="Vector_17" d="M28.0026 43.3381L27.5364 45.794C27.4579 46.2187 27.4071 46.588 27.3609 46.8973H26.6085L26.6823 46.2787H26.6685C26.3269 46.7403 25.8791 46.9804 25.4359 46.9804C24.9189 46.9804 24.5081 46.7034 24.5081 45.974C24.5081 45.7848 24.5311 45.5816 24.5819 45.337L24.9605 43.3427H25.8099L25.4452 45.2862C25.4082 45.4616 25.3852 45.637 25.3852 45.7755C25.3852 46.0664 25.5006 46.2787 25.8376 46.2787C26.2299 46.2787 26.6916 45.8125 26.8301 45.0738L27.1578 43.3427H28.0072L28.0026 43.3381Z" fill="#244787"/>
<path id="Vector_18" d="M28.3027 46.8927L28.7182 44.6999C28.8151 44.1967 28.8567 43.6566 28.9029 43.3335H29.6415C29.6184 43.5735 29.5999 43.8228 29.563 44.0859H29.5861C29.8261 43.6058 30.2139 43.255 30.7032 43.255C30.7632 43.255 30.8279 43.2642 30.8879 43.2689L30.7217 44.0998C30.6801 44.0906 30.6201 44.0859 30.5601 44.0859C29.9554 44.0859 29.5676 44.6999 29.4291 45.457L29.1568 46.8881H28.3073L28.3027 46.8927Z" fill="#244787"/>
<path id="Vector_19" d="M33.5977 46.6896C33.2469 46.8742 32.7714 46.9665 32.3421 46.9665C31.3542 46.9665 30.8833 46.3664 30.8833 45.4985C30.8833 44.4229 31.6727 43.255 32.9006 43.255C33.6023 43.255 34.0455 43.6659 34.0455 44.2568C34.0455 45.1708 33.0899 45.4616 31.7142 45.4339C31.7004 45.5586 31.7281 45.7986 31.8112 45.9371C31.9497 46.1771 32.2036 46.3018 32.5406 46.3018C32.9422 46.3018 33.2653 46.2002 33.5192 46.0664L33.5977 46.6849V46.6896ZM32.7852 43.8921C32.2543 43.8921 31.9035 44.3675 31.7973 44.7969C32.6744 44.8107 33.2376 44.6861 33.2376 44.2614C33.2376 44.0259 33.053 43.8874 32.7852 43.8874V43.8921Z" fill="#244787"/>
<path id="Vector_20" d="M35.8273 45.9233C36.1043 46.1079 36.5059 46.2372 36.9399 46.2372C37.4153 46.2372 37.8539 45.9833 37.8539 45.5078C37.8539 45.1847 37.6415 44.9677 37.1614 44.7138C36.5936 44.4091 36.1597 44.0121 36.1597 43.4304C36.1597 42.4887 36.9768 41.8978 37.9693 41.8978C38.5186 41.8978 38.8741 42.0363 39.0634 42.1471L38.7864 42.8534C38.6248 42.7657 38.2971 42.6272 37.8954 42.6364C37.3553 42.6364 37.046 42.9503 37.046 43.2781C37.046 43.6059 37.323 43.8136 37.7847 44.0721C38.3848 44.386 38.7402 44.783 38.7402 45.3785C38.7402 46.3664 37.9462 46.9712 36.8429 46.9712C36.2428 46.9712 35.7535 46.805 35.5365 46.6296L35.8273 45.9279V45.9233Z" fill="#244787"/>
<path id="Vector_21" d="M41.0438 42.3594L40.8591 43.3381H41.6623L41.5331 43.9936H40.7345L40.4482 45.4339C40.4205 45.6001 40.3882 45.7848 40.3882 45.9371C40.3882 46.1264 40.4759 46.251 40.7021 46.251C40.8037 46.251 40.9053 46.251 40.993 46.2372L40.9145 46.9019C40.7899 46.9435 40.5637 46.9758 40.3605 46.9758C39.7743 46.9758 39.5111 46.6526 39.5111 46.2464C39.5111 46.0433 39.5342 45.8448 39.5896 45.5816L39.8943 43.9982H39.4142L39.5388 43.3427H40.0189L40.1666 42.5764L41.0345 42.364L41.0438 42.3594Z" fill="#244787"/>
<path id="Vector_22" d="M43.9936 46.8927C44.0028 46.6803 44.0305 46.3941 44.0582 46.0894H44.0351C43.6843 46.745 43.2181 46.9712 42.7657 46.9712C42.1286 46.9712 41.7131 46.4726 41.7131 45.7571C41.7131 44.543 42.5625 43.2504 44.2198 43.2504C44.6076 43.2504 45.023 43.3243 45.2954 43.412L44.9307 45.2677C44.8292 45.8032 44.7691 46.4634 44.783 46.8881H43.9936V46.8927ZM44.3444 43.9475C44.2567 43.9244 44.1459 43.9105 43.9936 43.9105C43.2042 43.9105 42.5995 44.7969 42.5995 45.6047C42.5995 45.9786 42.738 46.2833 43.1119 46.2833C43.5043 46.2833 43.989 45.7848 44.1552 44.88L44.3444 43.9428V43.9475Z" fill="#244787"/>
<path id="Vector_23" d="M45.6232 46.8927L46.0386 44.6999C46.1356 44.1967 46.1771 43.6566 46.2233 43.3335H46.9619C46.9388 43.5735 46.9204 43.8228 46.8834 44.0859H46.9065C47.1466 43.6058 47.5343 43.255 48.0237 43.255C48.0837 43.255 48.1483 43.2642 48.2083 43.2689L48.0421 44.0998C48.0006 44.0906 47.9406 44.0859 47.8806 44.0859C47.2758 44.0859 46.888 44.6999 46.7496 45.457L46.4772 46.8881H45.6278L45.6232 46.8927Z" fill="#244787"/>
<path id="Vector_24" d="M50.1657 42.3594L49.981 43.3381H50.7843L50.6504 43.9936H49.8564L49.5702 45.4339C49.5425 45.6001 49.5102 45.7848 49.5102 45.9371C49.5102 46.1264 49.5979 46.251 49.8241 46.251C49.9256 46.251 50.0272 46.251 50.1149 46.2372L50.0364 46.9019C49.9118 46.9435 49.6856 46.9758 49.4825 46.9758C48.8962 46.9758 48.6331 46.6526 48.6331 46.2464C48.6331 46.0433 48.6562 45.8448 48.7116 45.5816L49.0162 43.9982H48.5361L48.6608 43.3427H49.1409L49.2886 42.5764L50.1565 42.364L50.1657 42.3594Z" fill="#244787"/>
<path id="Vector_25" d="M54.4589 43.3381L53.9927 45.794C53.9142 46.2187 53.8634 46.588 53.8172 46.8973H53.0648L53.1386 46.2787H53.1248C52.7832 46.7403 52.3354 46.9804 51.8922 46.9804C51.3752 46.9804 50.9644 46.7034 50.9644 45.974C50.9644 45.7848 50.9874 45.5816 51.0382 45.337L51.4168 43.3427H52.2662L51.9015 45.2862C51.8645 45.4616 51.8415 45.637 51.8415 45.7755C51.8415 46.0664 51.9569 46.2787 52.2939 46.2787C52.6862 46.2787 53.1479 45.8125 53.2864 45.0738L53.6141 43.3427H54.4635L54.4589 43.3381Z" fill="#244787"/>
<path id="Vector_26" d="M54.4588 48.3422L55.1513 44.663C55.2298 44.2383 55.3129 43.7074 55.3544 43.3427H56.1207L56.0422 43.929H56.0561C56.3608 43.5043 56.7993 43.2643 57.261 43.2643C58.0273 43.2643 58.3873 43.8921 58.3873 44.5845C58.3873 45.8263 57.5241 46.9804 56.3146 46.9804C55.9868 46.9804 55.7376 46.9065 55.6037 46.8281H55.5898L55.3036 48.3468H54.4542L54.4588 48.3422ZM55.7283 46.1448C55.8576 46.2556 56.0515 46.3203 56.2961 46.3203C56.9517 46.3203 57.4918 45.4432 57.4918 44.6492C57.4918 44.3214 57.344 43.9567 56.9286 43.9567C56.5131 43.9567 56.0284 44.446 55.8761 45.277L55.7237 46.1448H55.7283Z" fill="#244787"/>
<path id="Vector_27" d="M60.257 45.9233C60.534 46.1079 60.9356 46.2372 61.3696 46.2372C61.845 46.2372 62.2836 45.9833 62.2836 45.5078C62.2836 45.1847 62.0712 44.9677 61.5911 44.7138C61.0233 44.4091 60.5894 44.0121 60.5894 43.4304C60.5894 42.4887 61.4065 41.8978 62.399 41.8978C62.9483 41.8978 63.3038 42.0363 63.4931 42.1471L63.2161 42.8534C63.0545 42.7657 62.7268 42.6272 62.3251 42.6364C61.785 42.6364 61.4757 42.9503 61.4757 43.2781C61.4757 43.6059 61.7527 43.8136 62.2143 44.0721C62.8145 44.386 63.1699 44.783 63.1699 45.3785C63.1699 46.3664 62.3759 46.9712 61.2726 46.9712C60.6725 46.9712 60.1832 46.805 59.9662 46.6296L60.257 45.9279V45.9233Z" fill="#244787"/>
<path id="Vector_28" d="M67.3384 43.3381L66.8722 45.794C66.7937 46.2187 66.7429 46.588 66.6968 46.8973H65.9443L66.0182 46.2787H66.0043C65.6627 46.7403 65.2149 46.9804 64.7718 46.9804C64.2547 46.9804 63.8439 46.7034 63.8439 45.974C63.8439 45.7848 63.867 45.5816 63.9177 45.337L64.2963 43.3427H65.1457L64.781 45.2862C64.7441 45.4616 64.721 45.637 64.721 45.7755C64.721 46.0664 64.8364 46.2787 65.1734 46.2787C65.5658 46.2787 66.0274 45.8125 66.1659 45.0738L66.4936 43.3427H67.3431L67.3384 43.3381Z" fill="#244787"/>
<path id="Vector_29" d="M67.3385 48.3422L68.0309 44.663C68.1094 44.2383 68.1925 43.7074 68.234 43.3427H69.0004L68.9219 43.929H68.9357C69.2404 43.5043 69.679 43.2643 70.1406 43.2643C70.9069 43.2643 71.267 43.8921 71.267 44.5845C71.267 45.8263 70.4037 46.9804 69.1942 46.9804C68.8665 46.9804 68.6172 46.9065 68.4833 46.8281H68.4695L68.1833 48.3468H67.3339L67.3385 48.3422ZM68.608 46.1448C68.7372 46.2556 68.9311 46.3203 69.1758 46.3203C69.8313 46.3203 70.3714 45.4432 70.3714 44.6492C70.3714 44.3214 70.2237 43.9567 69.8082 43.9567C69.3927 43.9567 68.908 44.446 68.7557 45.277L68.6034 46.1448H68.608Z" fill="#244787"/>
<path id="Vector_30" d="M71.3177 48.3422L72.0102 44.663C72.0887 44.2383 72.1717 43.7074 72.2133 43.3427H72.9796L72.9011 43.929H72.915C73.2197 43.5043 73.6582 43.2643 74.1198 43.2643C74.8862 43.2643 75.2462 43.8921 75.2462 44.5845C75.2462 45.8263 74.383 46.9804 73.1735 46.9804C72.8457 46.9804 72.5965 46.9065 72.4626 46.8281H72.4487L72.1625 48.3468H71.3131L71.3177 48.3422ZM72.5872 46.1448C72.7165 46.2556 72.9104 46.3203 73.155 46.3203C73.8105 46.3203 74.3507 45.4432 74.3507 44.6492C74.3507 44.3214 74.2029 43.9567 73.7875 43.9567C73.372 43.9567 72.8873 44.446 72.7349 45.277L72.5826 46.1448H72.5872Z" fill="#244787"/>
<path id="Vector_31" d="M79.2301 44.7323C79.2301 45.9371 78.3807 46.9758 77.1712 46.9758C76.271 46.9758 75.717 46.3572 75.717 45.5078C75.717 44.3029 76.5572 43.2596 77.7713 43.2596C78.7269 43.2596 79.2301 43.9475 79.2301 44.7369V44.7323ZM76.5941 45.4847C76.5941 45.974 76.8573 46.3157 77.2866 46.3157C77.9236 46.3157 78.3437 45.4386 78.3437 44.7323C78.3437 44.3676 78.1822 43.9152 77.6651 43.9152C76.9865 43.9152 76.5895 44.82 76.5895 45.4847H76.5941Z" fill="#244787"/>
<path id="Vector_32" d="M79.5947 46.8927L80.0102 44.6999C80.1071 44.1967 80.1487 43.6566 80.1949 43.3335H80.9335C80.9104 43.5735 80.8919 43.8228 80.855 44.0859H80.8781C81.1181 43.6058 81.5059 43.255 81.9952 43.255C82.0552 43.255 82.1199 43.2642 82.1799 43.2689L82.0137 44.0998C81.9721 44.0906 81.9121 44.0859 81.8521 44.0859C81.2474 44.0859 80.8596 44.6999 80.7211 45.457L80.4488 46.8881H79.5993L79.5947 46.8927Z" fill="#244787"/>
<path id="Vector_33" d="M84.1373 42.3594L83.9526 43.3381H84.7558L84.6266 43.9936H83.828L83.5418 45.4339C83.5141 45.6001 83.4817 45.7848 83.4817 45.9371C83.4817 46.1264 83.5695 46.251 83.7957 46.251C83.8972 46.251 83.9988 46.251 84.0865 46.2372L84.008 46.9019C83.8834 46.9435 83.6572 46.9758 83.454 46.9758C82.8678 46.9758 82.6046 46.6526 82.6046 46.2464C82.6046 46.0433 82.6277 45.8448 82.6831 45.5816L82.9878 43.9982H82.5077L82.6323 43.3427H83.1124L83.2602 42.5764L84.128 42.364L84.1373 42.3594Z" fill="#244787"/>
<path id="Vector_34" d="M87.8904 41.9717L86.9533 46.8973H86.0992L87.0364 41.9717H87.8904Z" fill="#244787"/>
<path id="Vector_35" d="M87.955 46.8927L88.4166 44.4368C88.5043 44.0121 88.5551 43.6428 88.6012 43.3335H89.3537L89.2798 43.9752H89.2937C89.6214 43.4951 90.0739 43.2504 90.5724 43.2504C91.071 43.2504 91.4772 43.5551 91.4772 44.2291C91.4772 44.3906 91.4495 44.6399 91.4126 44.8199L91.0202 46.8881H90.1708L90.5493 44.88C90.5724 44.7461 90.5955 44.5937 90.5955 44.4553C90.5955 44.1644 90.4847 43.9428 90.1477 43.9428C89.7599 43.9428 89.266 44.4091 89.109 45.2447L88.8044 46.8881H87.955V46.8927Z" fill="#244787"/>
<path id="Vector_36" d="M92.9867 43.3381L93.2129 45.1062C93.2545 45.5309 93.3006 45.7986 93.3145 46.034H93.3376C93.4253 45.8078 93.5268 45.5539 93.7253 45.1292L94.6071 43.3381H95.5488L93.5684 46.8973H92.7144L92.1096 43.3381H92.9867Z" fill="#244787"/>
<path id="Vector_37" d="M98.1801 46.6896C97.8293 46.8742 97.3538 46.9665 96.9245 46.9665C95.9366 46.9665 95.4657 46.3664 95.4657 45.4985C95.4657 44.4229 96.2551 43.255 97.483 43.255C98.1847 43.255 98.6279 43.6659 98.6279 44.2568C98.6279 45.1708 97.6723 45.4616 96.2966 45.4339C96.2828 45.5586 96.3105 45.7986 96.3936 45.9371C96.5321 46.1771 96.786 46.3018 97.123 46.3018C97.5246 46.3018 97.8477 46.2002 98.1016 46.0664L98.1801 46.6849V46.6896ZM97.3676 43.8921C96.8321 43.8921 96.4859 44.3675 96.3797 44.7969C97.2568 44.8107 97.82 44.6861 97.82 44.2614C97.82 44.0259 97.6354 43.8874 97.3676 43.8874V43.8921Z" fill="#244787"/>
<path id="Vector_38" d="M98.9787 46.0987C99.1634 46.2002 99.5142 46.3387 99.8327 46.3387C100.174 46.3295 100.382 46.1356 100.382 45.9002C100.382 45.6647 100.267 45.5355 99.9158 45.3508C99.505 45.1385 99.2141 44.8338 99.2141 44.4229C99.2141 43.7351 99.8143 43.255 100.654 43.255C101.028 43.255 101.333 43.3427 101.495 43.4397L101.278 44.0536C101.144 43.9798 100.904 43.8921 100.613 43.8921C100.29 43.8921 100.073 44.0675 100.073 44.3075C100.073 44.506 100.234 44.6445 100.534 44.7969C100.922 45.0092 101.273 45.3 101.273 45.7524C101.273 46.5326 100.618 46.9665 99.7589 46.9665C99.3434 46.9665 98.9556 46.8511 98.7664 46.7126L98.9833 46.0987H98.9787Z" fill="#244787"/>
<path id="Vector_39" d="M103.609 42.3594L103.424 43.3381H104.228L104.094 43.9936H103.3L103.013 45.4339C102.986 45.6001 102.953 45.7848 102.953 45.9371C102.953 46.1264 103.041 46.251 103.267 46.251C103.369 46.251 103.47 46.251 103.558 46.2372L103.48 46.9019C103.355 46.9435 103.129 46.9758 102.926 46.9758C102.339 46.9758 102.081 46.6526 102.081 46.2464C102.081 46.0433 102.104 45.8448 102.159 45.5816L102.469 43.9982H101.989L102.113 43.3427H102.593L102.741 42.5764L103.609 42.364V42.3594Z" fill="#244787"/>
<path id="Vector_40" d="M104.223 46.8927L104.675 44.4368C104.754 44.0121 104.814 43.6428 104.851 43.3335H105.589L105.515 43.9521H105.525C105.862 43.4766 106.3 43.2504 106.757 43.2504C107.311 43.2504 107.57 43.6012 107.597 43.9798C107.911 43.4904 108.364 43.255 108.853 43.2504C109.342 43.2504 109.721 43.5643 109.721 44.2014C109.721 44.3537 109.693 44.6168 109.661 44.8061L109.269 46.8881H108.442L108.816 44.903C108.839 44.7553 108.867 44.5984 108.867 44.4506C108.867 44.1506 108.742 43.9475 108.428 43.9475C108.041 43.9475 107.611 44.4368 107.473 45.1893L107.15 46.8927H106.333L106.711 44.8753C106.739 44.7276 106.753 44.5891 106.753 44.4599C106.753 44.1921 106.674 43.9475 106.328 43.9475C105.936 43.9475 105.479 44.483 105.349 45.2031L105.04 46.8927H104.214H104.223Z" fill="#244787"/>
<path id="Vector_41" d="M113.008 46.6896C112.657 46.8742 112.181 46.9665 111.752 46.9665C110.764 46.9665 110.293 46.3664 110.293 45.4985C110.293 44.4229 111.083 43.255 112.311 43.255C113.012 43.255 113.456 43.6659 113.456 44.2568C113.456 45.1708 112.5 45.4616 111.124 45.4339C111.11 45.5586 111.138 45.7986 111.221 45.9371C111.36 46.1771 111.614 46.3018 111.951 46.3018C112.352 46.3018 112.675 46.2002 112.929 46.0664L113.008 46.6849V46.6896ZM112.195 43.8921C111.664 43.8921 111.314 44.3675 111.207 44.7969C112.084 44.8107 112.648 44.6861 112.648 44.2614C112.648 44.0259 112.463 43.8874 112.195 43.8874V43.8921Z" fill="#244787"/>
<path id="Vector_42" d="M113.719 46.8927L114.18 44.4368C114.268 44.0121 114.319 43.6428 114.365 43.3335H115.117L115.044 43.9752H115.057C115.385 43.4951 115.838 43.2504 116.336 43.2504C116.835 43.2504 117.241 43.5551 117.241 44.2291C117.241 44.3906 117.213 44.6399 117.176 44.8199L116.784 46.8881H115.939L116.318 44.88C116.341 44.7461 116.364 44.5937 116.364 44.4553C116.364 44.1644 116.253 43.9428 115.916 43.9428C115.528 43.9428 115.034 44.4091 114.877 45.2447L114.573 46.8881H113.723L113.719 46.8927Z" fill="#244787"/>
<path id="Vector_43" d="M119.554 42.3594L119.369 43.3381H120.172L120.038 43.9936H119.244L118.958 45.4339C118.931 45.6001 118.898 45.7848 118.898 45.9371C118.898 46.1264 118.986 46.251 119.212 46.251C119.314 46.251 119.415 46.251 119.503 46.2372L119.425 46.9019C119.3 46.9435 119.074 46.9758 118.871 46.9758C118.284 46.9758 118.021 46.6526 118.021 46.2464C118.021 46.0433 118.044 45.8448 118.1 45.5816L118.404 43.9982H117.924L118.049 43.3427H118.529L118.677 42.5764L119.545 42.364L119.554 42.3594Z" fill="#244787"/>
<path id="Vector_44" d="M121.686 45.9233C121.963 46.1079 122.365 46.2372 122.799 46.2372C123.274 46.2372 123.713 45.9833 123.713 45.5078C123.713 45.1847 123.501 44.9677 123.021 44.7138C122.453 44.4091 122.019 44.0121 122.019 43.4304C122.019 42.4887 122.836 41.8978 123.828 41.8978C124.378 41.8978 124.733 42.0363 124.922 42.1471L124.646 42.8534C124.484 42.7657 124.156 42.6272 123.755 42.6364C123.214 42.6364 122.905 42.9503 122.905 43.2781C122.905 43.6059 123.182 43.8136 123.644 44.0721C124.244 44.386 124.599 44.783 124.599 45.3785C124.599 46.3664 123.805 46.9712 122.702 46.9712C122.102 46.9712 121.613 46.805 121.396 46.6296L121.686 45.9279V45.9233Z" fill="#244787"/>
<path id="Vector_45" d="M127.932 46.6896C127.582 46.8742 127.106 46.9665 126.677 46.9665C125.689 46.9665 125.218 46.3664 125.218 45.4985C125.218 44.4229 126.007 43.255 127.235 43.255C127.937 43.255 128.38 43.6659 128.38 44.2568C128.38 45.1708 127.425 45.4616 126.049 45.4339C126.035 45.5586 126.063 45.7986 126.146 45.9371C126.284 46.1771 126.538 46.3018 126.875 46.3018C127.277 46.3018 127.6 46.2002 127.854 46.0664L127.932 46.6849V46.6896ZM127.12 43.8921C126.589 43.8921 126.238 44.3675 126.132 44.7969C127.009 44.8107 127.572 44.6861 127.572 44.2614C127.572 44.0259 127.388 43.8874 127.12 43.8874V43.8921Z" fill="#244787"/>
<path id="Vector_46" d="M128.639 46.8927L129.054 44.6999C129.151 44.1967 129.193 43.6566 129.239 43.3335H129.977C129.954 43.5735 129.936 43.8228 129.899 44.0859H129.922C130.162 43.6058 130.55 43.255 131.039 43.255C131.099 43.255 131.164 43.2642 131.224 43.2689L131.058 44.0998C131.016 44.0906 130.956 44.0859 130.896 44.0859C130.291 44.0859 129.904 44.6999 129.765 45.457L129.493 46.8881H128.648L128.639 46.8927Z" fill="#244787"/>
<path id="Vector_47" d="M132.41 43.3381L132.636 45.1062C132.678 45.5309 132.724 45.7986 132.738 46.034H132.761C132.849 45.8078 132.95 45.5539 133.149 45.1292L134.031 43.3381H134.972L132.992 46.8973H132.138L131.533 43.3381H132.41Z" fill="#244787"/>
<path id="Vector_48" d="M134.88 46.8927L135.554 43.3335H136.408L135.729 46.8927H134.88ZM135.692 42.3733C135.692 42.0686 135.928 41.8563 136.205 41.8563C136.468 41.8563 136.657 42.0455 136.657 42.3179C136.648 42.6318 136.417 42.8303 136.131 42.8303C135.868 42.8303 135.688 42.641 135.692 42.3779V42.3733Z" fill="#244787"/>
<path id="Vector_49" d="M139.238 46.768C139.035 46.8696 138.67 46.9665 138.218 46.9665C137.327 46.9665 136.777 46.3987 136.777 45.5493C136.777 44.3075 137.719 43.255 139.044 43.255C139.358 43.255 139.635 43.3335 139.769 43.3935L139.552 44.0582C139.418 43.9982 139.252 43.9475 139.016 43.9475C138.19 43.9475 137.673 44.7092 137.673 45.4431C137.673 45.9786 137.982 46.2741 138.453 46.2741C138.781 46.2741 139.03 46.1864 139.215 46.1079L139.242 46.7634L139.238 46.768Z" fill="#244787"/>
<path id="Vector_50" d="M142.557 46.6896C142.206 46.8742 141.731 46.9665 141.301 46.9665C140.313 46.9665 139.838 46.3664 139.838 45.4985C139.838 44.4229 140.627 43.255 141.855 43.255C142.557 43.255 143 43.6659 143 44.2568C143 45.1708 142.044 45.4616 140.669 45.4339C140.655 45.5586 140.683 45.7986 140.766 45.9371C140.904 46.1771 141.158 46.3018 141.495 46.3018C141.897 46.3018 142.22 46.2002 142.474 46.0664L142.552 46.6849L142.557 46.6896ZM141.744 43.8921C141.214 43.8921 140.863 44.3675 140.757 44.7969C141.634 44.8107 142.197 44.6861 142.197 44.2614C142.197 44.0259 142.012 43.8874 141.744 43.8874V43.8921Z" fill="#244787"/>
<path id="Vector_51" d="M144.302 48.3422L144.994 44.663C145.073 44.2383 145.156 43.7074 145.197 43.3427H145.964L145.885 43.929H145.899C146.204 43.5043 146.642 43.2643 147.104 43.2643C147.87 43.2643 148.23 43.8921 148.23 44.5845C148.23 45.8263 147.367 46.9804 146.158 46.9804C145.83 46.9804 145.581 46.9065 145.447 46.8281H145.433L145.147 48.3468H144.297L144.302 48.3422ZM145.571 46.1448C145.705 46.2556 145.895 46.3203 146.139 46.3203C146.795 46.3203 147.335 45.4432 147.335 44.6492C147.335 44.3214 147.187 43.9567 146.772 43.9567C146.356 43.9567 145.871 44.446 145.719 45.277L145.567 46.1448H145.571Z" fill="#244787"/>
<path id="Vector_52" d="M148.581 46.8927L149.574 41.7085H150.419L149.431 46.8927H148.577H148.581Z" fill="#244787"/>
<path id="Vector_53" d="M152.736 46.8927C152.745 46.6803 152.773 46.3941 152.801 46.0894H152.777C152.427 46.745 151.96 46.9712 151.508 46.9712C150.871 46.9712 150.455 46.4726 150.455 45.7571C150.455 44.543 151.305 43.2504 152.962 43.2504C153.35 43.2504 153.765 43.3243 154.038 43.412L153.673 45.2677C153.571 45.8032 153.511 46.4634 153.525 46.8881H152.736V46.8927ZM153.087 43.9475C152.999 43.9244 152.888 43.9105 152.736 43.9105C151.947 43.9105 151.342 44.7969 151.342 45.6047C151.342 45.9786 151.48 46.2833 151.854 46.2833C152.247 46.2833 152.731 45.7848 152.897 44.88L153.087 43.9428V43.9475Z" fill="#244787"/>
<path id="Vector_54" d="M155.709 42.7149H154.342L154.49 41.9717H158.077L157.929 42.7149H156.558L155.769 46.8927H154.915L155.709 42.7149Z" fill="#244787"/>
<path id="Vector_55" d="M157.782 46.8927L158.331 43.9936H157.869L157.994 43.3381H158.456L158.493 43.1535C158.571 42.7011 158.746 42.2487 159.083 41.9578C159.347 41.7316 159.688 41.6301 160.021 41.6301C160.27 41.6301 160.45 41.6716 160.547 41.727L160.385 42.401C160.298 42.3641 160.182 42.341 160.044 42.341C159.642 42.341 159.416 42.7149 159.333 43.1719L159.305 43.3381H160.044L159.919 43.9936H159.18L158.631 46.8927H157.782Z" fill="#244787"/>
<path id="Vector_56" d="M163.534 44.7323C163.534 45.9371 162.684 46.9758 161.475 46.9758C160.574 46.9758 160.021 46.3572 160.021 45.5078C160.021 44.3029 160.861 43.2596 162.075 43.2596C163.03 43.2596 163.534 43.9475 163.534 44.7369V44.7323ZM160.898 45.4847C160.898 45.974 161.161 46.3157 161.59 46.3157C162.227 46.3157 162.647 45.4386 162.647 44.7323C162.647 44.3676 162.486 43.9152 161.969 43.9152C161.29 43.9152 160.893 44.82 160.893 45.4847H160.898Z" fill="#244787"/>
<path id="Vector_57" d="M163.898 46.8927L164.314 44.6999C164.411 44.1967 164.452 43.6566 164.498 43.3335H165.237C165.214 43.5735 165.195 43.8228 165.158 44.0859H165.182C165.422 43.6058 165.809 43.255 166.299 43.255C166.359 43.255 166.423 43.2642 166.483 43.2689L166.317 44.0998C166.276 44.0906 166.216 44.0859 166.156 44.0859C165.551 44.0859 165.163 44.6999 165.025 45.457L164.752 46.8881H163.907L163.898 46.8927Z" fill="#244787"/>
<path id="Vector_58" d="M166.433 46.8927L166.885 44.4368C166.963 44.0121 167.023 43.6428 167.06 43.3335H167.799L167.725 43.9521H167.734C168.071 43.4766 168.51 43.2504 168.967 43.2504C169.521 43.2504 169.779 43.6012 169.807 43.9798C170.121 43.4904 170.573 43.255 171.063 43.2504C171.552 43.2504 171.931 43.5643 171.931 44.2014C171.931 44.3537 171.903 44.6168 171.871 44.8061L171.478 46.8881H170.652L171.026 44.903C171.049 44.7553 171.077 44.5984 171.077 44.4506C171.077 44.1506 170.952 43.9475 170.638 43.9475C170.25 43.9475 169.821 44.4368 169.683 45.1893L169.359 46.8927H168.542L168.921 44.8753C168.949 44.7276 168.962 44.5891 168.962 44.4599C168.962 44.1921 168.884 43.9475 168.538 43.9475C168.145 43.9475 167.688 44.483 167.559 45.2031L167.254 46.8927H166.428H166.433Z" fill="#244787"/>
</g>
</g>
</g>
</g>
<defs>
<clipPath id="clip0_866_35087">
<rect width="180" height="66.1659" fill="white"/>
</clipPath>
</defs>
</svg>
