<svg width="180" height="77" viewBox="0 0 180 77" fill="none" xmlns="http://www.w3.org/2000/svg">
<g id="&#234;&#176;&#128;&#235;&#161;&#156;&#237;&#152;&#149; &#234;&#181;&#173;&#236;&#152;&#129;&#235;&#172;&#184; &#237;&#152;&#188;&#237;&#149;&#169;" clip-path="url(#clip0_866_35151)">
<g id="Layer 1">
<g id="Group">
<g id="Group_2">
<path id="Vector" d="M83.1171 69.5497C59.9292 69.5497 38.0617 66.1474 18.7931 60.1277C35.2965 70.0344 58.0227 76.1556 83.1171 76.1556C108.211 76.1556 130.938 70.0344 147.441 60.1277C128.172 66.1474 106.305 69.5497 83.1171 69.5497Z" fill="#4DB858"/>
<g id="Group_3">
<path id="Vector_2" d="M30.0846 39.4881L31.2895 47.2389H40.2775L36.9491 29.443L30.0846 39.4881Z" fill="#244787"/>
<path id="Vector_3" d="M52.3169 12.718C48.0976 14.8507 46.1172 18.8069 46.1172 23.4417C46.1172 27.4026 48.153 29.9554 51.9522 31.5157C54.2927 32.402 56.1716 32.8175 57.8888 33.3899C60.1832 34.2255 60.8571 35.2642 60.8571 37.0368C60.8571 38.8095 60.2385 39.742 59.2414 40.2637C57.9396 40.9376 55.4422 41.15 52.9955 41.15C50.5489 41.15 47.0081 40.8915 43.9337 40.416L42.6873 47.3451C45.9695 47.7098 49.5102 47.9729 52.8432 47.9729C57.2195 47.9729 61.7435 47.3451 64.9703 45.0508C67.7863 43.075 69.6051 39.6912 69.6051 35.3149C69.6051 30.3662 67.1584 27.9196 63.3592 26.4608C62.0066 25.9392 59.5045 25.2652 57.9442 24.7482C55.7053 23.968 54.8698 23.1832 54.8698 21.3598C54.8698 19.6933 55.5484 18.5438 56.8502 18.0268C57.995 17.5051 59.8692 17.4544 61.3788 17.4544C64.3517 17.4544 67.2138 17.7129 70.136 18.1884L71.2762 11.5224C68.4695 11.0561 64.7164 10.8484 61.7989 10.8484C58.4659 10.8484 55.1329 11.2639 52.3215 12.7226L52.3169 12.718Z" fill="#244787"/>
<path id="Vector_4" d="M81.4229 12.718C77.2036 14.8507 75.2278 18.8069 75.2278 23.4417C75.2278 27.4026 77.2544 29.9554 81.0536 31.5157C83.3987 32.402 85.273 32.8175 86.9902 33.3899C89.2845 34.2255 89.9631 35.2642 89.9631 37.0368C89.9631 38.8095 89.3353 39.742 88.3474 40.2637C87.041 40.9376 84.539 41.15 82.0923 41.15C79.6456 41.15 76.1049 40.8915 73.0351 40.416L71.7794 47.3451C75.0616 47.7098 78.6024 47.9729 81.9353 47.9729C86.3116 47.9729 90.8356 47.3451 94.0717 45.0508C96.8784 43.075 98.7065 39.6912 98.7065 35.3149C98.7065 30.3662 96.2598 27.9196 92.4606 26.4608C91.0988 25.9392 88.6059 25.2652 87.041 24.7482C84.8067 23.968 83.9758 23.1832 83.9758 21.3598C83.9758 19.6933 84.6497 18.5438 85.9516 18.0268C87.0964 17.5051 88.9706 17.4544 90.4848 17.4544C93.4531 17.4544 96.3106 17.7129 99.2327 18.1884L100.378 11.5224C97.5616 11.0561 93.8178 10.8484 90.8956 10.8484C87.5627 10.8484 84.2343 11.2639 81.4183 12.7226L81.4229 12.718Z" fill="#244787"/>
<path id="Vector_5" d="M102.353 47.2389H110.69L116.992 11.5685H108.655L102.353 47.2389Z" fill="#244787"/>
<path id="Vector_6" d="M127.194 12.718C122.974 14.8507 120.999 18.8069 120.999 23.4417C120.999 27.4026 123.025 29.9554 126.825 31.5157C129.17 32.402 131.044 32.8175 132.766 33.3899C135.051 34.2255 135.734 35.2642 135.734 37.0368C135.734 38.8095 135.106 39.742 134.118 40.2637C132.812 40.9376 130.319 41.15 127.863 41.15C125.407 41.15 121.876 40.8915 118.806 40.416L117.55 47.3451C120.833 47.7098 124.373 47.9729 127.706 47.9729C132.083 47.9729 136.607 47.3451 139.843 45.0508C142.649 43.075 144.477 39.6912 144.477 35.3149C144.477 30.3662 142.031 27.9196 138.231 26.4608C136.879 25.9392 134.377 25.2652 132.812 24.7482C130.578 23.968 129.747 23.1832 129.747 21.3598C129.747 19.6933 130.421 18.5438 131.722 18.0268C132.867 17.5051 134.742 17.4544 136.256 17.4544C139.224 17.4544 142.081 17.7129 145.004 18.1884L146.148 11.5224C143.333 11.0561 139.589 10.8484 136.667 10.8484C133.334 10.8484 130.005 11.2639 127.189 12.7226L127.194 12.718Z" fill="#244787"/>
<path id="Vector_7" d="M148.59 11.5685L147.399 18.2299H158.954L153.798 47.2389H162.135L167.287 18.2299H178.8L180 11.5685H148.59Z" fill="#244787"/>
<path id="Vector_8" d="M43.6244 17.2697L45.0462 18.2761L45.8171 9.98975L38.2556 13.4658L39.7374 14.5138L35.3611 20.912L33.473 10.8115H22.7816L3.15759 47.2389H12.1964L17.0851 42.4564L22.9478 36.7137L24.6928 44.9538L36.5983 27.541L43.629 17.2651L43.6244 17.2697ZM27.0471 33.0668L25.8145 27.2364L18.8485 34.0593L26.6593 18.5715H26.8209L28.6998 30.6386L27.0471 33.0622V33.0668Z" fill="#244787"/>
</g>
</g>
<g id="Group_4">
<path id="Vector_9" d="M1.57879 55.4791L0.904801 56.8824H0L2.46974 51.9568H3.53611L4.15931 56.8824H3.26836L3.12987 55.4791H1.5834H1.57879ZM3.07448 54.8236L2.93599 53.5956C2.91291 53.3325 2.88521 52.9539 2.86213 52.6585H2.84828C2.71902 52.9493 2.58515 53.3002 2.44666 53.5956L1.84653 54.8236H3.07448Z" fill="#244787"/>
<path id="Vector_10" d="M4.76867 57.5195C4.98102 57.6441 5.37341 57.7318 5.7104 57.7318C6.26436 57.7318 6.68906 57.4687 6.86448 56.6424L6.95219 56.2408H6.93835C6.64752 56.6655 6.27359 56.8686 5.82119 56.8686C5.11489 56.8686 4.71327 56.2823 4.70404 55.6129C4.70404 54.4312 5.55806 53.2448 7.03529 53.2448C7.49692 53.2448 7.94009 53.3463 8.26785 53.494L7.72774 56.43C7.59848 57.1225 7.39075 57.681 6.99836 58.0134C6.62444 58.3227 6.12126 58.4058 5.67809 58.4058C5.23492 58.4058 4.80098 58.3089 4.56555 58.1658L4.76867 57.5149V57.5195ZM7.33997 53.9972C7.25226 53.9557 7.0676 53.9095 6.87372 53.9095C6.13049 53.9095 5.60423 54.7127 5.60423 55.4791C5.59499 55.853 5.75195 56.2038 6.17203 56.2038C6.59212 56.2038 7.02144 55.7006 7.14146 55.059L7.33997 54.0018V53.9972Z" fill="#244787"/>
<path id="Vector_11" d="M8.59558 56.8824L9.01105 54.6897C9.10799 54.1865 9.14954 53.6464 9.1957 53.3232H9.93432C9.91124 53.5633 9.89277 53.8126 9.85584 54.0757H9.87892C10.119 53.5956 10.5067 53.2448 10.9961 53.2448C11.0561 53.2448 11.1207 53.254 11.1807 53.2586L11.0145 54.0895C10.973 54.0803 10.913 54.0757 10.853 54.0757C10.2482 54.0757 9.86046 54.6897 9.72197 55.4467L9.4496 56.8778H8.6002L8.59558 56.8824Z" fill="#244787"/>
<path id="Vector_12" d="M11.13 56.8824L11.804 53.3232H12.658L11.9794 56.8824H11.13ZM11.9425 52.3584C11.9425 52.0537 12.1779 51.8414 12.4549 51.8414C12.718 51.8414 12.9073 52.0307 12.9073 52.303C12.8981 52.6169 12.6672 52.8154 12.381 52.8154C12.1179 52.8154 11.9332 52.6262 11.9425 52.363V52.3584Z" fill="#244787"/>
<path id="Vector_13" d="M15.4925 56.7578C15.2893 56.8593 14.9247 56.9563 14.4676 56.9563C13.5767 56.9563 13.0273 56.3885 13.0273 55.5391C13.0273 54.2973 13.9691 53.2448 15.294 53.2448C15.6079 53.2448 15.8849 53.3232 16.0187 53.3832L15.8018 54.048C15.6679 53.988 15.5017 53.9372 15.2663 53.9372C14.4399 53.9372 13.9229 54.6989 13.9229 55.4329C13.9229 55.9684 14.2276 56.2638 14.7031 56.2638C15.0308 56.2638 15.2801 56.1761 15.4648 56.0976L15.4925 56.7532V56.7578Z" fill="#244787"/>
<path id="Vector_14" d="M19.7718 53.3232L19.3055 55.7791C19.2271 56.2038 19.1763 56.5731 19.1301 56.8824H18.3777L18.4515 56.2638H18.4377C18.0961 56.7255 17.6483 56.9655 17.2051 56.9655C16.6881 56.9655 16.2772 56.6885 16.2772 55.9592C16.2772 55.7699 16.3003 55.5668 16.3511 55.3221L16.7296 53.3279H17.579L17.2143 55.2713C17.1774 55.4468 17.1543 55.6222 17.1543 55.7607C17.1543 56.0515 17.2697 56.2638 17.6067 56.2638C17.9991 56.2638 18.4607 55.7976 18.5992 55.059L18.927 53.3279H19.7764L19.7718 53.3232Z" fill="#244787"/>
<path id="Vector_15" d="M20.0718 56.8824L21.0643 51.6983H21.9137L20.9258 56.8824H20.0718Z" fill="#244787"/>
<path id="Vector_16" d="M23.7095 52.3446L23.5249 53.3232H24.3281L24.1989 53.9788H23.4002L23.114 55.4191C23.0863 55.5852 23.054 55.7699 23.054 55.9222C23.054 56.1115 23.1417 56.2361 23.3679 56.2361C23.4695 56.2361 23.571 56.2361 23.6587 56.2223L23.5803 56.887C23.4556 56.9286 23.2294 56.9609 23.0263 56.9609C22.44 56.9609 22.1769 56.6378 22.1769 56.2315C22.1769 56.0284 22.2 55.8299 22.2554 55.5668L22.5601 53.9834H22.08L22.2046 53.3279H22.6847L22.8324 52.5615L23.7003 52.3492L23.7095 52.3446Z" fill="#244787"/>
<path id="Vector_17" d="M28.0026 53.3232L27.5364 55.7791C27.4579 56.2038 27.4071 56.5731 27.3609 56.8824H26.6085L26.6823 56.2638H26.6685C26.3269 56.7255 25.8791 56.9655 25.4359 56.9655C24.9189 56.9655 24.5081 56.6885 24.5081 55.9592C24.5081 55.7699 24.5311 55.5668 24.5819 55.3221L24.9605 53.3279H25.8099L25.4452 55.2713C25.4082 55.4468 25.3852 55.6222 25.3852 55.7607C25.3852 56.0515 25.5006 56.2638 25.8376 56.2638C26.2299 56.2638 26.6916 55.7976 26.8301 55.059L27.1578 53.3279H28.0072L28.0026 53.3232Z" fill="#244787"/>
<path id="Vector_18" d="M28.3027 56.8824L28.7182 54.6897C28.8151 54.1865 28.8567 53.6464 28.9029 53.3232H29.6415C29.6184 53.5633 29.5999 53.8126 29.563 54.0757H29.5861C29.8261 53.5956 30.2139 53.2448 30.7032 53.2448C30.7632 53.2448 30.8279 53.254 30.8879 53.2586L30.7217 54.0895C30.6801 54.0803 30.6201 54.0757 30.5601 54.0757C29.9554 54.0757 29.5676 54.6897 29.4291 55.4467L29.1568 56.8778H28.3073L28.3027 56.8824Z" fill="#244787"/>
<path id="Vector_19" d="M33.5977 56.6793C33.2469 56.864 32.7714 56.9563 32.3421 56.9563C31.3542 56.9563 30.8833 56.3562 30.8833 55.4883C30.8833 54.4127 31.6727 53.2448 32.9006 53.2448C33.6023 53.2448 34.0455 53.6556 34.0455 54.2465C34.0455 55.1605 33.0899 55.4514 31.7142 55.4237C31.7004 55.5483 31.7281 55.7884 31.8112 55.9268C31.9497 56.1669 32.2036 56.2915 32.5406 56.2915C32.9422 56.2915 33.2653 56.19 33.5192 56.0561L33.5977 56.6747V56.6793ZM32.7852 53.8818C32.2543 53.8818 31.9035 54.3573 31.7973 54.7866C32.6744 54.8005 33.2376 54.6758 33.2376 54.2511C33.2376 54.0157 33.053 53.8772 32.7852 53.8772V53.8818Z" fill="#244787"/>
<path id="Vector_20" d="M35.8273 55.9084C36.1043 56.093 36.5059 56.2223 36.9399 56.2223C37.4153 56.2223 37.8539 55.9684 37.8539 55.4929C37.8539 55.1698 37.6415 54.9528 37.1614 54.6989C36.5936 54.3942 36.1597 53.9972 36.1597 53.4156C36.1597 52.4738 36.9768 51.8829 37.9693 51.8829C38.5186 51.8829 38.8741 52.0214 39.0634 52.1322L38.7864 52.8385C38.6248 52.7508 38.2971 52.6123 37.8954 52.6215C37.3553 52.6215 37.046 52.9355 37.046 53.2632C37.046 53.591 37.323 53.7987 37.7847 54.0572C38.3848 54.3711 38.7402 54.7681 38.7402 55.3636C38.7402 56.3515 37.9462 56.9563 36.8429 56.9563C36.2428 56.9563 35.7535 56.7901 35.5365 56.6147L35.8273 55.913V55.9084Z" fill="#244787"/>
<path id="Vector_21" d="M41.0438 52.3446L40.8591 53.3232H41.6623L41.5331 53.9788H40.7345L40.4482 55.4191C40.4205 55.5852 40.3882 55.7699 40.3882 55.9222C40.3882 56.1115 40.4759 56.2361 40.7021 56.2361C40.8037 56.2361 40.9053 56.2361 40.993 56.2223L40.9145 56.887C40.7899 56.9286 40.5637 56.9609 40.3605 56.9609C39.7743 56.9609 39.5111 56.6378 39.5111 56.2315C39.5111 56.0284 39.5342 55.8299 39.5896 55.5668L39.8943 53.9834H39.4142L39.5388 53.3279H40.0189L40.1666 52.5615L41.0345 52.3492L41.0438 52.3446Z" fill="#244787"/>
<path id="Vector_22" d="M43.9936 56.8824C44.0028 56.6701 44.0305 56.3839 44.0582 56.0792H44.0351C43.6843 56.7347 43.2181 56.9609 42.7657 56.9609C42.1286 56.9609 41.7131 56.4623 41.7131 55.7468C41.7131 54.5327 42.5625 53.2401 44.2198 53.2401C44.6076 53.2401 45.023 53.314 45.2954 53.4017L44.9307 55.2575C44.8292 55.793 44.7691 56.4531 44.783 56.8778H43.9936V56.8824ZM44.3444 53.9372C44.2567 53.9141 44.1459 53.9003 43.9936 53.9003C43.2042 53.9003 42.5995 54.7866 42.5995 55.5945C42.5995 55.9684 42.738 56.2731 43.1119 56.2731C43.5043 56.2731 43.989 55.7745 44.1552 54.8697L44.3444 53.9326V53.9372Z" fill="#244787"/>
<path id="Vector_23" d="M45.6232 56.8824L46.0386 54.6897C46.1356 54.1865 46.1771 53.6464 46.2233 53.3232H46.9619C46.9388 53.5633 46.9204 53.8126 46.8834 54.0757H46.9065C47.1466 53.5956 47.5343 53.2448 48.0237 53.2448C48.0837 53.2448 48.1483 53.254 48.2083 53.2586L48.0421 54.0895C48.0006 54.0803 47.9406 54.0757 47.8806 54.0757C47.2758 54.0757 46.888 54.6897 46.7496 55.4467L46.4772 56.8778H45.6278L45.6232 56.8824Z" fill="#244787"/>
<path id="Vector_24" d="M50.1657 52.3446L49.981 53.3232H50.7843L50.6504 53.9788H49.8564L49.5702 55.4191C49.5425 55.5852 49.5102 55.7699 49.5102 55.9222C49.5102 56.1115 49.5979 56.2361 49.8241 56.2361C49.9256 56.2361 50.0272 56.2361 50.1149 56.2223L50.0364 56.887C49.9118 56.9286 49.6856 56.9609 49.4825 56.9609C48.8962 56.9609 48.6331 56.6378 48.6331 56.2315C48.6331 56.0284 48.6562 55.8299 48.7116 55.5668L49.0162 53.9834H48.5361L48.6608 53.3279H49.1409L49.2886 52.5615L50.1565 52.3492L50.1657 52.3446Z" fill="#244787"/>
<path id="Vector_25" d="M54.4589 53.3232L53.9927 55.7791C53.9142 56.2038 53.8634 56.5731 53.8172 56.8824H53.0648L53.1386 56.2638H53.1248C52.7832 56.7255 52.3354 56.9655 51.8922 56.9655C51.3752 56.9655 50.9644 56.6885 50.9644 55.9592C50.9644 55.7699 50.9874 55.5668 51.0382 55.3221L51.4168 53.3279H52.2662L51.9015 55.2713C51.8645 55.4468 51.8415 55.6222 51.8415 55.7607C51.8415 56.0515 51.9569 56.2638 52.2939 56.2638C52.6862 56.2638 53.1479 55.7976 53.2864 55.059L53.6141 53.3279H54.4635L54.4589 53.3232Z" fill="#244787"/>
<path id="Vector_26" d="M54.4588 58.3274L55.1513 54.6481C55.2298 54.2234 55.3129 53.6926 55.3544 53.3279H56.1207L56.0422 53.9141H56.0561C56.3608 53.4894 56.7993 53.2494 57.261 53.2494C58.0273 53.2494 58.3873 53.8772 58.3873 54.5697C58.3873 55.8115 57.5241 56.9655 56.3146 56.9655C55.9868 56.9655 55.7376 56.8917 55.6037 56.8132H55.5898L55.3036 58.332H54.4542L54.4588 58.3274ZM55.7283 56.13C55.8576 56.2408 56.0515 56.3054 56.2961 56.3054C56.9517 56.3054 57.4918 55.4283 57.4918 54.6343C57.4918 54.3065 57.344 53.9418 56.9286 53.9418C56.5131 53.9418 56.0284 54.4312 55.8761 55.2621L55.7237 56.13H55.7283Z" fill="#244787"/>
<path id="Vector_27" d="M60.257 55.9084C60.534 56.093 60.9356 56.2223 61.3696 56.2223C61.845 56.2223 62.2836 55.9684 62.2836 55.4929C62.2836 55.1698 62.0712 54.9528 61.5911 54.6989C61.0233 54.3942 60.5894 53.9972 60.5894 53.4156C60.5894 52.4738 61.4065 51.8829 62.399 51.8829C62.9483 51.8829 63.3038 52.0214 63.4931 52.1322L63.2161 52.8385C63.0545 52.7508 62.7268 52.6123 62.3251 52.6215C61.785 52.6215 61.4757 52.9355 61.4757 53.2632C61.4757 53.591 61.7527 53.7987 62.2143 54.0572C62.8145 54.3711 63.1699 54.7681 63.1699 55.3636C63.1699 56.3515 62.3759 56.9563 61.2726 56.9563C60.6725 56.9563 60.1832 56.7901 59.9662 56.6147L60.257 55.913V55.9084Z" fill="#244787"/>
<path id="Vector_28" d="M67.3384 53.3232L66.8722 55.7791C66.7937 56.2038 66.7429 56.5731 66.6968 56.8824H65.9443L66.0182 56.2638H66.0043C65.6627 56.7255 65.2149 56.9655 64.7718 56.9655C64.2547 56.9655 63.8439 56.6885 63.8439 55.9592C63.8439 55.7699 63.867 55.5668 63.9177 55.3221L64.2963 53.3279H65.1457L64.781 55.2713C64.7441 55.4468 64.721 55.6222 64.721 55.7607C64.721 56.0515 64.8364 56.2638 65.1734 56.2638C65.5658 56.2638 66.0274 55.7976 66.1659 55.059L66.4936 53.3279H67.3431L67.3384 53.3232Z" fill="#244787"/>
<path id="Vector_29" d="M67.3385 58.3274L68.0309 54.6481C68.1094 54.2234 68.1925 53.6926 68.234 53.3279H69.0004L68.9219 53.9141H68.9357C69.2404 53.4894 69.679 53.2494 70.1406 53.2494C70.9069 53.2494 71.267 53.8772 71.267 54.5697C71.267 55.8115 70.4037 56.9655 69.1942 56.9655C68.8665 56.9655 68.6172 56.8917 68.4833 56.8132H68.4695L68.1833 58.332H67.3339L67.3385 58.3274ZM68.608 56.13C68.7372 56.2408 68.9311 56.3054 69.1758 56.3054C69.8313 56.3054 70.3714 55.4283 70.3714 54.6343C70.3714 54.3065 70.2237 53.9418 69.8082 53.9418C69.3927 53.9418 68.908 54.4312 68.7557 55.2621L68.6034 56.13H68.608Z" fill="#244787"/>
<path id="Vector_30" d="M71.3177 58.3274L72.0102 54.6481C72.0887 54.2234 72.1717 53.6926 72.2133 53.3279H72.9796L72.9011 53.9141H72.915C73.2197 53.4894 73.6582 53.2494 74.1198 53.2494C74.8862 53.2494 75.2462 53.8772 75.2462 54.5697C75.2462 55.8115 74.383 56.9655 73.1735 56.9655C72.8457 56.9655 72.5965 56.8917 72.4626 56.8132H72.4487L72.1625 58.332H71.3131L71.3177 58.3274ZM72.5872 56.13C72.7165 56.2408 72.9104 56.3054 73.155 56.3054C73.8105 56.3054 74.3507 55.4283 74.3507 54.6343C74.3507 54.3065 74.2029 53.9418 73.7875 53.9418C73.372 53.9418 72.8873 54.4312 72.7349 55.2621L72.5826 56.13H72.5872Z" fill="#244787"/>
<path id="Vector_31" d="M79.2301 54.722C79.2301 55.9269 78.3807 56.9655 77.1712 56.9655C76.271 56.9655 75.717 56.3469 75.717 55.4975C75.717 54.2927 76.5572 53.2494 77.7713 53.2494C78.7269 53.2494 79.2301 53.9372 79.2301 54.7266V54.722ZM76.5941 55.4745C76.5941 55.9638 76.8573 56.3054 77.2866 56.3054C77.9236 56.3054 78.3437 55.4283 78.3437 54.722C78.3437 54.3573 78.1822 53.9049 77.6651 53.9049C76.9865 53.9049 76.5895 54.8097 76.5895 55.4745H76.5941Z" fill="#244787"/>
<path id="Vector_32" d="M79.5947 56.8824L80.0102 54.6897C80.1071 54.1865 80.1487 53.6464 80.1949 53.3232H80.9335C80.9104 53.5633 80.8919 53.8126 80.855 54.0757H80.8781C81.1181 53.5956 81.5059 53.2448 81.9952 53.2448C82.0552 53.2448 82.1199 53.254 82.1799 53.2586L82.0137 54.0895C81.9721 54.0803 81.9121 54.0757 81.8521 54.0757C81.2474 54.0757 80.8596 54.6897 80.7211 55.4467L80.4488 56.8778H79.5993L79.5947 56.8824Z" fill="#244787"/>
<path id="Vector_33" d="M84.1373 52.3446L83.9526 53.3232H84.7558L84.6266 53.9788H83.828L83.5418 55.4191C83.5141 55.5852 83.4817 55.7699 83.4817 55.9222C83.4817 56.1115 83.5695 56.2361 83.7957 56.2361C83.8972 56.2361 83.9988 56.2361 84.0865 56.2223L84.008 56.887C83.8834 56.9286 83.6572 56.9609 83.454 56.9609C82.8678 56.9609 82.6046 56.6378 82.6046 56.2315C82.6046 56.0284 82.6277 55.8299 82.6831 55.5668L82.9878 53.9834H82.5077L82.6323 53.3279H83.1124L83.2602 52.5615L84.128 52.3492L84.1373 52.3446Z" fill="#244787"/>
<path id="Vector_34" d="M87.8904 51.9568L86.9533 56.8824H86.0992L87.0364 51.9568H87.8904Z" fill="#244787"/>
<path id="Vector_35" d="M87.955 56.8824L88.4166 54.4265C88.5043 54.0018 88.5551 53.6325 88.6012 53.3232H89.3537L89.2798 53.9649H89.2937C89.6214 53.4848 90.0739 53.2401 90.5724 53.2401C91.071 53.2401 91.4772 53.5448 91.4772 54.2188C91.4772 54.3804 91.4495 54.6297 91.4126 54.8097L91.0202 56.8778H90.1708L90.5493 54.8697C90.5724 54.7358 90.5955 54.5835 90.5955 54.445C90.5955 54.1542 90.4847 53.9326 90.1477 53.9326C89.7599 53.9326 89.266 54.3988 89.109 55.2344L88.8044 56.8778H87.955V56.8824Z" fill="#244787"/>
<path id="Vector_36" d="M92.9867 53.3232L93.2129 55.0913C93.2545 55.516 93.3006 55.7837 93.3145 56.0192H93.3376C93.4253 55.793 93.5268 55.5391 93.7253 55.1144L94.6071 53.3232H95.5488L93.5684 56.8824H92.7144L92.1096 53.3232H92.9867Z" fill="#244787"/>
<path id="Vector_37" d="M98.1801 56.6793C97.8293 56.864 97.3538 56.9563 96.9245 56.9563C95.9366 56.9563 95.4657 56.3562 95.4657 55.4883C95.4657 54.4127 96.2551 53.2448 97.483 53.2448C98.1847 53.2448 98.6279 53.6556 98.6279 54.2465C98.6279 55.1605 97.6723 55.4514 96.2966 55.4237C96.2828 55.5483 96.3105 55.7884 96.3936 55.9268C96.5321 56.1669 96.786 56.2915 97.123 56.2915C97.5246 56.2915 97.8477 56.19 98.1016 56.0561L98.1801 56.6747V56.6793ZM97.3676 53.8818C96.8367 53.8818 96.4859 54.3573 96.3797 54.7866C97.2568 54.8005 97.82 54.6758 97.82 54.2511C97.82 54.0157 97.6354 53.8772 97.3676 53.8772V53.8818Z" fill="#244787"/>
<path id="Vector_38" d="M98.9787 56.0838C99.1634 56.1854 99.5142 56.3239 99.8327 56.3239C100.174 56.3146 100.382 56.1207 100.382 55.8853C100.382 55.6499 100.267 55.5206 99.9158 55.336C99.505 55.1236 99.2141 54.8189 99.2141 54.4081C99.2141 53.7202 99.8143 53.2401 100.654 53.2401C101.028 53.2401 101.333 53.3279 101.495 53.4248L101.278 54.0388C101.144 53.9649 100.904 53.8772 100.613 53.8772C100.29 53.8772 100.073 54.0526 100.073 54.2927C100.073 54.4912 100.234 54.6297 100.534 54.782C100.922 54.9943 101.273 55.2852 101.273 55.7376C101.273 56.5177 100.618 56.9517 99.7589 56.9517C99.3434 56.9517 98.9556 56.8363 98.7664 56.6978L98.9833 56.0838H98.9787Z" fill="#244787"/>
<path id="Vector_39" d="M103.609 52.3446L103.424 53.3232H104.228L104.098 53.9788H103.3L103.013 55.4191C102.986 55.5852 102.953 55.7699 102.953 55.9222C102.953 56.1115 103.041 56.2361 103.267 56.2361C103.369 56.2361 103.47 56.2361 103.558 56.2223L103.48 56.887C103.355 56.9286 103.129 56.9609 102.926 56.9609C102.339 56.9609 102.076 56.6378 102.076 56.2315C102.076 56.0284 102.099 55.8299 102.155 55.5668L102.459 53.9834H101.979L102.104 53.3279H102.584L102.732 52.5615L103.6 52.3492L103.609 52.3446Z" fill="#244787"/>
<path id="Vector_40" d="M104.223 56.8824L104.675 54.4265C104.754 54.0018 104.814 53.6325 104.851 53.3232H105.589L105.515 53.9418H105.525C105.862 53.4663 106.3 53.2401 106.757 53.2401C107.311 53.2401 107.57 53.591 107.597 53.9695C107.911 53.4802 108.364 53.2448 108.853 53.2401C109.342 53.2401 109.721 53.5541 109.721 54.1911C109.721 54.3434 109.693 54.6066 109.661 54.7958L109.269 56.8778H108.442L108.816 54.8928C108.839 54.7451 108.867 54.5835 108.867 54.4404C108.867 54.1403 108.742 53.9372 108.428 53.9372C108.041 53.9372 107.611 54.4265 107.473 55.179L107.15 56.8824H106.333L106.711 54.8651C106.739 54.7174 106.753 54.5789 106.753 54.4496C106.753 54.1819 106.674 53.9372 106.328 53.9372C105.936 53.9372 105.479 54.4727 105.349 55.1928L105.045 56.8824H104.218H104.223Z" fill="#244787"/>
<path id="Vector_41" d="M113.008 56.6793C112.657 56.864 112.181 56.9563 111.752 56.9563C110.764 56.9563 110.293 56.3562 110.293 55.4883C110.293 54.4127 111.083 53.2448 112.311 53.2448C113.012 53.2448 113.456 53.6556 113.456 54.2465C113.456 55.1605 112.5 55.4514 111.124 55.4237C111.11 55.5483 111.138 55.7884 111.221 55.9268C111.36 56.1669 111.614 56.2915 111.951 56.2915C112.352 56.2915 112.675 56.19 112.929 56.0561L113.008 56.6747V56.6793ZM112.195 53.8818C111.664 53.8818 111.314 54.3573 111.207 54.7866C112.084 54.8005 112.648 54.6758 112.648 54.2511C112.648 54.0157 112.463 53.8772 112.195 53.8772V53.8818Z" fill="#244787"/>
<path id="Vector_42" d="M113.719 56.8824L114.18 54.4265C114.268 54.0018 114.319 53.6325 114.365 53.3232H115.117L115.044 53.9649H115.057C115.385 53.4848 115.838 53.2401 116.336 53.2401C116.835 53.2401 117.241 53.5448 117.241 54.2188C117.241 54.3804 117.213 54.6297 117.176 54.8097L116.784 56.8778H115.935L116.313 54.8697C116.336 54.7358 116.359 54.5835 116.359 54.445C116.359 54.1542 116.248 53.9326 115.912 53.9326C115.524 53.9326 115.03 54.3988 114.873 55.2344L114.568 56.8778H113.719V56.8824Z" fill="#244787"/>
<path id="Vector_43" d="M119.554 52.3446L119.369 53.3232H120.172L120.038 53.9788H119.244L118.958 55.4191C118.931 55.5852 118.898 55.7699 118.898 55.9222C118.898 56.1115 118.986 56.2361 119.212 56.2361C119.314 56.2361 119.415 56.2361 119.503 56.2223L119.425 56.887C119.3 56.9286 119.074 56.9609 118.871 56.9609C118.284 56.9609 118.021 56.6378 118.021 56.2315C118.021 56.0284 118.044 55.8299 118.1 55.5668L118.404 53.9834H117.924L118.049 53.3279H118.529L118.677 52.5615L119.545 52.3492L119.554 52.3446Z" fill="#244787"/>
<path id="Vector_44" d="M121.686 55.9084C121.963 56.093 122.365 56.2223 122.799 56.2223C123.274 56.2223 123.713 55.9684 123.713 55.4929C123.713 55.1698 123.501 54.9528 123.021 54.6989C122.453 54.3942 122.019 53.9972 122.019 53.4156C122.019 52.4738 122.836 51.8829 123.828 51.8829C124.378 51.8829 124.733 52.0214 124.922 52.1322L124.646 52.8385C124.484 52.7508 124.156 52.6123 123.755 52.6215C123.214 52.6215 122.905 52.9355 122.905 53.2632C122.905 53.591 123.182 53.7987 123.644 54.0572C124.244 54.3711 124.599 54.7681 124.599 55.3636C124.599 56.3515 123.805 56.9563 122.702 56.9563C122.102 56.9563 121.613 56.7901 121.396 56.6147L121.686 55.913V55.9084Z" fill="#244787"/>
<path id="Vector_45" d="M127.932 56.6793C127.582 56.864 127.106 56.9563 126.677 56.9563C125.689 56.9563 125.218 56.3562 125.218 55.4883C125.218 54.4127 126.007 53.2448 127.235 53.2448C127.937 53.2448 128.38 53.6556 128.38 54.2465C128.38 55.1605 127.425 55.4514 126.049 55.4237C126.035 55.5483 126.063 55.7884 126.146 55.9268C126.284 56.1669 126.538 56.2915 126.875 56.2915C127.277 56.2915 127.6 56.19 127.854 56.0561L127.932 56.6747V56.6793ZM127.12 53.8818C126.589 53.8818 126.238 54.3573 126.132 54.7866C127.009 54.8005 127.572 54.6758 127.572 54.2511C127.572 54.0157 127.388 53.8772 127.12 53.8772V53.8818Z" fill="#244787"/>
<path id="Vector_46" d="M128.639 56.8824L129.054 54.6897C129.151 54.1865 129.193 53.6464 129.239 53.3232H129.977C129.954 53.5633 129.936 53.8126 129.899 54.0757H129.922C130.162 53.5956 130.55 53.2448 131.039 53.2448C131.099 53.2448 131.164 53.254 131.224 53.2586L131.058 54.0895C131.016 54.0803 130.956 54.0757 130.896 54.0757C130.291 54.0757 129.904 54.6897 129.765 55.4467L129.493 56.8778H128.643L128.639 56.8824Z" fill="#244787"/>
<path id="Vector_47" d="M132.41 53.3232L132.636 55.0913C132.678 55.516 132.724 55.7837 132.738 56.0192H132.761C132.849 55.793 132.95 55.5391 133.149 55.1144L134.031 53.3232H134.972L132.992 56.8824H132.138L131.533 53.3232H132.41Z" fill="#244787"/>
<path id="Vector_48" d="M134.88 56.8824L135.554 53.3232H136.408L135.729 56.8824H134.88ZM135.692 52.3584C135.692 52.0537 135.928 51.8414 136.205 51.8414C136.468 51.8414 136.657 52.0307 136.657 52.303C136.648 52.6169 136.417 52.8154 136.131 52.8154C135.868 52.8154 135.683 52.6262 135.692 52.363V52.3584Z" fill="#244787"/>
<path id="Vector_49" d="M139.238 56.7578C139.035 56.8593 138.67 56.9563 138.213 56.9563C137.322 56.9563 136.773 56.3885 136.773 55.5391C136.773 54.2973 137.714 53.2448 139.039 53.2448C139.353 53.2448 139.63 53.3232 139.764 53.3832L139.547 54.048C139.413 53.988 139.247 53.9372 139.012 53.9372C138.185 53.9372 137.668 54.6989 137.668 55.4329C137.668 55.9684 137.973 56.2638 138.448 56.2638C138.776 56.2638 139.025 56.1761 139.21 56.0976L139.238 56.7532V56.7578Z" fill="#244787"/>
<path id="Vector_50" d="M142.557 56.6793C142.206 56.864 141.731 56.9563 141.301 56.9563C140.313 56.9563 139.843 56.3562 139.843 55.4883C139.843 54.4127 140.632 53.2448 141.86 53.2448C142.562 53.2448 143.005 53.6556 143.005 54.2465C143.005 55.1605 142.049 55.4514 140.673 55.4237C140.66 55.5483 140.687 55.7884 140.77 55.9268C140.909 56.1669 141.163 56.2915 141.5 56.2915C141.901 56.2915 142.225 56.19 142.478 56.0561L142.557 56.6747V56.6793ZM141.744 53.8818C141.214 53.8818 140.863 54.3573 140.757 54.7866C141.634 54.8005 142.197 54.6758 142.197 54.2511C142.197 54.0157 142.012 53.8772 141.744 53.8772V53.8818Z" fill="#244787"/>
<path id="Vector_51" d="M144.302 58.3274L144.994 54.6481C145.073 54.2234 145.156 53.6926 145.197 53.3279H145.964L145.885 53.9141H145.899C146.204 53.4894 146.642 53.2494 147.104 53.2494C147.87 53.2494 148.23 53.8772 148.23 54.5697C148.23 55.8115 147.367 56.9655 146.158 56.9655C145.83 56.9655 145.581 56.8917 145.447 56.8132H145.433L145.147 58.332H144.297L144.302 58.3274ZM145.571 56.13C145.701 56.2408 145.895 56.3054 146.139 56.3054C146.795 56.3054 147.335 55.4283 147.335 54.6343C147.335 54.3065 147.187 53.9418 146.772 53.9418C146.356 53.9418 145.871 54.4312 145.719 55.2621L145.567 56.13H145.571Z" fill="#244787"/>
<path id="Vector_52" d="M148.581 56.8824L149.574 51.6983H150.423L149.435 56.8824H148.581Z" fill="#244787"/>
<path id="Vector_53" d="M152.736 56.8824C152.745 56.6701 152.773 56.3839 152.801 56.0792H152.777C152.427 56.7347 151.96 56.9609 151.508 56.9609C150.871 56.9609 150.455 56.4623 150.455 55.7468C150.455 54.5327 151.305 53.2401 152.962 53.2401C153.35 53.2401 153.765 53.314 154.038 53.4017L153.673 55.2575C153.571 55.793 153.511 56.4531 153.525 56.8778H152.736V56.8824ZM153.087 53.9372C152.999 53.9141 152.888 53.9003 152.736 53.9003C151.947 53.9003 151.342 54.7866 151.342 55.5945C151.342 55.9684 151.48 56.2731 151.854 56.2731C152.247 56.2731 152.731 55.7745 152.897 54.8697L153.087 53.9326V53.9372Z" fill="#244787"/>
<path id="Vector_54" d="M155.709 52.7047H154.342L154.49 51.9614H158.077L157.929 52.7047H156.558L155.769 56.8824H154.915L155.709 52.7047Z" fill="#244787"/>
<path id="Vector_55" d="M157.782 56.8824L158.331 53.9834H157.869L157.994 53.3279H158.456L158.493 53.1432C158.571 52.6908 158.746 52.2384 159.083 51.9476C159.347 51.7214 159.688 51.6198 160.021 51.6198C160.27 51.6198 160.45 51.6614 160.547 51.7168L160.385 52.3907C160.298 52.3538 160.182 52.3307 160.044 52.3307C159.642 52.3307 159.416 52.7047 159.337 53.1617L159.31 53.3279H160.048L159.924 53.9834H159.185L158.636 56.8824H157.786H157.782Z" fill="#244787"/>
<path id="Vector_56" d="M163.534 54.722C163.534 55.9269 162.684 56.9655 161.475 56.9655C160.574 56.9655 160.021 56.3469 160.021 55.4975C160.021 54.2927 160.861 53.2494 162.075 53.2494C163.03 53.2494 163.534 53.9372 163.534 54.7266V54.722ZM160.898 55.4745C160.898 55.9638 161.161 56.3054 161.59 56.3054C162.227 56.3054 162.647 55.4283 162.647 54.722C162.647 54.3573 162.486 53.9049 161.969 53.9049C161.29 53.9049 160.893 54.8097 160.893 55.4745H160.898Z" fill="#244787"/>
<path id="Vector_57" d="M163.898 56.8824L164.314 54.6897C164.411 54.1865 164.452 53.6464 164.498 53.3232H165.237C165.214 53.5633 165.195 53.8126 165.158 54.0757H165.182C165.422 53.5956 165.809 53.2448 166.299 53.2448C166.359 53.2448 166.423 53.254 166.483 53.2586L166.317 54.0895C166.276 54.0803 166.216 54.0757 166.156 54.0757C165.551 54.0757 165.163 54.6897 165.025 55.4467L164.752 56.8778H163.903L163.898 56.8824Z" fill="#244787"/>
<path id="Vector_58" d="M166.433 56.8824L166.885 54.4265C166.963 54.0018 167.023 53.6325 167.06 53.3232H167.799L167.725 53.9418H167.734C168.071 53.4663 168.51 53.2401 168.967 53.2401C169.521 53.2401 169.779 53.591 169.807 53.9695C170.121 53.4802 170.573 53.2448 171.063 53.2401C171.552 53.2401 171.931 53.5541 171.931 54.1911C171.931 54.3434 171.903 54.6066 171.871 54.7958L171.478 56.8778H170.652L171.026 54.8928C171.049 54.7451 171.077 54.5835 171.077 54.4404C171.077 54.1403 170.952 53.9372 170.638 53.9372C170.25 53.9372 169.821 54.4265 169.683 55.179L169.359 56.8824H168.542L168.921 54.8651C168.949 54.7174 168.962 54.5789 168.962 54.4496C168.962 54.1819 168.884 53.9372 168.538 53.9372C168.145 53.9372 167.688 54.4727 167.559 55.1928L167.254 56.8824H166.428H166.433Z" fill="#244787"/>
</g>
<g id="Group_5">
<path id="Vector_59" d="M25.3852 5.59961C25.4683 5.13336 25.7499 4.81483 26.1792 4.59325C26.7332 4.30703 27.5364 4.19624 28.4274 4.19624C29.3091 4.19624 30.0754 4.30703 30.5232 4.59786C30.874 4.81945 31.0495 5.13797 30.9664 5.60422C30.8833 6.07047 30.5971 6.389 30.1631 6.61058C29.6045 6.90603 28.8013 7.00759 27.9242 7.00759C27.0379 7.00759 26.2716 6.90603 25.8192 6.61058C25.4683 6.389 25.3021 6.07047 25.3852 5.60422V5.59961ZM26.4931 0.0369263H27.6195L27.3795 1.37566H31.6311L31.4649 2.31739H29.3091L29.2075 2.87135H31.7465L31.5757 3.82693H25.4037L25.5745 2.87135H28.0904L28.1919 2.31739H26.0915L26.4978 0.0415426L26.4931 0.0369263ZM26.5024 5.60422C26.4793 5.72886 26.5347 5.82581 26.6501 5.89967C26.8763 6.04739 27.3702 6.1074 28.0858 6.1074C28.7967 6.1074 29.3091 6.04739 29.5907 5.89967C29.7292 5.82581 29.8215 5.72886 29.8446 5.60422C29.8677 5.4842 29.8123 5.38264 29.6969 5.31801C29.4753 5.16105 28.9767 5.11027 28.2704 5.11027C27.5503 5.11027 27.0379 5.16105 26.7609 5.31801C26.6224 5.38264 26.5301 5.48881 26.5116 5.60422H26.5024Z" fill="#244787"/>
<path id="Vector_60" d="M34.567 0.0369307H35.6934L35.5365 0.923266C35.3241 2.10043 35.7719 2.62208 36.5798 2.86674L36.4044 3.83617C35.6242 3.71615 34.941 3.32376 34.6363 2.82981C34.1654 3.34684 33.3345 3.76693 32.4805 3.91003L32.6513 2.94984C33.5699 2.69132 34.1977 2.07735 34.4055 0.932499L34.567 0.0369307ZM32.7759 5.22569L32.9467 4.27934H38.2186L37.7431 6.93373H36.6167L36.9214 5.22569H32.7759ZM38.9849 0L38.2786 3.94696H37.1522L37.8585 0H38.9849Z" fill="#244787"/>
<path id="Vector_61" d="M42.1287 3.91002H39.6035L39.7697 2.98676H45.9418L45.7756 3.91002H43.2458L43.1581 4.40397H45.2678L44.82 6.89679H39.4835L39.9313 4.40397H42.041L42.1287 3.91002ZM44.8569 1.70803H45.8725L45.711 2.60822H40.1437L40.3052 1.70342H41.2377L41.367 0.974037H40.5453L40.7068 0.0738525H46.0433L45.8818 0.978653H45.06L45 1.3018C44.9723 1.44952 44.9262 1.58801 44.8523 1.70803H44.8569ZM40.7715 6.00122H43.8644L43.9891 5.31339H40.8961L40.7715 6.00122ZM43.9614 0.978653H42.4795L42.3503 1.70803H43.7629C43.8275 1.60647 43.869 1.47722 43.8921 1.36181L43.9614 0.978653Z" fill="#244787"/>
<path id="Vector_62" d="M51.1305 5.46575H48.6515L48.8223 4.50555H54.9205L54.7497 5.46575H52.2568L51.9937 6.93836H50.8673L51.1305 5.46575ZM55.3729 0.0784912L55.2021 1.02484H50.9089L50.8165 1.54187H55.0266L54.8605 2.4836H50.6504L50.5534 3.02371H54.9205L54.7497 3.97929H49.247L49.9441 0.0831075H55.3683L55.3729 0.0784912Z" fill="#244787"/>
<path id="Vector_63" d="M56.6516 1.07101L56.8224 0.124663H60.5663L60.3955 1.07101H59.0798L58.8075 2.5944C58.4659 4.49633 58.969 5.06875 59.6799 5.41036L59.5045 6.40287C58.7244 6.20899 58.0827 5.66888 57.8057 5.05029C57.3164 5.67811 56.4485 6.21822 55.6222 6.40287L55.7976 5.41036C56.6286 5.07799 57.3302 4.49633 57.6718 2.5944L57.9442 1.07101H56.647H56.6516ZM61.1849 0.00463867H62.3113L61.8312 2.67288H62.8329L62.6575 3.64231H61.6557L61.0833 6.82758H59.9569L61.1849 0.00463867Z" fill="#244787"/>
<path id="Vector_64" d="M63.8438 1.02485L64.0146 0.0785H67.6292L67.4584 1.02485H66.1981C65.9904 2.17893 66.4151 2.63595 67.2599 2.81598L67.0891 3.76695C66.3089 3.66539 65.6442 3.31455 65.3441 2.79752C64.8363 3.32378 64.0054 3.74848 63.2021 3.84543L63.373 2.88523C64.2778 2.70981 64.8733 2.19278 65.0856 1.02485H63.8438ZM63.3499 5.48422C63.433 5.01336 63.733 4.67175 64.1439 4.43632C64.7209 4.09471 65.538 3.9793 66.3366 3.9793C67.1306 3.9793 67.9062 4.09932 68.3632 4.43632C68.6817 4.67175 68.8572 5.01336 68.7741 5.48422C68.691 5.95509 68.3909 6.2967 67.9847 6.54136C67.4076 6.88297 66.5859 6.99376 65.7919 6.99376C64.9979 6.99376 64.2177 6.88297 63.7607 6.54136C63.433 6.2967 63.2575 5.95971 63.3453 5.48422H63.3499ZM64.4763 5.48422C64.4486 5.64118 64.5132 5.73351 64.6378 5.82583C64.8963 6.00125 65.4041 6.05665 65.9673 6.05665C66.5305 6.05665 67.0568 6.00587 67.3707 5.82583C67.5323 5.73812 67.6246 5.64118 67.6523 5.48422C67.68 5.3365 67.6246 5.23494 67.4907 5.14262C67.2414 4.97181 66.7244 4.9118 66.1704 4.9118C65.6073 4.9118 65.081 4.97181 64.7578 5.14262C64.6009 5.23033 64.4993 5.3365 64.4763 5.48422ZM69.6004 0.009255L68.9033 3.89621H67.7769L68.0585 2.3128H66.8352L67.0014 1.38031H68.2247L68.4694 0.00463867H69.5958L69.6004 0.009255Z" fill="#244787"/>
<path id="Vector_65" d="M72.4025 0.124634L72.1809 1.35719H75.3477L75.5693 0.124634H76.6957L75.9432 4.33011H73.8059L73.5797 5.59499H76.0587L75.8878 6.55057H69.7897L69.9605 5.59499H72.4533L72.6795 4.33011H70.5191L71.2715 0.124634H72.4025ZM71.8209 3.37453H74.9877L75.1769 2.31278H72.0101L71.8209 3.37453Z" fill="#244787"/>
<path id="Vector_66" d="M84.9221 5.78426H80.712L80.6612 6.07047H85.0236L84.8759 6.90603H79.3917L79.7426 4.94409H83.9619L84.0173 4.63941H79.798L79.9503 3.79462H85.2868L84.9313 5.77503L84.9221 5.78426ZM85.7623 3.45763H79.5902L79.7472 2.57129H85.9192L85.7623 3.45763ZM84.8159 1.41721H85.8223L85.6699 2.26662H80.1026L80.255 1.41721H81.1875L81.2752 0.937112H80.4535L80.6058 0.0877075H85.9423L85.79 0.937112H84.9683L84.9359 1.131C84.9175 1.24179 84.8852 1.33873 84.8159 1.41721ZM83.865 0.937112H82.3831L82.2954 1.41721H83.7172C83.768 1.35258 83.8049 1.24641 83.8234 1.14946L83.8603 0.937112H83.865Z" fill="#244787"/>
<path id="Vector_67" d="M89.3676 5.95505C88.6982 6.49978 87.5626 6.86447 86.3531 6.91525L86.5193 5.98275C87.9089 5.84426 88.906 5.40109 89.0676 4.47321L89.0906 4.33933H90.217L90.1939 4.47321C90.0278 5.38724 90.8541 5.82579 92.202 5.98275L92.0359 6.91525C90.8402 6.86447 89.8385 6.49978 89.363 5.95505H89.3676ZM88.0843 2.49742L87.9643 3.15294H89.1414C89.5984 3.15294 89.8846 3.08831 90.1385 2.92212L90.6556 0.046147H91.6712L91.3988 1.55569H91.8743L92.1513 0.00921631H93.2038L92.4052 4.46859H91.3526L91.7035 2.51588H91.228L90.9372 4.15007H89.9216L89.9908 3.75768C89.7508 3.95156 89.3999 4.03004 88.749 4.03004H86.764L87.1979 1.61108H88.8044L88.9198 0.960181H87.3133L87.4703 0.0784613H90.1293L89.6954 2.48819H88.0797L88.0843 2.49742Z" fill="#244787"/>
<path id="Vector_68" d="M99.385 4.41785L98.9372 6.91067H93.6007L94.0485 4.41785H99.385ZM98.9741 1.72191H99.9897L99.8281 2.6221H97.5938L97.5154 3.0745H100.054L99.8882 3.99776H93.7161L93.8823 3.0745H96.3982L96.4767 2.62671H94.2655L94.427 1.72191H95.3595L95.4888 0.992531H94.6671L94.8287 0.0923462H100.165L100.004 0.997147H99.1819L99.1218 1.32029C99.0941 1.46801 99.048 1.6065 98.9741 1.72653V1.72191ZM94.8887 6.0151H97.9816L98.1063 5.32727H95.0133L94.8887 6.0151ZM98.0786 0.987915H96.5967L96.4675 1.71729H97.88C97.9447 1.61574 97.9862 1.48648 98.0093 1.37107L98.0786 0.987915Z" fill="#244787"/>
</g>
</g>
</g>
</g>
<defs>
<clipPath id="clip0_866_35151">
<rect width="180" height="76.151" fill="white"/>
</clipPath>
</defs>
</svg>
