<svg width="25" height="35" viewBox="0 0 25 35" fill="none" xmlns="http://www.w3.org/2000/svg">
<path d="M16 0.0122681H5.5C2.60051 0.0122681 0.25 2.36277 0.25 5.26227V27.7623C0.25 30.6618 2.60051 33.0123 5.5 33.0123H16C18.8995 33.0123 21.25 30.6618 21.25 27.7623V5.26227C21.25 2.36277 18.8995 0.0122681 16 0.0122681Z" fill="url(#paint0_linear_2_12468)"/>
<path d="M19 5.26227V27.7623C19 28.5579 18.6839 29.321 18.1213 29.8836C17.5587 30.4462 16.7956 30.7623 16 30.7623H5.5C4.70435 30.7623 3.94129 30.4462 3.37868 29.8836C2.81607 29.321 2.5 28.5579 2.5 27.7623V5.26227C2.5 4.46662 2.81607 3.70356 3.37868 3.14095C3.94129 2.57834 4.70435 2.26227 5.5 2.26227H6.25V3.01227C6.25 3.41009 6.40804 3.79162 6.68934 4.07293C6.97064 4.35423 7.35218 4.51227 7.75 4.51227H13.75C14.1478 4.51227 14.5294 4.35423 14.8107 4.07293C15.092 3.79162 15.25 3.41009 15.25 3.01227V2.26227H16C16.7956 2.26227 17.5587 2.57834 18.1213 3.14095C18.6839 3.70356 19 4.46662 19 5.26227Z" fill="#F0F7FC"/>
<path d="M16 6.76227H5.5C5.08579 6.76227 4.75 7.09805 4.75 7.51227V15.0123C4.75 15.4265 5.08579 15.7623 5.5 15.7623H16C16.4142 15.7623 16.75 15.4265 16.75 15.0123V7.51227C16.75 7.09805 16.4142 6.76227 16 6.76227Z" fill="url(#paint1_linear_2_12468)"/>
<path d="M4.75 15.0123V14.2623L7.75 11.2623L10 13.5123L13.75 9.76227L16.75 12.7623V15.0123C16.75 15.2112 16.671 15.4019 16.5303 15.5426C16.3897 15.6833 16.1989 15.7623 16 15.7623H5.5C5.30109 15.7623 5.11032 15.6833 4.96967 15.5426C4.82902 15.4019 4.75 15.2112 4.75 15.0123Z" fill="#EB7F58"/>
<path d="M10 11.2623C10.8284 11.2623 11.5 10.5907 11.5 9.76227C11.5 8.93384 10.8284 8.26227 10 8.26227C9.17157 8.26227 8.5 8.93384 8.5 9.76227C8.5 10.5907 9.17157 11.2623 10 11.2623Z" fill="#EB7F58"/>
<path d="M16 18.7623H5.5C5.30109 18.7623 5.11032 18.6833 4.96967 18.5426C4.82902 18.4019 4.75 18.2112 4.75 18.0123C4.75 17.8134 4.82902 17.6226 4.96967 17.4819C5.11032 17.3413 5.30109 17.2623 5.5 17.2623H16C16.1989 17.2623 16.3897 17.3413 16.5303 17.4819C16.671 17.6226 16.75 17.8134 16.75 18.0123C16.75 18.2112 16.671 18.4019 16.5303 18.5426C16.3897 18.6833 16.1989 18.7623 16 18.7623Z" fill="#B4CDE1"/>
<path d="M16 21.7623H5.5C5.30109 21.7623 5.11032 21.6833 4.96967 21.5426C4.82902 21.4019 4.75 21.2112 4.75 21.0123C4.75 20.8134 4.82902 20.6226 4.96967 20.4819C5.11032 20.3413 5.30109 20.2623 5.5 20.2623H16C16.1989 20.2623 16.3897 20.3413 16.5303 20.4819C16.671 20.6226 16.75 20.8134 16.75 21.0123C16.75 21.2112 16.671 21.4019 16.5303 21.5426C16.3897 21.6833 16.1989 21.7623 16 21.7623Z" fill="#B4CDE1"/>
<path d="M11.5 24.7623H5.5C5.30109 24.7623 5.11032 24.6833 4.96967 24.5426C4.82902 24.4019 4.75 24.2112 4.75 24.0123C4.75 23.8134 4.82902 23.6226 4.96967 23.4819C5.11032 23.3413 5.30109 23.2623 5.5 23.2623H11.5C11.6989 23.2623 11.8897 23.3413 12.0303 23.4819C12.171 23.6226 12.25 23.8134 12.25 24.0123C12.25 24.2112 12.171 24.4019 12.0303 24.5426C11.8897 24.6833 11.6989 24.7623 11.5 24.7623Z" fill="#B4CDE1"/>
<path d="M11.5 27.7623H5.5C5.30109 27.7623 5.11032 27.6833 4.96967 27.5426C4.82902 27.4019 4.75 27.2112 4.75 27.0123C4.75 26.8134 4.82902 26.6226 4.96967 26.4819C5.11032 26.3413 5.30109 26.2623 5.5 26.2623H11.5C11.6989 26.2623 11.8897 26.3413 12.0303 26.4819C12.171 26.6226 12.25 26.8134 12.25 27.0123C12.25 27.2112 12.171 27.4019 12.0303 27.5426C11.8897 27.6833 11.6989 27.7623 11.5 27.7623Z" fill="#B4CDE1"/>
<path d="M25 24.0123V33.7623C25 33.8946 24.9649 34.0247 24.8984 34.1391C24.8318 34.2535 24.7362 34.3483 24.6212 34.4139C24.5061 34.4794 24.3758 34.5133 24.2435 34.5121C24.1111 34.511 23.9814 34.4748 23.8675 34.4073L20.5 32.3898L17.1325 34.4073C17.0186 34.4748 16.8889 34.511 16.7566 34.5121C16.6242 34.5133 16.4939 34.4794 16.3788 34.4139C16.2638 34.3483 16.1682 34.2535 16.1016 34.1391C16.0351 34.0247 16 33.8946 16 33.7623V24.0123C16 23.8134 16.079 23.6226 16.2197 23.4819C16.3603 23.3413 16.5511 23.2623 16.75 23.2623H24.25C24.4489 23.2623 24.6397 23.3413 24.7803 23.4819C24.921 23.6226 25 23.8134 25 24.0123Z" fill="url(#paint2_linear_2_12468)"/>
<path d="M22 27.0123H21.25V26.2623C21.25 26.0634 21.171 25.8726 21.0303 25.7319C20.8897 25.5913 20.6989 25.5123 20.5 25.5123C20.3011 25.5123 20.1103 25.5913 19.9697 25.7319C19.829 25.8726 19.75 26.0634 19.75 26.2623V27.0123H19C18.8011 27.0123 18.6103 27.0913 18.4697 27.2319C18.329 27.3726 18.25 27.5634 18.25 27.7623C18.25 27.9612 18.329 28.1519 18.4697 28.2926C18.6103 28.4333 18.8011 28.5123 19 28.5123H19.75V29.2623C19.75 29.4612 19.829 29.6519 19.9697 29.7926C20.1103 29.9333 20.3011 30.0123 20.5 30.0123C20.6989 30.0123 20.8897 29.9333 21.0303 29.7926C21.171 29.6519 21.25 29.4612 21.25 29.2623V28.5123H22C22.1989 28.5123 22.3897 28.4333 22.5303 28.2926C22.671 28.1519 22.75 27.9612 22.75 27.7623C22.75 27.5634 22.671 27.3726 22.5303 27.2319C22.3897 27.0913 22.1989 27.0123 22 27.0123Z" fill="#F0F7FC"/>
<defs>
<linearGradient id="paint0_linear_2_12468" x1="10.75" y1="33.0123" x2="10.75" y2="0.0122681" gradientUnits="userSpaceOnUse">
<stop stop-color="#54A5FF"/>
<stop offset="1" stop-color="#8AD3FE"/>
</linearGradient>
<linearGradient id="paint1_linear_2_12468" x1="10.75" y1="15.7623" x2="10.75" y2="6.76227" gradientUnits="userSpaceOnUse">
<stop stop-color="#FE9661"/>
<stop offset="1" stop-color="#FFB369"/>
</linearGradient>
<linearGradient id="paint2_linear_2_12468" x1="16" y1="28.8873" x2="25" y2="28.8873" gradientUnits="userSpaceOnUse">
<stop stop-color="#FE9661"/>
<stop offset="1" stop-color="#FFB369"/>
</linearGradient>
</defs>
</svg>
