<svg width="36" height="36" viewBox="0 0 36 36" fill="none" xmlns="http://www.w3.org/2000/svg">
<g clip-path="url(#clip0_430_30959)">
<path d="M30.75 3.75H20.25C17.7647 3.75 15.75 5.76472 15.75 8.25V30.75C15.75 33.2353 17.7647 35.25 20.25 35.25H30.75C33.2353 35.25 35.25 33.2353 35.25 30.75V8.25C35.25 5.76472 33.2353 3.75 30.75 3.75Z" fill="url(#paint0_linear_430_30959)"/>
<path d="M33 8.25V30.75C33 31.3467 32.7629 31.919 32.341 32.341C31.919 32.7629 31.3467 33 30.75 33H20.25C19.6533 33 19.081 32.7629 18.659 32.341C18.2371 31.919 18 31.3467 18 30.75V8.25C18 7.65326 18.2371 7.08097 18.659 6.65901C19.081 6.23705 19.6533 6 20.25 6H21.75V6.75C21.75 7.14782 21.908 7.52936 22.1893 7.81066C22.4706 8.09196 22.8522 8.25 23.25 8.25H27.75C28.1478 8.25 28.5294 8.09196 28.8107 7.81066C29.092 7.52936 29.25 7.14782 29.25 6.75V6H30.75C31.3467 6 31.919 6.23705 32.341 6.65901C32.7629 7.08097 33 7.65326 33 8.25Z" fill="#F0F7FC"/>
<path d="M15.75 0.75H5.25C2.76472 0.75 0.75 2.76472 0.75 5.25V27.75C0.75 30.2353 2.76472 32.25 5.25 32.25H15.75C18.2353 32.25 20.25 30.2353 20.25 27.75V5.25C20.25 2.76472 18.2353 0.75 15.75 0.75Z" fill="url(#paint1_linear_430_30959)"/>
<path d="M18 5.25V27.75C18 28.3467 17.7629 28.919 17.341 29.341C16.919 29.7629 16.3467 30 15.75 30H5.25C4.65326 30 4.08097 29.7629 3.65901 29.341C3.23705 28.919 3 28.3467 3 27.75V5.25C3 4.65326 3.23705 4.08097 3.65901 3.65901C4.08097 3.23705 4.65326 3 5.25 3H6.75V3.75C6.75 4.14782 6.90804 4.52936 7.18934 4.81066C7.47064 5.09196 7.85218 5.25 8.25 5.25H12.75C13.1478 5.25 13.5294 5.09196 13.8107 4.81066C14.092 4.52936 14.25 4.14782 14.25 3.75V3H15.75C16.3467 3 16.919 3.23705 17.341 3.65901C17.7629 4.08097 18 4.65326 18 5.25V5.25Z" fill="#F0F7FC"/>
<path d="M21.75 14.25V17.25C21.75 17.449 21.671 17.6397 21.5304 17.7804C21.3897 17.921 21.1989 18 21 18H14.25V18.75C14.25 18.949 14.171 19.1397 14.0304 19.2804C13.8897 19.421 13.6989 19.5 13.5 19.5C13.185 19.5 13.4625 19.62 8.58754 16.3725C8.48544 16.3039 8.40179 16.2113 8.34395 16.1027C8.28611 15.9942 8.25586 15.873 8.25586 15.75C8.25586 15.627 8.28611 15.5059 8.34395 15.3974C8.40179 15.2888 8.48544 15.1961 8.58754 15.1275L13.0875 12.1275C13.2003 12.0533 13.3311 12.0108 13.466 12.0047C13.601 11.9986 13.735 12.029 13.8541 12.0927C13.9732 12.1565 14.0728 12.2512 14.1425 12.3669C14.2122 12.4826 14.2493 12.615 14.25 12.75V13.5H21C21.1989 13.5 21.3897 13.5791 21.5304 13.7197C21.671 13.8604 21.75 14.0511 21.75 14.25Z" fill="#FFB369"/>
<path d="M16.5 21.75V24.75C16.5 24.949 16.579 25.1397 16.7197 25.2804C16.8603 25.421 17.0511 25.5 17.25 25.5H24V26.25C24 26.449 24.079 26.6397 24.2197 26.7804C24.3603 26.921 24.5511 27 24.75 27C25.065 27 24.75 27.12 29.6625 23.8725C29.7646 23.8039 29.8482 23.7113 29.9061 23.6027C29.9639 23.4942 29.9942 23.373 29.9942 23.25C29.9942 23.127 29.9639 23.0059 29.9061 22.8974C29.8482 22.7888 29.7646 22.6961 29.6625 22.6275L25.1625 19.6275C25.0497 19.5533 24.9189 19.5108 24.784 19.5047C24.6491 19.4986 24.515 19.529 24.3959 19.5927C24.2769 19.6565 24.1772 19.7512 24.1075 19.8669C24.0379 19.9826 24.0007 20.115 24 20.25V21H17.25C17.0511 21 16.8603 21.0791 16.7197 21.2197C16.579 21.3604 16.5 21.5511 16.5 21.75Z" fill="#4795EA"/>
<path d="M30 12H24C23.8011 12 23.6103 11.921 23.4697 11.7803C23.329 11.6397 23.25 11.4489 23.25 11.25C23.25 11.0511 23.329 10.8603 23.4697 10.7197C23.6103 10.579 23.8011 10.5 24 10.5H30C30.1989 10.5 30.3897 10.579 30.5303 10.7197C30.671 10.8603 30.75 11.0511 30.75 11.25C30.75 11.4489 30.671 11.6397 30.5303 11.7803C30.3897 11.921 30.1989 12 30 12Z" fill="#B4CDE1"/>
<path d="M30 15H24C23.8011 15 23.6103 14.921 23.4697 14.7803C23.329 14.6397 23.25 14.4489 23.25 14.25C23.25 14.0511 23.329 13.8603 23.4697 13.7197C23.6103 13.579 23.8011 13.5 24 13.5H30C30.1989 13.5 30.3897 13.579 30.5303 13.7197C30.671 13.8603 30.75 14.0511 30.75 14.25C30.75 14.4489 30.671 14.6397 30.5303 14.7803C30.3897 14.921 30.1989 15 30 15Z" fill="#B4CDE1"/>
<path d="M30 18H27C26.8011 18 26.6103 17.921 26.4697 17.7803C26.329 17.6397 26.25 17.4489 26.25 17.25C26.25 17.0511 26.329 16.8603 26.4697 16.7197C26.6103 16.579 26.8011 16.5 27 16.5H30C30.1989 16.5 30.3897 16.579 30.5303 16.7197C30.671 16.8603 30.75 17.0511 30.75 17.25C30.75 17.4489 30.671 17.6397 30.5303 17.7803C30.3897 17.921 30.1989 18 30 18Z" fill="#B4CDE1"/>
<path d="M6 9H10.5C10.6989 9 10.8897 8.92098 11.0303 8.78033C11.171 8.63968 11.25 8.44891 11.25 8.25C11.25 8.05109 11.171 7.86032 11.0303 7.71967C10.8897 7.57902 10.6989 7.5 10.5 7.5H6C5.80109 7.5 5.61032 7.57902 5.46967 7.71967C5.32902 7.86032 5.25 8.05109 5.25 8.25C5.25 8.44891 5.32902 8.63968 5.46967 8.78033C5.61032 8.92098 5.80109 9 6 9Z" fill="#B4CDE1"/>
<path d="M6 12H9C9.19891 12 9.38968 11.921 9.53033 11.7803C9.67098 11.6397 9.75 11.4489 9.75 11.25C9.75 11.0511 9.67098 10.8603 9.53033 10.7197C9.38968 10.579 9.19891 10.5 9 10.5H6C5.80109 10.5 5.61032 10.579 5.46967 10.7197C5.32902 10.8603 5.25 11.0511 5.25 11.25C5.25 11.4489 5.32902 11.6397 5.46967 11.7803C5.61032 11.921 5.80109 12 6 12Z" fill="#B4CDE1"/>
<path d="M29.25 30.75H21.75C21.5511 30.75 21.3603 30.671 21.2197 30.5303C21.079 30.3897 21 30.1989 21 30C21 29.8011 21.079 29.6103 21.2197 29.4697C21.3603 29.329 21.5511 29.25 21.75 29.25H29.25C29.4489 29.25 29.6397 29.329 29.7803 29.4697C29.921 29.6103 30 29.8011 30 30C30 30.1989 29.921 30.3897 29.7803 30.5303C29.6397 30.671 29.4489 30.75 29.25 30.75Z" fill="#D7E9F7"/>
<path d="M14.25 27.75H6.75C6.55109 27.75 6.36032 27.671 6.21967 27.5303C6.07902 27.3897 6 27.1989 6 27C6 26.8011 6.07902 26.6103 6.21967 26.4697C6.36032 26.329 6.55109 26.25 6.75 26.25H14.25C14.4489 26.25 14.6397 26.329 14.7803 26.4697C14.921 26.6103 15 26.8011 15 27C15 27.1989 14.921 27.3897 14.7803 27.5303C14.6397 27.671 14.4489 27.75 14.25 27.75Z" fill="#D7E9F7"/>
</g>
<defs>
<linearGradient id="paint0_linear_430_30959" x1="15.75" y1="19.5" x2="35.25" y2="19.5" gradientUnits="userSpaceOnUse">
<stop stop-color="#FE9661"/>
<stop offset="1" stop-color="#FFB369"/>
</linearGradient>
<linearGradient id="paint1_linear_430_30959" x1="0.75" y1="16.5" x2="20.25" y2="16.5" gradientUnits="userSpaceOnUse">
<stop stop-color="#54A5FF"/>
<stop offset="1" stop-color="#8AD3FE"/>
</linearGradient>
<clipPath id="clip0_430_30959">
<rect width="36" height="36" fill="white"/>
</clipPath>
</defs>
</svg>
