<svg width="40" height="40" viewBox="0 0 40 40" fill="none" xmlns="http://www.w3.org/2000/svg">
<path d="M30 0.833252H6.66667C5.74619 0.833252 5 1.57944 5 2.49992V34.1666C5 35.0871 5.74619 35.8333 6.66667 35.8333H30C30.9205 35.8333 31.6667 35.0871 31.6667 34.1666V2.49992C31.6667 1.57944 30.9205 0.833252 30 0.833252Z" fill="url(#paint0_linear_430_42066)"/>
<path d="M33.333 4.1665H9.99967C9.0792 4.1665 8.33301 4.9127 8.33301 5.83317V37.4998C8.33301 38.4203 9.0792 39.1665 9.99967 39.1665H33.333C34.2535 39.1665 34.9997 38.4203 34.9997 37.4998V5.83317C34.9997 4.9127 34.2535 4.1665 33.333 4.1665Z" fill="url(#paint1_linear_430_42066)"/>
<path d="M21.6663 18.3332C24.888 18.3332 27.4997 15.7215 27.4997 12.4998C27.4997 9.27818 24.888 6.6665 21.6663 6.6665C18.4447 6.6665 15.833 9.27818 15.833 12.4998C15.833 15.7215 18.4447 18.3332 21.6663 18.3332Z" fill="url(#paint2_linear_430_42066)"/>
<path d="M30 20.8333H13.3333C12.8731 20.8333 12.5 21.2063 12.5 21.6666V24.9999C12.5 25.4602 12.8731 25.8333 13.3333 25.8333H30C30.4602 25.8333 30.8333 25.4602 30.8333 24.9999V21.6666C30.8333 21.2063 30.4602 20.8333 30 20.8333Z" fill="url(#paint3_linear_430_42066)"/>
<path d="M30 29.1667H13.3333C13.1123 29.1667 12.9004 29.0789 12.7441 28.9226C12.5878 28.7663 12.5 28.5543 12.5 28.3333C12.5 28.1123 12.5878 27.9004 12.7441 27.7441C12.9004 27.5878 13.1123 27.5 13.3333 27.5H30C30.221 27.5 30.433 27.5878 30.5893 27.7441C30.7455 27.9004 30.8333 28.1123 30.8333 28.3333C30.8333 28.5543 30.7455 28.7663 30.5893 28.9226C30.433 29.0789 30.221 29.1667 30 29.1667Z" fill="#B4CDE1"/>
<path d="M30 32.4999H13.3333C13.1123 32.4999 12.9004 32.4121 12.7441 32.2558C12.5878 32.0996 12.5 31.8876 12.5 31.6666C12.5 31.4456 12.5878 31.2336 12.7441 31.0773C12.9004 30.921 13.1123 30.8333 13.3333 30.8333H30C30.221 30.8333 30.433 30.921 30.5893 31.0773C30.7455 31.2336 30.8333 31.4456 30.8333 31.6666C30.8333 31.8876 30.7455 32.0996 30.5893 32.2558C30.433 32.4121 30.221 32.4999 30 32.4999Z" fill="#B4CDE1"/>
<path d="M30 35.8332H13.3333C13.1123 35.8332 12.9004 35.7454 12.7441 35.5891C12.5878 35.4328 12.5 35.2208 12.5 34.9998C12.5 34.7788 12.5878 34.5669 12.7441 34.4106C12.9004 34.2543 13.1123 34.1665 13.3333 34.1665H30C30.221 34.1665 30.433 34.2543 30.5893 34.4106C30.7455 34.5669 30.8333 34.7788 30.8333 34.9998C30.8333 35.2208 30.7455 35.4328 30.5893 35.5891C30.433 35.7454 30.221 35.8332 30 35.8332Z" fill="#B4CDE1"/>
<path d="M26.1837 16.1915C25.778 15.3371 25.1383 14.6153 24.3388 14.1099C23.5393 13.6045 22.6129 13.3362 21.6671 13.3362C20.7212 13.3362 19.7948 13.6045 18.9953 14.1099C18.1958 14.6153 17.5561 15.3371 17.1504 16.1915C17.6975 16.8609 18.3865 17.4003 19.1677 17.7707C19.9488 18.1411 20.8025 18.3333 21.6671 18.3333C22.5316 18.3333 23.3853 18.1411 24.1664 17.7707C24.9476 17.4003 25.6366 16.8609 26.1837 16.1915Z" fill="#EB7F58"/>
<path d="M21.667 13.3333C23.0477 13.3333 24.167 12.214 24.167 10.8333C24.167 9.45254 23.0477 8.33325 21.667 8.33325C20.2863 8.33325 19.167 9.45254 19.167 10.8333C19.167 12.214 20.2863 13.3333 21.667 13.3333Z" fill="#EB7F58"/>
<defs>
<linearGradient id="paint0_linear_430_42066" x1="27.0417" y1="27.0416" x2="1.88333" y2="1.88325" gradientUnits="userSpaceOnUse">
<stop stop-color="#54A5FF"/>
<stop offset="0.98" stop-color="#89D2FE"/>
<stop offset="1" stop-color="#8AD3FE"/>
</linearGradient>
<linearGradient id="paint1_linear_430_42066" x1="21.6663" y1="39.1665" x2="21.6663" y2="4.1665" gradientUnits="userSpaceOnUse">
<stop stop-color="#D3E6F5"/>
<stop offset="1" stop-color="#F0F7FC"/>
</linearGradient>
<linearGradient id="paint2_linear_430_42066" x1="21.6663" y1="18.3332" x2="21.6663" y2="6.6665" gradientUnits="userSpaceOnUse">
<stop stop-color="#FE9661"/>
<stop offset="1" stop-color="#FFB369"/>
</linearGradient>
<linearGradient id="paint3_linear_430_42066" x1="21.6667" y1="25.8333" x2="21.6667" y2="20.8333" gradientUnits="userSpaceOnUse">
<stop stop-color="#54A5FF"/>
<stop offset="1" stop-color="#8AD3FE"/>
</linearGradient>
</defs>
</svg>
