<svg width="40" height="40" viewBox="0 0 40 40" fill="none" xmlns="http://www.w3.org/2000/svg">
<circle cx="20" cy="20" r="20" fill="url(#paint0_linear_401_20492)"/>
<path d="M27 9.79175H13C10.179 9.79175 8.625 11.3457 8.625 14.1667V25.8334C8.625 28.6544 10.179 30.2084 13 30.2084H27C29.821 30.2084 31.375 28.6544 31.375 25.8334V14.1667C31.375 11.3457 29.821 9.79175 27 9.79175ZM13 11.5417H27C28.8398 11.5417 29.625 12.3269 29.625 14.1667V21.3872L24.9467 16.71C24.1767 15.9388 22.8233 15.9388 22.0533 16.71L16.5 22.2622L15.6133 21.3767C14.8433 20.6055 13.49 20.6055 12.72 21.3767L10.375 23.7217V14.1667C10.375 12.3269 11.1602 11.5417 13 11.5417ZM27 28.4584H13C11.2827 28.4584 10.494 27.763 10.3948 26.1752L13.9566 22.6134C14.1048 22.4664 14.2273 22.4664 14.3754 22.6134L15.471 23.7089C16.0159 24.2549 16.983 24.2537 17.5255 23.7089L23.2888 17.9456C23.437 17.7986 23.5595 17.7986 23.7076 17.9456L29.6227 23.8607V25.8334C29.6251 27.6733 28.8398 28.4584 27 28.4584ZM13.875 16.5001C13.875 15.6951 14.5283 15.0417 15.3333 15.0417C16.1383 15.0417 16.7917 15.6951 16.7917 16.5001C16.7917 17.3051 16.1383 17.9584 15.3333 17.9584C14.5283 17.9584 13.875 17.3051 13.875 16.5001Z" fill="white"/>
<defs>
<linearGradient id="paint0_linear_401_20492" x1="-5.82857" y1="4.79358e-06" x2="49.6635" y2="4.24828" gradientUnits="userSpaceOnUse">
<stop stop-color="#41DBAD"/>
<stop offset="1" stop-color="#34A853"/>
</linearGradient>
</defs>
</svg>
