<svg width="40" height="40" viewBox="0 0 40 40" fill="none" xmlns="http://www.w3.org/2000/svg">
<g clip-path="url(#clip0_429_19889)">
<path d="M24.9999 0.833252H3.33325C1.95254 0.833252 0.833252 1.95254 0.833252 3.33325V33.3333C0.833252 34.714 1.95254 35.8333 3.33325 35.8333H24.9999C26.3806 35.8333 27.4999 34.714 27.4999 33.3333V3.33325C27.4999 1.95254 26.3806 0.833252 24.9999 0.833252Z" fill="url(#paint0_linear_429_19889)"/>
<path d="M27.4999 3.33325H5.83325C4.45254 3.33325 3.33325 4.45254 3.33325 5.83325V35.8333C3.33325 37.214 4.45254 38.3333 5.83325 38.3333H27.4999C28.8806 38.3333 29.9999 37.214 29.9999 35.8333V5.83325C29.9999 4.45254 28.8806 3.33325 27.4999 3.33325Z" fill="url(#paint1_linear_429_19889)"/>
<path d="M26.6666 27.4999H16.6666C16.4456 27.4999 16.2336 27.4121 16.0773 27.2558C15.921 27.0996 15.8333 26.8876 15.8333 26.6666C15.8333 26.4456 15.921 26.2336 16.0773 26.0773C16.2336 25.921 16.4456 25.8333 16.6666 25.8333H26.6666C26.8876 25.8333 27.0996 25.921 27.2558 26.0773C27.4121 26.2336 27.4999 26.4456 27.4999 26.6666C27.4999 26.8876 27.4121 27.0996 27.2558 27.2558C27.0996 27.4121 26.8876 27.4999 26.6666 27.4999Z" fill="#B4CDE1"/>
<path d="M21.6666 30.8332H16.6666C16.4456 30.8332 16.2336 30.7454 16.0773 30.5891C15.921 30.4328 15.8333 30.2209 15.8333 29.9998C15.8333 29.7788 15.921 29.5669 16.0773 29.4106C16.2336 29.2543 16.4456 29.1665 16.6666 29.1665H21.6666C21.8876 29.1665 22.0996 29.2543 22.2558 29.4106C22.4121 29.5669 22.4999 29.7788 22.4999 29.9998C22.4999 30.2209 22.4121 30.4328 22.2558 30.5891C22.0996 30.7454 21.8876 30.8332 21.6666 30.8332Z" fill="#B4CDE1"/>
<path d="M9.16659 21.6667C11.0075 21.6667 12.4999 20.1743 12.4999 18.3333C12.4999 16.4924 11.0075 15 9.16659 15C7.32564 15 5.83325 16.4924 5.83325 18.3333C5.83325 20.1743 7.32564 21.6667 9.16659 21.6667Z" fill="#4795EA"/>
<path d="M28.3333 39.1667C32.9357 39.1667 36.6667 35.4357 36.6667 30.8333C36.6667 26.231 32.9357 22.5 28.3333 22.5C23.731 22.5 20 26.231 20 30.8333C20 35.4357 23.731 39.1667 28.3333 39.1667Z" fill="url(#paint2_linear_429_19889)"/>
<path d="M28.3332 34.9998C30.6344 34.9998 32.4998 33.1344 32.4998 30.8332C32.4998 28.532 30.6344 26.6665 28.3332 26.6665C26.032 26.6665 24.1665 28.532 24.1665 30.8332C24.1665 33.1344 26.032 34.9998 28.3332 34.9998Z" fill="#EB7F58"/>
<path d="M38.9249 24.7583L36.4249 27.2583C36.347 27.3355 36.2547 27.3966 36.1531 27.4381C36.0516 27.4796 35.9429 27.5006 35.8332 27.5H32.4999C32.2789 27.5 32.0669 27.4122 31.9106 27.2559C31.7544 27.0996 31.6666 26.8876 31.6666 26.6666C31.6666 23.0333 31.5832 23.0833 31.9082 22.7416L34.4082 20.2416C34.5248 20.1241 34.6737 20.044 34.836 20.0114C34.9983 19.9788 35.1666 19.9953 35.3195 20.0588C35.4723 20.1223 35.6028 20.2299 35.6943 20.3678C35.7858 20.5057 35.8342 20.6678 35.8332 20.8333V23.3333H38.3332C38.4987 23.3323 38.6608 23.3807 38.7987 23.4722C38.9367 23.5637 39.0442 23.6942 39.1077 23.8471C39.1712 23.9999 39.1877 24.1682 39.1551 24.3305C39.1226 24.4928 39.0424 24.6417 38.9249 24.7583Z" fill="#8AD3FE"/>
<path d="M28.3333 31.6666C28.1678 31.6675 28.0057 31.6192 27.8678 31.5277C27.7299 31.4362 27.6223 31.3057 27.5588 31.1528C27.4953 30.9999 27.4788 30.8316 27.5114 30.6693C27.544 30.5071 27.6241 30.3581 27.7416 30.2416L36.9083 21.0749C37.0652 20.918 37.278 20.8298 37.5 20.8298C37.7219 20.8298 37.9347 20.918 38.0916 21.0749C38.2485 21.2318 38.3367 21.4447 38.3367 21.6666C38.3367 21.8885 38.2485 22.1013 38.0916 22.2582L28.925 31.4249C28.8471 31.5021 28.7548 31.5632 28.6532 31.6047C28.5517 31.6462 28.443 31.6672 28.3333 31.6666Z" fill="#E0633D"/>
<path d="M26.6666 5.83325H6.66659C6.20635 5.83325 5.83325 6.20635 5.83325 6.66659V11.6666C5.83325 12.1268 6.20635 12.4999 6.66659 12.4999H26.6666C27.1268 12.4999 27.4999 12.1268 27.4999 11.6666V6.66659C27.4999 6.20635 27.1268 5.83325 26.6666 5.83325Z" fill="url(#paint3_linear_429_19889)"/>
<path d="M9.99999 20C9.54999 20 9.52499 19.875 7.74166 18.0917C7.58474 17.9347 7.49658 17.7219 7.49658 17.5C7.49658 17.2781 7.58474 17.0652 7.74166 16.9083C7.89858 16.7514 8.11141 16.6632 8.33332 16.6632C8.55524 16.6632 8.76807 16.7514 8.92499 16.9083L9.99999 17.9917L12.7417 15.2417C12.8986 15.0847 13.1114 14.9966 13.3333 14.9966C13.5552 14.9966 13.7681 15.0847 13.925 15.2417C14.0819 15.3986 14.1701 15.6114 14.1701 15.8333C14.1701 16.0552 14.0819 16.2681 13.925 16.425L10.5917 19.7583C10.5138 19.8356 10.4214 19.8967 10.3199 19.9381C10.2184 19.9796 10.1097 20.0006 9.99999 20Z" fill="#8AD3FE"/>
<path d="M26.6666 17.4999H16.6666C16.4456 17.4999 16.2336 17.4121 16.0773 17.2558C15.921 17.0996 15.8333 16.8876 15.8333 16.6666C15.8333 16.4456 15.921 16.2336 16.0773 16.0773C16.2336 15.921 16.4456 15.8333 16.6666 15.8333H26.6666C26.8876 15.8333 27.0996 15.921 27.2558 16.0773C27.4121 16.2336 27.4999 16.4456 27.4999 16.6666C27.4999 16.8876 27.4121 17.0996 27.2558 17.2558C27.0996 17.4121 26.8876 17.4999 26.6666 17.4999Z" fill="#B4CDE1"/>
<path d="M21.6666 20.8332H16.6666C16.4456 20.8332 16.2336 20.7454 16.0773 20.5891C15.921 20.4328 15.8333 20.2209 15.8333 19.9998C15.8333 19.7788 15.921 19.5669 16.0773 19.4106C16.2336 19.2543 16.4456 19.1665 16.6666 19.1665H21.6666C21.8876 19.1665 22.0996 19.2543 22.2558 19.4106C22.4121 19.5669 22.4999 19.7788 22.4999 19.9998C22.4999 20.2209 22.4121 20.4328 22.2558 20.5891C22.0996 20.7454 21.8876 20.8332 21.6666 20.8332Z" fill="#B4CDE1"/>
<path d="M9.16659 31.6667C11.0075 31.6667 12.4999 30.1743 12.4999 28.3333C12.4999 26.4924 11.0075 25 9.16659 25C7.32564 25 5.83325 26.4924 5.83325 28.3333C5.83325 30.1743 7.32564 31.6667 9.16659 31.6667Z" fill="#4795EA"/>
<path d="M9.99999 30C9.54999 30 9.52499 29.875 7.74166 28.0917C7.58474 27.9347 7.49658 27.7219 7.49658 27.5C7.49658 27.2781 7.58474 27.0652 7.74166 26.9083C7.89858 26.7514 8.11141 26.6632 8.33332 26.6632C8.55524 26.6632 8.76807 26.7514 8.92499 26.9083L9.99999 27.9917L12.7417 25.2417C12.8986 25.0847 13.1114 24.9966 13.3333 24.9966C13.5552 24.9966 13.7681 25.0847 13.925 25.2417C14.0819 25.3986 14.1701 25.6114 14.1701 25.8333C14.1701 26.0552 14.0819 26.2681 13.925 26.425L10.5917 29.7583C10.5138 29.8356 10.4214 29.8967 10.3199 29.9381C10.2184 29.9796 10.1097 30.0006 9.99999 30Z" fill="#8AD3FE"/>
</g>
<defs>
<linearGradient id="paint0_linear_429_19889" x1="22.7333" y1="26.8999" x2="-2.01675" y2="2.14992" gradientUnits="userSpaceOnUse">
<stop stop-color="#54A5FF"/>
<stop offset="0.98" stop-color="#89D2FE"/>
<stop offset="1" stop-color="#8AD3FE"/>
</linearGradient>
<linearGradient id="paint1_linear_429_19889" x1="16.6666" y1="38.3333" x2="16.6666" y2="3.33325" gradientUnits="userSpaceOnUse">
<stop stop-color="#D3E6F5"/>
<stop offset="1" stop-color="#F0F7FC"/>
</linearGradient>
<linearGradient id="paint2_linear_429_19889" x1="28.3333" y1="39.1667" x2="28.3333" y2="22.5" gradientUnits="userSpaceOnUse">
<stop stop-color="#FE9661"/>
<stop offset="1" stop-color="#FFB369"/>
</linearGradient>
<linearGradient id="paint3_linear_429_19889" x1="16.6666" y1="12.4999" x2="16.6666" y2="5.83325" gradientUnits="userSpaceOnUse">
<stop stop-color="#FE9661"/>
<stop offset="1" stop-color="#FFB369"/>
</linearGradient>
<clipPath id="clip0_429_19889">
<rect width="40" height="40" fill="white"/>
</clipPath>
</defs>
</svg>
