<svg width="40" height="40" viewBox="0 0 40 40" fill="none" xmlns="http://www.w3.org/2000/svg">
<path d="M38.3333 15.8333L20 20.8333V12.5L38.3333 15.8333Z" fill="url(#paint0_linear_430_43528)"/>
<path d="M20.0003 12.5V20.8333L1.66699 15.8333L20.0003 12.5Z" fill="url(#paint1_linear_430_43528)"/>
<path d="M38.3337 15.8333V32.8916C38.3339 33.2569 38.2142 33.6121 37.9929 33.9027C37.7715 34.1933 37.4609 34.4031 37.1087 34.4999L20.0003 39.1666L1.66699 19.9999V15.8333L20.0003 20.8333L38.3337 15.8333Z" fill="url(#paint2_linear_430_43528)"/>
<path d="M20.0003 31.6667V39.1667L2.89199 34.5001C2.53977 34.4033 2.22911 34.1935 2.00778 33.9029C1.78645 33.6123 1.66672 33.257 1.66699 32.8917V26.6667L20.0003 31.6667Z" fill="url(#paint3_linear_430_43528)"/>
<path d="M35.8332 20.9416V23.1833L24.1665 26.3666V23.6666C24.1601 23.4785 24.2175 23.2937 24.3295 23.1424C24.4415 22.991 24.6014 22.8821 24.7832 22.8333L34.7832 20.0999C34.9098 20.0657 35.0426 20.0618 35.171 20.0886C35.2993 20.1154 35.4196 20.1721 35.5219 20.2542C35.6242 20.3362 35.7057 20.4412 35.7598 20.5606C35.8139 20.6801 35.839 20.8106 35.8332 20.9416Z" fill="url(#paint4_linear_430_43528)"/>
<path d="M35.8332 23.1833V31.7167C35.8396 31.9048 35.7822 32.0896 35.6702 32.2409C35.5582 32.3922 35.3983 32.5012 35.2165 32.55L25.2165 35.2833C25.0906 35.3173 24.9585 35.3213 24.8308 35.2949C24.7032 35.2686 24.5834 35.2126 24.4813 35.1315C24.3792 35.0505 24.2975 34.9466 24.2428 34.8282C24.1881 34.7099 24.162 34.5803 24.1665 34.45V26.3667L35.8332 23.1833Z" fill="url(#paint5_linear_430_43528)"/>
<path d="M25.834 27.6417L34.1673 25.3667V31.075L25.834 33.35V27.6417Z" fill="#F0F7FC"/>
<path d="M20.0003 25V28.3333L1.66699 23.3333V20L20.0003 25Z" fill="url(#paint6_linear_430_43528)"/>
<path d="M20.0003 28.3333V31.6666L1.66699 26.6666V23.3333L20.0003 28.3333Z" fill="url(#paint7_linear_430_43528)"/>
<path d="M23.3333 17.5001C23.1123 17.5001 22.9004 17.4123 22.7441 17.256C22.5878 17.0998 22.5 16.8878 22.5 16.6668C22.4986 15.2905 22.9583 13.9534 23.8056 12.8689C24.653 11.7844 25.8392 11.015 27.175 10.6835C29.625 10.0751 30.1417 8.69179 30.925 7.12512C31.0335 6.94483 31.2062 6.81225 31.4083 6.754C31.6105 6.69576 31.8273 6.71615 32.0151 6.81109C32.2028 6.90604 32.3477 7.0685 32.4207 7.26586C32.4936 7.46322 32.4892 7.68088 32.4083 7.87512L31.8417 9.00845C31.4245 9.84317 30.8241 10.5728 30.0852 11.1428C29.3464 11.7128 28.4883 12.1084 27.575 12.3001C26.6006 12.5423 25.7354 13.104 25.1176 13.8955C24.4998 14.687 24.165 15.6627 24.1667 16.6668C24.1667 16.8878 24.0789 17.0998 23.9226 17.256C23.7663 17.4123 23.5544 17.5001 23.3333 17.5001Z" fill="#D7E9F7"/>
<path d="M16.667 17.5C16.4459 17.5 16.234 17.4122 16.0777 17.256C15.9214 17.0997 15.8336 16.8877 15.8336 16.6667C15.8353 15.6626 15.5005 14.6869 14.8827 13.8954C14.2649 13.1039 13.3997 12.5422 12.4253 12.3C11.5116 12.1095 10.6529 11.7143 9.91394 11.1442C9.17493 10.5741 8.57479 9.84383 8.15862 9.00838L7.59195 7.87504C7.53287 7.77685 7.49468 7.66753 7.47975 7.55392C7.46483 7.4403 7.4735 7.32482 7.50522 7.2147C7.53695 7.10459 7.59104 7.0022 7.66412 6.91393C7.73721 6.82567 7.82771 6.75342 7.92997 6.70172C8.03224 6.65001 8.14407 6.61995 8.25848 6.61342C8.37289 6.60688 8.48741 6.62402 8.5949 6.66374C8.70239 6.70347 8.80053 6.76494 8.88318 6.84432C8.96584 6.92369 9.03124 7.01925 9.07529 7.12504C9.90862 8.74171 10.3836 10.0834 12.8253 10.6834C14.1611 11.0149 15.3473 11.7843 16.1947 12.8688C17.042 13.9533 17.5017 15.2904 17.5003 16.6667C17.5003 16.8877 17.4125 17.0997 17.2562 17.256C17.0999 17.4122 16.888 17.5 16.667 17.5Z" fill="#D7E9F7"/>
<path d="M7.4999 31.6667C6.30801 31.4526 5.12852 31.1744 3.96657 30.8334C3.74556 30.7804 3.55467 30.6417 3.43589 30.4479C3.31712 30.2541 3.28019 30.0211 3.33324 29.8001C3.38628 29.5791 3.52495 29.3882 3.71874 29.2694C3.91252 29.1506 4.14556 29.1137 4.36657 29.1667L7.6999 30.0001C7.92092 30.0266 8.12234 30.1398 8.25987 30.3149C8.3974 30.4899 8.45976 30.7124 8.43324 30.9334C8.40671 31.1544 8.29348 31.3558 8.11845 31.4934C7.94341 31.6309 7.72092 31.6933 7.4999 31.6667Z" fill="#D7E9F7"/>
<path d="M38.184 4.99998C38.284 3.83331 37.7757 2.38331 36.6507 2.37498C36.6507 1.25831 35.2173 0.70831 34.0257 0.841643C32.6507 0.95831 31.6007 1.79164 31.6757 2.70831C31.7507 3.62498 32.934 4.27498 34.309 4.16664C35.3173 4.08331 34.9507 3.71664 34.8673 4.72498C34.7507 6.09998 35.4007 7.28331 36.3173 7.35831C37.234 7.43331 38.0673 6.37498 38.184 4.99998Z" fill="#D7E9F7"/>
<path d="M36.5174 4.85342C37.4937 3.8771 37.7575 2.55801 37.1066 1.90714C36.4557 1.25626 35.1367 1.52008 34.1603 2.49639C33.184 3.4727 32.9202 4.7918 33.5711 5.44267C34.222 6.09355 35.5411 5.82973 36.5174 4.85342Z" fill="url(#paint8_linear_430_43528)"/>
<path d="M1.81702 5.00003C1.71702 3.83336 2.22535 2.38336 3.33369 2.37503C3.33369 1.25836 4.78369 0.741695 5.97535 0.833361C7.35035 0.950028 8.40035 1.78336 8.32535 2.70003C8.25035 3.61669 7.06702 4.27503 5.69202 4.16669C4.68369 4.08336 5.05035 3.71669 5.13369 4.72503C5.25035 6.10003 4.60035 7.28336 3.68369 7.35836C2.76702 7.43336 1.93369 6.37503 1.81702 5.00003Z" fill="#D7E9F7"/>
<path d="M6.41912 5.43905C7.07 4.78818 6.80618 3.46909 5.82987 2.49278C4.85356 1.51646 3.53446 1.25265 2.88359 1.90352C2.23272 2.55439 2.49653 3.87349 3.47285 4.8498C4.44916 5.82611 5.76825 6.08993 6.41912 5.43905Z" fill="url(#paint9_linear_430_43528)"/>
<defs>
<linearGradient id="paint0_linear_430_43528" x1="20" y1="16.6667" x2="38.3333" y2="16.6667" gradientUnits="userSpaceOnUse">
<stop stop-color="#54A5FF"/>
<stop offset="1" stop-color="#8AD3FE"/>
</linearGradient>
<linearGradient id="paint1_linear_430_43528" x1="10.8337" y1="20.8333" x2="10.8337" y2="12.5" gradientUnits="userSpaceOnUse">
<stop stop-color="#54A5FF"/>
<stop offset="1" stop-color="#8AD3FE"/>
</linearGradient>
<linearGradient id="paint2_linear_430_43528" x1="0.000325667" y1="39.1666" x2="20.0003" y2="15.8333" gradientUnits="userSpaceOnUse">
<stop stop-color="#54A5FF"/>
<stop offset="1" stop-color="#8AD3FE"/>
</linearGradient>
<linearGradient id="paint3_linear_430_43528" x1="10.8337" y1="39.1667" x2="10.8337" y2="26.6667" gradientUnits="userSpaceOnUse">
<stop stop-color="#D3E6F5"/>
<stop offset="1" stop-color="#F0F7FC"/>
</linearGradient>
<linearGradient id="paint4_linear_430_43528" x1="29.9998" y1="26.3666" x2="29.9998" y2="20.1083" gradientUnits="userSpaceOnUse">
<stop stop-color="#FE9661"/>
<stop offset="1" stop-color="#FFB369"/>
</linearGradient>
<linearGradient id="paint5_linear_430_43528" x1="29.9998" y1="35.275" x2="29.9998" y2="23.1833" gradientUnits="userSpaceOnUse">
<stop stop-color="#D3E6F5"/>
<stop offset="1" stop-color="#F0F7FC"/>
</linearGradient>
<linearGradient id="paint6_linear_430_43528" x1="0.000325433" y1="28.3333" x2="10.8337" y2="20" gradientUnits="userSpaceOnUse">
<stop stop-color="#D3E6F5"/>
<stop offset="1" stop-color="#F0F7FC"/>
</linearGradient>
<linearGradient id="paint7_linear_430_43528" x1="0.000325433" y1="31.6666" x2="10.8337" y2="23.3333" gradientUnits="userSpaceOnUse">
<stop stop-color="#D3E6F5"/>
<stop offset="1" stop-color="#F0F7FC"/>
</linearGradient>
<linearGradient id="paint8_linear_430_43528" x1="36.5233" y1="4.85931" x2="34.1662" y2="2.50229" gradientUnits="userSpaceOnUse">
<stop stop-color="#FE9661"/>
<stop offset="1" stop-color="#FFB369"/>
</linearGradient>
<linearGradient id="paint9_linear_430_43528" x1="3.47874" y1="4.85569" x2="5.83576" y2="2.49867" gradientUnits="userSpaceOnUse">
<stop stop-color="#FE9661"/>
<stop offset="1" stop-color="#FFB369"/>
</linearGradient>
</defs>
</svg>
