<svg width="40" height="34" viewBox="0 0 40 34" fill="none" xmlns="http://www.w3.org/2000/svg">
<path d="M0.833008 5.33325H30.833V28.6666C30.833 29.1086 30.6574 29.5325 30.3449 29.8451C30.0323 30.1577 29.6084 30.3333 29.1663 30.3333H2.49967C2.05765 30.3333 1.63372 30.1577 1.32116 29.8451C1.0086 29.5325 0.833008 29.1086 0.833008 28.6666V5.33325Z" fill="url(#paint0_linear_15_1941)"/>
<path d="M30.833 1.99992V5.33325H14.858C14.6381 5.33308 14.4203 5.37643 14.2172 5.46082C14.0141 5.5452 13.8297 5.66895 13.6747 5.82492L12.9913 6.50825C12.8363 6.66423 12.6519 6.78797 12.4488 6.87235C12.2457 6.95674 12.0279 7.00009 11.808 6.99992H0.833008V1.99992C0.833008 1.55789 1.0086 1.13397 1.32116 0.821407C1.63372 0.508847 2.05765 0.333252 2.49967 0.333252H29.1663C29.6084 0.333252 30.0323 0.508847 30.3449 0.821407C30.6574 1.13397 30.833 1.55789 30.833 1.99992Z" fill="url(#paint1_linear_15_1941)"/>
<path d="M10.8333 4.49992C11.2936 4.49992 11.6667 4.12682 11.6667 3.66659C11.6667 3.20635 11.2936 2.83325 10.8333 2.83325C10.3731 2.83325 10 3.20635 10 3.66659C10 4.12682 10.3731 4.49992 10.8333 4.49992Z" fill="#54A5FF"/>
<path d="M7.49935 4.49992C7.95959 4.49992 8.33268 4.12682 8.33268 3.66659C8.33268 3.20635 7.95959 2.83325 7.49935 2.83325C7.03911 2.83325 6.66602 3.20635 6.66602 3.66659C6.66602 4.12682 7.03911 4.49992 7.49935 4.49992Z" fill="#54A5FF"/>
<path d="M4.16634 4.49992C4.62658 4.49992 4.99967 4.12682 4.99967 3.66659C4.99967 3.20635 4.62658 2.83325 4.16634 2.83325C3.7061 2.83325 3.33301 3.20635 3.33301 3.66659C3.33301 4.12682 3.7061 4.49992 4.16634 4.49992Z" fill="#54A5FF"/>
<path d="M38.333 26.9998H33.333V6.1665C33.333 5.50346 33.5964 4.86758 34.0652 4.39874C34.5341 3.9299 35.17 3.6665 35.833 3.6665C36.496 3.6665 37.1319 3.9299 37.6008 4.39874C38.0696 4.86758 38.333 5.50346 38.333 6.1665V26.9998Z" fill="url(#paint2_linear_15_1941)"/>
<path d="M39.1667 27.8333C39.1667 26.9493 38.8155 26.1014 38.1904 25.4763C37.5652 24.8512 36.7174 24.5 35.8333 24.5C34.9493 24.5 34.1014 24.8512 33.4763 25.4763C32.8512 26.1014 32.5 26.9493 32.5 27.8333C32.5 29.675 35.8333 33.6667 35.8333 33.6667C35.8333 33.6667 39.1667 29.675 39.1667 27.8333Z" fill="url(#paint3_linear_15_1941)"/>
<path d="M38.333 8.6665H33.333V10.3332H38.333V8.6665Z" fill="#B4CDE1"/>
<path d="M26.666 10.3333H4.99935C4.53911 10.3333 4.16602 10.7063 4.16602 11.1666V26.9999C4.16602 27.4602 4.53911 27.8333 4.99935 27.8333H26.666C27.1263 27.8333 27.4993 27.4602 27.4993 26.9999V11.1666C27.4993 10.7063 27.1263 10.3333 26.666 10.3333Z" fill="url(#paint4_linear_15_1941)"/>
<path d="M4.16602 22H21.666V27.8333H4.99935C4.77834 27.8333 4.56637 27.7455 4.41009 27.5893C4.25381 27.433 4.16602 27.221 4.16602 27V22Z" fill="#8AD3FE"/>
<path d="M35.8333 22.8333C35.6123 22.8333 35.4004 22.7455 35.2441 22.5893C35.0878 22.433 35 22.221 35 22V20.3333C35 20.1123 35.0878 19.9004 35.2441 19.7441C35.4004 19.5878 35.6123 19.5 35.8333 19.5C36.0543 19.5 36.2663 19.5878 36.4226 19.7441C36.5789 19.9004 36.6667 20.1123 36.6667 20.3333V22C36.6667 22.221 36.5789 22.433 36.4226 22.5893C36.2663 22.7455 36.0543 22.8333 35.8333 22.8333Z" fill="#B4CDE1"/>
<path d="M11.3827 14.9581L15.8327 18.6665L21.866 12.6331C21.9473 12.553 22.0443 12.4904 22.1508 12.4493C22.2573 12.4081 22.3711 12.3893 22.4852 12.394C22.5993 12.3987 22.7112 12.4268 22.814 12.4765C22.9168 12.5263 23.0082 12.5966 23.0827 12.6831L27.4994 17.8331V21.9998H4.16602V20.3331L10.2993 14.9665C10.4493 14.8362 10.6408 14.7638 10.8395 14.7622C11.0381 14.7607 11.2307 14.8302 11.3827 14.9581V14.9581Z" fill="url(#paint5_linear_15_1941)"/>
<path d="M19.9997 22C19.1739 22.9429 18.179 23.723 17.0663 24.3C15.717 24.9796 14.5681 25.9993 13.733 27.2583L13.333 27.8333H26.6663C26.8874 27.8333 27.0993 27.7455 27.2556 27.5893C27.4119 27.433 27.4997 27.221 27.4997 27V22H19.9997Z" fill="url(#paint6_linear_15_1941)"/>
<path d="M7.49967 25.3332H6.66634C6.44533 25.3332 6.23337 25.2454 6.07709 25.0891C5.92081 24.9328 5.83301 24.7209 5.83301 24.4998C5.83301 24.2788 5.92081 24.0669 6.07709 23.9106C6.23337 23.7543 6.44533 23.6665 6.66634 23.6665H7.49967C7.72069 23.6665 7.93265 23.7543 8.08893 23.9106C8.24521 24.0669 8.33301 24.2788 8.33301 24.4998C8.33301 24.7209 8.24521 24.9328 8.08893 25.0891C7.93265 25.2454 7.72069 25.3332 7.49967 25.3332Z" fill="#54A5FF"/>
<path d="M12.4997 26.1667H11.6663C11.4453 26.1667 11.2334 26.0789 11.0771 25.9226C10.9208 25.7663 10.833 25.5543 10.833 25.3333C10.833 25.1123 10.9208 24.9004 11.0771 24.7441C11.2334 24.5878 11.4453 24.5 11.6663 24.5H12.4997C12.7207 24.5 12.9326 24.5878 13.0889 24.7441C13.2452 24.9004 13.333 25.1123 13.333 25.3333C13.333 25.5543 13.2452 25.7663 13.0889 25.9226C12.9326 26.0789 12.7207 26.1667 12.4997 26.1667Z" fill="#54A5FF"/>
<path d="M15.8327 15.3333C16.7532 15.3333 17.4993 14.5871 17.4993 13.6667C17.4993 12.7462 16.7532 12 15.8327 12C14.9122 12 14.166 12.7462 14.166 13.6667C14.166 14.5871 14.9122 15.3333 15.8327 15.3333Z" fill="#FFB369"/>
<defs>
<linearGradient id="paint0_linear_15_1941" x1="15.833" y1="30.3333" x2="15.833" y2="5.33325" gradientUnits="userSpaceOnUse">
<stop stop-color="#54A5FF"/>
<stop offset="1" stop-color="#8AD3FE"/>
</linearGradient>
<linearGradient id="paint1_linear_15_1941" x1="15.833" y1="6.99992" x2="15.833" y2="0.333252" gradientUnits="userSpaceOnUse">
<stop stop-color="#D3E6F5"/>
<stop offset="1" stop-color="#F0F7FC"/>
</linearGradient>
<linearGradient id="paint2_linear_15_1941" x1="35.833" y1="26.9998" x2="35.833" y2="3.6665" gradientUnits="userSpaceOnUse">
<stop stop-color="#D3E6F5"/>
<stop offset="1" stop-color="#F0F7FC"/>
</linearGradient>
<linearGradient id="paint3_linear_15_1941" x1="35.8333" y1="33.6667" x2="35.8333" y2="24.5" gradientUnits="userSpaceOnUse">
<stop stop-color="#FE9661"/>
<stop offset="1" stop-color="#FFB369"/>
</linearGradient>
<linearGradient id="paint4_linear_15_1941" x1="4.16602" y1="19.0833" x2="27.4993" y2="19.0833" gradientUnits="userSpaceOnUse">
<stop stop-color="#D3E6F5"/>
<stop offset="1" stop-color="#F0F7FC"/>
</linearGradient>
<linearGradient id="paint5_linear_15_1941" x1="15.8327" y1="21.9998" x2="15.8327" y2="12.3915" gradientUnits="userSpaceOnUse">
<stop stop-color="#FE9661"/>
<stop offset="1" stop-color="#FFB369"/>
</linearGradient>
<linearGradient id="paint6_linear_15_1941" x1="20.4163" y1="27.8333" x2="20.4163" y2="22" gradientUnits="userSpaceOnUse">
<stop stop-color="#FE9661"/>
<stop offset="1" stop-color="#FFB369"/>
</linearGradient>
</defs>
</svg>
