<svg width="40" height="40" viewBox="0 0 40 40" fill="none" xmlns="http://www.w3.org/2000/svg">
<path d="M30.8333 30.8335H9.16659C8.70635 30.8335 8.33325 31.2066 8.33325 31.6668V38.3335C8.33325 38.7937 8.70635 39.1668 9.16659 39.1668H30.8333C31.2935 39.1668 31.6666 38.7937 31.6666 38.3335V31.6668C31.6666 31.2066 31.2935 30.8335 30.8333 30.8335Z" fill="url(#paint0_linear_429_21192)"/>
<path d="M27.5001 34.1667H12.5001C12.2791 34.1667 12.0671 34.0789 11.9108 33.9226C11.7545 33.7663 11.6667 33.5543 11.6667 33.3333C11.6667 33.1123 11.7545 32.9004 11.9108 32.7441C12.0671 32.5878 12.2791 32.5 12.5001 32.5H27.5001C27.7211 32.5 27.9331 32.5878 28.0893 32.7441C28.2456 32.9004 28.3334 33.1123 28.3334 33.3333C28.3334 33.5543 28.2456 33.7663 28.0893 33.9226C27.9331 34.0789 27.7211 34.1667 27.5001 34.1667Z" fill="#F0F7FC"/>
<path d="M24.1667 37.5002H15.8333C15.6123 37.5002 15.4004 37.4124 15.2441 37.2561C15.0878 37.0998 15 36.8878 15 36.6668C15 36.4458 15.0878 36.2339 15.2441 36.0776C15.4004 35.9213 15.6123 35.8335 15.8333 35.8335H24.1667C24.3877 35.8335 24.5996 35.9213 24.7559 36.0776C24.9122 36.2339 25 36.4458 25 36.6668C25 36.8878 24.9122 37.0998 24.7559 37.2561C24.5996 37.4124 24.3877 37.5002 24.1667 37.5002Z" fill="#F0F7FC"/>
<path d="M31.6666 8.33317V26.6665C31.6665 26.9162 31.6102 27.1626 31.5021 27.3876C31.3939 27.6126 31.2365 27.8105 31.0416 27.9665L27.5 30.8332H12.5L8.95832 27.9998C8.75897 27.8403 8.59894 27.6371 8.49058 27.4059C8.38221 27.1748 8.32841 26.9218 8.33332 26.6665V8.33317C8.33332 7.89114 8.50891 7.46722 8.82147 7.15466C9.13403 6.8421 9.55796 6.6665 9.99998 6.6665H30C30.442 6.6665 30.8659 6.8421 31.1785 7.15466C31.4911 7.46722 31.6666 7.89114 31.6666 8.33317Z" fill="url(#paint1_linear_429_21192)"/>
<path d="M27.5001 13.3335H12.5001C12.0398 13.3335 11.6667 13.7066 11.6667 14.1668V15.8335C11.6667 16.2937 12.0398 16.6668 12.5001 16.6668H27.5001C27.9603 16.6668 28.3334 16.2937 28.3334 15.8335V14.1668C28.3334 13.7066 27.9603 13.3335 27.5001 13.3335Z" fill="#B4CDE1"/>
<path d="M27.5001 19.1665H12.5001C12.0398 19.1665 11.6667 19.5396 11.6667 19.9998V21.6665C11.6667 22.1267 12.0398 22.4998 12.5001 22.4998H27.5001C27.9603 22.4998 28.3334 22.1267 28.3334 21.6665V19.9998C28.3334 19.5396 27.9603 19.1665 27.5001 19.1665Z" fill="#B4CDE1"/>
<path d="M25.0001 26.6667H15.0001C14.7791 26.6667 14.5671 26.5789 14.4108 26.4226C14.2545 26.2663 14.1667 26.0543 14.1667 25.8333C14.1667 25.6123 14.2545 25.4004 14.4108 25.2441C14.5671 25.0878 14.7791 25 15.0001 25H25.0001C25.2211 25 25.4331 25.0878 25.5893 25.2441C25.7456 25.4004 25.8334 25.6123 25.8334 25.8333C25.8334 26.0543 25.7456 26.2663 25.5893 26.4226C25.4331 26.5789 25.2211 26.6667 25.0001 26.6667Z" fill="#B4CDE1"/>
<path d="M21.5416 4.84998L19.3999 6.93331L19.9083 9.89165C19.9179 9.94988 19.9148 10.0095 19.8992 10.0664C19.8836 10.1233 19.8558 10.1762 19.8178 10.2213C19.7797 10.2665 19.7324 10.3029 19.6789 10.3279C19.6255 10.353 19.5673 10.3662 19.5083 10.3666C19.3749 10.3666 19.5666 10.45 16.6666 8.92498L14.0083 10.3166C13.9418 10.3525 13.8666 10.3689 13.7913 10.3638C13.716 10.3587 13.6437 10.3324 13.5827 10.288C13.5217 10.2435 13.4745 10.1827 13.4466 10.1126C13.4186 10.0425 13.4112 9.96586 13.4249 9.89165L13.9333 6.93331L11.7916 4.84998C11.7379 4.79825 11.6998 4.73256 11.6815 4.66031C11.6631 4.58806 11.6654 4.51213 11.6879 4.44108C11.7104 4.37003 11.7524 4.30669 11.809 4.2582C11.8656 4.20971 11.9346 4.178 12.0083 4.16665L14.9999 3.72498L16.3249 1.04165C16.3624 0.977688 16.416 0.924648 16.4803 0.887791C16.5446 0.850934 16.6175 0.831543 16.6916 0.831543C16.7657 0.831543 16.8386 0.850934 16.9029 0.887791C16.9672 0.924648 17.0208 0.977688 17.0583 1.04165L18.3333 3.72498L21.3249 4.16665C21.3986 4.178 21.4676 4.20971 21.5242 4.2582C21.5808 4.30669 21.6228 4.37003 21.6453 4.44108C21.6678 4.51213 21.6701 4.58806 21.6517 4.66031C21.6334 4.73256 21.5953 4.79825 21.5416 4.84998Z" fill="url(#paint2_linear_429_21192)"/>
<defs>
<linearGradient id="paint0_linear_429_21192" x1="19.9999" y1="39.1668" x2="19.9999" y2="30.8335" gradientUnits="userSpaceOnUse">
<stop stop-color="#54A5FF"/>
<stop offset="1" stop-color="#8AD3FE"/>
</linearGradient>
<linearGradient id="paint1_linear_429_21192" x1="20" y1="30.8332" x2="20" y2="6.6665" gradientUnits="userSpaceOnUse">
<stop stop-color="#D3E6F5"/>
<stop offset="1" stop-color="#F0F7FC"/>
</linearGradient>
<linearGradient id="paint2_linear_429_21192" x1="11.6666" y1="5.59998" x2="21.6666" y2="5.59998" gradientUnits="userSpaceOnUse">
<stop stop-color="#FE9661"/>
<stop offset="1" stop-color="#FFB369"/>
</linearGradient>
</defs>
</svg>
