<svg width="40" height="40" viewBox="0 0 40 40" fill="none" xmlns="http://www.w3.org/2000/svg">
<path d="M27.5001 0.833252H7.50008C5.65913 0.833252 4.16675 2.32564 4.16675 4.16659V32.4999C4.16675 34.3409 5.65913 35.8333 7.50008 35.8333H27.5001C29.341 35.8333 30.8334 34.3409 30.8334 32.4999V4.16659C30.8334 2.32564 29.341 0.833252 27.5001 0.833252Z" fill="url(#paint0_linear_401_20397)"/>
<path d="M27.5001 3.33325H7.50008C7.03984 3.33325 6.66675 3.70635 6.66675 4.16659V32.4999C6.66675 32.9602 7.03984 33.3332 7.50008 33.3332H27.5001C27.9603 33.3332 28.3334 32.9602 28.3334 32.4999V4.16659C28.3334 3.70635 27.9603 3.33325 27.5001 3.33325Z" fill="#F0F7FC"/>
<path d="M13.3334 19.9999H10.0001C9.77907 19.9999 9.56711 19.9121 9.41083 19.7558C9.25455 19.5996 9.16675 19.3876 9.16675 19.1666C9.16675 18.9456 9.25455 18.7336 9.41083 18.5773C9.56711 18.421 9.77907 18.3333 10.0001 18.3333H13.3334C13.5544 18.3333 13.7664 18.421 13.9227 18.5773C14.079 18.7336 14.1667 18.9456 14.1667 19.1666C14.1667 19.3876 14.079 19.5996 13.9227 19.7558C13.7664 19.9121 13.5544 19.9999 13.3334 19.9999Z" fill="#D7E9F7"/>
<path d="M25.0002 19.9999H16.6668C16.4458 19.9999 16.2339 19.9121 16.0776 19.7558C15.9213 19.5996 15.8335 19.3876 15.8335 19.1666C15.8335 18.9456 15.9213 18.7336 16.0776 18.5773C16.2339 18.421 16.4458 18.3333 16.6668 18.3333H25.0002C25.2212 18.3333 25.4331 18.421 25.5894 18.5773C25.7457 18.7336 25.8335 18.9456 25.8335 19.1666C25.8335 19.3876 25.7457 19.5996 25.5894 19.7558C25.4331 19.9121 25.2212 19.9999 25.0002 19.9999Z" fill="#D7E9F7"/>
<path d="M13.3334 24.1667H10.0001C9.77907 24.1667 9.56711 24.0789 9.41083 23.9226C9.25455 23.7663 9.16675 23.5543 9.16675 23.3333C9.16675 23.1123 9.25455 22.9004 9.41083 22.7441C9.56711 22.5878 9.77907 22.5 10.0001 22.5H13.3334C13.5544 22.5 13.7664 22.5878 13.9227 22.7441C14.079 22.9004 14.1667 23.1123 14.1667 23.3333C14.1667 23.5543 14.079 23.7663 13.9227 23.9226C13.7664 24.0789 13.5544 24.1667 13.3334 24.1667Z" fill="#D7E9F7"/>
<path d="M25.0002 24.1667H16.6668C16.4458 24.1667 16.2339 24.0789 16.0776 23.9226C15.9213 23.7663 15.8335 23.5543 15.8335 23.3333C15.8335 23.1123 15.9213 22.9004 16.0776 22.7441C16.2339 22.5878 16.4458 22.5 16.6668 22.5H25.0002C25.2212 22.5 25.4331 22.5878 25.5894 22.7441C25.7457 22.9004 25.8335 23.1123 25.8335 23.3333C25.8335 23.5543 25.7457 23.7663 25.5894 23.9226C25.4331 24.0789 25.2212 24.1667 25.0002 24.1667Z" fill="#D7E9F7"/>
<path d="M33.3333 39.1666L29.1667 37.4999L25 39.1666V33.3333H33.3333V39.1666Z" fill="url(#paint1_linear_401_20397)"/>
<path d="M29.1667 34.9998C32.8486 34.9998 35.8333 32.0151 35.8333 28.3332C35.8333 24.6513 32.8486 21.6665 29.1667 21.6665C25.4848 21.6665 22.5 24.6513 22.5 28.3332C22.5 32.0151 25.4848 34.9998 29.1667 34.9998Z" fill="url(#paint2_linear_401_20397)"/>
<path d="M29.1667 33.3333C31.9282 33.3333 34.1667 31.0947 34.1667 28.3333C34.1667 25.5718 31.9282 23.3333 29.1667 23.3333C26.4053 23.3333 24.1667 25.5718 24.1667 28.3333C24.1667 31.0947 26.4053 33.3333 29.1667 33.3333Z" fill="#EB7F58"/>
<path d="M10.0002 30.8333C9.85011 30.8325 9.70304 30.7912 9.57449 30.7138C9.44594 30.6364 9.34068 30.5257 9.26984 30.3934C9.199 30.2611 9.16519 30.1121 9.172 29.9622C9.17881 29.8123 9.22597 29.667 9.30851 29.5416L10.9752 27.0416C11.0514 26.9282 11.1544 26.8352 11.275 26.771C11.3956 26.7067 11.5302 26.6731 11.6668 26.6731C11.8035 26.6731 11.9381 26.7067 12.0587 26.771C12.1793 26.8352 12.2823 26.9282 12.3585 27.0416L13.4668 28.7083L14.4085 27.7583C14.486 27.6802 14.5781 27.6182 14.6797 27.5759C14.7812 27.5336 14.8902 27.5118 15.0002 27.5118C15.1102 27.5118 15.2191 27.5336 15.3207 27.5759C15.4222 27.6182 15.5144 27.6802 15.5918 27.7583L17.0085 29.1666H18.3335C18.5545 29.1666 18.7665 29.2544 18.9228 29.4107C19.079 29.567 19.1668 29.7789 19.1668 30C19.1668 30.221 19.079 30.4329 18.9228 30.5892C18.7665 30.7455 18.5545 30.8333 18.3335 30.8333H16.6668C16.2085 30.8333 16.1002 30.6166 15.0002 29.5083L13.9252 30.5916C13.8376 30.6786 13.7317 30.7451 13.6153 30.7861C13.4988 30.8272 13.3747 30.8419 13.2519 30.8291C13.1291 30.8164 13.0107 30.7765 12.9052 30.7124C12.7996 30.6482 12.7097 30.5614 12.6418 30.4583L11.6668 29L10.6918 30.4583C10.6164 30.5729 10.5137 30.6671 10.3931 30.7326C10.2724 30.798 10.1374 30.8326 10.0002 30.8333Z" fill="#B4CDE1"/>
<path d="M29.1667 30.8332C28.7167 30.8332 28.6917 30.7082 26.9084 28.9248C26.7515 28.7679 26.6633 28.5551 26.6633 28.3332C26.6633 28.1112 26.7515 27.8984 26.9084 27.7415C27.0653 27.5846 27.2782 27.4964 27.5001 27.4964C27.722 27.4964 27.9348 27.5846 28.0917 27.7415L29.1667 28.8248L31.0751 26.9082C31.232 26.7512 31.4448 26.6631 31.6667 26.6631C31.8887 26.6631 32.1015 26.7512 32.2584 26.9082C32.4153 27.0651 32.5035 27.2779 32.5035 27.4998C32.5035 27.7217 32.4153 27.9346 32.2584 28.0915L29.7584 30.5915C29.6805 30.6687 29.5882 30.7298 29.4867 30.7713C29.3851 30.8128 29.2764 30.8338 29.1667 30.8332Z" fill="#F0F7FC"/>
<path d="M22.375 9.99995L20.2333 12.0916L20.7416 14.9999C20.7513 15.0582 20.7482 15.1178 20.7326 15.1747C20.7169 15.2316 20.6892 15.2845 20.6511 15.3296C20.6131 15.3748 20.5658 15.4112 20.5123 15.4362C20.4589 15.4613 20.4007 15.4745 20.3416 15.4749C20.2083 15.4749 20.4 15.5583 17.5 14.0333L14.8416 15.4249C14.7752 15.4608 14.7 15.4772 14.6247 15.4721C14.5494 15.467 14.4771 15.4407 14.416 15.3963C14.355 15.3518 14.3079 15.291 14.2799 15.2209C14.252 15.1508 14.2445 15.0742 14.2583 14.9999L14.7666 12.0499L12.625 9.99995C12.5688 9.9486 12.5285 9.88231 12.5087 9.80883C12.4889 9.73536 12.4904 9.65777 12.5132 9.58515C12.5359 9.51254 12.5789 9.44792 12.6371 9.39888C12.6953 9.34983 12.7662 9.31841 12.8416 9.30828L15.8333 8.85828L17.1583 6.17495C17.1958 6.11099 17.2494 6.05795 17.3137 6.02109C17.378 5.98423 17.4508 5.96484 17.525 5.96484C17.5991 5.96484 17.672 5.98423 17.7363 6.02109C17.8006 6.05795 17.8542 6.11099 17.8916 6.17495L19.1666 8.85828L22.1333 9.29161C22.2145 9.29423 22.293 9.32154 22.3584 9.36988C22.4237 9.41823 22.4727 9.48533 22.499 9.56225C22.5252 9.63916 22.5274 9.72225 22.5053 9.80044C22.4831 9.87864 22.4377 9.94823 22.375 9.99995V9.99995Z" fill="url(#paint3_linear_401_20397)"/>
<defs>
<linearGradient id="paint0_linear_401_20397" x1="17.5001" y1="35.8333" x2="17.5001" y2="0.833252" gradientUnits="userSpaceOnUse">
<stop stop-color="#54A5FF"/>
<stop offset="1" stop-color="#8AD3FE"/>
</linearGradient>
<linearGradient id="paint1_linear_401_20397" x1="29.1667" y1="33.3333" x2="29.1667" y2="39.1666" gradientUnits="userSpaceOnUse">
<stop stop-color="#D3E6F5"/>
<stop offset="1" stop-color="#F0F7FC"/>
</linearGradient>
<linearGradient id="paint2_linear_401_20397" x1="22.5" y1="28.3332" x2="35.8333" y2="28.3332" gradientUnits="userSpaceOnUse">
<stop stop-color="#FE9661"/>
<stop offset="1" stop-color="#FFB369"/>
</linearGradient>
<linearGradient id="paint3_linear_401_20397" x1="12.5" y1="10.7333" x2="22.5" y2="10.7333" gradientUnits="userSpaceOnUse">
<stop stop-color="#FE9661"/>
<stop offset="1" stop-color="#FFB369"/>
</linearGradient>
</defs>
</svg>
