<svg width="40" height="40" viewBox="0 0 40 40" fill="none" xmlns="http://www.w3.org/2000/svg">
<g clip-path="url(#clip0_430_26822)">
<path d="M20 35C17.0333 35 14.1332 34.1203 11.6665 32.4721C9.19972 30.8238 7.27713 28.4811 6.14181 25.7403C5.0065 22.9994 4.70945 19.9834 5.28823 17.0737C5.86701 14.1639 7.29562 11.4912 9.3934 9.3934C11.4912 7.29562 14.1639 5.86701 17.0737 5.28823C19.9834 4.70945 22.9994 5.0065 25.7403 6.14181C28.4811 7.27713 30.8238 9.19972 32.4721 11.6665C34.1203 14.1332 35 17.0333 35 20C35 23.9783 33.4197 27.7936 30.6066 30.6066C27.7936 33.4197 23.9783 35 20 35ZM20 6.66667C17.3629 6.66667 14.7851 7.44866 12.5924 8.91375C10.3997 10.3788 8.69078 12.4612 7.68161 14.8976C6.67245 17.3339 6.4084 20.0148 6.92287 22.6012C7.43734 25.1876 8.70722 27.5634 10.5719 29.4281C12.4366 31.2928 14.8124 32.5627 17.3988 33.0771C19.9852 33.5916 22.6661 33.3276 25.1025 32.3184C27.5388 31.3092 29.6212 29.6003 31.0863 27.4076C32.5514 25.215 33.3333 22.6371 33.3333 20C33.3333 16.4638 31.9286 13.0724 29.4281 10.5719C26.9276 8.07143 23.5362 6.66667 20 6.66667Z" fill="#8AD3FE"/>
<path d="M19.9999 14.1668C23.6818 14.1668 26.6666 11.1821 26.6666 7.50016C26.6666 3.81826 23.6818 0.833496 19.9999 0.833496C16.318 0.833496 13.3333 3.81826 13.3333 7.50016C13.3333 11.1821 16.318 14.1668 19.9999 14.1668Z" fill="#D7E9F7"/>
<path d="M7.49992 26.6668C11.1818 26.6668 14.1666 23.6821 14.1666 20.0002C14.1666 16.3183 11.1818 13.3335 7.49992 13.3335C3.81802 13.3335 0.833252 16.3183 0.833252 20.0002C0.833252 23.6821 3.81802 26.6668 7.49992 26.6668Z" fill="#D7E9F7"/>
<path d="M32.4999 26.6668C36.1818 26.6668 39.1666 23.6821 39.1666 20.0002C39.1666 16.3183 36.1818 13.3335 32.4999 13.3335C28.818 13.3335 25.8333 16.3183 25.8333 20.0002C25.8333 23.6821 28.818 26.6668 32.4999 26.6668Z" fill="#D7E9F7"/>
<path d="M32.4998 15.8335C31.6158 15.8335 30.7679 16.1847 30.1428 16.8098C29.5177 17.4349 29.1665 18.2828 29.1665 19.1668V25.0002H35.8332V19.1668C35.8332 18.2828 35.482 17.4349 34.8569 16.8098C34.2317 16.1847 33.3839 15.8335 32.4998 15.8335Z" fill="#4795EA"/>
<path d="M35.4083 23.0168C32.9083 22.4001 33.7416 22.5001 31.6666 22.5001L29.5916 23.0168C29.2318 23.1077 28.9126 23.3161 28.6847 23.609C28.4568 23.9018 28.3331 24.2624 28.3333 24.6335V25.2001C29.5157 26.1468 30.9852 26.6626 32.4999 26.6626C34.0146 26.6626 35.4842 26.1468 36.6666 25.2001V24.6335C36.6668 24.2624 36.5431 23.9018 36.3151 23.609C36.0872 23.3161 35.768 23.1077 35.4083 23.0168Z" fill="url(#paint0_linear_430_26822)"/>
<path d="M32.4998 24.1667C32.2788 24.1667 32.0669 24.0789 31.9106 23.9226C31.7543 23.7663 31.6665 23.5543 31.6665 23.3333V22.5H33.3332V23.3333C33.3332 23.5543 33.2454 23.7663 33.0891 23.9226C32.9328 24.0789 32.7209 24.1667 32.4998 24.1667Z" fill="#B4CDE1"/>
<path d="M34.1667 22.5V25L32.5 24.1667L33.3333 22.5H34.1667Z" fill="#EB7F58"/>
<path d="M30.8333 22.5V25L32.4999 24.1667L31.6666 22.5H30.8333Z" fill="#EB7F58"/>
<path d="M32.5 23.3337C31.837 23.3337 31.2011 23.0703 30.7322 22.6014C30.2634 22.1326 30 21.4967 30 20.8337V19.167H31.0667C31.4602 19.1655 31.8485 19.2568 32.2 19.4337C32.5511 19.6122 32.9394 19.7053 33.3333 19.7053C33.7272 19.7053 34.1156 19.6122 34.4667 19.4337L35 19.167V20.8337C35 21.4967 34.7366 22.1326 34.2678 22.6014C33.7989 23.0703 33.163 23.3337 32.5 23.3337Z" fill="url(#paint1_linear_430_26822)"/>
<path d="M6.66667 15.8335H8.33333C8.77536 15.8335 9.19928 16.0091 9.51184 16.3217C9.8244 16.6342 10 17.0581 10 17.5002V19.1668H5V17.5002C5 17.0581 5.17559 16.6342 5.48816 16.3217C5.80072 16.0091 6.22464 15.8335 6.66667 15.8335Z" fill="#4795EA"/>
<path d="M11.6666 23.8V25.2C10.4842 26.1467 9.01462 26.6625 7.49992 26.6625C5.98522 26.6625 4.51567 26.1467 3.33325 25.2V23.8C3.33308 23.4289 3.45676 23.0683 3.6847 22.7755C3.91264 22.4826 4.23179 22.2742 4.59159 22.1833L6.66659 21.6666C8.76659 21.6666 7.91658 21.5666 10.4083 22.1833C10.768 22.2742 11.0872 22.4826 11.3151 22.7755C11.5431 23.0683 11.6668 23.4289 11.6666 23.8Z" fill="url(#paint2_linear_430_26822)"/>
<path d="M7.49984 23.3337C7.27882 23.3337 7.06686 23.2459 6.91058 23.0896C6.7543 22.9333 6.6665 22.7213 6.6665 22.5003V21.667H8.33317V22.5003C8.33317 22.7213 8.24537 22.9333 8.08909 23.0896C7.93281 23.2459 7.72085 23.3337 7.49984 23.3337Z" fill="#B4CDE1"/>
<path d="M9.16667 21.667V24.167L7.5 23.3337L8.33333 21.667H9.16667Z" fill="#EB7F58"/>
<path d="M5.83325 21.667V24.167L7.49992 23.3337L6.66659 21.667H5.83325Z" fill="#EB7F58"/>
<path d="M7.5 22.5002C6.83696 22.5002 6.20107 22.2368 5.73223 21.7679C5.26339 21.2991 5 20.6632 5 20.0002V18.3335H6.06667C6.46017 18.332 6.84847 18.4233 7.2 18.6002C7.5511 18.7788 7.93943 18.8718 8.33333 18.8718C8.72724 18.8718 9.11556 18.7788 9.46667 18.6002L10 18.3335V20.0002C10 20.6632 9.73661 21.2991 9.26777 21.7679C8.79893 22.2368 8.16304 22.5002 7.5 22.5002Z" fill="url(#paint3_linear_430_26822)"/>
<path d="M19.1667 3.3335H23.3333V5.8335C23.3333 6.05451 23.2455 6.26647 23.0893 6.42275C22.933 6.57903 22.721 6.66683 22.5 6.66683H17.5V5.00016C17.5 4.55814 17.6756 4.13421 17.9882 3.82165C18.3007 3.50909 18.7246 3.3335 19.1667 3.3335Z" fill="#4795EA"/>
<path d="M24.1666 12.1335V12.7001C22.9842 13.6468 21.5146 14.1626 19.9999 14.1626C18.4852 14.1626 17.0157 13.6468 15.8333 12.7001V12.1335C15.8331 11.7624 15.9568 11.4018 16.1847 11.109C16.4126 10.8161 16.7318 10.6077 17.0916 10.5168L19.1666 10.0001C21.2666 10.0001 20.4166 9.90014 22.9083 10.5168C23.268 10.6077 23.5872 10.8161 23.8151 11.109C24.0431 11.4018 24.1668 11.7624 24.1666 12.1335Z" fill="url(#paint4_linear_430_26822)"/>
<path d="M19.9998 11.6667C19.7788 11.6667 19.5669 11.5789 19.4106 11.4226C19.2543 11.2663 19.1665 11.0543 19.1665 10.8333V10H20.8332V10.8333C20.8332 11.0543 20.7454 11.2663 20.5891 11.4226C20.4328 11.5789 20.2209 11.6667 19.9998 11.6667Z" fill="#B4CDE1"/>
<path d="M21.6667 10V12.5L20 11.6667L20.8333 10H21.6667Z" fill="#EB7F58"/>
<path d="M18.3333 10V12.5L19.9999 11.6667L19.1666 10H18.3333Z" fill="#EB7F58"/>
<path d="M20 10.8337C19.337 10.8337 18.7011 10.5703 18.2322 10.1014C17.7634 9.63259 17.5 8.9967 17.5 8.33366V6.66699H22.5V8.33366C22.5 8.9967 22.2366 9.63259 21.7678 10.1014C21.2989 10.5703 20.663 10.8337 20 10.8337Z" fill="url(#paint5_linear_430_26822)"/>
<path d="M19.9999 39.1668C23.6818 39.1668 26.6666 36.1821 26.6666 32.5002C26.6666 28.8183 23.6818 25.8335 19.9999 25.8335C16.318 25.8335 13.3333 28.8183 13.3333 32.5002C13.3333 36.1821 16.318 39.1668 19.9999 39.1668Z" fill="#D7E9F7"/>
<path d="M19.9998 28.3335C19.1158 28.3335 18.2679 28.6847 17.6428 29.3098C17.0177 29.9349 16.6665 30.7828 16.6665 31.6668V34.1668H23.3332V31.6668C23.3332 30.7828 22.982 29.9349 22.3569 29.3098C21.7317 28.6847 20.8839 28.3335 19.9998 28.3335Z" fill="#4795EA"/>
<path d="M22.9083 35.5168C20.4083 34.9001 21.2416 35.0001 19.1666 35.0001L17.0916 35.5168C16.7318 35.6077 16.4126 35.8161 16.1847 36.109C15.9568 36.4018 15.8331 36.7624 15.8333 37.1335V37.7001C17.0157 38.6468 18.4852 39.1626 19.9999 39.1626C21.5146 39.1626 22.9842 38.6468 24.1666 37.7001V37.1335C24.1668 36.7624 24.0431 36.4018 23.8151 36.109C23.5872 35.8161 23.268 35.6077 22.9083 35.5168Z" fill="url(#paint6_linear_430_26822)"/>
<path d="M19.9998 36.6667C19.7788 36.6667 19.5669 36.5789 19.4106 36.4226C19.2543 36.2663 19.1665 36.0543 19.1665 35.8333V35H20.8332V35.8333C20.8332 36.0543 20.7454 36.2663 20.5891 36.4226C20.4328 36.5789 20.2209 36.6667 19.9998 36.6667Z" fill="#B4CDE1"/>
<path d="M21.6667 35V37.5L20 36.6667L20.8333 35H21.6667Z" fill="#EB7F58"/>
<path d="M18.3333 35V37.5L19.9999 36.6667L19.1666 35H18.3333Z" fill="#EB7F58"/>
<path d="M20 35.8337C19.337 35.8337 18.7011 35.5703 18.2322 35.1014C17.7634 34.6326 17.5 33.9967 17.5 33.3337V31.667L18.425 32.1253C18.9138 32.3708 19.453 32.4992 20 32.5003C20.8919 32.4464 21.7541 32.159 22.5 31.667V33.3337C22.5 33.9967 22.2366 34.6326 21.7678 35.1014C21.2989 35.5703 20.663 35.8337 20 35.8337Z" fill="url(#paint7_linear_430_26822)"/>
<path d="M23.3333 19.1668H20.8333V16.6668C20.8333 16.4458 20.7455 16.2339 20.5892 16.0776C20.4329 15.9213 20.2209 15.8335 19.9999 15.8335C19.7789 15.8335 19.5669 15.9213 19.4107 16.0776C19.2544 16.2339 19.1666 16.4458 19.1666 16.6668V19.1668H16.6666C16.4456 19.1668 16.2336 19.2546 16.0773 19.4109C15.921 19.5672 15.8333 19.7791 15.8333 20.0002C15.8333 20.2212 15.921 20.4331 16.0773 20.5894C16.2336 20.7457 16.4456 20.8335 16.6666 20.8335H19.1666V23.3335C19.1666 23.5545 19.2544 23.7665 19.4107 23.9228C19.5669 24.079 19.7789 24.1668 19.9999 24.1668C20.2209 24.1668 20.4329 24.079 20.5892 23.9228C20.7455 23.7665 20.8333 23.5545 20.8333 23.3335V20.8335H23.3333C23.5543 20.8335 23.7662 20.7457 23.9225 20.5894C24.0788 20.4331 24.1666 20.2212 24.1666 20.0002C24.1666 19.7791 24.0788 19.5672 23.9225 19.4109C23.7662 19.2546 23.5543 19.1668 23.3333 19.1668Z" fill="#FFB369"/>
</g>
<defs>
<linearGradient id="paint0_linear_430_26822" x1="32.4999" y1="26.6668" x2="32.4999" y2="22.4918" gradientUnits="userSpaceOnUse">
<stop stop-color="#FE9661"/>
<stop offset="1" stop-color="#FFB369"/>
</linearGradient>
<linearGradient id="paint1_linear_430_26822" x1="30" y1="21.2503" x2="35" y2="21.2503" gradientUnits="userSpaceOnUse">
<stop stop-color="#D3E6F5"/>
<stop offset="1" stop-color="#F0F7FC"/>
</linearGradient>
<linearGradient id="paint2_linear_430_26822" x1="7.49992" y1="26.6666" x2="7.49992" y2="21.6583" gradientUnits="userSpaceOnUse">
<stop stop-color="#FE9661"/>
<stop offset="1" stop-color="#FFB369"/>
</linearGradient>
<linearGradient id="paint3_linear_430_26822" x1="7.5" y1="22.5002" x2="7.5" y2="18.3335" gradientUnits="userSpaceOnUse">
<stop stop-color="#D3E6F5"/>
<stop offset="1" stop-color="#F0F7FC"/>
</linearGradient>
<linearGradient id="paint4_linear_430_26822" x1="19.9999" y1="14.1668" x2="19.9999" y2="9.9918" gradientUnits="userSpaceOnUse">
<stop stop-color="#FE9661"/>
<stop offset="1" stop-color="#FFB369"/>
</linearGradient>
<linearGradient id="paint5_linear_430_26822" x1="20" y1="10.8337" x2="20" y2="6.66699" gradientUnits="userSpaceOnUse">
<stop stop-color="#D3E6F5"/>
<stop offset="1" stop-color="#F0F7FC"/>
</linearGradient>
<linearGradient id="paint6_linear_430_26822" x1="19.9999" y1="39.1668" x2="19.9999" y2="34.9918" gradientUnits="userSpaceOnUse">
<stop stop-color="#FE9661"/>
<stop offset="1" stop-color="#FFB369"/>
</linearGradient>
<linearGradient id="paint7_linear_430_26822" x1="17.5" y1="33.7503" x2="22.5" y2="33.7503" gradientUnits="userSpaceOnUse">
<stop stop-color="#D3E6F5"/>
<stop offset="1" stop-color="#F0F7FC"/>
</linearGradient>
<clipPath id="clip0_430_26822">
<rect width="40" height="40" fill="white"/>
</clipPath>
</defs>
</svg>
