<svg width="40" height="40" viewBox="0 0 40 40" fill="none" xmlns="http://www.w3.org/2000/svg">
<circle cx="20" cy="20" r="20" fill="url(#paint0_linear_401_20482)"/>
<path d="M15.0417 21.1665C15.0417 23.2572 16.7427 24.9582 18.8333 24.9582C20.5658 24.9582 22.0743 23.7903 22.5013 22.1173C22.6203 21.6483 23.1045 21.366 23.5642 21.485C24.0332 21.6051 24.3166 22.0813 24.1965 22.5491C23.5735 24.9979 21.3673 26.7082 18.8333 26.7082C15.7778 26.7082 13.2917 24.222 13.2917 21.1665C13.2917 18.6314 15.002 16.4265 17.4508 15.8035C17.914 15.6868 18.3958 15.9668 18.5137 16.4358C18.6338 16.9036 18.3492 17.3806 17.8814 17.4996C16.2095 17.9243 15.0417 19.4329 15.0417 21.1665ZM28.0325 19.6675C27.553 19.7223 27.2076 20.1549 27.2625 20.6356C27.2835 20.8129 27.2917 20.9892 27.2917 21.1665C27.2917 25.8309 23.4977 29.6249 18.8333 29.6249C14.169 29.6249 10.375 25.8309 10.375 21.1665C10.375 16.5022 14.169 12.7082 18.8333 12.7082C19.0107 12.7082 19.1891 12.7174 19.3665 12.7373C19.8588 12.7898 20.28 12.4446 20.3325 11.9639C20.3861 11.4833 20.0408 11.0503 19.5602 10.9967C19.3187 10.9698 19.0748 10.9571 18.8333 10.9571C13.2042 10.9571 8.625 15.5362 8.625 21.1654C8.625 26.7946 13.2042 31.3737 18.8333 31.3737C24.4625 31.3737 29.0417 26.7946 29.0417 21.1654C29.0417 20.9227 29.0277 20.6789 29.0009 20.4362C28.946 19.9567 28.5225 19.6138 28.0325 19.6675ZM31.1184 14.7849L28.1305 17.7728C27.6417 18.2616 26.965 18.5415 26.2743 18.5415H22.695L19.4517 21.7849C19.2814 21.9552 19.0573 22.0415 18.8333 22.0415C18.6093 22.0415 18.3853 21.9564 18.215 21.7849C17.8731 21.4431 17.8731 20.8889 18.215 20.547L21.4583 17.3037V13.7245C21.4583 13.0338 21.7383 12.3571 22.2272 11.8682L25.215 8.88037C25.4658 8.62953 25.8415 8.55477 26.1682 8.6901C26.4948 8.82543 26.7083 9.14523 26.7083 9.49873V13.2904H30.5C30.8547 13.2904 31.1732 13.5038 31.3085 13.8304C31.4438 14.1583 31.3692 14.5352 31.1184 14.7849ZM23.2083 13.7245V15.5537L24.9583 13.8037V11.6116L23.465 13.105C23.3016 13.2683 23.2083 13.4946 23.2083 13.7245ZM28.3872 15.0415H26.195L24.445 16.7915H26.2743C26.5042 16.7915 26.7305 16.6982 26.8927 16.5349L28.3872 15.0415Z" fill="white"/>
<defs>
<linearGradient id="paint0_linear_401_20482" x1="-6.24127" y1="1.33939" x2="45.2972" y2="38.2625" gradientUnits="userSpaceOnUse">
<stop stop-color="#FFC24A"/>
<stop offset="1" stop-color="#FF814A"/>
</linearGradient>
</defs>
</svg>
