<svg width="40" height="40" viewBox="0 0 40 40" fill="none" xmlns="http://www.w3.org/2000/svg">
<g clip-path="url(#clip0_430_27134)">
<path d="M18.3333 29.3086C18.2499 29.7669 18.1333 29.7419 15.8333 31.2836V35.0003C15.8333 35.2213 15.7455 35.4332 15.5892 35.5895C15.4329 35.7458 15.221 35.8336 14.9999 35.8336H12.4999V38.3336C12.4999 38.5546 12.4121 38.7666 12.2559 38.9228C12.0996 39.0791 11.8876 39.1669 11.6666 39.1669H4.16661C3.9456 39.1669 3.73364 39.0791 3.57736 38.9228C3.42108 38.7666 3.33328 38.5546 3.33328 38.3336C3.33328 35.1253 3.21661 32.3169 1.66661 29.2336C1.15291 28.2337 0.870529 27.1312 0.84035 26.0075C0.810171 24.8838 1.03297 23.7677 1.49226 22.7417C1.95156 21.7157 2.63561 20.8061 3.49382 20.0801C4.35204 19.3541 5.36247 18.8303 6.45039 18.5475C7.53832 18.2646 8.67592 18.2299 9.77906 18.446C10.8822 18.662 11.9227 19.1232 12.8235 19.7956C13.7244 20.4679 14.4626 21.3342 14.9836 22.3303C15.5045 23.3264 15.7949 24.4268 15.8333 25.5503L18.1666 28.6669C18.3034 28.8511 18.3631 29.0812 18.3333 29.3086Z" fill="url(#paint0_linear_430_27134)"/>
<path d="M12.4998 35.8335V37.5002H10.8332C7.64983 37.5002 6.57483 33.3335 8.33316 33.3335C8.55418 33.3335 8.76614 33.4213 8.92242 33.5776C9.0787 33.7339 9.1665 33.9458 9.1665 34.1668C9.1665 34.6089 9.34209 35.0328 9.65465 35.3453C9.96721 35.6579 10.3911 35.8335 10.8332 35.8335H12.4998Z" fill="#4795EA"/>
<path d="M21.6667 29.3086C21.75 29.7669 21.8667 29.7419 24.1667 31.2836V35.0003C24.1667 35.2213 24.2545 35.4332 24.4108 35.5895C24.5671 35.7458 24.779 35.8336 25 35.8336H27.5V38.3336C27.5 38.5546 27.5878 38.7666 27.7441 38.9228C27.9004 39.0791 28.1124 39.1669 28.3334 39.1669H35.8334C36.0544 39.1669 36.2663 39.0791 36.4226 38.9228C36.5789 38.7666 36.6667 38.5546 36.6667 38.3336C36.6667 35.1253 36.7834 32.3169 38.3334 29.2336C38.8471 28.2337 39.1294 27.1312 39.1596 26.0075C39.1898 24.8838 38.967 23.7677 38.5077 22.7417C38.0484 21.7157 37.3644 20.8061 36.5062 20.0801C35.6479 19.3541 34.6375 18.8303 33.5496 18.5475C32.4617 18.2646 31.3241 18.2299 30.2209 18.446C29.1178 18.662 28.0773 19.1232 27.1764 19.7956C26.2756 20.4679 25.5374 21.3342 25.0164 22.3303C24.4954 23.3264 24.2051 24.4268 24.1667 25.5503L21.8334 28.6669C21.6966 28.8511 21.6368 29.0812 21.6667 29.3086Z" fill="url(#paint1_linear_430_27134)"/>
<path d="M27.5 35.8335V37.5002H29.1667C32.35 37.5002 33.425 33.3335 31.6667 33.3335C31.4457 33.3335 31.2337 33.4213 31.0774 33.5776C30.9211 33.7339 30.8333 33.9458 30.8333 34.1668C30.8333 34.6089 30.6577 35.0328 30.3452 35.3453C30.0326 35.6579 29.6087 35.8335 29.1667 35.8335H27.5Z" fill="#4795EA"/>
<path d="M26.6665 7.50012C26.6716 6.3829 26.3958 5.28231 25.8645 4.2995C25.3332 3.31668 24.5634 2.48316 23.6258 1.8755C22.6883 1.26785 21.6131 0.905565 20.499 0.82193C19.3849 0.738295 18.2676 0.935994 17.2499 1.39686C16.2321 1.85773 15.3465 2.56699 14.6744 3.45947C14.0023 4.35194 13.5653 5.39901 13.4035 6.50448C13.2417 7.60994 13.3604 8.73833 13.7485 9.78598C14.1366 10.8336 14.7819 11.7669 15.6249 12.5001C16.4067 13.2034 17.0436 14.0526 17.4999 15.0001H22.4999C22.9502 14.0678 23.5787 13.2327 24.3498 12.5418C25.0754 11.9171 25.6578 11.1434 26.0576 10.2734C26.4574 9.40343 26.665 8.45755 26.6665 7.50012Z" fill="url(#paint2_linear_430_27134)"/>
<path d="M21.6667 10H18.3333C18.1123 10 17.9004 10.0878 17.7441 10.2441C17.5878 10.4004 17.5 10.6123 17.5 10.8333C17.5 11.0543 17.5878 11.2663 17.7441 11.4226C17.9004 11.5789 18.1123 11.6667 18.3333 11.6667H19.1667V15H20.8333V11.6667H21.6667C21.8877 11.6667 22.0996 11.5789 22.2559 11.4226C22.4122 11.2663 22.5 11.0543 22.5 10.8333C22.5 10.6123 22.4122 10.4004 22.2559 10.2441C22.0996 10.0878 21.8877 10 21.6667 10Z" fill="#F0F7FC"/>
<path d="M22.4998 15H17.4998C17.0396 15 16.6665 15.3731 16.6665 15.8333V17.5C16.6665 17.9602 17.0396 18.3333 17.4998 18.3333H22.4998C22.9601 18.3333 23.3332 17.9602 23.3332 17.5V15.8333C23.3332 15.3731 22.9601 15 22.4998 15Z" fill="url(#paint3_linear_430_27134)"/>
<path d="M19.9999 20.8335C19.5579 20.8335 19.134 20.6579 18.8214 20.3453C18.5088 20.0328 18.3333 19.6089 18.3333 19.1668V18.3335H21.6666V19.1668C21.6666 19.6089 21.491 20.0328 21.1784 20.3453C20.8659 20.6579 20.4419 20.8335 19.9999 20.8335Z" fill="url(#paint4_linear_430_27134)"/>
<path d="M7.50005 16.6668C7.33452 16.6678 7.17247 16.6194 7.03453 16.5279C6.8966 16.4364 6.78904 16.3059 6.72557 16.1531C6.6621 16.0002 6.64559 15.8319 6.67815 15.6696C6.7107 15.5073 6.79085 15.3584 6.90838 15.2418L11.075 11.0752C11.232 10.9182 11.4448 10.8301 11.6667 10.8301C11.8886 10.8301 12.1015 10.9182 12.2584 11.0752C12.4153 11.2321 12.5035 11.4449 12.5035 11.6668C12.5035 11.8887 12.4153 12.1016 12.2584 12.2585L8.09171 16.4252C8.01385 16.5024 7.9215 16.5635 7.81997 16.605C7.71844 16.6464 7.60972 16.6675 7.50005 16.6668Z" fill="#D7E9F7"/>
<path d="M32.5 16.6668C32.3903 16.6675 32.2816 16.6464 32.1801 16.605C32.0785 16.5635 31.9862 16.5024 31.9083 16.4252L27.7417 12.2585C27.5847 12.1016 27.4966 11.8887 27.4966 11.6668C27.4966 11.4449 27.5847 11.2321 27.7417 11.0752C27.8986 10.9182 28.1114 10.8301 28.3333 10.8301C28.5552 10.8301 28.7681 10.9182 28.925 11.0752L33.0917 15.2418C33.2092 15.3584 33.2893 15.5073 33.3219 15.6696C33.3545 15.8319 33.3379 16.0002 33.2745 16.1531C33.211 16.3059 33.1034 16.4364 32.9655 16.5279C32.8276 16.6194 32.6655 16.6678 32.5 16.6668Z" fill="#D7E9F7"/>
</g>
<defs>
<linearGradient id="paint0_linear_430_27134" x1="9.58328" y1="39.1669" x2="9.58328" y2="18.3253" gradientUnits="userSpaceOnUse">
<stop stop-color="#54A5FF"/>
<stop offset="1" stop-color="#8AD3FE"/>
</linearGradient>
<linearGradient id="paint1_linear_430_27134" x1="30.4167" y1="0.000255837" x2="30.4167" y2="18.3253" gradientUnits="userSpaceOnUse">
<stop stop-color="#54A5FF"/>
<stop offset="1" stop-color="#8AD3FE"/>
</linearGradient>
<linearGradient id="paint2_linear_430_27134" x1="19.9999" y1="15.0001" x2="19.9999" y2="0.833456" gradientUnits="userSpaceOnUse">
<stop stop-color="#FE9661"/>
<stop offset="1" stop-color="#FFB369"/>
</linearGradient>
<linearGradient id="paint3_linear_430_27134" x1="19.9998" y1="18.3333" x2="19.9998" y2="15" gradientUnits="userSpaceOnUse">
<stop stop-color="#54A5FF"/>
<stop offset="1" stop-color="#8AD3FE"/>
</linearGradient>
<linearGradient id="paint4_linear_430_27134" x1="19.9999" y1="20.8335" x2="19.9999" y2="18.3335" gradientUnits="userSpaceOnUse">
<stop stop-color="#54A5FF"/>
<stop offset="1" stop-color="#8AD3FE"/>
</linearGradient>
<clipPath id="clip0_430_27134">
<rect width="40" height="40" fill="white"/>
</clipPath>
</defs>
</svg>
