<svg width="139" height="79" viewBox="0 0 139 79" fill="none" xmlns="http://www.w3.org/2000/svg">
<g clip-path="url(#clip0_588_43865)">
<path d="M95.7588 10.3805C96.0933 8.55592 96.433 6.95457 96.2734 6.91094C94.4182 6.39256 90.5843 6.11283 82.551 7.14704C81.8048 7.24199 81.7379 7.43446 80.5362 15.2128C79.5044 21.8928 78.9049 30.5565 79.2651 30.5565C80.037 30.5565 83.4181 30.0176 83.4181 30.0176L95.7562 10.3831L95.7588 10.3805Z" fill="#FFFEFF"/>
<path d="M81.7379 30.2691C81.7301 30.2204 81.5397 30.2101 80.8862 30.2691C80.5619 30.2948 80.1168 30.3435 79.5327 30.382C79.4967 30.382 79.4606 30.3846 79.4221 30.3872C79.3963 30.3872 79.3989 30.3872 79.386 30.3872C79.3629 30.3923 79.3629 30.3615 79.3603 30.3461C79.3552 30.3025 79.3474 30.1973 79.3449 30.1203C79.3449 30.033 79.3423 29.9432 79.3397 29.8534C79.3397 29.4838 79.3526 29.0655 79.3732 28.6036C79.4529 26.856 79.6999 23.7482 80.0473 20.6302C80.2197 19.0725 80.4178 17.5096 80.6186 16.1136C80.8295 14.7175 81.0148 13.478 81.1512 12.567C81.4728 10.4242 81.6735 9.15387 81.8151 8.42761C81.954 7.70136 82.0441 7.52942 81.9926 7.49606C81.9566 7.46783 81.7739 7.62694 81.568 8.34806C81.357 9.06405 81.1126 10.319 80.7626 12.4438C80.6134 13.3523 80.4153 14.5815 80.2017 15.9801C79.9933 17.3788 79.7952 18.9416 79.6228 20.5019C79.2754 23.6225 79.0438 26.7354 78.9898 28.501C78.9743 28.9732 78.9692 29.3992 78.9795 29.7867C78.9846 29.9817 78.9923 30.1639 79.0155 30.3461C79.0181 30.3795 79.0335 30.4719 79.0541 30.536C79.0773 30.6027 79.103 30.6643 79.1647 30.6926C79.1879 30.7157 79.2239 30.708 79.2522 30.7182C79.2831 30.7259 79.314 30.7285 79.35 30.7259C79.4015 30.7234 79.4529 30.7182 79.5018 30.7157C80.1142 30.6541 80.5594 30.5745 80.8913 30.5181C81.5526 30.3949 81.7456 30.3256 81.7379 30.2794V30.2691Z" fill="#181818"/>
<path d="M83.6008 7.01361C83.6136 7.11626 84.0356 7.11113 86.1044 6.93662C87.0822 6.8622 88.8165 6.71849 90.5662 6.67743C92.3159 6.62354 94.0708 6.71336 95.0769 6.86477C95.2879 6.89813 95.4886 6.92636 95.6661 6.96229C95.7562 6.98025 95.8437 6.99308 95.926 7.01361C95.9672 7.02388 96.0084 7.03158 96.0469 7.04184L96.0984 7.05467H96.1087C96.1293 7.05467 96.1293 7.0752 96.1319 7.08803C96.1319 7.15989 96.1293 7.23431 96.1241 7.3036C96.1113 7.44474 96.0984 7.57306 96.0881 7.68854C96.065 7.91694 96.047 8.09144 96.0418 8.21976C96.0264 8.47895 96.0495 8.56107 96.0933 8.56877C96.137 8.57647 96.1859 8.50975 96.2605 8.26082C96.2965 8.13764 96.3429 7.96826 96.3892 7.7373C96.4123 7.62182 96.4381 7.49094 96.4612 7.34209C96.4715 7.26767 96.4818 7.18555 96.487 7.09573C96.4895 7.02388 96.487 6.94432 96.4638 6.8776C96.4535 6.84424 96.4329 6.81088 96.402 6.79035C96.384 6.75699 96.3429 6.75185 96.312 6.72876C96.2193 6.70309 96.1241 6.67743 96.0238 6.6492C95.9415 6.62354 95.854 6.60814 95.7639 6.58761C95.5838 6.54399 95.3857 6.50806 95.1747 6.46956C94.1454 6.28736 92.3648 6.18214 90.6022 6.2386C88.8396 6.27966 87.0976 6.44133 86.1173 6.54655C84.0228 6.78778 83.5905 6.92379 83.6008 7.01361Z" fill="#181818"/>
<path d="M7.8867 27.7798C9.04718 26.2965 13.3906 29.5275 14.6463 30.1742C14.6463 30.1742 13.316 32.4094 13.2465 32.3632C13.177 32.317 6.36599 29.7251 7.88927 27.7773L7.8867 27.7798Z" fill="#FFFEFF"/>
<path d="M18.8945 34.7396C12.49 36.3127 9.18869 42.7284 6.07521 51.4845C4.09648 57.0481 4.28432 65.0626 5.06912 70.6776C5.06912 70.6776 32.4857 70.9214 32.4548 70.6776C32.424 70.4338 18.8945 34.7396 18.8945 34.7396Z" fill="#FFFEFF"/>
<path d="M2.88208 71.8966C3.29893 68.3526 7.88165 64.6623 14.0469 65.3911C20.2121 66.1199 21.1178 71.5322 21.1178 71.5322L2.88208 71.8966Z" fill="#181818"/>
<path d="M41.3322 14.3275C42.9893 15.0486 49.9882 13.7988 49.9882 13.7988C49.9882 13.7988 53.5005 11.0888 55.1962 9.96737C56.8945 8.84848 58.1836 7.38827 57.4837 5.20694C56.5265 2.21724 54.9157 3.63639 54.468 3.11543C54.0203 2.59448 53.2818 0.392623 50.1349 0.0256466C47.4099 -0.292571 42.6985 2.33016 42.1916 4.90412C42.0553 5.59445 39.9427 4.1599 38.6845 7.88099C37.452 11.5225 39.6134 13.5781 41.3296 14.3275H41.3322Z" fill="#181818"/>
<path d="M39.4743 25.4779C41.9574 26.2427 43.5424 27.2409 45.1223 27.5207C46.7022 27.8004 48.717 26.5275 48.717 26.5275C48.717 26.5275 50.6803 26.5814 52.1315 30.3333C53.5853 34.0852 59.012 69.0352 58.8834 69.0352H40.5911C40.5911 69.0352 36.6593 27.69 36.788 27.5181C36.9167 27.3487 39.4743 25.4753 39.4743 25.4753V25.4779Z" fill="#FFFEFF"/>
<path d="M30.7619 67.421C30.6769 70.1464 30.7619 71.8966 30.7619 71.8966C30.7619 71.8966 42.0784 73.7263 41.8469 71.2961C41.6179 68.8658 41.4455 64.1362 41.4892 62.5579L30.7619 67.4184V67.421Z" fill="#516FF3"/>
<path d="M46.2212 59.0088C45.3952 59.2731 44.8368 59.4579 44.7288 59.5502C43.2363 60.8359 41.9626 65.8222 42.1042 65.9864C42.1042 65.9864 38.2574 66.977 32.3366 67.3594C26.4184 67.7443 22.3889 66.3047 19.3758 63.9386C16.3627 61.575 15.4672 52.2056 16.2031 45.908C16.9416 39.6103 18.4469 33.7284 20.4977 29.1246C22.551 24.5207 28.32 23.4351 33.1291 24.0741C34.498 24.2564 35.7923 24.513 36.9785 24.7978C37.8765 25.016 38.7154 25.2495 39.4744 25.4779C38.6022 28.7242 39.3252 32.1528 39.6443 34.37C39.9608 36.5898 40.6838 40.6522 41.1753 45.0893C41.4763 47.8198 41.6436 50.44 41.7362 52.4904C41.8443 54.9592 41.8469 56.599 41.8469 56.599C41.8469 56.599 43.2261 57.0019 44.3788 57.3227C45.4364 57.6153 46.0899 58.3903 46.2212 59.0088Z" fill="#516FF3"/>
<path d="M20.1527 32.8559C22.0671 33.4667 23.4618 34.9731 22.3836 35.9457C21.6194 36.6335 19.8234 36.6745 18.6809 35.1989C18.5857 35.0757 20.1553 32.8559 20.1553 32.8559H20.1527Z" fill="#FFFEFF"/>
<path d="M84.8718 38.4606C86.0323 33.2947 87.3137 28.4137 87.3137 28.4137C87.3137 28.4137 95.9723 24.9364 96.1344 25.5934C96.2991 26.2503 96.3814 35.7199 96.4174 36.9183C96.456 38.1168 84.8718 38.4606 84.8718 38.4606Z" fill="#516FF3"/>
<path d="M96.7057 25.4651C96.6954 25.5241 96.6877 25.5805 96.6774 25.6396C96.1911 28.5241 95.239 30.8696 93.0056 31.4881C90.7309 32.1194 88.8345 31.2366 87.0642 29.2811C87.0642 29.2811 89.7737 19.6756 91.0371 17.6893C91.2533 17.3505 91.5131 17.058 91.8013 16.8167C93.2088 15.6337 95.3162 15.6337 96.451 17.2684C97.5085 18.7928 97.1791 22.5036 96.7057 25.4651Z" fill="#FFFEFF"/>
<path d="M85.039 9.35916C82.5148 9.73897 80.6313 10.1906 80.4615 10.6911C80.3483 11.017 81.0095 32.2734 81.6503 32.8559C82.062 33.2306 85.1085 30.7079 93.5226 29.2041L85.0416 9.35916H85.039Z" fill="#FFFEFF"/>
<path d="M93.5201 29.2041C93.5124 29.1579 93.4198 29.1348 93.1239 29.1579C92.8254 29.181 92.3211 29.2477 91.4925 29.412C90.7077 29.566 89.3208 29.8842 87.9519 30.3025C86.5804 30.7105 85.2295 31.2289 84.4602 31.5677C83.5544 31.9603 83.0347 32.2349 82.7413 32.4017C82.448 32.5711 82.3785 32.6455 82.3991 32.6942C82.4197 32.743 82.52 32.7481 82.8391 32.6404C83.1582 32.5351 83.6908 32.3093 84.5914 31.95C85.3582 31.6395 86.6911 31.1391 88.0445 30.731C89.3954 30.3127 90.7643 29.9817 91.5363 29.7969C92.3622 29.5993 92.864 29.4838 93.1573 29.3966C93.4481 29.3093 93.5304 29.2529 93.5227 29.2041H93.5201Z" fill="#181818"/>
<path d="M81.6477 32.8559C81.6632 32.8354 81.6503 32.802 81.6349 32.6711C81.6168 32.5428 81.5937 32.3273 81.5602 31.9885C81.4985 31.311 81.411 30.1459 81.3029 28.2007C81.0791 24.5258 80.7137 15.1307 80.6519 11.2659C80.6519 11.1658 80.6519 11.0657 80.6519 10.9708C80.6519 10.9246 80.6519 10.8758 80.6519 10.8322C80.6519 10.804 80.6519 10.7757 80.6545 10.7501C80.6596 10.7475 80.6648 10.7372 80.6699 10.7244C80.6802 10.7116 80.6982 10.6962 80.7111 10.6808C80.7343 10.65 80.7883 10.6218 80.8243 10.591C80.9144 10.5371 81.0096 10.4858 81.1074 10.4421C81.3055 10.3549 81.5036 10.2856 81.694 10.2266C82.0774 10.1059 82.4274 10.0187 82.7361 9.94427C83.3588 9.79799 83.8271 9.70304 84.1694 9.62605C84.8564 9.47721 85.0468 9.41305 85.0391 9.36173C85.0314 9.31297 84.8358 9.29501 84.1359 9.37713C83.786 9.42075 83.3125 9.48748 82.6744 9.61322C82.3553 9.67738 81.9951 9.75437 81.5937 9.86985C81.393 9.92887 81.1794 9.9956 80.9555 10.088C80.8449 10.1342 80.7291 10.1906 80.6133 10.2599C80.5541 10.3035 80.495 10.3318 80.4358 10.3959C80.4075 10.4267 80.3766 10.4524 80.3483 10.4883C80.3226 10.5294 80.2968 10.5756 80.2711 10.6295C80.2608 10.6628 80.2557 10.709 80.2531 10.7372V10.804C80.2479 10.8476 80.2479 10.8912 80.2454 10.9374C80.2454 11.0247 80.2454 11.1145 80.2454 11.2069C80.2557 15.0717 80.6262 24.4488 80.9092 28.134C81.0533 30.1049 81.1897 31.2956 81.3184 31.9936C81.3827 32.3427 81.447 32.5659 81.5062 32.7019C81.5602 32.8379 81.6374 32.879 81.6477 32.8559Z" fill="#181818"/>
<path d="M83.418 30.4924C80.9221 31.4188 80.6622 31.6498 80.5181 30.8388C80.374 30.0279 80.4075 23.8124 81.7378 17.3942C83.0681 10.9759 83.5801 8.61495 83.9686 8.43275C86.1764 7.38828 97.1868 7.70906 97.3617 8.02728C97.5367 8.34549 96.2605 12.6594 96.2605 12.6594L83.4206 30.4924H83.418Z" fill="#516FF3"/>
<path d="M91.4693 8.57134C93.6667 8.59701 97.8429 8.67913 97.7734 8.89213C96.9783 11.2916 95.0279 20.6071 93.9498 28.9911C93.8803 29.5326 91.1219 28.7704 81.9822 31.5009C81.0945 31.7653 82.9137 17.4994 83.2713 16.75C83.629 16.0007 89.5266 8.54825 91.4719 8.57134H91.4693Z" fill="#FFFEFF"/>
<path d="M73.6453 45.1535L67.3978 69.8333L56.6087 70.4877C56.6087 70.4877 56.022 61.3441 54.6428 51.1278C53.3794 41.7634 51.4573 31.4958 48.7144 26.5301C49.8157 26.0938 50.9041 25.714 51.9616 25.4009C55.9757 24.1999 59.5781 23.8996 62.0045 24.6618C65.0691 25.6242 72.2816 33.1921 73.6453 45.1535Z" fill="#516FF3"/>
<path d="M56.1172 68.3911C55.6026 68.622 51.043 68.7247 51.043 68.7247C48.8533 65.1627 46.0949 66.0019 44.9859 66.2072C43.8795 66.4125 42.5415 66.4946 42.104 65.9865C41.9625 65.8222 43.2362 60.836 44.7286 59.5503C44.8367 59.4579 45.3951 59.2731 46.221 59.0088C47.0161 58.7547 48.0608 58.4237 49.1878 58.0336C51.4805 57.2381 53.8761 58.0593 55.371 61.2466C56.866 64.4339 56.6344 68.1601 56.1172 68.3911Z" fill="#FFFEFF"/>
<path d="M63.5614 67.6956C63.9834 66.5023 66.5102 54.7411 74.2939 40.9833C74.7622 40.157 95.3755 41.2707 101.461 41.6531C107.546 42.0355 106.157 43.7549 105.39 47.1962C104.623 50.6376 99.4976 67.6981 97.2924 70.8033C95.0873 73.9085 36.2477 71.8555 35.0512 71.758C33.8547 71.6605 34.5083 68.5065 36.644 68.4809C45.0375 68.3782 49.2909 68.0215 53.6034 67.9881C60.4299 67.9342 63.3324 68.3397 63.5588 67.6981L63.5614 67.6956Z" fill="#181818"/>
<path d="M138.997 66.8513C138.997 66.8513 133.254 68.468 124.174 68.0266C115.091 67.5878 111.949 66.9514 110.868 66.9514C109.787 66.9514 108.218 65.8735 107.14 60.8308C106.517 57.9284 105.326 54.9618 103.877 52.7035C102.804 51.0379 101.592 49.7599 100.365 49.1774C97.4673 47.807 92.8717 48.5512 88.6981 48.2587C88.6595 48.2561 88.6183 48.2535 88.5771 48.2484C88.0111 48.1971 87.4012 48.0534 86.7734 47.8481C84.0922 46.6779 84.5605 43.2622 85.0134 40.8396C82.8674 40.7626 80.8372 40.7062 79.1338 40.6908C80.9118 37.9166 82.4171 35.9688 83.6007 35.7148C86.4286 35.104 99.2839 34.293 106.45 35.2246C113.619 36.1536 114.257 36.8414 114.895 40.0235C115.533 43.2057 116.514 46.8293 119.215 47.7095C121.914 48.5897 126.137 47.1706 128.983 49.9627C131.831 52.7522 133.352 58.2851 134.286 61.1234C135.218 63.9642 136.79 66.3637 138.997 66.8513Z" fill="#FFFEFF"/>
<path d="M88.0214 52.221C90.7823 52.416 89.7608 58.2158 86.444 57.9232C83.1247 57.6307 84.2389 51.9541 88.0214 52.221Z" fill="#516FF3"/>
<path d="M1.17851 69.8974C4.50041 69.9128 112.263 69.7101 114.041 69.9411C114.468 69.9975 115.147 77.8426 115.276 78.5637C115.405 79.2849 115.232 78.8178 79.3731 78.8178C43.5141 78.8178 1.42553 78.9666 0.486344 78.9666C0.0386205 78.9666 0.370553 69.8949 1.17851 69.8974Z" fill="#FFFEFF"/>
<path d="M43.7457 16.7962C44.142 16.8732 42.876 22.5395 40.8226 26.7303C40.7249 26.9304 42.2198 29.4762 44.865 29.607C47.5102 29.7379 48.6166 29.4685 49.2445 27.7799C49.8723 26.0913 51.6606 21.1281 51.6606 21.1281C51.6606 21.1281 56.5109 20.4095 56.2047 15.3104C55.8985 10.2112 55.3299 6.81088 55.3299 6.81088C55.3299 6.81088 54.5399 6.05126 52.1804 7.46271C49.8208 8.87416 47.8704 9.15132 46.4989 7.0983C47.5488 9.15132 47.3146 12.5722 45.2124 13.5781C44.1497 14.0863 41.7181 13.129 41.3321 14.3275C40.9487 15.5182 41.8879 16.4344 43.7457 16.7962Z" fill="#FFFEFF"/>
<path d="M24.4241 29.1579C24.6068 28.1211 17.0006 24.6464 13.4832 30.2281C9.70841 36.2126 15.3101 40.1287 15.9611 39.967C16.6147 39.8054 24.2362 30.2306 24.4267 29.1579H24.4241Z" fill="#181818"/>
<path d="M115.788 69.7974C115.788 69.782 115.783 69.764 115.762 69.746L115.726 69.7178C115.726 69.7178 115.724 69.7127 115.721 69.7101C115.721 69.7075 115.736 69.6973 115.729 69.6921C115.731 69.6793 115.752 69.6793 115.765 69.6742C115.76 69.6306 115.621 69.6152 115.518 69.5998C115.42 69.5844 115.307 69.5715 115.165 69.5613C114.602 69.5151 113.642 69.4817 112.044 69.4637C109.021 69.4278 101.317 69.4406 98.1415 69.4817C94.4156 69.5279 93.708 69.6203 93.708 69.7614C93.708 69.9026 94.3873 69.9898 98.0926 70.0232C101.252 70.0514 108.946 70.0283 111.969 69.9821C113.588 69.9565 114.566 69.9231 115.142 69.8846C115.286 69.8743 115.405 69.8641 115.5 69.8538C115.546 69.8487 115.569 69.8436 115.595 69.8384C115.618 69.8359 115.652 69.823 115.664 69.8307C115.659 69.8307 115.652 69.8307 115.646 69.8359C115.639 69.8384 115.682 69.8538 115.69 69.8513C115.718 69.8513 115.734 69.8461 115.749 69.841C115.778 69.8307 115.791 69.8153 115.793 69.7999L115.788 69.7974Z" fill="#181818"/>
<path d="M35.8564 69.7768C35.8564 69.6485 34.8452 69.5664 29.8456 69.5407C25.1214 69.5151 13.074 69.5536 8.11045 69.6049C2.28234 69.6639 1.17847 69.7589 1.17847 69.9C1.17847 70.0412 2.24117 70.1258 8.03069 70.1464C12.9711 70.1618 24.9978 70.1156 29.7272 70.0591C34.786 69.9975 35.8564 69.9077 35.8564 69.7794V69.7768Z" fill="#181818"/>
<path d="M0.651066 71.409C0.53013 71.3885 0.391181 71.5963 0.234221 72.6921C0.162174 73.2105 0.0772605 74.1344 0.0360906 75.0633C-0.00765245 75.9949 -0.0102256 76.9342 0.0180788 77.4859C0.0515293 78.1326 0.115857 78.5201 0.203343 78.7485C0.247087 78.8614 0.298549 78.9384 0.357731 78.982C0.414339 79.0154 0.458082 78.9872 0.483814 78.9641C0.509545 78.941 0.512118 78.9204 0.519837 78.8794C0.535276 78.8486 0.540422 78.7921 0.545569 78.6921C0.553288 78.4893 0.550715 78.1223 0.558434 77.4936C0.56358 76.9573 0.579019 76.0334 0.617616 75.1147C0.65364 74.196 0.712821 73.2824 0.743699 72.7691C0.8106 71.6707 0.779723 71.4295 0.648493 71.409H0.651066Z" fill="#181818"/>
<path d="M115.276 78.5612C115.402 78.5381 115.453 78.3328 115.389 77.2909C115.327 76.308 115.07 73.811 114.913 72.7845C114.73 71.5809 114.604 71.3628 114.465 71.3833C114.324 71.4039 114.27 71.6322 114.373 72.8307C114.463 73.8546 114.728 76.3439 114.872 77.3191C115.024 78.361 115.15 78.5843 115.276 78.5586V78.5612Z" fill="#181818"/>
<path d="M138.998 66.8513C139.005 66.8205 138.962 66.7768 138.833 66.7153C138.704 66.6562 138.498 66.5664 138.192 66.3996C137.889 66.2328 137.497 65.9659 137.047 65.5245C136.594 65.0857 136.1 64.4492 135.619 63.5716C135.393 63.1558 135.146 62.6452 134.911 62.0523C134.675 61.4621 134.466 60.7846 134.235 60.0481C133.777 58.5853 133.244 56.9326 132.58 55.3159C131.916 53.7043 131.111 52.1209 130.138 50.8506C130.012 50.694 129.889 50.5401 129.768 50.3887C129.644 50.2398 129.505 50.1038 129.379 49.9652C129.132 49.6855 128.847 49.4417 128.569 49.2313C128.005 48.8104 127.429 48.5435 126.93 48.3664C125.749 47.961 124.758 47.9148 123.996 47.8789C123.23 47.8532 122.666 47.8712 122.254 47.884C121.431 47.9122 121.204 47.9481 121.199 48.02C121.194 48.0867 121.413 48.1663 122.226 48.2279C122.64 48.2535 123.188 48.2895 123.929 48.3356C124.665 48.3998 125.607 48.4717 126.688 48.8515C127.146 49.0131 127.666 49.2621 128.178 49.6367C128.432 49.8266 128.685 50.0396 128.921 50.3014C129.042 50.4297 129.163 50.5606 129.287 50.6966C129.4 50.8403 129.518 50.9866 129.634 51.1354C130.563 52.3365 131.35 53.8737 132.006 55.4519C132.665 57.0327 133.198 58.6649 133.669 60.1225C133.903 60.8488 134.122 61.5442 134.371 62.1576C134.618 62.7709 134.881 63.2996 135.12 63.7333C135.647 64.652 136.188 65.332 136.702 65.794C137.214 66.2559 137.667 66.5279 138.025 66.6691C138.38 66.8179 138.624 66.8692 138.779 66.8795C138.931 66.8949 138.99 66.8795 138.998 66.8487V66.8513Z" fill="#181818"/>
<path d="M120.353 47.9533C120.358 47.9199 120.268 47.884 120.026 47.8147C119.787 47.7428 119.38 47.6556 118.829 47.381C118.279 47.1064 117.615 46.5598 117.008 45.6026C116.413 44.6376 115.899 43.2775 115.487 41.5145C115.386 41.0988 115.289 40.6368 115.191 40.139C115.085 39.6386 114.99 39.0919 114.792 38.5171C114.602 37.9474 114.277 37.3289 113.737 36.8798C113.202 36.4256 112.543 36.1587 111.877 35.9431C110.531 35.5197 109.08 35.3067 107.59 35.086C106.105 34.8602 104.543 34.7165 102.994 34.6318C99.8886 34.4624 96.7725 34.4932 93.9833 34.583C91.1914 34.6728 88.7238 34.8422 86.9046 35.0167C85.8368 35.1142 84.8821 35.2323 84.0176 35.3786C83.9095 35.3991 83.8014 35.4196 83.6985 35.4376L83.5416 35.4684L83.3717 35.5197C83.1479 35.5941 82.96 35.7019 82.7876 35.8123C82.4454 36.0432 82.1752 36.2998 81.9308 36.5462C81.4496 37.0466 81.0868 37.5188 80.7806 37.9346C80.4744 38.3503 80.2325 38.7147 80.0318 39.0227C79.2367 40.2673 79.0823 40.6471 79.1389 40.683C79.2033 40.7241 79.4477 40.4161 80.2968 39.251C80.513 38.9611 80.7652 38.6172 81.0765 38.2271C81.3878 37.837 81.7507 37.3879 82.2112 36.926C82.4428 36.6976 82.6976 36.4615 82.9909 36.2639C83.1376 36.1638 83.2945 36.0791 83.4566 36.0124C83.5415 35.9868 83.6136 35.9611 83.7139 35.9431C83.8143 35.9252 83.9146 35.9072 84.0176 35.8918C84.8461 35.7584 85.7905 35.6531 86.8429 35.5633C88.6389 35.4068 91.0911 35.2451 93.8649 35.1604C96.6362 35.0783 99.7342 35.0424 102.807 35.204C103.576 35.2348 104.34 35.3041 105.099 35.3632C105.856 35.4427 106.604 35.5248 107.345 35.6326C108.822 35.843 110.263 36.0535 111.547 36.4282C112.191 36.6078 112.785 36.8593 113.256 37.2032C113.729 37.547 114.038 38.0192 114.226 38.5325C114.419 39.0457 114.53 39.5744 114.638 40.0671C114.743 40.5701 114.844 41.0346 114.946 41.458C115.384 43.2673 115.919 44.7018 116.586 45.7334C117.247 46.7676 118.016 47.363 118.641 47.6402C119.28 47.9096 119.717 47.9584 119.985 47.9789C120.252 47.9969 120.353 47.9764 120.358 47.9456L120.353 47.9533Z" fill="#181818"/>
<path d="M88.6983 48.2561C88.6931 48.31 89.1228 48.4203 90.6281 48.4871C91.3795 48.5204 92.401 48.5256 93.7622 48.5281C94.444 48.5281 95.2083 48.5358 96.0651 48.5794C96.9194 48.6256 97.8714 48.7001 98.8827 48.9439C99.3613 49.0542 99.8708 49.2261 100.375 49.4828C100.499 49.5521 100.622 49.6213 100.751 49.6932C100.872 49.7805 100.993 49.8677 101.116 49.955C101.242 50.0397 101.361 50.1423 101.479 50.2501C101.597 50.3579 101.723 50.458 101.837 50.5734C102.766 51.4999 103.63 52.7111 104.371 54.1021C104.755 54.7898 105.089 55.534 105.418 56.2962C105.727 57.0687 106.033 57.8642 106.278 58.6931C106.414 59.1037 106.515 59.5271 106.635 59.948C106.736 60.3766 106.836 60.8077 106.937 61.2388C107.132 62.1191 107.374 62.9993 107.698 63.859C108.02 64.7161 108.421 65.5681 109.052 66.2995C109.368 66.6588 109.772 66.9796 110.266 67.1413C110.387 67.1875 110.518 67.2054 110.647 67.2285L110.843 67.2413L111.002 67.2465C111.208 67.2542 111.427 67.2747 111.643 67.2978C113.385 67.4954 115.104 67.6879 116.725 67.8239C119.969 68.1011 122.844 68.2499 124.972 68.332C127.47 68.4116 129.467 68.332 131.047 68.2217C132.627 68.1062 133.792 67.9599 134.644 67.8265C136.347 67.5544 136.798 67.3902 136.785 67.326C136.772 67.249 136.319 67.2978 134.641 67.4774C133.803 67.5621 132.657 67.6725 131.103 67.7546C129.549 67.8367 127.588 67.8855 125.126 67.7982C123.026 67.7033 120.16 67.5442 116.941 67.267C115.327 67.1284 113.634 66.9437 111.882 66.7384C111.661 66.7153 111.442 66.6896 111.211 66.6768C111.1 66.6665 110.974 66.6665 110.861 66.6614C110.77 66.6562 110.678 66.6511 110.588 66.628C110.225 66.5587 109.89 66.3226 109.602 66.0352C109.317 65.7426 109.067 65.3936 108.861 65.0138C108.645 64.6417 108.473 64.2362 108.305 63.8333C107.984 63.0147 107.747 62.1576 107.544 61.303C107.441 60.8693 107.341 60.4356 107.24 60.0045C107.132 59.5708 107.014 59.1448 106.888 58.7213C106.37 57.0379 105.73 55.4442 104.96 54.0225C104.59 53.3039 104.165 52.6444 103.743 52.0182C103.298 51.4075 102.856 50.8301 102.356 50.345C102.125 50.0884 101.849 49.8805 101.605 49.6598C101.33 49.4725 101.085 49.2621 100.8 49.1235C100.254 48.8027 99.7009 48.641 99.2017 48.4973C98.121 48.2279 97.1304 48.156 96.2478 48.115C95.3626 48.079 94.5778 48.0893 93.8831 48.0996C92.5013 48.1303 91.4644 48.156 90.6899 48.1714C89.1563 48.1919 88.6983 48.1868 88.6931 48.2612L88.6983 48.2561Z" fill="#181818"/>
<path d="M88.5771 48.2458C88.5822 48.1817 88.4716 48.1175 88.0908 48.038C87.9055 47.9815 87.6482 47.9302 87.324 47.8147C87.0049 47.6967 86.6009 47.535 86.1995 47.2091C85.8161 46.9088 85.3787 46.3648 85.1703 45.5975C84.9464 44.8378 84.9181 43.9088 84.9979 42.9876C85.0751 42.0611 85.2526 41.1321 85.4096 40.293C85.4868 39.8695 85.5666 39.4743 85.6 39.0868C85.6463 38.7045 85.6283 38.3529 85.6026 38.0578C85.5177 37.3623 85.2784 36.8208 85.0005 36.4641C84.7251 36.1023 84.4395 35.9072 84.2208 35.7969C83.9995 35.6891 83.8426 35.6583 83.7448 35.6557C83.647 35.6557 83.6084 35.6788 83.6007 35.7122C83.5801 35.7917 83.6959 35.8405 84.0278 36.0843C84.1899 36.21 84.4035 36.3974 84.6094 36.7105C84.8178 37.021 85.0005 37.4701 85.0596 38.0757C85.2063 39.0971 84.5733 40.9551 84.4189 42.8849C84.334 43.8473 84.3572 44.8404 84.6119 45.7027C84.8512 46.5701 85.3761 47.2373 85.8367 47.5786C86.3282 47.9559 86.7991 48.1175 87.1645 48.2227C87.5376 48.3177 87.8206 48.3382 88.029 48.3536C88.4484 48.3536 88.572 48.31 88.5745 48.2458H88.5771Z" fill="#181818"/>
<path d="M108.619 37.3341C108.612 37.234 108.244 37.2032 106.36 37.0877C104.582 36.9799 100.035 36.749 98.1545 36.7438C95.9493 36.7284 95.5299 36.826 95.5325 36.926C95.5325 37.039 95.9339 37.0749 98.1159 37.1467C99.9763 37.2032 104.51 37.4239 106.298 37.4727C108.208 37.5265 108.627 37.429 108.619 37.3341Z" fill="#181818"/>
<path d="M109.978 39.7618C109.978 39.6668 109.587 39.5898 107.634 39.5051C106.71 39.4641 105.068 39.4179 103.414 39.4025C101.759 39.3871 100.095 39.4076 99.1219 39.4461C96.837 39.5411 96.4099 39.6668 96.4176 39.7643C96.4253 39.8772 96.8422 39.8875 99.1014 39.8516C100.066 39.8387 101.721 39.8285 103.368 39.8413C105.014 39.8618 106.648 39.8798 107.577 39.8926C109.553 39.9132 109.978 39.8618 109.978 39.7643V39.7618Z" fill="#181818"/>
<path d="M110.359 41.6223C110.356 41.5273 109.803 41.4709 107.032 41.3939C104.412 41.3195 97.7323 41.2399 94.9791 41.3092C91.7446 41.3759 91.1322 41.5299 91.14 41.6223C91.1477 41.7403 91.7343 41.7249 94.9379 41.7147C97.6731 41.6941 104.337 41.766 106.96 41.7788C109.762 41.7917 110.364 41.7198 110.359 41.6223Z" fill="#181818"/>
<path d="M112.129 44.6787C112.129 44.5838 111.864 44.5119 110.547 44.4965C109.924 44.4888 108.817 44.5042 107.706 44.5504C106.594 44.594 105.472 44.6762 104.821 44.748C103.29 44.92 103.012 45.056 103.028 45.1535C103.046 45.2664 103.326 45.2664 104.837 45.1535C105.483 45.1073 106.592 45.0354 107.698 44.9892C108.802 44.9482 109.896 44.9071 110.523 44.884C111.851 44.8327 112.132 44.7762 112.132 44.6787H112.129Z" fill="#181818"/>
<path d="M114.151 46.2878C114.146 46.1928 113.83 46.1441 112.278 46.1672C110.796 46.2057 107.075 46.2981 105.526 46.3366C103.717 46.3827 103.375 46.4264 103.373 46.5393C103.373 46.6394 103.702 46.7292 105.506 46.742C107.044 46.7574 110.786 46.6445 112.255 46.5547C113.827 46.4623 114.157 46.3827 114.151 46.2878Z" fill="#181818"/>
<path d="M114.785 47.4862C114.79 47.3913 114.646 47.3143 113.905 47.2501C113.207 47.1808 111.419 47.1398 110.675 47.2039C109.803 47.2732 109.643 47.3913 109.661 47.4888C109.679 47.5991 109.834 47.6197 110.678 47.6094C111.398 47.5966 113.171 47.6299 113.869 47.6376C114.615 47.6376 114.777 47.5863 114.782 47.4888L114.785 47.4862Z" fill="#181818"/>
<path d="M120.157 48.872C120.157 48.8232 120.039 48.7796 119.614 48.7309C119.19 48.6795 118.464 48.6282 117.252 48.5871C116.107 48.5461 114.074 48.5281 112.029 48.5538C109.983 48.5769 107.925 48.6308 106.723 48.6667C103.905 48.7539 103.38 48.7591 103.37 48.872C103.362 48.9695 103.885 49.1004 106.692 49.0722C107.889 49.0542 109.942 49.0234 111.98 48.9926C114.018 48.9644 116.045 48.9644 117.188 48.9721C118.41 48.9772 119.151 48.9823 119.586 48.9695C120.021 48.9541 120.155 48.9208 120.155 48.872H120.157Z" fill="#181818"/>
<path d="M127.017 52.9087C127.017 52.8138 126.84 52.7548 125.978 52.7368C125.164 52.7214 123.091 52.7342 122.239 52.7394C121.238 52.7496 121.047 52.801 121.042 52.9087C121.037 53.0114 121.217 53.0961 122.218 53.1448C123.073 53.1885 125.149 53.1705 125.962 53.1243C126.834 53.0781 127.017 53.0063 127.015 52.9113L127.017 52.9087Z" fill="#181818"/>
<path d="M128.314 55.1773C128.314 55.0824 127.882 55.0233 125.764 55.0233C123.76 55.0233 118.655 55.0952 116.55 55.1517C114.08 55.2184 113.614 55.2928 113.614 55.398C113.614 55.5032 114.067 55.5648 116.521 55.5571C118.616 55.5494 123.713 55.4724 125.718 55.4109C127.861 55.3467 128.314 55.2748 128.311 55.1773H128.314Z" fill="#181818"/>
<path d="M128.944 58.3929C128.944 58.2979 128.491 58.244 126.258 58.2594C124.145 58.2748 118.762 58.3929 116.544 58.4673C113.94 58.5545 113.449 58.6341 113.454 58.7393C113.457 58.8445 113.935 58.901 116.519 58.8727C118.724 58.8471 124.094 58.7265 126.207 58.6469C128.466 58.5648 128.942 58.4878 128.942 58.3929H128.944Z" fill="#181818"/>
<path d="M83.1093 17.4121C83.0193 17.3941 82.8572 17.7919 82.5355 19.827C82.3837 20.7893 82.1547 22.501 81.9643 24.2307C81.7713 25.9604 81.6272 27.708 81.5835 28.7319C81.5295 29.9355 81.5578 30.6566 81.6427 31.0801C81.6864 31.2905 81.7405 31.4316 81.8254 31.5086C81.9283 31.5856 81.9695 31.5189 81.9772 31.5009C81.99 31.4778 81.9515 31.4676 81.9412 31.4188C81.9283 31.3726 81.9103 31.252 81.9051 31.057C81.8923 30.6669 81.9077 29.9663 81.99 28.7858C82.0569 27.7773 82.2113 26.0425 82.3992 24.3205C82.5844 22.5985 82.7954 20.892 82.9164 19.9271C83.1737 17.8663 83.2123 17.4301 83.1119 17.4095L83.1093 17.4121Z" fill="#181818"/>
<path d="M82.2783 31.4137C82.2911 31.4624 82.5742 31.4137 83.5288 31.1802C84.4834 30.9569 86.1071 30.5078 88.85 30.0048C89.4161 29.9047 90.08 29.7944 90.9214 29.6866C91.3408 29.6327 91.8065 29.5814 92.3263 29.5326C92.5887 29.5095 92.8615 29.4838 93.1523 29.4582C93.2989 29.4428 93.4482 29.43 93.6103 29.4017C93.6926 29.3889 93.7775 29.3709 93.8753 29.335C93.9216 29.317 94.004 29.276 94.0554 29.2221C94.0786 29.1939 94.1069 29.1631 94.1198 29.1297C94.13 29.0938 94.1481 29.0578 94.1558 29.0194C94.2021 28.6729 94.2536 28.3111 94.3024 27.9364C94.3539 27.5694 94.4079 27.1896 94.4646 26.7995C94.5752 26.0194 94.7039 25.2033 94.8325 24.3616C95.1001 22.6807 95.4012 20.9074 95.7202 19.1752C96.3532 15.7107 97.048 12.4079 97.578 10.3138C97.6321 10.0854 97.6964 9.8673 97.7504 9.65686C97.7787 9.55164 97.807 9.44643 97.8379 9.34634C97.8765 9.21546 97.9151 9.08972 97.9537 8.96397C97.9511 8.89725 97.9717 8.82796 97.9357 8.77663C97.9022 8.72274 97.8482 8.68938 97.7787 8.66372C97.7118 8.64062 97.6295 8.62522 97.5626 8.61496L97.4365 8.59699C97.2718 8.57646 97.1149 8.56363 96.9631 8.55337C96.6569 8.53284 96.3687 8.51744 96.0959 8.50717C95.5504 8.48664 95.0667 8.47638 94.6395 8.46868C93.7827 8.45585 93.1445 8.45841 92.6762 8.46868C91.7371 8.48664 91.4694 8.52514 91.4694 8.5739C91.4694 8.62266 91.7268 8.66628 92.6608 8.71504C93.1342 8.73557 93.7672 8.7638 94.6189 8.80229C95.0461 8.82282 95.5298 8.84592 96.0728 8.87415C96.3429 8.88955 96.6311 8.90751 96.9296 8.93317C97.0788 8.94601 97.2332 8.9614 97.3876 8.98193L97.5008 8.9999C97.5189 9.00246 97.5137 9.00246 97.5214 9.00503C97.5317 9.00503 97.5369 9.01529 97.5291 9.02299C97.5086 9.08715 97.488 9.15387 97.4674 9.2206C97.4365 9.31811 97.4082 9.41563 97.3799 9.51572C97.3259 9.71589 97.2667 9.92119 97.2101 10.1316C96.6517 12.2411 95.939 15.5695 95.2982 19.0597C94.9766 20.8047 94.673 22.5909 94.4054 24.2846C94.2767 25.1315 94.1506 25.9552 94.04 26.7379C93.986 27.1306 93.9345 27.5104 93.883 27.8799C93.8341 28.2443 93.7878 28.5959 93.7441 28.9321C93.7389 28.9372 93.7544 28.9321 93.7261 28.9449C93.6823 28.9629 93.6154 28.9783 93.5485 28.9886C93.4147 29.0117 93.2706 29.0271 93.1317 29.0424C92.8486 29.0681 92.5836 29.0938 92.3289 29.1194C91.8168 29.1682 91.3588 29.2221 90.9471 29.276C90.1211 29.3863 89.4701 29.4967 88.9118 29.6019C87.5146 29.8637 86.4055 30.1357 85.523 30.3641C84.6404 30.595 83.9868 30.7875 83.5031 30.9389C82.5407 31.2417 82.2654 31.3701 82.2783 31.4137Z" fill="#181818"/>
<path d="M96.7056 25.4651C96.6954 25.5241 96.6876 25.5805 96.6773 25.6396L95.872 25.0801C94.9739 23.1144 92.8074 22.9399 90.7257 23.8329C90.7257 23.8329 90.1828 22.3881 91.8013 16.8167C93.2088 15.6337 95.3162 15.6337 96.4509 17.2684C97.5085 18.7928 97.1791 22.5036 96.7056 25.4651Z" fill="#FFFEFF"/>
<path d="M90.8878 8.72018C90.8672 8.67655 90.7797 8.67912 90.5096 8.79203C90.2368 8.90238 89.8174 9.16928 89.1844 9.67996C88.59 10.1676 87.6122 11.1119 86.7013 12.1256C85.7853 13.1342 84.9156 14.194 84.4267 14.8279C83.2791 16.3086 83.1762 16.709 83.2688 16.7475C83.292 16.7577 83.3254 16.75 83.3743 16.7115C83.4232 16.6705 83.4849 16.6012 83.593 16.4806C83.7963 16.2419 84.1411 15.8159 84.7278 15.0999C85.2295 14.4891 86.0967 13.4447 87.0024 12.4438C87.903 11.4404 88.8499 10.4935 89.4108 9.99561C90.0104 9.4644 90.3912 9.16671 90.6202 9.00247C90.8492 8.84079 90.9084 8.76124 90.8878 8.71761V8.72018Z" fill="#181818"/>
<path d="M91.4694 8.57133C91.418 8.50974 91.0011 8.83566 90.5019 10.7809C90.363 11.2941 90.1931 12.0358 90.0233 12.8724C89.9384 13.2907 89.8535 13.7321 89.7712 14.1786C89.7043 14.5687 89.6348 14.9639 89.5679 15.3514L89.4521 15.3591C89.3543 15.3668 89.2591 15.3719 89.1639 15.3796C88.9735 15.3976 88.7856 15.4156 88.603 15.431C88.2376 15.4695 87.8851 15.5131 87.5583 15.5593C86.9021 15.6517 86.336 15.7569 85.9063 15.8493C84.7587 16.0931 84.0948 16.324 83.7192 16.4703C83.3435 16.6268 83.2534 16.7013 83.2714 16.75C83.2895 16.7988 83.4027 16.8091 83.7861 16.7218C84.172 16.6422 84.8282 16.4626 85.9552 16.2522C86.3823 16.1701 86.9484 16.0751 87.602 15.9878C87.9288 15.9442 88.2762 15.9032 88.6415 15.8672C88.8242 15.8518 89.0095 15.8339 89.1973 15.8185C89.2925 15.8108 89.3852 15.8056 89.483 15.7979C89.6374 15.7902 89.7917 15.7825 89.9487 15.7723C89.995 15.4951 90.0413 15.2154 90.0876 14.9331C90.1262 14.7098 90.1648 14.4891 90.2034 14.2684C90.2858 13.827 90.3655 13.3934 90.4427 12.9802C90.6023 12.1564 90.7541 11.4276 90.8724 10.922C91.3099 8.95627 91.5698 8.64319 91.4746 8.5739L91.4694 8.57133Z" fill="#181818"/>
<path d="M56.6422 47.2578C56.6988 47.2809 56.8249 47.1167 57.0951 46.4879C57.3575 45.8566 57.7821 44.7583 58.2581 42.8618C58.4717 41.9636 58.7599 40.7138 58.886 39.2357C58.904 39.0509 58.9066 38.861 58.9143 38.6685C58.9143 38.571 58.9117 38.4709 58.9091 38.3734C58.9091 38.3323 58.904 38.2553 58.8911 38.1886C58.8757 38.127 58.8602 38.0629 58.8397 38.009C58.6621 37.5702 58.3791 37.2648 58.0883 36.9645C57.4991 36.3794 56.8198 35.8892 56.1276 35.4325C55.7854 35.2066 55.4457 34.9808 55.1189 34.7498C54.7947 34.5189 54.4782 34.2776 54.2363 34.0133C54.1077 33.885 54.0228 33.7413 53.9533 33.6027C53.8941 33.4616 53.8735 33.3178 53.8787 33.1664C53.8993 33.015 53.9301 32.8559 54.0022 32.6994C54.0614 32.5326 54.1334 32.4145 54.2338 32.2888C54.4319 32.0475 54.7046 31.8576 54.9877 31.7062C55.2733 31.5548 55.5718 31.4368 55.8626 31.3316C56.1559 31.2238 56.4364 31.1416 56.7245 31.0185C56.7503 31.0108 56.8249 30.9671 56.8815 30.9389C56.9355 30.903 56.9922 30.8696 57.0307 30.8234C57.0745 30.7824 57.1054 30.731 57.1234 30.6746C57.1337 30.6489 57.1337 30.6181 57.144 30.5899L57.1337 30.5052C57.1131 30.3949 57.0668 30.2794 56.9999 30.1844C56.9536 30.1151 56.9201 30.0664 56.8789 30.0151C56.5136 29.548 56.1585 29.1862 55.8394 28.8525C55.5203 28.5215 55.2296 28.2366 54.9722 27.9851C54.4551 27.4847 54.0588 27.128 53.7629 26.8714C53.1711 26.3607 52.9729 26.2555 52.924 26.3068C52.8752 26.3581 52.9858 26.5403 53.5056 27.1075C53.7757 27.3923 54.1308 27.7747 54.612 28.2828C54.8539 28.542 55.1266 28.832 55.4328 29.1631C55.7339 29.4941 56.0787 29.8688 56.4055 30.2922C56.4724 30.3769 56.5599 30.5103 56.5367 30.4821C56.5419 30.4898 56.5316 30.4975 56.5238 30.5001L56.4621 30.5257L56.3695 30.5617C56.3026 30.5848 56.2357 30.6079 56.1687 30.631C56.0272 30.6797 55.8806 30.7285 55.7313 30.7772C55.4277 30.8825 55.1061 31.0005 54.7793 31.1647C54.4551 31.3316 54.118 31.5394 53.8349 31.8551C53.696 32.009 53.5699 32.2041 53.4876 32.3991C53.449 32.4966 53.4026 32.589 53.3743 32.6968L53.328 32.8559L53.3023 33.0253C53.2174 33.4898 53.4387 34.0133 53.7372 34.329C54.0305 34.6651 54.3676 34.9192 54.7046 35.1656C55.0417 35.4094 55.3865 35.6378 55.7287 35.8636C56.4081 36.3075 57.0616 36.7797 57.6123 37.3058C57.8824 37.5676 58.1372 37.855 58.271 38.1347C58.3019 38.204 58.325 38.2707 58.3302 38.3195C58.3353 38.3349 58.3327 38.3991 58.3353 38.4375V38.571C58.3405 38.7481 58.3327 38.9277 58.3225 39.1022C58.2247 40.5188 57.9596 41.7609 57.7692 42.6488C57.3421 44.5504 56.9793 45.677 56.7966 46.3468C56.6036 47.014 56.5753 47.227 56.6371 47.2501L56.6422 47.2578Z" fill="white"/>
<path d="M42.104 65.9864C42.0705 65.8581 41.7798 65.8632 40.3826 66.0942C39.7213 66.202 38.5505 66.3945 37.3643 66.5561C36.1781 66.7204 34.979 66.8513 34.2791 66.9334C32.6375 67.1182 32.3261 67.2105 32.3364 67.3568C32.3441 67.4928 32.6555 67.5775 34.3074 67.4723C35.0125 67.4235 36.2193 67.3081 37.4132 67.1387C38.6071 66.9719 39.7882 66.7563 40.4469 66.6075C41.8595 66.2867 42.1349 66.107 42.104 65.9864Z" fill="#181818"/>
<path d="M41.8364 55.765C41.9007 55.765 41.947 55.5417 41.965 54.7667C41.9753 53.9943 42.0011 52.6675 41.8853 50.4682C41.8312 49.4289 41.7412 47.9866 41.5868 46.3442C41.435 44.6992 41.2085 42.8592 40.9512 41.0167C40.6914 39.1741 40.3954 37.3341 40.133 35.6839C40.0043 34.8576 39.886 34.08 39.7753 33.3717C39.6621 32.666 39.5669 32.0347 39.5 31.4984C39.1758 28.9757 39.3147 27.4693 39.4099 26.6071C39.4357 26.3941 39.4563 26.217 39.4743 26.0681C39.4949 25.9244 39.5077 25.8115 39.5129 25.7268C39.5232 25.5549 39.5077 25.4882 39.4717 25.4779C39.4382 25.4676 39.3919 25.5164 39.325 25.6755C39.2556 25.832 39.1629 26.0989 39.0703 26.5301C38.9777 26.9612 38.8747 27.5591 38.8361 28.3727C38.7898 29.1862 38.813 30.2178 38.9519 31.4932C39.0111 32.0373 39.0986 32.6763 39.2067 33.382C39.3122 34.0877 39.4254 34.8653 39.5489 35.6891C39.8036 37.3392 40.097 39.1715 40.3568 41.0038C40.6167 42.8361 40.8509 44.6659 41.013 46.2955C41.1777 47.9276 41.2883 49.3596 41.3629 50.3964C41.525 52.6111 41.5662 53.9532 41.6434 54.7436C41.7103 55.5315 41.7721 55.7676 41.8364 55.765Z" fill="#181818"/>
<path d="M35.9879 26.0271C35.939 25.9912 35.7589 26.1272 35.2931 26.7226C35.0616 27.0228 34.7605 27.4385 34.3951 28.0211C34.0349 28.6088 33.5846 29.3453 33.1729 30.3692C33.1188 30.5155 33.0597 30.6669 33.0005 30.885C32.9748 30.998 32.9387 31.1211 32.9259 31.2854C32.9233 31.3752 32.9079 31.4471 32.9464 31.6087C32.9645 31.6806 32.9979 31.7524 33.0494 31.814C33.0983 31.8782 33.1755 31.9116 33.2526 31.95C33.3839 31.9937 33.5203 32.0399 33.6592 32.0861C33.7904 32.1323 33.9242 32.181 34.0606 32.2298C34.3359 32.3299 34.6241 32.4428 34.9175 32.5736C35.4938 32.8354 36.1448 33.1511 36.59 33.6438C36.6903 33.7695 36.7881 33.8978 36.8344 34.039C36.8524 34.0723 36.8576 34.1083 36.8653 34.1442C36.8705 34.1801 36.8885 34.2109 36.8859 34.2546C36.8859 34.3367 36.8936 34.4162 36.8936 34.4983C36.8756 34.8345 36.7495 35.1938 36.6029 35.5505C36.2992 36.2639 35.8669 36.9697 35.4835 37.7088C35.1053 38.4478 34.7168 39.2254 34.6576 40.1262C34.6627 40.2417 34.6653 40.3648 34.6782 40.4752L34.7373 40.7883C34.7785 40.9936 34.8403 41.1835 34.8917 41.3785C34.9535 41.5659 35.0152 41.7506 35.077 41.9354C35.1439 42.115 35.2108 42.2921 35.2751 42.4692C35.8181 43.8601 36.4073 45.038 36.8653 45.9131C38.0387 48.1304 38.9032 49.3545 39.4333 50.0397C39.9711 50.7197 40.1692 50.8686 40.2207 50.8275C40.2798 50.7813 40.1795 50.5709 39.7318 49.86C39.2918 49.144 38.5018 47.9174 37.3799 45.7258C36.9399 44.8532 36.3661 43.6779 35.8335 42.3126C35.7692 42.1407 35.7048 41.9688 35.6405 41.7917C35.5813 41.6146 35.5221 41.435 35.463 41.2553C35.3626 40.9012 35.2442 40.506 35.2417 40.1852C35.2494 39.8388 35.3497 39.4615 35.4835 39.0971C35.6276 38.7327 35.7975 38.3657 35.9879 38.0064C36.3636 37.2802 36.801 36.5719 37.1329 35.7917C37.2925 35.4017 37.4468 34.9988 37.47 34.5445C37.4751 34.4316 37.4648 34.3161 37.4623 34.2007C37.452 34.0877 37.4211 33.9594 37.3825 33.8517C37.3027 33.6258 37.1689 33.441 37.03 33.2768C36.7469 32.9535 36.4176 32.7328 36.0985 32.5403C35.7769 32.353 35.4552 32.2015 35.1465 32.0655C34.8351 31.9321 34.5366 31.8192 34.251 31.7191C34.1095 31.6703 33.9706 31.6241 33.8367 31.5779C33.7107 31.5369 33.5897 31.4984 33.4739 31.4625C33.4662 31.4625 33.4611 31.4548 33.4585 31.4496C33.4585 31.4573 33.4534 31.406 33.4559 31.3572C33.4636 31.2572 33.4791 31.1596 33.4997 31.0749C33.5408 30.9004 33.5846 30.7696 33.6283 30.6438C33.986 29.6609 34.4131 28.8988 34.7399 28.2982C35.077 27.6977 35.3472 27.2589 35.5453 26.9304C35.9441 26.276 36.0471 26.0656 35.993 26.0271H35.9879Z" fill="white"/>
<path d="M56.5083 66.6716C56.5649 66.6716 56.6524 66.4176 56.6318 65.5142C56.6164 65.0651 56.5649 64.4518 56.4054 63.646C56.2381 62.8428 55.9731 61.8342 55.3684 60.6768C55.1137 60.2098 54.7997 59.6657 54.3263 59.1448C53.8631 58.6212 53.243 58.1131 52.4608 57.7975C51.6888 57.469 50.7574 57.3843 49.8619 57.5588C49.7513 57.5819 49.6381 57.6076 49.5274 57.6307L49.1981 57.7282C48.9768 57.7949 48.7786 57.8642 48.5651 57.9335C48.1456 58.0721 47.7211 58.2106 47.2939 58.3492C46.8668 58.4878 46.4397 58.6289 46.0125 58.7675L45.3667 58.978C45.148 59.0524 44.9395 59.1191 44.7028 59.2269C44.6719 59.2423 44.6411 59.2577 44.5973 59.2833C44.5767 59.2987 44.551 59.3167 44.533 59.3321L44.4944 59.3655C44.4481 59.4091 44.4018 59.4501 44.3606 59.4963C44.2731 59.5862 44.1959 59.6785 44.1239 59.7709C43.9772 59.9583 43.8511 60.1533 43.7327 60.3483C43.4986 60.741 43.3056 61.1413 43.1281 61.5365C42.7807 62.3321 42.5079 63.1173 42.2815 63.8641C42.1683 64.2362 42.0679 64.6006 41.983 64.9548C41.9393 65.1319 41.9007 65.3064 41.8672 65.4809C41.8492 65.5681 41.8364 65.6554 41.8235 65.7478C41.8183 65.7811 41.8055 65.8838 41.8235 65.9531C41.8286 65.9916 41.8338 66.0301 41.8492 66.0634L41.8595 66.0891C41.8389 66.1096 41.8595 66.107 41.8595 66.1199L41.8878 66.1686C41.9521 66.2302 42.0268 66.3072 42.0782 66.3354C42.1297 66.3714 42.1786 66.4022 42.23 66.4253C42.3304 66.4792 42.4282 66.5074 42.5234 66.5382C42.7112 66.5921 42.8862 66.6126 43.0483 66.628C43.3725 66.6537 43.6504 66.6434 43.9 66.628C44.3966 66.5895 44.7774 66.5253 45.1197 66.4561C45.4876 66.3791 45.817 66.3123 46.136 66.2739C46.4525 66.2405 46.7536 66.22 47.0366 66.2431C47.6027 66.2713 48.0865 66.4124 48.493 66.5895C49.3061 66.9565 49.7899 67.4492 50.1398 67.7956C50.3019 67.983 50.4512 68.1267 50.5541 68.2576C50.657 68.3885 50.7419 68.4885 50.8088 68.5604C50.9426 68.7067 51.0095 68.7477 51.0404 68.7298C51.0713 68.7118 51.061 68.64 50.9761 68.4603C50.9349 68.3705 50.8732 68.2576 50.7882 68.1087C50.7059 67.9599 50.5721 67.7982 50.4203 67.5878C50.0961 67.1977 49.6175 66.6383 48.74 66.1943C48.3052 65.9762 47.7674 65.794 47.1421 65.7426C46.522 65.6836 45.817 65.7606 45.0965 65.912C44.7594 65.9762 44.3863 66.0378 43.9103 66.0737C43.6736 66.0891 43.4085 66.0994 43.1229 66.0763C42.9814 66.0609 42.8322 66.0455 42.6906 66.0044C42.6212 65.9839 42.5491 65.9608 42.4899 65.93C42.4565 65.9171 42.4282 65.8992 42.405 65.8812C42.3741 65.8607 42.3844 65.8684 42.3819 65.8658C42.3819 65.8658 42.3819 65.8658 42.3819 65.8607L42.387 65.8248C42.3973 65.7555 42.4102 65.6733 42.4256 65.5938C42.4565 65.4347 42.4951 65.2679 42.5388 65.0985C42.6237 64.7598 42.7215 64.4082 42.8322 64.0463C43.0534 63.3226 43.321 62.5605 43.653 61.8009C43.8202 61.421 44.0055 61.0412 44.2191 60.682C44.3246 60.5023 44.4404 60.3278 44.5639 60.1636C44.6256 60.0814 44.6899 60.0045 44.7594 59.9326C44.7929 59.8967 44.8263 59.8607 44.8623 59.83L44.9138 59.7838C44.9138 59.7838 44.9138 59.7838 44.9292 59.7735C45.0811 59.6991 45.3075 59.6221 45.5108 59.5528L46.1438 59.3449C46.5709 59.2038 46.9955 59.0652 47.42 58.9241C47.8446 58.7829 48.2666 58.6443 48.686 58.5058C48.8944 58.4365 49.1028 58.3697 49.3087 58.3005C49.5068 58.2414 49.6998 58.1747 49.8979 58.1413C50.0935 58.09 50.2942 58.0772 50.4898 58.0515C50.6853 58.0515 50.8809 58.0284 51.0739 58.0515C51.4598 58.0695 51.8252 58.1619 52.1674 58.2851C52.8519 58.5443 53.418 58.9703 53.8528 59.4322C54.2903 59.8967 54.6068 60.3894 54.8589 60.8205C55.4636 61.9138 55.7621 62.8915 55.9628 63.6742C56.1583 64.4595 56.2458 65.0626 56.3076 65.5091C56.4157 66.4047 56.4362 66.6768 56.5083 66.6768V66.6716Z" fill="#181818"/>
<path d="M45.5419 57.9438C45.5779 57.9027 45.5316 57.741 45.1147 57.4485C45.0092 57.3766 44.878 57.3022 44.7159 57.2303C44.6336 57.1944 44.5461 57.161 44.4483 57.1277C44.3557 57.0969 44.2579 57.0661 44.155 57.0302C43.7381 56.8942 43.2158 56.7299 42.5622 56.5323C42.4207 56.4912 42.2689 56.4451 41.9215 56.3424L41.1598 56.1166L41.6359 56.7556L41.9189 56.3424C39.3638 55.5725 33.5074 54.1534 30.9986 53.5991C27.8774 52.9036 27.265 52.8625 27.2341 52.9986C27.2032 53.1371 27.7513 53.3501 30.8313 54.1123C33.3247 54.7282 39.2223 56.1525 41.7748 56.848L42.5365 57.0558L42.0579 56.4348L41.7722 56.848C42.0887 56.9352 42.2277 56.9737 42.3563 57.0096C43.0279 57.1893 43.5657 57.3304 44.0006 57.4356C44.2193 57.4921 44.4071 57.5306 44.5564 57.5742C44.7082 57.6204 44.8368 57.6692 44.9449 57.7154C45.3695 57.9104 45.4981 57.9951 45.5444 57.9386L45.5419 57.9438Z" fill="#181818"/>
<path d="M52.0723 67.7058C52.1366 67.7058 52.188 67.6699 52.2318 67.5365C52.273 67.403 52.3064 67.1695 52.2678 66.7717C52.2421 66.587 52.1983 66.3226 52.0903 66.0403C51.9848 65.758 51.8227 65.4578 51.6348 65.1858C51.2566 64.6417 50.8114 64.1772 50.5464 63.9155C49.916 63.3047 49.7333 63.2585 49.6329 63.356C49.53 63.4561 49.584 63.628 50.1424 64.2773C50.3791 64.5545 50.8011 65.0164 51.1434 65.504C51.3132 65.7478 51.4573 65.9993 51.5576 66.2328C51.658 66.4663 51.7146 66.6845 51.7532 66.8436C51.8304 67.1849 51.8664 67.4056 51.9101 67.5365C51.9539 67.6674 52.0079 67.7084 52.0723 67.7084V67.7058Z" fill="#181818"/>
<path d="M53.5674 67.421C53.6317 67.4158 53.6806 67.3748 53.7115 67.2311C53.7424 67.0874 53.7578 66.8436 53.7141 66.4407C53.6755 66.0609 53.5442 65.3808 53.2869 64.7392C53.0373 64.0951 52.6848 63.4997 52.4661 63.1687C51.9438 62.3962 51.7611 62.3115 51.6453 62.386C51.5243 62.4655 51.5552 62.6503 51.9952 63.4356C52.1805 63.7717 52.4996 64.3415 52.7337 64.9368C52.9782 65.5296 53.1222 66.1507 53.1994 66.5048C53.2844 66.8821 53.3332 67.1156 53.3899 67.2516C53.4439 67.3876 53.5031 67.4261 53.5648 67.421H53.5674Z" fill="#181818"/>
<path d="M55.5589 67.1387C55.6798 67.1233 55.757 66.9052 55.6309 65.8761C55.5666 65.3911 55.4225 64.5288 55.1523 63.6819C54.8976 62.8299 54.4602 62.0139 54.1257 61.5956C53.7346 61.0977 53.4129 60.8821 53.2225 60.7795C53.0244 60.682 52.9472 60.6948 52.906 60.7513C52.8648 60.8077 52.8751 60.8898 52.9986 61.0438C53.1196 61.2029 53.3589 61.4365 53.6805 61.8984C53.9558 62.291 54.3444 63.0301 54.5914 63.8359C54.8539 64.634 55.0185 65.4681 55.1215 65.9377C55.3325 66.9437 55.4277 67.1541 55.5615 67.1361L55.5589 67.1387Z" fill="#181818"/>
<path d="M49.2446 29.9612C49.1803 29.9407 49.1108 30.0074 48.959 30.2306C48.8792 30.341 48.7763 30.4898 48.6039 30.6618C48.4366 30.8337 48.2076 31.0365 47.8731 31.2264C47.5618 31.406 47.0857 31.5985 46.5145 31.7011C45.9433 31.7986 45.2768 31.7986 44.6336 31.6626C43.9903 31.5292 43.3753 31.2623 42.8864 30.9312C42.3949 30.6028 42.0244 30.2255 41.7697 29.9304C41.1907 29.2221 40.9643 28.7089 40.7945 28.4343C40.6401 28.1494 40.5526 28.0827 40.4857 28.1058C40.4188 28.1289 40.3931 28.229 40.4702 28.5574C40.5603 28.8757 40.7353 29.4479 41.3348 30.2512C41.5947 30.5874 41.9935 31.0159 42.539 31.3906C43.0768 31.773 43.7638 32.0707 44.4792 32.2272C44.8368 32.3068 45.2022 32.3401 45.5573 32.3504C45.9124 32.353 46.2572 32.3222 46.5788 32.2657C47.2195 32.1451 47.7548 31.9116 48.1073 31.6909C48.8663 31.2084 49.1391 30.6797 49.242 30.3898C49.3398 30.0869 49.3038 29.9817 49.2472 29.9638L49.2446 29.9612Z" fill="#181818"/>
<path d="M48.3208 10.9503C48.416 11.0426 48.5266 11.0298 48.8406 10.822C48.9898 10.7244 49.2497 10.5576 49.5379 10.437C49.8235 10.3138 50.1323 10.2317 50.3175 10.1855C50.7472 10.0752 50.8373 9.99818 50.8244 9.84934C50.8142 9.71589 50.7241 9.61067 50.2275 9.65173C50.0165 9.6697 49.6537 9.74925 49.314 9.89809C48.9718 10.0444 48.6707 10.2676 48.5266 10.4139C48.2179 10.7296 48.2359 10.863 48.3234 10.9477L48.3208 10.9503Z" fill="#181818"/>
<path d="M51.043 11.8972C51.043 12.2 50.85 12.4438 50.6133 12.4438C50.3766 12.4438 50.1836 12.1975 50.1836 11.8972C50.1836 11.5969 50.3766 11.3506 50.6133 11.3506C50.85 11.3506 51.043 11.5969 51.043 11.8972Z" fill="#1C1C1C"/>
<path d="M54.8205 10.7963C54.8205 11.0427 54.6636 11.2428 54.468 11.2428C54.2724 11.2428 54.1155 11.0427 54.1155 10.7963C54.1155 10.5499 54.2724 10.3498 54.468 10.3498C54.6636 10.3498 54.8205 10.5499 54.8205 10.7963Z" fill="#1C1C1C"/>
<path d="M54.998 8.46356C55.0263 8.34807 54.9645 8.21463 54.5965 8.19666C54.4267 8.1941 54.1128 8.24029 53.8349 8.4071C53.5544 8.56364 53.3409 8.8254 53.2688 8.99221C53.1736 9.18724 53.1633 9.31556 53.1839 9.39511C53.2019 9.47467 53.2508 9.50803 53.3203 9.52856C53.3872 9.54909 53.4489 9.55165 53.5107 9.51316C53.5699 9.47467 53.6342 9.39768 53.7268 9.27963C53.804 9.17441 53.9455 9.01787 54.1282 8.91265C54.3058 8.79974 54.5219 8.74328 54.6429 8.71248C54.9053 8.64833 54.9697 8.59444 54.998 8.46356Z" fill="#181818"/>
<path d="M52.9035 14.3839C52.9498 14.4276 53.0116 14.4404 53.1119 14.4019C53.2149 14.3634 53.359 14.2838 53.6188 14.1273C53.7398 14.0478 53.9199 13.9425 54.1154 13.7424C54.2107 13.6397 54.3084 13.5011 54.3625 13.3343C54.4165 13.1598 54.4216 13.0007 54.4114 12.8493C54.3547 12.2334 54.0485 11.7586 53.8761 11.4969C53.4439 10.8938 53.2689 10.8656 53.1634 10.9451C53.045 11.035 53.0785 11.1812 53.4104 11.7689C53.5442 12.0178 53.7887 12.4618 53.8273 12.8801C53.8427 13.1085 53.817 13.2188 53.7012 13.3574C53.5905 13.4909 53.4336 13.6089 53.3255 13.7013C53.0862 13.8963 52.9447 14.0529 52.8906 14.1658C52.8366 14.2787 52.8546 14.3403 52.9009 14.3839H52.9035Z" fill="#181818"/>
<path d="M51.4446 21.726C51.3237 21.6824 51.1667 21.8646 50.7447 22.8963C50.3459 23.8714 49.4247 26.3915 49.0773 27.4411C48.8895 28.0596 48.7325 28.3573 48.6399 28.5549C48.5473 28.7448 48.5396 28.8243 48.591 28.8757C48.6399 28.9244 48.73 28.9295 48.9127 28.7704C49.0902 28.619 49.3552 28.2572 49.5791 27.6464C49.9857 26.6225 50.8991 24.1024 51.2208 23.0964C51.5656 22.0212 51.5656 21.7697 51.4446 21.726Z" fill="#181818"/>
<path d="M48.2977 29.122C48.2591 29.0656 48.1845 29.0656 47.9941 29.1169C47.8037 29.1682 47.4923 29.2709 46.9288 29.3196C46.6638 29.3453 46.2855 29.3581 45.8507 29.3504C45.421 29.3402 44.9038 29.3325 44.4535 29.2657C43.9929 29.1913 43.5451 29.0296 43.1695 28.8346C42.7938 28.6396 42.485 28.4137 42.2663 28.2392C41.7568 27.8209 41.4995 27.5155 41.3271 27.359C41.1573 27.1973 41.0801 27.1691 41.0158 27.2076C40.9566 27.2435 40.936 27.3308 41.0389 27.554C41.147 27.7747 41.3683 28.1468 41.8983 28.6344C42.1248 28.8397 42.4567 29.1015 42.8761 29.3299C43.293 29.5583 43.8025 29.7508 44.3299 29.8354C44.8729 29.9176 45.3592 29.9099 45.8172 29.9124C46.2701 29.9099 46.6715 29.8791 46.9622 29.8329C47.5849 29.7354 47.9529 29.5455 48.133 29.4017C48.3157 29.2555 48.3312 29.1682 48.2977 29.1169V29.122Z" fill="#181818"/>
<path d="M40.8227 26.7302C40.8793 26.7585 40.99 26.6609 41.2267 26.2503C41.4609 25.8397 41.8288 25.1135 42.3151 23.8586C42.6059 23.1067 43.0047 21.9749 43.365 20.7046C43.5451 20.0682 43.7201 19.401 43.8642 18.726C43.9362 18.3899 44.0031 18.0511 44.052 17.7098C44.0751 17.5379 44.0983 17.3685 44.106 17.1888C44.106 17.1452 44.1086 17.099 44.1086 17.0503C44.1086 16.9861 44.1035 16.8912 44.0854 16.8193C44.0674 16.7423 44.0391 16.673 43.9877 16.6191C43.9413 16.5575 43.8667 16.5447 43.7998 16.5114C43.7201 16.4934 43.6403 16.4754 43.5605 16.46C43.5065 16.4498 43.455 16.4369 43.4036 16.4215C43.3006 16.3907 43.1951 16.3702 43.0999 16.3343C42.9044 16.2701 42.714 16.1983 42.5441 16.1136C42.2045 15.9468 41.9137 15.7363 41.7465 15.49C41.5715 15.2488 41.5072 14.9844 41.5329 14.7329C41.5406 14.6123 41.5741 14.4789 41.605 14.3839C41.6384 14.2967 41.6847 14.2325 41.7439 14.1786C41.9446 14.0092 42.2894 13.9656 42.5802 13.9502C42.8786 13.9348 43.154 13.9451 43.401 13.9502C43.895 13.963 44.2759 13.9554 44.5563 13.9092C44.8368 13.8655 45.0143 13.7937 45.1095 13.7295C45.2047 13.6628 45.2253 13.6166 45.2099 13.5858C45.1713 13.5114 45.0478 13.5653 44.5435 13.5627C44.2913 13.5627 43.9413 13.5345 43.4525 13.4909C43.208 13.4703 42.9275 13.4447 42.6007 13.4472C42.4361 13.4472 42.2585 13.4575 42.0655 13.4909C41.8726 13.5268 41.6538 13.5807 41.4428 13.7347C41.3116 13.8296 41.1855 13.9733 41.1109 14.1427C41.0697 14.2299 41.0492 14.3121 41.0286 14.3916C41.0028 14.4712 40.99 14.5584 40.9797 14.6482C40.954 14.8279 40.9668 15.0255 41.0054 15.2231C41.0569 15.4181 41.1341 15.6234 41.2602 15.7979C41.502 16.1598 41.87 16.4267 42.2714 16.6294C42.4721 16.7346 42.6882 16.8167 42.9095 16.8886C43.0202 16.9297 43.1334 16.9553 43.2492 16.9887C43.3058 17.0066 43.365 17.0195 43.4241 17.0323L43.5116 17.0528C43.5322 17.058 43.5168 17.0528 43.5219 17.0528C43.5219 17.0888 43.5219 17.1273 43.5219 17.1658C43.5142 17.312 43.4962 17.4711 43.473 17.6277C43.4267 17.9459 43.365 18.2718 43.2955 18.5977C43.1565 19.2496 42.9919 19.904 42.822 20.525C42.4798 21.7696 42.1119 22.8834 41.852 23.6276C41.4094 24.8954 41.1006 25.6524 40.9437 26.1041C40.7816 26.5557 40.7635 26.7071 40.8227 26.7354V26.7302Z" fill="#181818"/>
<path d="M52.1831 7.4627C52.2139 7.51659 52.3658 7.47297 52.8161 7.28306C53.0425 7.19068 53.3461 7.06493 53.7604 6.94945C53.9662 6.89812 54.2004 6.84423 54.4577 6.83397C54.5838 6.83397 54.7202 6.83397 54.8488 6.86219C54.9131 6.87246 54.9775 6.89299 55.0367 6.91609C55.0675 6.92635 55.101 6.94431 55.0933 6.94175C55.0984 6.94688 55.1061 6.94945 55.1087 6.95715C55.1422 7.22147 55.1808 7.51659 55.2245 7.83481C55.4355 9.52341 55.7777 12.5567 55.9141 15.5875V16.1393C55.9038 16.3215 55.8703 16.5011 55.8498 16.6807L55.8137 16.9502C55.7932 17.0374 55.7674 17.1221 55.7443 17.2094C55.6902 17.3788 55.6619 17.5584 55.5925 17.7201C55.3532 18.3847 54.9415 18.9519 54.4757 19.4035C53.5314 20.3043 52.3555 20.7303 51.5346 20.8689C51.0483 20.9613 50.6109 20.8945 50.2249 20.7945C49.839 20.6969 49.5147 20.5327 49.2368 20.3762C48.6836 20.0528 48.3131 19.732 48.0455 19.4959C47.518 19.0135 47.3765 18.8698 47.3121 18.916C47.2607 18.9519 47.307 19.1649 47.783 19.7269C48.0275 20.0015 48.38 20.3685 48.9615 20.7508C49.103 20.8535 49.2729 20.933 49.4427 21.0306C49.6254 21.1075 49.8132 21.2076 50.0345 21.2667C50.2481 21.3436 50.4874 21.3821 50.7395 21.4258C50.8682 21.4309 50.9994 21.436 51.1358 21.4437C51.2722 21.4514 51.406 21.4232 51.5475 21.4129C52.0338 21.3642 52.5587 21.1999 53.1274 20.9613C53.6909 20.7175 54.2853 20.3659 54.8205 19.8732C55.3532 19.383 55.8343 18.7466 56.1071 18.0024C56.1971 17.8253 56.2306 17.6277 56.2898 17.4378C56.3438 17.2453 56.403 17.0528 56.4184 16.8552C56.4442 16.6576 56.4699 16.46 56.4956 16.2599C56.5008 16.0623 56.4956 15.8621 56.4982 15.6645C56.5085 15.259 56.4673 14.8895 56.4467 14.5071C56.4184 14.1273 56.3901 13.7526 56.3644 13.3805C56.3026 12.6389 56.2383 11.9203 56.1688 11.2428C56.0299 9.89039 55.8781 8.70734 55.7494 7.85534C55.7185 7.6603 55.6902 7.47297 55.6619 7.29589C55.6259 7.08546 55.5925 6.88272 55.559 6.69282C55.505 6.63893 55.4432 6.5953 55.3789 6.55424C55.3017 6.51062 55.2554 6.49265 55.2091 6.47725C55.1138 6.44389 55.0212 6.4208 54.9337 6.40796C54.7536 6.37717 54.5889 6.38487 54.4345 6.39257C54.1283 6.4208 53.8736 6.49522 53.6497 6.56707C53.2097 6.72362 52.9061 6.89042 52.69 7.0213C52.2577 7.29076 52.1548 7.42164 52.1831 7.46783V7.4627Z" fill="#181818"/>
<path d="M50.127 16.401C50.0189 16.4523 49.9417 16.5576 50.1064 16.827C50.1836 16.9528 50.374 17.1375 50.6004 17.2581C50.8268 17.3813 51.0739 17.4403 51.218 17.4532C51.5602 17.4737 51.6219 17.3685 51.6271 17.2325C51.6348 17.0862 51.5808 17.0092 51.3286 16.9245C51.2205 16.8886 51.0404 16.8296 50.8783 16.7449C50.7162 16.6628 50.5772 16.555 50.4975 16.4934C50.3302 16.3625 50.2453 16.3446 50.1244 16.4036L50.127 16.401Z" fill="#181818"/>
<path d="M51.2181 1.72195C51.2618 1.67576 51.2747 1.61674 51.2104 1.51152C51.1795 1.45506 51.1254 1.39604 51.0405 1.32931C50.9582 1.25746 50.8373 1.19074 50.6803 1.12658C50.3844 0.998266 49.8157 0.928977 49.2831 1.02136C48.7479 1.09578 48.2487 1.28825 47.9708 1.41657C47.3224 1.73222 47.2606 1.89646 47.3224 2.01451C47.3918 2.14539 47.5385 2.14282 48.1638 1.91956C48.4314 1.82974 48.8945 1.66806 49.3577 1.59877C49.8234 1.51409 50.2712 1.55258 50.5053 1.61417C50.7575 1.67576 50.9067 1.73735 51.0071 1.76558C51.1074 1.79124 51.1718 1.77328 51.2155 1.72452L51.2181 1.72195Z" fill="white"/>
<path d="M45.3153 6.51574C45.3694 6.40026 45.3359 6.28734 45.004 6.08974C44.6901 5.89983 43.8384 5.52773 43.4653 5.42251C43.0304 5.29419 42.9172 5.35322 42.8709 5.4841C42.822 5.61754 42.8683 5.72533 43.262 5.92293C43.5991 6.08717 44.4379 6.44388 44.7827 6.5568C45.1507 6.67485 45.2613 6.63379 45.3153 6.5183V6.51574Z" fill="white"/>
<path d="M18.6783 35.2015C18.6397 35.2297 18.65 35.3042 18.7761 35.4992C18.9124 35.6814 19.1646 36.0125 19.7667 36.3204C20.0523 36.4564 20.4795 36.613 20.9941 36.6155C21.4984 36.6207 22.1083 36.5 22.5663 36.0689C22.7927 35.8687 22.96 35.548 22.9728 35.2297C22.9857 34.909 22.8776 34.6215 22.7412 34.3931C22.4582 33.9389 22.098 33.6592 21.8355 33.4667C21.1974 33.0381 20.7548 32.9073 20.5052 32.8405C20.2479 32.7867 20.1707 32.8046 20.1527 32.8534C20.1373 32.9047 20.1861 32.9663 20.4049 33.0818C20.6159 33.2075 21.0121 33.3718 21.5782 33.7849C21.8124 33.9646 22.1263 34.2315 22.3579 34.5933C22.4608 34.7781 22.5405 34.9834 22.5354 35.1861C22.5328 35.3863 22.4453 35.5813 22.2755 35.7379C21.959 36.0561 21.4521 36.1921 21.025 36.1921C20.5875 36.2049 20.2119 36.0843 19.9546 35.9817C19.4065 35.7404 19.1363 35.4735 18.9588 35.3427C18.7915 35.1989 18.7169 35.1707 18.6783 35.2015Z" fill="#181818"/>
<path d="M12.5981 67.1387C12.6547 67.1079 12.5518 66.8128 12.0732 65.8556C11.592 64.9009 10.7352 63.2816 9.25305 60.623C8.3962 59.0858 7.11736 56.8326 5.66355 54.3587C4.93535 53.1243 4.16599 51.8309 3.37347 50.5504C2.97978 49.9088 2.5758 49.2724 2.17697 48.6462C1.97369 48.3331 1.77299 48.0226 1.57228 47.7172C1.37158 47.4169 1.17088 47.1193 0.972745 46.8241C0.972745 46.819 0.972745 46.8395 0.972745 46.7882C0.972745 46.742 0.980464 46.6881 0.990757 46.6291C1.01134 46.5136 1.04479 46.3904 1.07824 46.2672C1.15029 46.0235 1.2352 45.7771 1.32526 45.5384C1.50538 45.0585 1.70608 44.5915 1.90421 44.1398C2.30562 43.2391 2.71475 42.3973 3.10844 41.6172C3.89581 40.0594 4.624 38.7481 5.20553 37.7318C6.96812 34.6677 8.18263 32.9483 8.88767 31.9577C9.60042 30.9723 9.79855 30.7003 9.74194 30.6489C9.69305 30.6053 9.41516 30.7952 8.63035 31.7216C7.85584 32.6532 6.5873 34.3341 4.78611 37.3777C4.184 38.4016 3.43265 39.7284 2.62212 41.3118C2.21814 42.1048 1.79614 42.9593 1.38444 43.8806C1.17859 44.3426 0.972745 44.8199 0.782334 45.3203C0.687129 45.5718 0.597069 45.8284 0.517303 46.0979C0.478706 46.2339 0.440109 46.3699 0.414378 46.5213C0.401512 46.5957 0.388646 46.6753 0.386073 46.7677C0.380927 46.8498 0.398939 47.0089 0.470986 47.1244C0.67169 47.4221 0.874966 47.7249 1.07824 48.0303C1.27637 48.3331 1.4745 48.6385 1.67521 48.9464C2.07147 49.5649 2.4703 50.1911 2.85884 50.8249C3.64364 52.0875 4.40786 53.363 5.13348 54.5794C6.57958 57.0173 7.86099 59.2372 8.73328 60.7487C10.272 63.4151 11.2009 65.0318 11.7696 65.9685C12.3382 66.9052 12.5415 67.1669 12.5981 67.1361V67.1387Z" fill="#181818"/>
<path d="M14.6437 30.1742C14.6668 30.1306 14.5845 30.0484 14.2731 29.8252C13.9592 29.6019 13.4189 29.2195 12.4719 28.6395C12.0217 28.3701 11.3938 28.0005 10.6219 27.6567C10.2359 27.4873 9.81391 27.3256 9.34303 27.2332C9.10631 27.1896 8.85928 27.1614 8.59683 27.187C8.33694 27.2101 8.0539 27.3077 7.84033 27.5078C7.79144 27.5592 7.7374 27.6105 7.69881 27.6669L7.58559 27.8414C7.52384 27.9672 7.4698 28.1032 7.45693 28.2469C7.42091 28.5343 7.5084 28.8115 7.62419 29.0373C7.87378 29.4813 8.21858 29.8046 8.55308 30.0767C9.22724 30.6181 9.88853 30.9826 10.3749 31.2469C11.5276 31.8474 12.2481 32.1168 12.6701 32.2657C13.0946 32.4094 13.2207 32.4094 13.2439 32.3632C13.267 32.3144 13.1693 32.2298 12.7833 32.0296C12.3999 31.8243 11.7103 31.5163 10.6013 30.9081C10.133 30.6438 9.49227 30.2794 8.85929 29.7687C8.54794 29.5146 8.23144 29.217 8.03074 28.8679C7.93553 28.6934 7.87378 28.5087 7.88407 28.3342C7.88407 28.1622 7.98957 27.9877 8.11051 27.8543C8.35238 27.5899 8.80268 27.5745 9.2118 27.6464C9.62865 27.7234 10.0326 27.8671 10.4032 28.0236C11.1468 28.3393 11.7746 28.6934 12.2275 28.9449C13.1924 29.4941 13.7714 29.8457 14.1316 30.0202C14.4918 30.1998 14.6205 30.2152 14.6411 30.1716L14.6437 30.1742Z" fill="#181818"/>
<path d="M49.8312 28.9398C49.772 28.9629 49.8029 29.199 50.0371 29.9612C50.1632 30.3384 50.3098 30.8594 50.5157 31.5548C50.5671 31.7293 50.6237 31.9141 50.6829 32.1091C50.737 32.3067 50.7936 32.5172 50.8528 32.7404C50.9685 33.187 51.1178 33.6746 51.249 34.2289C51.7919 36.3075 52.5999 40.0415 53.2432 43.8344C53.889 47.6274 54.4139 51.4691 54.7073 53.712C55.0521 56.345 55.2554 57.913 55.3969 58.8189C55.5384 59.7247 55.6233 59.9711 55.6928 59.9634C55.7623 59.9557 55.7957 59.7093 55.7443 58.806C55.6928 57.9027 55.5564 56.345 55.2528 53.7171C54.9929 51.4768 54.4834 47.6325 53.835 43.8344C53.1917 40.0338 52.358 36.2896 51.7739 34.2032C51.1538 31.9706 50.6803 30.6438 50.351 29.8867C50.0242 29.1271 49.8904 28.9167 49.8312 28.9424V28.9398Z" fill="#181818"/>
<path d="M88.2788 30.4308C88.2454 30.4744 88.3431 30.6541 88.8912 31.0519C89.1691 31.2443 89.5679 31.4881 90.1598 31.6934C90.7516 31.8859 91.5621 32.0245 92.5373 31.8551C92.9876 31.7781 93.5486 31.6318 94.0992 31.3008C94.6473 30.9749 95.1671 30.4667 95.5633 29.8457C96.3584 28.5934 96.7598 26.9971 97.0094 25.4215C97.259 23.8483 97.4365 22.2521 97.4417 20.8022C97.4417 20.0785 97.4005 19.3882 97.2873 18.7646C97.1741 18.141 96.9888 17.5764 96.6929 17.1427C96.361 16.6525 95.9287 16.3035 95.5016 16.0854C95.0718 15.8672 94.6447 15.7774 94.2742 15.7543C93.5228 15.7261 92.9902 15.9211 92.6402 16.0956C92.4653 16.1906 92.3263 16.2701 92.2234 16.3523C92.1153 16.4267 92.0407 16.496 91.9918 16.5524C91.8863 16.6628 91.8657 16.7192 91.8863 16.7475C91.9095 16.7757 91.9687 16.7706 92.0973 16.7115C92.1616 16.6808 92.244 16.6397 92.3546 16.5935C92.4601 16.5396 92.5965 16.4857 92.7612 16.4216C93.0931 16.3035 93.5666 16.1649 94.2047 16.2163C94.5186 16.2471 94.8737 16.3292 95.2262 16.5139C95.5787 16.6987 95.9287 16.9887 96.2169 17.3993C96.451 17.7355 96.6234 18.2256 96.7264 18.7979C96.8293 19.3728 96.8705 20.0297 96.8679 20.7278C96.8627 22.1264 96.6878 23.6969 96.4485 25.2495C96.2117 26.7918 95.8386 28.3239 95.1362 29.4685C94.794 30.0433 94.3565 30.495 93.8934 30.7927C93.4302 31.0929 92.9567 31.2443 92.5373 31.3316C91.647 31.5189 90.9085 31.4368 90.3476 31.2905C89.7841 31.1417 89.3827 30.9389 89.0893 30.7901C88.5078 30.477 88.3303 30.3692 88.2865 30.4283L88.2788 30.4308Z" fill="#181818"/>
<path d="M96.1344 19.1828C96.1884 19.1495 96.2116 19.0905 96.1601 18.9467C96.1061 18.8082 95.9543 18.5695 95.5734 18.3565C95.2184 18.1435 94.5005 18.0075 93.8289 18.0922C93.1496 18.1589 92.5089 18.3693 92.1538 18.5207C91.7318 18.6952 91.5028 18.839 91.3818 18.9442C91.2609 19.0494 91.248 19.1187 91.2789 19.1828C91.3098 19.247 91.3715 19.2804 91.5259 19.2598C91.6777 19.2367 91.9248 19.1597 92.3313 19.0314C92.6761 18.9185 93.2782 18.7363 93.8778 18.6747C94.4799 18.5926 95.0562 18.6927 95.3393 18.8133C95.6481 18.9365 95.7999 19.0725 95.9105 19.1392C96.016 19.2111 96.0855 19.2162 96.1421 19.1828H96.1344Z" fill="#181818"/>
<path d="M90.7257 21.9134C90.7668 21.9621 90.8337 21.9775 90.965 21.9313C91.0319 21.9082 91.1116 21.8646 91.2223 21.8158C91.2763 21.7902 91.3381 21.762 91.405 21.726C91.477 21.6952 91.5516 21.6619 91.6366 21.6259C91.7961 21.5566 92.0251 21.472 92.2927 21.4001C92.5629 21.3385 92.8691 21.2744 93.183 21.2667C93.8108 21.2307 94.4387 21.3667 94.7912 21.4745C94.9996 21.5387 95.1669 21.5926 95.2955 21.6439C95.4293 21.6875 95.5297 21.7209 95.6043 21.744C95.7587 21.7825 95.8282 21.7568 95.8668 21.6978C95.9054 21.6388 95.9002 21.5695 95.7818 21.4463C95.7252 21.3847 95.6352 21.3103 95.504 21.2333C95.3753 21.1486 95.2029 21.0639 94.9765 20.9715C94.5931 20.815 93.8829 20.6456 93.1676 20.6867C92.8099 20.6995 92.46 20.7714 92.1538 20.8535C91.8501 20.9484 91.5954 21.0588 91.4204 21.1563C91.3304 21.2102 91.248 21.259 91.1708 21.3052C91.1013 21.3565 91.0396 21.4052 90.9881 21.4489C90.8801 21.5336 90.8132 21.6131 90.7668 21.6747C90.6742 21.8004 90.6768 21.8672 90.7179 21.9159L90.7257 21.9134Z" fill="#181818"/>
<path d="M95.8721 25.0776C95.9312 25.0519 95.9596 24.9903 95.9235 24.8338C95.9029 24.7568 95.8798 24.6464 95.8077 24.5207C95.7743 24.4565 95.7331 24.3847 95.6842 24.3026C95.6328 24.223 95.5659 24.1435 95.4938 24.0536C95.3549 23.8843 95.1233 23.6764 94.8248 23.4865C94.5212 23.3069 94.1481 23.1683 93.7621 23.0913C93.3761 23.0194 92.9876 23.0194 92.6428 23.0425C92.3006 23.0785 92.0021 23.1375 91.7885 23.1965C91.665 23.235 91.5544 23.2709 91.454 23.3017C91.3562 23.3377 91.2713 23.3761 91.1967 23.4095C91.0449 23.4737 90.942 23.5378 90.8673 23.5917C90.7207 23.6995 90.7001 23.7688 90.7284 23.8329C90.7567 23.8971 90.821 23.933 90.9909 23.9151C91.0758 23.9074 91.1864 23.8791 91.3356 23.8509C91.4128 23.8329 91.4952 23.8124 91.5852 23.7919C91.6804 23.7713 91.7859 23.7508 91.8992 23.7277C92.0973 23.6892 92.3675 23.6456 92.6711 23.6199C92.9747 23.6071 93.3144 23.6045 93.6386 23.6661C93.9628 23.7277 94.2716 23.8304 94.5237 23.969C94.7733 24.1101 94.9715 24.2666 95.1027 24.395C95.1722 24.4642 95.2339 24.5258 95.2931 24.5849C95.3446 24.6464 95.3909 24.7029 95.4346 24.7517C95.5273 24.8466 95.5813 24.9287 95.6353 24.9826C95.7408 25.093 95.8129 25.1109 95.8721 25.0827V25.0776Z" fill="#181818"/>
<path d="M31.9068 45.4999C31.7756 45.5282 31.7447 45.695 31.652 46.6855C31.5697 47.6171 31.4102 50.0166 31.405 51.0097C31.3922 52.1748 31.4822 52.3981 31.6212 52.4032C31.7653 52.4083 31.8553 52.1979 31.9454 51.0508C32.0174 50.0705 32.1692 47.6838 32.1692 46.7317C32.177 45.7181 32.0303 45.4691 31.9068 45.4999Z" fill="#353535"/>
<path d="M12.0271 39.3743C11.9782 39.3358 11.8753 39.3794 11.6308 39.6283C11.3838 39.8747 11.0081 40.3366 10.4549 41.1553C9.93515 41.9303 9.1066 43.3674 8.41186 44.8763C7.70425 46.3802 7.09442 47.9328 6.76249 48.8464C5.99055 50.9969 5.94938 51.4383 6.07804 51.4845C6.21699 51.5332 6.42284 51.1637 7.25653 49.0696C7.61676 48.1791 8.23174 46.6445 8.92391 45.1612C9.60321 43.6702 10.3957 42.2536 10.8692 41.4709C11.3684 40.6625 11.672 40.1698 11.8804 39.8336C12.058 39.5308 12.0786 39.4153 12.0297 39.3743H12.0271Z" fill="#353535"/>
<path d="M5.06411 55.4725C4.94574 55.4519 4.78364 55.7368 4.54948 57.2509C4.44141 57.9669 4.31276 59.2449 4.26129 60.5357C4.20468 61.8266 4.22012 63.1277 4.25615 63.8847C4.34363 65.6631 4.47486 65.9916 4.61124 65.9839C4.75791 65.9762 4.80937 65.6477 4.79908 63.895C4.79908 63.1482 4.7965 61.8651 4.84539 60.5896C4.89171 59.3167 4.99463 58.0541 5.05896 57.3433C5.20306 55.8241 5.20048 55.493 5.06411 55.4699V55.4725Z" fill="#353535"/>
</g>
<defs>
<clipPath id="clip0_588_43865">
<rect width="139" height="79" fill="white"/>
</clipPath>
</defs>
</svg>
