<svg width="80" height="81" viewBox="0 0 80 81" fill="none" xmlns="http://www.w3.org/2000/svg">
<path d="M37.0907 76.8637C57.1738 76.8637 73.4543 60.5831 73.4543 40.5001C73.4543 20.417 57.1738 4.13641 37.0907 4.13641C17.0076 4.13641 0.727051 20.417 0.727051 40.5001C0.727051 60.5831 17.0076 76.8637 37.0907 76.8637Z" fill="#E7EFFF"/>
<path d="M26.909 23.7727C29.319 23.7727 31.2727 21.8191 31.2727 19.4091C31.2727 16.9991 29.319 15.0455 26.909 15.0455C24.4991 15.0455 22.5454 16.9991 22.5454 19.4091C22.5454 21.8191 24.4991 23.7727 26.909 23.7727Z" fill="#323FD4"/>
<path d="M21.818 18.6818C19.1177 18.6818 16.5279 19.7545 14.6184 21.664C12.709 23.5735 11.6362 26.1633 11.6362 28.8636V33.2273H31.9999V28.8636C31.9999 26.1633 30.9271 23.5735 29.0177 21.664C27.1082 19.7545 24.5184 18.6818 21.818 18.6818Z" fill="#4E6AFF"/>
<path d="M7.99969 7.77276C9.20467 7.77276 10.1815 6.79592 10.1815 5.59094C10.1815 4.38595 9.20467 3.40912 7.99969 3.40912C6.7947 3.40912 5.81787 4.38595 5.81787 5.59094C5.81787 6.79592 6.7947 7.77276 7.99969 7.77276Z" fill="#00C99F"/>
<path d="M77.0905 14.3182C78.2955 14.3182 79.2723 13.3414 79.2723 12.1364C79.2723 10.9314 78.2955 9.95459 77.0905 9.95459C75.8855 9.95459 74.9087 10.9314 74.9087 12.1364C74.9087 13.3414 75.8855 14.3182 77.0905 14.3182Z" fill="#FF4D69"/>
<path d="M70.5451 79.0455C71.7501 79.0455 72.7269 78.0686 72.7269 76.8636C72.7269 75.6587 71.7501 74.6818 70.5451 74.6818C69.3401 74.6818 68.3633 75.6587 68.3633 76.8636C68.3633 78.0686 69.3401 79.0455 70.5451 79.0455Z" fill="#00C99F"/>
<path d="M7.99969 79.7728C9.20467 79.7728 10.1815 78.7959 10.1815 77.5909C10.1815 76.386 9.20467 75.4091 7.99969 75.4091C6.7947 75.4091 5.81787 76.386 5.81787 77.5909C5.81787 78.7959 6.7947 79.7728 7.99969 79.7728Z" fill="#FFA100"/>
<path d="M37.0909 49.8673V59.4091H6.54541V49.8673C6.54613 48.6285 6.94224 47.4223 7.67608 46.4242C8.40992 45.4261 9.44317 44.6883 10.6254 44.3182L18.1818 41.9546H25.4545L33.0109 44.3182C34.1931 44.6883 35.2264 45.4261 35.9602 46.4242C36.694 47.4223 37.0901 48.6285 37.0909 49.8673Z" fill="#4E6AFF"/>
<path d="M21.818 47.0455C20.8536 47.0455 19.9287 46.6624 19.2467 45.9804C18.5648 45.2985 18.1816 44.3736 18.1816 43.4091V41.9546H25.4544V43.4091C25.4544 44.3736 25.0713 45.2985 24.3893 45.9804C23.7074 46.6624 22.7824 47.0455 21.818 47.0455Z" fill="#7F96D1"/>
<path d="M21.818 47.0455L18.1817 49.9546L16.8071 42.3837L18.1817 41.9546L21.818 47.0455Z" fill="#323FD4"/>
<path d="M26.8288 42.3837L25.4542 49.9546L21.8179 47.0455L25.4542 41.9546L26.8288 42.3837Z" fill="#323FD4"/>
<path d="M71.2724 60.8637V63.7728C71.2724 64.1585 71.1192 64.5285 70.8464 64.8013C70.5736 65.0741 70.2037 65.2273 69.8179 65.2273H10.4361C8.777 63.4394 7.30058 61.4904 6.02881 59.4091H69.8179C70.2037 59.4091 70.5736 59.5624 70.8464 59.8351C71.1192 60.1079 71.2724 60.4779 71.2724 60.8637Z" fill="#A5BCED"/>
<path d="M21.8179 43.4091C19.6961 43.4091 17.6613 42.5663 16.161 41.066C14.6607 39.5657 13.8179 37.5308 13.8179 35.4091V29.3509C13.8178 29.0557 13.8851 28.7643 14.0146 28.4989C14.1442 28.2336 14.3325 28.0013 14.5653 27.8197C14.7981 27.638 15.0693 27.5119 15.3581 27.4508C15.647 27.3898 15.946 27.3954 16.2324 27.4673C22.5815 29.0528 27.1415 27.4091 27.8688 27.4091C28.1244 27.4082 28.3777 27.4577 28.6141 27.5548C28.8505 27.652 29.0655 27.7949 29.2466 27.9753C29.4276 28.1557 29.5713 28.3701 29.6694 28.6061C29.7674 28.8422 29.8179 29.0953 29.8179 29.3509V35.4091C29.8179 37.5308 28.975 39.5657 27.4747 41.066C25.9744 42.5663 23.9396 43.4091 21.8179 43.4091Z" fill="#A5BCED"/>
<path d="M19.236 39.7146C19.1469 39.6668 19.0686 39.6008 19.0064 39.5211C18.9442 39.4413 18.8992 39.3494 18.8745 39.2513C18.8498 39.1531 18.8459 39.0509 18.8629 38.9512C18.88 38.8514 18.9177 38.7563 18.9736 38.672C19.0295 38.5876 19.1023 38.5159 19.1876 38.4613C19.2728 38.4067 19.3684 38.3705 19.4684 38.355C19.5684 38.3395 19.6706 38.3451 19.7683 38.3713C19.866 38.3975 19.9572 38.4438 20.036 38.5073C20.5635 38.8597 21.1835 39.0478 21.8179 39.0478C22.4522 39.0478 23.0722 38.8597 23.5997 38.5073C23.6785 38.4438 23.7697 38.3975 23.8674 38.3713C23.9651 38.3451 24.0673 38.3395 24.1673 38.355C24.2673 38.3705 24.3629 38.4067 24.4481 38.4613C24.5334 38.5159 24.6062 38.5876 24.6621 38.672C24.718 38.7563 24.7557 38.8514 24.7728 38.9512C24.7898 39.0509 24.7859 39.1531 24.7612 39.2513C24.7365 39.3494 24.6915 39.4413 24.6293 39.5211C24.5671 39.6008 24.4888 39.6668 24.3997 39.7146C23.6362 40.2271 22.7374 40.5007 21.8179 40.5007C20.8983 40.5007 19.9995 40.2271 19.236 39.7146Z" fill="#7F96D1"/>
<path d="M63.7451 65.2273C60.3414 68.8951 56.2173 71.821 51.6308 73.8218C47.0444 75.8226 42.0944 76.8553 37.0906 76.8553C32.0867 76.8553 27.1367 75.8226 22.5503 73.8218C17.9639 71.821 13.8398 68.8951 10.436 65.2273H63.7451Z" fill="#7F96D1"/>
<path d="M13.8178 55.0455H12.3633V59.4091H13.8178V55.0455Z" fill="#323FD4"/>
<path d="M31.2724 55.0455H29.8179V59.4091H31.2724V55.0455Z" fill="#323FD4"/>
<path d="M13.0905 35.4091H13.8178V31.0455H13.0905C12.5119 31.0455 11.9569 31.2753 11.5477 31.6845C11.1386 32.0937 10.9087 32.6486 10.9087 33.2273C10.9087 33.8059 11.1386 34.3609 11.5477 34.7701C11.9569 35.1792 12.5119 35.4091 13.0905 35.4091Z" fill="#7F96D1"/>
<path d="M30.5451 35.4091H29.8179V31.0455H30.5451C31.1238 31.0455 31.6788 31.2753 32.0879 31.6845C32.4971 32.0937 32.727 32.6486 32.727 33.2273C32.727 33.8059 32.4971 34.3609 32.0879 34.7701C31.6788 35.1792 31.1238 35.4091 30.5451 35.4091Z" fill="#7F96D1"/>
<path d="M42.1816 29.5909H66.9088C67.6804 29.5909 68.4203 29.8974 68.9659 30.443C69.5114 30.9886 69.8179 31.7285 69.8179 32.5V49.9546H39.2725V32.5C39.2725 31.7285 39.579 30.9886 40.1245 30.443C40.6701 29.8974 41.41 29.5909 42.1816 29.5909Z" fill="#8FA2FF"/>
<path d="M39.2725 49.9546H69.8179V51.4091C69.8179 52.1807 69.5114 52.9206 68.9659 53.4662C68.4203 54.0117 67.6804 54.3182 66.9088 54.3182H42.1816C41.41 54.3182 40.6701 54.0117 40.1245 53.4662C39.579 52.9206 39.2725 52.1807 39.2725 51.4091V49.9546Z" fill="#4E6AFF"/>
<path d="M58.1814 57.2273H50.9087C51.3854 56.3317 51.6351 55.3328 51.636 54.3182H57.4541C57.455 55.3328 57.7048 56.3317 58.1814 57.2273Z" fill="#323FD4"/>
<path d="M61.0909 59.4091H48C48 58.8305 48.2299 58.2755 48.639 57.8663C49.0482 57.4572 49.6032 57.2273 50.1818 57.2273H58.9091C59.4877 57.2273 60.0427 57.4572 60.4519 57.8663C60.861 58.2755 61.0909 58.8305 61.0909 59.4091Z" fill="#4E6AFF"/>
<path d="M54.5451 42.6819C55.7501 42.6819 56.7269 41.705 56.7269 40.5001C56.7269 39.2951 55.7501 38.3182 54.5451 38.3182C53.3401 38.3182 52.3633 39.2951 52.3633 40.5001C52.3633 41.705 53.3401 42.6819 54.5451 42.6819Z" fill="white"/>
<path d="M48.727 1.2273C46.5545 1.22848 44.4206 1.80212 42.5403 2.89045C40.66 3.97877 39.0997 5.54335 38.0165 7.4266C36.9333 9.30985 36.3654 11.4453 36.3701 13.6178C36.3749 15.7904 36.952 17.9233 38.0434 19.8018C38.2197 20.0861 38.2893 20.4238 38.2397 20.7546L37.8252 23.6637C37.8095 23.7673 37.8163 23.8731 37.8453 23.9738C37.8743 24.0745 37.9247 24.1678 37.9931 24.2472C38.0615 24.3267 38.1462 24.3904 38.2415 24.434C38.3368 24.4776 38.4404 24.5002 38.5452 24.5C38.6252 24.5 41.6434 24.0637 41.5634 24.0782C41.8942 24.0287 42.2318 24.0982 42.5161 24.2746C44.157 25.2303 45.9959 25.7952 47.8904 25.9254C49.7848 26.0557 51.6838 25.7479 53.44 25.0258C55.1963 24.3037 56.7626 23.1868 58.0175 21.7617C59.2725 20.3365 60.1823 18.6415 60.6764 16.808C61.1705 14.9745 61.2356 13.0518 60.8667 11.1891C60.4978 9.32637 59.7048 7.57365 58.5492 6.06686C57.3936 4.56008 55.9064 3.33972 54.2031 2.50044C52.4997 1.66117 50.6259 1.22552 48.727 1.2273Z" fill="#FFA100"/>
<path d="M49.0906 12.1364H48.3633C48.074 12.1364 47.7965 12.0214 47.5919 11.8169C47.3873 11.6123 47.2724 11.3348 47.2724 11.0455C47.2724 10.7561 47.3873 10.4787 47.5919 10.2741C47.7965 10.0695 48.074 9.95456 48.3633 9.95456H51.636C52.0218 9.95456 52.3918 9.80131 52.6645 9.52853C52.9373 9.25575 53.0906 8.88578 53.0906 8.50001C53.0906 8.11424 52.9373 7.74427 52.6645 7.47149C52.3918 7.19871 52.0218 7.04547 51.636 7.04547H50.1815V6.31819C50.1815 5.93242 50.0282 5.56245 49.7554 5.28967C49.4827 5.01689 49.1127 4.86365 48.7269 4.86365C48.3411 4.86365 47.9712 5.01689 47.6984 5.28967C47.4256 5.56245 47.2724 5.93242 47.2724 6.31819V7.19819C46.3444 7.46224 45.5432 8.05279 45.0163 8.86101C44.4894 9.66922 44.2724 10.6406 44.4052 11.5962C44.5381 12.5518 45.0118 13.4272 45.7392 14.0611C46.4665 14.6949 47.3985 15.0445 48.3633 15.0455H49.0906C49.3799 15.0455 49.6574 15.1604 49.8619 15.365C50.0665 15.5696 50.1815 15.847 50.1815 16.1364C50.1815 16.4257 50.0665 16.7032 49.8619 16.9078C49.6574 17.1123 49.3799 17.2273 49.0906 17.2273H45.8178C45.4321 17.2273 45.0621 17.3805 44.7893 17.6533C44.5165 17.9261 44.3633 18.2961 44.3633 18.6818C44.3633 19.0676 44.5165 19.4376 44.7893 19.7103C45.0621 19.9831 45.4321 20.1364 45.8178 20.1364H47.2724V20.8636C47.2724 21.2494 47.4256 21.6194 47.6984 21.8922C47.9712 22.1649 48.3411 22.3182 48.7269 22.3182C49.1127 22.3182 49.4827 22.1649 49.7554 21.8922C50.0282 21.6194 50.1815 21.2494 50.1815 20.8636V19.9836C51.1094 19.7196 51.9107 19.129 52.4376 18.3208C52.9644 17.5126 53.1815 16.5412 53.0486 15.5856C52.9158 14.63 52.442 13.7546 51.7147 13.1208C50.9873 12.4869 50.0553 12.1373 49.0906 12.1364Z" fill="white"/>
</svg>
