<svg width="80" height="80" viewBox="0 0 80 80" fill="none" xmlns="http://www.w3.org/2000/svg">
<g clip-path="url(#clip0_756_83156)">
<path d="M40 80C61.401 80 78.75 62.651 78.75 41.25C78.75 19.849 61.401 2.5 40 2.5C18.599 2.5 1.25 19.849 1.25 41.25C1.25 62.651 18.599 80 40 80Z" fill="#E7EFFF"/>
<path d="M78.75 41.25C78.7558 50.2569 75.6239 58.9845 69.8925 65.9327C64.1611 72.8808 56.1884 77.6153 47.3448 79.3225C38.5011 81.0297 29.339 79.6029 21.4333 75.2873C13.5276 70.9717 7.37211 64.0369 4.02502 55.675C-6.16873 30.2625 12.5813 2.5 40 2.5C50.2772 2.5 60.1334 6.58258 67.4004 13.8496C74.6674 21.1166 78.75 30.9729 78.75 41.25Z" fill="#E7EFFF"/>
<path d="M40 27.5C47.5939 27.5 53.75 21.3439 53.75 13.75C53.75 6.15608 47.5939 0 40 0C32.4061 0 26.25 6.15608 26.25 13.75C26.25 21.3439 32.4061 27.5 40 27.5Z" fill="#00C99F"/>
<path d="M37.8689 18.3812L32.8689 13.3812C32.6641 13.1421 32.5571 12.8345 32.5693 12.5199C32.5814 12.2053 32.7119 11.9069 32.9345 11.6843C33.1571 11.4617 33.4555 11.3313 33.7701 11.3191C34.0847 11.307 34.3923 11.414 34.6314 11.6187L38.7502 15.7312L46.6189 7.86875C46.8581 7.66396 47.1657 7.55696 47.4803 7.56911C47.7948 7.58126 48.0933 7.71168 48.3159 7.93429C48.5385 8.15691 48.6689 8.45534 48.6811 8.76993C48.6932 9.08453 48.5862 9.39212 48.3814 9.63125L39.6314 18.3812C39.3972 18.6141 39.0804 18.7447 38.7502 18.7447C38.42 18.7447 38.1031 18.6141 37.8689 18.3812Z" fill="white"/>
<path d="M10.625 16.25C11.6605 16.25 12.5 15.4105 12.5 14.375C12.5 13.3395 11.6605 12.5 10.625 12.5C9.58947 12.5 8.75 13.3395 8.75 14.375C8.75 15.4105 9.58947 16.25 10.625 16.25Z" fill="#FFA100"/>
<path d="M68.125 76.25C69.1605 76.25 70 75.4105 70 74.375C70 73.3395 69.1605 72.5 68.125 72.5C67.0895 72.5 66.25 73.3395 66.25 74.375C66.25 75.4105 67.0895 76.25 68.125 76.25Z" fill="#FFA100"/>
<path d="M73.125 15C74.1605 15 75 14.1605 75 13.125C75 12.0895 74.1605 11.25 73.125 11.25C72.0895 11.25 71.25 12.0895 71.25 13.125C71.25 14.1605 72.0895 15 73.125 15Z" fill="#00C99F"/>
<path d="M13.125 75C14.1605 75 15 74.1605 15 73.125C15 72.0895 14.1605 71.25 13.125 71.25C12.0895 71.25 11.25 72.0895 11.25 73.125C11.25 74.1605 12.0895 75 13.125 75Z" fill="#00C99F"/>
<path d="M67.4436 55.7125C58.2561 61.4187 58.9624 61.025 58.6936 61.025C58.5624 61.025 59.8499 61.3437 40.4499 56.3687C40.3406 56.3405 40.2411 56.2831 40.1618 56.2029C40.0825 56.1226 40.0264 56.0223 39.9995 55.9127C39.9726 55.8032 39.9758 55.6883 40.0089 55.5804C40.042 55.4726 40.1037 55.3756 40.1874 55.3L60.6249 37.0437C60.7021 36.974 60.7955 36.9247 60.8966 36.9002C60.9978 36.8758 61.1034 36.8769 61.204 36.9036C61.3045 36.9303 61.3968 36.9817 61.4725 37.0531C61.5482 37.1245 61.6049 37.2136 61.6374 37.3125L67.7061 55C67.7467 55.1311 67.7429 55.2719 67.6955 55.4007C67.648 55.5294 67.5595 55.639 67.4436 55.7125Z" fill="#A5BCED"/>
<path d="M60.625 65.1375C59.9892 65.7616 59.1519 66.1389 58.2632 66.2019C57.3745 66.2649 56.4925 66.0094 55.775 65.4813C55.8164 66.1524 55.6654 66.8213 55.3397 67.4095C55.014 67.9977 54.5271 68.4807 53.9363 68.8017C53.3455 69.1227 52.6754 69.2684 52.0046 69.2216C51.3339 69.1748 50.6905 68.9375 50.15 68.5375L49.525 68.05C49.5495 68.6843 49.3961 69.3127 49.082 69.8643C48.7678 70.4158 48.3056 70.8684 47.7476 71.1709C47.1895 71.4733 46.558 71.6135 45.9244 71.5756C45.2908 71.5376 44.6805 71.3231 44.1625 70.9563C44.2097 71.6062 44.0719 72.2563 43.765 72.8311C43.4581 73.406 42.9947 73.8822 42.4284 74.2046C41.8621 74.527 41.216 74.6824 40.565 74.6528C39.914 74.6233 39.2847 74.4099 38.75 74.0375L12.1437 55.525C12.0308 55.4465 11.9469 55.3329 11.905 55.2018C11.8632 55.0707 11.8658 54.9295 11.9125 54.8L18.1625 37.3C18.1909 37.2212 18.2349 37.1489 18.2918 37.0875C18.3487 37.026 18.4174 36.9766 18.4937 36.9422C18.5701 36.9078 18.6526 36.8891 18.7364 36.8872C18.8201 36.8854 18.9034 36.9003 18.9812 36.9313L25.1187 39.375C35.8937 39.375 35.1187 39.3188 35.3937 39.5125L60.3562 59.625C60.7546 59.9572 61.0797 60.3685 61.311 60.8328C61.5422 61.297 61.6747 61.8042 61.7 62.3223C61.7252 62.8404 61.6427 63.3581 61.4577 63.8427C61.2727 64.3272 60.9891 64.7681 60.625 65.1375Z" fill="#4E6AFF"/>
<path d="M64.0627 46.7563L55.0002 49.9375C53.0163 51.6463 50.4819 52.581 47.8635 52.5695C45.2451 52.558 42.719 51.6012 40.7502 49.875L38.7502 48.125L33.3252 50.625C32.2501 51.1175 31.0698 51.3358 29.8897 51.2605C28.7096 51.1853 27.5665 50.8188 26.5627 50.1938C26.31 50.0369 26.0983 49.8221 25.945 49.5672C25.7917 49.3123 25.7012 49.0246 25.6811 48.7279C25.6609 48.4311 25.7117 48.1339 25.8291 47.8606C25.9465 47.5873 26.1273 47.3459 26.3564 47.1563C32.8189 41.7938 31.0564 43.375 34.3752 40C35.4217 38.946 36.7056 38.1582 38.1192 37.7026C39.5329 37.247 41.0352 37.1368 42.5002 37.3813L54.1814 39.375L60.8377 36.9313C60.9164 36.9029 61 36.8906 61.0836 36.8951C61.1671 36.8996 61.2489 36.9208 61.3241 36.9576C61.3993 36.9943 61.4664 37.0457 61.5213 37.1089C61.5762 37.172 61.6179 37.2455 61.6439 37.325L64.4502 45.9813C64.4983 46.1355 64.4848 46.3023 64.4125 46.4468C64.3403 46.5913 64.2149 46.7022 64.0627 46.7563Z" fill="#A5BCED"/>
<path d="M23.1814 37.3375L11.8751 58.8437C11.7958 58.9941 11.6865 59.1267 11.5541 59.2335C11.4217 59.3402 11.2689 59.4187 11.1051 59.4644C10.9413 59.51 10.7699 59.5217 10.6014 59.4989C10.4329 59.476 10.2708 59.4189 10.1251 59.3312L4.02513 55.675C2.09982 50.8601 1.15823 45.7084 1.25592 40.5237C1.3536 35.3391 2.48857 30.2265 4.59388 25.4875L22.6876 35.6687C22.9706 35.8282 23.1804 36.0916 23.2726 36.4031C23.3648 36.7146 23.332 37.0497 23.1814 37.3375Z" fill="#323FD4"/>
<path d="M79.9998 26.975V51.7438C79.9986 51.9752 79.933 52.2018 79.8105 52.3983C79.688 52.5947 79.5134 52.7532 79.3061 52.8563L68.6186 58.2063C68.3219 58.3536 67.9788 58.3772 67.6647 58.2717C67.3506 58.1662 67.0912 57.9404 66.9436 57.6438L56.8186 37.4063C56.7445 37.2572 56.701 37.0949 56.6905 36.9288C56.68 36.7627 56.7028 36.5961 56.7575 36.439C56.8122 36.2818 56.8978 36.1371 57.0092 36.0134C57.1205 35.8898 57.2555 35.7896 57.4061 35.7188L78.2123 25.8438C78.4031 25.7529 78.6138 25.7119 78.8246 25.7245C79.0355 25.7372 79.2398 25.8031 79.4183 25.916C79.5968 26.029 79.7438 26.1854 79.8455 26.3706C79.9472 26.5558 80.0003 26.7637 79.9998 26.975Z" fill="#FFA100"/>
<path d="M19.3748 59.375L21.8748 56.875C22.3721 56.3777 23.0465 56.0983 23.7498 56.0983C24.4531 56.0983 25.1275 56.3777 25.6248 56.875C26.1221 57.3723 26.4014 58.0467 26.4014 58.75C26.4014 59.4532 26.1221 60.1277 25.6248 60.625L23.1248 63.125C22.6275 63.6223 21.9531 63.9016 21.2498 63.9016C20.5465 63.9016 19.8721 63.6223 19.3748 63.125C18.8775 62.6277 18.5981 61.9532 18.5981 61.25C18.5981 60.5467 18.8775 59.8723 19.3748 59.375Z" fill="#A5BCED"/>
<path d="M23.1248 63.125L25.6248 60.625C25.871 60.3787 26.1633 60.1834 26.4851 60.0502C26.8068 59.9169 27.1516 59.8483 27.4998 59.8483C27.848 59.8483 28.1928 59.9169 28.5145 60.0502C28.8363 60.1834 29.1286 60.3787 29.3748 60.625C29.621 60.8712 29.8163 61.1635 29.9496 61.4852C30.0829 61.8069 30.1514 62.1518 30.1514 62.5C30.1514 62.8482 30.0829 63.193 29.9496 63.5147C29.8163 63.8364 29.621 64.1287 29.3748 64.375L26.8748 66.875C26.3775 67.3723 25.7031 67.6516 24.9998 67.6516C24.2965 67.6516 23.6221 67.3723 23.1248 66.875C22.6275 66.3777 22.3481 65.7032 22.3481 65C22.3481 64.2967 22.6275 63.6223 23.1248 63.125Z" fill="#A5BCED"/>
<path d="M26.8748 66.875L29.3748 64.375C29.8721 63.8777 30.5465 63.5983 31.2498 63.5983C31.9531 63.5983 32.6275 63.8777 33.1248 64.375C33.6221 64.8723 33.9014 65.5467 33.9014 66.25C33.9014 66.9532 33.6221 67.6277 33.1248 68.125L30.6248 70.625C30.1275 71.1223 29.4531 71.4016 28.7498 71.4016C28.0465 71.4016 27.3721 71.1223 26.8748 70.625C26.3775 70.1277 26.0981 69.4532 26.0981 68.75C26.0981 68.0467 26.3775 67.3723 26.8748 66.875Z" fill="#A5BCED"/>
<path d="M30.6248 70.625L33.1248 68.125C33.371 67.8787 33.6633 67.6834 33.9851 67.5502C34.3068 67.4169 34.6516 67.3483 34.9998 67.3483C35.348 67.3483 35.6928 67.4169 36.0145 67.5502C36.3363 67.6834 36.6286 67.8787 36.8748 68.125C37.121 68.3712 37.3163 68.6635 37.4496 68.9852C37.5829 69.3069 37.6514 69.6518 37.6514 70C37.6514 70.3482 37.5829 70.693 37.4496 71.0147C37.3163 71.3364 37.121 71.6287 36.8748 71.875L34.3748 74.375C34.1286 74.6212 33.8363 74.8165 33.5145 74.9498C33.1928 75.083 32.848 75.1516 32.4998 75.1516C32.1516 75.1516 31.8068 75.083 31.4851 74.9498C31.1633 74.8165 30.871 74.6212 30.6248 74.375C30.3786 74.1287 30.1832 73.8364 30.05 73.5147C29.9167 73.193 29.8481 72.8482 29.8481 72.5C29.8481 72.1518 29.9167 71.8069 30.05 71.4852C30.1832 71.1635 30.3786 70.8712 30.6248 70.625Z" fill="#A5BCED"/>
</g>
<defs>
<clipPath id="clip0_756_83156">
<rect width="80" height="80" fill="white"/>
</clipPath>
</defs>
</svg>
