<svg width="41" height="40" viewBox="0 0 41 40" fill="none" xmlns="http://www.w3.org/2000/svg">
<g clip-path="url(#clip0_754_82781)">
<path d="M10.0417 21.25H7.54175V25H3.79175V21.25H1.29175L5.66675 15L10.0417 21.25Z" fill="#0074FF"/>
<path d="M35.6667 32.425V38.125H5.66675V32.425C5.66705 31.7026 5.87601 30.9956 6.26851 30.3891C6.66101 29.7826 7.22034 29.3024 7.87925 29.0062L18.1667 24.375H23.1667L33.4542 29.0062C34.1132 29.3024 34.6725 29.7826 35.065 30.3891C35.4575 30.9956 35.6664 31.7026 35.6667 32.425V32.425Z" fill="#CCD3EB"/>
<path d="M35.6667 36.25H5.66675V38.125H35.6667V36.25Z" fill="#96A1C3"/>
<path d="M23.7917 38.125L21.9167 33.125L23.1667 31.25L20.6667 29.375L18.1667 31.25L19.4167 33.125L17.5417 38.125H23.7917Z" fill="#0074FF"/>
<path d="M40.0417 24.375H36.9167V39.375H31.9167V24.375H28.7917L34.4167 16.875L40.0417 24.375Z" fill="#0074FF"/>
<path d="M20.6666 29.375L16.9166 32.5L15.2041 25.7063L18.1666 24.375L20.6666 29.375Z" fill="#CCD3EB"/>
<path d="M26.1292 25.7063L24.4167 32.5L20.6667 29.375L23.1667 24.375L26.1292 25.7063Z" fill="#CCD3EB"/>
<path d="M19.4167 3.75H21.9167C23.9059 3.75 25.8135 4.54018 27.22 5.9467C28.6266 7.35322 29.4167 9.26088 29.4167 11.25V16.25H11.9167V11.25C11.9167 9.26088 12.7069 7.35322 14.1134 5.9467C15.52 4.54018 17.4276 3.75 19.4167 3.75V3.75Z" fill="#647499"/>
<path d="M12.5417 13.75H15.0417V18.75H12.5417C12.0445 18.75 11.5676 18.5525 11.2159 18.2008C10.8643 17.8492 10.6667 17.3723 10.6667 16.875V15.625C10.6667 15.1277 10.8643 14.6508 11.2159 14.2992C11.5676 13.9475 12.0445 13.75 12.5417 13.75V13.75Z" fill="#F5F7FF"/>
<path d="M10.6981 15.3125C10.6442 15.8316 10.6337 16.3542 10.6668 16.875C10.6668 17.3723 10.8644 17.8492 11.216 18.2008C11.5676 18.5525 12.0445 18.75 12.5418 18.75H15.0418V16.875H12.5418C12.0996 16.8738 11.672 16.7164 11.3346 16.4304C10.9972 16.1445 10.7718 15.7486 10.6981 15.3125V15.3125Z" fill="#CCD3EB"/>
<path d="M28.7917 18.75H26.2917V13.75H28.7917C29.289 13.75 29.7659 13.9475 30.1176 14.2992C30.4692 14.6508 30.6667 15.1277 30.6667 15.625V16.875C30.6667 17.3723 30.4692 17.8492 30.1176 18.2008C29.7659 18.5525 29.289 18.75 28.7917 18.75V18.75Z" fill="#F5F7FF"/>
<path d="M28.7917 16.875H26.2917V18.75H28.7917C29.289 18.75 29.7659 18.5525 30.1176 18.2008C30.4692 17.8492 30.6667 17.3723 30.6667 16.875C30.7158 16.3553 30.7158 15.8322 30.6667 15.3125C30.5922 15.7539 30.3622 16.154 30.0183 16.4406C29.6744 16.7272 29.2393 16.8813 28.7917 16.875V16.875Z" fill="#CCD3EB"/>
<path d="M20.6667 25.625C19.0091 25.625 17.4194 24.9665 16.2473 23.7944C15.0752 22.6223 14.4167 21.0326 14.4167 19.375V13.75C15.5735 13.7782 16.724 13.5712 17.7983 13.1415C18.8727 12.7117 19.8486 12.0682 20.6667 11.25C21.4852 12.0679 22.4611 12.7112 23.5354 13.141C24.6097 13.5707 25.76 13.7779 26.9167 13.75V19.375C26.9167 20.1958 26.7551 21.0085 26.441 21.7668C26.1269 22.5251 25.6665 23.2141 25.0862 23.7944C24.5058 24.3748 23.8168 24.8352 23.0585 25.1492C22.3002 25.4633 21.4875 25.625 20.6667 25.625V25.625Z" fill="#F5F7FF"/>
<path d="M20.6667 23.75C19.0091 23.75 17.4194 23.0915 16.2473 21.9194C15.0752 20.7473 14.4167 19.1576 14.4167 17.5V19.375C14.4167 21.0326 15.0752 22.6223 16.2473 23.7944C17.4194 24.9665 19.0091 25.625 20.6667 25.625C22.3244 25.625 23.9141 24.9665 25.0862 23.7944C26.2583 22.6223 26.9167 21.0326 26.9167 19.375V17.5C26.9167 19.1576 26.2583 20.7473 25.0862 21.9194C23.9141 23.0915 22.3244 23.75 20.6667 23.75Z" fill="#CCD3EB"/>
<path d="M22.5417 1.875V9.375L24.4167 8.125H38.7917C39.1233 8.125 39.4412 7.9933 39.6756 7.75888C39.9101 7.52446 40.0417 7.20652 40.0417 6.875V1.875C40.0417 1.54348 39.9101 1.22554 39.6756 0.991117C39.4412 0.756696 39.1233 0.625 38.7917 0.625H23.7917C23.4602 0.625 23.1423 0.756696 22.9079 0.991117C22.6734 1.22554 22.5417 1.54348 22.5417 1.875V1.875Z" fill="#0074FF"/>
<path d="M27.5417 37.5H26.2917C26.126 37.5 25.967 37.5658 25.8498 37.6831C25.7326 37.8003 25.6667 37.9592 25.6667 38.125C25.6667 38.2908 25.7326 38.4497 25.8498 38.5669C25.967 38.6842 26.126 38.75 26.2917 38.75H27.5417C27.7075 38.75 27.8665 38.6842 27.9837 38.5669C28.1009 38.4497 28.1667 38.2908 28.1667 38.125C28.1667 37.9592 28.1009 37.8003 27.9837 37.6831C27.8665 37.5658 27.7075 37.5 27.5417 37.5Z" fill="#033C59"/>
<path d="M8.1667 25V21.875H10.0417C10.1557 21.8748 10.2675 21.8434 10.365 21.7843C10.4624 21.7251 10.5419 21.6404 10.5947 21.5393C10.6474 21.4383 10.6716 21.3247 10.6644 21.2109C10.6573 21.0971 10.6192 20.9874 10.5542 20.8938L6.1792 14.6438C6.1216 14.5612 6.04493 14.4938 5.9557 14.4473C5.86647 14.4008 5.76733 14.3765 5.6667 14.3765C5.56607 14.3765 5.46692 14.4008 5.37769 14.4473C5.28847 14.4938 5.2118 14.5612 5.1542 14.6438L0.779197 20.8938C0.714206 20.9874 0.676081 21.0971 0.668949 21.2109C0.661817 21.3247 0.68595 21.4383 0.738735 21.5393C0.791521 21.6404 0.870947 21.7251 0.968415 21.7843C1.06588 21.8434 1.17768 21.8748 1.2917 21.875H3.1667V25C3.1667 25.1658 3.23255 25.3247 3.34976 25.4419C3.46697 25.5592 3.62594 25.625 3.7917 25.625H7.5417C7.70746 25.625 7.86643 25.5592 7.98364 25.4419C8.10085 25.3247 8.1667 25.1658 8.1667 25ZM6.9167 21.25V24.375H4.4167V21.25C4.4167 21.0842 4.35085 20.9253 4.23364 20.8081C4.11643 20.6909 3.95746 20.625 3.7917 20.625H2.4917L5.6667 16.0875L8.8417 20.625H7.5417C7.37594 20.625 7.21697 20.6909 7.09976 20.8081C6.98255 20.9253 6.9167 21.0842 6.9167 21.25Z" fill="#033C59"/>
<path d="M40.6667 6.875V1.875C40.6667 1.37772 40.4692 0.900805 40.1176 0.549175C39.7659 0.197544 39.289 0 38.7917 0L23.7917 0C23.2945 0 22.8176 0.197544 22.4659 0.549175C22.1143 0.900805 21.9167 1.37772 21.9167 1.875V9.375C21.9173 9.48755 21.9483 9.59786 22.0064 9.69427C22.0644 9.79068 22.1475 9.86962 22.2467 9.92276C22.3459 9.97589 22.4577 10.0012 22.5701 9.99613C22.6825 9.99103 22.7915 9.95566 22.8855 9.89375L24.6042 8.75H28.3167C28.9042 10.275 28.7917 11.3 28.7917 13.125H26.7042C25.6647 13.1288 24.6347 12.9257 23.6744 12.5277C22.7141 12.1296 21.8425 11.5444 21.1105 10.8063C21.0524 10.7477 20.9833 10.7012 20.9071 10.6694C20.8309 10.6377 20.7493 10.6214 20.6667 10.6214C20.5842 10.6214 20.5025 10.6377 20.4264 10.6694C20.3502 10.7012 20.2811 10.7477 20.223 10.8063C19.4902 11.5433 18.6184 12.1277 17.6583 12.5257C16.6981 12.9237 15.6686 13.1274 14.6292 13.125H12.5417V11.25C12.5417 9.42664 13.2661 7.67795 14.5554 6.38864C15.8447 5.09933 17.5934 4.375 19.4167 4.375H20.0417C20.2075 4.375 20.3665 4.30915 20.4837 4.19194C20.6009 4.07473 20.6667 3.91576 20.6667 3.75C20.6667 3.58424 20.6009 3.42527 20.4837 3.30806C20.3665 3.19085 20.2075 3.125 20.0417 3.125H19.4167C17.2619 3.125 15.1952 3.98102 13.6715 5.50476C12.1478 7.02849 11.2917 9.09512 11.2917 11.25V13.475C10.9139 13.6931 10.5997 14.0064 10.3804 14.3835C10.1611 14.7607 10.0444 15.1887 10.0417 15.625V16.875C10.0417 17.538 10.3051 18.1739 10.774 18.6428C11.2428 19.1116 11.8787 19.375 12.5417 19.375H13.7917C13.7928 20.3639 14.0073 21.3409 14.4204 22.2394C14.8335 23.1379 15.4355 23.9367 16.1855 24.5813L7.623 28.4375C6.85444 28.783 6.202 29.3431 5.74409 30.0504C5.28619 30.7578 5.0423 31.5824 5.04175 32.425V38.125C5.04175 38.2908 5.1076 38.4497 5.22481 38.5669C5.34202 38.6842 5.50099 38.75 5.66675 38.75H23.7917C23.9575 38.75 24.1165 38.6842 24.2337 38.5669C24.3509 38.4497 24.4167 38.2908 24.4167 38.125C24.4167 37.9592 24.3509 37.8003 24.2337 37.6831C24.1165 37.5658 23.9575 37.5 23.7917 37.5H6.29175V32.425C6.29449 31.8194 6.47316 31.2275 6.80604 30.7216C7.13892 30.2156 7.61165 29.8173 8.16675 29.575L14.8105 26.5875L16.2917 32.65C16.326 32.7887 16.4067 32.9114 16.5204 32.9979C16.6341 33.0843 16.774 33.1292 16.9167 33.125C17.2355 33.125 17.0667 33.1875 20.6667 30.1875C24.2855 33.2062 24.1042 33.125 24.4167 33.125C24.5595 33.1292 24.6994 33.0843 24.8131 32.9979C24.9268 32.9114 25.0075 32.7887 25.0417 32.65L26.573 26.5812L31.2917 28.75V37.5H30.0417C29.876 37.5 29.717 37.5658 29.5998 37.6831C29.4826 37.8003 29.4167 37.9592 29.4167 38.125C29.4167 38.2908 29.4826 38.4497 29.5998 38.5669C29.717 38.6842 29.876 38.75 30.0417 38.75H31.2917V39.375C31.2917 39.5408 31.3576 39.6997 31.4748 39.8169C31.592 39.9342 31.751 40 31.9167 40H36.9167C37.0825 40 37.2415 39.9342 37.3587 39.8169C37.4759 39.6997 37.5417 39.5408 37.5417 39.375V25H40.0417C40.1578 25 40.2716 24.9677 40.3703 24.9067C40.4691 24.8456 40.5489 24.7583 40.6008 24.6545C40.6527 24.5507 40.6746 24.4345 40.6642 24.3189C40.6538 24.2033 40.6114 24.0929 40.5417 24L34.9167 16.5C34.8585 16.4224 34.783 16.3594 34.6963 16.316C34.6095 16.2726 34.5138 16.25 34.4167 16.25C34.3197 16.25 34.224 16.2726 34.1372 16.316C34.0505 16.3594 33.975 16.4224 33.9167 16.5L28.2917 24C28.2221 24.0929 28.1797 24.2033 28.1693 24.3189C28.1588 24.4345 28.1808 24.5507 28.2327 24.6545C28.2846 24.7583 28.3644 24.8456 28.4632 24.9067C28.5619 24.9677 28.6757 25 28.7917 25H31.2917V27.3438L25.148 24.5813C25.898 23.9367 26.5 23.1379 26.9131 22.2394C27.3262 21.3409 27.5407 20.3639 27.5417 19.375H28.7917C29.4548 19.375 30.0907 19.1116 30.5595 18.6428C31.0284 18.1739 31.2917 17.538 31.2917 16.875V15.625C31.2891 15.1887 31.1724 14.7607 30.9531 14.3835C30.7338 14.0064 30.4196 13.6931 30.0417 13.475C30.0417 11.25 30.1355 10.2563 29.648 8.75H38.7917C39.289 8.75 39.7659 8.55246 40.1176 8.20083C40.4692 7.84919 40.6667 7.37228 40.6667 6.875ZM30.0417 23.75L34.4167 17.9188L38.7917 23.75H36.9167C36.751 23.75 36.592 23.8158 36.4748 23.9331C36.3576 24.0503 36.2917 24.2092 36.2917 24.375V38.75H32.5417V24.375C32.5417 24.2092 32.4759 24.0503 32.3587 23.9331C32.2415 23.8158 32.0825 23.75 31.9167 23.75H30.0417ZM12.5417 18.125C12.2102 18.125 11.8923 17.9933 11.6579 17.7589C11.4234 17.5245 11.2917 17.2065 11.2917 16.875V15.625C11.2917 15.2935 11.4234 14.9755 11.6579 14.7411C11.8923 14.5067 12.2102 14.375 12.5417 14.375H13.7917V18.125H12.5417ZM20.6667 27.9813L19.7667 26.1812C20.3636 26.2687 20.9699 26.2687 21.5667 26.1812L20.6667 27.9813ZM17.2792 31.3812L15.9417 26.0625L17.3855 25.4375C17.6353 25.574 17.8943 25.693 18.1605 25.7938L19.8855 29.2375L17.2792 31.3812ZM25.4042 26.0625L24.0605 31.3812L21.4542 29.2125L23.1667 25.7687C23.433 25.668 23.6919 25.549 23.9417 25.4125L25.4042 26.0625ZM26.2917 19.375C26.2917 20.8668 25.6991 22.2976 24.6442 23.3525C23.5893 24.4074 22.1586 25 20.6667 25C19.1749 25 17.7442 24.4074 16.6893 23.3525C15.6344 22.2976 15.0417 20.8668 15.0417 19.375V14.375C17.1201 14.2855 19.1052 13.487 20.6667 12.1125C22.2283 13.487 24.2134 14.2855 26.2917 14.375V19.375ZM30.0417 16.875C30.0417 17.2065 29.9101 17.5245 29.6756 17.7589C29.4412 17.9933 29.1233 18.125 28.7917 18.125H27.5417V14.375H28.7917C29.1233 14.375 29.4412 14.5067 29.6756 14.7411C29.9101 14.9755 30.0417 15.2935 30.0417 15.625V16.875ZM24.4167 7.5C24.1667 7.5 24.123 7.56875 23.1667 8.20625V1.875C23.1667 1.70924 23.2326 1.55027 23.3498 1.43306C23.467 1.31585 23.626 1.25 23.7917 1.25H38.7917C38.9575 1.25 39.1165 1.31585 39.2337 1.43306C39.3509 1.55027 39.4167 1.70924 39.4167 1.875V6.875C39.4167 7.04076 39.3509 7.19973 39.2337 7.31694C39.1165 7.43415 38.9575 7.5 38.7917 7.5H24.4167Z" fill="#033C59"/>
<path d="M27.0104 5.96876C26.8229 5.96876 26.7667 5.91876 26.2917 5.66876L25.8604 5.89376C25.7599 5.94525 25.6474 5.96856 25.5347 5.96122C25.422 5.95388 25.3135 5.91615 25.2205 5.85205C25.1276 5.78795 25.0537 5.69987 25.0068 5.59717C24.9599 5.49446 24.9417 5.38097 24.9542 5.26876L25.0417 4.75626L24.6979 4.41876C24.6155 4.33739 24.5573 4.23472 24.5298 4.12221C24.5023 4.00969 24.5067 3.89176 24.5423 3.78156C24.578 3.67136 24.6435 3.57324 24.7317 3.49814C24.8199 3.42304 24.9272 3.37392 25.0417 3.35626L25.5229 3.28126L25.7354 2.85001C25.7866 2.74434 25.8665 2.65522 25.966 2.59286C26.0655 2.53051 26.1805 2.49744 26.2979 2.49744C26.4153 2.49744 26.5304 2.53051 26.6298 2.59286C26.7293 2.65522 26.8092 2.74434 26.8604 2.85001L27.0729 3.28126L27.5542 3.35626C27.6686 3.37392 27.7759 3.42304 27.8641 3.49814C27.9523 3.57324 28.0179 3.67136 28.0535 3.78156C28.0892 3.89176 28.0935 4.00969 28.066 4.12221C28.0385 4.23472 27.9803 4.33739 27.8979 4.41876L27.5417 4.75626L27.6229 5.23751C27.6383 5.32697 27.6341 5.41872 27.6105 5.50637C27.5869 5.59403 27.5444 5.67549 27.4861 5.74509C27.4278 5.81468 27.3551 5.87074 27.2729 5.90937C27.1908 5.948 27.1012 5.96826 27.0104 5.96876V5.96876Z" fill="#F5F7FF"/>
<path d="M32.0104 5.96876C31.8229 5.96876 31.7667 5.91876 31.2917 5.66876L30.8604 5.89376C30.7599 5.94525 30.6474 5.96856 30.5347 5.96122C30.422 5.95388 30.3135 5.91615 30.2205 5.85205C30.1276 5.78795 30.0537 5.69987 30.0068 5.59717C29.9599 5.49446 29.9417 5.38097 29.9542 5.26876L30.0417 4.75626L29.6979 4.41876C29.6155 4.33739 29.5573 4.23472 29.5298 4.12221C29.5023 4.00969 29.5067 3.89176 29.5423 3.78156C29.578 3.67136 29.6435 3.57324 29.7317 3.49814C29.8199 3.42304 29.9272 3.37392 30.0417 3.35626L30.5229 3.28126L30.7354 2.85001C30.7866 2.74434 30.8665 2.65522 30.966 2.59286C31.0655 2.53051 31.1805 2.49744 31.2979 2.49744C31.4153 2.49744 31.5304 2.53051 31.6298 2.59286C31.7293 2.65522 31.8092 2.74434 31.8604 2.85001L32.0729 3.28126L32.5542 3.35626C32.6686 3.37392 32.7759 3.42304 32.8641 3.49814C32.9523 3.57324 33.0179 3.67136 33.0535 3.78156C33.0892 3.89176 33.0935 4.00969 33.066 4.12221C33.0385 4.23472 32.9803 4.33739 32.8979 4.41876L32.5417 4.75626L32.6229 5.23751C32.6383 5.32697 32.6341 5.41872 32.6105 5.50637C32.5869 5.59403 32.5444 5.67549 32.4861 5.74509C32.4278 5.81468 32.3551 5.87074 32.2729 5.90937C32.1908 5.948 32.1012 5.96826 32.0104 5.96876V5.96876Z" fill="#F5F7FF"/>
<path d="M37.0104 5.96876C36.8229 5.96876 36.7667 5.91876 36.2917 5.66876L35.8604 5.89376C35.7599 5.94525 35.6474 5.96856 35.5347 5.96122C35.422 5.95388 35.3135 5.91615 35.2205 5.85205C35.1276 5.78795 35.0537 5.69987 35.0068 5.59717C34.9599 5.49446 34.9417 5.38097 34.9542 5.26876L35.0417 4.75626L34.6979 4.41876C34.6155 4.33739 34.5573 4.23472 34.5298 4.12221C34.5023 4.00969 34.5067 3.89176 34.5423 3.78156C34.578 3.67136 34.6435 3.57324 34.7317 3.49814C34.8199 3.42304 34.9272 3.37392 35.0417 3.35626L35.5229 3.28126L35.7354 2.85001C35.7866 2.74434 35.8665 2.65522 35.966 2.59286C36.0655 2.53051 36.1805 2.49744 36.2979 2.49744C36.4153 2.49744 36.5304 2.53051 36.6298 2.59286C36.7293 2.65522 36.8092 2.74434 36.8604 2.85001L37.0729 3.28126L37.5542 3.35626C37.6686 3.37392 37.7759 3.42304 37.8641 3.49814C37.9523 3.57324 38.0179 3.67136 38.0535 3.78156C38.0892 3.89176 38.0935 4.00969 38.066 4.12221C38.0385 4.23472 37.9803 4.33739 37.8979 4.41876L37.5417 4.75626L37.6229 5.23751C37.6383 5.32697 37.6341 5.41872 37.6105 5.50637C37.5869 5.59403 37.5444 5.67549 37.4861 5.74509C37.4278 5.81468 37.3551 5.87074 37.2729 5.90937C37.1908 5.948 37.1012 5.96826 37.0104 5.96876V5.96876Z" fill="#F5F7FF"/>
<path d="M18.448 21.7687C18.3267 21.6711 18.2463 21.5316 18.2225 21.3777C18.1986 21.2238 18.2331 21.0666 18.3191 20.9368C18.4051 20.807 18.5365 20.7139 18.6875 20.6759C18.8385 20.6379 18.9983 20.6576 19.1355 20.7312C19.5888 21.0341 20.1217 21.1957 20.6668 21.1957C21.2119 21.1957 21.7448 21.0341 22.198 20.7312C22.3353 20.6576 22.495 20.6379 22.646 20.6759C22.7971 20.7139 22.9284 20.807 23.0145 20.9368C23.1005 21.0666 23.1349 21.2238 23.1111 21.3777C23.0872 21.5316 23.0068 21.6711 22.8855 21.7687C22.2294 22.2092 21.457 22.4443 20.6668 22.4443C19.8765 22.4443 19.1042 22.2092 18.448 21.7687V21.7687Z" fill="#647499"/>
<path d="M38.1667 11.25C38.0431 11.25 37.9223 11.2133 37.8195 11.1447C37.7167 11.076 37.6366 10.9784 37.5893 10.8642C37.542 10.75 37.5296 10.6243 37.5538 10.5031C37.5779 10.3818 37.6374 10.2705 37.7248 10.1831C37.8122 10.0957 37.9236 10.0361 38.0448 10.012C38.1661 9.98789 38.2917 10.0003 38.4059 10.0476C38.5201 10.0949 38.6177 10.175 38.6864 10.2778C38.7551 10.3805 38.7917 10.5014 38.7917 10.625C38.7917 10.7908 38.7259 10.9497 38.6087 11.0669C38.4915 11.1842 38.3325 11.25 38.1667 11.25Z" fill="#96A1C3"/>
<path d="M35.6667 11.25C35.5431 11.25 35.4223 11.2133 35.3195 11.1447C35.2167 11.076 35.1366 10.9784 35.0893 10.8642C35.042 10.75 35.0296 10.6243 35.0538 10.5031C35.0779 10.3818 35.1374 10.2705 35.2248 10.1831C35.3122 10.0957 35.4236 10.0361 35.5448 10.012C35.6661 9.98789 35.7917 10.0003 35.9059 10.0476C36.0201 10.0949 36.1177 10.175 36.1864 10.2778C36.2551 10.3805 36.2917 10.5014 36.2917 10.625C36.2917 10.7908 36.2259 10.9497 36.1087 11.0669C35.9915 11.1842 35.8325 11.25 35.6667 11.25Z" fill="#96A1C3"/>
<path d="M33.1667 11.25C33.0431 11.25 32.9223 11.2133 32.8195 11.1447C32.7167 11.076 32.6366 10.9784 32.5893 10.8642C32.542 10.75 32.5296 10.6243 32.5538 10.5031C32.5779 10.3818 32.6374 10.2705 32.7248 10.1831C32.8122 10.0957 32.9236 10.0361 33.0448 10.012C33.1661 9.98789 33.2917 10.0003 33.4059 10.0476C33.5201 10.0949 33.6177 10.175 33.6864 10.2778C33.7551 10.3805 33.7917 10.5014 33.7917 10.625C33.7917 10.7908 33.7259 10.9497 33.6087 11.0669C33.4915 11.1842 33.3325 11.25 33.1667 11.25Z" fill="#96A1C3"/>
<path d="M18.1667 18.75C18.001 18.75 17.842 18.6842 17.7248 18.5669C17.6076 18.4497 17.5417 18.2908 17.5417 18.125V16.875C17.5417 16.7092 17.6076 16.5503 17.7248 16.4331C17.842 16.3158 18.001 16.25 18.1667 16.25C18.3325 16.25 18.4915 16.3158 18.6087 16.4331C18.7259 16.5503 18.7917 16.7092 18.7917 16.875V18.125C18.7917 18.2908 18.7259 18.4497 18.6087 18.5669C18.4915 18.6842 18.3325 18.75 18.1667 18.75Z" fill="#647499"/>
<path d="M23.1667 18.75C23.001 18.75 22.842 18.6842 22.7248 18.5669C22.6076 18.4497 22.5417 18.2908 22.5417 18.125V16.875C22.5417 16.7092 22.6076 16.5503 22.7248 16.4331C22.842 16.3158 23.001 16.25 23.1667 16.25C23.3325 16.25 23.4915 16.3158 23.6087 16.4331C23.7259 16.5503 23.7917 16.7092 23.7917 16.875V18.125C23.7917 18.2908 23.7259 18.4497 23.6087 18.5669C23.4915 18.6842 23.3325 18.75 23.1667 18.75Z" fill="#647499"/>
</g>
<defs>
<clipPath id="clip0_754_82781">
<rect width="40" height="40" fill="white" transform="translate(0.666748)"/>
</clipPath>
</defs>
</svg>
