<svg width="49" height="48" viewBox="0 0 49 48" fill="none" xmlns="http://www.w3.org/2000/svg">
<g clip-path="url(#clip0_754_82028)">
<path d="M2.58325 39.75H46.0833C46.4811 39.75 46.8626 39.908 47.1439 40.1893C47.4252 40.4706 47.5833 40.8522 47.5833 41.25V42.75C47.5833 43.9435 47.1091 45.0881 46.2652 45.932C45.4213 46.7759 44.2767 47.25 43.0833 47.25H5.58325C4.38978 47.25 3.24519 46.7759 2.40127 45.932C1.55736 45.0881 1.08325 43.9435 1.08325 42.75V41.25C1.08325 40.8522 1.24129 40.4706 1.52259 40.1893C1.8039 39.908 2.18543 39.75 2.58325 39.75V39.75Z" fill="#CCD3EB"/>
<path d="M43.0833 45H5.58333C4.46854 45.0064 3.39108 44.5987 2.5597 43.856C1.72833 43.1133 1.20222 42.0885 1.08333 40.98C1.03147 41.5689 1.03147 42.1612 1.08333 42.75C1.08333 43.9435 1.55744 45.0881 2.40135 45.932C3.24526 46.7759 4.38986 47.25 5.58333 47.25H43.0833C44.2768 47.25 45.4214 46.7759 46.2653 45.932C47.1092 45.0881 47.5833 43.9435 47.5833 42.75C47.633 42.1611 47.633 41.569 47.5833 40.98C47.4644 42.0885 46.9383 43.1133 46.107 43.856C45.2756 44.5987 44.1981 45.0064 43.0833 45V45Z" fill="#96A1C3"/>
<path d="M18.3333 39.75H30.3333V42C30.3333 42.3978 30.1752 42.7794 29.8939 43.0607C29.6126 43.342 29.2311 43.5 28.8333 43.5H19.8333C19.4354 43.5 19.0539 43.342 18.7726 43.0607C18.4913 42.7794 18.3333 42.3978 18.3333 42V39.75Z" fill="#647499"/>
<path d="M43.0833 6.75H5.58325C3.9264 6.75 2.58325 8.09315 2.58325 9.75V36.75C2.58325 38.4069 3.9264 39.75 5.58325 39.75H43.0833C44.7401 39.75 46.0833 38.4069 46.0833 36.75V9.75C46.0833 8.09315 44.7401 6.75 43.0833 6.75Z" fill="#96A1C3"/>
<path d="M43.0833 37.5H5.58325C4.7876 37.5 4.02454 37.1839 3.46193 36.6213C2.89932 36.0587 2.58325 35.2956 2.58325 34.5V36.75C2.58325 37.5456 2.89932 38.3087 3.46193 38.8713C4.02454 39.4339 4.7876 39.75 5.58325 39.75H43.0833C43.8789 39.75 44.642 39.4339 45.2046 38.8713C45.7672 38.3087 46.0833 37.5456 46.0833 36.75V34.5C46.0833 35.2956 45.7672 36.0587 45.2046 36.6213C44.642 37.1839 43.8789 37.5 43.0833 37.5Z" fill="#647499"/>
<path d="M42.3333 9.75H6.33325C5.91904 9.75 5.58325 10.0858 5.58325 10.5V36C5.58325 36.4142 5.91904 36.75 6.33325 36.75H42.3333C42.7475 36.75 43.0833 36.4142 43.0833 36V10.5C43.0833 10.0858 42.7475 9.75 42.3333 9.75Z" fill="#F5F7FF"/>
<path d="M40.0833 15.75C44.2254 15.75 47.5833 12.3921 47.5833 8.25C47.5833 4.10786 44.2254 0.75 40.0833 0.75C35.9411 0.75 32.5833 4.10786 32.5833 8.25C32.5833 12.3921 35.9411 15.75 40.0833 15.75Z" fill="#0074FF"/>
<path d="M40.0833 7.5C39.8843 7.5 39.6936 7.42098 39.5529 7.28033C39.4123 7.13968 39.3333 6.94891 39.3333 6.75C39.3333 6.55109 39.4123 6.36032 39.5529 6.21967C39.6936 6.07902 39.8843 6 40.0833 6H41.5833C41.7822 6 41.9729 5.92098 42.1136 5.78033C42.2542 5.63968 42.3333 5.44891 42.3333 5.25C42.3333 5.05109 42.2542 4.86032 42.1136 4.71967C41.9729 4.57902 41.7822 4.5 41.5833 4.5H40.8333V3.75C40.8333 3.55109 40.7542 3.36032 40.6136 3.21967C40.4729 3.07902 40.2822 3 40.0833 3C39.8843 3 39.6936 3.07902 39.5529 3.21967C39.4123 3.36032 39.3333 3.55109 39.3333 3.75V4.635C38.8372 4.81498 38.4202 5.16358 38.1552 5.61985C37.8901 6.07612 37.7938 6.61103 37.8832 7.13108C37.9726 7.65113 38.2419 8.12324 38.644 8.46486C39.0462 8.80649 39.5556 8.99591 40.0833 9C40.2822 9 40.4729 9.07902 40.6136 9.21967C40.7542 9.36032 40.8333 9.55109 40.8333 9.75C40.8333 9.94891 40.7542 10.1397 40.6136 10.2803C40.4729 10.421 40.2822 10.5 40.0833 10.5H38.5833C38.3843 10.5 38.1936 10.579 38.0529 10.7197C37.9123 10.8603 37.8333 11.0511 37.8333 11.25C37.8333 11.4489 37.9123 11.6397 38.0529 11.7803C38.1936 11.921 38.3843 12 38.5833 12H39.3333V12.75C39.3333 12.9489 39.4123 13.1397 39.5529 13.2803C39.6936 13.421 39.8843 13.5 40.0833 13.5C40.2822 13.5 40.4729 13.421 40.6136 13.2803C40.7542 13.1397 40.8333 12.9489 40.8333 12.75V11.865C41.3293 11.685 41.7463 11.3364 42.0113 10.8802C42.2764 10.4239 42.3727 9.88897 42.2833 9.36892C42.1939 8.84887 41.9247 8.37676 41.5225 8.03514C41.1203 7.69351 40.6109 7.50409 40.0833 7.5V7.5Z" fill="#F5F7FF"/>
<path d="M12.3333 20.25H9.33325C8.91904 20.25 8.58325 20.5858 8.58325 21V30C8.58325 30.4142 8.91904 30.75 9.33325 30.75H12.3333C12.7475 30.75 13.0833 30.4142 13.0833 30V21C13.0833 20.5858 12.7475 20.25 12.3333 20.25Z" fill="#0074FF"/>
<path d="M21.3333 15H18.3333C17.919 15 17.5833 15.3358 17.5833 15.75V27.75C17.5833 28.1642 17.919 28.5 18.3333 28.5H21.3333C21.7475 28.5 22.0833 28.1642 22.0833 27.75V15.75C22.0833 15.3358 21.7475 15 21.3333 15Z" fill="#0074FF"/>
<path d="M30.3333 18.75H27.3333C26.919 18.75 26.5833 19.0858 26.5833 19.5V30C26.5833 30.4142 26.919 30.75 27.3333 30.75H30.3333C30.7475 30.75 31.0833 30.4142 31.0833 30V19.5C31.0833 19.0858 30.7475 18.75 30.3333 18.75Z" fill="#0074FF"/>
<path d="M39.3333 21.75H36.3333C35.919 21.75 35.5833 22.0858 35.5833 22.5V28.5C35.5833 28.9142 35.919 29.25 36.3333 29.25H39.3333C39.7475 29.25 40.0833 28.9142 40.0833 28.5V22.5C40.0833 22.0858 39.7475 21.75 39.3333 21.75Z" fill="#0074FF"/>
<path d="M46.0833 39C46.574 38.353 46.8377 37.5621 46.8333 36.75V16.5C46.8333 16.3011 46.7542 16.1103 46.6136 15.9697C46.4729 15.829 46.2822 15.75 46.0833 15.75C45.8843 15.75 45.6936 15.829 45.5529 15.9697C45.4123 16.1103 45.3333 16.3011 45.3333 16.5V36.75C45.3333 37.3467 45.0962 37.919 44.6742 38.341C44.2523 38.7629 43.68 39 43.0833 39H5.58325C4.98651 39 4.41422 38.7629 3.99226 38.341C3.5703 37.919 3.33325 37.3467 3.33325 36.75V9.75C3.33325 9.15327 3.5703 8.58097 3.99226 8.15901C4.41422 7.73706 4.98651 7.5 5.58325 7.5H31.8708C31.8183 7.99862 31.8183 8.50138 31.8708 9H6.33325C5.93543 9 5.5539 9.15804 5.27259 9.43934C4.99129 9.72065 4.83325 10.1022 4.83325 10.5V24.75C4.83325 24.9489 4.91227 25.1397 5.05292 25.2803C5.19357 25.421 5.38434 25.5 5.58325 25.5C5.78216 25.5 5.97293 25.421 6.11358 25.2803C6.25423 25.1397 6.33325 24.9489 6.33325 24.75V10.5H32.1558C32.7547 12.6011 34.1626 14.3788 36.0705 15.4432C37.9785 16.5076 40.2308 16.7716 42.3333 16.1775V36H6.33325V32.25C6.33325 32.0511 6.25423 31.8603 6.11358 31.7197C5.97293 31.579 5.78216 31.5 5.58325 31.5C5.38434 31.5 5.19357 31.579 5.05292 31.7197C4.91227 31.8603 4.83325 32.0511 4.83325 32.25V36C4.83325 36.3978 4.99129 36.7794 5.27259 37.0607C5.5539 37.342 5.93543 37.5 6.33325 37.5H42.3333C42.7311 37.5 43.1126 37.342 43.3939 37.0607C43.6752 36.7794 43.8333 36.3978 43.8333 36V15.5925C45.0555 14.9716 46.1038 14.0558 46.8833 12.9281C47.6628 11.8003 48.1489 10.4961 48.2978 9.13323C48.4467 7.7704 48.2536 6.39195 47.736 5.12247C47.2184 3.85299 46.3927 2.73251 45.3333 1.86231C44.274 0.992106 43.0144 0.399612 41.6686 0.138385C40.3228 -0.122843 38.9331 -0.0445705 37.6251 0.366128C36.3171 0.776827 35.1321 1.507 34.1772 2.49066C33.2223 3.47431 32.5275 4.68043 32.1558 6H5.58325C4.58869 6 3.63486 6.39509 2.9316 7.09835C2.22834 7.80161 1.83325 8.75544 1.83325 9.75V36.75C1.82885 37.5621 2.09247 38.353 2.58325 39C1.98651 39 1.41422 39.2371 0.992262 39.659C0.570305 40.081 0.333252 40.6533 0.333252 41.25L0.333252 42.75C0.333252 44.1424 0.886375 45.4777 1.87094 46.4623C2.85551 47.4469 4.19087 48 5.58325 48H43.0833C44.4756 48 45.811 47.4469 46.7956 46.4623C47.7801 45.4777 48.3333 44.1424 48.3333 42.75V41.25C48.3333 40.6533 48.0962 40.081 47.6742 39.659C47.2523 39.2371 46.68 39 46.0833 39ZM40.0833 1.5C41.4183 1.5 42.7233 1.89588 43.8334 2.63758C44.9434 3.37928 45.8085 4.43349 46.3194 5.66689C46.8303 6.90029 46.964 8.25749 46.7036 9.56686C46.4431 10.8762 45.8002 12.079 44.8562 13.023C43.9122 13.967 42.7095 14.6099 41.4001 14.8703C40.0907 15.1308 38.7335 14.9971 37.5001 14.4862C36.2667 13.9753 35.2125 13.1101 34.4708 12.0001C33.7291 10.8901 33.3333 9.58503 33.3333 8.25C33.3333 6.45979 34.0444 4.7429 35.3103 3.47703C36.5762 2.21116 38.293 1.5 40.0833 1.5V1.5ZM29.5833 40.5V42C29.5833 42.1989 29.5042 42.3897 29.3636 42.5303C29.2229 42.671 29.0322 42.75 28.8333 42.75H19.8333C19.6343 42.75 19.4436 42.671 19.3029 42.5303C19.1623 42.3897 19.0833 42.1989 19.0833 42V40.5H29.5833ZM46.8333 42.75C46.8333 43.7446 46.4382 44.6984 45.7349 45.4017C45.0316 46.1049 44.0778 46.5 43.0833 46.5H5.58325C4.58869 46.5 3.63486 46.1049 2.9316 45.4017C2.22834 44.6984 1.83325 43.7446 1.83325 42.75V41.25C1.83325 41.0511 1.91227 40.8603 2.05292 40.7197C2.19357 40.579 2.38434 40.5 2.58325 40.5H17.5833V42C17.5833 42.5967 17.8203 43.169 18.2423 43.591C18.6642 44.0129 19.2365 44.25 19.8333 44.25H28.8333C29.43 44.25 30.0023 44.0129 30.4242 43.591C30.8462 43.169 31.0833 42.5967 31.0833 42V40.5H46.0833C46.2822 40.5 46.4729 40.579 46.6136 40.7197C46.7542 40.8603 46.8333 41.0511 46.8333 41.25V42.75Z" fill="#033C59"/>
<path d="M5.58325 30C5.78216 30 5.97293 29.921 6.11358 29.7803C6.25423 29.6397 6.33325 29.4489 6.33325 29.25V27.75C6.33325 27.5511 6.25423 27.3603 6.11358 27.2197C5.97293 27.079 5.78216 27 5.58325 27C5.38434 27 5.19357 27.079 5.05292 27.2197C4.91227 27.3603 4.83325 27.5511 4.83325 27.75V29.25C4.83325 29.4489 4.91227 29.6397 5.05292 29.7803C5.19357 29.921 5.38434 30 5.58325 30Z" fill="#033C59"/>
<path d="M10.8333 18C10.6343 18 10.4436 18.079 10.3029 18.2197C10.1623 18.3603 10.0833 18.5511 10.0833 18.75V19.5H9.33325C8.93543 19.5 8.5539 19.658 8.27259 19.9393C7.99129 20.2206 7.83325 20.6022 7.83325 21V30C7.83325 30.3978 7.99129 30.7794 8.27259 31.0607C8.5539 31.342 8.93543 31.5 9.33325 31.5H10.0833V32.25C10.0833 32.4489 10.1623 32.6397 10.3029 32.7803C10.4436 32.921 10.6343 33 10.8333 33C11.0322 33 11.2229 32.921 11.3636 32.7803C11.5042 32.6397 11.5833 32.4489 11.5833 32.25V31.5H12.3333C12.7311 31.5 13.1126 31.342 13.3939 31.0607C13.6752 30.7794 13.8333 30.3978 13.8333 30V21C13.8333 20.6022 13.6752 20.2206 13.3939 19.9393C13.1126 19.658 12.7311 19.5 12.3333 19.5H11.5833V18.75C11.5833 18.5511 11.5042 18.3603 11.3636 18.2197C11.2229 18.079 11.0322 18 10.8333 18ZM12.3333 30H9.33325V21H12.3333V30Z" fill="#033C59"/>
<path d="M19.8333 12.75C19.6343 12.75 19.4436 12.829 19.3029 12.9697C19.1623 13.1103 19.0833 13.3011 19.0833 13.5V14.25H18.3333C17.9354 14.25 17.5539 14.408 17.2726 14.6893C16.9913 14.9706 16.8333 15.3522 16.8333 15.75V27.75C16.8333 28.1478 16.9913 28.5294 17.2726 28.8107C17.5539 29.092 17.9354 29.25 18.3333 29.25H19.0833V30C19.0833 30.1989 19.1623 30.3897 19.3029 30.5303C19.4436 30.671 19.6343 30.75 19.8333 30.75C20.0322 30.75 20.2229 30.671 20.3636 30.5303C20.5042 30.3897 20.5833 30.1989 20.5833 30V29.25H21.3333C21.7311 29.25 22.1126 29.092 22.3939 28.8107C22.6752 28.5294 22.8333 28.1478 22.8333 27.75V15.75C22.8333 15.3522 22.6752 14.9706 22.3939 14.6893C22.1126 14.408 21.7311 14.25 21.3333 14.25H20.5833V13.5C20.5833 13.3011 20.5042 13.1103 20.3636 12.9697C20.2229 12.829 20.0322 12.75 19.8333 12.75ZM21.3333 27.75H18.3333V15.75H21.3333V27.75Z" fill="#033C59"/>
<path d="M28.8333 16.5C28.6343 16.5 28.4436 16.579 28.3029 16.7197C28.1623 16.8603 28.0833 17.0511 28.0833 17.25V18H27.3333C26.9354 18 26.5539 18.158 26.2726 18.4393C25.9913 18.7206 25.8333 19.1022 25.8333 19.5V30C25.8333 30.3978 25.9913 30.7794 26.2726 31.0607C26.5539 31.342 26.9354 31.5 27.3333 31.5H28.0833V32.25C28.0833 32.4489 28.1623 32.6397 28.3029 32.7803C28.4436 32.921 28.6343 33 28.8333 33C29.0322 33 29.2229 32.921 29.3636 32.7803C29.5042 32.6397 29.5833 32.4489 29.5833 32.25V31.5H30.3333C30.7311 31.5 31.1126 31.342 31.3939 31.0607C31.6752 30.7794 31.8333 30.3978 31.8333 30V19.5C31.8333 19.1022 31.6752 18.7206 31.3939 18.4393C31.1126 18.158 30.7311 18 30.3333 18H29.5833V17.25C29.5833 17.0511 29.5042 16.8603 29.3636 16.7197C29.2229 16.579 29.0322 16.5 28.8333 16.5ZM30.3333 30H27.3333V19.5H30.3333V30Z" fill="#033C59"/>
<path d="M37.8333 19.5C37.6343 19.5 37.4436 19.579 37.3029 19.7197C37.1623 19.8603 37.0833 20.0511 37.0833 20.25V21H36.3333C35.9354 21 35.5539 21.158 35.2726 21.4393C34.9913 21.7206 34.8333 22.1022 34.8333 22.5V28.5C34.8333 28.8978 34.9913 29.2794 35.2726 29.5607C35.5539 29.842 35.9354 30 36.3333 30H37.0833V30.75C37.0833 30.9489 37.1623 31.1397 37.3029 31.2803C37.4436 31.421 37.6343 31.5 37.8333 31.5C38.0322 31.5 38.2229 31.421 38.3636 31.2803C38.5042 31.1397 38.5833 30.9489 38.5833 30.75V30H39.3333C39.7311 30 40.1126 29.842 40.3939 29.5607C40.6752 29.2794 40.8333 28.8978 40.8333 28.5V22.5C40.8333 22.1022 40.6752 21.7206 40.3939 21.4393C40.1126 21.158 39.7311 21 39.3333 21H38.5833V20.25C38.5833 20.0511 38.5042 19.8603 38.3636 19.7197C38.2229 19.579 38.0322 19.5 37.8333 19.5ZM39.3333 28.5H36.3333V22.5H39.3333V28.5Z" fill="#033C59"/>
<path d="M10.0833 15.75H8.58325C8.38434 15.75 8.19357 15.671 8.05292 15.5303C7.91227 15.3897 7.83325 15.1989 7.83325 15C7.83325 14.8011 7.91227 14.6103 8.05292 14.4697C8.19357 14.329 8.38434 14.25 8.58325 14.25H10.0833C10.2822 14.25 10.4729 14.329 10.6136 14.4697C10.7542 14.6103 10.8333 14.8011 10.8333 15C10.8333 15.1989 10.7542 15.3897 10.6136 15.5303C10.4729 15.671 10.2822 15.75 10.0833 15.75Z" fill="#96A1C3"/>
<path d="M10.0833 13.5H8.58325C8.38434 13.5 8.19357 13.421 8.05292 13.2803C7.91227 13.1397 7.83325 12.9489 7.83325 12.75C7.83325 12.5511 7.91227 12.3603 8.05292 12.2197C8.19357 12.079 8.38434 12 8.58325 12H10.0833C10.2822 12 10.4729 12.079 10.6136 12.2197C10.7542 12.3603 10.8333 12.5511 10.8333 12.75C10.8333 12.9489 10.7542 13.1397 10.6136 13.2803C10.4729 13.421 10.2822 13.5 10.0833 13.5Z" fill="#96A1C3"/>
<path d="M31.0833 1.5C30.9349 1.5 30.7899 1.54399 30.6666 1.6264C30.5432 1.70881 30.4471 1.82594 30.3903 1.96299C30.3336 2.10003 30.3187 2.25083 30.3477 2.39632C30.3766 2.5418 30.448 2.67544 30.5529 2.78033C30.6578 2.88522 30.7914 2.95665 30.9369 2.98559C31.0824 3.01453 31.2332 2.99968 31.3703 2.94291C31.5073 2.88614 31.6244 2.79001 31.7069 2.66668C31.7893 2.54334 31.8333 2.39834 31.8333 2.25C31.8333 2.05109 31.7542 1.86032 31.6136 1.71967C31.4729 1.57902 31.2822 1.5 31.0833 1.5V1.5Z" fill="#96A1C3"/>
<path d="M28.0833 1.5C27.9349 1.5 27.7899 1.54399 27.6666 1.6264C27.5432 1.70881 27.4471 1.82594 27.3903 1.96299C27.3336 2.10003 27.3187 2.25083 27.3477 2.39632C27.3766 2.5418 27.448 2.67544 27.5529 2.78033C27.6578 2.88522 27.7914 2.95665 27.9369 2.98559C28.0824 3.01453 28.2332 2.99968 28.3703 2.94291C28.5073 2.88614 28.6244 2.79001 28.7069 2.66668C28.7893 2.54334 28.8333 2.39834 28.8333 2.25C28.8333 2.05109 28.7542 1.86032 28.6136 1.71967C28.4729 1.57902 28.2822 1.5 28.0833 1.5V1.5Z" fill="#96A1C3"/>
</g>
<defs>
<clipPath id="clip0_754_82028">
<rect width="48" height="48" fill="white" transform="translate(0.333252)"/>
</clipPath>
</defs>
</svg>
