<svg width="1216" height="173" viewBox="0 0 1216 173" fill="none" xmlns="http://www.w3.org/2000/svg">
<g clip-path="url(#clip0_763_81625)">
<path d="M1202.76 146.4C1196.48 146.4 1191.23 150.78 1189.87 156.64H1139.64V131.58H1117.93V0H1090.05L1047.95 42.1L1071.19 65.34L1082.62 53.91V131.58H1059.12V156.64H26.13C24.77 150.77 19.52 146.4 13.24 146.4C5.93 146.4 0 152.33 0 159.64C0 166.95 5.93 172.88 13.24 172.88C19.52 172.88 24.77 168.5 26.13 162.64H1065.12V137.58H1088.62V39.42L1071.19 56.85L1056.44 42.1L1092.54 6H1111.94V137.58H1133.65V162.64H1189.88C1191.24 168.51 1196.49 172.88 1202.77 172.88C1210.08 172.88 1216.01 166.95 1216.01 159.64C1216.01 152.33 1210.08 146.4 1202.77 146.4H1202.76Z" fill="#4762F0"/>
<path d="M13.24 164.66C16.0124 164.66 18.26 162.412 18.26 159.64C18.26 156.868 16.0124 154.62 13.24 154.62C10.4675 154.62 8.21997 156.868 8.21997 159.64C8.21997 162.412 10.4675 164.66 13.24 164.66Z" fill="white"/>
<path d="M1202.76 164.66C1205.53 164.66 1207.78 162.412 1207.78 159.64C1207.78 156.868 1205.53 154.62 1202.76 154.62C1199.99 154.62 1197.74 156.868 1197.74 159.64C1197.74 162.412 1199.99 164.66 1202.76 164.66Z" fill="white"/>
</g>
<defs>
<clipPath id="clip0_763_81625">
<rect width="1216" height="172.88" fill="white"/>
</clipPath>
</defs>
</svg>
