<svg width="80" height="80" viewBox="0 0 80 80" fill="none" xmlns="http://www.w3.org/2000/svg">
<g clip-path="url(#clip0_756_83200)">
<path d="M39.9999 79.2727C60.083 79.2727 76.3635 62.9922 76.3635 42.9091C76.3635 22.826 60.083 6.54547 39.9999 6.54547C19.9168 6.54547 3.63623 22.826 3.63623 42.9091C3.63623 62.9922 19.9168 79.2727 39.9999 79.2727Z" fill="#E7EFFF"/>
<path d="M63.2724 70.8364C58.0235 75.211 51.6483 78.0183 44.8774 78.9365C38.1065 79.8547 31.2139 78.8465 24.9896 76.0277C18.7652 73.2088 13.461 68.6933 9.68491 62.9987C5.90878 57.304 3.81352 50.6607 3.63927 43.83C3.46502 36.9993 5.21883 30.2578 8.69969 24.378C12.1805 18.4982 17.2476 13.7181 23.3201 10.5856C29.3926 7.45304 36.2249 6.0948 43.0338 6.66654C49.8427 7.23828 56.3528 9.71686 61.8179 13.8182C66.2148 17.1057 69.809 21.3474 72.3302 26.2243C74.8515 31.1012 76.2341 36.4863 76.3741 41.9745C76.5141 47.4628 75.4079 52.9113 73.1386 57.9104C70.8693 62.9095 67.496 67.3289 63.2724 70.8364Z" fill="#E7EFFF"/>
<path d="M2.90887 11.6364C4.11385 11.6364 5.09069 10.6596 5.09069 9.45458C5.09069 8.2496 4.11385 7.27277 2.90887 7.27277C1.70388 7.27277 0.727051 8.2496 0.727051 9.45458C0.727051 10.6596 1.70388 11.6364 2.90887 11.6364Z" fill="#FF4D69"/>
<path d="M72.7272 5.09093C73.9322 5.09093 74.909 4.1141 74.909 2.90911C74.909 1.70413 73.9322 0.727295 72.7272 0.727295C71.5222 0.727295 70.5454 1.70413 70.5454 2.90911C70.5454 4.1141 71.5222 5.09093 72.7272 5.09093Z" fill="#00C99F"/>
<path d="M77.0905 52.3636C78.2955 52.3636 79.2723 51.3868 79.2723 50.1818C79.2723 48.9768 78.2955 48 77.0905 48C75.8855 48 74.9087 48.9768 74.9087 50.1818C74.9087 51.3868 75.8855 52.3636 77.0905 52.3636Z" fill="#FFA100"/>
<path d="M7.27264 79.2728C8.47762 79.2728 9.45446 78.2959 9.45446 77.0909C9.45446 75.886 8.47762 74.9091 7.27264 74.9091C6.06765 74.9091 5.09082 75.886 5.09082 77.0909C5.09082 78.2959 6.06765 79.2728 7.27264 79.2728Z" fill="#00C99F"/>
<path d="M67.636 19.6364V66.5309C66.3069 68.0879 64.8471 69.5283 63.2724 70.8364H16.7269C15.1522 69.5283 13.6924 68.0879 12.3633 66.5309C12.3633 34.6255 12.3633 19.6364 12.3633 19.2582C12.4595 17.7816 13.1147 16.3971 14.1955 15.3865C15.2764 14.3759 16.7017 13.8151 18.1815 13.8182H61.8178C63.3609 13.8182 64.8408 14.4312 65.9319 15.5223C67.023 16.6134 67.636 18.0933 67.636 19.6364Z" fill="#4E6AFF"/>
<path d="M63.2725 19.6364V70.8364C56.7427 76.2881 48.5062 79.2745 39.9998 79.2745C31.4933 79.2745 23.2568 76.2881 16.7271 70.8364V19.6364C16.7271 19.2506 16.8803 18.8806 17.1531 18.6079C17.4259 18.3351 17.7958 18.1818 18.1816 18.1818H61.818C62.2037 18.1818 62.5737 18.3351 62.8465 18.6079C63.1193 18.8806 63.2725 19.2506 63.2725 19.6364Z" fill="white"/>
<path d="M55.2724 28.3637H24.727C23.9554 28.3637 23.2155 28.0572 22.6699 27.5116C22.1244 26.966 21.8179 26.2261 21.8179 25.4546V19.6364C21.8179 18.8648 22.1244 18.1249 22.6699 17.5793C23.2155 17.0338 23.9554 16.7273 24.727 16.7273H55.2724C56.044 16.7273 56.7839 17.0338 57.3295 17.5793C57.875 18.1249 58.1815 18.8648 58.1815 19.6364V25.4546C58.1815 26.2261 57.875 26.966 57.3295 27.5116C56.7839 28.0572 56.044 28.3637 55.2724 28.3637ZM24.727 19.6364V25.4546H55.2724V19.6364H24.727Z" fill="#7F96D1"/>
<path d="M50.909 9.45459H29.0908C28.2875 9.45459 27.6362 10.1058 27.6362 10.9091V21.091C27.6362 21.8943 28.2875 22.5455 29.0908 22.5455H50.909C51.7123 22.5455 52.3635 21.8943 52.3635 21.091V10.9091C52.3635 10.1058 51.7123 9.45459 50.909 9.45459Z" fill="#A5BCED"/>
<path d="M44.3635 9.45458H35.6362C35.6362 8.29727 36.096 7.18736 36.9143 6.36902C37.7326 5.55068 38.8426 5.09094 39.9999 5.09094C41.1572 5.09094 42.2671 5.55068 43.0854 6.36902C43.9038 7.18736 44.3635 8.29727 44.3635 9.45458Z" fill="#7F96D1"/>
<path d="M28.3635 35.6364H26.909V34.1818C26.909 33.7961 26.7558 33.4261 26.483 33.1533C26.2102 32.8805 25.8402 32.7273 25.4545 32.7273C25.0687 32.7273 24.6987 32.8805 24.4259 33.1533C24.1532 33.4261 23.9999 33.7961 23.9999 34.1818V35.6364H22.5454C22.1596 35.6364 21.7896 35.7896 21.5168 36.0624C21.2441 36.3352 21.0908 36.7052 21.0908 37.0909C21.0908 37.4767 21.2441 37.8467 21.5168 38.1195C21.7896 38.3922 22.1596 38.5455 22.5454 38.5455H23.9999V40C23.9999 40.3858 24.1532 40.7558 24.4259 41.0285C24.6987 41.3013 25.0687 41.4546 25.4545 41.4546C25.8402 41.4546 26.2102 41.3013 26.483 41.0285C26.7558 40.7558 26.909 40.3858 26.909 40V38.5455H28.3635C28.7493 38.5455 29.1193 38.3922 29.3921 38.1195C29.6648 37.8467 29.8181 37.4767 29.8181 37.0909C29.8181 36.7052 29.6648 36.3352 29.3921 36.0624C29.1193 35.7896 28.7493 35.6364 28.3635 35.6364Z" fill="#4E6AFF"/>
<path d="M57.4543 35.6364H33.4543C33.2614 35.6364 33.0765 35.5597 32.9401 35.4234C32.8037 35.287 32.7271 35.102 32.7271 34.9091C32.7271 34.7162 32.8037 34.5312 32.9401 34.3948C33.0765 34.2584 33.2614 34.1818 33.4543 34.1818H57.4543C57.6472 34.1818 57.8322 34.2584 57.9686 34.3948C58.105 34.5312 58.1816 34.7162 58.1816 34.9091C58.1816 35.102 58.105 35.287 57.9686 35.4234C57.8322 35.5597 57.6472 35.6364 57.4543 35.6364Z" fill="#A5BCED"/>
<path d="M43.6361 39.2728H33.4543C33.2614 39.2728 33.0765 39.1962 32.9401 39.0598C32.8037 38.9234 32.7271 38.7384 32.7271 38.5455C32.7271 38.3526 32.8037 38.1676 32.9401 38.0312C33.0765 37.8949 33.2614 37.8182 33.4543 37.8182H43.6361C43.829 37.8182 44.014 37.8949 44.1504 38.0312C44.2868 38.1676 44.3634 38.3526 44.3634 38.5455C44.3634 38.7384 44.2868 38.9234 44.1504 39.0598C44.014 39.1962 43.829 39.2728 43.6361 39.2728Z" fill="#A5BCED"/>
<path d="M28.3635 48.7273H26.909V47.2727C26.909 46.887 26.7558 46.517 26.483 46.2442C26.2102 45.9714 25.8402 45.8182 25.4545 45.8182C25.0687 45.8182 24.6987 45.9714 24.4259 46.2442C24.1532 46.517 23.9999 46.887 23.9999 47.2727V48.7273H22.5454C22.1596 48.7273 21.7896 48.8805 21.5168 49.1533C21.2441 49.4261 21.0908 49.796 21.0908 50.1818C21.0908 50.5676 21.2441 50.9376 21.5168 51.2103C21.7896 51.4831 22.1596 51.6364 22.5454 51.6364H23.9999V53.0909C23.9999 53.4767 24.1532 53.8466 24.4259 54.1194C24.6987 54.3922 25.0687 54.5455 25.4545 54.5455C25.8402 54.5455 26.2102 54.3922 26.483 54.1194C26.7558 53.8466 26.909 53.4767 26.909 53.0909V51.6364H28.3635C28.7493 51.6364 29.1193 51.4831 29.3921 51.2103C29.6648 50.9376 29.8181 50.5676 29.8181 50.1818C29.8181 49.796 29.6648 49.4261 29.3921 49.1533C29.1193 48.8805 28.7493 48.7273 28.3635 48.7273Z" fill="#4E6AFF"/>
<path d="M57.4543 48.7273H33.4543C33.2614 48.7273 33.0765 48.6507 32.9401 48.5143C32.8037 48.3779 32.7271 48.1929 32.7271 48C32.7271 47.8072 32.8037 47.6222 32.9401 47.4858C33.0765 47.3494 33.2614 47.2728 33.4543 47.2728H57.4543C57.6472 47.2728 57.8322 47.3494 57.9686 47.4858C58.105 47.6222 58.1816 47.8072 58.1816 48C58.1816 48.1929 58.105 48.3779 57.9686 48.5143C57.8322 48.6507 57.6472 48.7273 57.4543 48.7273Z" fill="#A5BCED"/>
<path d="M43.6361 52.3637H33.4543C33.2614 52.3637 33.0765 52.287 32.9401 52.1507C32.8037 52.0143 32.7271 51.8293 32.7271 51.6364C32.7271 51.4435 32.8037 51.2585 32.9401 51.1221C33.0765 50.9857 33.2614 50.9091 33.4543 50.9091H43.6361C43.829 50.9091 44.014 50.9857 44.1504 51.1221C44.2868 51.2585 44.3634 51.4435 44.3634 51.6364C44.3634 51.8293 44.2868 52.0143 44.1504 52.1507C44.014 52.287 43.829 52.3637 43.6361 52.3637Z" fill="#A5BCED"/>
<path d="M28.3635 61.8182H26.909V60.3637C26.909 59.9779 26.7558 59.6079 26.483 59.3351C26.2102 59.0624 25.8402 58.9091 25.4545 58.9091C25.0687 58.9091 24.6987 59.0624 24.4259 59.3351C24.1532 59.6079 23.9999 59.9779 23.9999 60.3637V61.8182H22.5454C22.1596 61.8182 21.7896 61.9715 21.5168 62.2442C21.2441 62.517 21.0908 62.887 21.0908 63.2728C21.0908 63.6585 21.2441 64.0285 21.5168 64.3013C21.7896 64.5741 22.1596 64.7273 22.5454 64.7273H23.9999V66.1818C23.9999 66.5676 24.1532 66.9376 24.4259 67.2104C24.6987 67.4831 25.0687 67.6364 25.4545 67.6364C25.8402 67.6364 26.2102 67.4831 26.483 67.2104C26.7558 66.9376 26.909 66.5676 26.909 66.1818V64.7273H28.3635C28.7493 64.7273 29.1193 64.5741 29.3921 64.3013C29.6648 64.0285 29.8181 63.6585 29.8181 63.2728C29.8181 62.887 29.6648 62.517 29.3921 62.2442C29.1193 61.9715 28.7493 61.8182 28.3635 61.8182Z" fill="#4E6AFF"/>
<path d="M57.4543 61.8182H33.4543C33.2614 61.8182 33.0765 61.7416 32.9401 61.6052C32.8037 61.4688 32.7271 61.2838 32.7271 61.0909C32.7271 60.898 32.8037 60.7131 32.9401 60.5767C33.0765 60.4403 33.2614 60.3636 33.4543 60.3636H57.4543C57.6472 60.3636 57.8322 60.4403 57.9686 60.5767C58.105 60.7131 58.1816 60.898 58.1816 61.0909C58.1816 61.2838 58.105 61.4688 57.9686 61.6052C57.8322 61.7416 57.6472 61.8182 57.4543 61.8182Z" fill="#A5BCED"/>
<path d="M43.6361 65.4545H33.4543C33.2614 65.4545 33.0765 65.3779 32.9401 65.2415C32.8037 65.1051 32.7271 64.9202 32.7271 64.7273C32.7271 64.5344 32.8037 64.3494 32.9401 64.213C33.0765 64.0766 33.2614 64 33.4543 64H43.6361C43.829 64 44.014 64.0766 44.1504 64.213C44.2868 64.3494 44.3634 64.5344 44.3634 64.7273C44.3634 64.9202 44.2868 65.1051 44.1504 65.2415C44.014 65.3779 43.829 65.4545 43.6361 65.4545Z" fill="#A5BCED"/>
<path d="M65.4542 79.2728C72.6841 79.2728 78.5451 73.4118 78.5451 66.1818C78.5451 58.9519 72.6841 53.0909 65.4542 53.0909C58.2243 53.0909 52.3633 58.9519 52.3633 66.1818C52.3633 73.4118 58.2243 79.2728 65.4542 79.2728Z" fill="#00C99F"/>
<path d="M62.458 71.36L58.0944 66.9964C57.709 66.5828 57.4992 66.0358 57.5091 65.4705C57.5191 64.9053 57.7481 64.366 58.1478 63.9662C58.5476 63.5665 59.0869 63.3375 59.6521 63.3275C60.2174 63.3175 60.7644 63.5274 61.178 63.9128L63.9998 66.7346L69.7307 61.0037C70.1443 60.6183 70.6914 60.4085 71.2566 60.4184C71.8218 60.4284 72.3611 60.6574 72.7609 61.0571C73.1606 61.4569 73.3896 61.9962 73.3996 62.5614C73.4096 63.1267 73.1998 63.6737 72.8144 64.0873L65.5416 71.36C65.1325 71.7686 64.578 71.9981 63.9998 71.9981C63.4216 71.9981 62.8671 71.7686 62.458 71.36Z" fill="white"/>
<path d="M45.818 17.4546H34.1816C33.7958 17.4546 33.4259 17.3013 33.1531 17.0285C32.8803 16.7558 32.7271 16.3858 32.7271 16C32.7271 15.6142 32.8803 15.2443 33.1531 14.9715C33.4259 14.6987 33.7958 14.5455 34.1816 14.5455H45.818C46.2037 14.5455 46.5737 14.6987 46.8465 14.9715C47.1193 15.2443 47.2725 15.6142 47.2725 16C47.2725 16.3858 47.1193 16.7558 46.8465 17.0285C46.5737 17.3013 46.2037 17.4546 45.818 17.4546Z" fill="white"/>
</g>
<defs>
<clipPath id="clip0_756_83200">
<rect width="80" height="80" fill="white"/>
</clipPath>
</defs>
</svg>
