<svg width="65" height="64" viewBox="0 0 65 64" fill="none" xmlns="http://www.w3.org/2000/svg">
<g clip-path="url(#clip0_756_80412)">
<path d="M3.5 47H59.5V51C59.5 52.0609 59.0786 53.0783 58.3284 53.8284C57.5783 54.5786 56.5609 55 55.5 55H7.5C6.43913 55 5.42172 54.5786 4.67157 53.8284C3.92143 53.0783 3.5 52.0609 3.5 51V47Z" fill="#CCD3EB"/>
<path d="M55.5 52H7.5C6.43913 52 5.42172 51.5786 4.67157 50.8284C3.92143 50.0783 3.5 49.0609 3.5 48V51C3.5 52.0609 3.92143 53.0783 4.67157 53.8284C5.42172 54.5786 6.43913 55 7.5 55H55.5C56.5609 55 57.5783 54.5786 58.3284 53.8284C59.0786 53.0783 59.5 52.0609 59.5 51V48C59.5 49.0609 59.0786 50.0783 58.3284 50.8284C57.5783 51.5786 56.5609 52 55.5 52Z" fill="#96A1C3"/>
<path d="M7.5 9H55.5C56.5609 9 57.5783 9.42143 58.3284 10.1716C59.0786 10.9217 59.5 11.9391 59.5 13V47H3.5V13C3.5 11.9391 3.92143 10.9217 4.67157 10.1716C5.42172 9.42143 6.43913 9 7.5 9Z" fill="#96A1C3"/>
<path d="M59.5 44H3.5V47H59.5V44Z" fill="#647499"/>
<path d="M42.5 63H22.5L23.67 61.83C25.478 60.0162 26.4953 57.561 26.5 55H38.5C38.5036 57.5612 39.5211 60.0168 41.33 61.83L42.5 63Z" fill="#96A1C3"/>
<path d="M38.98 58H25.98C26.3092 57.0334 26.4847 56.021 26.5 55H38.5C38.5024 56.0189 38.6644 57.0312 38.98 58Z" fill="#647499"/>
<path d="M8.5 13H54.5C54.7652 13 55.0196 13.1054 55.2071 13.2929C55.3946 13.4804 55.5 13.7348 55.5 14V47H7.5V14C7.5 13.7348 7.60536 13.4804 7.79289 13.2929C7.98043 13.1054 8.23478 13 8.5 13Z" fill="#CCD3EB"/>
<path d="M50.5 9H12.5V47H50.5V9Z" fill="#F5F7FF"/>
<path d="M28.5 1H47.5C48.2956 1 49.0587 1.31607 49.6213 1.87868C50.1839 2.44129 50.5 3.20435 50.5 4V9H28.5V1Z" fill="#CCD3EB"/>
<path d="M34.5 9.00001H12.5V4.00001C12.5 3.20436 12.8161 2.4413 13.3787 1.87869C13.9413 1.31608 14.7044 1.00001 15.5 1.00001H30.11C30.5186 0.998683 30.9179 1.12257 31.254 1.35499C31.5901 1.58741 31.847 1.91721 31.99 2.30001L34.5 9.00001Z" fill="#0074FF"/>
<path d="M28.5 6C28.3022 6 28.1089 5.94135 27.9444 5.83147C27.78 5.72159 27.6518 5.56541 27.5761 5.38268C27.5004 5.19996 27.4806 4.99889 27.5192 4.80491C27.5578 4.61093 27.653 4.43275 27.7929 4.29289C27.9327 4.15304 28.1109 4.0578 28.3049 4.01922C28.4989 3.98063 28.7 4.00043 28.8827 4.07612C29.0654 4.15181 29.2216 4.27998 29.3315 4.44443C29.4414 4.60888 29.5 4.80222 29.5 5C29.5 5.26522 29.3946 5.51957 29.2071 5.70711C29.0196 5.89464 28.7652 6 28.5 6Z" fill="#F5F7FF"/>
<path d="M18.21 13.2899C18.0217 13.1016 17.7663 12.9958 17.5 12.9958C17.2337 12.9958 16.9783 13.1016 16.79 13.2899C16.6017 13.4782 16.4959 13.7336 16.4959 13.9999C16.4959 14.2662 16.6017 14.5216 16.79 14.7099L19.09 16.9999L16.79 19.2899C16.6489 19.4298 16.5527 19.6085 16.5137 19.8033C16.4746 19.998 16.4944 20.2 16.5706 20.3834C16.6468 20.5669 16.7758 20.7235 16.9413 20.8333C17.1069 20.9431 17.3013 21.0011 17.5 20.9999C17.6316 21.0007 17.762 20.9755 17.8839 20.9257C18.0057 20.8759 18.1165 20.8026 18.21 20.7099L21.21 17.7099C21.3037 17.617 21.3781 17.5064 21.4288 17.3845C21.4796 17.2627 21.5058 17.132 21.5058 16.9999C21.5058 16.8679 21.4796 16.7372 21.4288 16.6154C21.3781 16.4935 21.3037 16.3829 21.21 16.2899L18.21 13.2899Z" fill="#0074FF"/>
<path d="M27.5 19H23.5C23.2348 19 22.9804 19.1054 22.7929 19.2929C22.6054 19.4804 22.5 19.7348 22.5 20C22.5 20.2652 22.6054 20.5196 22.7929 20.7071C22.9804 20.8946 23.2348 21 23.5 21H27.5C27.7652 21 28.0196 20.8946 28.2071 20.7071C28.3946 20.5196 28.5 20.2652 28.5 20C28.5 19.7348 28.3946 19.4804 28.2071 19.2929C28.0196 19.1054 27.7652 19 27.5 19Z" fill="#0074FF"/>
<path d="M17.5 26H23.5C23.7652 26 24.0196 25.8946 24.2071 25.7071C24.3946 25.5196 24.5 25.2652 24.5 25C24.5 24.7348 24.3946 24.4804 24.2071 24.2929C24.0196 24.1054 23.7652 24 23.5 24H17.5C17.2348 24 16.9804 24.1054 16.7929 24.2929C16.6054 24.4804 16.5 24.7348 16.5 25C16.5 25.2652 16.6054 25.5196 16.7929 25.7071C16.9804 25.8946 17.2348 26 17.5 26Z" fill="#96A1C3"/>
<path d="M28.5 26H45.5C45.7652 26 46.0196 25.8946 46.2071 25.7071C46.3946 25.5196 46.5 25.2652 46.5 25C46.5 24.7348 46.3946 24.4804 46.2071 24.2929C46.0196 24.1054 45.7652 24 45.5 24H28.5C28.2348 24 27.9804 24.1054 27.7929 24.2929C27.6054 24.4804 27.5 24.7348 27.5 25C27.5 25.2652 27.6054 25.5196 27.7929 25.7071C27.9804 25.8946 28.2348 26 28.5 26Z" fill="#96A1C3"/>
<path d="M17.5 31H21.5C21.7652 31 22.0196 30.8946 22.2071 30.7071C22.3946 30.5196 22.5 30.2652 22.5 30C22.5 29.7348 22.3946 29.4804 22.2071 29.2929C22.0196 29.1054 21.7652 29 21.5 29H17.5C17.2348 29 16.9804 29.1054 16.7929 29.2929C16.6054 29.4804 16.5 29.7348 16.5 30C16.5 30.2652 16.6054 30.5196 16.7929 30.7071C16.9804 30.8946 17.2348 31 17.5 31Z" fill="#96A1C3"/>
<path d="M45.5 29H26.5C26.2348 29 25.9804 29.1054 25.7929 29.2929C25.6054 29.4804 25.5 29.7348 25.5 30C25.5 30.2652 25.6054 30.5196 25.7929 30.7071C25.9804 30.8946 26.2348 31 26.5 31H45.5C45.7652 31 46.0196 30.8946 46.2071 30.7071C46.3946 30.5196 46.5 30.2652 46.5 30C46.5 29.7348 46.3946 29.4804 46.2071 29.2929C46.0196 29.1054 45.7652 29 45.5 29Z" fill="#96A1C3"/>
<path d="M17.5 36H26.5C26.7652 36 27.0196 35.8946 27.2071 35.7071C27.3946 35.5196 27.5 35.2652 27.5 35C27.5 34.7348 27.3946 34.4804 27.2071 34.2929C27.0196 34.1054 26.7652 34 26.5 34H17.5C17.2348 34 16.9804 34.1054 16.7929 34.2929C16.6054 34.4804 16.5 34.7348 16.5 35C16.5 35.2652 16.6054 35.5196 16.7929 35.7071C16.9804 35.8946 17.2348 36 17.5 36Z" fill="#96A1C3"/>
<path d="M45.5 34H31.5C31.2348 34 30.9804 34.1054 30.7929 34.2929C30.6054 34.4804 30.5 34.7348 30.5 35C30.5 35.2652 30.6054 35.5196 30.7929 35.7071C30.9804 35.8946 31.2348 36 31.5 36H45.5C45.7652 36 46.0196 35.8946 46.2071 35.7071C46.3946 35.5196 46.5 35.2652 46.5 35C46.5 34.7348 46.3946 34.4804 46.2071 34.2929C46.0196 34.1054 45.7652 34 45.5 34Z" fill="#96A1C3"/>
<path d="M32.5 39H17.5C17.2348 39 16.9804 39.1054 16.7929 39.2929C16.6054 39.4804 16.5 39.7348 16.5 40C16.5 40.2652 16.6054 40.5196 16.7929 40.7071C16.9804 40.8946 17.2348 41 17.5 41H32.5C32.7652 41 33.0196 40.8946 33.2071 40.7071C33.3946 40.5196 33.5 40.2652 33.5 40C33.5 39.7348 33.3946 39.4804 33.2071 39.2929C33.0196 39.1054 32.7652 39 32.5 39Z" fill="#96A1C3"/>
<path d="M45.5 39H37.5C37.2348 39 36.9804 39.1054 36.7929 39.2929C36.6054 39.4804 36.5 39.7348 36.5 40C36.5 40.2652 36.6054 40.5196 36.7929 40.7071C36.9804 40.8946 37.2348 41 37.5 41H45.5C45.7652 41 46.0196 40.8946 46.2071 40.7071C46.3946 40.5196 46.5 40.2652 46.5 40C46.5 39.7348 46.3946 39.4804 46.2071 39.2929C46.0196 39.1054 45.7652 39 45.5 39Z" fill="#96A1C3"/>
<path d="M52.5 19C57.4706 19 61.5 14.9706 61.5 10C61.5 5.02944 57.4706 1 52.5 1C47.5294 1 43.5 5.02944 43.5 10C43.5 14.9706 47.5294 19 52.5 19Z" fill="#0074FF"/>
<path d="M12.5 33C12.2348 33 11.9804 33.1054 11.7929 33.2929C11.6054 33.4804 11.5 33.7348 11.5 34V36C11.5 36.2652 11.6054 36.5196 11.7929 36.7071C11.9804 36.8946 12.2348 37 12.5 37C12.7652 37 13.0196 36.8946 13.2071 36.7071C13.3946 36.5196 13.5 36.2652 13.5 36V34C13.5 33.7348 13.3946 33.4804 13.2071 33.2929C13.0196 33.1054 12.7652 33 12.5 33Z" fill="#033C59"/>
<path d="M52.5 2.08457e-07C50.1947 -0.000470301 47.96 0.795567 46.1742 2.25339C44.3884 3.71121 43.1611 5.74127 42.7 8H35.19L32.94 2H43.5C43.7652 2 44.0196 1.89464 44.2071 1.70711C44.3946 1.51957 44.5 1.26522 44.5 1C44.5 0.734784 44.3946 0.48043 44.2071 0.292893C44.0196 0.105357 43.7652 2.08457e-07 43.5 2.08457e-07H15.5C14.4391 2.08457e-07 13.4217 0.421428 12.6716 1.17157C11.9214 1.92172 11.5 2.93913 11.5 4V8H7.5C6.17392 8 4.90215 8.52678 3.96447 9.46447C3.02678 10.4021 2.5 11.6739 2.5 13V51C2.5 52.3261 3.02678 53.5979 3.96447 54.5355C4.90215 55.4732 6.17392 56 7.5 56H25.44C25.2189 57.9388 24.3442 59.7446 22.96 61.12L22.09 62H19.5C19.2348 62 18.9804 62.1054 18.7929 62.2929C18.6054 62.4804 18.5 62.7348 18.5 63C18.5 63.2652 18.6054 63.5196 18.7929 63.7071C18.9804 63.8946 19.2348 64 19.5 64H45.5C45.7652 64 46.0196 63.8946 46.2071 63.7071C46.3946 63.5196 46.5 63.2652 46.5 63C46.5 62.7348 46.3946 62.4804 46.2071 62.2929C46.0196 62.1054 45.7652 62 45.5 62H42.91L42.04 61.12C40.6558 59.7446 39.7811 57.9388 39.56 56H55.5C56.8261 56 58.0979 55.4732 59.0355 54.5355C59.9732 53.5979 60.5 52.3261 60.5 51V16C61.6143 14.5143 62.2928 12.7477 62.4596 10.8981C62.6264 9.04844 62.2748 7.18892 61.4443 5.52786C60.6137 3.86681 59.3371 2.46984 57.7573 1.49349C56.1776 0.517147 54.3571 2.08457e-07 52.5 2.08457e-07ZM58.5 46H56.5V19.16C57.2111 18.8556 57.8827 18.4661 58.5 18V46ZM54.5 19.8V46H51.5V20C52.5044 20.084 53.5157 20.0166 54.5 19.8ZM52.5 2C54.0822 2 55.629 2.46919 56.9446 3.34824C58.2602 4.22729 59.2855 5.47672 59.891 6.93853C60.4965 8.40034 60.655 10.0089 60.3463 11.5607C60.0376 13.1126 59.2757 14.538 58.1569 15.6569C57.038 16.7757 55.6126 17.5376 54.0607 17.8463C52.5089 18.155 50.9003 17.9965 49.4385 17.391C47.9767 16.7855 46.7273 15.7602 45.8482 14.4446C44.9692 13.129 44.5 11.5823 44.5 10C44.5 7.87827 45.3429 5.84344 46.8431 4.34315C48.3434 2.84285 50.3783 2 52.5 2ZM49.5 19.54V46H13.5V40C13.5 39.7348 13.3946 39.4804 13.2071 39.2929C13.0196 39.1054 12.7652 39 12.5 39C12.2348 39 11.9804 39.1054 11.7929 39.2929C11.6054 39.4804 11.5 39.7348 11.5 40V46H8.5V14H11.5V30C11.5 30.2652 11.6054 30.5196 11.7929 30.7071C11.9804 30.8946 12.2348 31 12.5 31C12.7652 31 13.0196 30.8946 13.2071 30.7071C13.3946 30.5196 13.5 30.2652 13.5 30V10H42.5C42.4999 12.1281 43.1786 14.2007 44.4376 15.9164C45.6965 17.6322 47.4699 18.9016 49.5 19.54ZM15.5 2H30.11C30.3143 1.99934 30.5139 2.06128 30.682 2.17749C30.8501 2.2937 30.9785 2.4586 31.05 2.65L33.05 8H13.5V4C13.5 3.46957 13.7107 2.96086 14.0858 2.58579C14.4609 2.21071 14.9696 2 15.5 2ZM4.5 13C4.5 12.2044 4.81607 11.4413 5.37868 10.8787C5.94129 10.3161 6.70435 10 7.5 10H11.5V12H8.5C7.96957 12 7.46086 12.2107 7.08579 12.5858C6.71071 12.9609 6.5 13.4696 6.5 14V46H4.5V13ZM40.12 62H24.88C26.3717 60.3311 27.2898 58.2285 27.5 56H37.6C37.782 58.2167 38.6646 60.3181 40.12 62ZM58.5 51C58.5 51.7957 58.1839 52.5587 57.6213 53.1213C57.0587 53.6839 56.2957 54 55.5 54H7.5C6.70435 54 5.94129 53.6839 5.37868 53.1213C4.81607 52.5587 4.5 51.7957 4.5 51V48H58.5V51Z" fill="#033C59"/>
<path d="M52.4999 12.9999C51.9599 12.9999 51.9299 12.8499 49.7899 10.7099C49.6016 10.5216 49.4958 10.2662 49.4958 9.99994C49.4958 9.73364 49.6016 9.47825 49.7899 9.28994C49.9782 9.10164 50.2336 8.99585 50.4999 8.99585C50.7662 8.99585 51.0216 9.10164 51.2099 9.28994L52.4999 10.5899L55.7899 7.28994C55.8832 7.1967 55.9939 7.12274 56.1157 7.07228C56.2375 7.02182 56.3681 6.99585 56.4999 6.99585C56.6318 6.99585 56.7624 7.02182 56.8842 7.07228C57.006 7.12274 57.1167 7.1967 57.2099 7.28994C57.3032 7.38318 57.3771 7.49387 57.4276 7.61569C57.4781 7.73751 57.504 7.86808 57.504 7.99994C57.504 8.1318 57.4781 8.26237 57.4276 8.38419C57.3771 8.50601 57.3032 8.6167 57.2099 8.70994L53.2099 12.7099C53.1165 12.8026 53.0057 12.8759 52.8839 12.9257C52.762 12.9755 52.6315 13.0007 52.4999 12.9999Z" fill="#F5F7FF"/>
</g>
<defs>
<clipPath id="clip0_756_80412">
<rect width="64" height="64" fill="white" transform="translate(0.5)"/>
</clipPath>
</defs>
</svg>
