<svg width="1216" height="174" viewBox="0 0 1216 174" fill="none" xmlns="http://www.w3.org/2000/svg">
<g clip-path="url(#clip0_763_81775)">
<path d="M1202.75 147.28C1196.47 147.28 1191.22 151.66 1189.86 157.52H526.89V130.35H459.31C471.91 120.54 497.88 100.36 503.47 96.27C519.79 84.31 526.45 71.82 526.45 53.15C526.45 14.61 491.57 0.880005 458.93 0.880005C442.95 0.880005 428 5.02 416.82 12.55C403.49 21.53 396.38 34.72 396.27 50.7L396.25 53.72H431.17L431.22 50.77C431.41 38.62 445.87 32.07 459.38 32.07C466.92 32.07 491.51 33.64 491.51 53.81C491.51 58.03 488.6 62.8 485.78 64.98C482.11 67.81 396.78 133.62 396.78 133.62L395.61 134.52V157.52H26.14C24.78 151.65 19.53 147.28 13.25 147.28C5.93 147.28 0 153.21 0 160.52C0 167.83 5.93 173.76 13.25 173.76C19.53 173.76 24.78 169.38 26.14 163.52H401.61V137.47C411.84 129.58 486.03 72.36 489.44 69.73C493.45 66.64 497.51 60.18 497.51 53.81C497.51 36.7 482.9 26.07 459.38 26.07C444.05 26.07 427.7 33.63 425.48 47.72H402.41C404.09 26.92 421.8 6.88 458.94 6.88C475.54 6.88 490.55 10.58 501.2 17.3C513.98 25.36 520.46 37.42 520.46 53.15C520.46 69.87 514.7 80.61 499.93 91.43C492.45 96.91 450.52 129.6 448.74 130.98L441.86 136.35H520.91V163.52H1189.88C1191.24 169.39 1196.49 173.76 1202.77 173.76C1210.09 173.76 1216.02 167.83 1216.02 160.52C1216.02 153.21 1210.09 147.28 1202.77 147.28H1202.75Z" fill="#6C5DD3"/>
<path d="M13.25 165.54C16.0225 165.54 18.27 163.292 18.27 160.52C18.27 157.748 16.0225 155.5 13.25 155.5C10.4775 155.5 8.22998 157.748 8.22998 160.52C8.22998 163.292 10.4775 165.54 13.25 165.54Z" fill="white"/>
<path d="M1202.75 165.54C1205.52 165.54 1207.77 163.292 1207.77 160.52C1207.77 157.748 1205.52 155.5 1202.75 155.5C1199.98 155.5 1197.73 157.748 1197.73 160.52C1197.73 163.292 1199.98 165.54 1202.75 165.54Z" fill="white"/>
</g>
<defs>
<clipPath id="clip0_763_81775">
<rect width="1216" height="172.88" fill="white" transform="translate(0 0.880005)"/>
</clipPath>
</defs>
</svg>
