<svg width="41" height="40" viewBox="0 0 41 40" fill="none" xmlns="http://www.w3.org/2000/svg">
<g clip-path="url(#clip0_754_82957)">
<path d="M1.29175 11.25H37.5417V35H4.41675C4.00637 35 3.6 34.9192 3.22086 34.7621C2.84172 34.6051 2.49722 34.3749 2.20704 34.0847C1.62099 33.4987 1.29175 32.7038 1.29175 31.875V11.25Z" fill="#F5F7FF"/>
<path d="M1.29175 30V31.875C1.29175 32.7038 1.62099 33.4987 2.20704 34.0847C2.49722 34.3749 2.84172 34.6051 3.22086 34.7621C3.6 34.9192 4.00637 35 4.41675 35H37.5417V33.125H4.41675C4.00637 33.125 3.6 33.0442 3.22086 32.8871C2.84172 32.7301 2.49722 32.4999 2.20704 32.2097C1.62099 31.6237 1.29175 30.8288 1.29175 30V30Z" fill="#CCD3EB"/>
<path d="M7.54175 11.25V31.875C7.54175 31.0462 7.21251 30.2513 6.62646 29.6653C6.04041 29.0792 5.24555 28.75 4.41675 28.75C3.58795 28.75 2.79309 29.0792 2.20704 29.6653C1.62099 30.2513 1.29175 31.0462 1.29175 31.875V11.25C1.29175 10.4212 1.62099 9.62634 2.20704 9.04029C2.79309 8.45424 3.58795 8.125 4.41675 8.125C5.24555 8.125 6.04041 8.45424 6.62646 9.04029C7.21251 9.62634 7.54175 10.4212 7.54175 11.25V11.25Z" fill="#CCD3EB"/>
<path d="M34.4167 20H30.6667V4.375C30.6667 3.87772 30.8643 3.40081 31.2159 3.04917C31.5676 2.69754 32.0445 2.5 32.5417 2.5C33.039 2.5 33.5159 2.69754 33.8676 3.04917C34.2192 3.40081 34.4167 3.87772 34.4167 4.375V20Z" fill="#CCD3EB"/>
<path d="M34.4167 14.375H30.6667V16.875H34.4167V14.375Z" fill="#F5F7FF"/>
<path d="M30.6667 20L32.5417 23.125L34.4167 20H30.6667Z" fill="#96A1C3"/>
<path d="M25.0417 2.5H20.0417V8.75H25.0417V2.5Z" fill="#0074FF"/>
<path d="M20.0417 8.75C19.2129 8.75 18.4181 8.42076 17.832 7.83471C17.246 7.24866 16.9167 6.4538 16.9167 5.625C16.9167 4.7962 17.246 4.00134 17.832 3.41529C18.4181 2.82924 19.2129 2.5 20.0417 2.5V8.75Z" fill="#F5F7FF"/>
<path d="M25.0417 8.75V2.5C25.8705 2.5 26.6654 2.82924 27.2515 3.41529C27.8375 4.00134 28.1667 4.7962 28.1667 5.625C28.1667 6.4538 27.8375 7.24866 27.2515 7.83471C26.6654 8.42076 25.8705 8.75 25.0417 8.75V8.75Z" fill="#F5F7FF"/>
<path d="M40.0417 22.5V37.5H25.0417L40.0417 22.5Z" fill="#0074FF"/>
<path d="M37.5417 30V35H32.5417L37.5417 30Z" fill="#F5F7FF"/>
<path d="M25.0417 10.625C24.876 10.625 24.717 10.6908 24.5998 10.8081C24.4826 10.9253 24.4167 11.0842 24.4167 11.25C24.4167 11.4158 24.4826 11.5747 24.5998 11.6919C24.717 11.8092 24.876 11.875 25.0417 11.875H26.2917C26.4575 11.875 26.6165 11.8092 26.7337 11.6919C26.8509 11.5747 26.9167 11.4158 26.9167 11.25C26.9167 11.0842 26.8509 10.9253 26.7337 10.8081C26.6165 10.6908 26.4575 10.625 26.2917 10.625H25.0417Z" fill="#033C59"/>
<path d="M25.0417 35C25.0417 34.8342 24.9759 34.6753 24.8587 34.5581C24.7415 34.4408 24.5825 34.375 24.4167 34.375H4.41675C3.92229 34.375 3.43895 34.2284 3.02782 33.9537C2.6167 33.679 2.29627 33.2885 2.10705 32.8317C1.91783 32.3749 1.86832 31.8722 1.96478 31.3873C2.06125 30.9023 2.29935 30.4569 2.64898 30.1072C2.99861 29.7576 3.44407 29.5195 3.92902 29.423C4.41397 29.3266 4.91664 29.3761 5.37346 29.5653C5.83027 29.7545 6.22072 30.075 6.49542 30.4861C6.77013 30.8972 6.91675 31.3805 6.91675 31.875C6.91675 32.0408 6.9826 32.1997 7.09981 32.3169C7.21702 32.4342 7.37599 32.5 7.54175 32.5C7.70751 32.5 7.86648 32.4342 7.98369 32.3169C8.1009 32.1997 8.16675 32.0408 8.16675 31.875V11.875H22.5417C22.7075 11.875 22.8665 11.8092 22.9837 11.6919C23.1009 11.5747 23.1667 11.4158 23.1667 11.25C23.1667 11.0842 23.1009 10.9253 22.9837 10.8081C22.8665 10.6908 22.7075 10.625 22.5417 10.625H8.1105C7.94899 9.70253 7.44817 8.87388 6.70654 8.30203C5.96491 7.73017 5.03614 7.45651 4.10293 7.53487C3.16971 7.61323 2.29959 8.03793 1.6637 8.72544C1.0278 9.41295 0.672172 10.3135 0.666748 11.25L0.666748 31.875C0.666748 32.8696 1.06184 33.8234 1.7651 34.5267C2.46836 35.2299 3.42219 35.625 4.41675 35.625H24.4167C24.5825 35.625 24.7415 35.5592 24.8587 35.4419C24.9759 35.3247 25.0417 35.1658 25.0417 35ZM1.91675 11.25C1.91675 10.587 2.18014 9.95107 2.64898 9.48223C3.11782 9.01339 3.75371 8.75 4.41675 8.75C5.07979 8.75 5.71567 9.01339 6.18452 9.48223C6.65336 9.95107 6.91675 10.587 6.91675 11.25V29.0812C6.22922 28.4663 5.33916 28.1263 4.41675 28.1263C3.49433 28.1263 2.60428 28.4663 1.91675 29.0812V11.25Z" fill="#033C59"/>
<path d="M20.0417 9.375H25.0417C26.0363 9.375 26.9901 8.97991 27.6934 8.27665C28.3967 7.57339 28.7917 6.61956 28.7917 5.625C28.7917 4.63044 28.3967 3.67661 27.6934 2.97335C26.9901 2.27009 26.0363 1.875 25.0417 1.875H20.0417C19.0472 1.875 18.0934 2.27009 17.3901 2.97335C16.6868 3.67661 16.2917 4.63044 16.2917 5.625C16.2917 6.61956 16.6868 7.57339 17.3901 8.27665C18.0934 8.97991 19.0472 9.375 20.0417 9.375V9.375ZM27.5417 5.625C27.5413 6.17892 27.357 6.71702 27.0176 7.1548C26.6782 7.59259 26.2031 7.90527 25.6667 8.04375V3.20625C26.2031 3.34473 26.6782 3.65741 27.0176 4.0952C27.357 4.53298 27.5413 5.07108 27.5417 5.625ZM24.4167 8.125H20.6667V3.125H24.4167V8.125ZM19.4167 3.20625V8.04375C18.8818 7.90392 18.4082 7.59066 18.0702 7.153C17.7323 6.71534 17.5489 6.17797 17.5489 5.625C17.5489 5.07203 17.7323 4.53466 18.0702 4.097C18.4082 3.65934 18.8818 3.34608 19.4167 3.20625V3.20625Z" fill="#033C59"/>
<path d="M39.598 22.0562L38.1667 23.4937V11.25C38.1667 11.0842 38.1009 10.9253 37.9837 10.8081C37.8665 10.6908 37.7075 10.625 37.5417 10.625H35.0417V4.375C35.0417 3.71196 34.7783 3.07607 34.3095 2.60723C33.8406 2.13839 33.2048 1.875 32.5417 1.875C31.8787 1.875 31.2428 2.13839 30.774 2.60723C30.3051 3.07607 30.0417 3.71196 30.0417 4.375V10.625H28.7917C28.626 10.625 28.467 10.6908 28.3498 10.8081C28.2326 10.9253 28.1667 11.0842 28.1667 11.25C28.1667 11.4158 28.2326 11.5747 28.3498 11.6919C28.467 11.8092 28.626 11.875 28.7917 11.875H30.0417V20C30.0417 20.2437 29.973 20.0562 32.0042 23.4437C32.0596 23.537 32.1382 23.6143 32.2325 23.6679C32.3267 23.7216 32.4333 23.7498 32.5417 23.7498C32.6502 23.7498 32.7567 23.7216 32.851 23.6679C32.9452 23.6143 33.0239 23.537 33.0792 23.4437C35.1292 20.0312 35.0417 20.2375 35.0417 20V11.875H36.9167V24.7437L24.598 37.0562C24.5098 37.1437 24.4497 37.2554 24.4253 37.3771C24.4009 37.4988 24.4133 37.625 24.4609 37.7397C24.5085 37.8543 24.5891 37.9522 24.6926 38.0208C24.796 38.0895 24.9176 38.1257 25.0417 38.125H40.0417C40.2075 38.125 40.3665 38.0591 40.4837 37.9419C40.6009 37.8247 40.6667 37.6658 40.6667 37.5V22.5C40.6674 22.3759 40.6312 22.2543 40.5626 22.1509C40.4939 22.0474 40.396 21.9667 40.2814 21.9191C40.1667 21.8715 40.0405 21.8592 39.9188 21.8836C39.7971 21.908 39.6854 21.9681 39.598 22.0562V22.0562ZM31.2917 19.375V6.875H33.7917V19.375H31.2917ZM32.5417 3.125C32.8732 3.125 33.1912 3.2567 33.4256 3.49112C33.66 3.72554 33.7917 4.04348 33.7917 4.375V5.625H31.2917V4.375C31.2917 4.04348 31.4234 3.72554 31.6578 3.49112C31.8923 3.2567 32.2102 3.125 32.5417 3.125ZM32.5417 21.9125L31.773 20.625H33.3105L32.5417 21.9125ZM39.4167 36.875H26.548L39.4167 24.0062V36.875Z" fill="#033C59"/>
<path d="M37.098 29.5563L32.098 34.5563C32.0098 34.6437 31.9497 34.7554 31.9253 34.8771C31.9009 34.9988 31.9133 35.125 31.9609 35.2397C32.0085 35.3543 32.0891 35.4522 32.1926 35.5208C32.296 35.5895 32.4176 35.6257 32.5417 35.625H37.5417C37.7075 35.625 37.8665 35.5592 37.9837 35.4419C38.1009 35.3247 38.1667 35.1658 38.1667 35V30C38.1674 29.8759 38.1312 29.7543 38.0626 29.6509C37.9939 29.5474 37.896 29.4667 37.7814 29.4191C37.6667 29.3715 37.5405 29.3592 37.4188 29.3836C37.2971 29.408 37.1854 29.4681 37.098 29.5563V29.5563ZM36.9167 34.375H34.048L36.9167 31.5063V34.375Z" fill="#033C59"/>
<path d="M24.4167 28.125C23.7537 28.125 23.1178 27.8616 22.649 27.3928C22.1801 26.9239 21.9167 26.288 21.9167 25.625V21.875C21.9167 21.3777 21.7192 20.9008 21.3676 20.5492C21.0159 20.1975 20.539 20 20.0417 20C19.5445 20 19.0676 20.1975 18.7159 20.5492C18.3643 20.9008 18.1667 21.3777 18.1667 21.875C18.1667 22.538 17.9034 23.1739 17.4345 23.6428C16.9657 24.1116 16.3298 24.375 15.6667 24.375H11.2917C11.126 24.375 10.967 24.3092 10.8498 24.1919C10.7326 24.0747 10.6667 23.9158 10.6667 23.75C10.6667 23.5842 10.7326 23.4253 10.8498 23.3081C10.967 23.1908 11.126 23.125 11.2917 23.125H15.6667C15.9983 23.125 16.3162 22.9933 16.5506 22.7589C16.7851 22.5245 16.9167 22.2065 16.9167 21.875C16.9167 21.0462 17.246 20.2513 17.832 19.6653C18.4181 19.0792 19.2129 18.75 20.0417 18.75C20.8705 18.75 21.6654 19.0792 22.2515 19.6653C22.8375 20.2513 23.1667 21.0462 23.1667 21.875V25.625C23.1667 25.9565 23.2984 26.2745 23.5329 26.5089C23.7673 26.7433 24.0852 26.875 24.4167 26.875C24.7483 26.875 25.0662 26.7433 25.3006 26.5089C25.5351 26.2745 25.6667 25.9565 25.6667 25.625C25.6667 24.7962 25.996 24.0013 26.582 23.4153C27.1681 22.8292 27.9629 22.5 28.7917 22.5H29.4167C29.5825 22.5 29.7415 22.5658 29.8587 22.6831C29.9759 22.8003 30.0417 22.9592 30.0417 23.125C30.0417 23.2908 29.9759 23.4497 29.8587 23.5669C29.7415 23.6842 29.5825 23.75 29.4167 23.75H28.7917C28.2945 23.75 27.8176 23.9475 27.4659 24.2992C27.1143 24.6508 26.9167 25.1277 26.9167 25.625C26.9167 26.288 26.6534 26.9239 26.1845 27.3928C25.7157 27.8616 25.0798 28.125 24.4167 28.125Z" fill="#96A1C3"/>
<path d="M22.5417 36.875C22.4181 36.875 22.2973 36.9117 22.1945 36.9803C22.0917 37.049 22.0116 37.1466 21.9643 37.2608C21.917 37.375 21.9046 37.5007 21.9288 37.6219C21.9529 37.7432 22.0124 37.8545 22.0998 37.9419C22.1872 38.0294 22.2986 38.0889 22.4198 38.113C22.5411 38.1371 22.6667 38.1247 22.7809 38.0774C22.8951 38.0301 22.9927 37.95 23.0614 37.8472C23.1301 37.7444 23.1667 37.6236 23.1667 37.5C23.1667 37.3342 23.1009 37.1753 22.9837 37.0581C22.8665 36.9408 22.7075 36.875 22.5417 36.875Z" fill="#0074FF"/>
<path d="M20.0417 36.875C19.9181 36.875 19.7973 36.9117 19.6945 36.9803C19.5917 37.049 19.5116 37.1466 19.4643 37.2608C19.417 37.375 19.4046 37.5007 19.4288 37.6219C19.4529 37.7432 19.5124 37.8545 19.5998 37.9419C19.6872 38.0294 19.7986 38.0889 19.9198 38.113C20.0411 38.1371 20.1667 38.1247 20.2809 38.0774C20.3951 38.0301 20.4927 37.95 20.5614 37.8472C20.6301 37.7444 20.6667 37.6236 20.6667 37.5C20.6667 37.3342 20.6009 37.1753 20.4837 37.0581C20.3665 36.9408 20.2075 36.875 20.0417 36.875Z" fill="#0074FF"/>
<path d="M11.2917 15.625H10.0417C9.87599 15.625 9.71702 15.6908 9.59981 15.8081C9.4826 15.9253 9.41675 16.0842 9.41675 16.25C9.41675 16.4158 9.4826 16.5747 9.59981 16.6919C9.71702 16.8092 9.87599 16.875 10.0417 16.875H11.2917C11.4575 16.875 11.6165 16.8092 11.7337 16.6919C11.8509 16.5747 11.9167 16.4158 11.9167 16.25C11.9167 16.0842 11.8509 15.9253 11.7337 15.8081C11.6165 15.6908 11.4575 15.625 11.2917 15.625Z" fill="#0074FF"/>
<path d="M10.0417 14.375H11.2917C11.4575 14.375 11.6165 14.3092 11.7337 14.1919C11.8509 14.0747 11.9167 13.9158 11.9167 13.75C11.9167 13.5842 11.8509 13.4253 11.7337 13.3081C11.6165 13.1908 11.4575 13.125 11.2917 13.125H10.0417C9.87599 13.125 9.71702 13.1908 9.59981 13.3081C9.4826 13.4253 9.41675 13.5842 9.41675 13.75C9.41675 13.9158 9.4826 14.0747 9.59981 14.1919C9.71702 14.3092 9.87599 14.375 10.0417 14.375V14.375Z" fill="#0074FF"/>
</g>
<defs>
<clipPath id="clip0_754_82957">
<rect width="40" height="40" fill="white" transform="translate(0.666748)"/>
</clipPath>
</defs>
</svg>
