<svg width="1216" height="173" viewBox="0 0 1216 173" fill="none" xmlns="http://www.w3.org/2000/svg">
<g clip-path="url(#clip0_763_81972)">
<path d="M142.36 104.25V19.89L80.42 104.25H142.36ZM136.36 98.27H92.24L136.36 38.18V98.27ZM1202.76 146.25C1196.48 146.25 1191.23 150.61 1189.87 156.46H171.45V132.79H189.8V98.28H171.45V0.640015H121.95L52.67 95.28V132.78H136.36V156.45H26.13C24.77 150.61 19.52 146.24 13.24 146.24C5.93 146.24 0 152.15 0 159.43C0 166.71 5.93 172.62 13.24 172.62C19.52 172.62 24.77 168.26 26.13 162.42H142.35V126.79H58.67V97.21L124.99 6.62001H165.44V104.26H183.79V126.82H165.44V162.45H1189.86C1191.22 168.29 1196.47 172.65 1202.75 172.65C1210.06 172.65 1215.99 166.74 1215.99 159.46C1215.99 152.18 1210.06 146.27 1202.75 146.27L1202.76 146.25Z" fill="#65B029"/>
<path d="M13.24 164.45C16.0124 164.45 18.26 162.211 18.26 159.45C18.26 156.689 16.0124 154.45 13.24 154.45C10.4675 154.45 8.21997 156.689 8.21997 159.45C8.21997 162.211 10.4675 164.45 13.24 164.45Z" fill="white"/>
<path d="M1202.76 164.45C1205.53 164.45 1207.78 162.211 1207.78 159.45C1207.78 156.689 1205.53 154.45 1202.76 154.45C1199.99 154.45 1197.74 156.689 1197.74 159.45C1197.74 162.211 1199.99 164.45 1202.76 164.45Z" fill="white"/>
</g>
<defs>
<clipPath id="clip0_763_81972">
<rect width="1216" height="172" fill="white" transform="translate(0 0.640015)"/>
</clipPath>
</defs>
</svg>
