<svg width="108" height="23" viewBox="0 0 108 23" fill="none" xmlns="http://www.w3.org/2000/svg">
<path d="M2 12.72C1.17157 12.72 0.5 12.0484 0.5 11.22C0.5 10.3915 1.17157 9.71997 2 9.71997V12.72ZM107.061 10.1593C107.646 10.7451 107.646 11.6948 107.061 12.2806L97.5147 21.8266C96.9289 22.4124 95.9792 22.4124 95.3934 21.8266C94.8076 21.2408 94.8076 20.291 95.3934 19.7053L103.879 11.22L95.3934 2.73469C94.8076 2.1489 94.8076 1.19916 95.3934 0.613369C95.9792 0.0275822 96.9289 0.0275822 97.5147 0.613369L107.061 10.1593ZM2 9.71997H106V12.72H2V9.71997Z" fill="#EE4622"/>
</svg>
