<svg width="512" height="357" viewBox="0 0 512 357" fill="none" xmlns="http://www.w3.org/2000/svg">
<g clip-path="url(#clip0_754_79006)">
<path d="M468.573 201.631L461.361 151.476C458.971 134.865 449.976 119.923 436.418 110.036L432.592 107.247L384.095 110.114L390.352 173.992L391.98 187.461C393.095 196.69 401.437 203.295 410.671 202.268C413.699 201.931 416.328 204.353 416.229 207.401C415.944 216.355 415.503 232.53 416.089 232.188C416.898 231.716 468.573 201.625 468.573 201.625V201.631Z" fill="white"/>
<path d="M416.084 233.697L415.394 233.308C414.497 232.774 414.129 232.551 414.938 207.365C414.974 206.292 414.539 205.255 413.751 204.524C412.958 203.793 411.89 203.44 410.822 203.559C400.914 204.658 391.892 197.509 390.7 187.617L389.072 174.148L382.679 108.901L432.986 105.925L437.185 108.989C450.946 119.021 460.226 134.439 462.647 151.289L469.989 202.31L469.232 202.751C469.232 202.751 417.562 232.841 416.748 233.313L416.089 233.697H416.084ZM411.226 200.941C412.802 200.941 414.332 201.532 415.503 202.616C416.846 203.855 417.582 205.618 417.525 207.443C417.116 220.139 417.043 227.123 417.126 230.088C425.421 225.256 461.481 204.259 467.163 200.952L460.076 151.662C457.753 135.497 448.851 120.706 435.651 111.083L432.203 108.569L385.515 111.332L391.643 173.868L393.266 187.306C394.288 195.788 402.034 201.926 410.526 200.983C410.759 200.957 410.993 200.946 411.226 200.946V200.941Z" fill="#111C3A"/>
<path d="M366.13 320.309L371.475 325.654L376.82 320.309L371.475 314.964L366.13 320.309Z" fill="#69995D"/>
<path d="M127.153 332.802L135.277 340.926L143.401 332.802L135.277 324.678L127.153 332.802Z" fill="#69995D"/>
<path d="M315.29 251.367L324.88 260.957L334.471 251.367L324.88 241.777L315.29 251.367Z" fill="#69995D"/>
<path d="M146.848 223.916L162.205 239.273L177.563 223.916L162.205 208.559L146.848 223.916Z" fill="#69995D"/>
<path d="M209.802 355.704L211.943 213.726L292.145 231.39L308.886 355.704H209.802Z" fill="#69995D"/>
<path d="M211.943 212.928L204.783 166.464L201.839 160.393C195.057 146.416 192.631 130.717 194.927 115.355C196.742 103.198 199.894 91.5429 205.26 92.4761C216.241 94.384 214.328 141.646 214.328 141.646L277.343 137.825L292.14 231.39L211.938 212.933L211.943 212.928Z" fill="white"/>
<path d="M293.726 233.08L210.798 213.996L203.534 166.858L200.672 160.958C193.735 146.665 191.303 130.826 193.647 115.164C195.586 102.192 198.235 94.6588 201.75 92.1184C202.912 91.2785 204.166 90.9674 205.483 91.1955C210.772 92.1132 213.95 100.776 215.205 117.678C215.915 127.233 215.764 136.736 215.671 140.262L278.442 136.456L278.628 137.618L293.726 233.08ZM213.094 211.86L290.569 229.689L276.254 139.183L212.98 143.02L213.037 141.589C213.758 123.754 212.223 94.9958 205.043 93.7515C204.426 93.6426 203.861 93.793 203.269 94.2181C201.652 95.3898 198.577 99.7137 196.213 115.542C193.947 130.686 196.301 146.001 203.005 159.823L206.038 166.07L206.069 166.262L213.094 211.86Z" fill="#111C3A"/>
<path d="M218.891 180.172C218.72 180.172 218.549 180.141 218.383 180.068C209.18 176.123 202.31 164.235 202.02 163.732C201.667 163.11 201.88 162.322 202.502 161.964C203.124 161.606 203.912 161.824 204.27 162.446C204.338 162.56 211.005 174.085 219.404 177.683C220.063 177.963 220.368 178.726 220.083 179.384C219.871 179.877 219.394 180.172 218.891 180.172Z" fill="#111C3A"/>
<path d="M297.843 59.5285L309.731 44.3016C311.255 42.347 313.376 40.9005 315.787 40.3199C319.406 39.4541 323.766 40.2525 322.428 49.989C322.231 51.4095 321.77 52.7782 321.065 54.0277L309.301 74.8072L297.843 59.5337V59.5285Z" fill="white"/>
<path d="M307.74 76.0411C307.74 76.0411 322.796 74.3199 322.848 85.4043C322.9 95.8096 309.27 95.7993 309.27 95.7993L307.74 76.0411Z" fill="white"/>
<path d="M307.74 95.8927C307.74 95.8927 322.796 94.1714 322.848 105.256C322.9 115.661 309.27 115.651 309.27 115.651L307.74 95.8927Z" fill="white"/>
<path d="M307.74 115.739C307.74 115.739 321.485 114.168 321.531 124.283C321.578 133.781 309.135 133.771 309.135 133.771L307.74 115.734V115.739Z" fill="white"/>
<path d="M309.451 77.1662L296.21 59.5129L308.705 43.5032C310.452 41.2635 312.858 39.6874 315.481 39.0601C318.794 38.2668 320.728 39.2156 321.765 40.154C323.75 41.953 324.388 45.2296 323.709 50.1653C323.491 51.7569 322.978 53.2708 322.19 54.6654L309.451 77.1714V77.1662ZM299.476 59.544L309.15 72.4431L319.935 53.3849C320.562 52.2754 320.971 51.0726 321.143 49.8075C321.682 45.8932 321.293 43.218 320.023 42.0723C319.193 41.3205 317.866 41.1546 316.088 41.5797C314.034 42.0723 312.137 43.3217 310.753 45.1L299.476 59.544Z" fill="#111C3A"/>
<path d="M309.27 97.0902H308.067L306.346 74.8901L307.585 74.7502C307.937 74.7087 316.29 73.8118 321.008 78.0009C323.071 79.831 324.124 82.3196 324.134 85.394C324.15 88.3491 323.175 90.8325 321.241 92.7715C316.99 97.0384 309.596 97.0902 309.259 97.0902H309.27ZM309.13 77.2491L310.462 94.4306C312.536 94.2439 316.834 93.5388 319.421 90.9362C320.868 89.4845 321.563 87.6751 321.552 85.4043C321.542 83.0661 320.806 81.2826 319.302 79.945C316.404 77.3683 311.447 77.1817 309.135 77.2491H309.13Z" fill="#111C3A"/>
<path d="M309.27 116.947H308.067L306.346 94.7468L307.585 94.6069C307.937 94.5654 316.29 93.6685 321.008 97.8575C323.071 99.6877 324.124 102.176 324.134 105.245C324.15 108.201 323.175 110.684 321.241 112.623C316.99 116.89 309.596 116.942 309.259 116.942L309.27 116.947ZM309.13 97.1058L310.462 114.287C312.536 114.101 316.834 113.396 319.421 110.793C320.868 109.341 321.563 107.532 321.552 105.261C321.542 102.923 320.806 101.139 319.302 99.8017C316.404 97.225 311.447 97.0384 309.135 97.1058H309.13Z" fill="#111C3A"/>
<path d="M309.135 135.067H307.937L306.351 114.588L307.59 114.448C307.911 114.412 315.585 113.582 319.929 117.445C321.837 119.135 322.807 121.437 322.822 124.273C322.838 127 321.936 129.291 320.147 131.09C316.238 135.02 309.436 135.067 309.13 135.067H309.135ZM309.135 116.952L310.333 132.402C312.251 132.215 316.036 131.562 318.327 129.255C319.623 127.948 320.246 126.326 320.24 124.288C320.23 122.188 319.572 120.586 318.224 119.389C315.652 117.102 311.266 116.9 309.14 116.952H309.135Z" fill="#111C3A"/>
<path d="M284.508 1.29614H238.872C225.32 1.29614 214.333 12.2823 214.333 25.8344V141.61C214.333 155.162 225.32 166.148 238.872 166.148H284.508C298.06 166.148 309.047 155.162 309.047 141.61V25.8344C309.047 12.2823 298.06 1.29614 284.508 1.29614Z" fill="#9F99AA"/>
<path d="M306.133 25.1137V142.325C306.133 153.866 296.764 163.234 285.223 163.234H238.152C226.611 163.234 217.242 153.866 217.242 142.325V25.1137C217.242 13.573 226.611 4.20459 238.152 4.20459L285.223 4.20459C296.764 4.20459 306.133 13.573 306.133 25.1137Z" fill="white"/>
<path d="M284.503 167.444H238.872C224.625 167.444 213.037 155.851 213.037 141.61V25.8344C213.037 11.5874 224.63 0 238.872 0H284.503C298.75 0 310.338 11.5926 310.338 25.8344V141.604C310.338 155.851 298.745 167.439 284.503 167.439V167.444ZM238.872 2.59225C226.056 2.59225 215.63 13.0183 215.63 25.8344V141.604C215.63 154.421 226.056 164.847 238.872 164.847H284.503C297.319 164.847 307.745 154.421 307.745 141.604V25.8344C307.745 13.0183 297.319 2.59225 284.503 2.59225H238.872Z" fill="#111C3A"/>
<path d="M271.235 14.9054H252.14C250.439 14.9054 249.066 13.5263 249.066 11.831C249.066 10.1305 250.445 8.75659 252.14 8.75659H271.235C272.936 8.75659 274.31 10.1357 274.31 11.831C274.31 13.5315 272.931 14.9054 271.235 14.9054Z" fill="#10002B"/>
<path d="M209.802 357C209.802 357 209.787 357 209.781 357C209.066 356.99 208.496 356.399 208.506 355.683L210.647 212.907C210.658 212.192 211.233 211.611 211.964 211.632C212.68 211.642 213.25 212.233 213.24 212.948L211.098 355.725C211.088 356.435 210.507 357 209.802 357Z" fill="#111C3A"/>
<path d="M308.886 357C308.248 357 307.688 356.528 307.606 355.875L290.864 231.561C290.771 230.851 291.269 230.197 291.974 230.104C292.684 230.011 293.337 230.508 293.431 231.214L310.172 355.528C310.265 356.238 309.768 356.891 309.062 356.984C309.005 356.995 308.943 356.995 308.886 356.995V357Z" fill="#111C3A"/>
<path d="M510.704 357H1.29616C0.580681 357 0 356.419 0 355.704C0 354.988 0.580681 354.408 1.29616 354.408H510.704C511.419 354.408 512 354.988 512 355.704C512 356.419 511.419 357 510.704 357Z" fill="#111C3A"/>
<path d="M290.232 131.251H232.656C230.025 131.251 227.891 133.384 227.891 136.016V136.819C227.891 139.451 230.025 141.584 232.656 141.584H290.232C292.863 141.584 294.996 139.451 294.996 136.819V136.016C294.996 133.384 292.863 131.251 290.232 131.251Z" fill="#69995D"/>
<path d="M406.917 12.3857H361.282C347.73 12.3857 336.743 23.3719 336.743 36.924V152.699C336.743 166.251 347.73 177.238 361.282 177.238H406.917C420.47 177.238 431.456 166.251 431.456 152.699V36.924C431.456 23.3719 420.47 12.3857 406.917 12.3857Z" fill="#9F99AA"/>
<path d="M428.543 153.42V36.2034C428.543 24.6556 419.181 15.2943 407.633 15.2943L360.556 15.2943C349.008 15.2943 339.647 24.6556 339.647 36.2034V153.42C339.647 164.968 349.008 174.329 360.556 174.329H407.633C419.181 174.329 428.543 164.968 428.543 153.42Z" fill="white"/>
<path d="M406.912 178.534H361.282C347.035 178.534 335.447 166.941 335.447 152.699V36.9293C335.447 22.6822 347.04 11.0948 361.282 11.0948H406.912C421.16 11.0948 432.747 22.6874 432.747 36.9293V152.699C432.747 166.946 421.155 178.534 406.912 178.534ZM361.282 13.6819C348.466 13.6819 338.039 24.108 338.039 36.9241V152.694C338.039 165.51 348.466 175.936 361.282 175.936H406.912C419.729 175.936 430.155 165.51 430.155 152.694V36.9293C430.155 24.1131 419.729 13.6871 406.912 13.6871H361.282V13.6819Z" fill="#111C3A"/>
<path d="M393.645 26.0003H374.55C372.849 26.0003 371.475 24.6212 371.475 22.9259C371.475 21.2253 372.854 19.8514 374.55 19.8514H393.645C395.345 19.8514 396.719 21.2305 396.719 22.9259C396.719 24.6264 395.34 26.0003 393.645 26.0003Z" fill="#10002B"/>
<path d="M468.573 201.631L495.953 355.704H403.651V239.436L468.573 201.631Z" fill="#10002B"/>
<path d="M497.499 357H402.355V238.69L469.522 199.578L469.849 201.403L497.499 357ZM404.947 354.408H494.403L467.619 203.684L404.947 240.178V354.403V354.408Z" fill="#111C3A"/>
<path d="M449.805 157.568L412.781 126.543C412.781 126.543 400.525 122.634 403.656 134.367L423.731 160.958C423.731 160.958 416.431 194.331 445.372 199.023L449.805 157.568Z" fill="white"/>
<path d="M445.372 200.319C445.305 200.319 445.232 200.314 445.165 200.303C437.014 198.981 430.855 195.332 426.852 189.447C419.615 178.808 421.766 164.406 422.347 161.274L402.469 134.942L402.402 134.699C401.38 130.862 401.774 128.042 403.584 126.321C406.695 123.355 412.522 125.097 413.175 125.31L413.419 125.387L450.64 156.577C451.189 157.039 451.262 157.853 450.8 158.402C450.339 158.952 449.525 159.024 448.975 158.563L412.154 127.71C410.609 127.274 406.985 126.658 405.372 128.203C404.097 129.421 404.361 131.868 404.849 133.791L425.126 160.652L425.002 161.233C424.965 161.394 421.642 177.186 429.009 188.001C432.597 193.263 438.171 196.54 445.585 197.742C446.29 197.856 446.772 198.52 446.658 199.23C446.554 199.868 446.005 200.319 445.382 200.319H445.372Z" fill="#111C3A"/>
<path d="M44.6813 201.631L51.8932 151.476C54.2833 134.865 63.2787 119.923 76.8366 110.036L80.6628 107.247L129.16 110.114L122.902 173.992L121.274 187.461C120.16 196.69 111.817 203.295 102.584 202.268C99.5557 201.931 96.9271 204.353 97.0256 207.401C97.3107 216.355 97.7514 232.53 97.1656 232.188C96.3568 231.716 44.6813 201.625 44.6813 201.625V201.631Z" fill="white"/>
<path d="M97.2071 233.697L96.5123 233.313C95.7035 232.841 44.0281 202.751 44.0281 202.751L43.2711 202.31L50.6074 151.289C53.0338 134.434 62.3143 119.016 76.0692 108.989L80.2688 105.925L130.575 108.901L124.188 174.117L122.56 187.612C121.368 197.504 112.341 204.648 102.438 203.554C101.37 203.435 100.297 203.787 99.509 204.518C98.721 205.249 98.2855 206.281 98.3218 207.36C99.1306 232.551 98.7573 232.769 97.8655 233.303L97.2071 233.692V233.697ZM46.0916 200.952C51.7739 204.259 87.8384 225.262 96.1287 230.088C96.2116 227.123 96.139 220.139 95.7294 207.443C95.6724 205.618 96.4086 203.855 97.7514 202.616C99.0943 201.371 100.904 200.78 102.729 200.977C111.226 201.921 118.967 195.788 119.988 187.301L121.616 173.831L127.739 111.322L81.0517 108.558L77.6039 111.073C64.4089 120.695 55.5069 135.487 53.179 151.652L46.0916 200.941V200.952Z" fill="#111C3A"/>
<path d="M106.342 177.238H151.978C165.53 177.238 176.517 166.251 176.517 152.699L176.517 36.924C176.517 23.3719 165.53 12.3858 151.978 12.3858H106.342C92.79 12.3858 81.8035 23.3719 81.8035 36.924L81.8035 152.699C81.8035 166.251 92.79 177.238 106.342 177.238Z" fill="#9F99AA"/>
<path d="M173.603 153.42V36.2034C173.603 24.6556 164.241 15.2943 152.693 15.2943L105.617 15.2943C94.0684 15.2943 84.7069 24.6556 84.7069 36.2034L84.7069 153.42C84.7069 164.968 94.0684 174.329 105.617 174.329H152.693C164.241 174.329 173.603 164.968 173.603 153.42Z" fill="white"/>
<path d="M151.973 178.534H106.342C92.095 178.534 80.5073 166.941 80.5073 152.699V36.9293C80.5073 22.6822 92.1002 11.0948 106.342 11.0948H151.973C166.22 11.0948 177.808 22.6874 177.808 36.9293V152.699C177.808 166.946 166.215 178.534 151.973 178.534ZM106.342 13.6819C93.526 13.6819 83.0997 24.108 83.0997 36.9241V152.694C83.0997 165.51 93.526 175.936 106.342 175.936H151.973C164.789 175.936 175.215 165.51 175.215 152.694V36.9293C175.215 24.1131 164.789 13.6871 151.973 13.6871H106.342V13.6819Z" fill="#111C3A"/>
<path d="M119.61 26.0003H138.705C140.406 26.0003 141.779 24.6212 141.779 22.9259C141.779 21.2253 140.4 19.8514 138.705 19.8514H119.61C117.909 19.8514 116.535 21.2305 116.535 22.9259C116.535 24.6264 117.915 26.0003 119.61 26.0003Z" fill="#10002B"/>
<path d="M44.6814 201.631L17.3012 355.704H109.604V239.436L44.6814 201.631Z" fill="#10002B"/>
<path d="M110.9 357H15.7562L43.7274 199.578L110.895 238.69V357H110.9ZM18.8514 354.408H108.307V240.183L45.6353 203.689L18.8514 354.413V354.408Z" fill="#111C3A"/>
<path d="M354.775 132.521C359.088 132.521 362.583 129.026 362.583 124.713C362.583 120.401 359.088 116.906 354.775 116.906C350.463 116.906 346.967 120.401 346.967 124.713C346.967 129.026 350.463 132.521 354.775 132.521Z" fill="#10002B"/>
<path d="M406.435 121.603H371.475C370.76 121.603 370.179 121.022 370.179 120.307C370.179 119.591 370.76 119.01 371.475 119.01H406.435C407.151 119.01 407.731 119.591 407.731 120.307C407.731 121.022 407.151 121.603 406.435 121.603Z" fill="#111C3A"/>
<path d="M388.953 130.841H371.475C370.76 130.841 370.179 130.261 370.179 129.545C370.179 128.83 370.76 128.249 371.475 128.249H388.953C389.668 128.249 390.249 128.83 390.249 129.545C390.249 130.261 389.668 130.841 388.953 130.841Z" fill="#111C3A"/>
<path d="M362.46 148.274C363.148 144.017 360.254 140.009 355.997 139.322C351.739 138.634 347.731 141.528 347.044 145.785C346.357 150.042 349.251 154.05 353.508 154.738C357.765 155.425 361.773 152.531 362.46 148.274Z" fill="#69995D"/>
<path d="M406.435 143.932H371.475C370.76 143.932 370.179 143.352 370.179 142.636C370.179 141.921 370.76 141.34 371.475 141.34H406.435C407.151 141.34 407.731 141.921 407.731 142.636C407.731 143.352 407.151 143.932 406.435 143.932Z" fill="#111C3A"/>
<path d="M388.953 153.171H371.475C370.76 153.171 370.179 152.59 370.179 151.875C370.179 151.16 370.76 150.579 371.475 150.579H388.953C389.668 150.579 390.249 151.16 390.249 151.875C390.249 152.59 389.668 153.171 388.953 153.171Z" fill="#111C3A"/>
<path d="M63.4498 157.568L100.473 126.543C100.473 126.543 112.73 122.634 109.598 134.367L89.5234 160.958C89.5234 160.958 96.8234 194.331 67.8827 199.023L63.4498 157.568Z" fill="white"/>
<path d="M67.8826 200.319C67.2553 200.319 66.7057 199.868 66.6072 199.23C66.4932 198.525 66.9753 197.856 67.6804 197.742C75.0945 196.539 80.668 193.263 84.2558 188.001C91.6232 177.186 88.2946 161.394 88.2635 161.233L88.1391 160.652L88.4968 160.175L108.416 133.786C108.904 131.858 109.168 129.416 107.893 128.197C106.28 126.657 102.656 127.269 101.111 127.705L64.2897 158.558C63.7401 159.019 62.9261 158.947 62.4647 158.397C62.0033 157.847 62.0758 157.028 62.6254 156.572L99.846 125.382L100.09 125.304C100.743 125.097 106.565 123.35 109.681 126.315C111.491 128.037 111.885 130.857 110.863 134.693L110.796 134.937L90.9181 161.269C91.4987 164.401 93.6504 178.803 86.4126 189.442C82.41 195.321 76.2507 198.976 68.1004 200.298C68.0278 200.309 67.9604 200.314 67.893 200.314L67.8826 200.319Z" fill="#111C3A"/>
<path d="M129.155 107.858C147.409 107.858 162.207 93.0609 162.207 74.8072C162.207 56.5535 147.409 41.756 129.155 41.756C110.901 41.756 96.1028 56.5535 96.1028 74.8072C96.1028 93.0609 110.901 107.858 129.155 107.858Z" fill="#69995D"/>
<path d="M127.807 89.2099C126.811 88.9973 122.192 88.9247 121.3 88.9247H106.083V66.3151C106.047 64.7494 105.974 61.6231 105.798 60.804H113.155C112.979 61.6231 112.87 64.7494 112.87 66.3151V82.4545H121.295C122.181 82.4545 126.806 82.3819 127.802 82.1693V89.2099H127.807Z" fill="white"/>
<path d="M130.648 88.9247C130.861 87.9293 130.933 83.4136 130.933 82.527V66.3151C130.897 64.7494 130.824 61.6231 130.648 60.804H146.114C152.05 60.804 155.394 64.8582 155.394 70.6182C155.394 76.3782 152.05 80.4325 146.114 80.4325H137.653V82.5322C137.653 83.4188 137.725 87.9345 137.938 88.9299H130.648V88.9247ZM145.938 73.7445C147.607 73.7445 149.173 72.889 149.173 70.5819C149.173 68.2748 147.607 67.1342 145.938 67.1342H137.653V73.7445H145.938Z" fill="white"/>
<path d="M384.1 107.858C402.354 107.858 417.152 93.0609 417.152 74.8072C417.152 56.5535 402.354 41.756 384.1 41.756C365.846 41.756 351.048 56.5535 351.048 74.8072C351.048 93.0609 365.846 107.858 384.1 107.858Z" fill="#69995D"/>
<path d="M369.474 71.3647C370.646 71.4736 372.248 71.5047 373.134 71.5047H382.912V82.8795C380.673 87.2864 376.618 89.8112 370.578 89.8112C362.366 89.8112 356.642 86.0421 356.642 74.5947C356.642 64.3916 361.868 59.9847 370.754 59.9847C375.125 59.9847 379.822 61.5505 382.627 66.4913L376.546 70.1516C375.514 68.0518 373.736 66.7039 370.749 66.7039C366.306 66.7039 363.709 68.8036 363.709 74.6673C363.709 80.5309 366.27 83.0558 370.568 83.0558C373.943 83.0558 375.581 81.5627 376.504 79.9606V77.8298H372.237C371.382 77.8661 370.319 77.9024 369.463 77.9698V71.3596L369.474 71.3647Z" fill="white"/>
<path d="M385.754 88.9246C385.966 87.9292 386.039 83.4135 386.039 82.5269V66.315C386.003 64.7492 385.93 61.623 385.754 60.8038H401.219C407.156 60.8038 410.5 64.8581 410.5 70.6181C410.5 76.3781 407.156 80.4324 401.219 80.4324H392.758V82.5321C392.758 83.4187 392.831 87.9344 393.043 88.9298H385.754V88.9246ZM401.043 73.7444C402.713 73.7444 404.278 72.8889 404.278 70.5818C404.278 68.2747 402.713 67.1341 401.043 67.1341H392.758V73.7444H401.043Z" fill="white"/>
<path d="M261.441 93.8603C279.696 93.8603 294.493 79.0627 294.493 60.809C294.493 42.5554 279.696 27.7578 261.441 27.7578C243.187 27.7578 228.389 42.5554 228.389 60.809C228.389 79.0627 243.187 93.8603 261.441 93.8603Z" fill="#10002B"/>
<path d="M241.413 46.8058C241.2 47.8012 242.16 50.2535 242.73 51.9229L248.169 66.9269L254.281 49.9683C254.67 48.7241 255.028 47.4435 254.888 46.8058H263.525C262.603 47.9101 261.747 50.3624 260.928 52.5295L252.327 74.9266H243.974L234.196 49.4706C233.734 48.4026 233.237 47.4072 232.739 46.8058H241.413Z" fill="white"/>
<path d="M263.168 60.6018C263.168 50.3987 268.394 45.9918 277.28 45.9918C281.651 45.9918 286.348 47.5575 289.153 52.4984L283.072 56.1586C282.04 54.0589 280.262 52.7109 277.275 52.7109C272.832 52.7109 270.234 54.8107 270.234 60.6743C270.234 66.538 272.796 69.0629 277.094 69.0629C280.827 69.0629 282.392 67.2483 283.279 65.5063L289.428 68.8814C287.188 73.2883 283.134 75.8131 277.094 75.8131C268.881 75.8131 263.157 72.044 263.157 60.5966L263.168 60.6018Z" fill="white"/>
<path d="M234.761 100.279H239.847V98.3138H245.913V100.279H250.942V104.748H245.83C245.83 107.107 248.246 108.346 251.222 108.569V113.147C247.484 113.064 244.648 112.162 242.849 109.803C241.05 112.162 238.183 113.064 234.476 113.147V108.569C237.452 108.346 239.868 107.107 239.868 104.748H234.756V100.279H234.761ZM235.943 114.215H258.922V124.973H252.716V124.242L235.943 124.973V114.215ZM242.18 120.509L252.716 120.115V118.399H242.18V120.504V120.509ZM252.741 98.879H258.922V103.374H261.841V108.289H258.922V113.515H252.741V98.879Z" fill="#69995D"/>
<path d="M262.862 106.231C262.862 102.099 266.232 99.2937 270.364 99.2937C273.765 99.2937 276.684 101.399 277.586 104.463H281.661V98.8738H287.842V124.973H281.661V119.156H277.643C276.798 122.328 273.848 124.547 270.369 124.547C266.242 124.547 262.867 121.737 262.867 117.611V106.236L262.862 106.231ZM268.508 117.942C268.508 118.927 269.296 119.798 270.416 119.798C271.536 119.798 272.355 118.927 272.355 117.942V105.888C272.355 104.96 271.541 104.006 270.416 104.006C269.291 104.006 268.508 104.96 268.508 105.888V117.942ZM277.892 114.375H281.656V109.232H277.892V114.375Z" fill="#69995D"/>
</g>
<defs>
<clipPath id="clip0_754_79006">
<rect width="512" height="357" fill="white"/>
</clipPath>
</defs>
</svg>
