<svg width="64" height="64" viewBox="0 0 64 64" fill="none" xmlns="http://www.w3.org/2000/svg">
<g clip-path="url(#clip0_756_80316)">
<path d="M19 63H13L17 55H23L19 63Z" fill="#0074FF"/>
<path d="M41 63H47L43 55H37L41 63Z" fill="#0074FF"/>
<path d="M30 60C42.7025 60 53 49.7025 53 37C53 24.2975 42.7025 14 30 14C17.2975 14 7 24.2975 7 37C7 49.7025 17.2975 60 30 60Z" fill="#CCD3EB"/>
<path d="M30 57C24.1599 56.9997 18.5385 54.7778 14.2765 50.7851C10.0144 46.7923 7.43088 41.3277 7.05 35.5C6.84254 38.6412 7.28214 41.7916 8.34158 44.7561C9.40103 47.7206 11.0578 50.436 13.2092 52.7342C15.3606 55.0324 17.961 56.8645 20.8491 58.117C23.7373 59.3695 26.8519 60.0158 30 60.0158C33.1481 60.0158 36.2627 59.3695 39.1509 58.117C42.039 56.8645 44.6394 55.0324 46.7908 52.7342C48.9422 50.436 50.599 47.7206 51.6584 44.7561C52.7179 41.7916 53.1575 38.6412 52.95 35.5C52.5691 41.3277 49.9856 46.7923 45.7235 50.7851C41.4615 54.7778 35.8401 56.9997 30 57Z" fill="#96A1C3"/>
<path d="M30 54C39.3888 54 47 46.3888 47 37C47 27.6112 39.3888 20 30 20C20.6112 20 13 27.6112 13 37C13 46.3888 20.6112 54 30 54Z" fill="#F5F7FF"/>
<path d="M30 51C25.7534 50.9966 21.6618 49.4039 18.5304 46.5353C15.399 43.6668 13.4547 39.7301 13.08 35.5C12.8502 37.8602 13.1168 40.2424 13.8625 42.4935C14.6083 44.7445 15.8167 46.8147 17.4102 48.5709C19.0037 50.3271 20.9471 51.7304 23.1153 52.6908C25.2835 53.6512 27.6286 54.1473 30 54.1473C32.3714 54.1473 34.7165 53.6512 36.8847 52.6908C39.053 51.7304 40.9963 50.3271 42.5898 48.5709C44.1833 46.8147 45.3917 44.7445 46.1375 42.4935C46.8832 40.2424 47.1498 37.8602 46.92 35.5C46.5453 39.7301 44.601 43.6668 41.4696 46.5353C38.3382 49.4039 34.2466 50.9966 30 51Z" fill="#CCD3EB"/>
<path d="M30 48C36.0751 48 41 43.0751 41 37C41 30.9249 36.0751 26 30 26C23.9249 26 19 30.9249 19 37C19 43.0751 23.9249 48 30 48Z" fill="#CCD3EB"/>
<path d="M30 45C27.3437 44.9983 24.7778 44.0354 22.7761 42.2892C20.7744 40.543 19.4722 38.1315 19.11 35.5C18.8877 37.0599 19.0032 38.6494 19.4485 40.1608C19.8939 41.6722 20.6587 43.0703 21.6913 44.2604C22.7239 45.4506 24.0001 46.405 25.4336 47.0591C26.8671 47.7132 28.4243 48.0517 30 48.0517C31.5757 48.0517 33.1329 47.7132 34.5664 47.0591C35.9999 46.405 37.2761 45.4506 38.3087 44.2604C39.3413 43.0703 40.1061 41.6722 40.5515 40.1608C40.9968 38.6494 41.1123 37.0599 40.89 35.5C40.5278 38.1315 39.2256 40.543 37.2239 42.2892C35.2222 44.0354 32.6563 44.9983 30 45Z" fill="#96A1C3"/>
<path d="M30 42C32.7614 42 35 39.7614 35 37C35 34.2386 32.7614 32 30 32C27.2386 32 25 34.2386 25 37C25 39.7614 27.2386 42 30 42Z" fill="#0074FF"/>
<path d="M57 7V31C57 31.7956 56.6839 32.5587 56.1213 33.1213C55.5587 33.6839 54.7957 34 54 34H34L30 38L26 34H6C5.20435 34 4.44129 33.6839 3.87868 33.1213C3.31607 32.5587 3 31.7956 3 31V7C3 6.20435 3.31607 5.44129 3.87868 4.87868C4.44129 4.31607 5.20435 4 6 4H54C54.7957 4 55.5587 4.31607 56.1213 4.87868C56.6839 5.44129 57 6.20435 57 7Z" fill="#F5F7FF"/>
<path d="M57.0001 7V19.25C47.4601 22.94 38.6701 12.83 43.2001 4H54.0001C54.7957 4 55.5588 4.31607 56.1214 4.87868C56.684 5.44129 57.0001 6.20435 57.0001 7Z" fill="#CCD3EB"/>
<path d="M57 28V31C57 31.7956 56.6839 32.5587 56.1213 33.1213C55.5587 33.6839 54.7957 34 54 34H34L30 38L26 34H6C5.20435 34 4.44129 33.6839 3.87868 33.1213C3.31607 32.5587 3 31.7956 3 31V28C3 28.7956 3.31607 29.5587 3.87868 30.1213C4.44129 30.6839 5.20435 31 6 31H54C54.7957 31 55.5587 30.6839 56.1213 30.1213C56.6839 29.5587 57 28.7956 57 28Z" fill="#CCD3EB"/>
<path d="M13 18H9C8.44772 18 8 18.4477 8 19V29C8 29.5523 8.44772 30 9 30H13C13.5523 30 14 29.5523 14 29V19C14 18.4477 13.5523 18 13 18Z" fill="#CCD3EB"/>
<path d="M23 14H19C18.4477 14 18 14.4477 18 15V29C18 29.5523 18.4477 30 19 30H23C23.5523 30 24 29.5523 24 29V15C24 14.4477 23.5523 14 23 14Z" fill="#96A1C3"/>
<path d="M33 10H29C28.4477 10 28 10.4477 28 11V29C28 29.5523 28.4477 30 29 30H33C33.5523 30 34 29.5523 34 29V11C34 10.4477 33.5523 10 33 10Z" fill="#0074FF"/>
<path d="M53 17C57.4183 17 61 13.4183 61 9C61 4.58172 57.4183 1 53 1C48.5817 1 45 4.58172 45 9C45 13.4183 48.5817 17 53 17Z" fill="#0074FF"/>
<path d="M52.07 11.93C51.53 11.93 51.51 11.78 49.37 9.62997C49.2061 9.43867 49.1205 9.1926 49.1303 8.94092C49.14 8.68924 49.2443 8.45051 49.4224 8.27241C49.6005 8.09432 49.8392 7.98998 50.0909 7.98026C50.3426 7.97054 50.5887 8.05615 50.78 8.21997L52.07 9.50997L55.22 6.36997C55.4113 6.20615 55.6574 6.12054 55.909 6.13026C56.1607 6.13998 56.3994 6.24432 56.5775 6.42241C56.7556 6.60051 56.86 6.83924 56.8697 7.09092C56.8794 7.3426 56.7938 7.58867 56.63 7.77997L52.78 11.63C52.6874 11.7245 52.5769 11.7996 52.455 11.8511C52.3332 11.9026 52.2023 11.9294 52.07 11.93Z" fill="#F5F7FF"/>
<path d="M42 26H38V30H42V26Z" fill="#96A1C3"/>
<path d="M42 18H38V22H42V18Z" fill="#0074FF"/>
<path d="M40 5H42C42.2652 5 42.5196 4.89464 42.7071 4.70711C42.8946 4.51957 43 4.26522 43 4C43 3.73478 42.8946 3.48043 42.7071 3.29289C42.5196 3.10536 42.2652 3 42 3H40C39.7348 3 39.4804 3.10536 39.2929 3.29289C39.1054 3.48043 39 3.73478 39 4C39 4.26522 39.1054 4.51957 39.2929 4.70711C39.4804 4.89464 39.7348 5 40 5Z" fill="#033C59"/>
<path d="M9 17C8.46957 17 7.96086 17.2107 7.58579 17.5858C7.21071 17.9609 7 18.4696 7 19V29C7 29.5304 7.21071 30.0391 7.58579 30.4142C7.96086 30.7893 8.46957 31 9 31H13C13.5304 31 14.0391 30.7893 14.4142 30.4142C14.7893 30.0391 15 29.5304 15 29V19C15 18.4696 14.7893 17.9609 14.4142 17.5858C14.0391 17.2107 13.5304 17 13 17H9ZM9 29V19H13V29H9Z" fill="#033C59"/>
<path d="M19 13C18.4696 13 17.9609 13.2107 17.5858 13.5858C17.2107 13.9609 17 14.4696 17 15V29C17 29.5304 17.2107 30.0391 17.5858 30.4142C17.9609 30.7893 18.4696 31 19 31H23C23.5304 31 24.0391 30.7893 24.4142 30.4142C24.7893 30.0391 25 29.5304 25 29V15C25 14.4696 24.7893 13.9609 24.4142 13.5858C24.0391 13.2107 23.5304 13 23 13H19ZM19 29V15H23V29H19Z" fill="#033C59"/>
<path d="M29 9C28.4696 9 27.9609 9.21071 27.5858 9.58579C27.2107 9.96086 27 10.4696 27 11V29C27 29.5304 27.2107 30.0391 27.5858 30.4142C27.9609 30.7893 28.4696 31 29 31H33C33.5304 31 34.0391 30.7893 34.4142 30.4142C34.7893 30.0391 35 29.5304 35 29V11C35 10.4696 34.7893 9.96086 34.4142 9.58579C34.0391 9.21071 33.5304 9 33 9H29ZM29 29V11H33V29H29Z" fill="#033C59"/>
<path d="M62 9.00003C62.0032 7.08889 61.398 5.22634 60.272 3.68213C59.146 2.13793 57.5577 0.992251 55.7371 0.411036C53.9165 -0.170178 51.9581 -0.156751 50.1456 0.449373C48.3332 1.0555 46.7607 2.22285 45.656 3.78234C44.5512 5.34184 43.9716 7.21252 44.0011 9.12343C44.0305 11.0343 44.6675 12.8863 45.8198 14.411C46.972 15.9357 48.5797 17.054 50.41 17.604C52.2403 18.154 54.1982 18.1071 56 17.47V31C56 31.5305 55.7893 32.0392 55.4142 32.4142C55.0391 32.7893 54.5304 33 54 33H34C33.8684 32.9993 33.7379 33.0245 33.6161 33.0743C33.4943 33.124 33.3834 33.1973 33.29 33.29L30 36.59L26.71 33.29C26.6166 33.1973 26.5057 33.124 26.3839 33.0743C26.2621 33.0245 26.1316 32.9993 26 33H6C5.46957 33 4.96086 32.7893 4.58579 32.4142C4.21071 32.0392 4 31.5305 4 31V7.00003C4 6.46959 4.21071 5.96089 4.58579 5.58581C4.96086 5.21074 5.46957 5.00003 6 5.00003H36C36.2652 5.00003 36.5196 4.89467 36.7071 4.70713C36.8946 4.5196 37 4.26524 37 4.00003C37 3.73481 36.8946 3.48046 36.7071 3.29292C36.5196 3.10538 36.2652 3.00003 36 3.00003H6C4.93913 3.00003 3.92172 3.42145 3.17157 4.1716C2.42143 4.92175 2 5.93916 2 7.00003V31C2 32.0609 2.42143 33.0783 3.17157 33.8285C3.92172 34.5786 4.93913 35 6 35C6.22 35 6 34.85 6 37C6.00506 40.6737 6.85339 44.2971 8.47963 47.5913C10.1059 50.8854 12.4666 53.7622 15.38 56L12.11 62.54C12.0309 62.6926 11.9926 62.863 11.9985 63.0347C12.0045 63.2065 12.0546 63.3738 12.1441 63.5205C12.2335 63.6673 12.3593 63.7885 12.5092 63.8725C12.6591 63.9565 12.8282 64.0004 13 64H19C19.1847 63.9995 19.3656 63.9478 19.5227 63.8507C19.6798 63.7536 19.8069 63.6149 19.89 63.45L21.84 59.57C27.1175 61.4704 32.8925 61.4704 38.17 59.57L40.11 63.44C40.1917 63.6068 40.3183 63.7475 40.4755 63.8465C40.6326 63.9454 40.8143 63.9985 41 64H47C47.1705 63.9995 47.338 63.9554 47.4866 63.872C47.6352 63.7885 47.7601 63.6684 47.8492 63.5231C47.9384 63.3779 47.989 63.2122 47.9961 63.0419C48.0032 62.8716 47.9667 62.7023 47.89 62.55L44.64 56C47.4234 53.8685 49.7045 51.1515 51.322 48.041C52.9394 44.9306 53.8536 41.5028 54 38C54 37.7348 53.8946 37.4805 53.7071 37.2929C53.5196 37.1054 53.2652 37 53 37C52.7348 37 52.4804 37.1054 52.2929 37.2929C52.1054 37.4805 52 37.7348 52 38C51.8173 42.2057 50.4285 46.2701 47.9993 49.7082C45.5701 53.1463 42.2031 55.813 38.3 57.39C38.2668 57.3856 38.2332 57.3856 38.2 57.39C34.7065 58.791 30.9121 59.2722 27.1795 58.7876C23.4469 58.3031 19.9011 56.8691 16.8811 54.6226C13.8611 52.3762 11.468 49.3925 9.93054 45.9569C8.39312 42.5214 7.76285 38.7488 8.1 35H12.1C11.8073 37.522 12.0515 40.0774 12.8164 42.4983C13.5814 44.9192 14.8498 47.1509 16.5385 49.0469C18.2271 50.9428 20.2977 52.4601 22.6143 53.499C24.9309 54.5379 27.4411 55.075 29.98 55.075C32.5189 55.075 35.0291 54.5379 37.3457 53.499C39.6623 52.4601 41.7329 50.9428 43.4215 49.0469C45.1102 47.1509 46.3786 44.9192 47.1436 42.4983C47.9085 40.0774 48.1527 37.522 47.86 35H54C55.0609 35 56.0783 34.5786 56.8284 33.8285C57.5786 33.0783 58 32.0609 58 31V16.48C59.2302 15.6581 60.2388 14.5455 60.9365 13.2408C61.6342 11.9361 61.9995 10.4796 62 9.00003ZM45.38 62H41.62L40 58.82C41.0345 58.3504 42.0367 57.8125 43 57.21L45.38 62ZM18.38 62H14.62L17 57.18C17.9594 57.7921 18.962 58.3335 20 58.8L18.38 62ZM30 47C28.5195 46.9959 27.0584 46.6631 25.7221 46.0256C24.3859 45.3881 23.2079 44.4619 22.2731 43.3138C21.3384 42.1657 20.6702 40.8243 20.3169 39.3866C19.9636 37.9489 19.9339 36.4506 20.23 35H24.35C24.0264 35.9055 23.9251 36.8756 24.0548 37.8284C24.1845 38.7812 24.5413 39.689 25.0951 40.4751C25.649 41.2612 26.3836 41.9026 27.2373 42.3454C28.0909 42.7882 29.0384 43.0193 30 43.0193C30.9616 43.0193 31.9091 42.7882 32.7627 42.3454C33.6164 41.9026 34.351 41.2612 34.9049 40.4751C35.4587 39.689 35.8155 38.7812 35.9452 37.8284C36.0749 36.8756 35.9736 35.9055 35.65 35H39.77C40.0661 36.4506 40.0364 37.9489 39.6831 39.3866C39.3298 40.8243 38.6616 42.1657 37.7269 43.3138C36.7921 44.4619 35.6141 45.3881 34.2779 46.0256C32.9416 46.6631 31.4805 46.9959 30 47ZM29.29 38.71C29.383 38.8038 29.4936 38.8781 29.6154 38.9289C29.7373 38.9797 29.868 39.0058 30 39.0058C30.132 39.0058 30.2627 38.9797 30.3846 38.9289C30.5064 38.8781 30.617 38.8038 30.71 38.71L33.71 35.66C33.9345 36.2649 34.0094 36.9151 33.9282 37.5552C33.8471 38.1952 33.6123 38.8062 33.2439 39.3358C32.8755 39.8655 32.3844 40.2982 31.8126 40.5971C31.2408 40.8959 30.6052 41.052 29.96 41.052C29.3148 41.052 28.6792 40.8959 28.1074 40.5971C27.5356 40.2982 27.0445 39.8655 26.6761 39.3358C26.3077 38.8062 26.0729 38.1952 25.9918 37.5552C25.9106 36.9151 25.9855 36.2649 26.21 35.66L29.29 38.71ZM30 53C27.7312 52.998 25.4888 52.5134 23.4216 51.5786C21.3544 50.6437 19.5096 49.2799 18.0097 47.5776C16.5098 45.8753 15.3891 43.8735 14.7219 41.7051C14.0548 39.5366 13.8564 37.251 14.14 35H18.14C17.8471 36.7215 17.9335 38.4861 18.393 40.1708C18.8526 41.8554 19.6742 43.4195 20.8007 44.7538C21.9271 46.0881 23.3312 47.1605 24.9149 47.8961C26.4986 48.6317 28.2238 49.0128 29.97 49.0128C31.7162 49.0128 33.4414 48.6317 35.0251 47.8961C36.6088 47.1605 38.0129 46.0881 39.1393 44.7538C40.2658 43.4195 41.0874 41.8554 41.547 40.1708C42.0065 38.4861 42.0929 36.7215 41.8 35H45.8C46.083 37.246 45.8862 39.5265 45.2225 41.6908C44.5589 43.8551 43.4435 45.8539 41.9502 47.5552C40.4568 49.2565 38.6194 50.6215 36.5594 51.5601C34.4994 52.4987 32.2637 52.9895 30 53ZM46 9.00003C46 7.61556 46.4105 6.26218 47.1797 5.11104C47.9489 3.95989 49.0421 3.06268 50.3212 2.53287C51.6003 2.00306 53.0078 1.86443 54.3656 2.13453C55.7235 2.40463 56.9708 3.07131 57.9497 4.05028C58.9287 5.02925 59.5954 6.27653 59.8655 7.6344C60.1356 8.99226 59.997 10.3997 59.4672 11.6788C58.9373 12.9579 58.0401 14.0511 56.889 14.8203C55.7378 15.5895 54.3845 16 53 16C51.1435 16 49.363 15.2625 48.0503 13.9498C46.7375 12.637 46 10.8565 46 9.00003Z" fill="#033C59"/>
<path d="M42 25H38C37.7348 25 37.4804 25.1054 37.2929 25.2929C37.1054 25.4804 37 25.7348 37 26V30C37 30.2652 37.1054 30.5196 37.2929 30.7071C37.4804 30.8946 37.7348 31 38 31H42C42.2652 31 42.5196 30.8946 42.7071 30.7071C42.8946 30.5196 43 30.2652 43 30V26C43 25.7348 42.8946 25.4804 42.7071 25.2929C42.5196 25.1054 42.2652 25 42 25ZM41 29H39V27H41V29Z" fill="#033C59"/>
<path d="M37 22C37 22.2652 37.1054 22.5196 37.2929 22.7071C37.4804 22.8946 37.7348 23 38 23H42C42.2652 23 42.5196 22.8946 42.7071 22.7071C42.8946 22.5196 43 22.2652 43 22V18C43 17.7348 42.8946 17.4804 42.7071 17.2929C42.5196 17.1054 42.2652 17 42 17H38C37.7348 17 37.4804 17.1054 37.2929 17.2929C37.1054 17.4804 37 17.7348 37 18V22ZM39 19H41V21H39V19Z" fill="#033C59"/>
<path d="M46 21H48C48.2652 21 48.5196 20.8946 48.7071 20.7071C48.8946 20.5196 49 20.2652 49 20C49 19.7348 48.8946 19.4804 48.7071 19.2929C48.5196 19.1054 48.2652 19 48 19H46C45.7348 19 45.4804 19.1054 45.2929 19.2929C45.1054 19.4804 45 19.7348 45 20C45 20.2652 45.1054 20.5196 45.2929 20.7071C45.4804 20.8946 45.7348 21 46 21Z" fill="#96A1C3"/>
<path d="M53 27H46C45.7348 27 45.4804 27.1054 45.2929 27.2929C45.1054 27.4804 45 27.7348 45 28C45 28.2652 45.1054 28.5196 45.2929 28.7071C45.4804 28.8946 45.7348 29 46 29H53C53.2652 29 53.5196 28.8946 53.7071 28.7071C53.8946 28.5196 54 28.2652 54 28C54 27.7348 53.8946 27.4804 53.7071 27.2929C53.5196 27.1054 53.2652 27 53 27Z" fill="#96A1C3"/>
<path d="M10 13H8C7.73478 13 7.48043 13.1054 7.29289 13.2929C7.10536 13.4804 7 13.7348 7 14C7 14.2652 7.10536 14.5196 7.29289 14.7071C7.48043 14.8946 7.73478 15 8 15H10C10.2652 15 10.5196 14.8946 10.7071 14.7071C10.8946 14.5196 11 14.2652 11 14C11 13.7348 10.8946 13.4804 10.7071 13.2929C10.5196 13.1054 10.2652 13 10 13Z" fill="#96A1C3"/>
<path d="M10 9H8C7.73478 9 7.48043 9.10536 7.29289 9.29289C7.10536 9.48043 7 9.73478 7 10C7 10.2652 7.10536 10.5196 7.29289 10.7071C7.48043 10.8946 7.73478 11 8 11H10C10.2652 11 10.5196 10.8946 10.7071 10.7071C10.8946 10.5196 11 10.2652 11 10C11 9.73478 10.8946 9.48043 10.7071 9.29289C10.5196 9.10536 10.2652 9 10 9Z" fill="#96A1C3"/>
</g>
<defs>
<clipPath id="clip0_756_80316">
<rect width="64" height="64" fill="white"/>
</clipPath>
</defs>
</svg>
