<svg width="41" height="40" viewBox="0 0 41 40" fill="none" xmlns="http://www.w3.org/2000/svg">
<g clip-path="url(#clip0_754_82906)">
<path d="M36.2917 9.375H5.04175C2.97068 9.375 1.29175 11.0539 1.29175 13.125V34.375C1.29175 36.4461 2.97068 38.125 5.04175 38.125H36.2917C38.3628 38.125 40.0417 36.4461 40.0417 34.375V13.125C40.0417 11.0539 38.3628 9.375 36.2917 9.375Z" fill="#96A1C3"/>
<path d="M36.2917 36.25H5.04175C4.04719 36.25 3.09336 35.8549 2.3901 35.1517C1.68684 34.4484 1.29175 33.4946 1.29175 32.5V34.375C1.29175 35.3696 1.68684 36.3234 2.3901 37.0267C3.09336 37.7299 4.04719 38.125 5.04175 38.125H36.2917C37.2863 38.125 38.2401 37.7299 38.9434 37.0267C39.6467 36.3234 40.0417 35.3696 40.0417 34.375V32.5C40.0417 33.4946 39.6467 34.4484 38.9434 35.1517C38.2401 35.8549 37.2863 36.25 36.2917 36.25Z" fill="#647499"/>
<path d="M33.7917 11.875H5.04175C4.35139 11.875 3.79175 12.4346 3.79175 13.125V34.375C3.79175 35.0654 4.35139 35.625 5.04175 35.625H33.7917C34.4821 35.625 35.0417 35.0654 35.0417 34.375V13.125C35.0417 12.4346 34.4821 11.875 33.7917 11.875Z" fill="#F5F7FF"/>
<path d="M33.7917 33.75H5.04175C4.71023 33.75 4.39228 33.6183 4.15786 33.3839C3.92344 33.1495 3.79175 32.8315 3.79175 32.5V34.375C3.79175 34.7065 3.92344 35.0245 4.15786 35.2589C4.39228 35.4933 4.71023 35.625 5.04175 35.625H33.7917C34.1233 35.625 34.4412 35.4933 34.6756 35.2589C34.9101 35.0245 35.0417 34.7065 35.0417 34.375V32.5C35.0417 32.8315 34.9101 33.1495 34.6756 33.3839C34.4412 33.6183 34.1233 33.75 33.7917 33.75Z" fill="#CCD3EB"/>
<path d="M28.7917 20.625V33.125H7.54175V25.625L13.7917 20L20.6667 26.25L28.7917 20.625Z" fill="#0074FF"/>
<path d="M37.5417 25.625C37.376 25.625 37.217 25.5592 37.0998 25.4419C36.9826 25.3247 36.9167 25.1658 36.9167 25V22.5C36.9167 22.3342 36.9826 22.1753 37.0998 22.0581C37.217 21.9408 37.376 21.875 37.5417 21.875C37.7075 21.875 37.8665 21.9408 37.9837 22.0581C38.1009 22.1753 38.1667 22.3342 38.1667 22.5V25C38.1667 25.1658 38.1009 25.3247 37.9837 25.4419C37.8665 25.5592 37.7075 25.625 37.5417 25.625Z" fill="#F5F7FF"/>
<path d="M11.9167 15H10.6667C10.501 15 10.342 14.9342 10.2248 14.8169C10.1076 14.6997 10.0417 14.5408 10.0417 14.375C10.0417 14.2092 10.1076 14.0503 10.2248 13.9331C10.342 13.8158 10.501 13.75 10.6667 13.75H11.9167C12.0825 13.75 12.2415 13.8158 12.3587 13.9331C12.4759 14.0503 12.5417 14.2092 12.5417 14.375C12.5417 14.5408 12.4759 14.6997 12.3587 14.8169C12.2415 14.9342 12.0825 15 11.9167 15Z" fill="#CCD3EB"/>
<path d="M11.9167 17.5H10.6667C10.501 17.5 10.342 17.4342 10.2248 17.3169C10.1076 17.1997 10.0417 17.0408 10.0417 16.875C10.0417 16.7092 10.1076 16.5503 10.2248 16.4331C10.342 16.3158 10.501 16.25 10.6667 16.25H11.9167C12.0825 16.25 12.2415 16.3158 12.3587 16.4331C12.4759 16.5503 12.5417 16.7092 12.5417 16.875C12.5417 17.0408 12.4759 17.1997 12.3587 17.3169C12.2415 17.4342 12.0825 17.5 11.9167 17.5Z" fill="#CCD3EB"/>
<path d="M30.0417 16.875C34.1839 16.875 37.5417 13.5171 37.5417 9.375C37.5417 5.23286 34.1839 1.875 30.0417 1.875C25.8996 1.875 22.5417 5.23286 22.5417 9.375C22.5417 13.5171 25.8996 16.875 30.0417 16.875Z" fill="#0074FF"/>
<path d="M30.0416 11.15C33.1517 11.15 35.6729 10.3553 35.6729 9.375C35.6729 8.39469 33.1517 7.6 30.0416 7.6C26.9316 7.6 24.4104 8.39469 24.4104 9.375C24.4104 10.3553 26.9316 11.15 30.0416 11.15Z" fill="#CCD3EB"/>
<path d="M30.0417 11.875C31.4225 11.875 32.5417 10.7557 32.5417 9.375C32.5417 7.99429 31.4225 6.875 30.0417 6.875C28.661 6.875 27.5417 7.99429 27.5417 9.375C27.5417 10.7557 28.661 11.875 30.0417 11.875Z" fill="#96A1C3"/>
<path d="M38.1667 9.18125C38.1418 8.04169 37.8773 6.92014 37.3905 5.88948C36.9038 4.85882 36.2056 3.9421 35.3414 3.19891C34.4772 2.45572 33.4662 1.90267 32.3743 1.57572C31.2824 1.24877 30.1339 1.15522 29.0034 1.30115C27.873 1.44709 26.7859 1.82924 25.8128 2.42278C24.8397 3.01632 24.0024 3.80796 23.3552 4.74627C22.7081 5.68457 22.2656 6.74854 22.0565 7.86903C21.8475 8.98952 21.8765 10.1415 22.1417 11.25H5.04175C4.54447 11.25 4.06755 11.4475 3.71592 11.7992C3.36429 12.1508 3.16675 12.6277 3.16675 13.125V34.375C3.16675 34.8723 3.36429 35.3492 3.71592 35.7008C4.06755 36.0525 4.54447 36.25 5.04175 36.25H7.54175C7.70751 36.25 7.86648 36.1842 7.98369 36.0669C8.1009 35.9497 8.16675 35.7908 8.16675 35.625C8.16675 35.4592 8.1009 35.3003 7.98369 35.1831C7.86648 35.0658 7.70751 35 7.54175 35H5.04175C4.87599 35 4.71702 34.9342 4.59981 34.8169C4.4826 34.6997 4.41675 34.5408 4.41675 34.375V13.125C4.41675 12.9592 4.4826 12.8003 4.59981 12.6831C4.71702 12.5658 4.87599 12.5 5.04175 12.5H22.5417C22.9988 13.594 23.6897 14.5747 24.566 15.3732C25.4423 16.1718 26.4828 16.769 27.6144 17.1227C28.7459 17.4765 29.9413 17.5783 31.1164 17.4211C32.2915 17.2638 33.418 16.8513 34.4167 16.2125V34.375C34.4167 34.5408 34.3509 34.6997 34.2337 34.8169C34.1165 34.9342 33.9575 35 33.7917 35H13.7917C13.626 35 13.467 35.0658 13.3498 35.1831C13.2326 35.3003 13.1667 35.4592 13.1667 35.625C13.1667 35.7908 13.2326 35.9497 13.3498 36.0669C13.467 36.1842 13.626 36.25 13.7917 36.25H33.7917C34.289 36.25 34.7659 36.0525 35.1176 35.7008C35.4692 35.3492 35.6667 34.8723 35.6667 34.375V15.225C36.9601 13.9788 37.8041 12.3392 38.0667 10.5625C38.4819 10.849 38.8215 11.2317 39.0565 11.6779C39.2916 12.1241 39.4152 12.6206 39.4167 13.125V34.375C39.4167 35.2038 39.0875 35.9987 38.5015 36.5847C37.9154 37.1708 37.1205 37.5 36.2917 37.5H5.04175C4.21295 37.5 3.41809 37.1708 2.83204 36.5847C2.24599 35.9987 1.91675 35.2038 1.91675 34.375V13.125C1.91675 12.2962 2.24599 11.5013 2.83204 10.9153C3.41809 10.3292 4.21295 10 5.04175 10H20.0417C20.2075 10 20.3665 9.93415 20.4837 9.81694C20.6009 9.69973 20.6667 9.54076 20.6667 9.375C20.6667 9.20924 20.6009 9.05027 20.4837 8.93306C20.3665 8.81585 20.2075 8.75 20.0417 8.75H5.04175C3.88143 8.75 2.76863 9.21093 1.94816 10.0314C1.12768 10.8519 0.666748 11.9647 0.666748 13.125L0.666748 34.375C0.666748 35.5353 1.12768 36.6481 1.94816 37.4686C2.76863 38.2891 3.88143 38.75 5.04175 38.75H36.2917C37.4521 38.75 38.5649 38.2891 39.3853 37.4686C40.2058 36.6481 40.6667 35.5353 40.6667 34.375V13.125C40.665 12.2986 40.4293 11.4897 39.9869 10.7917C39.5444 10.0938 38.9134 9.5354 38.1667 9.18125V9.18125ZM30.0417 16.25C28.682 16.25 27.3528 15.8468 26.2222 15.0914C25.0916 14.3359 24.2104 13.2622 23.6901 12.0059C23.1697 10.7497 23.0336 9.36737 23.2988 8.03375C23.5641 6.70013 24.2189 5.47512 25.1804 4.51364C26.1419 3.55215 27.3669 2.89737 28.7005 2.6321C30.0341 2.36683 31.4165 2.50297 32.6727 3.02333C33.9289 3.54368 35.0027 4.42486 35.7581 5.55545C36.5135 6.68604 36.9167 8.01525 36.9167 9.375C36.9167 11.1984 36.1924 12.947 34.9031 14.2364C33.6138 15.5257 31.8651 16.25 30.0417 16.25V16.25Z" fill="#033C59"/>
<path d="M10.0417 36.25H11.2917C11.4575 36.25 11.6165 36.1842 11.7337 36.0669C11.8509 35.9497 11.9167 35.7908 11.9167 35.625C11.9167 35.4592 11.8509 35.3003 11.7337 35.1831C11.6165 35.0658 11.4575 35 11.2917 35H10.0417C9.87599 35 9.71702 35.0658 9.59981 35.1831C9.4826 35.3003 9.41675 35.4592 9.41675 35.625C9.41675 35.7908 9.4826 35.9497 9.59981 36.0669C9.71702 36.1842 9.87599 36.25 10.0417 36.25V36.25Z" fill="#033C59"/>
<path d="M7.54175 33.75H31.9167C32.0825 33.75 32.2415 33.6842 32.3587 33.5669C32.4759 33.4497 32.5417 33.2908 32.5417 33.125C32.5417 32.9592 32.4759 32.8003 32.3587 32.6831C32.2415 32.5658 32.0825 32.5 31.9167 32.5H8.16675V25.9063L13.7917 20.8437C20.8042 27.2187 20.323 26.875 20.6667 26.875C21.0105 26.875 20.2605 27.2875 29.148 21.1375C29.2201 21.0928 29.2823 21.0339 29.3308 20.9643C29.3794 20.8948 29.4133 20.8161 29.4305 20.733C29.4476 20.65 29.4477 20.5643 29.4307 20.4812C29.4137 20.3981 29.38 20.3194 29.3316 20.2497C29.2832 20.1801 29.2211 20.121 29.1492 20.0762C29.0772 20.0313 28.9969 20.0015 28.913 19.9887C28.8292 19.9758 28.7436 19.9802 28.6615 20.0015C28.5794 20.0228 28.5025 20.0605 28.4355 20.1125L20.7167 25.4562L14.2105 19.5375C14.0957 19.4339 13.9464 19.3765 13.7917 19.3765C13.637 19.3765 13.4878 19.4339 13.373 19.5375L8.16675 24.2188V14.375C8.16675 14.2092 8.1009 14.0503 7.98369 13.9331C7.86648 13.8158 7.70751 13.75 7.54175 13.75C7.37599 13.75 7.21702 13.8158 7.09981 13.9331C6.9826 14.0503 6.91675 14.2092 6.91675 14.375V15.625H6.29175C6.12599 15.625 5.96702 15.6908 5.84981 15.8081C5.7326 15.9253 5.66675 16.0842 5.66675 16.25C5.66675 16.4158 5.7326 16.5747 5.84981 16.6919C5.96702 16.8092 6.12599 16.875 6.29175 16.875H6.91675V19.375H6.29175C6.12599 19.375 5.96702 19.4408 5.84981 19.5581C5.7326 19.6753 5.66675 19.8342 5.66675 20C5.66675 20.1658 5.7326 20.3247 5.84981 20.4419C5.96702 20.5592 6.12599 20.625 6.29175 20.625H6.91675V23.125H6.29175C6.12599 23.125 5.96702 23.1908 5.84981 23.3081C5.7326 23.4253 5.66675 23.5842 5.66675 23.75C5.66675 23.9158 5.7326 24.0747 5.84981 24.1919C5.96702 24.3092 6.12599 24.375 6.29175 24.375H6.91675V26.875H6.29175C6.12599 26.875 5.96702 26.9408 5.84981 27.0581C5.7326 27.1753 5.66675 27.3342 5.66675 27.5C5.66675 27.6658 5.7326 27.8247 5.84981 27.9419C5.96702 28.0592 6.12599 28.125 6.29175 28.125H6.91675V30.625H6.29175C6.12599 30.625 5.96702 30.6908 5.84981 30.8081C5.7326 30.9253 5.66675 31.0842 5.66675 31.25C5.66675 31.4158 5.7326 31.5747 5.84981 31.6919C5.96702 31.8092 6.12599 31.875 6.29175 31.875H6.91675V33.125C6.91675 33.2908 6.9826 33.4497 7.09981 33.5669C7.21702 33.6842 7.37599 33.75 7.54175 33.75Z" fill="#033C59"/>
<path d="M29.4167 23.75C29.4167 23.5842 29.3509 23.4253 29.2337 23.3081C29.1165 23.1908 28.9575 23.125 28.7917 23.125C28.626 23.125 28.467 23.1908 28.3498 23.3081C28.2326 23.4253 28.1667 23.5842 28.1667 23.75V24.375C28.1667 24.5408 28.2326 24.6997 28.3498 24.8169C28.467 24.9342 28.626 25 28.7917 25C28.9575 25 29.1165 24.9342 29.2337 24.8169C29.3509 24.6997 29.4167 24.5408 29.4167 24.375V23.75Z" fill="#033C59"/>
<path d="M29.4167 26.875C29.4167 26.7092 29.3509 26.5503 29.2337 26.4331C29.1165 26.3158 28.9575 26.25 28.7917 26.25C28.626 26.25 28.467 26.3158 28.3498 26.4331C28.2326 26.5503 28.1667 26.7092 28.1667 26.875V27.5C28.1667 27.6658 28.2326 27.8247 28.3498 27.9419C28.467 28.0592 28.626 28.125 28.7917 28.125C28.9575 28.125 29.1165 28.0592 29.2337 27.9419C29.3509 27.8247 29.4167 27.6658 29.4167 27.5V26.875Z" fill="#033C59"/>
<path d="M28.7917 29.375C28.626 29.375 28.467 29.4408 28.3498 29.5581C28.2326 29.6753 28.1667 29.8342 28.1667 30V30.625C28.1667 30.7908 28.2326 30.9497 28.3498 31.0669C28.467 31.1842 28.626 31.25 28.7917 31.25C28.9575 31.25 29.1165 31.1842 29.2337 31.0669C29.3509 30.9497 29.4167 30.7908 29.4167 30.625V30C29.4167 29.8342 29.3509 29.6753 29.2337 29.5581C29.1165 29.4408 28.9575 29.375 28.7917 29.375Z" fill="#033C59"/>
<path d="M14.4167 23.75C14.4167 23.5842 14.3509 23.4253 14.2337 23.3081C14.1165 23.1908 13.9575 23.125 13.7917 23.125C13.626 23.125 13.467 23.1908 13.3498 23.3081C13.2326 23.4253 13.1667 23.5842 13.1667 23.75V24.375C13.1667 24.5408 13.2326 24.6997 13.3498 24.8169C13.467 24.9342 13.626 25 13.7917 25C13.9575 25 14.1165 24.9342 14.2337 24.8169C14.3509 24.6997 14.4167 24.5408 14.4167 24.375V23.75Z" fill="#033C59"/>
<path d="M14.4167 26.875C14.4167 26.7092 14.3509 26.5503 14.2337 26.4331C14.1165 26.3158 13.9575 26.25 13.7917 26.25C13.626 26.25 13.467 26.3158 13.3498 26.4331C13.2326 26.5503 13.1667 26.7092 13.1667 26.875V27.5C13.1667 27.6658 13.2326 27.8247 13.3498 27.9419C13.467 28.0592 13.626 28.125 13.7917 28.125C13.9575 28.125 14.1165 28.0592 14.2337 27.9419C14.3509 27.8247 14.4167 27.6658 14.4167 27.5V26.875Z" fill="#033C59"/>
<path d="M13.7917 29.375C13.626 29.375 13.467 29.4408 13.3498 29.5581C13.2326 29.6753 13.1667 29.8342 13.1667 30V30.625C13.1667 30.7908 13.2326 30.9497 13.3498 31.0669C13.467 31.1842 13.626 31.25 13.7917 31.25C13.9575 31.25 14.1165 31.1842 14.2337 31.0669C14.3509 30.9497 14.4167 30.7908 14.4167 30.625V30C14.4167 29.8342 14.3509 29.6753 14.2337 29.5581C14.1165 29.4408 13.9575 29.375 13.7917 29.375Z" fill="#033C59"/>
<path d="M20.0417 30V30.625C20.0417 30.7908 20.1076 30.9497 20.2248 31.0669C20.342 31.1842 20.501 31.25 20.6667 31.25C20.8325 31.25 20.9915 31.1842 21.1087 31.0669C21.2259 30.9497 21.2917 30.7908 21.2917 30.625V30C21.2917 29.8342 21.2259 29.6753 21.1087 29.5581C20.9915 29.4408 20.8325 29.375 20.6667 29.375C20.501 29.375 20.342 29.4408 20.2248 29.5581C20.1076 29.6753 20.0417 29.8342 20.0417 30Z" fill="#033C59"/>
<path d="M20.6667 7.5C20.7904 7.5 20.9112 7.46334 21.014 7.39467C21.1168 7.32599 21.1969 7.22838 21.2442 7.11418C21.2915 6.99997 21.3039 6.87431 21.2797 6.75307C21.2556 6.63183 21.1961 6.52047 21.1087 6.43306C21.0213 6.34565 20.9099 6.28613 20.7887 6.26201C20.6674 6.23789 20.5418 6.25027 20.4276 6.29758C20.3134 6.34488 20.2158 6.42499 20.1471 6.52777C20.0784 6.63055 20.0417 6.75139 20.0417 6.875C20.0417 7.04076 20.1076 7.19973 20.2248 7.31694C20.342 7.43415 20.501 7.5 20.6667 7.5Z" fill="#033C59"/>
<path d="M18.1667 7.5C18.2904 7.5 18.4112 7.46334 18.514 7.39467C18.6168 7.32599 18.6969 7.22838 18.7442 7.11418C18.7915 6.99997 18.8039 6.87431 18.7797 6.75307C18.7556 6.63183 18.6961 6.52047 18.6087 6.43306C18.5213 6.34565 18.4099 6.28613 18.2887 6.26201C18.1674 6.23789 18.0418 6.25027 17.9276 6.29758C17.8134 6.34488 17.7158 6.42499 17.6471 6.52777C17.5784 6.63055 17.5417 6.75139 17.5417 6.875C17.5417 7.04076 17.6076 7.19973 17.7248 7.31694C17.842 7.43415 18.001 7.5 18.1667 7.5Z" fill="#033C59"/>
<path d="M31.9167 9.375C32.6071 9.375 33.1667 8.81536 33.1667 8.125C33.1667 7.43464 32.6071 6.875 31.9167 6.875C31.2264 6.875 30.6667 7.43464 30.6667 8.125C30.6667 8.81536 31.2264 9.375 31.9167 9.375Z" fill="#F5F7FF"/>
<path d="M13.7917 21.875C14.8273 21.875 15.6667 21.0355 15.6667 20C15.6667 18.9645 14.8273 18.125 13.7917 18.125C12.7562 18.125 11.9167 18.9645 11.9167 20C11.9167 21.0355 12.7562 21.875 13.7917 21.875Z" fill="#CCD3EB"/>
<path d="M20.6667 28.125C21.7023 28.125 22.5417 27.2855 22.5417 26.25C22.5417 25.2145 21.7023 24.375 20.6667 24.375C19.6312 24.375 18.7917 25.2145 18.7917 26.25C18.7917 27.2855 19.6312 28.125 20.6667 28.125Z" fill="#CCD3EB"/>
</g>
<defs>
<clipPath id="clip0_754_82906">
<rect width="40" height="40" fill="white" transform="translate(0.666748)"/>
</clipPath>
</defs>
</svg>
