<svg width="41" height="41" viewBox="0 0 41 41" fill="none" xmlns="http://www.w3.org/2000/svg">
<g clip-path="url(#clip0_754_83329)">
<path d="M31.2916 29.0834C31.2916 30.2437 30.8307 31.3565 30.0102 32.1769C29.1897 32.9974 28.0769 33.4584 26.9166 33.4584H16.9166C16.3071 33.461 15.7038 33.3362 15.1454 33.0921C14.587 32.848 14.0857 32.4899 13.6737 32.0408C13.2617 31.5917 12.9481 31.0614 12.753 30.484C12.5578 29.9066 12.4855 29.2948 12.5406 28.6879C12.5957 28.0809 12.777 27.4921 13.0729 26.9593C13.3688 26.4265 13.7728 25.9614 14.2589 25.5938C14.7451 25.2262 15.3026 24.9642 15.8959 24.8246C16.4892 24.6851 17.1051 24.671 17.7041 24.7834C17.9618 23.8644 18.5129 23.0549 19.2735 22.4783C20.034 21.9017 20.9622 21.5897 21.9166 21.5897C22.871 21.5897 23.7992 21.9017 24.5597 22.4783C25.3203 23.0549 25.8714 23.8644 26.1291 24.7834C26.7596 24.668 27.4077 24.6926 28.0276 24.8553C28.6475 25.0181 29.2241 25.3151 29.7166 25.7253C30.2091 26.1355 30.6054 26.6489 30.8776 27.2291C31.1497 27.8094 31.2911 28.4424 31.2916 29.0834V29.0834Z" fill="#CCD3EB"/>
<path d="M26.9164 33.4584H16.9164C15.8648 33.4593 14.8481 33.0814 14.0524 32.3939C13.2567 31.7065 12.7352 30.7554 12.5834 29.7149C12.4316 28.6744 12.6597 27.614 13.2259 26.7278C13.792 25.8417 14.6584 25.1891 15.6664 24.8896C17.2174 25.2183 18.6243 26.0301 19.6851 27.2084H23.1664C24.0108 27.2082 24.8372 27.4525 25.5458 27.9116C26.2545 28.3708 26.8151 29.0252 27.1601 29.7959L30.6976 26.8834C31.0844 27.5482 31.2891 28.3033 31.291 29.0724C31.2929 29.8416 31.092 30.5977 30.7086 31.2644C30.3251 31.9312 29.7727 32.4851 29.1069 32.8703C28.4411 33.2554 27.6856 33.4583 26.9164 33.4584V33.4584Z" fill="#96A1C3"/>
<path d="M7.5415 25.9584H3.7915C3.10115 25.9584 2.5415 26.518 2.5415 27.2084V38.4584C2.5415 39.1487 3.10115 39.7084 3.7915 39.7084H7.5415C8.23186 39.7084 8.7915 39.1487 8.7915 38.4584V27.2084C8.7915 26.518 8.23186 25.9584 7.5415 25.9584Z" fill="#0074FF"/>
<path d="M38.1665 27.2084L28.0665 37.3084C27.3212 38.0556 26.3586 38.5478 25.3165 38.7146C19.4165 39.6459 19.2978 39.7084 18.2603 39.7084C12.1353 39.7084 12.3978 39.9084 8.7915 38.4584V29.7084L9.5665 28.7334C11.7853 25.9834 16.1728 25.6084 18.7915 29.0834H23.1665C23.8295 29.0834 24.4654 29.3467 24.9343 29.8156C25.4031 30.2844 25.6665 30.9203 25.6665 31.5834V33.4584L33.879 26.6959C34.1906 26.4394 34.5508 26.2487 34.9381 26.1353C35.3254 26.0219 35.7316 25.9881 36.1323 26.036C36.5329 26.0839 36.9197 26.2125 37.2694 26.414C37.619 26.6155 37.9242 26.8857 38.1665 27.2084V27.2084Z" fill="#F5F7FF"/>
<path d="M37.1478 26.3521L28.0665 35.4334C27.3212 36.1806 26.3586 36.6728 25.3165 36.8396C19.4165 37.7709 19.2978 37.8334 18.2603 37.8334C12.1353 37.8334 12.3978 38.0334 8.7915 36.5834V38.4584C10.4353 39.1209 11.6978 39.7084 13.8415 39.7084C20.229 39.7084 17.829 39.9021 25.3165 38.7146C26.3586 38.5478 27.3212 38.0556 28.0665 37.3084L38.1665 27.2084C37.8964 26.8492 37.548 26.5564 37.1478 26.3521V26.3521Z" fill="#CCD3EB"/>
<path d="M21.9165 13.4584C25.3683 13.4584 28.1665 10.6601 28.1665 7.20835C28.1665 3.75658 25.3683 0.958355 21.9165 0.958355C18.4647 0.958355 15.6665 3.75658 15.6665 7.20835C15.6665 10.6601 18.4647 13.4584 21.9165 13.4584Z" fill="#0074FF"/>
<path d="M21.9165 6.58335C21.7507 6.58335 21.5918 6.51751 21.4746 6.4003C21.3574 6.28309 21.2915 6.12412 21.2915 5.95835C21.2915 5.79259 21.3574 5.63362 21.4746 5.51641C21.5918 5.3992 21.7507 5.33335 21.9165 5.33335H23.1665C23.3323 5.33335 23.4912 5.26751 23.6084 5.1503C23.7257 5.03309 23.7915 4.87412 23.7915 4.70835C23.7915 4.54259 23.7257 4.38362 23.6084 4.26641C23.4912 4.1492 23.3323 4.08335 23.1665 4.08335H22.5415V3.45835C22.5415 3.29259 22.4757 3.13362 22.3584 3.01641C22.2412 2.8992 22.0823 2.83335 21.9165 2.83335C21.7507 2.83335 21.5918 2.8992 21.4746 3.01641C21.3574 3.13362 21.2915 3.29259 21.2915 3.45835V4.19585C20.8781 4.34584 20.5307 4.63634 20.3098 5.01656C20.0889 5.39679 20.0087 5.84255 20.0831 6.27592C20.1576 6.7093 20.382 7.10272 20.7171 7.38741C21.0523 7.6721 21.4768 7.82994 21.9165 7.83335C22.0823 7.83335 22.2412 7.8992 22.3584 8.01641C22.4757 8.13362 22.5415 8.29259 22.5415 8.45835C22.5415 8.62412 22.4757 8.78309 22.3584 8.9003C22.2412 9.01751 22.0823 9.08335 21.9165 9.08335H20.6665C20.5007 9.08335 20.3418 9.1492 20.2246 9.26641C20.1074 9.38362 20.0415 9.54259 20.0415 9.70835C20.0415 9.87412 20.1074 10.0331 20.2246 10.1503C20.3418 10.2675 20.5007 10.3334 20.6665 10.3334H21.2915V10.9584C21.2915 11.1241 21.3574 11.2831 21.4746 11.4003C21.5918 11.5175 21.7507 11.5834 21.9165 11.5834C22.0823 11.5834 22.2412 11.5175 22.3584 11.4003C22.4757 11.2831 22.5415 11.1241 22.5415 10.9584V10.2209C22.9549 10.0709 23.3024 9.78037 23.5232 9.40015C23.7441 9.01992 23.8243 8.57416 23.7499 8.14079C23.6754 7.70741 23.451 7.31399 23.1159 7.0293C22.7807 6.74461 22.3562 6.58677 21.9165 6.58335V6.58335Z" fill="#F5F7FF"/>
<path d="M24.679 15.9584H25.6665V16.3209C25.6665 17.0535 25.3755 17.7562 24.8574 18.2742C24.3393 18.7923 23.6367 19.0834 22.904 19.0834H21.9165V18.7209C21.9165 17.9882 22.2076 17.2855 22.7256 16.7675C23.2437 16.2494 23.9463 15.9584 24.679 15.9584Z" fill="#0074FF"/>
<path d="M21.9165 19.0834H20.929C20.1963 19.0834 19.4937 18.7923 18.9756 18.2742C18.4576 17.7562 18.1665 17.0535 18.1665 16.3209V15.9584H19.154C19.8867 15.9584 20.5893 16.2494 21.1074 16.7675C21.6255 17.2855 21.9165 17.9882 21.9165 18.7209V19.0834Z" fill="#0074FF"/>
<path d="M9.4165 22.2084C11.1424 22.2084 12.5415 20.8092 12.5415 19.0834C12.5415 17.3575 11.1424 15.9584 9.4165 15.9584C7.69061 15.9584 6.2915 17.3575 6.2915 19.0834C6.2915 20.8092 7.69061 22.2084 9.4165 22.2084Z" fill="#CCD3EB"/>
<path d="M35.6665 13.4584C37.3924 13.4584 38.7915 12.0592 38.7915 10.3334C38.7915 8.60747 37.3924 7.20835 35.6665 7.20835C33.9406 7.20835 32.5415 8.60747 32.5415 10.3334C32.5415 12.0592 33.9406 13.4584 35.6665 13.4584Z" fill="#CCD3EB"/>
<path d="M9.86037 9.2646C9.80227 9.20602 9.73314 9.15952 9.65698 9.12779C9.58082 9.09606 9.49913 9.07973 9.41662 9.07973C9.33411 9.07973 9.25242 9.09606 9.17626 9.12779C9.1001 9.15952 9.03097 9.20602 8.97287 9.2646L7.72287 10.5146C7.6646 10.5729 7.61837 10.6421 7.58683 10.7182C7.55529 10.7943 7.53906 10.8759 7.53906 10.9584C7.53906 11.0408 7.55529 11.1224 7.58683 11.1985C7.61837 11.2746 7.6646 11.3438 7.72287 11.4021C7.84056 11.5198 8.00018 11.5859 8.16662 11.5859C8.24903 11.5859 8.33064 11.5697 8.40678 11.5381C8.48291 11.5066 8.5521 11.4604 8.61037 11.4021L8.79162 11.2146V13.4584C8.79162 13.6241 8.85747 13.7831 8.97468 13.9003C9.09189 14.0175 9.25086 14.0834 9.41662 14.0834C9.58238 14.0834 9.74135 14.0175 9.85856 13.9003C9.97577 13.7831 10.0416 13.6241 10.0416 13.4584V11.2146L10.2229 11.4021C10.3406 11.5198 10.5002 11.5859 10.6666 11.5859C10.8331 11.5859 10.9927 11.5198 11.1104 11.4021C11.2281 11.2844 11.2942 11.1248 11.2942 10.9584C11.2942 10.7919 11.2281 10.6323 11.1104 10.5146L9.86037 9.2646Z" fill="#0074FF"/>
<path d="M37.3604 16.7646L36.1104 15.5146C36.0523 15.456 35.9831 15.4095 35.907 15.3778C35.8308 15.3461 35.7491 15.3297 35.6666 15.3297C35.5841 15.3297 35.5024 15.3461 35.4263 15.3778C35.3501 15.4095 35.281 15.456 35.2229 15.5146L33.9729 16.7646C33.8552 16.8823 33.7891 17.0419 33.7891 17.2084C33.7891 17.3748 33.8552 17.5344 33.9729 17.6521C34.0906 17.7698 34.2502 17.8359 34.4166 17.8359C34.5831 17.8359 34.7427 17.7698 34.8604 17.6521L35.0416 17.4646V19.7084C35.0416 19.8741 35.1075 20.0331 35.2247 20.1503C35.3419 20.2675 35.5009 20.3334 35.6666 20.3334C35.8324 20.3334 35.9914 20.2675 36.1086 20.1503C36.2258 20.0331 36.2916 19.8741 36.2916 19.7084V17.4646C36.5104 17.6834 36.6291 17.8334 36.9166 17.8334C37.0408 17.8341 37.1623 17.7978 37.2658 17.7292C37.3692 17.6606 37.4499 17.5627 37.4975 17.448C37.5451 17.3334 37.5575 17.2071 37.533 17.0854C37.5086 16.9637 37.4485 16.852 37.3604 16.7646V16.7646Z" fill="#0074FF"/>
<path d="M16.9165 39.0834H15.6665C15.5007 39.0834 15.3418 39.1492 15.2246 39.2664C15.1074 39.3836 15.0415 39.5426 15.0415 39.7084C15.0415 39.8741 15.1074 40.0331 15.2246 40.1503C15.3418 40.2675 15.5007 40.3334 15.6665 40.3334H16.9165C17.0823 40.3334 17.2412 40.2675 17.3584 40.1503C17.4757 40.0331 17.5415 39.8741 17.5415 39.7084C17.5415 39.5426 17.4757 39.3836 17.3584 39.2664C17.2412 39.1492 17.0823 39.0834 16.9165 39.0834Z" fill="#033C59"/>
<path d="M33.479 26.2146L31.7103 27.6771C31.3915 26.5787 30.7057 25.6228 29.7674 24.9688C28.8291 24.3148 27.6949 24.0023 26.554 24.0834C26.2187 23.2605 25.6702 22.5419 24.965 22.0014C24.2598 21.4609 23.4232 21.1182 22.5415 21.0084V19.7084H22.904C23.3489 19.7084 23.7894 19.6207 24.2003 19.4505C24.6113 19.2803 24.9848 19.0307 25.2993 18.7162C25.6139 18.4016 25.8634 18.0282 26.0336 17.6172C26.2039 17.2062 26.2915 16.7657 26.2915 16.3209V15.9584C26.2915 15.7926 26.2257 15.6336 26.1084 15.5164C25.9912 15.3992 25.8323 15.3334 25.6665 15.3334C24.4853 15.3334 23.579 15.2459 22.5415 16.0959V14.0834C24.0571 13.9446 25.4839 13.3068 26.5981 12.2699C27.7122 11.2331 28.4509 9.85588 28.6982 8.35413C28.9455 6.85238 28.6875 5.31102 27.9646 3.97167C27.2417 2.63232 26.0949 1.5707 24.7038 0.953224C23.3127 0.335751 21.756 0.197334 20.2778 0.559672C18.7996 0.922011 17.4834 1.76462 16.5356 2.95541C15.5877 4.1462 15.0618 5.61786 15.0402 7.13968C15.0187 8.6615 15.5027 10.1475 16.4165 11.3646C16.4658 11.4303 16.5274 11.4856 16.5981 11.5274C16.6687 11.5692 16.7469 11.5967 16.8281 11.6083C16.9094 11.6199 16.9921 11.6154 17.0716 11.595C17.1511 11.5747 17.2258 11.5388 17.2915 11.4896C17.3572 11.4404 17.4125 11.3787 17.4543 11.308C17.4961 11.2374 17.5236 11.1592 17.5352 11.078C17.5468 10.9967 17.5423 10.914 17.522 10.8345C17.5016 10.755 17.4658 10.6803 17.4165 10.6146C16.5969 9.52114 16.2034 8.1667 16.3094 6.80428C16.4155 5.44186 17.0139 4.16464 17.9929 3.2112C18.9718 2.25776 20.2644 1.6933 21.6292 1.62326C22.9939 1.55322 24.3375 1.9824 25.4089 2.83061C26.4803 3.67883 27.2064 4.88808 27.4513 6.23248C27.6963 7.57688 27.4435 8.96449 26.7401 10.1361C26.0368 11.3077 24.9309 12.1832 23.6292 12.5991C22.3275 13.0149 20.9189 12.9427 19.6665 12.3959C19.5907 12.3578 19.5079 12.3356 19.4232 12.3306C19.3385 12.3256 19.2536 12.3379 19.1738 12.3668C19.094 12.3956 19.021 12.4404 18.959 12.4984C18.8971 12.5564 18.8477 12.6264 18.8137 12.7042C18.7797 12.7819 18.7619 12.8658 18.7614 12.9506C18.7608 13.0355 18.7776 13.1195 18.8106 13.1977C18.8436 13.2759 18.8922 13.3465 18.9534 13.4053C19.0146 13.4641 19.0871 13.5098 19.1665 13.5396C19.8406 13.835 20.5584 14.0186 21.2915 14.0834V16.1271C20.2103 15.2084 19.179 15.3334 18.1665 15.3334C18.0007 15.3334 17.8418 15.3992 17.7246 15.5164C17.6074 15.6336 17.5415 15.7926 17.5415 15.9584V16.3209C17.5415 17.2193 17.8984 18.0809 18.5337 18.7162C19.169 19.3515 20.0306 19.7084 20.929 19.7084H21.2915V21.0084C20.4098 21.1182 19.5733 21.4609 18.868 22.0014C18.1628 22.5419 17.6143 23.2605 17.279 24.0834C16.4496 24.0277 15.6194 24.1783 14.8625 24.5219C14.1056 24.8654 13.4456 25.3912 12.9415 26.0521C11.5947 26.2797 10.358 26.9375 9.4165 27.9271V27.2084C9.4165 26.7111 9.21896 26.2342 8.86733 25.8825C8.5157 25.5309 8.03879 25.3334 7.5415 25.3334H3.7915C3.29422 25.3334 2.81731 25.5309 2.46568 25.8825C2.11405 26.2342 1.9165 26.7111 1.9165 27.2084V38.4584C1.9165 38.9556 2.11405 39.4325 2.46568 39.7842C2.81731 40.1358 3.29422 40.3334 3.7915 40.3334H7.5415C7.88841 40.3317 8.22806 40.2339 8.52267 40.0507C8.81729 39.8675 9.05531 39.6062 9.21025 39.2959C10.442 39.8726 11.7671 40.2239 13.1228 40.3334C13.2084 40.3394 13.2944 40.3277 13.3754 40.2989C13.4563 40.2702 13.5305 40.2252 13.5933 40.1665C13.656 40.1079 13.706 40.0369 13.7401 39.9581C13.7742 39.8793 13.7917 39.7942 13.7915 39.7084C13.7919 39.5499 13.7321 39.3972 13.6242 39.2812C13.5163 39.1652 13.3683 39.0944 13.2103 39.0834C11.8927 38.9653 10.6073 38.6095 9.4165 38.0334V29.9084L10.0415 29.1084C10.5428 28.4819 11.1843 27.982 11.9143 27.6491C12.6443 27.3162 13.4423 27.1595 14.244 27.1917C15.0457 27.224 15.8285 27.4442 16.5295 27.8347C17.2304 28.2251 17.8297 28.7749 18.279 29.4396C18.3372 29.5172 18.4127 29.5802 18.4995 29.6236C18.5863 29.667 18.682 29.6896 18.779 29.6896H23.154C23.6513 29.6896 24.1282 29.8871 24.4798 30.2388C24.8315 30.5904 25.029 31.0673 25.029 31.5646V32.8146H19.4165C19.2507 32.8146 19.0918 32.8805 18.9746 32.9977C18.8574 33.1149 18.7915 33.2738 18.7915 33.4396C18.7915 33.6054 18.8574 33.7643 18.9746 33.8815C19.0918 33.9988 19.2507 34.0646 19.4165 34.0646H25.6665C25.9853 34.0646 25.2978 34.5521 34.279 27.1896C34.7026 26.8362 35.2367 26.6427 35.7884 26.6427C36.34 26.6427 36.8742 26.8362 37.2978 27.1896L27.6228 36.8709C26.9751 37.5343 26.1317 37.9725 25.2165 38.1209C19.9353 38.9584 19.654 39.0084 19.3478 39.0459C19.182 39.055 19.0266 39.1296 18.9159 39.2532C18.8051 39.3769 18.748 39.5395 18.7571 39.7052C18.7662 39.871 18.8408 40.0263 18.9645 40.1371C19.0882 40.2479 19.2507 40.305 19.4165 40.2959C19.5728 40.2959 19.7228 40.2959 25.4103 39.3584C26.5827 39.1756 27.6664 38.6239 28.504 37.7834L38.6103 27.6521C38.7168 27.5454 38.7813 27.4037 38.7916 27.2533C38.8019 27.1028 38.7575 26.9536 38.6665 26.8334C38.374 26.4421 38.005 26.1143 37.5819 25.87C37.1588 25.6256 36.6905 25.4698 36.2054 25.4119C35.7203 25.3541 35.2285 25.3954 34.7598 25.5334C34.2911 25.6713 33.8554 25.9031 33.479 26.2146V26.2146ZM7.5415 39.0834H3.7915C3.62574 39.0834 3.46677 39.0175 3.34956 38.9003C3.23235 38.7831 3.1665 38.6241 3.1665 38.4584V27.2084C3.1665 27.0426 3.23235 26.8836 3.34956 26.7664C3.46677 26.6492 3.62574 26.5834 3.7915 26.5834H7.5415C7.70726 26.5834 7.86624 26.6492 7.98345 26.7664C8.10066 26.8836 8.1665 27.0426 8.1665 27.2084V38.4584C8.1665 38.6241 8.10066 38.7831 7.98345 38.9003C7.86624 39.0175 7.70726 39.0834 7.5415 39.0834ZM24.679 16.5834H25.0415C24.9788 17.1009 24.7286 17.5776 24.3381 17.9231C23.9477 18.2687 23.4441 18.4591 22.9228 18.4584H22.5415C22.6046 17.9375 22.8575 17.4583 23.2519 17.1123C23.6463 16.7663 24.1544 16.578 24.679 16.5834V16.5834ZM20.929 18.4584C20.4044 18.4637 19.8963 18.2754 19.5019 17.9294C19.1075 17.5834 18.8546 17.1042 18.7915 16.5834H19.1353C19.6631 16.5733 20.1758 16.7596 20.5742 17.106C20.9725 17.4524 21.2281 17.9343 21.2915 18.4584H20.929ZM23.1665 28.4584H19.104C18.5828 27.7818 17.9317 27.2161 17.1891 26.7943C16.4464 26.3725 15.6271 26.1032 14.779 26.0021C15.1827 25.7185 15.6383 25.5172 16.1199 25.41C16.6014 25.3027 17.0994 25.2916 17.5853 25.3771C17.7397 25.4062 17.8994 25.376 18.0326 25.2926C18.1658 25.2093 18.2627 25.0787 18.304 24.9271C18.5238 24.138 18.996 23.4425 19.6483 22.947C20.3007 22.4515 21.0973 22.1833 21.9165 22.1833C22.7357 22.1833 23.5323 22.4515 24.1847 22.947C24.8371 23.4425 25.3092 24.138 25.529 24.9271C25.5703 25.0787 25.6672 25.2093 25.8004 25.2926C25.9336 25.376 26.0933 25.4062 26.2478 25.3771C26.7442 25.2881 27.2534 25.3002 27.745 25.4126C28.2367 25.525 28.7006 25.7354 29.109 26.0312C29.5175 26.327 29.862 26.7022 30.1221 27.1343C30.3822 27.5664 30.5525 28.0465 30.6228 28.5459L26.2915 32.1334V31.5834C26.2915 31.173 26.2107 30.7666 26.0536 30.3875C25.8966 30.0083 25.6664 29.6638 25.3762 29.3736C25.086 29.0835 24.7415 28.8533 24.3624 28.6962C23.9832 28.5392 23.5769 28.4584 23.1665 28.4584Z" fill="#033C59"/>
<path d="M6.2915 35.9584C6.16789 35.9584 6.04705 35.995 5.94427 36.0637C5.84149 36.1324 5.76138 36.23 5.71408 36.3442C5.66677 36.4584 5.6544 36.5841 5.67851 36.7053C5.70263 36.8265 5.76215 36.9379 5.84956 37.0253C5.93697 37.1127 6.04833 37.1722 6.16957 37.1963C6.29081 37.2205 6.41648 37.2081 6.53068 37.1608C6.64489 37.1135 6.7425 37.0334 6.81117 36.9306C6.87985 36.8278 6.9165 36.707 6.9165 36.5834C6.9165 36.4176 6.85066 36.2586 6.73345 36.1414C6.61624 36.0242 6.45726 35.9584 6.2915 35.9584Z" fill="#033C59"/>
<path d="M9.4165 22.8334C10.1582 22.8334 10.8832 22.6134 11.4999 22.2014C12.1166 21.7893 12.5972 21.2036 12.8811 20.5184C13.1649 19.8332 13.2391 19.0792 13.0944 18.3518C12.9498 17.6243 12.5926 16.9561 12.0682 16.4317C11.5437 15.9073 10.8755 15.5501 10.1481 15.4054C9.42066 15.2607 8.66666 15.335 7.98144 15.6188C7.29622 15.9026 6.71055 16.3833 6.29849 17C5.88644 17.6166 5.6665 18.3417 5.6665 19.0834C5.6665 20.0779 6.06159 21.0317 6.76485 21.735C7.46812 22.4383 8.42194 22.8334 9.4165 22.8334V22.8334ZM9.4165 16.5834C9.91096 16.5834 10.3943 16.73 10.8054 17.0047C11.2166 17.2794 11.537 17.6698 11.7262 18.1266C11.9154 18.5835 11.9649 19.0861 11.8685 19.5711C11.772 20.056 11.5339 20.5015 11.1843 20.8511C10.8346 21.2008 10.3892 21.4389 9.90423 21.5353C9.41928 21.6318 8.91661 21.5823 8.4598 21.3931C8.00298 21.2038 7.61253 20.8834 7.33783 20.4723C7.06313 20.0612 6.9165 19.5778 6.9165 19.0834C6.9165 18.4203 7.1799 17.7844 7.64874 17.3156C8.11758 16.8467 8.75346 16.5834 9.4165 16.5834V16.5834Z" fill="#033C59"/>
<path d="M9.4165 20.3334C9.66373 20.3334 9.90541 20.26 10.111 20.1227C10.3165 19.9853 10.4767 19.7901 10.5714 19.5617C10.666 19.3333 10.6907 19.082 10.6425 18.8395C10.5943 18.597 10.4752 18.3743 10.3004 18.1995C10.1256 18.0247 9.90284 17.9056 9.66037 17.8574C9.41789 17.8091 9.16656 17.8339 8.93815 17.9285C8.70974 18.0231 8.51452 18.1833 8.37717 18.3889C8.23982 18.5945 8.1665 18.8361 8.1665 19.0834C8.1665 19.4149 8.2982 19.7328 8.53262 19.9672C8.76704 20.2017 9.08498 20.3334 9.4165 20.3334Z" fill="#96A1C3"/>
<path d="M35.6665 14.0834C36.4082 14.0834 37.1332 13.8634 37.7499 13.4514C38.3666 13.0393 38.8472 12.4536 39.1311 11.7684C39.4149 11.0832 39.4891 10.3292 39.3444 9.60176C39.1998 8.87434 38.8426 8.20615 38.3182 7.6817C37.7937 7.15726 37.1255 6.8001 36.3981 6.65541C35.6707 6.51071 34.9167 6.58498 34.2314 6.8688C33.5462 7.15263 32.9605 7.63328 32.5485 8.24996C32.1364 8.86665 31.9165 9.59167 31.9165 10.3334C31.9165 11.3279 32.3116 12.2817 33.0149 12.985C33.7181 13.6883 34.6719 14.0834 35.6665 14.0834V14.0834ZM35.6665 7.83335C36.161 7.83335 36.6443 7.97998 37.0554 8.25468C37.4666 8.52938 37.787 8.91983 37.9762 9.37664C38.1654 9.83346 38.2149 10.3361 38.1185 10.8211C38.022 11.306 37.7839 11.7515 37.4343 12.1011C37.0846 12.4508 36.6392 12.6889 36.1542 12.7853C35.6693 12.8818 35.1666 12.8323 34.7098 12.6431C34.253 12.4538 33.8625 12.1334 33.5878 11.7223C33.3131 11.3112 33.1665 10.8278 33.1665 10.3334C33.1665 9.67031 33.4299 9.03443 33.8987 8.56559C34.3676 8.09674 35.0035 7.83335 35.6665 7.83335V7.83335Z" fill="#033C59"/>
<path d="M35.6665 11.5834C35.9137 11.5834 36.1554 11.51 36.361 11.3727C36.5665 11.2353 36.7267 11.0401 36.8214 10.8117C36.916 10.5833 36.9407 10.332 36.8925 10.0895C36.8443 9.84701 36.7252 9.62428 36.5504 9.44947C36.3756 9.27465 36.1528 9.1556 35.9104 9.10737C35.6679 9.05914 35.4166 9.08389 35.1882 9.1785C34.9597 9.27311 34.7645 9.43333 34.6272 9.63889C34.4898 9.84445 34.4165 10.0861 34.4165 10.3334C34.4165 10.6649 34.5482 10.9828 34.7826 11.2172C35.017 11.4517 35.335 11.5834 35.6665 11.5834Z" fill="#96A1C3"/>
<path d="M23.1665 24.0834C23.0429 24.0834 22.9221 24.12 22.8193 24.1887C22.7165 24.2574 22.6364 24.355 22.5891 24.4692C22.5418 24.5834 22.5294 24.709 22.5535 24.8303C22.5776 24.9515 22.6372 25.0629 22.7246 25.1503C22.812 25.2377 22.9233 25.2972 23.0446 25.3213C23.1658 25.3455 23.2915 25.3331 23.4057 25.2858C23.5199 25.2385 23.6175 25.1584 23.6862 25.0556C23.7548 24.9528 23.7915 24.832 23.7915 24.7084C23.7915 24.5426 23.7257 24.3836 23.6084 24.2664C23.4912 24.1492 23.3323 24.0834 23.1665 24.0834Z" fill="#033C59"/>
<path d="M20.0415 25.9584C19.9179 25.9584 19.7971 25.995 19.6943 26.0637C19.5915 26.1324 19.5114 26.23 19.4641 26.3442C19.4168 26.4584 19.4044 26.584 19.4285 26.7053C19.4526 26.8265 19.5122 26.9379 19.5996 27.0253C19.687 27.1127 19.7983 27.1722 19.9196 27.1963C20.0408 27.2205 20.1665 27.2081 20.2807 27.1608C20.3949 27.1135 20.4925 27.0334 20.5612 26.9306C20.6298 26.8278 20.6665 26.707 20.6665 26.5834C20.6665 26.4176 20.6007 26.2586 20.4834 26.1414C20.3662 26.0242 20.2073 25.9584 20.0415 25.9584Z" fill="#033C59"/>
<path d="M30.6665 22.8334H29.4165C29.2507 22.8334 29.0918 22.7675 28.9746 22.6503C28.8574 22.5331 28.7915 22.3741 28.7915 22.2084C28.7915 22.0426 28.8574 21.8836 28.9746 21.7664C29.0918 21.6492 29.2507 21.5834 29.4165 21.5834H30.6665C30.8323 21.5834 30.9912 21.6492 31.1084 21.7664C31.2257 21.8836 31.2915 22.0426 31.2915 22.2084C31.2915 22.3741 31.2257 22.5331 31.1084 22.6503C30.9912 22.7675 30.8323 22.8334 30.6665 22.8334Z" fill="#96A1C3"/>
<path d="M30.6665 20.3334H29.4165C29.2507 20.3334 29.0918 20.2675 28.9746 20.1503C28.8574 20.0331 28.7915 19.8741 28.7915 19.7084C28.7915 19.5426 28.8574 19.3836 28.9746 19.2664C29.0918 19.1492 29.2507 19.0834 29.4165 19.0834H30.6665C30.8323 19.0834 30.9912 19.1492 31.1084 19.2664C31.2257 19.3836 31.2915 19.5426 31.2915 19.7084C31.2915 19.8741 31.2257 20.0331 31.1084 20.1503C30.9912 20.2675 30.8323 20.3334 30.6665 20.3334Z" fill="#96A1C3"/>
</g>
<defs>
<clipPath id="clip0_754_83329">
<rect width="40" height="40" fill="white" transform="translate(0.666504 0.333355)"/>
</clipPath>
</defs>
</svg>
