<svg width="80" height="80" viewBox="0 0 80 80" fill="none" xmlns="http://www.w3.org/2000/svg">
<path d="M39.9999 76.3637C60.083 76.3637 76.3635 60.0831 76.3635 40.0001C76.3635 19.917 60.083 3.63641 39.9999 3.63641C19.9168 3.63641 3.63623 19.917 3.63623 40.0001C3.63623 60.0831 19.9168 76.3637 39.9999 76.3637Z" fill="#E7EFFF"/>
<path d="M21.091 5.09093C22.296 5.09093 23.2728 4.1141 23.2728 2.90911C23.2728 1.70413 22.296 0.727295 21.091 0.727295C19.886 0.727295 18.9092 1.70413 18.9092 2.90911C18.9092 4.1141 19.886 5.09093 21.091 5.09093Z" fill="#FFA100"/>
<path d="M7.99969 42.1818C9.20467 42.1818 10.1815 41.205 10.1815 40C10.1815 38.795 9.20467 37.8182 7.99969 37.8182C6.7947 37.8182 5.81787 38.795 5.81787 40C5.81787 41.205 6.7947 42.1818 7.99969 42.1818Z" fill="#00C99F"/>
<path d="M71.9997 42.1818C73.2047 42.1818 74.1815 41.205 74.1815 40C74.1815 38.795 73.2047 37.8182 71.9997 37.8182C70.7947 37.8182 69.8179 38.795 69.8179 40C69.8179 41.205 70.7947 42.1818 71.9997 42.1818Z" fill="#00C99F"/>
<path d="M58.9089 79.2728C60.1139 79.2728 61.0907 78.2959 61.0907 77.0909C61.0907 75.886 60.1139 74.9091 58.9089 74.9091C57.7039 74.9091 56.7271 75.886 56.7271 77.0909C56.7271 78.2959 57.7039 79.2728 58.9089 79.2728Z" fill="#FF4D69"/>
<path d="M68.3635 12.3636H11.6362C10.8329 12.3636 10.1816 13.0149 10.1816 13.8182V16.7273C10.1816 17.5306 10.8329 18.1818 11.6362 18.1818H68.3635C69.1668 18.1818 69.818 17.5306 69.818 16.7273V13.8182C69.818 13.0149 69.1668 12.3636 68.3635 12.3636Z" fill="#4E6AFF"/>
<path d="M11.6362 18.1819H68.3635V19.6364C68.3635 20.0222 68.2103 20.3921 67.9375 20.6649C67.6647 20.9377 67.2947 21.0909 66.909 21.0909H13.0908C12.705 21.0909 12.335 20.9377 12.0623 20.6649C11.7895 20.3921 11.6362 20.0222 11.6362 19.6364V18.1819Z" fill="#323FD4"/>
<path d="M66.1815 21.0909H13.8179V63.2728H66.1815V21.0909Z" fill="white"/>
<path d="M40.7272 68.4655V66.1818H39.2726V68.4655C38.5871 68.6425 37.9896 69.0634 37.5922 69.6495C37.1948 70.2355 37.0248 70.9463 37.114 71.6487C37.2032 72.3511 37.5456 72.9969 38.0768 73.465C38.6081 73.933 39.2919 74.1913 39.9999 74.1913C40.708 74.1913 41.3917 73.933 41.923 73.465C42.4543 72.9969 42.7966 72.3511 42.8858 71.6487C42.975 70.9463 42.805 70.2355 42.4076 69.6495C42.0102 69.0634 41.4128 68.6425 40.7272 68.4655ZM39.9999 72.7273C39.7122 72.7273 39.431 72.642 39.1918 72.4821C38.9526 72.3223 38.7662 72.0951 38.6561 71.8294C38.546 71.5636 38.5172 71.2711 38.5733 70.989C38.6294 70.7068 38.768 70.4476 38.9714 70.2442C39.1748 70.0408 39.434 69.9023 39.7162 69.8461C39.9983 69.79 40.2908 69.8188 40.5565 69.9289C40.8223 70.039 41.0495 70.2254 41.2093 70.4646C41.3692 70.7038 41.4545 70.9851 41.4545 71.2727C41.4545 71.6585 41.3012 72.0285 41.0284 72.3013C40.7557 72.574 40.3857 72.7273 39.9999 72.7273Z" fill="#323FD4"/>
<path d="M29.8183 12.3637H26.9092V10.9091C26.9092 10.5234 27.0624 10.1534 27.3352 9.88062C27.608 9.60784 27.978 9.45459 28.3637 9.45459C28.7495 9.45459 29.1195 9.60784 29.3922 9.88062C29.665 10.1534 29.8183 10.5234 29.8183 10.9091V12.3637Z" fill="#323FD4"/>
<path d="M53.0907 12.3637H50.1816V10.9091C50.1816 10.5234 50.3349 10.1534 50.6077 9.88062C50.8804 9.60784 51.2504 9.45459 51.6362 9.45459C52.022 9.45459 52.3919 9.60784 52.6647 9.88062C52.9375 10.1534 53.0907 10.5234 53.0907 10.9091V12.3637Z" fill="#323FD4"/>
<path d="M29.8182 54.5455C36.6465 54.5455 42.1819 49.0101 42.1819 42.1818C42.1819 35.3536 36.6465 29.8182 29.8182 29.8182C22.99 29.8182 17.4546 35.3536 17.4546 42.1818C17.4546 49.0101 22.99 54.5455 29.8182 54.5455Z" fill="#FFA100"/>
<path d="M42.1815 42.1818H29.8179V29.8182C33.0969 29.8182 36.2417 31.1208 38.5603 33.4394C40.8789 35.7581 42.1815 38.9028 42.1815 42.1818Z" fill="#FF4D69"/>
<path d="M61.8182 36.3637H48.7273C48.5344 36.3637 48.3494 36.287 48.213 36.1507C48.0766 36.0143 48 35.8293 48 35.6364C48 35.4435 48.0766 35.2585 48.213 35.1221C48.3494 34.9857 48.5344 34.9091 48.7273 34.9091H61.8182C62.0111 34.9091 62.1961 34.9857 62.3324 35.1221C62.4688 35.2585 62.5455 35.4435 62.5455 35.6364C62.5455 35.8293 62.4688 36.0143 62.3324 36.1507C62.1961 36.287 62.0111 36.3637 61.8182 36.3637Z" fill="#7F96D1"/>
<path d="M61.8182 40.7273H48.7273C48.5344 40.7273 48.3494 40.6507 48.213 40.5143C48.0766 40.3779 48 40.1929 48 40C48 39.8072 48.0766 39.6222 48.213 39.4858C48.3494 39.3494 48.5344 39.2728 48.7273 39.2728H61.8182C62.0111 39.2728 62.1961 39.3494 62.3324 39.4858C62.4688 39.6222 62.5455 39.8072 62.5455 40C62.5455 40.1929 62.4688 40.3779 62.3324 40.5143C62.1961 40.6507 62.0111 40.7273 61.8182 40.7273Z" fill="#7F96D1"/>
<path d="M61.8182 45.0909H48.7273C48.5344 45.0909 48.3494 45.0143 48.213 44.8779C48.0766 44.7415 48 44.5565 48 44.3637C48 44.1708 48.0766 43.9858 48.213 43.8494C48.3494 43.713 48.5344 43.6364 48.7273 43.6364H61.8182C62.0111 43.6364 62.1961 43.713 62.3324 43.8494C62.4688 43.9858 62.5455 44.1708 62.5455 44.3637C62.5455 44.5565 62.4688 44.7415 62.3324 44.8779C62.1961 45.0143 62.0111 45.0909 61.8182 45.0909Z" fill="#7F96D1"/>
<path d="M61.8182 49.4546H48.7273C48.5344 49.4546 48.3494 49.378 48.213 49.2416C48.0766 49.1052 48 48.9202 48 48.7273C48 48.5344 48.0766 48.3494 48.213 48.213C48.3494 48.0767 48.5344 48 48.7273 48H61.8182C62.0111 48 62.1961 48.0767 62.3324 48.213C62.4688 48.3494 62.5455 48.5344 62.5455 48.7273C62.5455 48.9202 62.4688 49.1052 62.3324 49.2416C62.1961 49.378 62.0111 49.4546 61.8182 49.4546Z" fill="#7F96D1"/>
<path d="M34.9091 34.9091C34.7708 34.9094 34.6353 34.8701 34.5185 34.7961C34.4017 34.722 34.3084 34.6161 34.2496 34.4909C34.1908 34.3657 34.169 34.2264 34.1866 34.0892C34.2042 33.952 34.2606 33.8227 34.3491 33.7164L37.5491 29.8764C37.7543 29.6301 38.0111 29.432 38.3015 29.2963C38.5919 29.1605 38.9086 29.0904 39.2291 29.0909H42.9091C43.102 29.0909 43.287 29.1676 43.4234 29.304C43.5598 29.4403 43.6364 29.6253 43.6364 29.8182C43.6364 30.0111 43.5598 30.1961 43.4234 30.3325C43.287 30.4689 43.102 30.5455 42.9091 30.5455H39.2291C39.1223 30.5453 39.0167 30.5687 38.9199 30.6139C38.8231 30.6592 38.7375 30.7252 38.6691 30.8073L35.4691 34.6473C35.4007 34.7294 35.3151 34.7954 35.2183 34.8407C35.1215 34.8859 35.016 34.9093 34.9091 34.9091V34.9091Z" fill="#A5BCED"/>
<path d="M42.9088 27.6364H38.5451C38.3523 27.6364 38.1673 27.5598 38.0309 27.4234C37.8945 27.287 37.8179 27.102 37.8179 26.9091C37.8179 26.7162 37.8945 26.5313 38.0309 26.3949C38.1673 26.2585 38.3523 26.1819 38.5451 26.1819H42.9088C43.1017 26.1819 43.2866 26.2585 43.423 26.3949C43.5594 26.5313 43.6361 26.7162 43.6361 26.9091C43.6361 27.102 43.5594 27.287 43.423 27.4234C43.2866 27.5598 43.1017 27.6364 42.9088 27.6364Z" fill="#A5BCED"/>
<path d="M21.8619 55.2728H18.1819C17.989 55.2728 17.804 55.1961 17.6676 55.0598C17.5312 54.9234 17.4546 54.7384 17.4546 54.5455C17.4546 54.3526 17.5312 54.1676 17.6676 54.0312C17.804 53.8948 17.989 53.8182 18.1819 53.8182H21.8619C21.9687 53.8184 22.0743 53.795 22.1711 53.7498C22.2679 53.7045 22.3535 53.6385 22.4219 53.5564L25.6219 49.7164C25.7453 49.5679 25.9227 49.4745 26.115 49.4568C26.3073 49.439 26.4988 49.4984 26.6473 49.6219C26.7958 49.7453 26.8892 49.9227 26.907 50.115C26.9247 50.3073 26.8653 50.4988 26.7419 50.6473L23.5419 54.4873C23.3367 54.7336 23.0798 54.9317 22.7895 55.0674C22.4991 55.2032 22.1824 55.2733 21.8619 55.2728Z" fill="#A5BCED"/>
<path d="M22.5455 58.1818H18.1819C17.989 58.1818 17.804 58.1052 17.6676 57.9688C17.5312 57.8324 17.4546 57.6475 17.4546 57.4546C17.4546 57.2617 17.5312 57.0767 17.6676 56.9403C17.804 56.8039 17.989 56.7273 18.1819 56.7273H22.5455C22.7384 56.7273 22.9234 56.8039 23.0598 56.9403C23.1961 57.0767 23.2728 57.2617 23.2728 57.4546C23.2728 57.6475 23.1961 57.8324 23.0598 57.9688C22.9234 58.1052 22.7384 58.1818 22.5455 58.1818Z" fill="#A5BCED"/>
<path d="M67.3889 63.9127C66.7053 64.7273 65.978 65.4546 65.2216 66.1818H14.778C14.0507 65.4546 13.3235 64.7273 12.5962 63.9127C12.731 63.7133 12.9132 63.5504 13.1264 63.4387C13.3397 63.327 13.5773 63.27 13.818 63.2727H66.1816C66.4199 63.2724 66.6546 63.3306 66.8651 63.4422C67.0756 63.5537 67.2555 63.7153 67.3889 63.9127Z" fill="#323FD4"/>
</svg>
