<svg width="41" height="40" viewBox="0 0 41 40" fill="none" xmlns="http://www.w3.org/2000/svg">
<g clip-path="url(#clip0_754_83278)">
<path d="M32.5415 5.62502V25H6.2915V1.87502C6.2915 1.54349 6.4232 1.22555 6.65762 0.991132C6.89204 0.756711 7.20998 0.625015 7.5415 0.625015H27.5415L32.5415 5.62502Z" fill="#F5F7FF"/>
<path d="M21.6415 17.5H21.0165L19.6353 15.4313C19.2929 14.916 18.8285 14.4934 18.2832 14.2011C17.738 13.9089 17.1289 13.756 16.5103 13.7563H6.2915V25H32.5415V10.8125C30.2156 10.3405 27.7972 10.7682 25.7743 12.0093C23.7514 13.2505 22.2744 15.2127 21.6415 17.5Z" fill="#CCD3EB"/>
<path d="M35.6665 21.25V37.5C35.6665 37.9973 35.469 38.4742 35.1173 38.8258C34.7657 39.1775 34.2888 39.375 33.7915 39.375H5.0415C4.54422 39.375 4.06731 39.1775 3.71568 38.8258C3.36405 38.4742 3.1665 37.9973 3.1665 37.5V17.5C3.1665 17.0027 3.36405 16.5258 3.71568 16.1742C4.06731 15.8226 4.54422 15.625 5.0415 15.625H16.5353C16.8446 15.6249 17.1491 15.7013 17.4217 15.8474C17.6944 15.9936 17.9266 16.2049 18.0978 16.4625L19.4853 18.5375C19.6564 18.7952 19.8886 19.0065 20.1613 19.1526C20.4339 19.2987 20.7384 19.3751 21.0478 19.375H33.7915C34.2888 19.375 34.7657 19.5726 35.1173 19.9242C35.469 20.2758 35.6665 20.7527 35.6665 21.25V21.25Z" fill="#CCD3EB"/>
<path d="M35.6666 21.25V27.925C34.1723 28.8751 32.4374 29.3782 30.6666 29.375C29.3811 29.3779 28.1087 29.1163 26.9285 28.6066C25.7483 28.0968 24.6856 27.3498 23.8063 26.412C22.9271 25.4741 22.2501 24.3655 21.8175 23.1549C21.3849 21.9443 21.2059 20.6577 21.2916 19.375H33.7916C34.2889 19.375 34.7658 19.5726 35.1174 19.9242C35.4691 20.2758 35.6666 20.7527 35.6666 21.25V21.25Z" fill="#96A1C3"/>
<path d="M33.7915 37.5H5.0415C4.54422 37.5 4.06731 37.3025 3.71568 36.9508C3.36405 36.5992 3.1665 36.1223 3.1665 35.625V37.5C3.1665 37.9973 3.36405 38.4742 3.71568 38.8258C4.06731 39.1775 4.54422 39.375 5.0415 39.375H33.7915C34.2888 39.375 34.7657 39.1775 35.1173 38.8258C35.469 38.4742 35.6665 37.9973 35.6665 37.5V35.625C35.6665 36.1223 35.469 36.5992 35.1173 36.9508C34.7657 37.3025 34.2888 37.5 33.7915 37.5V37.5Z" fill="#96A1C3"/>
<path d="M30.6665 27.5C34.8086 27.5 38.1665 24.1422 38.1665 20C38.1665 15.8579 34.8086 12.5 30.6665 12.5C26.5244 12.5 23.1665 15.8579 23.1665 20C23.1665 24.1422 26.5244 27.5 30.6665 27.5Z" fill="#CCD3EB"/>
<path d="M30.6665 25.625C28.8404 25.6241 27.0773 24.957 25.708 23.7488C24.3387 22.5406 23.4573 20.8743 23.229 19.0625C23.0916 20.1201 23.1814 21.1949 23.4923 22.2151C23.8032 23.2353 24.3281 24.1774 25.0319 24.9787C25.7358 25.7799 26.6025 26.4218 27.5741 26.8615C28.5458 27.3013 29.6 27.5287 30.6665 27.5287C31.733 27.5287 32.7873 27.3013 33.7589 26.8615C34.7305 26.4218 35.5972 25.7799 36.3011 24.9787C37.005 24.1774 37.5299 23.2353 37.8408 22.2151C38.1517 21.1949 38.2414 20.1201 38.104 19.0625C37.8757 20.8743 36.9943 22.5406 35.625 23.7488C34.2557 24.957 32.4926 25.6241 30.6665 25.625V25.625Z" fill="#96A1C3"/>
<path d="M33.1665 21.25H28.1665V23.75H33.1665V21.25Z" fill="#F5F7FF"/>
<path d="M33.7915 19.375L31.9165 21.25H29.4165L27.5415 19.375C28.8189 18.1003 29.875 16.6217 30.6665 15C31.458 16.6217 32.5141 18.1003 33.7915 19.375V19.375Z" fill="#0074FF"/>
<path d="M32.5415 23.75V27.2625C31.3114 27.5782 30.0216 27.5782 28.7915 27.2625V23.75H32.5415Z" fill="#96A1C3"/>
<path d="M28.7915 25.3875V27.2625C30.0216 27.5782 31.3114 27.5782 32.5415 27.2625V25.3875C31.3114 25.7032 30.0216 25.7032 28.7915 25.3875V25.3875Z" fill="#647499"/>
<path d="M32.5415 5.62502H27.5415V0.625015L32.5415 5.62502Z" fill="#0074FF"/>
<path d="M38.7915 20C38.7769 17.9638 37.9982 16.0074 36.6097 14.518C35.2212 13.0286 33.3241 12.1149 31.294 11.9577C29.2638 11.8005 27.2486 12.4113 25.6474 13.6692C24.0462 14.9271 22.9757 16.7404 22.6478 18.75H21.0478C20.8408 18.75 20.6371 18.6986 20.4549 18.6004C20.2728 18.5022 20.1178 18.3603 20.004 18.1875L18.6165 16.1188C18.3887 15.7751 18.0795 15.4932 17.7164 15.298C17.3533 15.1028 16.9475 15.0004 16.5353 15H6.9165V1.87502C6.9165 1.70926 6.98235 1.55029 7.09956 1.43308C7.21677 1.31587 7.37574 1.25002 7.5415 1.25002H26.9165V5.62502C26.9165 5.79078 26.9824 5.94975 27.0996 6.06696C27.2168 6.18417 27.3757 6.25002 27.5415 6.25002H31.9165V10C31.9165 10.1658 31.9824 10.3248 32.0996 10.442C32.2168 10.5592 32.3757 10.625 32.5415 10.625C32.7073 10.625 32.8662 10.5592 32.9834 10.442C33.1007 10.3248 33.1665 10.1658 33.1665 10V5.62502C33.167 5.54276 33.1512 5.46123 33.1201 5.38508C33.089 5.30893 33.0432 5.23967 32.9853 5.18127L27.9853 0.181268C27.9269 0.123342 27.8576 0.0775139 27.7814 0.0464111C27.7053 0.0153082 27.6238 -0.000457482 27.5415 1.80758e-05H7.5415C7.04422 1.80758e-05 6.56731 0.197562 6.21568 0.549193C5.86405 0.900824 5.6665 1.37774 5.6665 1.87502V15H5.0415C4.37846 15 3.74258 15.2634 3.27374 15.7323C2.8049 16.2011 2.5415 16.837 2.5415 17.5V37.5C2.5415 38.1631 2.8049 38.7989 3.27374 39.2678C3.74258 39.7366 4.37846 40 5.0415 40H6.9165C7.08226 40 7.24124 39.9342 7.35845 39.817C7.47566 39.6997 7.5415 39.5408 7.5415 39.375C7.5415 39.2093 7.47566 39.0503 7.35845 38.9331C7.24124 38.8159 7.08226 38.75 6.9165 38.75H5.0415C4.70998 38.75 4.39204 38.6183 4.15762 38.3839C3.9232 38.1495 3.7915 37.8315 3.7915 37.5V17.5C3.7915 17.1685 3.9232 16.8506 4.15762 16.6161C4.39204 16.3817 4.70998 16.25 5.0415 16.25H16.5353C16.7422 16.2501 16.9459 16.3015 17.1281 16.3996C17.3102 16.4978 17.4652 16.6397 17.579 16.8125L18.9665 18.8813C19.1943 19.2249 19.5035 19.5069 19.8666 19.702C20.2297 19.8972 20.6355 19.9996 21.0478 20H22.5415C22.5431 21.4565 22.9362 22.8858 23.6797 24.1382C24.4231 25.3907 25.4895 26.4203 26.7673 27.1193C28.0451 27.8182 29.4874 28.1608 30.943 28.1113C32.3986 28.0617 33.8142 27.6218 35.0415 26.8375V37.5C35.0415 37.8315 34.9098 38.1495 34.6754 38.3839C34.441 38.6183 34.123 38.75 33.7915 38.75H13.1665C13.0007 38.75 12.8418 38.8159 12.7246 38.9331C12.6074 39.0503 12.5415 39.2093 12.5415 39.375C12.5415 39.5408 12.6074 39.6997 12.7246 39.817C12.8418 39.9342 13.0007 40 13.1665 40H33.7915C34.4545 40 35.0904 39.7366 35.5593 39.2678C36.0281 38.7989 36.2915 38.1631 36.2915 37.5V25.85C37.0803 25.0932 37.7083 24.1851 38.1379 23.1799C38.5674 22.1747 38.7898 21.0931 38.7915 20V20ZM28.1665 2.13127L31.0353 5.00002H28.1665V2.13127ZM23.7915 20C23.7907 18.7489 24.1314 17.5212 24.7767 16.4494C25.4221 15.3775 26.3478 14.5021 27.4539 13.9174C28.5601 13.3328 29.8048 13.0611 31.054 13.1316C32.3032 13.2021 33.5094 13.6122 34.5427 14.3176C35.5761 15.023 36.3973 15.9971 36.918 17.1347C37.4386 18.2724 37.6389 19.5306 37.4973 20.7737C37.3557 22.0168 36.8776 23.1978 36.1144 24.1892C35.3513 25.1807 34.332 25.9451 33.1665 26.4V24.375C33.3323 24.375 33.4912 24.3092 33.6084 24.192C33.7257 24.0747 33.7915 23.9158 33.7915 23.75V21.25C33.7902 21.1226 33.75 20.9987 33.6762 20.8948C33.6025 20.7909 33.4988 20.7121 33.379 20.6688L34.2353 19.8188C34.2938 19.7607 34.3403 19.6915 34.3721 19.6154C34.4038 19.5392 34.4201 19.4575 34.4201 19.375C34.4201 19.2925 34.4038 19.2108 34.3721 19.1347C34.3403 19.0585 34.2938 18.9894 34.2353 18.9313C33.0052 17.7032 31.9872 16.2798 31.2228 14.7188C31.1703 14.6164 31.0906 14.5305 30.9925 14.4705C30.8943 14.4105 30.7815 14.3787 30.6665 14.3787C30.5515 14.3787 30.4387 14.4105 30.3405 14.4705C30.2424 14.5305 30.1627 14.6164 30.1103 14.7188C29.3458 16.2798 28.3278 17.7032 27.0978 18.9313C27.0392 18.9894 26.9927 19.0585 26.9609 19.1347C26.9292 19.2108 26.9129 19.2925 26.9129 19.375C26.9129 19.4575 26.9292 19.5392 26.9609 19.6154C26.9927 19.6915 27.0392 19.7607 27.0978 19.8188L27.954 20.6688C27.8342 20.7121 27.7305 20.7909 27.6568 20.8948C27.5831 20.9987 27.5428 21.1226 27.5415 21.25V23.75C27.5415 23.9158 27.6074 24.0747 27.7246 24.192C27.8418 24.3092 28.0007 24.375 28.1665 24.375V26.4C26.8781 25.8971 25.7714 25.0173 24.9909 23.8755C24.2104 22.7337 23.7924 21.3831 23.7915 20V20ZM28.4165 19.375C29.0101 18.7301 29.5534 18.0405 30.0415 17.3125V18.75C30.0415 18.9158 30.1074 19.0748 30.2246 19.192C30.3418 19.3092 30.5007 19.375 30.6665 19.375C30.8323 19.375 30.9912 19.3092 31.1084 19.192C31.2257 19.0748 31.2915 18.9158 31.2915 18.75V17.3125C31.7796 18.0405 32.3229 18.7301 32.9165 19.375L31.6665 20.625H29.6728L28.4165 19.375ZM28.7915 21.875H32.5415V23.125H28.7915V21.875ZM29.4165 26.7563V24.375H31.9165V26.7563C31.0905 26.9125 30.2425 26.9125 29.4165 26.7563Z" fill="#033C59"/>
<path d="M10.6665 38.75H9.4165C9.25074 38.75 9.09177 38.8159 8.97456 38.9331C8.85735 39.0503 8.7915 39.2093 8.7915 39.375C8.7915 39.5408 8.85735 39.6998 8.97456 39.817C9.09177 39.9342 9.25074 40 9.4165 40H10.6665C10.8323 40 10.9912 39.9342 11.1084 39.817C11.2257 39.6998 11.2915 39.5408 11.2915 39.375C11.2915 39.2093 11.2257 39.0503 11.1084 38.9331C10.9912 38.8159 10.8323 38.75 10.6665 38.75Z" fill="#033C59"/>
<path d="M24.4165 3.12502H9.4165C9.07133 3.12502 8.7915 3.40484 8.7915 3.75002V7.50002C8.7915 7.84519 9.07133 8.12502 9.4165 8.12502H24.4165C24.7617 8.12502 25.0415 7.84519 25.0415 7.50002V3.75002C25.0415 3.40484 24.7617 3.12502 24.4165 3.12502Z" fill="#96A1C3"/>
<path d="M22.5415 9.37502H9.4165C9.25074 9.37502 9.09177 9.44086 8.97456 9.55807C8.85735 9.67528 8.7915 9.83425 8.7915 10C8.7915 10.1658 8.85735 10.3247 8.97456 10.442C9.09177 10.5592 9.25074 10.625 9.4165 10.625H22.5415C22.7073 10.625 22.8662 10.5592 22.9834 10.442C23.1007 10.3247 23.1665 10.1658 23.1665 10C23.1665 9.83425 23.1007 9.67528 22.9834 9.55807C22.8662 9.44086 22.7073 9.37502 22.5415 9.37502Z" fill="#96A1C3"/>
<path d="M18.1665 11.875H9.4165C9.25074 11.875 9.09177 11.9409 8.97456 12.0581C8.85735 12.1753 8.7915 12.3343 8.7915 12.5C8.7915 12.6658 8.85735 12.8247 8.97456 12.942C9.09177 13.0592 9.25074 13.125 9.4165 13.125H18.1665C18.3323 13.125 18.4912 13.0592 18.6084 12.942C18.7257 12.8247 18.7915 12.6658 18.7915 12.5C18.7915 12.3343 18.7257 12.1753 18.6084 12.0581C18.4912 11.9409 18.3323 11.875 18.1665 11.875Z" fill="#96A1C3"/>
<path d="M12.5415 31.875H7.5415C6.85115 31.875 6.2915 32.4347 6.2915 33.125V35.625C6.2915 36.3154 6.85115 36.875 7.5415 36.875H12.5415C13.2319 36.875 13.7915 36.3154 13.7915 35.625V33.125C13.7915 32.4347 13.2319 31.875 12.5415 31.875Z" fill="#0074FF"/>
<path d="M9.36658 25.3813C9.31855 25.2685 9.23844 25.1724 9.1362 25.1048C9.03397 25.0372 8.91413 25.0012 8.79158 25.0012C8.66903 25.0012 8.54919 25.0372 8.44695 25.1048C8.34472 25.1724 8.26461 25.2685 8.21658 25.3813L6.34158 29.7563C6.28433 29.9074 6.28781 30.0747 6.3513 30.2233C6.41478 30.3719 6.53334 30.4901 6.68209 30.5532C6.83085 30.6162 6.99824 30.6192 7.14916 30.5615C7.30009 30.5039 7.4228 30.39 7.49158 30.2438L7.86658 29.375H9.74158L10.1166 30.2438C10.1464 30.3224 10.1918 30.3943 10.25 30.455C10.3082 30.5157 10.3781 30.564 10.4554 30.597C10.5328 30.6301 10.616 30.6472 10.7001 30.6473C10.7842 30.6474 10.8675 30.6306 10.945 30.5977C11.0224 30.5649 11.0924 30.5168 11.1508 30.4562C11.2092 30.3957 11.2548 30.324 11.2848 30.2454C11.3149 30.1669 11.3287 30.083 11.3256 29.999C11.3225 29.9149 11.3024 29.8324 11.2666 29.7563L9.36658 25.3813ZM8.39783 28.125L8.79158 27.2125L9.18533 28.125H8.39783Z" fill="#F5F7FF"/>
<path d="M13.1665 27.5C13.0007 27.5 12.8418 27.5659 12.7246 27.6831C12.6074 27.8003 12.5415 27.9593 12.5415 28.125V30C12.5415 30.1658 12.6074 30.3247 12.7246 30.442C12.8418 30.5592 13.0007 30.625 13.1665 30.625C13.3323 30.625 13.4912 30.5592 13.6084 30.442C13.7257 30.3247 13.7915 30.1658 13.7915 30V28.125C13.7915 27.9593 13.7257 27.8003 13.6084 27.6831C13.4912 27.5659 13.3323 27.5 13.1665 27.5Z" fill="#F5F7FF"/>
<path d="M13.1665 26.25C13.2901 26.25 13.411 26.2134 13.5137 26.1447C13.6165 26.076 13.6966 25.9784 13.7439 25.8642C13.7912 25.75 13.8036 25.6243 13.7795 25.5031C13.7554 25.3818 13.6959 25.2705 13.6084 25.1831C13.521 25.0957 13.4097 25.0361 13.2884 25.012C13.1672 24.9879 13.0415 25.0003 12.9273 25.0476C12.8131 25.0949 12.7155 25.175 12.6468 25.2778C12.5782 25.3806 12.5415 25.5014 12.5415 25.625C12.5415 25.7908 12.6074 25.9497 12.7246 26.067C12.8418 26.1842 13.0007 26.25 13.1665 26.25Z" fill="#F5F7FF"/>
<path d="M35.0415 10C34.9179 10 34.7971 10.0367 34.6943 10.1053C34.5915 10.174 34.5114 10.2716 34.4641 10.3858C34.4168 10.5 34.4044 10.6257 34.4285 10.7469C34.4526 10.8682 34.5122 10.9796 34.5996 11.067C34.687 11.1544 34.7983 11.2139 34.9196 11.238C35.0408 11.2621 35.1665 11.2497 35.2807 11.2024C35.3949 11.1551 35.4925 11.075 35.5612 10.9722C35.6298 10.8695 35.6665 10.7486 35.6665 10.625C35.6665 10.4593 35.6007 10.3003 35.4834 10.1831C35.3662 10.0659 35.2073 10 35.0415 10Z" fill="#0074FF"/>
<path d="M35.0415 8.75002C35.1651 8.75002 35.286 8.71336 35.3887 8.64468C35.4915 8.57601 35.5716 8.4784 35.6189 8.36419C35.6662 8.24999 35.6786 8.12432 35.6545 8.00308C35.6304 7.88185 35.5709 7.77048 35.4834 7.68307C35.396 7.59567 35.2847 7.53614 35.1634 7.51202C35.0422 7.48791 34.9165 7.50029 34.8023 7.54759C34.6881 7.5949 34.5905 7.675 34.5218 7.77778C34.4532 7.88056 34.4165 8.0014 34.4165 8.12502C34.4165 8.29078 34.4824 8.44975 34.5996 8.56696C34.7168 8.68417 34.8757 8.75002 35.0415 8.75002Z" fill="#0074FF"/>
</g>
<defs>
<clipPath id="clip0_754_83278">
<rect width="40" height="40" fill="white" transform="translate(0.666504 1.52588e-05)"/>
</clipPath>
</defs>
</svg>
