<svg width="49" height="48" viewBox="0 0 49 48" fill="none" xmlns="http://www.w3.org/2000/svg">
<g clip-path="url(#clip0_754_82065)">
<path d="M37.0833 5.25H11.5833C9.9264 5.25 8.58325 6.59315 8.58325 8.25V42.75C8.58325 44.4069 9.9264 45.75 11.5833 45.75H37.0833C38.7401 45.75 40.0833 44.4069 40.0833 42.75V8.25C40.0833 6.59315 38.7401 5.25 37.0833 5.25Z" fill="#96A1C3"/>
<path d="M37.0833 43.5H11.5833C10.7876 43.5 10.0245 43.1839 9.46193 42.6213C8.89932 42.0587 8.58325 41.2956 8.58325 40.5V42.75C8.58325 43.5456 8.89932 44.3087 9.46193 44.8713C10.0245 45.4339 10.7876 45.75 11.5833 45.75H37.0833C37.8789 45.75 38.642 45.4339 39.2046 44.8713C39.7672 44.3087 40.0833 43.5456 40.0833 42.75V40.5C40.0833 41.2956 39.7672 42.0587 39.2046 42.6213C38.642 43.1839 37.8789 43.5 37.0833 43.5Z" fill="#647499"/>
<path d="M37.0833 8.25H11.5833V42.75H37.0833V8.25Z" fill="#F5F7FF"/>
<path d="M37.0833 40.5H11.5833V42.75H37.0833V40.5Z" fill="#CCD3EB"/>
<path d="M28.8333 3.75H19.8333C19.0048 3.75 18.3333 4.42157 18.3333 5.25V8.25C18.3333 9.07843 19.0048 9.75 19.8333 9.75H28.8333C29.6617 9.75 30.3333 9.07843 30.3333 8.25V5.25C30.3333 4.42157 29.6617 3.75 28.8333 3.75Z" fill="#CCD3EB"/>
<path d="M28.8333 7.5H19.8333C19.4354 7.5 19.0539 7.34196 18.7726 7.06066C18.4913 6.77936 18.3333 6.39782 18.3333 6V8.25C18.3333 8.64782 18.4913 9.02936 18.7726 9.31066C19.0539 9.59196 19.4354 9.75 19.8333 9.75H28.8333C29.2311 9.75 29.6126 9.59196 29.8939 9.31066C30.1752 9.02936 30.3333 8.64782 30.3333 8.25V6C30.3333 6.39782 30.1752 6.77936 29.8939 7.06066C29.6126 7.34196 29.2311 7.5 28.8333 7.5Z" fill="#96A1C3"/>
<path d="M8.58325 14.25C12.3112 14.25 15.3333 11.2279 15.3333 7.5C15.3333 3.77208 12.3112 0.75 8.58325 0.75C4.85533 0.75 1.83325 3.77208 1.83325 7.5C1.83325 11.2279 4.85533 14.25 8.58325 14.25Z" fill="#0074FF"/>
<path d="M8.58325 6.75C8.38434 6.75 8.19357 6.67098 8.05292 6.53033C7.91227 6.38968 7.83325 6.19891 7.83325 6C7.83325 5.80109 7.91227 5.61032 8.05292 5.46967C8.19357 5.32902 8.38434 5.25 8.58325 5.25H10.0833C10.2822 5.25 10.4729 5.17098 10.6136 5.03033C10.7542 4.88968 10.8333 4.69891 10.8333 4.5C10.8333 4.30109 10.7542 4.11032 10.6136 3.96967C10.4729 3.82902 10.2822 3.75 10.0833 3.75H9.33325C9.33325 3.55109 9.25423 3.36032 9.11358 3.21967C8.97293 3.07902 8.78216 3 8.58325 3C8.38434 3 8.19357 3.07902 8.05292 3.21967C7.91227 3.36032 7.83325 3.55109 7.83325 3.75V3.885C7.33722 4.06498 6.92023 4.41358 6.65517 4.86985C6.39011 5.32612 6.29385 5.86103 6.3832 6.38108C6.47256 6.90113 6.74185 7.37324 7.14401 7.71486C7.54616 8.05649 8.0556 8.24591 8.58325 8.25C8.78216 8.25 8.97293 8.32902 9.11358 8.46967C9.25423 8.61032 9.33325 8.80109 9.33325 9C9.33325 9.19891 9.25423 9.38968 9.11358 9.53033C8.97293 9.67098 8.78216 9.75 8.58325 9.75H7.08325C6.88434 9.75 6.69357 9.82902 6.55292 9.96967C6.41227 10.1103 6.33325 10.3011 6.33325 10.5C6.33325 10.6989 6.41227 10.8897 6.55292 11.0303C6.69357 11.171 6.88434 11.25 7.08325 11.25H7.83325C7.83325 11.4489 7.91227 11.6397 8.05292 11.7803C8.19357 11.921 8.38434 12 8.58325 12C8.78216 12 8.97293 11.921 9.11358 11.7803C9.25423 11.6397 9.33325 11.4489 9.33325 11.25V11.115C9.82928 10.935 10.2463 10.5864 10.5113 10.1302C10.7764 9.67388 10.8727 9.13897 10.7833 8.61892C10.6939 8.09887 10.4247 7.62676 10.0225 7.28514C9.62034 6.94351 9.11091 6.75409 8.58325 6.75Z" fill="#F5F7FF"/>
<path d="M34.8333 47.25H45.3333C46.1617 47.25 46.8333 46.5784 46.8333 45.75V44.25C46.8333 43.4216 46.1617 42.75 45.3333 42.75H34.8333C34.0048 42.75 33.3333 43.4216 33.3333 44.25V45.75C33.3333 46.5784 34.0048 47.25 34.8333 47.25Z" fill="#0074FF"/>
<path d="M34.8333 42.75H45.3333C46.1617 42.75 46.8333 42.0784 46.8333 41.25V39.75C46.8333 38.9216 46.1617 38.25 45.3333 38.25H34.8333C34.0048 38.25 33.3333 38.9216 33.3333 39.75V41.25C33.3333 42.0784 34.0048 42.75 34.8333 42.75Z" fill="#0074FF"/>
<path d="M21.3333 47.25H31.8333C32.6617 47.25 33.3333 46.5784 33.3333 45.75V44.25C33.3333 43.4216 32.6617 42.75 31.8333 42.75H21.3333C20.5048 42.75 19.8333 43.4216 19.8333 44.25V45.75C19.8333 46.5784 20.5048 47.25 21.3333 47.25Z" fill="#0074FF"/>
<path d="M21.3333 42.75H31.8333C32.6617 42.75 33.3333 42.0784 33.3333 41.25V39.75C33.3333 38.9216 32.6617 38.25 31.8333 38.25H21.3333C20.5048 38.25 19.8333 38.9216 19.8333 39.75V41.25C19.8333 42.0784 20.5048 42.75 21.3333 42.75Z" fill="#0074FF"/>
<path d="M34.8333 38.25H45.3333C46.1617 38.25 46.8333 37.5784 46.8333 36.75V35.25C46.8333 34.4216 46.1617 33.75 45.3333 33.75H34.8333C34.0048 33.75 33.3333 34.4216 33.3333 35.25V36.75C33.3333 37.5784 34.0048 38.25 34.8333 38.25Z" fill="#0074FF"/>
<path d="M37.0833 29.25C37.2822 29.25 37.4729 29.171 37.6136 29.0303C37.7542 28.8897 37.8333 28.6989 37.8333 28.5V27C37.8333 26.8011 37.7542 26.6103 37.6136 26.4697C37.4729 26.329 37.2822 26.25 37.0833 26.25C36.8843 26.25 36.6936 26.329 36.5529 26.4697C36.4123 26.6103 36.3333 26.8011 36.3333 27V28.5C36.3333 28.6989 36.4123 28.8897 36.5529 29.0303C36.6936 29.171 36.8843 29.25 37.0833 29.25Z" fill="#033C59"/>
<path d="M47.5833 35.25C47.5833 34.6533 47.3462 34.081 46.9243 33.659C46.5023 33.2371 45.93 33 45.3333 33H40.8333V8.25C40.8333 7.25544 40.4382 6.30161 39.7349 5.59835C39.0317 4.89509 38.0779 4.5 37.0833 4.5H30.9483C30.7936 4.06234 30.5072 3.68325 30.1286 3.4147C29.7499 3.14616 29.2975 3.0013 28.8333 3H27.3333C27.3333 2.20435 27.0172 1.44129 26.4546 0.87868C25.892 0.316071 25.1289 -1.23982e-08 24.3333 -1.23982e-08C23.5376 -1.23982e-08 22.7746 0.316071 22.212 0.87868C21.6494 1.44129 21.3333 2.20435 21.3333 3H19.8333C19.3691 3.0013 18.9166 3.14616 18.538 3.4147C18.1593 3.68325 17.873 4.06234 17.7183 4.5H15.4683C14.8892 3.1718 13.9378 2.03977 12.7291 1.24075C11.5204 0.441741 10.1061 0.00995725 8.65723 -0.00239936C7.20834 -0.014756 5.78689 0.392844 4.56472 1.17113C3.34255 1.94941 2.37199 3.06505 1.77036 4.38318C1.16873 5.70131 0.961798 7.16549 1.17458 8.59872C1.38736 10.032 2.01074 11.3729 2.96936 12.4594C3.92799 13.5458 5.18081 14.3314 6.57637 14.721C7.97194 15.1107 9.45049 15.0878 10.8333 14.655V42.75C10.8333 42.9489 10.9123 43.1397 11.053 43.2803C11.1936 43.421 11.3844 43.5 11.5833 43.5H19.2183C19.0745 43.9861 19.0286 44.496 19.0833 45H11.5833C10.9866 45 10.4143 44.7629 9.9923 44.341C9.57035 43.919 9.3333 43.3467 9.3333 42.75V17.25C9.3333 17.0511 9.25428 16.8603 9.11363 16.7197C8.97297 16.579 8.78221 16.5 8.5833 16.5C8.38438 16.5 8.19362 16.579 8.05297 16.7197C7.91231 16.8603 7.8333 17.0511 7.8333 17.25V42.75C7.8333 43.7446 8.22838 44.6984 8.93164 45.4017C9.63491 46.1049 10.5887 46.5 11.5833 46.5H19.2183C19.373 46.9377 19.6593 47.3168 20.038 47.5853C20.4166 47.8538 20.8691 47.9987 21.3333 48H31.8333C32.3883 47.9967 32.9226 47.7883 33.3333 47.415C33.744 47.7883 34.2783 47.9967 34.8333 48H45.3333C45.93 48 46.5023 47.7629 46.9243 47.341C47.3462 46.919 47.5833 46.3467 47.5833 45.75C47.5833 44.3175 47.7258 43.5525 46.9983 42.75C47.3716 42.3393 47.58 41.805 47.5833 41.25C47.5833 39.8175 47.7258 39.0525 46.9983 38.25C47.3716 37.8393 47.58 37.305 47.5833 36.75V35.25ZM46.0833 35.25V36.75C46.0833 36.9489 46.0043 37.1397 45.8636 37.2803C45.723 37.421 45.5322 37.5 45.3333 37.5H34.8333C34.6344 37.5 34.4436 37.421 34.303 37.2803C34.1623 37.1397 34.0833 36.9489 34.0833 36.75V35.25C34.0833 35.0511 34.1623 34.8603 34.303 34.7197C34.4436 34.579 34.6344 34.5 34.8333 34.5H45.3333C45.5322 34.5 45.723 34.579 45.8636 34.7197C46.0043 34.8603 46.0833 35.0511 46.0833 35.25ZM46.0833 39.75V41.25C46.0833 41.4489 46.0043 41.6397 45.8636 41.7803C45.723 41.921 45.5322 42 45.3333 42H34.8333C34.6344 42 34.4436 41.921 34.303 41.7803C34.1623 41.6397 34.0833 41.4489 34.0833 41.25V39.75C34.0833 39.5511 34.1623 39.3603 34.303 39.2197C34.4436 39.079 34.6344 39 34.8333 39H45.3333C45.5322 39 45.723 39.079 45.8636 39.2197C46.0043 39.3603 46.0833 39.5511 46.0833 39.75ZM20.5833 41.25V39.75C20.5833 39.5511 20.6623 39.3603 20.803 39.2197C20.9436 39.079 21.1344 39 21.3333 39H31.8333C32.0322 39 32.223 39.079 32.3636 39.2197C32.5043 39.3603 32.5833 39.5511 32.5833 39.75V41.25C32.5833 41.4489 32.5043 41.6397 32.3636 41.7803C32.223 41.921 32.0322 42 31.8333 42H21.3333C21.1344 42 20.9436 41.921 20.803 41.7803C20.6623 41.6397 20.5833 41.4489 20.5833 41.25ZM24.3333 1.5C24.7311 1.5 25.1127 1.65804 25.394 1.93934C25.6753 2.22064 25.8333 2.60218 25.8333 3H22.8333C22.8333 2.60218 22.9913 2.22064 23.2726 1.93934C23.5539 1.65804 23.9355 1.5 24.3333 1.5V1.5ZM19.8333 4.5H28.8333C29.0322 4.5 29.223 4.57902 29.3636 4.71967C29.5043 4.86032 29.5833 5.05109 29.5833 5.25V8.25C29.5833 8.44891 29.5043 8.63968 29.3636 8.78033C29.223 8.92098 29.0322 9 28.8333 9H19.8333C19.6344 9 19.4436 8.92098 19.303 8.78033C19.1623 8.63968 19.0833 8.44891 19.0833 8.25V5.25C19.0833 5.05109 19.1623 4.86032 19.303 4.71967C19.4436 4.57902 19.6344 4.5 19.8333 4.5V4.5ZM17.5833 6V7.5H16.0833C16.0828 6.99628 16.0326 6.49384 15.9333 6H17.5833ZM2.5833 7.5C2.5833 6.31331 2.93519 5.15327 3.59448 4.16658C4.25377 3.17988 5.19084 2.41085 6.28719 1.95672C7.38355 1.5026 8.58995 1.38378 9.75384 1.61529C10.9177 1.8468 11.9868 2.41824 12.8259 3.25736C13.6651 4.09647 14.2365 5.16557 14.468 6.32946C14.6995 7.49334 14.5807 8.69974 14.1266 9.7961C13.6724 10.8925 12.9034 11.8295 11.9167 12.4888C10.93 13.1481 9.76998 13.5 8.5833 13.5C6.992 13.5 5.46587 12.8679 4.34065 11.7426C3.21544 10.6174 2.5833 9.0913 2.5833 7.5V7.5ZM12.3333 13.9875C13.2518 13.4579 14.0476 12.7395 14.6681 11.8798C15.2887 11.0201 15.7199 10.0386 15.9333 9H17.7183C17.873 9.43766 18.1593 9.81675 18.538 10.0853C18.9166 10.3538 19.3691 10.4987 19.8333 10.5H28.8333C29.2975 10.4987 29.7499 10.3538 30.1286 10.0853C30.5072 9.81675 30.7936 9.43766 30.9483 9H36.3333V24C36.3333 24.1989 36.4123 24.3897 36.553 24.5303C36.6936 24.671 36.8844 24.75 37.0833 24.75C37.2822 24.75 37.473 24.671 37.6136 24.5303C37.7543 24.3897 37.8333 24.1989 37.8333 24V8.25C37.8333 8.05109 37.7543 7.86032 37.6136 7.71967C37.473 7.57902 37.2822 7.5 37.0833 7.5H31.0833V6H37.0833C37.68 6 38.2523 6.23705 38.6743 6.65901C39.0962 7.08097 39.3333 7.65326 39.3333 8.25V33H37.8333V31.5C37.8333 31.3011 37.7543 31.1103 37.6136 30.9697C37.473 30.829 37.2822 30.75 37.0833 30.75C36.8844 30.75 36.6936 30.829 36.553 30.9697C36.4123 31.1103 36.3333 31.3011 36.3333 31.5V33H34.8333C34.2366 33 33.6643 33.2371 33.2423 33.659C32.8204 34.081 32.5833 34.6533 32.5833 35.25C32.5833 36.66 32.5083 37.1025 32.8233 37.74C32.1333 37.395 32.6583 37.5 21.3333 37.5C20.7366 37.5 20.1643 37.7371 19.7423 38.159C19.3203 38.581 19.0833 39.1533 19.0833 39.75C19.0833 41.325 19.0383 41.49 19.2183 42H12.3333V13.9875ZM31.8333 46.5H21.3333C21.1344 46.5 20.9436 46.421 20.803 46.2803C20.6623 46.1397 20.5833 45.9489 20.5833 45.75V44.25C20.5833 44.0511 20.6623 43.8603 20.803 43.7197C20.9436 43.579 21.1344 43.5 21.3333 43.5H31.8333C32.0322 43.5 32.223 43.579 32.3636 43.7197C32.5043 43.8603 32.5833 44.0511 32.5833 44.25V45.75C32.5833 45.9489 32.5043 46.1397 32.3636 46.2803C32.223 46.421 32.0322 46.5 31.8333 46.5ZM46.0833 45.75C46.0833 45.9489 46.0043 46.1397 45.8636 46.2803C45.723 46.421 45.5322 46.5 45.3333 46.5H34.8333C34.6344 46.5 34.4436 46.421 34.303 46.2803C34.1623 46.1397 34.0833 45.9489 34.0833 45.75V44.25C34.0833 44.0511 34.1623 43.8603 34.303 43.7197C34.4436 43.579 34.6344 43.5 34.8333 43.5H45.3333C45.5322 43.5 45.723 43.579 45.8636 43.7197C46.0043 43.8603 46.0833 44.0511 46.0833 44.25V45.75Z" fill="#033C59"/>
<path d="M19.0833 14.25H16.0833C15.2548 14.25 14.5833 14.9216 14.5833 15.75V18.75C14.5833 19.5784 15.2548 20.25 16.0833 20.25H19.0833C19.9117 20.25 20.5833 19.5784 20.5833 18.75V15.75C20.5833 14.9216 19.9117 14.25 19.0833 14.25Z" fill="#0074FF"/>
<path d="M18.3331 18.75C17.9281 18.75 17.9056 18.6375 16.3006 17.0325C16.1594 16.8913 16.0801 16.6997 16.0801 16.5C16.0801 16.3003 16.1594 16.1087 16.3006 15.9675C16.4419 15.8263 16.6334 15.7469 16.8331 15.7469C17.0329 15.7469 17.2244 15.8263 17.3656 15.9675L18.3331 16.9425L21.5506 13.7175C21.6919 13.5763 21.8834 13.4969 22.0831 13.4969C22.2829 13.4969 22.4744 13.5763 22.6156 13.7175C22.7569 13.8587 22.8362 14.0503 22.8362 14.25C22.8362 14.4497 22.7569 14.6413 22.6156 14.7825L18.8656 18.5325C18.7956 18.602 18.7125 18.657 18.6211 18.6943C18.5297 18.7317 18.4319 18.7506 18.3331 18.75Z" fill="#033C59"/>
<path d="M19.0833 22.5H16.0833C15.2548 22.5 14.5833 23.1716 14.5833 24V27C14.5833 27.8284 15.2548 28.5 16.0833 28.5H19.0833C19.9117 28.5 20.5833 27.8284 20.5833 27V24C20.5833 23.1716 19.9117 22.5 19.0833 22.5Z" fill="#0074FF"/>
<path d="M18.3331 27C17.9281 27 17.9056 26.8875 16.3006 25.2825C16.1594 25.1413 16.0801 24.9497 16.0801 24.75C16.0801 24.5503 16.1594 24.3587 16.3006 24.2175C16.4419 24.0763 16.6334 23.9969 16.8331 23.9969C17.0329 23.9969 17.2244 24.0763 17.3656 24.2175L18.3331 25.1925L21.5506 21.9675C21.6919 21.8263 21.8834 21.7469 22.0831 21.7469C22.2829 21.7469 22.4744 21.8263 22.6156 21.9675C22.7569 22.1087 22.8362 22.3003 22.8362 22.5C22.8362 22.6997 22.7569 22.8913 22.6156 23.0325L18.8656 26.7825C18.7956 26.852 18.7125 26.907 18.6211 26.9443C18.5297 26.9817 18.4319 27.0006 18.3331 27Z" fill="#033C59"/>
<path d="M19.0833 30.75H16.0833C15.2548 30.75 14.5833 31.4216 14.5833 32.25V35.25C14.5833 36.0784 15.2548 36.75 16.0833 36.75H19.0833C19.9117 36.75 20.5833 36.0784 20.5833 35.25V32.25C20.5833 31.4216 19.9117 30.75 19.0833 30.75Z" fill="#0074FF"/>
<path d="M18.3331 35.25C17.9281 35.25 17.9056 35.1375 16.3006 33.5325C16.1594 33.3913 16.0801 33.1997 16.0801 33C16.0801 32.8003 16.1594 32.6087 16.3006 32.4675C16.4419 32.3263 16.6334 32.2469 16.8331 32.2469C17.0329 32.2469 17.2244 32.3263 17.3656 32.4675L18.3331 33.4425L21.5506 30.2175C21.6919 30.0763 21.8834 29.9969 22.0831 29.9969C22.2829 29.9969 22.4744 30.0763 22.6156 30.2175C22.7569 30.3587 22.8362 30.5503 22.8362 30.75C22.8362 30.9497 22.7569 31.1413 22.6156 31.2825L18.8656 35.0325C18.7956 35.102 18.7125 35.157 18.6211 35.1943C18.5297 35.2316 18.4319 35.2506 18.3331 35.25Z" fill="#033C59"/>
<path d="M25.0833 16.5H33.3333C33.5322 16.5 33.7229 16.421 33.8636 16.2803C34.0042 16.1397 34.0833 15.9489 34.0833 15.75C34.0833 15.5511 34.0042 15.3603 33.8636 15.2197C33.7229 15.079 33.5322 15 33.3333 15H25.0833C24.8843 15 24.6936 15.079 24.5529 15.2197C24.4123 15.3603 24.3333 15.5511 24.3333 15.75C24.3333 15.9489 24.4123 16.1397 24.5529 16.2803C24.6936 16.421 24.8843 16.5 25.0833 16.5Z" fill="#96A1C3"/>
<path d="M25.0833 19.5H29.5833C29.7822 19.5 29.9729 19.421 30.1136 19.2803C30.2542 19.1397 30.3333 18.9489 30.3333 18.75C30.3333 18.5511 30.2542 18.3603 30.1136 18.2197C29.9729 18.079 29.7822 18 29.5833 18H25.0833C24.8843 18 24.6936 18.079 24.5529 18.2197C24.4123 18.3603 24.3333 18.5511 24.3333 18.75C24.3333 18.9489 24.4123 19.1397 24.5529 19.2803C24.6936 19.421 24.8843 19.5 25.0833 19.5Z" fill="#96A1C3"/>
<path d="M33.3333 23.25H25.0833C24.8843 23.25 24.6936 23.329 24.5529 23.4697C24.4123 23.6103 24.3333 23.8011 24.3333 24C24.3333 24.1989 24.4123 24.3897 24.5529 24.5303C24.6936 24.671 24.8843 24.75 25.0833 24.75H33.3333C33.5322 24.75 33.7229 24.671 33.8636 24.5303C34.0042 24.3897 34.0833 24.1989 34.0833 24C34.0833 23.8011 34.0042 23.6103 33.8636 23.4697C33.7229 23.329 33.5322 23.25 33.3333 23.25Z" fill="#96A1C3"/>
<path d="M25.0833 27.75H29.5833C29.7822 27.75 29.9729 27.671 30.1136 27.5303C30.2542 27.3897 30.3333 27.1989 30.3333 27C30.3333 26.8011 30.2542 26.6103 30.1136 26.4697C29.9729 26.329 29.7822 26.25 29.5833 26.25H25.0833C24.8843 26.25 24.6936 26.329 24.5529 26.4697C24.4123 26.6103 24.3333 26.8011 24.3333 27C24.3333 27.1989 24.4123 27.3897 24.5529 27.5303C24.6936 27.671 24.8843 27.75 25.0833 27.75Z" fill="#96A1C3"/>
<path d="M31.8333 31.5H25.0833C24.8843 31.5 24.6936 31.579 24.5529 31.7197C24.4123 31.8603 24.3333 32.0511 24.3333 32.25C24.3333 32.4489 24.4123 32.6397 24.5529 32.7803C24.6936 32.921 24.8843 33 25.0833 33H31.8333C32.0322 33 32.2229 32.921 32.3636 32.7803C32.5042 32.6397 32.5833 32.4489 32.5833 32.25C32.5833 32.0511 32.5042 31.8603 32.3636 31.7197C32.2229 31.579 32.0322 31.5 31.8333 31.5Z" fill="#96A1C3"/>
<path d="M29.5833 34.5H25.0833C24.8843 34.5 24.6936 34.579 24.5529 34.7197C24.4123 34.8603 24.3333 35.0511 24.3333 35.25C24.3333 35.4489 24.4123 35.6397 24.5529 35.7803C24.6936 35.921 24.8843 36 25.0833 36H29.5833C29.7822 36 29.9729 35.921 30.1136 35.7803C30.2542 35.6397 30.3333 35.4489 30.3333 35.25C30.3333 35.0511 30.2542 34.8603 30.1136 34.7197C29.9729 34.579 29.7822 34.5 29.5833 34.5Z" fill="#96A1C3"/>
<path d="M46.8333 29.25C46.6849 29.25 46.5399 29.294 46.4166 29.3764C46.2932 29.4588 46.1971 29.5759 46.1403 29.713C46.0836 29.85 46.0687 30.0008 46.0977 30.1463C46.1266 30.2918 46.198 30.4254 46.3029 30.5303C46.4078 30.6352 46.5414 30.7067 46.6869 30.7356C46.8324 30.7645 46.9832 30.7497 47.1203 30.6929C47.2573 30.6361 47.3744 30.54 47.4569 30.4167C47.5393 30.2933 47.5833 30.1483 47.5833 30C47.5833 29.8011 47.5042 29.6103 47.3636 29.4697C47.2229 29.329 47.0322 29.25 46.8333 29.25Z" fill="#96A1C3"/>
<path d="M43.8333 29.25C43.6849 29.25 43.5399 29.294 43.4166 29.3764C43.2932 29.4588 43.1971 29.5759 43.1403 29.713C43.0836 29.85 43.0687 30.0008 43.0977 30.1463C43.1266 30.2918 43.198 30.4254 43.3029 30.5303C43.4078 30.6352 43.5414 30.7067 43.6869 30.7356C43.8324 30.7645 43.9832 30.7497 44.1203 30.6929C44.2573 30.6361 44.3744 30.54 44.4569 30.4167C44.5393 30.2933 44.5833 30.1483 44.5833 30C44.5833 29.8011 44.5042 29.6103 44.3636 29.4697C44.2229 29.329 44.0322 29.25 43.8333 29.25Z" fill="#96A1C3"/>
<path d="M1.83325 17.25H3.33325C3.53216 17.25 3.72293 17.171 3.86358 17.0303C4.00423 16.8897 4.08325 16.6989 4.08325 16.5C4.08325 16.3011 4.00423 16.1103 3.86358 15.9697C3.72293 15.829 3.53216 15.75 3.33325 15.75H1.83325C1.63434 15.75 1.44357 15.829 1.30292 15.9697C1.16227 16.1103 1.08325 16.3011 1.08325 16.5C1.08325 16.6989 1.16227 16.8897 1.30292 17.0303C1.44357 17.171 1.63434 17.25 1.83325 17.25V17.25Z" fill="#0074FF"/>
<path d="M3.33325 18.75H1.83325C1.63434 18.75 1.44357 18.829 1.30292 18.9697C1.16227 19.1103 1.08325 19.3011 1.08325 19.5C1.08325 19.6989 1.16227 19.8897 1.30292 20.0303C1.44357 20.171 1.63434 20.25 1.83325 20.25H3.33325C3.53216 20.25 3.72293 20.171 3.86358 20.0303C4.00423 19.8897 4.08325 19.6989 4.08325 19.5C4.08325 19.3011 4.00423 19.1103 3.86358 18.9697C3.72293 18.829 3.53216 18.75 3.33325 18.75Z" fill="#0074FF"/>
</g>
<defs>
<clipPath id="clip0_754_82065">
<rect width="48" height="48" fill="white" transform="translate(0.333252)"/>
</clipPath>
</defs>
</svg>
