<svg width="108" height="23" viewBox="0 0 108 23" fill="none" xmlns="http://www.w3.org/2000/svg">
<path d="M106 12.72C106.828 12.72 107.5 12.0484 107.5 11.22C107.5 10.3915 106.828 9.71997 106 9.71997V12.72ZM0.93934 10.1593C0.353553 10.7451 0.353553 11.6948 0.93934 12.2806L10.4853 21.8266C11.0711 22.4124 12.0208 22.4124 12.6066 21.8266C13.1924 21.2408 13.1924 20.291 12.6066 19.7053L4.12132 11.22L12.6066 2.73469C13.1924 2.1489 13.1924 1.19916 12.6066 0.613369C12.0208 0.0275822 11.0711 0.0275822 10.4853 0.613369L0.93934 10.1593ZM106 9.71997H2V12.72H106V9.71997Z" fill="#EE4622"/>
</svg>
