<svg width="41" height="40" viewBox="0 0 41 40" fill="none" xmlns="http://www.w3.org/2000/svg">
<g clip-path="url(#clip0_754_83030)">
<path d="M30.6667 4.375H10.6667C9.63121 4.375 8.79175 5.21447 8.79175 6.25V33.125C8.79175 34.1605 9.63121 35 10.6667 35H30.6667C31.7023 35 32.5417 34.1605 32.5417 33.125V6.25C32.5417 5.21447 31.7023 4.375 30.6667 4.375Z" fill="#F5F7FF"/>
<path d="M32.5418 4.375V11.25C28.6231 11.25 25.3168 8.2125 25.6668 4.375H32.5418Z" fill="#CCD3EB"/>
<path d="M28.7917 25.5188C28.3564 25.0273 27.752 24.7178 27.0989 24.6518C26.4457 24.5858 25.7916 24.7681 25.2667 25.1625C24.3456 25.8416 23.7302 26.8573 23.5546 27.9882C23.379 29.1191 23.6574 30.2735 24.3292 31.2L25.6667 33.125C25.6667 33.1875 26.2167 33.125 15.6667 33.125C15.6667 33.0625 15.598 33.2 17.023 31.2C19.0792 28.3188 16.9292 24.6375 14.523 24.6375C14.1492 24.636 13.7794 24.7138 13.4379 24.8657C13.0964 25.0176 12.7909 25.2402 12.5417 25.5188L8.79175 29.4563V33.125C8.79175 33.6223 8.98929 34.0992 9.34092 34.4508C9.69255 34.8025 10.1695 35 10.6667 35H30.6667C31.164 35 31.6409 34.8025 31.9926 34.4508C32.3442 34.0992 32.5417 33.6223 32.5417 33.125V29.4563L28.7917 25.5188Z" fill="#CCD3EB"/>
<path d="M15.498 30.1125L13.7917 32.5V33.8562C13.7912 34.9883 13.3417 36.0739 12.5417 36.875V39.375H6.29175V38C6.29175 36.0437 5.04175 35.8313 5.04175 33.875V23.675C5.04258 23.1504 5.20841 22.6394 5.51575 22.2143C5.82309 21.7892 6.25637 21.4715 6.75425 21.3063L8.79175 20.625V30L10.0417 31.25L13.9667 26.7625C14.898 25.7125 16.848 28.2125 15.498 30.1125Z" fill="#96A1C3"/>
<path d="M12.5417 38.125H6.29175V39.375H12.5417V38.125Z" fill="#647499"/>
<path d="M36.2919 23.675V33.875C36.2899 34.6088 36.0726 35.326 35.6669 35.9375C34.9231 37.0625 35.0419 37.975 35.0419 39.375H28.7919V36.875C27.3606 35.4438 27.5419 33.8813 27.5419 32.5L25.8356 30.1125C24.4669 28.1938 26.4606 25.7375 27.3669 26.7625L31.2919 31.25L32.5419 30V20.625L34.5794 21.3063C35.0773 21.4715 35.5106 21.7892 35.8179 22.2143C36.1252 22.6394 36.2911 23.1504 36.2919 23.675V23.675Z" fill="#96A1C3"/>
<path d="M35.0417 38.125H28.7917V39.375H35.0417V38.125Z" fill="#647499"/>
<path d="M20.6667 17.5C23.4282 17.5 25.6667 15.2614 25.6667 12.5C25.6667 9.73858 23.4282 7.5 20.6667 7.5C17.9053 7.5 15.6667 9.73858 15.6667 12.5C15.6667 15.2614 17.9053 17.5 20.6667 17.5Z" fill="#0074FF"/>
<path d="M22.5419 13.5375C22.8658 13.1785 23.0786 12.7333 23.1546 12.2558C23.2306 11.7782 23.1664 11.289 22.97 10.8471C22.7735 10.4053 22.4532 10.03 22.0477 9.76654C21.6423 9.5031 21.1692 9.36288 20.6856 9.36288C20.2021 9.36288 19.729 9.5031 19.3235 9.76654C18.9181 10.03 18.5977 10.4053 18.4013 10.8471C18.2048 11.289 18.1407 11.7782 18.2167 12.2558C18.2927 12.7333 18.5055 13.1785 18.8294 13.5375C17.9236 13.9634 17.1912 14.6869 16.7544 15.5875C17.2223 16.1828 17.8192 16.6641 18.5002 16.9951C19.1812 17.326 19.9285 17.498 20.6856 17.498C21.4428 17.498 22.1901 17.326 22.8711 16.9951C23.5521 16.6641 24.149 16.1828 24.6169 15.5875C24.1801 14.6869 23.4477 13.9634 22.5419 13.5375V13.5375Z" fill="#F5F7FF"/>
<path d="M31.9167 9.375C34.333 9.375 36.2917 7.41625 36.2917 5C36.2917 2.58375 34.333 0.625 31.9167 0.625C29.5005 0.625 27.5417 2.58375 27.5417 5C27.5417 7.41625 29.5005 9.375 31.9167 9.375Z" fill="#0074FF"/>
<path d="M8.79175 13.125C8.95751 13.125 9.11648 13.0592 9.23369 12.9419C9.3509 12.8247 9.41675 12.6658 9.41675 12.5V6.25C9.41675 5.91848 9.54844 5.60054 9.78286 5.36612C10.0173 5.1317 10.3352 5 10.6667 5H26.9167C26.9131 6.27142 27.3939 7.49648 28.2614 8.42597C29.1289 9.35547 30.3179 9.91957 31.5866 10.0035C32.8552 10.0875 34.1082 9.68498 35.0906 8.87791C36.073 8.07084 36.7111 6.91982 36.875 5.65901C37.0389 4.3982 36.7163 3.1223 35.9729 2.09087C35.2295 1.05944 34.1211 0.349962 32.8731 0.10676C31.6252 -0.136441 30.3315 0.104905 29.2552 0.781701C28.1788 1.4585 27.4008 2.5199 27.0792 3.75H10.6667C10.0037 3.75 9.36782 4.01339 8.89898 4.48223C8.43014 4.95107 8.16675 5.58696 8.16675 6.25V12.5C8.16675 12.6658 8.2326 12.8247 8.34981 12.9419C8.46702 13.0592 8.62599 13.125 8.79175 13.125ZM31.9167 1.25C32.6584 1.25 33.3835 1.46993 34.0001 1.88199C34.6168 2.29404 35.0975 2.87971 35.3813 3.56494C35.6651 4.25016 35.7394 5.00416 35.5947 5.73159C35.45 6.45902 35.0928 7.1272 34.5684 7.65165C34.044 8.1761 33.3758 8.53325 32.6483 8.67795C31.9209 8.82264 31.1669 8.74838 30.4817 8.46455C29.7965 8.18072 29.2108 7.70007 28.7987 7.08339C28.3867 6.4667 28.1667 5.74168 28.1667 5C28.1667 4.00544 28.5618 3.05161 29.2651 2.34835C29.9684 1.64509 30.9222 1.25 31.9167 1.25V1.25Z" fill="#033C59"/>
<path d="M8.79175 16.875C8.95751 16.875 9.11648 16.8092 9.23369 16.6919C9.3509 16.5747 9.41675 16.4158 9.41675 16.25V15C9.41675 14.8342 9.3509 14.6753 9.23369 14.5581C9.11648 14.4408 8.95751 14.375 8.79175 14.375C8.62599 14.375 8.46702 14.4408 8.34981 14.5581C8.2326 14.6753 8.16675 14.8342 8.16675 15V16.25C8.16675 16.4158 8.2326 16.5747 8.34981 16.6919C8.46702 16.8092 8.62599 16.875 8.79175 16.875Z" fill="#033C59"/>
<path d="M34.7793 20.7125L33.1668 20.175V11.875C33.1668 11.7092 33.1009 11.5503 32.9837 11.4331C32.8665 11.3158 32.7075 11.25 32.5418 11.25C32.376 11.25 32.217 11.3158 32.0998 11.4331C31.9826 11.5503 31.9168 11.7092 31.9168 11.875V29.7437L31.2918 30.3375L27.8043 26.35C27.5775 26.0937 27.2626 25.9321 26.9221 25.8974C26.5817 25.8626 26.2406 25.9573 25.9668 26.1625C25.3148 26.652 24.8799 27.377 24.7549 28.1827C24.63 28.9884 24.8249 29.811 25.298 30.475L26.9168 32.7C26.8831 33.2578 26.8831 33.8172 26.9168 34.375H14.4168C14.4498 33.8172 14.4498 33.2578 14.4168 32.7L16.0043 30.475C16.4793 29.8105 16.6754 28.9865 16.5504 28.1793C16.4254 27.3721 15.9893 26.6459 15.3355 26.1562C15.0609 25.9518 14.7194 25.8582 14.3789 25.8941C14.0384 25.93 13.7239 26.0927 13.498 26.35L10.0418 30.3375L9.41677 29.7437V18.75C9.41677 18.5842 9.35093 18.4253 9.23372 18.3081C9.11651 18.1908 8.95753 18.125 8.79177 18.125C8.62601 18.125 8.46704 18.1908 8.34983 18.3081C8.23262 18.4253 8.16677 18.5842 8.16677 18.75V20.175L6.55427 20.7125C5.93226 20.9197 5.39116 21.3172 5.00756 21.8489C4.62395 22.3805 4.41727 23.0194 4.41677 23.675V33.875C4.41375 34.7323 4.66853 35.5706 5.14802 36.2812C5.77302 37.25 5.66677 38.0687 5.66677 39.4062C5.66677 39.572 5.73262 39.731 5.84983 39.8482C5.96704 39.9654 6.12601 40.0312 6.29177 40.0312C6.45754 40.0312 6.61651 39.9654 6.73372 39.8482C6.85093 39.731 6.91677 39.572 6.91677 39.4062C6.91677 37.9375 7.04177 36.9062 6.18552 35.6562C5.83628 35.1287 5.65539 34.5076 5.66677 33.875V23.675C5.66223 23.278 5.78385 22.8897 6.01411 22.5662C6.24437 22.2427 6.57138 22.0007 6.94802 21.875L8.16677 21.4937V30C8.16677 30.3375 8.26052 30.3562 9.59802 31.6937C9.6586 31.7542 9.73095 31.8016 9.8106 31.833C9.89025 31.8644 9.9755 31.8791 10.0611 31.8761C10.1466 31.8732 10.2307 31.8527 10.308 31.816C10.3853 31.7792 10.4542 31.727 10.5105 31.6625L14.4168 27.175C14.4367 27.1552 14.4637 27.144 14.4918 27.144C14.5199 27.144 14.5469 27.1552 14.5668 27.175C14.9588 27.468 15.2207 27.9026 15.2966 28.3861C15.3725 28.8695 15.2564 29.3635 14.973 29.7625C13.1668 32.275 13.1668 32.2187 13.1668 32.5V33.8562C13.1677 34.3348 13.0738 34.8088 12.8903 35.2508C12.7069 35.6928 12.4376 36.094 12.098 36.4312C12.0401 36.4896 11.9943 36.5589 11.9632 36.6351C11.9321 36.7112 11.9163 36.7927 11.9168 36.875V39.375C11.9168 39.5408 11.9826 39.6997 12.0998 39.8169C12.217 39.9341 12.376 40 12.5418 40C12.7075 40 12.8665 39.9341 12.9837 39.8169C13.1009 39.6997 13.1668 39.5408 13.1668 39.375V37.125C13.5632 36.6861 13.8747 36.1775 14.0855 35.625H27.248C27.4589 36.1775 27.7704 36.6861 28.1668 37.125V39.375C28.1668 39.5408 28.2326 39.6997 28.3498 39.8169C28.467 39.9341 28.626 40 28.7918 40C28.9575 40 29.1165 39.9341 29.2337 39.8169C29.3509 39.6997 29.4168 39.5408 29.4168 39.375V36.875C29.4172 36.7927 29.4015 36.7112 29.3704 36.6351C29.3393 36.5589 29.2934 36.4896 29.2355 36.4312C28.896 36.094 28.6267 35.6928 28.4432 35.2508C28.2598 34.8088 28.1658 34.3348 28.1668 33.8562C28.1668 32.5687 28.2168 32.3687 28.048 32.1375L26.3418 29.75C26.0584 29.351 25.9423 28.857 26.0182 28.3736C26.0941 27.8901 26.356 27.4555 26.748 27.1625C26.7679 27.1427 26.7949 27.1315 26.823 27.1315C26.8511 27.1315 26.8781 27.1427 26.898 27.1625L30.823 31.65C30.8793 31.7145 30.9483 31.7667 31.0256 31.8035C31.1029 31.8402 31.1869 31.8607 31.2725 31.8636C31.358 31.8666 31.4433 31.8519 31.5229 31.8205C31.6026 31.7891 31.6749 31.7417 31.7355 31.6812C33.073 30.3562 33.1668 30.3437 33.1668 30V21.4937L34.4168 21.875C34.7835 22.0047 35.1008 22.2452 35.3248 22.5632C35.5488 22.8812 35.6683 23.261 35.6668 23.65V33.875C35.6668 35.5875 34.4168 35.8562 34.4168 38V39.375C34.4168 39.5408 34.4826 39.6997 34.5998 39.8169C34.717 39.9341 34.876 40 35.0418 40C35.2075 40 35.3665 39.9341 35.4837 39.8169C35.6009 39.6997 35.6668 39.5408 35.6668 39.375V38C35.6668 36.275 36.9168 36.0375 36.9168 33.875V23.675C36.9163 23.0194 36.7096 22.3805 36.326 21.8489C35.9424 21.3172 35.4013 20.9197 34.7793 20.7125V20.7125Z" fill="#033C59"/>
<path d="M15.0417 12.5C15.0417 13.6125 15.3716 14.7001 15.9897 15.6251C16.6078 16.5501 17.4863 17.2711 18.5142 17.6968C19.542 18.1226 20.673 18.234 21.7641 18.0169C22.8553 17.7999 23.8576 17.2641 24.6442 16.4775C25.4309 15.6908 25.9666 14.6885 26.1837 13.5974C26.4007 12.5062 26.2893 11.3752 25.8636 10.3474C25.4378 9.31957 24.7169 8.44107 23.7918 7.82298C22.8668 7.2049 21.7793 6.875 20.6667 6.875C19.1749 6.875 17.7442 7.46763 16.6893 8.52252C15.6344 9.57742 15.0417 11.0082 15.0417 12.5ZM25.0417 12.5C25.0417 13.3653 24.7852 14.2112 24.3044 14.9306C23.8237 15.6501 23.1404 16.2108 22.341 16.542C21.5416 16.8731 20.6619 16.9597 19.8132 16.7909C18.9646 16.6221 18.185 16.2054 17.5732 15.5936C16.9613 14.9817 16.5446 14.2022 16.3758 13.3535C16.207 12.5049 16.2936 11.6252 16.6248 10.8258C16.9559 10.0263 17.5167 9.34305 18.2361 8.86232C18.9556 8.38159 19.8015 8.125 20.6667 8.125C21.8271 8.125 22.9399 8.58594 23.7603 9.40641C24.5808 10.2269 25.0417 11.3397 25.0417 12.5Z" fill="#033C59"/>
<path d="M31.2919 6.875C30.9544 6.875 30.9356 6.78125 29.5981 5.44375C29.5398 5.38548 29.4936 5.3163 29.4621 5.24016C29.4305 5.16402 29.4143 5.08241 29.4143 5C29.4143 4.91759 29.4305 4.83598 29.4621 4.75985C29.4936 4.68371 29.5398 4.61453 29.5981 4.55625C29.6564 4.49798 29.7256 4.45175 29.8017 4.42021C29.8778 4.38868 29.9595 4.37244 30.0419 4.37244C30.1243 4.37244 30.2059 4.38868 30.282 4.42021C30.3582 4.45175 30.4273 4.49798 30.4856 4.55625L31.2919 5.36875L33.3481 3.30625C33.4064 3.24798 33.4756 3.20175 33.5517 3.17021C33.6278 3.13868 33.7095 3.12244 33.7919 3.12244C33.8743 3.12244 33.9559 3.13868 34.032 3.17021C34.1082 3.20175 34.1773 3.24798 34.2356 3.30625C34.2939 3.36453 34.3401 3.43371 34.3717 3.50985C34.4032 3.58598 34.4194 3.66759 34.4194 3.75C34.4194 3.83241 34.4032 3.91402 34.3717 3.99016C34.3401 4.0663 34.2939 4.13548 34.2356 4.19375L31.7356 6.69375C31.6772 6.75168 31.608 6.79751 31.5318 6.82861C31.4557 6.85971 31.3741 6.87548 31.2919 6.875Z" fill="#F5F7FF"/>
<path d="M35.0417 12.5H36.2917C36.4575 12.5 36.6165 12.4342 36.7337 12.3169C36.8509 12.1997 36.9167 12.0408 36.9167 11.875C36.9167 11.7092 36.8509 11.5503 36.7337 11.4331C36.6165 11.3158 36.4575 11.25 36.2917 11.25H35.0417C34.876 11.25 34.717 11.3158 34.5998 11.4331C34.4826 11.5503 34.4167 11.7092 34.4167 11.875C34.4167 12.0408 34.4826 12.1997 34.5998 12.3169C34.717 12.4342 34.876 12.5 35.0417 12.5Z" fill="#0074FF"/>
<path d="M36.2917 13.75H35.0417C34.876 13.75 34.717 13.8158 34.5998 13.9331C34.4826 14.0503 34.4167 14.2092 34.4167 14.375C34.4167 14.5408 34.4826 14.6997 34.5998 14.8169C34.717 14.9342 34.876 15 35.0417 15H36.2917C36.4575 15 36.6165 14.9342 36.7337 14.8169C36.8509 14.6997 36.9167 14.5408 36.9167 14.375C36.9167 14.2092 36.8509 14.0503 36.7337 13.9331C36.6165 13.8158 36.4575 13.75 36.2917 13.75Z" fill="#0074FF"/>
<path d="M15.0417 20H13.7917C13.626 20 13.467 20.0658 13.3498 20.1831C13.2326 20.3003 13.1667 20.4592 13.1667 20.625C13.1667 20.7908 13.2326 20.9497 13.3498 21.0669C13.467 21.1842 13.626 21.25 13.7917 21.25H15.0417C15.2075 21.25 15.3665 21.1842 15.4837 21.0669C15.6009 20.9497 15.6667 20.7908 15.6667 20.625C15.6667 20.4592 15.6009 20.3003 15.4837 20.1831C15.3665 20.0658 15.2075 20 15.0417 20V20Z" fill="#96A1C3"/>
<path d="M17.5417 21.25H27.5417C27.7075 21.25 27.8665 21.1842 27.9837 21.0669C28.1009 20.9497 28.1667 20.7908 28.1667 20.625C28.1667 20.4592 28.1009 20.3003 27.9837 20.1831C27.8665 20.0658 27.7075 20 27.5417 20H17.5417C17.376 20 17.217 20.0658 17.0998 20.1831C16.9826 20.3003 16.9167 20.4592 16.9167 20.625C16.9167 20.7908 16.9826 20.9497 17.0998 21.0669C17.217 21.1842 17.376 21.25 17.5417 21.25Z" fill="#96A1C3"/>
<path d="M15.0417 23.125H13.7917C13.626 23.125 13.467 23.1908 13.3498 23.3081C13.2326 23.4253 13.1667 23.5842 13.1667 23.75C13.1667 23.9158 13.2326 24.0747 13.3498 24.1919C13.467 24.3092 13.626 24.375 13.7917 24.375H15.0417C15.2075 24.375 15.3665 24.3092 15.4837 24.1919C15.6009 24.0747 15.6667 23.9158 15.6667 23.75C15.6667 23.5842 15.6009 23.4253 15.4837 23.3081C15.3665 23.1908 15.2075 23.125 15.0417 23.125Z" fill="#96A1C3"/>
<path d="M27.5417 23.125H17.5417C17.376 23.125 17.217 23.1908 17.0998 23.3081C16.9826 23.4253 16.9167 23.5842 16.9167 23.75C16.9167 23.9158 16.9826 24.0747 17.0998 24.1919C17.217 24.3092 17.376 24.375 17.5417 24.375H27.5417C27.7075 24.375 27.8665 24.3092 27.9837 24.1919C28.1009 24.0747 28.1667 23.9158 28.1667 23.75C28.1667 23.5842 28.1009 23.4253 27.9837 23.3081C27.8665 23.1908 27.7075 23.125 27.5417 23.125Z" fill="#96A1C3"/>
<path d="M22.5417 31.25H18.7917C18.626 31.25 18.467 31.3158 18.3498 31.4331C18.2326 31.5503 18.1667 31.7092 18.1667 31.875C18.1667 32.0408 18.2326 32.1997 18.3498 32.3169C18.467 32.4342 18.626 32.5 18.7917 32.5H22.5417C22.7075 32.5 22.8665 32.4342 22.9837 32.3169C23.1009 32.1997 23.1667 32.0408 23.1667 31.875C23.1667 31.7092 23.1009 31.5503 22.9837 31.4331C22.8665 31.3158 22.7075 31.25 22.5417 31.25Z" fill="#96A1C3"/>
</g>
<defs>
<clipPath id="clip0_754_83030">
<rect width="40" height="40" fill="white" transform="translate(0.666748)"/>
</clipPath>
</defs>
</svg>
