<svg width="80" height="80" viewBox="0 0 80 80" fill="none" xmlns="http://www.w3.org/2000/svg">
<path d="M37.8182 79.2727C57.9013 79.2727 74.1819 62.9922 74.1819 42.9091C74.1819 22.826 57.9013 6.54544 37.8182 6.54544C17.7351 6.54544 1.45459 22.826 1.45459 42.9091C1.45459 62.9922 17.7351 79.2727 37.8182 79.2727Z" fill="#E7EFFF"/>
<path d="M8.72723 5.0909C9.93221 5.0909 10.909 4.11407 10.909 2.90908C10.909 1.7041 9.93221 0.727264 8.72723 0.727264C7.52224 0.727264 6.54541 1.7041 6.54541 2.90908C6.54541 4.11407 7.52224 5.0909 8.72723 5.0909Z" fill="#FF4D69"/>
<path d="M67.6364 5.0909C68.8414 5.0909 69.8182 4.11407 69.8182 2.90908C69.8182 1.7041 68.8414 0.727264 67.6364 0.727264C66.4314 0.727264 65.4546 1.7041 65.4546 2.90908C65.4546 4.11407 66.4314 5.0909 67.6364 5.0909Z" fill="#00C99F"/>
<path d="M77.091 69.8182C78.296 69.8182 79.2728 68.8413 79.2728 67.6363C79.2728 66.4314 78.296 65.4545 77.091 65.4545C75.886 65.4545 74.9092 66.4314 74.9092 67.6363C74.9092 68.8413 75.886 69.8182 77.091 69.8182Z" fill="#FFA100"/>
<path d="M6.66912 75.6363C7.87411 75.6363 8.85094 74.6595 8.85094 73.4545C8.85094 72.2495 7.87411 71.2727 6.66912 71.2727C5.46414 71.2727 4.4873 72.2495 4.4873 73.4545C4.4873 74.6595 5.46414 75.6363 6.66912 75.6363Z" fill="#00C99F"/>
<path d="M58.9091 14.5454V66.9091C58.9091 68.4522 58.2961 69.932 57.205 71.0232C56.1139 72.1143 54.634 72.7273 53.091 72.7273H17.011C14.1643 70.7449 11.6192 68.3615 9.45459 65.6509V14.5454C9.45459 13.0024 10.0676 11.5225 11.1587 10.4314C12.2498 9.34025 13.7297 8.72726 15.2728 8.72726H53.091C54.634 8.72726 56.1139 9.34025 57.205 10.4314C58.2961 11.5225 58.9091 13.0024 58.9091 14.5454Z" fill="#8FA2FF"/>
<path d="M53.0911 13.0909H15.2729C14.4696 13.0909 13.8184 13.7421 13.8184 14.5455V66.9091C13.8184 67.7124 14.4696 68.3636 15.2729 68.3636H53.0911C53.8944 68.3636 54.5456 67.7124 54.5456 66.9091V14.5455C54.5456 13.7421 53.8944 13.0909 53.0911 13.0909Z" fill="white"/>
<path d="M43.6366 5.81818H24.7275C23.9242 5.81818 23.2729 6.4694 23.2729 7.27272V16C23.2729 16.8033 23.9242 17.4545 24.7275 17.4545H43.6366C44.4399 17.4545 45.0911 16.8033 45.0911 16V7.27272C45.0911 6.4694 44.4399 5.81818 43.6366 5.81818Z" fill="#A5BCED"/>
<path d="M39.2726 5.81817H29.0908L30.2108 2.45089C30.3072 2.16063 30.4925 1.90812 30.7406 1.72925C30.9887 1.55038 31.2868 1.45425 31.5926 1.45453H36.7708C37.0767 1.45425 37.3748 1.55038 37.6229 1.72925C37.8709 1.90812 38.0563 2.16063 38.1526 2.45089L39.2726 5.81817Z" fill="#7F96D1"/>
<path d="M46.5455 21.0909H21.8183C20.2116 21.0909 18.9092 22.3934 18.9092 24V42.9091C18.9092 44.5157 20.2116 45.8182 21.8183 45.8182H46.5455C48.1522 45.8182 49.4546 44.5157 49.4546 42.9091V24C49.4546 22.3934 48.1522 21.0909 46.5455 21.0909Z" fill="#4E6AFF"/>
<path d="M34.182 38.5454C33.7962 38.5454 33.4262 38.3922 33.1534 38.1194C32.8807 37.8466 32.7274 37.4767 32.7274 37.0909V36.7854C32.7434 35.8727 33.0113 34.9821 33.5015 34.2121C33.9918 33.442 34.6853 32.8225 35.5056 32.4218C35.9654 32.1868 36.3545 31.8337 36.6327 31.3986C36.9109 30.9636 37.0683 30.4623 37.0887 29.9463C37.1092 29.4303 36.9918 28.9181 36.7488 28.4625C36.5059 28.0068 36.146 27.624 35.7061 27.3535C35.2662 27.0829 34.7623 26.9343 34.246 26.9229C33.7297 26.9115 33.2197 27.0378 32.7684 27.2887C32.317 27.5397 31.9406 27.9062 31.6778 28.3508C31.4149 28.7953 31.2752 29.3018 31.2729 29.8182C31.2729 30.2039 31.1196 30.5739 30.8468 30.8467C30.5741 31.1195 30.2041 31.2727 29.8183 31.2727C29.4325 31.2727 29.0626 31.1195 28.7898 30.8467C28.517 30.5739 28.3638 30.2039 28.3638 29.8182C28.3633 28.7841 28.6384 27.7686 29.1607 26.8762C29.6831 25.9838 30.4339 25.2467 31.3358 24.7408C32.2376 24.235 33.258 23.9786 34.2919 23.9982C35.3258 24.0177 36.3358 24.3125 37.2179 24.852C38.1 25.3916 38.8224 26.1565 39.3107 27.0681C39.7989 27.9796 40.0355 29.0048 39.9959 30.0381C39.9563 31.0714 39.642 32.0755 39.0854 32.947C38.5288 33.8184 37.75 34.5259 36.8292 34.9964C36.4853 35.1563 36.1921 35.4079 35.9817 35.7235C35.7713 36.039 35.6519 36.4065 35.6365 36.7854V37.0909C35.6365 37.4767 35.4833 37.8466 35.2105 38.1194C34.9377 38.3922 34.5677 38.5454 34.182 38.5454Z" fill="white"/>
<path d="M34.1821 42.9091C33.8944 42.9091 33.6132 42.8238 33.374 42.664C33.1348 42.5041 32.9484 42.277 32.8383 42.0112C32.7282 41.7454 32.6994 41.4529 32.7555 41.1708C32.8116 40.8886 32.9501 40.6294 33.1536 40.426C33.357 40.2226 33.6162 40.0841 33.8983 40.0279C34.1805 39.9718 34.4729 40.0006 34.7387 40.1107C35.0045 40.2208 35.2317 40.4072 35.3915 40.6464C35.5513 40.8856 35.6366 41.1669 35.6366 41.4545C35.6366 41.8403 35.4834 42.2103 35.2106 42.4831C34.9378 42.7558 34.5679 42.9091 34.1821 42.9091Z" fill="white"/>
<path d="M47.9999 50.1818H20.3635C20.1706 50.1818 19.9856 50.1052 19.8492 49.9688C19.7129 49.8324 19.6362 49.6474 19.6362 49.4545C19.6362 49.2617 19.7129 49.0767 19.8492 48.9403C19.9856 48.8039 20.1706 48.7273 20.3635 48.7273H47.9999C48.1928 48.7273 48.3777 48.8039 48.5141 48.9403C48.6505 49.0767 48.7271 49.2617 48.7271 49.4545C48.7271 49.6474 48.6505 49.8324 48.5141 49.9688C48.3777 50.1052 48.1928 50.1818 47.9999 50.1818Z" fill="#A5BCED"/>
<path d="M47.9999 54.5455H20.3635C20.1706 54.5455 19.9856 54.4688 19.8492 54.3324C19.7129 54.1961 19.6362 54.0111 19.6362 53.8182C19.6362 53.6253 19.7129 53.4403 19.8492 53.3039C19.9856 53.1675 20.1706 53.0909 20.3635 53.0909H47.9999C48.1928 53.0909 48.3777 53.1675 48.5141 53.3039C48.6505 53.4403 48.7271 53.6253 48.7271 53.8182C48.7271 54.0111 48.6505 54.1961 48.5141 54.3324C48.3777 54.4688 48.1928 54.5455 47.9999 54.5455Z" fill="#A5BCED"/>
<path d="M47.9999 58.9091H20.3635C20.1706 58.9091 19.9856 58.8325 19.8492 58.6961C19.7129 58.5597 19.6362 58.3747 19.6362 58.1818C19.6362 57.9889 19.7129 57.8039 19.8492 57.6675C19.9856 57.5312 20.1706 57.4545 20.3635 57.4545H47.9999C48.1928 57.4545 48.3777 57.5312 48.5141 57.6675C48.6505 57.8039 48.7271 57.9889 48.7271 58.1818C48.7271 58.3747 48.6505 58.5597 48.5141 58.6961C48.3777 58.8325 48.1928 58.9091 47.9999 58.9091Z" fill="#A5BCED"/>
<path d="M40.7273 63.2727H26.1819C25.989 63.2727 25.804 63.1961 25.6676 63.0597C25.5312 62.9233 25.4546 62.7383 25.4546 62.5455C25.4546 62.3526 25.5312 62.1676 25.6676 62.0312C25.804 61.8948 25.989 61.8182 26.1819 61.8182H40.7273C40.9202 61.8182 41.1052 61.8948 41.2416 62.0312C41.378 62.1676 41.4546 62.3526 41.4546 62.5455C41.4546 62.7383 41.378 62.9233 41.2416 63.0597C41.1052 63.1961 40.9202 63.2727 40.7273 63.2727Z" fill="#A5BCED"/>
<path d="M70.97 36.8336L66.856 32.7196L48.8569 50.7187L52.971 54.8327L70.97 36.8336Z" fill="#4E6AFF"/>
<path d="M72.5076 30.1533L73.5361 31.1818C73.9453 31.591 74.1752 32.146 74.1752 32.7246C74.1752 33.3033 73.9453 33.8582 73.5361 34.2674L70.9648 36.8387L66.8508 32.7246L69.4221 30.1533C69.8312 29.7441 70.3862 29.5143 70.9648 29.5143C71.5435 29.5143 72.0985 29.7441 72.5076 30.1533Z" fill="#323FD4"/>
<path d="M59.5927 51.2945C59.5154 51.216 59.457 51.121 59.4218 51.0166C59.3867 50.9122 59.3757 50.8012 59.3897 50.6919C59.4037 50.5826 59.4423 50.478 59.5027 50.3858C59.5631 50.2937 59.6436 50.2165 59.7382 50.16L62.2254 48.6618L71.4836 39.4036C71.6191 39.2674 71.6951 39.083 71.6951 38.8909C71.6951 38.6988 71.6191 38.5144 71.4836 38.3782L65.8254 32.7273C65.6885 32.5903 65.6116 32.4046 65.6116 32.2109C65.6116 32.0172 65.6885 31.8315 65.8254 31.6945C65.9624 31.5576 66.1481 31.4807 66.3418 31.4807C66.5355 31.4807 66.7212 31.5576 66.8582 31.6945L72.5164 37.3527C72.9249 37.7618 73.1544 38.3164 73.1544 38.8945C73.1544 39.4727 72.9249 40.0273 72.5164 40.4364C62.5527 50.4 63.1709 49.7964 63.0618 49.8909L60.4873 51.4327C60.3445 51.5142 60.1783 51.5448 60.0159 51.5198C59.8534 51.4947 59.7043 51.4153 59.5927 51.2945Z" fill="#8FA2FF"/>
<path d="M46.8003 61.0036L42.1748 62.5454L41.1421 61.52L42.6912 56.8873L46.8003 61.0036Z" fill="#8FA2FF"/>
<path d="M40.6326 63.0618C40.5644 62.9942 40.5103 62.9138 40.4734 62.8251C40.4365 62.7365 40.4175 62.6415 40.4175 62.5454C40.4175 62.4494 40.4365 62.3544 40.4734 62.2658C40.5103 62.1771 40.5644 62.0967 40.6326 62.0291L41.1417 61.52L42.1817 62.5454L41.6653 63.0618C41.5977 63.13 41.5173 63.1841 41.4287 63.221C41.34 63.2579 41.245 63.2769 41.149 63.2769C41.053 63.2769 40.9579 63.2579 40.8693 63.221C40.7807 63.1841 40.7002 63.13 40.6326 63.0618Z" fill="#323FD4"/>
<path d="M52.9705 54.8328L48.8564 50.7187L42.6853 56.8898L46.7994 61.0039L52.9705 54.8328Z" fill="#323FD4"/>
</svg>
