<svg width="41" height="41" viewBox="0 0 41 41" fill="none" xmlns="http://www.w3.org/2000/svg">
<g clip-path="url(#clip0_754_83234)">
<path d="M1.9165 14.4167H35.6665V31.9167C35.6665 32.5797 35.4031 33.2156 34.9343 33.6844C34.4654 34.1533 33.8295 34.4167 33.1665 34.4167H4.4165C3.75346 34.4167 3.11758 34.1533 2.64874 33.6844C2.1799 33.2156 1.9165 32.5797 1.9165 31.9167V14.4167Z" fill="#CCD3EB"/>
<path d="M33.1665 32.5417H4.4165C3.75346 32.5417 3.11758 32.2783 2.64874 31.8094C2.1799 31.3406 1.9165 30.7047 1.9165 30.0417V31.9167C1.9165 32.5797 2.1799 33.2156 2.64874 33.6844C3.11758 34.1533 3.75346 34.4167 4.4165 34.4167H33.1665C33.8295 34.4167 34.4654 34.1533 34.9343 33.6844C35.4031 33.2156 35.6665 32.5797 35.6665 31.9167V30.0417C35.6665 30.7047 35.4031 31.3406 34.9343 31.8094C34.4654 32.2783 33.8295 32.5417 33.1665 32.5417Z" fill="#96A1C3"/>
<path d="M2.5415 6.91667H35.0415C35.373 6.91667 35.691 7.04837 35.9254 7.28279C36.1598 7.51721 36.2915 7.83515 36.2915 8.16667V15.6667C36.2915 16.6612 35.8964 17.6151 35.1932 18.3183C34.4899 19.0216 33.5361 19.4167 32.5415 19.4167H5.0415C4.04694 19.4167 3.09311 19.0216 2.38985 18.3183C1.68659 17.6151 1.2915 16.6612 1.2915 15.6667V8.16667C1.2915 7.83515 1.4232 7.51721 1.65762 7.28279C1.89204 7.04837 2.20998 6.91667 2.5415 6.91667V6.91667Z" fill="#96A1C3"/>
<path d="M32.5415 17.5417H5.0415C4.04694 17.5417 3.09311 17.1466 2.38985 16.4433C1.68659 15.7401 1.2915 14.7862 1.2915 13.7917V15.6667C1.2915 16.6612 1.68659 17.6151 2.38985 18.3183C3.09311 19.0216 4.04694 19.4167 5.0415 19.4167H32.5415C33.5361 19.4167 34.4899 19.0216 35.1932 18.3183C35.8964 17.6151 36.2915 16.6612 36.2915 15.6667V13.7917C36.2915 14.7862 35.8964 15.7401 35.1932 16.4433C34.4899 17.1466 33.5361 17.5417 32.5415 17.5417Z" fill="#647499"/>
<path d="M11.2915 6.91667H8.7915V34.4167H11.2915V6.91667Z" fill="#F5F7FF"/>
<path d="M29.4165 6.91667H26.9165V34.4167H29.4165V6.91667Z" fill="#F5F7FF"/>
<path d="M11.9165 17.5417H8.1665C7.82133 17.5417 7.5415 17.8215 7.5415 18.1667V20.6667C7.5415 21.0118 7.82133 21.2917 8.1665 21.2917H11.9165C12.2617 21.2917 12.5415 21.0118 12.5415 20.6667V18.1667C12.5415 17.8215 12.2617 17.5417 11.9165 17.5417Z" fill="#0074FF"/>
<path d="M30.0415 17.5417H26.2915C25.9463 17.5417 25.6665 17.8215 25.6665 18.1667V20.6667C25.6665 21.0118 25.9463 21.2917 26.2915 21.2917H30.0415C30.3867 21.2917 30.6665 21.0118 30.6665 20.6667V18.1667C30.6665 17.8215 30.3867 17.5417 30.0415 17.5417Z" fill="#0074FF"/>
<path d="M21.2915 16.2917H16.2915C15.96 16.2917 15.642 16.16 15.4076 15.9256C15.1732 15.6911 15.0415 15.3732 15.0415 15.0417C15.0415 14.7102 15.1732 14.3922 15.4076 14.1578C15.642 13.9234 15.96 13.7917 16.2915 13.7917H21.2915C21.623 13.7917 21.941 13.9234 22.1754 14.1578C22.4098 14.3922 22.5415 14.7102 22.5415 15.0417C22.5415 15.3732 22.4098 15.6911 22.1754 15.9256C21.941 16.16 21.623 16.2917 21.2915 16.2917Z" fill="#F5F7FF"/>
<path d="M8.7915 3.79167H11.2915C11.623 3.79167 11.941 3.92337 12.1754 4.15779C12.4098 4.39221 12.5415 4.71015 12.5415 5.04167V6.91667H7.5415V5.04167C7.5415 4.71015 7.6732 4.39221 7.90762 4.15779C8.14204 3.92337 8.45998 3.79167 8.7915 3.79167Z" fill="#0074FF"/>
<path d="M26.9165 3.79167H29.4165C29.748 3.79167 30.066 3.92337 30.3004 4.15779C30.5348 4.39221 30.6665 4.71015 30.6665 5.04167V6.91667H25.6665V5.04167C25.6665 4.71015 25.7982 4.39221 26.0326 4.15779C26.267 3.92337 26.585 3.79167 26.9165 3.79167Z" fill="#0074FF"/>
<path d="M31.9165 40.0854C36.4038 40.0854 40.0415 36.4477 40.0415 31.9604C40.0415 27.4731 36.4038 23.8354 31.9165 23.8354C27.4292 23.8354 23.7915 27.4731 23.7915 31.9604C23.7915 36.4477 27.4292 40.0854 31.9165 40.0854Z" fill="#0074FF"/>
<path d="M31.9165 31.3354C31.6693 31.3354 31.4276 31.2621 31.222 31.1248C31.0165 30.9874 30.8563 30.7922 30.7617 30.5638C30.667 30.3354 30.6423 30.084 30.6905 29.8416C30.7388 29.5991 30.8578 29.3763 31.0326 29.2015C31.2074 29.0267 31.4302 28.9077 31.6726 28.8594C31.9151 28.8112 32.1664 28.836 32.3949 28.9306C32.6233 29.0252 32.8185 29.1854 32.9558 29.391C33.0932 29.5965 33.1665 29.8382 33.1665 30.0854C33.1665 30.2512 33.2324 30.4102 33.3496 30.5274C33.4668 30.6446 33.6257 30.7104 33.7915 30.7104C33.9573 30.7104 34.1162 30.6446 34.2334 30.5274C34.3507 30.4102 34.4165 30.2512 34.4165 30.0854C34.4147 29.5326 34.2297 28.9959 33.8904 28.5594C33.5512 28.1229 33.0768 27.8111 32.5415 27.6729V26.9604C32.5415 26.7947 32.4757 26.6357 32.3584 26.5185C32.2412 26.4013 32.0823 26.3354 31.9165 26.3354C31.7507 26.3354 31.5918 26.4013 31.4746 26.5185C31.3574 26.6357 31.2915 26.7947 31.2915 26.9604V27.6729C30.7093 27.831 30.2039 28.1942 29.8685 28.6956C29.5331 29.1969 29.3903 29.8027 29.4665 30.4011C29.5426 30.9995 29.8325 31.5502 30.2828 31.9517C30.7331 32.3531 31.3133 32.5782 31.9165 32.5854C32.1637 32.5854 32.4054 32.6587 32.611 32.7961C32.8165 32.9334 32.9767 33.1287 33.0714 33.3571C33.166 33.5855 33.1907 33.8368 33.1425 34.0793C33.0943 34.3218 32.9752 34.5445 32.8004 34.7193C32.6256 34.8941 32.4028 35.0132 32.1604 35.0614C31.9179 35.1096 31.6666 35.0849 31.4382 34.9903C31.2097 34.8957 31.0145 34.7354 30.8772 34.5299C30.7398 34.3243 30.6665 34.0826 30.6665 33.8354C30.6665 33.6697 30.6007 33.5107 30.4834 33.3935C30.3662 33.2763 30.2073 33.2104 30.0415 33.2104C29.8757 33.2104 29.7168 33.2763 29.5996 33.3935C29.4824 33.5107 29.4165 33.6697 29.4165 33.8354C29.4183 34.3883 29.6033 34.9249 29.9426 35.3614C30.2818 35.798 30.7562 36.1097 31.2915 36.2479V36.9604C31.2915 37.1262 31.3574 37.2852 31.4746 37.4024C31.5918 37.5196 31.7507 37.5854 31.9165 37.5854C32.0823 37.5854 32.2412 37.5196 32.3584 37.4024C32.4757 37.2852 32.5415 37.1262 32.5415 36.9604V36.2479C33.1237 36.0899 33.6291 35.7267 33.9645 35.2253C34.2999 34.7239 34.4427 34.1181 34.3666 33.5197C34.2904 32.9213 34.0005 32.3706 33.5502 31.9692C33.0999 31.5677 32.5197 31.3426 31.9165 31.3354Z" fill="#F5F7FF"/>
<path d="M16.2915 6.29167H15.0415C14.8757 6.29167 14.7168 6.35752 14.5996 6.47473C14.4824 6.59194 14.4165 6.75091 14.4165 6.91667C14.4165 7.08243 14.4824 7.2414 14.5996 7.35861C14.7168 7.47582 14.8757 7.54167 15.0415 7.54167H16.2915C16.4573 7.54167 16.6162 7.47582 16.7334 7.35861C16.8507 7.2414 16.9165 7.08243 16.9165 6.91667C16.9165 6.75091 16.8507 6.59194 16.7334 6.47473C16.6162 6.35752 16.4573 6.29167 16.2915 6.29167Z" fill="#033C59"/>
<path d="M36.2915 24.4167V17.9104C36.6988 17.2327 36.9147 16.4573 36.9165 15.6667V8.16667C36.9165 7.66939 36.719 7.19248 36.3673 6.84085C36.0157 6.48922 35.5388 6.29167 35.0415 6.29167H31.2915V5.04167C31.2915 4.54439 31.094 4.06748 30.7423 3.71585C30.3907 3.36422 29.9138 3.16667 29.4165 3.16667H26.9165C26.6544 3.16808 26.3955 3.22443 26.1565 3.33208C25.9175 3.43973 25.7037 3.5963 25.529 3.79167H24.4978C24.3893 3.79165 24.2827 3.76341 24.1885 3.70971C24.0942 3.65602 24.0156 3.57872 23.9603 3.48542L22.8165 1.61042C22.6542 1.32678 22.4206 1.09048 22.1389 0.92494C21.8571 0.759399 21.537 0.670368 21.2103 0.666672L16.9978 0.666672C16.674 0.667165 16.3559 0.751469 16.0745 0.911377C15.793 1.07128 15.5577 1.30135 15.3915 1.57917L14.2478 3.48542C14.1924 3.57872 14.1138 3.65602 14.0196 3.70971C13.9253 3.76341 13.8187 3.79165 13.7103 3.79167H12.679C12.5043 3.5963 12.2905 3.43973 12.0515 3.33208C11.8125 3.22443 11.5536 3.16808 11.2915 3.16667H8.7915C8.29422 3.16667 7.81731 3.36422 7.46568 3.71585C7.11405 4.06748 6.9165 4.54439 6.9165 5.04167V6.29167H2.5415C2.04422 6.29167 1.56731 6.48922 1.21568 6.84085C0.864048 7.19248 0.666504 7.66939 0.666504 8.16667L0.666504 15.6667C0.668264 16.4573 0.884252 17.2327 1.2915 17.9104V31.9167C1.2915 32.7455 1.62074 33.5403 2.2068 34.1264C2.49698 34.4166 2.84148 34.6467 3.22062 34.8038C3.59976 34.9608 4.00612 35.0417 4.4165 35.0417H21.2915C21.4573 35.0417 21.6162 34.9758 21.7334 34.8586C21.8507 34.7414 21.9165 34.5824 21.9165 34.4167C21.9165 34.2509 21.8507 34.0919 21.7334 33.9747C21.6162 33.8575 21.4573 33.7917 21.2915 33.7917H11.9165V21.9167C12.248 21.9167 12.566 21.785 12.8004 21.5506C13.0348 21.3161 13.1665 20.9982 13.1665 20.6667V20.0417H25.0415V20.6667C25.0415 20.9982 25.1732 21.3161 25.4076 21.5506C25.642 21.785 25.96 21.9167 26.2915 21.9167V25.2667C24.8629 26.4592 23.8516 28.0761 23.4047 29.8826C22.9578 31.6891 23.0984 33.591 23.8062 35.3121C24.514 37.0332 25.7521 38.4838 27.3407 39.4532C28.9292 40.4225 30.7854 40.8602 32.6397 40.7026C34.4939 40.545 36.2497 39.8003 37.6518 38.5767C39.0539 37.3531 40.0294 35.7144 40.4366 33.8985C40.8438 32.0827 40.6614 30.1843 39.916 28.4792C39.1706 26.774 37.9009 25.351 36.2915 24.4167ZM30.0415 23.4167V21.9167C30.373 21.9167 30.691 21.785 30.9254 21.5506C31.1598 21.3161 31.2915 20.9982 31.2915 20.6667V20.0417C32.7103 20.0417 33.7478 20.1604 35.0415 19.2542V23.7917C33.4487 23.1743 31.7085 23.0438 30.0415 23.4167V23.4167ZM26.2915 20.6667V18.1667H30.0415V20.6667H26.2915ZM28.7915 11.9167H27.5415V7.54167H28.7915V11.9167ZM28.7915 13.1667V16.9167H27.5415V13.1667H28.7915ZM35.6665 8.16667V15.6667C35.6665 16.4955 35.3373 17.2903 34.7512 17.8764C34.1652 18.4624 33.3703 18.7917 32.5415 18.7917H31.2915V18.1667C31.2915 17.8352 31.1598 17.5172 30.9254 17.2828C30.691 17.0484 30.373 16.9167 30.0415 16.9167V13.1667C30.2073 13.1667 30.3662 13.1008 30.4834 12.9836C30.6007 12.8664 30.6665 12.7074 30.6665 12.5417C30.6665 12.3759 30.6007 12.2169 30.4834 12.0997C30.3662 11.9825 30.2073 11.9167 30.0415 11.9167V7.54167H35.0415C35.2073 7.54167 35.3662 7.60752 35.4834 7.72473C35.6007 7.84194 35.6665 8.00091 35.6665 8.16667ZM26.9165 4.41667H29.4165C29.5823 4.41667 29.7412 4.48252 29.8584 4.59973C29.9757 4.71694 30.0415 4.87591 30.0415 5.04167V6.29167H26.2915V5.04167C26.2915 4.87591 26.3574 4.71694 26.4746 4.59973C26.5918 4.48252 26.7507 4.41667 26.9165 4.41667V4.41667ZM8.1665 5.04167C8.1665 4.87591 8.23235 4.71694 8.34956 4.59973C8.46677 4.48252 8.62574 4.41667 8.7915 4.41667H11.2915C11.4573 4.41667 11.6162 4.48252 11.7334 4.59973C11.8507 4.71694 11.9165 4.87591 11.9165 5.04167V6.29167H8.1665V5.04167ZM10.6665 11.9167H9.4165V7.54167H10.6665V11.9167ZM9.4165 16.9167V13.1667H10.6665V16.9167H9.4165ZM1.9165 8.16667C1.9165 8.00091 1.98235 7.84194 2.09956 7.72473C2.21677 7.60752 2.37574 7.54167 2.5415 7.54167H8.1665V11.9167C8.00074 11.9167 7.84177 11.9825 7.72456 12.0997C7.60735 12.2169 7.5415 12.3759 7.5415 12.5417C7.5415 12.7074 7.60735 12.8664 7.72456 12.9836C7.84177 13.1008 8.00074 13.1667 8.1665 13.1667V16.9167C7.83498 16.9167 7.51704 17.0484 7.28262 17.2828C7.0482 17.5172 6.9165 17.8352 6.9165 18.1667V18.7917H5.0415C4.2127 18.7917 3.41785 18.4624 2.8318 17.8764C2.24574 17.2903 1.9165 16.4955 1.9165 15.6667V8.16667ZM2.5415 31.9167V19.2542C3.904 20.2042 5.0415 20.0417 6.9165 20.0417V20.6667C6.9165 20.9982 7.0482 21.3161 7.28262 21.5506C7.51704 21.785 7.83498 21.9167 8.1665 21.9167V33.7917H4.4165C3.91922 33.7917 3.44231 33.5941 3.09068 33.2425C2.73905 32.8909 2.5415 32.414 2.5415 31.9167V31.9167ZM10.6665 33.7917H9.4165V21.9167H10.6665V33.7917ZM8.1665 20.6667V18.1667H11.9165V20.6667H8.1665ZM13.1665 18.7917V18.1667C13.1665 17.8352 13.0348 17.5172 12.8004 17.2828C12.566 17.0484 12.248 16.9167 11.9165 16.9167V13.1667C12.0823 13.1667 12.2412 13.1008 12.3584 12.9836C12.4757 12.8664 12.5415 12.7074 12.5415 12.5417C12.5415 12.3759 12.4757 12.2169 12.3584 12.0997C12.2412 11.9825 12.0823 11.9167 11.9165 11.9167V7.54167H12.5415C12.7073 7.54167 12.8662 7.47582 12.9834 7.35861C13.1007 7.2414 13.1665 7.08243 13.1665 6.91667V5.04167H13.7103C14.034 5.04118 14.3521 4.95687 14.6336 4.79697C14.915 4.63706 15.1503 4.407 15.3165 4.12917L16.4603 2.25417C16.5116 2.15505 16.5885 2.07147 16.683 2.01212C16.7775 1.95277 16.8862 1.91981 16.9978 1.91667H21.2103C21.3187 1.91669 21.4253 1.94494 21.5196 1.99863C21.6138 2.05233 21.6924 2.12962 21.7478 2.22292L22.8915 4.12917C23.0577 4.407 23.293 4.63706 23.5745 4.79697C23.8559 4.95687 24.174 5.04118 24.4978 5.04167H25.0415V6.29167H18.7915C18.6257 6.29167 18.4668 6.35752 18.3496 6.47473C18.2324 6.59194 18.1665 6.75091 18.1665 6.91667C18.1665 7.08243 18.2324 7.2414 18.3496 7.35861C18.4668 7.47582 18.6257 7.54167 18.7915 7.54167H26.2915V11.9167C26.1257 11.9167 25.9668 11.9825 25.8496 12.0997C25.7324 12.2169 25.6665 12.3759 25.6665 12.5417C25.6665 12.7074 25.7324 12.8664 25.8496 12.9836C25.9668 13.1008 26.1257 13.1667 26.2915 13.1667V16.9167C25.96 16.9167 25.642 17.0484 25.4076 17.2828C25.1732 17.5172 25.0415 17.8352 25.0415 18.1667V18.7917H13.1665ZM27.5415 21.9167H28.7915V23.7917C28.359 23.9667 27.941 24.1757 27.5415 24.4167V21.9167ZM31.9165 39.4604C30.4331 39.4604 28.9831 39.0206 27.7497 38.1964C26.5164 37.3723 25.5551 36.201 24.9874 34.8305C24.4197 33.4601 24.2712 31.9521 24.5606 30.4972C24.85 29.0424 25.5643 27.706 26.6132 26.6571C27.6621 25.6082 28.9985 24.8939 30.4533 24.6045C31.9082 24.3151 33.4162 24.4637 34.7866 25.0313C36.1571 25.599 37.3284 26.5603 38.1525 27.7936C38.9766 29.027 39.4165 30.4771 39.4165 31.9604C39.4165 33.9495 38.6263 35.8572 37.2198 37.2637C35.8133 38.6702 33.9056 39.4604 31.9165 39.4604V39.4604Z" fill="#033C59"/>
<path d="M15.6665 31.9167H14.4165C14.2507 31.9167 14.0918 31.8508 13.9746 31.7336C13.8574 31.6164 13.7915 31.4574 13.7915 31.2917C13.7915 31.1259 13.8574 30.9669 13.9746 30.8497C14.0918 30.7325 14.2507 30.6667 14.4165 30.6667H15.6665C15.8323 30.6667 15.9912 30.7325 16.1084 30.8497C16.2257 30.9669 16.2915 31.1259 16.2915 31.2917C16.2915 31.4574 16.2257 31.6164 16.1084 31.7336C15.9912 31.8508 15.8323 31.9167 15.6665 31.9167Z" fill="#F5F7FF"/>
<path d="M15.6665 29.4167H14.4165C14.2507 29.4167 14.0918 29.3508 13.9746 29.2336C13.8574 29.1164 13.7915 28.9574 13.7915 28.7917C13.7915 28.6259 13.8574 28.4669 13.9746 28.3497C14.0918 28.2325 14.2507 28.1667 14.4165 28.1667H15.6665C15.8323 28.1667 15.9912 28.2325 16.1084 28.3497C16.2257 28.4669 16.2915 28.6259 16.2915 28.7917C16.2915 28.9574 16.2257 29.1164 16.1084 29.2336C15.9912 29.3508 15.8323 29.4167 15.6665 29.4167Z" fill="#F5F7FF"/>
</g>
<defs>
<clipPath id="clip0_754_83234">
<rect width="40" height="40" fill="white" transform="translate(0.666504 0.666672)"/>
</clipPath>
</defs>
</svg>
