<svg width="1216" height="168" viewBox="0 0 1216 168" fill="none" xmlns="http://www.w3.org/2000/svg">
<g clip-path="url(#clip0_763_81888)">
<path d="M1202.76 141.29C1196.5 141.29 1191.26 145.64 1189.88 151.48L1150.18 151.35C1163.87 142.48 1171.02 129.03 1171.02 111.86C1171.02 99.22 1162.61 86.48 1150.63 79.9C1161.52 73.34 1167.33 60.48 1167.33 49.97C1167.22 34.14 1160.12 21.09 1146.79 12.25C1135.63 4.84001 1120.64 0.76001 1104.59 0.76001C1079.02 0.76001 1047.24 10.94 1041.8 39.64L1041.3 42.3L1074.1 52.03C1074.1 52.03 1076.19 45.04 1076.24 44.87C1077.39 41.52 1080.23 38.76 1084.73 36.65C1089.93 34.21 1097.09 32.81 1104.36 32.81C1125.21 32.81 1132.64 41.69 1132.64 49.95C1132.47 60.89 1120.1 64.18 1109.69 65H1101.79V94.78H1109.73C1126.61 95.62 1134.81 101.28 1134.81 112.08C1134.81 127.39 1114.61 131.44 1103.92 131.44C1098.57 131.44 1090.49 130.29 1083.86 127.07C1079.05 124.74 1075.91 121.79 1074.44 118.28L1071.43 109.97L1038.91 119.61L1039.39 122.25C1041.58 134.39 1048.26 144.27 1058.93 151.31H26.08C24.64 145.56 19.45 141.29 13.25 141.29C5.94001 141.29 0.0100098 147.21 0.0100098 154.52C0.0100098 161.83 5.94001 167.75 13.25 167.75C19.61 167.75 24.91 163.27 26.19 157.3H1071.27L1072.38 151.52C1062.31 147.52 1049.82 139.5 1045.88 123.8L1067.88 117.28C1070.92 131.88 1090.94 137.43 1103.94 137.43C1121.71 137.43 1140.83 129.5 1140.83 112.08C1140.83 102.14 1135.48 90.04 1109.97 88.79H1107.81V71H1110.06C1128.32 69.58 1138.47 62.14 1138.66 50C1138.66 46.13 1137.01 26.82 1104.38 26.82C1096.25 26.82 1088.17 28.43 1082.2 31.23C1075.48 34.38 1071.36 38.95 1070.09 44.6L1048.32 38.15C1052.58 23.12 1069.42 6.78001 1104.6 6.78001C1143.59 6.78001 1161.19 28.51 1161.34 50.02C1161.34 60.29 1154.69 73.28 1142.38 77.11L1133.43 79.9L1142.34 82.82C1155.07 87 1165.04 99.76 1165.04 111.88C1165.04 130.9 1155.48 144.24 1136.62 151.53L1137.69 157.32L1189.87 157.5C1191.21 163.38 1196.47 167.78 1202.77 167.78C1210.08 167.78 1216.01 161.86 1216.01 154.55C1216.01 147.24 1210.08 141.32 1202.77 141.32L1202.76 141.29Z" fill="#FF931F"/>
<path d="M13.24 159.55C16.0124 159.55 18.26 157.302 18.26 154.53C18.26 151.758 16.0124 149.51 13.24 149.51C10.4675 149.51 8.21997 151.758 8.21997 154.53C8.21997 157.302 10.4675 159.55 13.24 159.55Z" fill="white"/>
<path d="M1202.76 159.55C1205.53 159.55 1207.78 157.302 1207.78 154.53C1207.78 151.758 1205.53 149.51 1202.76 149.51C1199.99 149.51 1197.74 151.758 1197.74 154.53C1197.74 157.302 1199.99 159.55 1202.76 159.55Z" fill="white"/>
</g>
<defs>
<clipPath id="clip0_763_81888">
<rect width="1216" height="167" fill="white" transform="translate(0 0.76001)"/>
</clipPath>
</defs>
</svg>
