<svg width="32" height="32" viewBox="0 0 32 32" fill="none" xmlns="http://www.w3.org/2000/svg">
<g clip-path="url(#clip0_754_82294)">
<path d="M1 14.5H22V25.5C22 26.0304 21.7893 26.5391 21.4142 26.9142C21.0391 27.2893 20.5304 27.5 20 27.5H3C2.46957 27.5 1.96086 27.2893 1.58579 26.9142C1.21071 26.5391 1 26.0304 1 25.5V14.5Z" fill="#F5F7FF"/>
<path d="M20 26H3C2.46957 26 1.96086 25.7893 1.58579 25.4142C1.21071 25.0391 1 24.5304 1 24V25.5C1 26.0304 1.21071 26.5391 1.58579 26.9142C1.96086 27.2893 2.46957 27.5 3 27.5H20C20.5304 27.5 21.0391 27.2893 21.4142 26.9142C21.7893 26.5391 22 26.0304 22 25.5V24C22 24.5304 21.7893 25.0391 21.4142 25.4142C21.0391 25.7893 20.5304 26 20 26Z" fill="#CCD3EB"/>
<path d="M21.915 15.265L11.915 19.81C11.7847 19.8694 11.6432 19.9002 11.5 19.9002C11.3568 19.9002 11.2153 19.8694 11.085 19.81L1.085 15.265C0.910485 15.1854 0.762546 15.0573 0.658822 14.8959C0.555098 14.7346 0.499966 14.5468 0.5 14.355V10.5C0.5 10.2348 0.605357 9.98043 0.792893 9.79289C0.98043 9.60536 1.23478 9.5 1.5 9.5H21.5C21.7652 9.5 22.0196 9.60536 22.2071 9.79289C22.3946 9.98043 22.5 10.2348 22.5 10.5V14.355C22.5 14.5468 22.4449 14.7346 22.3412 14.8959C22.2375 15.0573 22.0895 15.1854 21.915 15.265Z" fill="#CCD3EB"/>
<path d="M21.915 13.765L11.915 18.31C11.7847 18.3694 11.6432 18.4002 11.5 18.4002C11.3568 18.4002 11.2153 18.3694 11.085 18.31L1.085 13.765C0.910485 13.6854 0.762546 13.5573 0.658822 13.3959C0.555098 13.2346 0.499966 13.0468 0.5 12.855V14.355C0.499966 14.5468 0.555098 14.7346 0.658822 14.8959C0.762546 15.0573 0.910485 15.1854 1.085 15.265L11.085 19.81C11.2153 19.8694 11.3568 19.9002 11.5 19.9002C11.6432 19.9002 11.7847 19.8694 11.915 19.81L21.915 15.265C22.0895 15.1854 22.2375 15.0573 22.3412 14.8959C22.4449 14.7346 22.5 14.5468 22.5 14.355V12.855C22.5 13.0468 22.4449 13.2346 22.3412 13.3959C22.2375 13.5573 22.0895 13.6854 21.915 13.765Z" fill="#96A1C3"/>
<path d="M16 6.5V9.5H14V6.5H9V9.5H7V6.5C7 5.96957 7.21071 5.46086 7.58579 5.08579C7.96086 4.71071 8.46957 4.5 9 4.5H14C14.5304 4.5 15.0391 4.71071 15.4142 5.08579C15.7893 5.46086 16 5.96957 16 6.5Z" fill="#96A1C3"/>
<path d="M7 7.5H4V9.5H7V7.5Z" fill="#0074FF"/>
<path d="M19 7.5H16V9.5H19V7.5Z" fill="#0074FF"/>
<path d="M31.5 8C31.4998 7.35094 31.3192 6.7147 30.9782 6.16239C30.6373 5.61008 30.1495 5.16346 29.5693 4.87244C28.9891 4.58141 28.3395 4.45745 27.6929 4.5144C27.0463 4.57135 26.4284 4.80697 25.908 5.19493C25.3876 5.58289 24.9854 6.1079 24.7462 6.7113C24.5071 7.31471 24.4404 7.97273 24.5537 8.61183C24.667 9.25093 24.9558 9.84594 25.3878 10.3304C25.8198 10.8148 26.378 11.1696 27 11.355V26.5C27 26.7652 27.1054 27.0196 27.2929 27.2071C27.4804 27.3946 27.7348 27.5 28 27.5C28.2652 27.5 28.5196 27.3946 28.7071 27.2071C28.8946 27.0196 29 26.7652 29 26.5V11.355C29.7225 11.1396 30.3561 10.6967 30.8065 10.0922C31.257 9.48768 31.5002 8.75389 31.5 8V8Z" fill="#0074FF"/>
<path d="M27 21.5H24V25.5H27V21.5Z" fill="#CCD3EB"/>
<path d="M28 9.5C28.8284 9.5 29.5 8.82843 29.5 8C29.5 7.17157 28.8284 6.5 28 6.5C27.1716 6.5 26.5 7.17157 26.5 8C26.5 8.82843 27.1716 9.5 28 9.5Z" fill="#F5F7FF"/>
<path d="M11.5 24C13.7091 24 15.5 22.2091 15.5 20C15.5 17.7909 13.7091 16 11.5 16C9.29086 16 7.5 17.7909 7.5 20C7.5 22.2091 9.29086 24 11.5 24Z" fill="#0074FF"/>
<path d="M8.5 27H7.5C7.36739 27 7.24021 27.0527 7.14645 27.1464C7.05268 27.2402 7 27.3674 7 27.5C7 27.6326 7.05268 27.7598 7.14645 27.8536C7.24021 27.9473 7.36739 28 7.5 28H8.5C8.63261 28 8.75979 27.9473 8.85355 27.8536C8.94732 27.7598 9 27.6326 9 27.5C9 27.3674 8.94732 27.2402 8.85355 27.1464C8.75979 27.0527 8.63261 27 8.5 27Z" fill="#033C59"/>
<path d="M21.5 9H19.5V7.5C19.5 7.36739 19.4473 7.24021 19.3536 7.14645C19.2598 7.05268 19.1326 7 19 7H16.5V6.5C16.5 5.83696 16.2366 5.20107 15.7678 4.73223C15.2989 4.26339 14.663 4 14 4H9C8.33696 4 7.70107 4.26339 7.23223 4.73223C6.76339 5.20107 6.5 5.83696 6.5 6.5V7H4C3.86739 7 3.74021 7.05268 3.64645 7.14645C3.55268 7.24021 3.5 7.36739 3.5 7.5V9H1.5C1.10218 9 0.720644 9.15804 0.43934 9.43934C0.158035 9.72064 0 10.1022 0 10.5L0 14.355C0.000426225 14.5655 0.0451669 14.7736 0.131312 14.9657C0.217457 15.1578 0.343077 15.3296 0.5 15.47V25.5C0.5 26.163 0.763392 26.7989 1.23223 27.2678C1.46438 27.4999 1.73998 27.6841 2.04329 27.8097C2.34661 27.9353 2.6717 28 3 28H5.5C5.63261 28 5.75979 27.9473 5.85355 27.8536C5.94732 27.7598 6 27.6326 6 27.5C6 27.3674 5.94732 27.2402 5.85355 27.1464C5.75979 27.0527 5.63261 27 5.5 27H3C2.60218 27 2.22064 26.842 1.93934 26.5607C1.65804 26.2794 1.5 25.8978 1.5 25.5V16L7.225 18.6C7.00285 19.2759 6.94412 19.9948 7.05362 20.6977C7.16312 21.4007 7.43774 22.0677 7.85493 22.644C8.27213 23.2202 8.82001 23.6894 9.45363 24.0129C10.0873 24.3364 10.7886 24.5051 11.5 24.5051C12.2114 24.5051 12.9127 24.3364 13.5464 24.0129C14.18 23.6894 14.7279 23.2202 15.1451 22.644C15.5623 22.0677 15.8369 21.4007 15.9464 20.6977C16.0559 19.9948 15.9971 19.2759 15.775 18.6L21.5 16V25.5C21.5 25.8978 21.342 26.2794 21.0607 26.5607C20.7794 26.842 20.3978 27 20 27H10.5C10.3674 27 10.2402 27.0527 10.1464 27.1464C10.0527 27.2402 10 27.3674 10 27.5C10 27.6326 10.0527 27.7598 10.1464 27.8536C10.2402 27.9473 10.3674 28 10.5 28H20C20.663 28 21.2989 27.7366 21.7678 27.2678C22.2366 26.7989 22.5 26.163 22.5 25.5V15.47C22.6569 15.3296 22.7825 15.1578 22.8687 14.9657C22.9548 14.7736 22.9996 14.5655 23 14.355V10.5C23 10.1022 22.842 9.72064 22.5607 9.43934C22.2794 9.15804 21.8978 9 21.5 9ZM18.5 8V9H16.5V8H18.5ZM7.5 6.5C7.5 6.10218 7.65804 5.72064 7.93934 5.43934C8.22064 5.15804 8.60218 5 9 5H14C14.3978 5 14.7794 5.15804 15.0607 5.43934C15.342 5.72064 15.5 6.10218 15.5 6.5V9H14.5V6.5C14.5 6.36739 14.4473 6.24021 14.3536 6.14645C14.2598 6.05268 14.1326 6 14 6H9C8.86739 6 8.74021 6.05268 8.64645 6.14645C8.55268 6.24021 8.5 6.36739 8.5 6.5V9H7.5V6.5ZM9.5 9V7H13.5V9H9.5ZM4.5 8H6.5V9H4.5V8ZM11.5 23.5C10.8078 23.5 10.1311 23.2947 9.5555 22.9101C8.97993 22.5256 8.53133 21.9789 8.26642 21.3394C8.00151 20.6999 7.9322 19.9961 8.06725 19.3172C8.2023 18.6383 8.53564 18.0146 9.02513 17.5251C9.51461 17.0356 10.1382 16.7023 10.8172 16.5673C11.4961 16.4322 12.1999 16.5015 12.8394 16.7664C13.4789 17.0313 14.0256 17.4799 14.4101 18.0555C14.7947 18.6311 15 19.3078 15 20C15 20.9283 14.6313 21.8185 13.9749 22.4749C13.3185 23.1313 12.4283 23.5 11.5 23.5V23.5ZM7.64 17.695L1.29 14.81C1.20321 14.7698 1.12976 14.7056 1.07836 14.625C1.02696 14.5443 0.999763 14.4506 1 14.355V10.5C1 10.3674 1.05268 10.2402 1.14645 10.1464C1.24021 10.0527 1.36739 10 1.5 10H21.5C21.6326 10 21.7598 10.0527 21.8536 10.1464C21.9473 10.2402 22 10.3674 22 10.5V14.355C22.0002 14.4506 21.973 14.5443 21.9216 14.625C21.8702 14.7056 21.7968 14.7698 21.71 14.81L15.36 17.695C14.9603 17.0281 14.3947 16.4761 13.7182 16.0928C13.0417 15.7095 12.2775 15.5081 11.5 15.5081C10.7225 15.5081 9.95825 15.7095 9.28177 16.0928C8.60529 16.4761 8.03965 17.0281 7.64 17.695V17.695Z" fill="#033C59"/>
<path d="M30.54 4.91C30.0945 4.54489 29.5754 4.2803 29.0183 4.13432C28.4611 3.98833 27.879 3.9644 27.3117 4.06416C26.7444 4.16392 26.2054 4.38501 25.7314 4.71232C25.2575 5.03963 24.8598 5.46544 24.5656 5.96062C24.2714 6.4558 24.0876 7.00868 24.0268 7.58144C23.966 8.15421 24.0296 8.73335 24.2133 9.27926C24.397 9.82518 24.6964 10.325 25.091 10.7445C25.4857 11.164 25.9663 11.4934 26.5 11.71V19.5C26.5 19.6326 26.5527 19.7598 26.6464 19.8536C26.7402 19.9473 26.8674 20 27 20C27.1326 20 27.2598 19.9473 27.3536 19.8536C27.4473 19.7598 27.5 19.6326 27.5 19.5V11.355C27.5047 11.2441 27.4724 11.1347 27.4081 11.0442C27.3439 10.9537 27.2513 10.8871 27.145 10.855C26.4291 10.6425 25.8182 10.1707 25.4317 9.53176C25.0452 8.89283 24.9109 8.13271 25.055 7.4C25.169 6.8198 25.452 6.28625 25.8683 5.86636C26.2847 5.44648 26.8158 5.15898 27.395 5.04C28.1539 4.88047 28.9451 5.02103 29.6027 5.43218C30.2602 5.84333 30.733 6.49314 30.9218 7.24529C31.1107 7.99745 31.0009 8.79351 30.6156 9.4665C30.2302 10.1395 29.5993 10.6371 28.855 10.855C28.7487 10.8871 28.6561 10.9537 28.5919 11.0442C28.5276 11.1347 28.4953 11.2441 28.5 11.355V26.5C28.5 26.6326 28.4473 26.7598 28.3536 26.8536C28.2598 26.9473 28.1326 27 28 27C27.8674 27 27.7402 26.9473 27.6464 26.8536C27.5527 26.7598 27.5 26.6326 27.5 26.5V21.5C27.5 21.3674 27.4473 21.2402 27.3536 21.1464C27.2598 21.0527 27.1326 21 27 21H24C23.8674 21 23.7402 21.0527 23.6464 21.1464C23.5527 21.2402 23.5 21.3674 23.5 21.5V25.5C23.5 25.6326 23.5527 25.7598 23.6464 25.8536C23.7402 25.9473 23.8674 26 24 26H26.5V26.5C26.5 26.8978 26.658 27.2794 26.9393 27.5607C27.2206 27.842 27.6022 28 28 28C28.3978 28 28.7794 27.842 29.0607 27.5607C29.342 27.2794 29.5 26.8978 29.5 26.5V11.705C30.1423 11.4446 30.706 11.0219 31.1357 10.4781C31.5655 9.93432 31.8465 9.28821 31.9514 8.60311C32.0563 7.918 31.9813 7.2174 31.7339 6.56999C31.4864 5.92257 31.0751 5.35055 30.54 4.91V4.91ZM24.5 25V24H25C25.1326 24 25.2598 23.9473 25.3536 23.8536C25.4473 23.7598 25.5 23.6326 25.5 23.5C25.5 23.3674 25.4473 23.2402 25.3536 23.1464C25.2598 23.0527 25.1326 23 25 23H24.5V22H26.5V25H24.5Z" fill="#033C59"/>
<path d="M11.5 22C11.3674 22 11.2402 21.9473 11.1464 21.8536C11.0527 21.7598 11 21.6326 11 21.5V18.5C11 18.3674 11.0527 18.2402 11.1464 18.1464C11.2402 18.0527 11.3674 18 11.5 18C11.6326 18 11.7598 18.0527 11.8536 18.1464C11.9473 18.2402 12 18.3674 12 18.5V21.5C12 21.6326 11.9473 21.7598 11.8536 21.8536C11.7598 21.9473 11.6326 22 11.5 22Z" fill="#F5F7FF"/>
<path d="M5.5 25.5H3.5C3.36739 25.5 3.24021 25.4473 3.14645 25.3536C3.05268 25.2598 3 25.1326 3 25C3 24.8674 3.05268 24.7402 3.14645 24.6464C3.24021 24.5527 3.36739 24.5 3.5 24.5H5.5C5.63261 24.5 5.75979 24.5527 5.85355 24.6464C5.94732 24.7402 6 24.8674 6 25C6 25.1326 5.94732 25.2598 5.85355 25.3536C5.75979 25.4473 5.63261 25.5 5.5 25.5Z" fill="#96A1C3"/>
<path d="M5.5 23.5H3.5C3.36739 23.5 3.24021 23.4473 3.14645 23.3536C3.05268 23.2598 3 23.1326 3 23C3 22.8674 3.05268 22.7402 3.14645 22.6464C3.24021 22.5527 3.36739 22.5 3.5 22.5H5.5C5.63261 22.5 5.75979 22.5527 5.85355 22.6464C5.94732 22.7402 6 22.8674 6 23C6 23.1326 5.94732 23.2598 5.85355 23.3536C5.75979 23.4473 5.63261 23.5 5.5 23.5Z" fill="#96A1C3"/>
</g>
<defs>
<clipPath id="clip0_754_82294">
<rect width="32" height="32" fill="white"/>
</clipPath>
</defs>
</svg>
