<svg width="952" height="699" viewBox="0 0 952 699" fill="none" xmlns="http://www.w3.org/2000/svg">
<path d="M740.5 566H755" stroke="#B7B9C5" stroke-width="3"/>
<path d="M740.5 620H755" stroke="#B7B9C5" stroke-width="3"/>
<path d="M740 540V666C740 670.418 743.582 674 748 674H755" stroke="#B7B9C5" stroke-width="3"/>
<circle cx="624" cy="272" r="4.5" stroke="#B7B9C5" stroke-width="3"/>
<circle cx="624" cy="193" r="4.5" stroke="#B7B9C5" stroke-width="3"/>
<circle cx="320" cy="229" r="4.5" stroke="#B7B9C5" stroke-width="3"/>
<circle cx="842" cy="363" r="4.5" stroke="#B7B9C5" stroke-width="3"/>
<circle cx="598" cy="363" r="4.5" stroke="#B7B9C5" stroke-width="3"/>
<circle cx="760" cy="674" r="4.5" stroke="#B7B9C5" stroke-width="3"/>
<circle cx="760" cy="620" r="4.5" stroke="#B7B9C5" stroke-width="3"/>
<circle cx="760" cy="566" r="4.5" stroke="#B7B9C5" stroke-width="3"/>
<circle cx="354" cy="363" r="4.5" stroke="#B7B9C5" stroke-width="3"/>
<circle cx="110" cy="363" r="4.5" stroke="#B7B9C5" stroke-width="3"/>
<path d="M110 358V325C110 320.582 113.582 317 118 317H834C838.418 317 842 320.582 842 325V358" stroke="#B7B9C5" stroke-width="3"/>
<path d="M472.5 272H618.5" stroke="#B7B9C5" stroke-width="3"/>
<path d="M326 229L472 229" stroke="#B7B9C5" stroke-width="3"/>
<path d="M472.5 193H618.5" stroke="#B7B9C5" stroke-width="3"/>
<path d="M598 317L598 358" stroke="#B7B9C5" stroke-width="3"/>
<path d="M354 317L354 358" stroke="#B7B9C5" stroke-width="3"/>
<path d="M471.5 53.5V317.5" stroke="#B7B9C5" stroke-width="3"/>
<path d="M464.287 17.488V36.936H461.867V17.488H464.287ZM448.755 25.76C448.733 21.58 450.867 18.918 453.815 18.896C456.741 18.918 458.875 21.58 458.875 25.76C458.875 29.984 456.741 32.646 453.815 32.624C450.867 32.646 448.733 29.984 448.755 25.76ZM451.043 25.76C451.043 28.752 452.165 30.49 453.815 30.468C455.443 30.49 456.565 28.752 456.587 25.76C456.565 22.812 455.443 21.052 453.815 21.052C452.165 21.052 451.043 22.812 451.043 25.76ZM474.061 22.152C474.061 25.628 475.799 29.126 478.813 30.6L477.361 32.492C475.227 31.436 473.731 29.368 472.895 26.882C472.037 29.544 470.453 31.722 468.253 32.844L466.757 30.908C469.903 29.456 471.685 25.738 471.685 22.152V19.072H474.061V22.152ZM479.957 36.892V17.488H482.333V25.1H485.325V27.124H482.333V36.892H479.957ZM502.315 17.488V36.892H499.939V17.488H502.315ZM486.255 31.524C487.795 31.524 489.533 31.502 491.359 31.458V29.676C489.181 29.324 487.751 28.004 487.751 26.156C487.751 23.956 489.709 22.504 492.547 22.504C495.385 22.504 497.365 23.956 497.343 26.156C497.365 28.004 495.913 29.324 493.735 29.676V31.37C495.451 31.304 497.167 31.172 498.795 30.952L498.971 32.712C494.703 33.438 490.083 33.482 486.563 33.504L486.255 31.524ZM486.651 21.624V19.732H491.359V17.576H493.779V19.732H498.443V21.624H486.651ZM490.039 26.156C490.017 27.256 491.073 27.916 492.547 27.916C494.043 27.916 495.077 27.256 495.099 26.156C495.077 25.012 494.043 24.33 492.547 24.352C491.073 24.33 490.017 25.012 490.039 26.156Z" fill="#4762F0"/>
<rect x="366.5" y="0.5" width="219" height="53" rx="7.5" stroke="#4762F0"/>
<path d="M730.171 184.676C730.171 189.67 726.871 193.19 721.239 194.752L720.271 192.904C724.605 191.716 727.179 189.45 727.597 186.612H721.283V184.676H730.171ZM723.615 202.672V195.236H736.375V202.672H723.615ZM725.947 200.78H733.999V197.128H725.947V200.78ZM730.259 190.22V188.24H733.999V183.532H736.375V194.444H733.999V190.22H730.259ZM746.061 188.152C746.061 191.628 747.799 195.126 750.813 196.6L749.361 198.492C747.227 197.436 745.731 195.368 744.895 192.882C744.037 195.544 742.453 197.722 740.253 198.844L738.757 196.908C741.903 195.456 743.685 191.738 743.685 188.152V185.072H746.061V188.152ZM751.957 202.892V183.488H754.333V191.1H757.325V193.124H754.333V202.892H751.957ZM774.403 195.896V202.892H772.027V197.788H761.159V195.896H774.403ZM758.431 189.252C758.409 186.524 760.609 184.544 763.535 184.544C765.141 184.544 766.527 185.16 767.451 186.172H772.027V183.488H774.403V194.972H772.027V192.376H767.473C766.549 193.432 765.163 194.048 763.535 194.048C760.609 194.048 758.409 192.068 758.431 189.252ZM760.675 189.252C760.697 190.946 761.885 192.002 763.535 192.024C765.141 192.002 766.351 190.946 766.351 189.252C766.351 187.646 765.141 186.568 763.535 186.568C761.885 186.568 760.697 187.646 760.675 189.252ZM768.485 190.44H772.027V188.108H768.485C768.595 188.46 768.639 188.856 768.639 189.252C768.639 189.67 768.595 190.066 768.485 190.44Z" fill="#4762F0"/>
<rect x="638.5" y="166.5" width="219" height="53" rx="7.5" stroke="#4762F0"/>
<path d="M707.767 262.488V281.936H705.391V262.488H707.767ZM692.675 277.36V269.572H699.363V266.14H692.675V264.204H701.827V271.464H695.139V275.38C698.197 275.358 700.815 275.204 703.851 274.72L704.071 276.656C700.771 277.228 697.867 277.338 694.391 277.36H692.675ZM720.665 265.172C720.643 268.164 723.591 271.178 727.661 271.86L726.561 273.884C723.305 273.202 720.665 271.222 719.411 268.626C718.113 271.2 715.451 273.18 712.217 273.884L711.161 271.86C715.165 271.156 718.091 268.142 718.113 265.172V263.72H720.665V265.172ZM710.633 279.428V277.448H728.365V279.428H710.633ZM745.398 264.292V266.624C745.376 269.44 745.376 272.102 744.518 276.216L742.142 275.996C742.538 274.302 742.736 272.828 742.868 271.464L731.45 272.036L731.142 270.1L742.978 269.638C743.022 268.604 743.022 267.614 743.022 266.624V266.228H731.67V264.292H745.398ZM729.646 279.428V277.492H747.334V279.428H729.646ZM759.484 263.94V265.084C759.462 266.404 759.462 268.34 759 270.804L756.668 270.584C757.042 268.56 757.108 267.064 757.13 265.876H749.584V263.94H759.484ZM748.44 272.344C749.584 272.344 750.86 272.322 752.224 272.3V268.34H754.6V272.212C756.602 272.146 758.67 271.992 760.54 271.728L760.672 273.444C756.646 274.17 752.048 274.258 748.66 274.28L748.44 272.344ZM751.344 281.54V275.732H753.72V279.604H764.764V281.54H751.344ZM761.684 277.052V262.488H764.148V268.56H766.656V270.54H764.148V277.052H761.684ZM783.822 262.488V281.936H781.446V262.488H783.822ZM768.73 277.36V269.572H775.418V266.14H768.73V264.204H777.882V271.464H771.194V275.38C774.252 275.358 776.87 275.204 779.906 274.72L780.126 276.656C776.826 277.228 773.922 277.338 770.446 277.36H768.73ZM802.923 274.896V281.892H800.547V276.788H789.679V274.896H802.923ZM786.951 268.252C786.929 265.524 789.129 263.544 792.055 263.544C793.661 263.544 795.047 264.16 795.971 265.172H800.547V262.488H802.923V273.972H800.547V271.376H795.993C795.069 272.432 793.683 273.048 792.055 273.048C789.129 273.048 786.929 271.068 786.951 268.252ZM789.195 268.252C789.217 269.946 790.405 271.002 792.055 271.024C793.661 271.002 794.871 269.946 794.871 268.252C794.871 266.646 793.661 265.568 792.055 265.568C790.405 265.568 789.217 266.646 789.195 268.252ZM797.005 269.44H800.547V267.108H797.005C797.115 267.46 797.159 267.856 797.159 268.252C797.159 268.67 797.115 269.066 797.005 269.44Z" fill="#4762F0"/>
<rect x="638.5" y="245.5" width="219" height="53" rx="7.5" stroke="#4762F0"/>
<path d="M174.869 219.532V233.7H172.493V226.572H169.061V224.636H172.493V219.532H174.869ZM158.589 229.476C161.669 228.486 163.319 225.934 163.341 223.36V222.832H159.293V220.896H169.765V222.832H165.761V223.36C165.761 225.714 167.323 228.134 170.337 229.124L169.105 231.016C166.949 230.29 165.409 228.794 164.573 226.968C163.715 228.992 162.109 230.62 159.821 231.412L158.589 229.476ZM162.153 238.54V232.468H164.529V236.604H175.353V238.54H162.153ZM195.378 229.212V231.104H187.854V234.668H185.478V231.104H177.602V229.212H195.378ZM179.758 238.54V232.908H182.134V236.604H193.398V238.54H179.758ZM179.846 227.408V220.368H193.09V227.408H179.846ZM182.178 225.516H190.714V222.26H182.178V225.516ZM202.996 220.368C205.944 220.346 208.078 221.996 208.056 224.416C208.078 226.814 205.944 228.508 202.996 228.508C200.048 228.508 197.936 226.814 197.936 224.416C197.936 221.996 200.048 220.346 202.996 220.368ZM196.66 229.828C200.158 229.828 205.064 229.762 209.244 229.124L209.42 230.884C207.748 231.214 206.01 231.434 204.316 231.566V238.32H201.896V231.698C200.114 231.764 198.42 231.786 196.968 231.808L196.66 229.828ZM200.268 224.416C200.246 225.736 201.39 226.55 202.996 226.528C204.646 226.55 205.79 225.736 205.812 224.416C205.79 223.096 204.646 222.26 202.996 222.26C201.39 222.26 200.246 223.096 200.268 224.416ZM210.52 238.892V219.532H212.896V238.892H210.52ZM231.954 219.532V234.184H229.534V232.512H225.75V230.84H229.534V219.532H231.954ZM215.586 228.244C219.15 228.222 223.968 228.178 228.082 227.672L228.214 229.388C226.63 229.652 224.958 229.828 223.33 229.938V233.656H220.954V230.07C219.128 230.136 217.39 230.136 215.85 230.136L215.586 228.244ZM217.038 223.668C217.06 221.6 219.018 220.214 221.922 220.236C224.738 220.214 226.718 221.6 226.718 223.668C226.718 225.736 224.738 227.078 221.922 227.056C219.04 227.078 217.06 225.736 217.038 223.668ZM218.138 238.54V232.776H220.558V236.604H232.394V238.54H218.138ZM219.326 223.668C219.304 224.724 220.36 225.318 221.922 225.34C223.396 225.318 224.452 224.724 224.474 223.668C224.452 222.612 223.396 221.974 221.922 221.996C220.36 221.974 219.304 222.612 219.326 223.668Z" fill="#4762F0"/>
<rect x="86.5" y="202.5" width="219" height="53" rx="7.5" stroke="#4762F0"/>
<rect x="366" y="86" width="220" height="54" rx="8" fill="#4762F0"/>
<path d="M473.926 103.532V118.184H471.506V116.512H467.722V114.84H471.506V103.532H473.926ZM457.558 112.244C461.122 112.222 465.94 112.178 470.054 111.672L470.186 113.388C468.602 113.652 466.93 113.828 465.302 113.938V117.656H462.926V114.07C461.1 114.136 459.362 114.136 457.822 114.136L457.558 112.244ZM459.01 107.668C459.032 105.6 460.99 104.214 463.894 104.236C466.71 104.214 468.69 105.6 468.69 107.668C468.69 109.736 466.71 111.078 463.894 111.056C461.012 111.078 459.032 109.736 459.01 107.668ZM460.11 122.54V116.776H462.53V120.604H474.366V122.54H460.11ZM461.298 107.668C461.276 108.724 462.332 109.318 463.894 109.34C465.368 109.318 466.424 108.724 466.446 107.668C466.424 106.612 465.368 105.974 463.894 105.996C462.332 105.974 461.276 106.612 461.298 107.668ZM483.612 107.008C483.612 109.362 485.152 111.606 488.188 112.552L487.044 114.4C484.866 113.718 483.326 112.332 482.468 110.594C481.588 112.64 479.96 114.246 477.628 115.016L476.44 113.124C479.564 112.112 481.192 109.604 481.192 107.008V106.788H477.1V104.852H487.66V106.788H483.612V107.008ZM479.08 119.196C479.08 116.864 481.588 115.5 485.636 115.5C489.684 115.5 492.148 116.864 492.148 119.196C492.148 121.506 489.684 122.892 485.636 122.892C481.588 122.892 479.08 121.506 479.08 119.196ZM481.456 119.196C481.456 120.384 482.974 121.022 485.636 121C488.298 121.022 489.794 120.384 489.816 119.196C489.794 118.008 488.298 117.37 485.636 117.392C482.974 117.37 481.456 118.008 481.456 119.196ZM489.552 115.06V103.488H491.972V108.152H494.7V110.132H491.972V115.06H489.552Z" fill="white"/>
<rect y="375" width="220" height="54" rx="8" fill="#65B029"/>
<path d="M79.3618 392.532V403.84H76.9858V401.728H72.3658V399.792H76.9858V397.68H72.5638C71.3318 400.782 68.4938 402.938 64.2698 404.104L63.3018 402.212C67.8558 400.98 70.2758 398.67 70.6498 395.788H64.3138V393.852H73.2458C73.2458 394.534 73.2018 395.172 73.0918 395.788H76.9858V392.532H79.3618ZM66.3818 407.932C66.3598 405.556 68.9778 404.082 72.9378 404.06C76.8758 404.082 79.4938 405.556 79.4938 407.932C79.4938 410.33 76.8758 411.804 72.9378 411.804C68.9778 411.804 66.3598 410.33 66.3818 407.932ZM68.7578 407.932C68.7358 409.208 70.3418 409.912 72.9378 409.912C75.5118 409.912 77.1178 409.208 77.1178 407.932C77.1178 406.634 75.5118 405.93 72.9378 405.952C70.3418 405.93 68.7358 406.634 68.7578 407.932ZM87.5075 393.588C89.0695 393.566 90.4335 394.16 91.3575 395.128H95.9995V392.488H98.3755V403.928H95.9995V401.42H91.3795C90.4555 402.388 89.0915 402.982 87.5075 402.96C84.5815 402.982 82.3815 401.024 82.4035 398.296C82.3815 395.546 84.5815 393.566 87.5075 393.588ZM84.6475 398.296C84.6695 399.88 85.8575 400.958 87.5075 400.936C89.1355 400.958 90.3235 399.88 90.3235 398.296C90.3235 396.646 89.1355 395.612 87.5075 395.656C85.8575 395.612 84.6695 396.646 84.6475 398.296ZM85.2195 408.108C85.1975 405.71 87.7495 404.324 91.8195 404.324C95.8895 404.324 98.4415 405.71 98.4635 408.108C98.4415 410.484 95.8895 411.892 91.8195 411.892C87.7495 411.892 85.1975 410.484 85.2195 408.108ZM87.5515 408.108C87.5515 409.34 89.1135 410.022 91.8195 410C94.5695 410.022 96.1095 409.34 96.1315 408.108C96.1095 406.832 94.5695 406.15 91.8195 406.172C89.1135 406.15 87.5515 406.832 87.5515 408.108ZM92.4355 399.528H95.9995V397.064H92.4355C92.5455 397.46 92.6115 397.856 92.6115 398.296C92.6115 398.736 92.5455 399.132 92.4355 399.528ZM117.345 392.488V411.892H114.925V392.488H117.345ZM101.285 406.568C106.345 404.148 108.699 400.87 109.139 396.448H102.253V394.556H111.581C111.559 400.342 109.315 405.248 102.517 408.46L101.285 406.568ZM132.311 394.028V395.788H120.827V394.028H125.359V392.356H127.779V394.028H132.311ZM120.255 403.268C121.795 403.268 123.533 403.268 125.359 403.224V402.08C123.159 401.794 121.795 400.782 121.795 399.264C121.795 397.482 123.687 396.338 126.591 396.36C129.429 396.338 131.365 397.482 131.387 399.264C131.365 400.782 129.957 401.816 127.779 402.08V403.136C129.407 403.048 131.035 402.938 132.575 402.74L132.751 404.368C128.593 405.05 124.017 405.116 120.563 405.116L120.255 403.268ZM122.983 408.24V406.392H136.359V411.892H133.939V408.24H122.983ZM124.083 399.264C124.083 400.078 125.073 400.54 126.591 400.54C128.065 400.54 129.077 400.078 129.099 399.264C129.077 398.428 128.065 397.966 126.591 397.944C125.073 397.966 124.083 398.428 124.083 399.264ZM133.939 405.6V392.532H136.359V405.6H133.939ZM155.285 392.488V402.388H152.953V392.488H155.285ZM139.137 400.496C142.283 399.506 143.933 397.02 143.933 394.468V392.972H146.397V394.468C146.397 396.932 148.047 399.242 151.105 400.188L149.961 402.036C147.695 401.332 146.067 399.88 145.187 398.032C144.329 400.034 142.679 401.64 140.369 402.388L139.137 400.496ZM142.437 405.16V403.268H155.329V408.328H144.813V409.824H155.901V411.76H142.481V406.568H152.953V405.16H142.437Z" fill="white"/>
<path d="M244 383C244 378.582 247.582 375 252 375H456C460.418 375 464 378.582 464 383V429H244V383Z" fill="#009721"/>
<path d="M313.855 392.488V404.016H311.479V399.308H308.179V397.328H311.479V392.488H313.855ZM297.531 402.08C300.655 401.024 302.305 398.406 302.327 395.832V395.7H298.279V393.764H308.751V395.7H304.747V395.832C304.747 398.186 306.309 400.562 309.323 401.552L308.091 403.444C305.935 402.74 304.417 401.244 303.581 399.44C302.723 401.486 301.117 403.158 298.807 403.972L297.531 402.08ZM300.699 408.196C300.677 405.886 303.207 404.522 307.299 404.5C311.413 404.522 313.921 405.886 313.943 408.196C313.921 410.55 311.413 411.914 307.299 411.936C303.207 411.914 300.677 410.55 300.699 408.196ZM303.075 408.196C303.053 409.428 304.593 410.066 307.299 410.044C310.005 410.066 311.545 409.428 311.567 408.196C311.545 407.008 310.005 406.348 307.299 406.348C304.593 406.348 303.053 407.008 303.075 408.196ZM322.617 396.844C322.617 398.912 323.871 400.936 326.313 401.772L325.213 403.576C323.453 402.916 322.221 401.706 321.539 400.21C320.835 401.838 319.603 403.18 317.777 403.884L316.677 402.124C319.119 401.178 320.329 399.066 320.373 396.844V396.712H317.161V394.82H320.373V392.708H322.617V394.82H325.741V396.712H322.617V396.844ZM319.933 407.228V405.292H333.221V411.892H330.845V407.228H319.933ZM326.797 404.324V392.84H329.085V397.504H330.977V392.532H333.221V404.368H330.977V399.44H329.085V404.324H326.797ZM353.378 407.624V409.56H335.646V407.624H343.302V403.84H337.582V393.764H339.958V396.976H348.978V393.764H351.354V403.84H345.634V407.624H353.378ZM339.958 401.904H348.978V398.868H339.958V401.904ZM370.896 392.488V404.236H368.52V400.232H365.748V398.252H368.52V392.488H370.896ZM354.66 396.228V394.292H359.192V392.312H361.568V394.292H366.1V396.228H354.66ZM355.76 400.452C355.782 398.428 357.696 396.976 360.38 396.976C363.086 396.976 364.978 398.428 365 400.452C364.978 402.564 363.086 403.95 360.38 403.928C357.696 403.95 355.782 402.564 355.76 400.452ZM358.004 411.672V405.116H370.896V411.672H358.004ZM358.092 400.452C358.048 401.53 358.994 402.168 360.38 402.168C361.766 402.168 362.69 401.53 362.712 400.452C362.69 399.418 361.766 398.78 360.38 398.78C358.994 398.78 358.048 399.418 358.092 400.452ZM360.38 409.736H368.564V407.008H360.38V409.736ZM378.294 393.236V395.348H386.698V393.236H389.074V401.112H383.706V402.872H391.362V404.808H373.674V402.872H381.286V401.112H375.962V393.236H378.294ZM375.83 411.54V406.04H378.25V409.604H389.338V411.54H375.83ZM378.294 399.176H386.698V397.196H378.294V399.176ZM410.419 403.796V405.688H402.675V411.892H400.299V405.688H392.643V403.796H410.419ZM394.799 401.772V393.28H397.175V395.656H405.843V393.28H408.219V401.772H394.799ZM397.175 399.836H405.843V397.548H397.175V399.836Z" fill="white"/>
<path d="M244.5 433.5H463.5V482.5H244.5V433.5Z" fill="white"/>
<path d="M304.949 455.352V456.288H300.089V458.484H306.605V459.42H292.457V458.484H298.973V456.288H294.437V451.176H295.517V455.352H304.949ZM294.185 463.524C294.185 461.742 296.183 460.716 299.513 460.716C302.843 460.716 304.823 461.742 304.841 463.524C304.823 465.306 302.843 466.314 299.513 466.332C296.183 466.314 294.185 465.306 294.185 463.524ZM295.301 463.524C295.301 464.694 296.921 465.414 299.513 465.432C302.105 465.414 303.725 464.694 303.725 463.524C303.725 462.336 302.105 461.616 299.513 461.616C296.921 461.616 295.301 462.336 295.301 463.524ZM312.154 452.112C314.278 452.112 315.772 453.966 315.952 456.9H319.714V450.852H320.794V466.404H319.714V457.8H315.97C315.862 460.878 314.332 462.822 312.154 462.804C309.868 462.822 308.302 460.734 308.302 457.476C308.302 454.2 309.868 452.112 312.154 452.112ZM309.382 457.476C309.364 460.05 310.498 461.832 312.154 461.832C313.774 461.832 314.926 460.05 314.926 457.476C314.926 454.866 313.774 453.084 312.154 453.084C310.498 453.084 309.364 454.866 309.382 457.476ZM327.819 451.608C329.943 451.608 331.527 452.832 331.779 454.668H335.235V450.852H336.351V459.168H335.235V455.604H331.779C331.563 457.476 329.961 458.718 327.819 458.7C325.479 458.718 323.823 457.278 323.823 455.172C323.823 453.048 325.479 451.608 327.819 451.608ZM324.903 455.172C324.903 456.648 326.109 457.764 327.819 457.764C329.511 457.764 330.735 456.648 330.735 455.172C330.735 453.642 329.511 452.544 327.819 452.544C326.109 452.544 324.903 453.642 324.903 455.172ZM326.487 466.152V459.996H327.603V462.12H335.235V459.996H336.351V466.152H326.487ZM327.603 465.216H335.235V463.02H327.603V465.216ZM353.311 463.38V464.316H339.127V463.38H345.643V459.888H340.855V452.004H341.971V454.92H350.431V452.004H351.547V459.888H346.723V463.38H353.311ZM341.971 458.952H350.431V455.856H341.971V458.952ZM367.464 450.852V460.284H366.348V456.576H363.504V455.64H366.348V450.852H367.464ZM354.684 453.516V452.58H358.68V450.708H359.76V452.58H363.72V453.516H354.684ZM355.656 457.152C355.638 455.532 357.114 454.398 359.184 454.38C361.29 454.398 362.748 455.532 362.748 457.152C362.748 458.826 361.29 459.906 359.184 459.924C357.114 459.906 355.638 458.826 355.656 457.152ZM356.7 457.152C356.7 458.268 357.726 459.024 359.184 459.024C360.66 459.024 361.686 458.268 361.704 457.152C361.686 456.072 360.66 455.28 359.184 455.28C357.726 455.28 356.7 456.072 356.7 457.152ZM357.42 466.152V461.148H367.464V466.152H357.42ZM358.536 465.216H366.384V462.048H358.536V465.216ZM382.985 450.852V466.368H381.905V450.852H382.985ZM370.493 462.444C374.741 460.428 377.027 457.26 377.297 453.48H371.177V452.58H378.413C378.413 456.954 376.199 460.914 371.105 463.38L370.493 462.444ZM395.553 452.364V453.264H386.409V452.364H390.441V450.744H391.521V452.364H395.553ZM385.869 459.708C387.219 459.708 388.803 459.708 390.441 459.654V458.502C388.551 458.376 387.345 457.512 387.345 456.216C387.345 454.794 388.785 453.912 390.981 453.912C393.177 453.912 394.635 454.794 394.653 456.216C394.635 457.512 393.411 458.376 391.521 458.502V459.618C393.033 459.546 394.581 459.438 396.021 459.24L396.093 460.032C392.655 460.59 388.857 460.644 386.049 460.644L385.869 459.708ZM388.137 462.876V461.976H398.505V466.368H397.389V462.876H388.137ZM388.389 456.216C388.389 457.098 389.433 457.71 390.981 457.692C392.547 457.71 393.591 457.098 393.573 456.216C393.591 455.316 392.547 454.722 390.981 454.74C389.433 454.722 388.389 455.316 388.389 456.216ZM397.389 461.184V450.888H398.505V461.184H397.389ZM415.538 460.14V461.076H408.95V466.368H407.87V461.076H401.318V460.14H415.538ZM403.19 458.124V451.5H404.306V453.768H412.55V451.5H413.666V458.124H403.19ZM404.306 457.224H412.55V454.704H404.306V457.224Z" fill="#191D31"/>
<path d="M244.5 433.5H463.5V482.5H244.5V433.5Z" stroke="#B7B9C5"/>
<path d="M732.5 433.5H951.5V482.5H732.5V433.5Z" fill="white"/>
<path d="M817.976 460.32V461.256H811.388V466.368H810.308V461.256H803.756V460.32H817.976ZM805.736 458.556V451.608H816.176V452.544H806.816V454.56H815.78V455.496H806.816V457.62H816.32V458.556H805.736ZM824.425 455.82C824.425 458.322 826.405 461.058 828.565 462.084L827.881 462.984C826.171 462.12 824.605 460.212 823.903 458.07C823.201 460.374 821.509 462.462 819.817 463.344L819.133 462.48C821.239 461.436 823.345 458.466 823.345 455.82V453.444H819.673V452.472H828.061V453.444H824.425V455.82ZM830.185 466.368V450.852H831.265V457.26H833.965V458.196H831.265V466.368H830.185ZM843.474 452.076V452.868C843.456 453.858 843.456 455.388 843.042 457.476L841.926 457.368C842.358 455.388 842.376 454.02 842.394 453.048H835.806V452.076H843.474ZM834.87 458.988C835.914 458.988 837.084 458.988 838.326 458.952V455.46H839.442V458.916C841.206 458.844 843.042 458.718 844.698 458.484L844.77 459.348C841.53 459.87 837.768 459.942 834.978 459.96L834.87 458.988ZM837.282 466.008V461.472H838.398V465.072H847.47V466.008H837.282ZM845.85 462.552V450.852H846.966V456H849.342V456.972H846.966V462.552H845.85ZM863.206 450.852V466.404H862.126V450.852H863.206ZM851.362 453.3V452.364H858.526V457.728H852.514V461.652H852.658C855.214 461.634 857.572 461.526 860.47 461.076L860.614 462.012C857.644 462.462 855.268 462.588 852.658 462.588H851.398V456.792H857.41V453.3H851.362ZM880.203 460.14V461.076H873.615V466.368H872.535V461.076H865.983V460.14H880.203ZM867.855 458.124V451.5H868.971V453.768H877.215V451.5H878.331V458.124H867.855ZM868.971 457.224H877.215V454.704H868.971V457.224Z" fill="#191D31"/>
<path d="M732.5 433.5H951.5V482.5H732.5V433.5Z" stroke="#B7B9C5"/>
<path d="M244.5 487.5H463.5V536.5H244.5V487.5Z" fill="white"/>
<path d="M341.736 517.38V518.316H327.552V517.38H334.068V513.888H329.28V506.004H330.396V508.92H338.856V506.004H339.972V513.888H335.148V517.38H341.736ZM330.396 512.952H338.856V509.856H330.396V512.952ZM355.889 504.852V514.284H354.773V510.576H351.929V509.64H354.773V504.852H355.889ZM343.109 507.516V506.58H347.105V504.708H348.185V506.58H352.145V507.516H343.109ZM344.081 511.152C344.063 509.532 345.539 508.398 347.609 508.38C349.715 508.398 351.173 509.532 351.173 511.152C351.173 512.826 349.715 513.906 347.609 513.924C345.539 513.906 344.063 512.826 344.081 511.152ZM345.125 511.152C345.125 512.268 346.151 513.024 347.609 513.024C349.085 513.024 350.111 512.268 350.129 511.152C350.111 510.072 349.085 509.28 347.609 509.28C346.151 509.28 345.125 510.072 345.125 511.152ZM345.845 520.152V515.148H355.889V520.152H345.845ZM346.961 519.216H354.809V516.048H346.961V519.216ZM363.273 506.256V519H362.013V507.588H361.977L358.953 509.568V508.272L361.977 506.256H363.273ZM380.443 514.14V515.076H373.855V520.368H372.775V515.076H366.223V514.14H380.443ZM368.095 512.124V505.5H369.211V507.768H377.455V505.5H378.571V512.124H368.095ZM369.211 511.224H377.455V508.704H369.211V511.224Z" fill="#191D31"/>
<path d="M244.5 487.5H463.5V536.5H244.5V487.5Z" stroke="#B7B9C5"/>
<path d="M732.5 487.5H951.5V536.5H732.5V487.5Z" fill="white"/>
<path d="M817.976 514.32V515.256H811.388V520.368H810.308V515.256H803.756V514.32H817.976ZM805.736 512.556V505.608H816.176V506.544H806.816V508.56H815.78V509.496H806.816V511.62H816.32V512.556H805.736ZM824.425 509.82C824.425 512.322 826.405 515.058 828.565 516.084L827.881 516.984C826.171 516.12 824.605 514.212 823.903 512.07C823.201 514.374 821.509 516.462 819.817 517.344L819.133 516.48C821.239 515.436 823.345 512.466 823.345 509.82V507.444H819.673V506.472H828.061V507.444H824.425V509.82ZM830.185 520.368V504.852H831.265V511.26H833.965V512.196H831.265V520.368H830.185ZM840.306 509.82C840.306 512.466 842.43 515.148 844.626 516.084L843.978 516.984C842.178 516.138 840.486 514.284 839.766 512.07C839.046 514.392 837.354 516.462 835.626 517.344L834.942 516.48C837.048 515.454 839.19 512.502 839.19 509.82V507.444H835.41V506.472H844.122V507.444H840.306V509.82ZM846.534 520.368V504.852H847.614V520.368H846.534ZM863.134 504.888V516.66H862.018V514.932H858.742V514.104H862.018V504.888H863.134ZM850.354 512.16C853.27 512.142 857.176 512.124 860.506 511.692L860.578 512.52C859.138 512.754 857.626 512.88 856.15 512.97V516.084H855.034V513.024C853.414 513.096 851.866 513.096 850.534 513.096L850.354 512.16ZM851.65 508.2C851.65 506.598 853.18 505.536 855.466 505.536C857.752 505.536 859.3 506.598 859.318 508.2C859.3 509.856 857.752 510.882 855.466 510.9C853.18 510.882 851.65 509.856 851.65 508.2ZM852.694 520.008V515.508H853.774V519.072H863.53V520.008H852.694ZM852.694 508.2C852.694 509.298 853.828 510.036 855.466 510.036C857.086 510.036 858.22 509.298 858.238 508.2C858.22 507.138 857.086 506.382 855.466 506.4C853.828 506.382 852.694 507.138 852.694 508.2ZM880.203 514.14V515.076H873.615V520.368H872.535V515.076H865.983V514.14H880.203ZM867.855 512.124V505.5H868.971V507.768H877.215V505.5H878.331V512.124H867.855ZM868.971 511.224H877.215V508.704H868.971V511.224Z" fill="#191D31"/>
<path d="M732.5 487.5H951.5V536.5H732.5V487.5Z" stroke="#B7B9C5"/>
<path d="M244.5 541.5H463.5V590.5H244.5V541.5Z" fill="white"/>
<path d="M340.242 571.38V572.316H326.058V571.38H332.574V567.888H327.786V560.004H328.902V562.92H337.362V560.004H338.478V567.888H333.654V571.38H340.242ZM328.902 566.952H337.362V563.856H328.902V566.952ZM354.395 558.852V568.284H353.279V564.576H350.435V563.64H353.279V558.852H354.395ZM341.615 561.516V560.58H345.611V558.708H346.691V560.58H350.651V561.516H341.615ZM342.587 565.152C342.569 563.532 344.045 562.398 346.115 562.38C348.221 562.398 349.679 563.532 349.679 565.152C349.679 566.826 348.221 567.906 346.115 567.924C344.045 567.906 342.569 566.826 342.587 565.152ZM343.631 565.152C343.631 566.268 344.657 567.024 346.115 567.024C347.591 567.024 348.617 566.268 348.635 565.152C348.617 564.072 347.591 563.28 346.115 563.28C344.657 563.28 343.631 564.072 343.631 565.152ZM344.351 574.152V569.148H354.395V574.152H344.351ZM345.467 573.216H353.315V570.048H345.467V573.216ZM357.747 573V572.064L362.031 567.42C363.669 565.638 364.353 564.756 364.371 563.568C364.353 562.146 363.201 561.192 361.671 561.192C360.087 561.192 359.043 562.272 359.043 563.748H357.855C357.837 561.606 359.493 560.094 361.707 560.112C363.939 560.094 365.523 561.606 365.523 563.568C365.523 564.99 364.875 566.052 362.679 568.392L359.511 571.776V571.884H365.919V573H357.747ZM381.937 568.14V569.076H375.349V574.368H374.269V569.076H367.717V568.14H381.937ZM369.589 566.124V559.5H370.705V561.768H378.949V559.5H380.065V566.124H369.589ZM370.705 565.224H378.949V562.704H370.705V565.224Z" fill="#191D31"/>
<path d="M244.5 541.5H463.5V590.5H244.5V541.5Z" stroke="#B7B9C5"/>
<path d="M771.5 541.5H951.5V590.5H771.5V541.5Z" fill="#F3F5F7"/>
<path d="M829.698 568.32V569.256H823.11V574.368H822.03V569.256H815.478V568.32H829.698ZM817.458 566.556V559.608H827.898V560.544H818.538V562.56H827.502V563.496H818.538V565.62H828.042V566.556H817.458ZM836.147 563.82C836.147 566.322 838.127 569.058 840.287 570.084L839.603 570.984C837.893 570.12 836.327 568.212 835.625 566.07C834.923 568.374 833.231 570.462 831.539 571.344L830.855 570.48C832.961 569.436 835.067 566.466 835.067 563.82V561.444H831.395V560.472H839.783V561.444H836.147V563.82ZM841.907 574.368V558.852H842.987V565.26H845.687V566.196H842.987V574.368H841.907ZM852.027 563.82C852.027 566.466 854.151 569.148 856.347 570.084L855.699 570.984C853.899 570.138 852.207 568.284 851.487 566.07C850.767 568.392 849.075 570.462 847.347 571.344L846.663 570.48C848.769 569.454 850.911 566.502 850.911 563.82V561.444H847.131V560.472H855.843V561.444H852.027V563.82ZM858.255 574.368V558.852H859.335V574.368H858.255ZM874.856 558.888V570.66H873.74V568.932H870.464V568.104H873.74V558.888H874.856ZM862.076 566.16C864.992 566.142 868.898 566.124 872.228 565.692L872.3 566.52C870.86 566.754 869.348 566.88 867.872 566.97V570.084H866.756V567.024C865.136 567.096 863.588 567.096 862.256 567.096L862.076 566.16ZM863.372 562.2C863.372 560.598 864.902 559.536 867.188 559.536C869.474 559.536 871.022 560.598 871.04 562.2C871.022 563.856 869.474 564.882 867.188 564.9C864.902 564.882 863.372 563.856 863.372 562.2ZM864.416 574.008V569.508H865.496V573.072H875.252V574.008H864.416ZM864.416 562.2C864.416 563.298 865.55 564.036 867.188 564.036C868.808 564.036 869.942 563.298 869.96 562.2C869.942 561.138 868.808 560.382 867.188 560.4C865.55 560.382 864.416 561.138 864.416 562.2ZM890.845 558.852V570.516H889.801V558.852H890.845ZM877.849 567.348C879.829 566.394 881.179 564.216 881.161 562.38V559.968H882.241V562.38C882.241 564.216 883.483 566.106 885.445 566.916L884.833 567.78C883.321 567.114 882.241 565.854 881.719 564.396C881.179 565.998 880.009 567.456 878.497 568.212L877.849 567.348ZM880.801 574.008V569.04H881.917V573.072H891.349V574.008H880.801ZM884.113 563.856V562.92H886.741V559.176H887.821V570.084H886.741V563.856H884.113ZM906.077 558.852V574.404H904.997V565.8H901.505V564.864H904.997V558.852H906.077ZM894.017 570.588V560.328H901.253V561.264H895.133V564.684H900.533V565.62H895.133V569.616H895.169C898.265 569.634 900.101 569.562 902.261 569.148L902.405 570.084C900.155 570.462 898.283 570.57 895.169 570.588H894.017Z" fill="#191D31"/>
<path d="M771.5 541.5H951.5V590.5H771.5V541.5Z" stroke="#B7B9C5"/>
<path d="M244.5 595.5H463.5V644.5H244.5V595.5Z" fill="white"/>
<path d="M328.536 612.852V628.368H327.456V612.852H328.536ZM316.044 624.444C320.292 622.428 322.578 619.26 322.848 615.48H316.728V614.58H323.964C323.964 618.954 321.75 622.914 316.656 625.38L316.044 624.444ZM343.625 613.716V614.832C343.625 616.056 343.625 617.496 343.193 619.476H345.533V620.412H331.349V619.476H342.077C342.527 617.478 342.527 616.038 342.545 614.832V614.652H333.185V613.716H343.625ZM333.113 628.152V622.716H343.733V628.152H333.113ZM334.229 627.216H342.653V623.616H334.229V627.216ZM355.474 614.076V614.868C355.456 615.858 355.456 617.388 355.042 619.476L353.926 619.368C354.358 617.388 354.376 616.02 354.394 615.048H347.806V614.076H355.474ZM346.87 620.988C347.914 620.988 349.084 620.988 350.326 620.952V617.46H351.442V620.916C353.206 620.844 355.042 620.718 356.698 620.484L356.77 621.348C353.53 621.87 349.768 621.942 346.978 621.96L346.87 620.988ZM349.282 628.008V623.472H350.398V627.072H359.47V628.008H349.282ZM357.85 624.552V612.852H358.966V618H361.342V618.972H358.966V624.552H357.85ZM375.206 612.852V628.404H374.126V612.852H375.206ZM363.362 615.3V614.364H370.526V619.728H364.514V623.652H364.658C367.214 623.634 369.572 623.526 372.47 623.076L372.614 624.012C369.644 624.462 367.268 624.588 364.658 624.588H363.398V618.792H369.41V615.3H363.362ZM392.203 622.14V623.076H385.615V628.368H384.535V623.076H377.983V622.14H392.203ZM379.855 620.124V613.5H380.971V615.768H389.215V613.5H390.331V620.124H379.855ZM380.971 619.224H389.215V616.704H380.971V619.224Z" fill="#191D31"/>
<path d="M244.5 595.5H463.5V644.5H244.5V595.5Z" stroke="#B7B9C5"/>
<path d="M771.5 595.5H951.5V644.5H771.5V595.5Z" fill="#F3F5F7"/>
<path d="M810.522 623.004V628.368H809.406V623.94H800.154V623.004H810.522ZM798.174 617.424C798.174 615.3 799.848 613.806 802.206 613.824C804.528 613.806 806.202 615.3 806.202 617.424C806.202 619.602 804.528 621.06 802.206 621.06C799.848 621.06 798.174 619.602 798.174 617.424ZM799.254 617.424C799.254 618.99 800.478 620.124 802.206 620.124C803.898 620.124 805.122 618.99 805.122 617.424C805.122 615.894 803.898 614.778 802.206 614.76C800.478 614.778 799.254 615.894 799.254 617.424ZM809.406 622.14V612.852H810.522V622.14H809.406ZM818.374 615.876C818.374 618.054 820.156 620.052 822.37 620.844L821.794 621.744C820.03 621.078 818.572 619.71 817.888 617.982C817.258 619.926 815.782 621.42 813.946 622.14L813.334 621.24C815.62 620.412 817.312 618.324 817.33 615.804V613.788H818.374V615.876ZM815.854 628.008V623.256H816.97V627.072H826.15V628.008H815.854ZM824.314 624.336V612.852H825.394V617.712H827.806V618.648H825.394V624.336H824.314ZM847.434 622.32V623.256H840.846V628.368H839.766V623.256H833.214V622.32H847.434ZM835.194 620.556V613.608H845.634V614.544H836.274V616.56H845.238V617.496H836.274V619.62H845.778V620.556H835.194ZM853.883 617.82C853.883 620.322 855.863 623.058 858.023 624.084L857.339 624.984C855.629 624.12 854.063 622.212 853.361 620.07C852.659 622.374 850.967 624.462 849.275 625.344L848.591 624.48C850.697 623.436 852.803 620.466 852.803 617.82V615.444H849.131V614.472H857.519V615.444H853.883V617.82ZM859.643 628.368V612.852H860.723V619.26H863.423V620.196H860.723V628.368H859.643ZM869.764 617.82C869.764 620.466 871.888 623.148 874.084 624.084L873.436 624.984C871.636 624.138 869.944 622.284 869.224 620.07C868.504 622.392 866.812 624.462 865.084 625.344L864.4 624.48C866.506 623.454 868.648 620.502 868.648 617.82V615.444H864.868V614.472H873.58V615.444H869.764V617.82ZM875.992 628.368V612.852H877.072V628.368H875.992ZM892.592 612.888V624.66H891.476V622.932H888.2V622.104H891.476V612.888H892.592ZM879.812 620.16C882.728 620.142 886.634 620.124 889.964 619.692L890.036 620.52C888.596 620.754 887.084 620.88 885.608 620.97V624.084H884.492V621.024C882.872 621.096 881.324 621.096 879.992 621.096L879.812 620.16ZM881.108 616.2C881.108 614.598 882.638 613.536 884.924 613.536C887.21 613.536 888.758 614.598 888.776 616.2C888.758 617.856 887.21 618.882 884.924 618.9C882.638 618.882 881.108 617.856 881.108 616.2ZM882.152 628.008V623.508H883.232V627.072H892.988V628.008H882.152ZM882.152 616.2C882.152 617.298 883.286 618.036 884.924 618.036C886.544 618.036 887.678 617.298 887.696 616.2C887.678 615.138 886.544 614.382 884.924 614.4C883.286 614.382 882.152 615.138 882.152 616.2ZM908.581 612.852V624.516H907.537V612.852H908.581ZM895.585 621.348C897.565 620.394 898.915 618.216 898.897 616.38V613.968H899.977V616.38C899.977 618.216 901.219 620.106 903.181 620.916L902.569 621.78C901.057 621.114 899.977 619.854 899.455 618.396C898.915 619.998 897.745 621.456 896.233 622.212L895.585 621.348ZM898.537 628.008V623.04H899.653V627.072H909.085V628.008H898.537ZM901.849 617.856V616.92H904.477V613.176H905.557V624.084H904.477V617.856H901.849ZM923.814 612.852V628.404H922.734V619.8H919.242V618.864H922.734V612.852H923.814ZM911.754 624.588V614.328H918.99V615.264H912.87V618.684H918.27V619.62H912.87V623.616H912.906C916.002 623.634 917.838 623.562 919.998 623.148L920.142 624.084C917.892 624.462 916.02 624.57 912.906 624.588H911.754Z" fill="#191D31"/>
<path d="M771.5 595.5H951.5V644.5H771.5V595.5Z" stroke="#B7B9C5"/>
<path d="M771.5 649.5H951.5V698.5H771.5V649.5Z" fill="#F3F5F7"/>
<path d="M810.558 666.888V676.32H809.442V674.016H805.122V673.08H809.442V670.776H805.284C804.276 673.296 801.81 675.15 798.498 676.14L798.03 675.276C801.792 674.124 804.348 671.892 804.6 669.012H798.786V668.076H805.806C805.806 668.706 805.734 669.3 805.59 669.876H809.442V666.888H810.558ZM800.37 679.38C800.37 677.544 802.35 676.464 805.518 676.464C808.65 676.464 810.648 677.544 810.63 679.38C810.648 681.216 808.65 682.296 805.518 682.296C802.35 682.296 800.37 681.216 800.37 679.38ZM801.45 679.38C801.468 680.604 803.052 681.378 805.518 681.396C807.93 681.378 809.532 680.604 809.55 679.38C809.532 678.12 807.93 677.364 805.518 677.364C803.052 677.364 801.468 678.12 801.45 679.38ZM827.482 674.52V675.456H820.93V677.436H825.718V682.368H824.602V678.372H814.918V677.436H819.85V675.456H813.334V674.52H827.482ZM815.242 672.936V667.212H816.358V669.12H824.494V667.212H825.61V672.936H815.242ZM816.358 672.036H824.494V670.02H816.358V672.036ZM847.434 676.32V677.256H840.846V682.368H839.766V677.256H833.214V676.32H847.434ZM835.194 674.556V667.608H845.634V668.544H836.274V670.56H845.238V671.496H836.274V673.62H845.778V674.556H835.194ZM853.883 671.82C853.883 674.322 855.863 677.058 858.023 678.084L857.339 678.984C855.629 678.12 854.063 676.212 853.361 674.07C852.659 676.374 850.967 678.462 849.275 679.344L848.591 678.48C850.697 677.436 852.803 674.466 852.803 671.82V669.444H849.131V668.472H857.519V669.444H853.883V671.82ZM859.643 682.368V666.852H860.723V673.26H863.423V674.196H860.723V682.368H859.643ZM869.764 671.82C869.764 674.466 871.888 677.148 874.084 678.084L873.436 678.984C871.636 678.138 869.944 676.284 869.224 674.07C868.504 676.392 866.812 678.462 865.084 679.344L864.4 678.48C866.506 677.454 868.648 674.502 868.648 671.82V669.444H864.868V668.472H873.58V669.444H869.764V671.82ZM875.992 682.368V666.852H877.072V682.368H875.992ZM892.592 666.888V678.66H891.476V676.932H888.2V676.104H891.476V666.888H892.592ZM879.812 674.16C882.728 674.142 886.634 674.124 889.964 673.692L890.036 674.52C888.596 674.754 887.084 674.88 885.608 674.97V678.084H884.492V675.024C882.872 675.096 881.324 675.096 879.992 675.096L879.812 674.16ZM881.108 670.2C881.108 668.598 882.638 667.536 884.924 667.536C887.21 667.536 888.758 668.598 888.776 670.2C888.758 671.856 887.21 672.882 884.924 672.9C882.638 672.882 881.108 671.856 881.108 670.2ZM882.152 682.008V677.508H883.232V681.072H892.988V682.008H882.152ZM882.152 670.2C882.152 671.298 883.286 672.036 884.924 672.036C886.544 672.036 887.678 671.298 887.696 670.2C887.678 669.138 886.544 668.382 884.924 668.4C883.286 668.382 882.152 669.138 882.152 670.2ZM908.581 666.852V678.516H907.537V666.852H908.581ZM895.585 675.348C897.565 674.394 898.915 672.216 898.897 670.38V667.968H899.977V670.38C899.977 672.216 901.219 674.106 903.181 674.916L902.569 675.78C901.057 675.114 899.977 673.854 899.455 672.396C898.915 673.998 897.745 675.456 896.233 676.212L895.585 675.348ZM898.537 682.008V677.04H899.653V681.072H909.085V682.008H898.537ZM901.849 671.856V670.92H904.477V667.176H905.557V678.084H904.477V671.856H901.849ZM923.814 666.852V682.404H922.734V673.8H919.242V672.864H922.734V666.852H923.814ZM911.754 678.588V668.328H918.99V669.264H912.87V672.684H918.27V673.62H912.87V677.616H912.906C916.002 677.634 917.838 677.562 919.998 677.148L920.142 678.084C917.892 678.462 916.02 678.57 912.906 678.588H911.754Z" fill="#191D31"/>
<path d="M771.5 649.5H951.5V698.5H771.5V649.5Z" stroke="#B7B9C5"/>
<rect x="488" y="375" width="220" height="54" rx="8" fill="#65B029"/>
<path d="M548.348 392.488V404.016H545.972V399.308H542.672V397.328H545.972V392.488H548.348ZM532.024 402.08C535.148 401.024 536.798 398.406 536.82 395.832V395.7H532.772V393.764H543.244V395.7H539.24V395.832C539.24 398.186 540.802 400.562 543.816 401.552L542.584 403.444C540.428 402.74 538.91 401.244 538.074 399.44C537.216 401.486 535.61 403.158 533.3 403.972L532.024 402.08ZM535.192 408.196C535.17 405.886 537.7 404.522 541.792 404.5C545.906 404.522 548.414 405.886 548.436 408.196C548.414 410.55 545.906 411.914 541.792 411.936C537.7 411.914 535.17 410.55 535.192 408.196ZM537.568 408.196C537.546 409.428 539.086 410.066 541.792 410.044C544.498 410.066 546.038 409.428 546.06 408.196C546.038 407.008 544.498 406.348 541.792 406.348C539.086 406.348 537.546 407.008 537.568 408.196ZM557.11 396.844C557.11 398.912 558.364 400.936 560.806 401.772L559.706 403.576C557.946 402.916 556.714 401.706 556.032 400.21C555.328 401.838 554.096 403.18 552.27 403.884L551.17 402.124C553.612 401.178 554.822 399.066 554.866 396.844V396.712H551.654V394.82H554.866V392.708H557.11V394.82H560.234V396.712H557.11V396.844ZM554.426 407.228V405.292H567.714V411.892H565.338V407.228H554.426ZM561.29 404.324V392.84H563.578V397.504H565.47V392.532H567.714V404.368H565.47V399.44H563.578V404.324H561.29ZM577.091 397.988C577.069 401.002 578.873 404.434 581.931 405.864L580.611 407.756C578.411 406.722 576.805 404.632 575.925 402.19C575.045 404.874 573.351 407.162 571.107 408.24L569.699 406.348C572.801 404.874 574.693 401.244 574.715 397.988V396.36H570.447V394.424H581.139V396.36H577.091V397.988ZM582.943 411.892V392.488H585.319V400.056H588.311V402.036H585.319V411.892H582.943ZM604.729 393.412V394.952C604.729 396.448 604.729 398.164 604.245 400.452H606.885V402.388H589.153V400.452H601.803C602.287 398.34 602.331 396.778 602.353 395.348H591.353V393.412H604.729ZM591.265 411.672V404.632H604.685V411.672H591.265ZM593.597 409.736H602.309V406.524H593.597V409.736ZM618.991 393.94V395.084C618.969 396.404 618.969 398.34 618.507 400.804L616.175 400.584C616.549 398.56 616.615 397.064 616.637 395.876H609.091V393.94H618.991ZM607.947 402.344C609.091 402.344 610.367 402.322 611.731 402.3V398.34H614.107V402.212C616.109 402.146 618.177 401.992 620.047 401.728L620.179 403.444C616.153 404.17 611.555 404.258 608.167 404.28L607.947 402.344ZM610.851 411.54V405.732H613.227V409.604H624.271V411.54H610.851ZM621.191 407.052V392.488H623.655V398.56H626.163V400.54H623.655V407.052H621.191ZM643.329 392.488V411.936H640.953V392.488H643.329ZM628.237 407.36V399.572H634.925V396.14H628.237V394.204H637.389V401.464H630.701V405.38C633.759 405.358 636.377 405.204 639.413 404.72L639.633 406.656C636.333 407.228 633.429 407.338 629.953 407.36H628.237ZM662.298 392.488V402.388H659.966V392.488H662.298ZM646.15 400.496C649.296 399.506 650.946 397.02 650.946 394.468V392.972H653.41V394.468C653.41 396.932 655.06 399.242 658.118 400.188L656.974 402.036C654.708 401.332 653.08 399.88 652.2 398.032C651.342 400.034 649.692 401.64 647.382 402.388L646.15 400.496ZM649.45 405.16V403.268H662.342V408.328H651.826V409.824H662.914V411.76H649.494V406.568H659.966V405.16H649.45Z" fill="white"/>
<path d="M732 383C732 378.582 735.582 375 740 375H944C948.418 375 952 378.582 952 383V429H732V383Z" fill="#009721"/>
<path d="M803.351 404.06V406.04H795.607V411.892H793.231V406.04H785.575V404.06H803.351ZM787.863 402.476V393.324H801.195V395.216H790.239V396.932H800.755V398.78H790.239V400.584H801.415V402.476H787.863ZM811.585 397.988C811.563 401.002 813.367 404.434 816.425 405.864L815.105 407.756C812.905 406.722 811.299 404.632 810.419 402.19C809.539 404.874 807.845 407.162 805.601 408.24L804.193 406.348C807.295 404.874 809.187 401.244 809.209 397.988V396.36H804.941V394.424H815.633V396.36H811.585V397.988ZM817.437 411.892V392.488H819.813V400.056H822.805V402.036H819.813V411.892H817.437ZM841.378 402.08V404.016H833.854V407.58H831.434V404.016H823.602V402.08H841.378ZM825.494 396.888C825.494 394.446 828.288 392.928 832.49 392.928C836.648 392.928 839.42 394.446 839.442 396.888C839.42 399.33 836.648 400.848 832.49 400.848C828.288 400.848 825.494 399.33 825.494 396.888ZM825.802 411.54V405.776H828.178V409.56H839.398V411.54H825.802ZM828.09 396.888C828.068 398.186 829.806 398.934 832.49 398.956C835.152 398.934 836.868 398.186 836.89 396.888C836.868 395.568 835.152 394.82 832.49 394.82C829.806 394.82 828.068 395.568 828.09 396.888ZM860.348 401.816V403.752H842.66V401.816H846.752V399.352C845.3 398.736 844.486 397.768 844.464 396.492C844.486 394.182 847.192 392.818 851.504 392.796C855.75 392.818 858.456 394.182 858.456 396.492C858.456 397.768 857.62 398.758 856.168 399.374V401.816H860.348ZM844.684 408.372C844.706 406.15 847.236 404.918 851.46 404.94C855.662 404.918 858.192 406.15 858.192 408.372C858.192 410.638 855.662 411.87 851.46 411.848C847.236 411.87 844.706 410.638 844.684 408.372ZM846.972 396.492C846.95 397.702 848.6 398.318 851.504 398.34C854.342 398.318 856.014 397.702 855.992 396.492C856.014 395.304 854.342 394.644 851.504 394.644C848.6 394.644 846.95 395.304 846.972 396.492ZM847.148 408.372C847.126 409.472 848.644 410.066 851.46 410.044C854.254 410.066 855.794 409.472 855.816 408.372C855.794 407.294 854.254 406.744 851.46 406.744C848.644 406.744 847.126 407.294 847.148 408.372ZM849.172 401.816H853.792V399.99C853.088 400.1 852.318 400.144 851.504 400.144C850.668 400.144 849.876 400.1 849.172 399.99V401.816ZM866.294 393.236V395.348H874.698V393.236H877.074V401.112H871.706V402.872H879.362V404.808H861.674V402.872H869.286V401.112H863.962V393.236H866.294ZM863.83 411.54V406.04H866.25V409.604H877.338V411.54H863.83ZM866.294 399.176H874.698V397.196H866.294V399.176ZM898.419 403.796V405.688H890.675V411.892H888.299V405.688H880.643V403.796H898.419ZM882.799 401.772V393.28H885.175V395.656H893.843V393.28H896.219V401.772H882.799ZM885.175 399.836H893.843V397.548H885.175V399.836Z" fill="white"/>
</svg>
