<svg width="65" height="64" viewBox="0 0 65 64" fill="none" xmlns="http://www.w3.org/2000/svg">
<path d="M32.5 61.091C48.5664 61.091 61.5909 48.0666 61.5909 32.0001C61.5909 15.9336 48.5664 2.90918 32.5 2.90918C16.4335 2.90918 3.40906 15.9336 3.40906 32.0001C3.40906 48.0666 16.4335 61.091 32.5 61.091Z" fill="#E7EFFF"/>
<path d="M2.82724 9.8913C3.79123 9.8913 4.5727 9.10983 4.5727 8.14585C4.5727 7.18186 3.79123 6.40039 2.82724 6.40039C1.86325 6.40039 1.08179 7.18186 1.08179 8.14585C1.08179 9.10983 1.86325 9.8913 2.82724 9.8913Z" fill="#FF4D69"/>
<path d="M57.5182 4.07294C58.4821 4.07294 59.2636 3.29147 59.2636 2.32749C59.2636 1.3635 58.4821 0.582031 57.5182 0.582031C56.5542 0.582031 55.7727 1.3635 55.7727 2.32749C55.7727 3.29147 56.5542 4.07294 57.5182 4.07294Z" fill="#00C99F"/>
<path d="M62.1727 57.6003C63.1367 57.6003 63.9182 56.8188 63.9182 55.8548C63.9182 54.8908 63.1367 54.1094 62.1727 54.1094C61.2087 54.1094 60.4272 54.8908 60.4272 55.8548C60.4272 56.8188 61.2087 57.6003 62.1727 57.6003Z" fill="#FFA100"/>
<path d="M6.31821 63.4182C7.2822 63.4182 8.06366 62.6367 8.06366 61.6727C8.06366 60.7087 7.2822 59.9272 6.31821 59.9272C5.35422 59.9272 4.57275 60.7087 4.57275 61.6727C4.57275 62.6367 5.35422 63.4182 6.31821 63.4182Z" fill="#00C99F"/>
<path d="M59.38 43.1304C57.1783 48.4471 53.4493 52.9913 48.6646 56.1884C43.8799 59.3854 38.2545 61.0916 32.5 61.0911C31.7145 61.0911 30.9407 61.0911 30.1727 60.998C24.831 60.5693 19.7114 58.6734 15.3789 55.5195C11.0464 52.3656 7.66922 48.0762 5.62 43.1246C8.16762 38.1927 12.023 34.0569 16.764 31.1697C21.5051 28.2825 26.949 26.7554 32.5 26.7554C38.051 26.7554 43.4949 28.2825 48.236 31.1697C52.977 34.0569 56.8324 38.1927 59.38 43.1246V43.1304Z" fill="#8FA2FF"/>
<path d="M17.8614 20.2356C17.922 20.3762 17.9542 20.5273 17.9563 20.6803C17.9583 20.8334 17.9302 20.9853 17.8734 21.1274C17.8167 21.2696 17.7324 21.3991 17.6256 21.5087C17.5187 21.6182 17.3912 21.7056 17.2505 21.7658C11.9231 24.0668 7.18962 27.5508 3.40906 31.9534C3.40914 30.7219 3.48882 29.4917 3.6476 28.2705C7.28766 24.6103 11.5925 21.6779 16.3312 19.6305C16.6144 19.5079 16.9347 19.5027 17.2216 19.6162C17.5086 19.7297 17.7387 19.9525 17.8614 20.2356V20.2356Z" fill="#A5BCED"/>
<path d="M61.5909 31.9011C58.2093 28 54.078 24.8184 49.4426 22.5455C49.2942 22.4856 49.1597 22.3958 49.0477 22.2816C48.9356 22.1674 48.8482 22.0314 48.7911 21.8819C48.7339 21.7325 48.7082 21.5728 48.7156 21.413C48.7229 21.2532 48.7631 21.0966 48.8337 20.953C48.9043 20.8094 49.0038 20.6819 49.1258 20.5785C49.2479 20.4751 49.39 20.3979 49.5433 20.3519C49.6965 20.3059 49.8576 20.292 50.0164 20.311C50.1753 20.33 50.3285 20.3816 50.4666 20.4626C54.4945 22.4376 58.1703 25.0618 61.3466 28.2298C61.5046 29.4473 61.5862 30.6734 61.5909 31.9011V31.9011Z" fill="#A5BCED"/>
<path d="M59.3799 43.1364C57.5491 47.5409 54.6648 51.4284 50.9802 54.4576C47.2957 57.4868 42.9237 59.5649 38.2483 60.5095L37.8003 56.9313C37.7537 56.5974 37.7537 56.2586 37.8003 55.9247L38.8999 49.4549L32.9421 43.4971C32.6172 43.1725 32.3595 42.7871 32.1837 42.3628C32.008 41.9384 31.9178 41.4836 31.9181 41.0244V37.2367L30.3181 35.9567C29.9099 35.6299 29.5803 35.2155 29.3538 34.7442C29.1272 34.2729 29.0094 33.7567 29.009 33.2338V26.9676C35.1145 26.2586 41.2911 27.426 46.7167 30.3144C52.1422 33.2028 56.5593 37.6753 59.3799 43.1364V43.1364Z" fill="#4E6AFF"/>
<path d="M30.1727 60.6259V60.9983C25.7156 60.6384 21.4018 59.2546 17.567 56.9548C13.7323 54.6549 10.4801 51.501 8.0636 47.7386L9.03524 46.767C9.59338 46.2073 10.3249 45.8537 11.1102 45.7638C11.8955 45.674 12.688 45.8533 13.3581 46.2724L15.6272 47.7095H19.8803C20.3723 47.7089 20.8588 47.8122 21.308 48.0128C21.7572 48.2133 22.1589 48.5065 22.4869 48.8732L25.2156 51.951C25.7864 52.5917 26.1012 53.4202 26.1 54.2783V57.0186L27.1763 57.1699C28.0081 57.2889 28.769 57.704 29.3194 58.3388C29.8698 58.9736 30.1728 59.7857 30.1727 60.6259V60.6259Z" fill="#4E6AFF"/>
<path d="M38.9 15.2557C38.8705 15.3869 38.7963 15.5039 38.6903 15.5866C38.5842 15.6693 38.4527 15.7128 38.3182 15.7095H31.9182C31.8067 15.7092 31.6977 15.6769 31.604 15.6164L25.204 11.5437C25.0943 11.4793 25.0087 11.3806 24.9604 11.263C24.912 11.1453 24.9036 11.015 24.9364 10.892C24.9727 10.7673 25.0497 10.6582 25.1551 10.5823C25.2606 10.5064 25.3884 10.4679 25.5182 10.4731H29.5909C29.6752 10.4727 29.7586 10.4905 29.8353 10.5255L38.5626 14.5982C38.6863 14.6517 38.7875 14.7466 38.8491 14.8665C38.9106 14.9864 38.9286 15.1239 38.9 15.2557V15.2557Z" fill="#323FD4"/>
<path d="M17.3727 11.0547H19.5487C19.9505 11.0546 20.3454 11.1585 20.6951 11.3563C21.0449 11.5541 21.3374 11.839 21.5443 12.1834L22.609 13.9638H41.8556C42.2042 13.964 42.5483 14.0425 42.8625 14.1936C43.1767 14.3446 43.453 14.5644 43.6709 14.8365L45.3 16.8729L46.7487 17.2336C46.9999 17.2971 47.2227 17.4426 47.3819 17.647C47.541 17.8515 47.6274 18.1032 47.6272 18.3623V19.2001C47.6272 19.5088 47.5046 19.8047 47.2864 20.023C47.0682 20.2412 46.7722 20.3638 46.4636 20.3638H22.0272C21.2131 20.3643 20.4243 20.0802 19.7975 19.5606C19.1707 19.0411 18.7451 18.3188 18.5945 17.5187L17.3727 11.0547Z" fill="#4E6AFF"/>
<path d="M38.5625 19.7298L29.8353 23.8026C29.7586 23.8375 29.6752 23.8554 29.5909 23.8549H25.5182C25.3884 23.8601 25.2605 23.8216 25.1551 23.7457C25.0496 23.6698 24.9726 23.5608 24.9364 23.436C24.9014 23.3156 24.9063 23.187 24.9504 23.0696C24.9944 22.9522 25.0752 22.8521 25.1807 22.7844L31.5807 18.7116C31.681 18.6467 31.7988 18.6142 31.9182 18.6185H38.3182C38.4513 18.6178 38.5807 18.6628 38.6847 18.7459C38.7887 18.8291 38.861 18.9454 38.8896 19.0754C38.9182 19.2054 38.9013 19.3413 38.8418 19.4604C38.7823 19.5795 38.6837 19.6746 38.5625 19.7298Z" fill="#323FD4"/>
<path d="M20.2818 13.9639H15.6272C15.4729 13.9639 15.3249 13.9026 15.2158 13.7935C15.1067 13.6844 15.0454 13.5364 15.0454 13.3821C15.0454 13.2278 15.1067 13.0798 15.2158 12.9707C15.3249 12.8616 15.4729 12.8003 15.6272 12.8003H20.2818C20.4361 12.8003 20.5841 12.8616 20.6932 12.9707C20.8023 13.0798 20.8636 13.2278 20.8636 13.3821C20.8636 13.5364 20.8023 13.6844 20.6932 13.7935C20.5841 13.9026 20.4361 13.9639 20.2818 13.9639Z" fill="#323FD4"/>
<path d="M45.3 16.8729H42.3909C42.2366 16.8729 42.0886 16.8116 41.9795 16.7025C41.8704 16.5934 41.8091 16.4454 41.8091 16.2911V15.7093C41.8091 15.555 41.8704 15.407 41.9795 15.2979C42.0886 15.1887 42.2366 15.1274 42.3909 15.1274H43.9036L45.3 16.8729Z" fill="#8FA2FF"/>
<path d="M39.4818 15.1274H38.8999C38.5786 15.1274 38.3181 15.3879 38.3181 15.7093V16.2911C38.3181 16.6124 38.5786 16.8729 38.8999 16.8729H39.4818C39.8031 16.8729 40.0636 16.6124 40.0636 16.2911V15.7093C40.0636 15.3879 39.8031 15.1274 39.4818 15.1274Z" fill="#8FA2FF"/>
<path d="M35.9909 15.1274H35.4091C35.0878 15.1274 34.8273 15.3879 34.8273 15.7093V16.2911C34.8273 16.6124 35.0878 16.8729 35.4091 16.8729H35.9909C36.3122 16.8729 36.5727 16.6124 36.5727 16.2911V15.7093C36.5727 15.3879 36.3122 15.1274 35.9909 15.1274Z" fill="#8FA2FF"/>
<path d="M32.4999 15.1274H31.9181C31.5968 15.1274 31.3363 15.3879 31.3363 15.7093V16.2911C31.3363 16.6124 31.5968 16.8729 31.9181 16.8729H32.4999C32.8213 16.8729 33.0818 16.6124 33.0818 16.2911V15.7093C33.0818 15.3879 32.8213 15.1274 32.4999 15.1274Z" fill="#8FA2FF"/>
<path d="M29.0091 15.1274H28.4273C28.1059 15.1274 27.8455 15.3879 27.8455 15.7093V16.2911C27.8455 16.6124 28.1059 16.8729 28.4273 16.8729H29.0091C29.3304 16.8729 29.5909 16.6124 29.5909 16.2911V15.7093C29.5909 15.3879 29.3304 15.1274 29.0091 15.1274Z" fill="#8FA2FF"/>
<path d="M25.5181 15.1274H24.9363C24.615 15.1274 24.3545 15.3879 24.3545 15.7093V16.2911C24.3545 16.6124 24.615 16.8729 24.9363 16.8729H25.5181C25.8395 16.8729 26.0999 16.6124 26.0999 16.2911V15.7093C26.0999 15.3879 25.8395 15.1274 25.5181 15.1274Z" fill="#8FA2FF"/>
<path d="M54.0273 31.4186C54.0275 30.7185 53.8874 30.0255 53.6152 29.3805C53.343 28.7355 52.9443 28.1517 52.4425 27.6635C51.9408 27.1753 51.3462 26.7927 50.694 26.5383C50.0418 26.2838 49.3452 26.1628 48.6454 26.1822C47.3099 26.2341 46.0432 26.7887 45.0992 27.7349C44.1551 28.6811 43.6034 29.949 43.5545 31.2847C43.5374 31.9863 43.6614 32.6841 43.9193 33.3368C44.1772 33.9895 44.5636 34.5836 45.0556 35.084C45.7952 35.8635 46.4722 36.7 47.0804 37.5858L48.3196 39.3313C48.3736 39.4058 48.4444 39.4664 48.5263 39.5083C48.6083 39.5501 48.6989 39.5719 48.7909 39.5719C48.8829 39.5719 48.9736 39.5501 49.0555 39.5083C49.1374 39.4664 49.2082 39.4058 49.2622 39.3313L50.5945 37.4637C51.1724 36.6312 51.8123 35.8435 52.5087 35.1073C52.9921 34.6226 53.3751 34.0473 53.6357 33.4143C53.8963 32.7813 54.0293 32.1031 54.0273 31.4186V31.4186Z" fill="#FF4D69"/>
<path d="M48.7909 33.7459C50.0762 33.7459 51.1182 32.7039 51.1182 31.4186C51.1182 30.1333 50.0762 29.0913 48.7909 29.0913C47.5056 29.0913 46.4636 30.1333 46.4636 31.4186C46.4636 32.7039 47.5056 33.7459 48.7909 33.7459Z" fill="white"/>
<path d="M25.5181 43.0548C25.5184 42.3547 25.3783 41.6617 25.1061 41.0167C24.8339 40.3718 24.4351 39.7879 23.9334 39.2997C23.4316 38.8115 22.8371 38.4289 22.1849 38.1745C21.5327 37.9201 20.8361 37.799 20.1363 37.8184C18.8007 37.8704 17.534 38.425 16.59 39.3711C15.646 40.3173 15.0943 41.5853 15.0454 42.921C15.0282 43.6225 15.1523 44.3204 15.4102 44.973C15.668 45.6257 16.0545 46.2199 16.5465 46.7202C17.286 47.4997 17.963 48.3362 18.5712 49.2221L19.8105 50.9675C19.8644 51.042 19.9353 51.1027 20.0172 51.1445C20.0991 51.1863 20.1898 51.2081 20.2817 51.2081C20.3737 51.2081 20.4644 51.1863 20.5463 51.1445C20.6282 51.1027 20.6991 51.042 20.753 50.9675L22.0854 49.0999C22.6633 48.2674 23.3032 47.4797 23.9996 46.7435C24.483 46.2588 24.8659 45.6835 25.1265 45.0505C25.3871 44.4175 25.5202 43.7393 25.5181 43.0548V43.0548Z" fill="#A5BCED"/>
<path d="M20.2817 45.3821C21.5671 45.3821 22.609 44.3401 22.609 43.0548C22.609 41.7695 21.5671 40.7275 20.2817 40.7275C18.9964 40.7275 17.9545 41.7695 17.9545 43.0548C17.9545 44.3401 18.9964 45.3821 20.2817 45.3821Z" fill="white"/>
</svg>
