<svg width="63" height="64" viewBox="0 0 63 64" fill="none" xmlns="http://www.w3.org/2000/svg">
<path d="M31.5 61.091C47.5664 61.091 60.5909 48.0666 60.5909 32.0001C60.5909 15.9336 47.5664 2.90918 31.5 2.90918C15.4335 2.90918 2.40906 15.9336 2.40906 32.0001C2.40906 48.0666 15.4335 61.091 31.5 61.091Z" fill="#E7EFFF"/>
<path d="M4.7363 4.07294C5.70029 4.07294 6.48175 3.29147 6.48175 2.32749C6.48175 1.3635 5.70029 0.582031 4.7363 0.582031C3.77231 0.582031 2.99084 1.3635 2.99084 2.32749C2.99084 3.29147 3.77231 4.07294 4.7363 4.07294Z" fill="#00C99F"/>
<path d="M61.1727 5.23651C62.1367 5.23651 62.9182 4.45505 62.9182 3.49106C62.9182 2.52707 62.1367 1.74561 61.1727 1.74561C60.2087 1.74561 59.4272 2.52707 59.4272 3.49106C59.4272 4.45505 60.2087 5.23651 61.1727 5.23651Z" fill="#FFA100"/>
<path d="M57.0999 63.4182C58.0639 63.4182 58.8454 62.6367 58.8454 61.6727C58.8454 60.7087 58.0639 59.9272 57.0999 59.9272C56.136 59.9272 55.3545 60.7087 55.3545 61.6727C55.3545 62.6367 56.136 63.4182 57.0999 63.4182Z" fill="#00C99F"/>
<path d="M1.82724 58.1818C2.79123 58.1818 3.5727 57.4004 3.5727 56.4364C3.5727 55.4724 2.79123 54.6909 1.82724 54.6909C0.863254 54.6909 0.0817871 55.4724 0.0817871 56.4364C0.0817871 57.4004 0.863254 58.1818 1.82724 58.1818Z" fill="#FF4D69"/>
<path d="M56.5182 12.8003V46.8425C55.5066 48.5454 54.3232 50.1401 52.9865 51.6017C51.1131 50.7639 51.1015 53.4054 51.1015 53.4868C49.6398 54.8235 48.0451 56.0069 46.3422 57.0185H16.6694C14.9666 56.0069 13.3718 54.8235 11.9102 53.4868C11.946 53.2309 11.9219 52.9702 11.8398 52.7251C11.7578 52.4801 11.6199 52.2574 11.4372 52.0747C11.2545 51.892 11.0318 51.7542 10.7868 51.6721C10.5418 51.59 10.281 51.5659 10.0251 51.6017C8.68434 50.1407 7.49703 48.5459 6.48181 46.8425V12.8003H56.5182Z" fill="#A5BCED"/>
<path d="M22.7727 6.98193H54.1909C54.8081 6.98193 55.4001 7.22713 55.8365 7.66358C56.273 8.10002 56.5182 8.69198 56.5182 9.30921V12.8001H22.7727V6.98193Z" fill="#323FD4"/>
<path d="M26.2636 12.8001H6.48181V9.30921C6.48181 8.69198 6.72701 8.10003 7.16345 7.66358C7.5999 7.22713 8.19185 6.98194 8.80908 6.98194H22.7727C23.274 6.98083 23.7623 7.14163 24.1649 7.4404C24.5674 7.73918 24.8628 8.15996 25.0069 8.64012L26.2636 12.8001Z" fill="#4E6AFF"/>
<path d="M22.1909 11.0548C22.8335 11.0548 23.3545 10.5338 23.3545 9.89118C23.3545 9.24852 22.8335 8.72754 22.1909 8.72754C21.5482 8.72754 21.0272 9.24852 21.0272 9.89118C21.0272 10.5338 21.5482 11.0548 22.1909 11.0548Z" fill="white"/>
<path d="M53.6091 11.0548C54.2517 11.0548 54.7727 10.5338 54.7727 9.89118C54.7727 9.24852 54.2517 8.72754 53.6091 8.72754C52.9664 8.72754 52.4454 9.24852 52.4454 9.89118C52.4454 10.5338 52.9664 11.0548 53.6091 11.0548Z" fill="white"/>
<path d="M49.5363 11.0548C50.179 11.0548 50.7 10.5338 50.7 9.89118C50.7 9.24852 50.179 8.72754 49.5363 8.72754C48.8937 8.72754 48.3727 9.24852 48.3727 9.89118C48.3727 10.5338 48.8937 11.0548 49.5363 11.0548Z" fill="white"/>
<path d="M45.4636 11.0548C46.1062 11.0548 46.6272 10.5338 46.6272 9.89118C46.6272 9.24852 46.1062 8.72754 45.4636 8.72754C44.8209 8.72754 44.2999 9.24852 44.2999 9.89118C44.2999 10.5338 44.8209 11.0548 45.4636 11.0548Z" fill="white"/>
<path d="M51.8636 16.291H37.9C37.2573 16.291 36.7363 16.812 36.7363 17.4547V31.4183C36.7363 32.0609 37.2573 32.5819 37.9 32.5819H51.8636C52.5063 32.5819 53.0272 32.0609 53.0272 31.4183V17.4547C53.0272 16.812 52.5063 16.291 51.8636 16.291Z" fill="#4E6AFF"/>
<path d="M53.0272 38.4C53.0272 52.3637 53.0272 51.3222 52.9923 51.6015C52.3944 52.2634 51.7633 52.8945 51.1014 53.4924C50.8163 53.5448 12.2417 53.5564 11.8985 53.4924C11.2366 52.8945 10.6055 52.2634 10.0076 51.6015C9.97266 51.3222 9.97266 52.2124 9.97266 38.4C9.97266 37.7828 10.2179 37.1908 10.6543 36.7544C11.0907 36.3179 11.6827 36.0728 12.2999 36.0728H50.6999C51.3172 36.0728 51.9091 36.3179 52.3456 36.7544C52.782 37.1908 53.0272 37.7828 53.0272 38.4Z" fill="white"/>
<path d="M49.5363 47.7095C49.2277 47.7095 48.9317 47.5869 48.7135 47.3687C48.4953 47.1504 48.3727 46.8545 48.3727 46.5458V45.3822C48.3727 44.1477 47.8823 42.9638 47.0094 42.0909C46.1365 41.2181 44.9526 40.7277 43.7181 40.7277C42.4837 40.7277 41.2998 41.2181 40.4269 42.0909C39.554 42.9638 39.0636 44.1477 39.0636 45.3822V46.5458C39.0636 46.8545 38.941 47.1504 38.7228 47.3687C38.5046 47.5869 38.2086 47.7095 37.9 47.7095C37.5913 47.7095 37.2954 47.5869 37.0771 47.3687C36.8589 47.1504 36.7363 46.8545 36.7363 46.5458V45.3822C36.7363 43.5305 37.4719 41.7547 38.7813 40.4453C40.0906 39.136 41.8665 38.4004 43.7181 38.4004C45.5698 38.4004 47.3457 39.136 48.655 40.4453C49.9644 41.7547 50.7 43.5305 50.7 45.3822V46.5458C50.7 46.8545 50.5774 47.1504 50.3591 47.3687C50.1409 47.5869 49.8449 47.7095 49.5363 47.7095Z" fill="#8FA2FF"/>
<path d="M40.2272 51.2001C39.9186 51.2001 39.6226 51.0775 39.4044 50.8593C39.1862 50.641 39.0636 50.3451 39.0636 50.0364V45.3819C39.0636 45.0733 39.1862 44.7773 39.4044 44.5591C39.6226 44.3409 39.9186 44.2183 40.2272 44.2183C40.5359 44.2183 40.8318 44.3409 41.0501 44.5591C41.2683 44.7773 41.3909 45.0733 41.3909 45.3819V50.0364C41.3909 50.3451 41.2683 50.641 41.0501 50.8593C40.8318 51.0775 40.5359 51.2001 40.2272 51.2001Z" fill="#323FD4"/>
<path d="M38.4818 45.3818H39.0636V50.0364H38.4818C38.0189 50.0364 37.5749 49.8525 37.2476 49.5252C36.9202 49.1978 36.7363 48.7538 36.7363 48.2909V47.1273C36.7363 46.6644 36.9202 46.2204 37.2476 45.8931C37.5749 45.5657 38.0189 45.3818 38.4818 45.3818V45.3818Z" fill="#4E6AFF"/>
<path d="M47.209 51.2001C47.5177 51.2001 47.8136 51.0775 48.0319 50.8593C48.2501 50.641 48.3727 50.3451 48.3727 50.0364V45.3819C48.3727 45.0733 48.2501 44.7773 48.0319 44.5591C47.8136 44.3409 47.5177 44.2183 47.209 44.2183C46.9004 44.2183 46.6045 44.3409 46.3862 44.5591C46.168 44.7773 46.0454 45.0733 46.0454 45.3819V50.0364C46.0454 50.3451 46.168 50.641 46.3862 50.8593C46.6045 51.0775 46.9004 51.2001 47.209 51.2001Z" fill="#323FD4"/>
<path d="M48.9545 50.0366H48.3727V45.3821H48.9545C49.4174 45.3821 49.8614 45.566 50.1887 45.8933C50.5161 46.2206 50.7 46.6646 50.7 47.1275V48.2912C50.7 48.7541 50.5161 49.1981 50.1887 49.5254C49.8614 49.8527 49.4174 50.0366 48.9545 50.0366V50.0366Z" fill="#4E6AFF"/>
<path d="M44.8818 25.6C46.8098 25.6 48.3727 24.037 48.3727 22.1091C48.3727 20.1811 46.8098 18.6182 44.8818 18.6182C42.9538 18.6182 41.3909 20.1811 41.3909 22.1091C41.3909 24.037 42.9538 25.6 44.8818 25.6Z" fill="#8FA2FF"/>
<path d="M50.7 30.2547H39.0636C39.0636 28.7116 39.6766 27.2318 40.7677 26.1406C41.8588 25.0495 43.3387 24.4365 44.8818 24.4365C46.4249 24.4365 47.9047 25.0495 48.9959 26.1406C50.087 27.2318 50.7 28.7116 50.7 30.2547V30.2547Z" fill="#8FA2FF"/>
<path d="M34.1763 19.084L33.2454 19.7822L33.8272 21.3065C33.8653 21.3984 33.8792 21.4985 33.8675 21.5973C33.8559 21.696 33.8192 21.7902 33.7608 21.8707C33.7025 21.9513 33.6245 22.0155 33.5342 22.0573C33.444 22.0991 33.3445 22.117 33.2454 22.1095C33.0185 22.1095 33.0475 22.1095 31.4999 21.0622L30.0745 22.0105C29.9722 22.0782 29.8511 22.1118 29.7286 22.1066C29.6061 22.1014 29.4884 22.0576 29.3922 21.9814C29.2961 21.9053 29.2265 21.8007 29.1933 21.6826C29.1601 21.5646 29.1651 21.4391 29.2075 21.324L29.7545 19.7822L28.8235 19.084C28.7259 19.0107 28.6537 18.9086 28.6173 18.792C28.5809 18.6755 28.5821 18.5504 28.6207 18.4346C28.6593 18.3187 28.7334 18.2179 28.8324 18.1465C28.9315 18.0751 29.0505 18.0367 29.1726 18.0367H30.441L30.953 16.6694C30.9938 16.5571 31.0681 16.4601 31.166 16.3915C31.2638 16.3229 31.3804 16.2861 31.4999 16.2861C31.6194 16.2861 31.736 16.3229 31.8338 16.3915C31.9317 16.4601 32.0061 16.5571 32.0468 16.6694L32.5588 18.0367H33.8272C33.9493 18.0367 34.0683 18.0751 34.1674 18.1465C34.2664 18.2179 34.3405 18.3187 34.3791 18.4346C34.4178 18.5504 34.4189 18.6755 34.3825 18.792C34.3461 18.9086 34.274 19.0107 34.1763 19.084Z" fill="#FFA100"/>
<path d="M26.0309 19.084L25.1 19.7822L25.6818 21.3065C25.7199 21.3984 25.7338 21.4985 25.7222 21.5973C25.7105 21.696 25.6738 21.7902 25.6155 21.8707C25.5571 21.9513 25.4791 22.0155 25.3888 22.0573C25.2986 22.0991 25.1991 22.117 25.1 22.1095C24.8731 22.1095 24.9022 22.1095 23.3545 21.0622L21.9291 22.0105C21.8268 22.0782 21.7058 22.1118 21.5832 22.1066C21.4607 22.1014 21.343 22.0576 21.2468 21.9814C21.1507 21.9053 21.0811 21.8007 21.0479 21.6826C21.0147 21.5646 21.0197 21.4391 21.0622 21.324L21.6091 19.7822L20.6782 19.084C20.5805 19.0107 20.5083 18.9086 20.4719 18.792C20.4355 18.6755 20.4367 18.5504 20.4753 18.4346C20.5139 18.3187 20.588 18.2179 20.6871 18.1465C20.7861 18.0751 20.9051 18.0367 21.0273 18.0367H22.2956L22.8076 16.6694C22.8484 16.5571 22.9227 16.4601 23.0206 16.3915C23.1184 16.3229 23.235 16.2861 23.3545 16.2861C23.474 16.2861 23.5906 16.3229 23.6885 16.3915C23.7863 16.4601 23.8607 16.5571 23.9014 16.6694L24.4134 18.0367H25.6818C25.8039 18.0367 25.9229 18.0751 26.022 18.1465C26.1211 18.2179 26.1951 18.3187 26.2338 18.4346C26.2724 18.5504 26.2736 18.6755 26.2372 18.792C26.2007 18.9086 26.1286 19.0107 26.0309 19.084Z" fill="#FFA100"/>
<path d="M17.8854 19.084L16.9545 19.7822L17.5363 21.3065C17.5744 21.3984 17.5883 21.4985 17.5767 21.5973C17.565 21.696 17.5283 21.7902 17.4699 21.8707C17.4116 21.9513 17.3336 22.0155 17.2433 22.0573C17.1531 22.0991 17.0536 22.117 16.9545 22.1095C16.7276 22.1095 16.7567 22.1095 15.209 21.0622L13.7836 22.0105C13.6813 22.0782 13.5602 22.1118 13.4377 22.1066C13.3152 22.1014 13.1975 22.0576 13.1013 21.9814C13.0052 21.9053 12.9356 21.8007 12.9024 21.6826C12.8692 21.5646 12.8742 21.4391 12.9167 21.324L13.4636 19.7822L12.5327 19.084C12.435 19.0107 12.3628 18.9086 12.3264 18.792C12.29 18.6755 12.2912 18.5504 12.3298 18.4346C12.3684 18.3187 12.4425 18.2179 12.5415 18.1465C12.6406 18.0751 12.7596 18.0367 12.8817 18.0367H14.1501L14.6621 16.6694C14.7029 16.5571 14.7772 16.4601 14.8751 16.3915C14.9729 16.3229 15.0895 16.2861 15.209 16.2861C15.3285 16.2861 15.4451 16.3229 15.5429 16.3915C15.6408 16.4601 15.7152 16.5571 15.7559 16.6694L16.2679 18.0367H17.5363C17.6584 18.0367 17.7774 18.0751 17.8765 18.1465C17.9755 18.2179 18.0496 18.3187 18.0883 18.4346C18.1269 18.5504 18.1281 18.6755 18.0916 18.792C18.0552 18.9086 17.9831 19.0107 17.8854 19.084Z" fill="#FFA100"/>
<path d="M33.2454 26.7638H13.4636C13.1549 26.7638 12.859 26.6412 12.6407 26.423C12.4225 26.2048 12.2999 25.9088 12.2999 25.6002C12.2999 25.2915 12.4225 24.9956 12.6407 24.7773C12.859 24.5591 13.1549 24.4365 13.4636 24.4365H33.2454C33.554 24.4365 33.85 24.5591 34.0682 24.7773C34.2864 24.9956 34.409 25.2915 34.409 25.6002C34.409 25.9088 34.2864 26.2048 34.0682 26.423C33.85 26.6412 33.554 26.7638 33.2454 26.7638Z" fill="#8FA2FF"/>
<path d="M33.2454 31.4186H13.4636C13.1549 31.4186 12.859 31.296 12.6407 31.0778C12.4225 30.8595 12.2999 30.5636 12.2999 30.2549C12.2999 29.9463 12.4225 29.6504 12.6407 29.4321C12.859 29.2139 13.1549 29.0913 13.4636 29.0913H33.2454C33.554 29.0913 33.85 29.2139 34.0682 29.4321C34.2864 29.6504 34.409 29.9463 34.409 30.2549C34.409 30.5636 34.2864 30.8595 34.0682 31.0778C33.85 31.296 33.554 31.4186 33.2454 31.4186Z" fill="#8FA2FF"/>
<path d="M13.4636 40.7277H32.0817C32.3904 40.7277 32.6863 40.6051 32.9046 40.3868C33.1228 40.1686 33.2454 39.8726 33.2454 39.564C33.2454 39.2554 33.1228 38.9594 32.9046 38.7412C32.6863 38.523 32.3904 38.4004 32.0817 38.4004H13.4636C13.1549 38.4004 12.859 38.523 12.6407 38.7412C12.4225 38.9594 12.2999 39.2554 12.2999 39.564C12.2999 39.8726 12.4225 40.1686 12.6407 40.3868C12.859 40.6051 13.1549 40.7277 13.4636 40.7277V40.7277Z" fill="#A5BCED"/>
<path d="M13.4636 45.382H32.0817C32.3904 45.382 32.6863 45.2594 32.9046 45.0411C33.1228 44.8229 33.2454 44.5269 33.2454 44.2183C33.2454 43.9097 33.1228 43.6137 32.9046 43.3955C32.6863 43.1773 32.3904 43.0547 32.0817 43.0547H13.4636C13.1549 43.0547 12.859 43.1773 12.6407 43.3955C12.4225 43.6137 12.2999 43.9097 12.2999 44.2183C12.2999 44.5269 12.4225 44.8229 12.6407 45.0411C12.859 45.2594 13.1549 45.382 13.4636 45.382V45.382Z" fill="#A5BCED"/>
<path d="M13.4636 50.0367H21.609C21.9176 50.0367 22.2136 49.9142 22.4318 49.6959C22.6501 49.4777 22.7727 49.1817 22.7727 48.8731C22.7727 48.5645 22.6501 48.2685 22.4318 48.0503C22.2136 47.8321 21.9176 47.7095 21.609 47.7095H13.4636C13.1549 47.7095 12.859 47.8321 12.6407 48.0503C12.4225 48.2685 12.2999 48.5645 12.2999 48.8731C12.2999 49.1817 12.4225 49.4777 12.6407 49.6959C12.859 49.9142 13.1549 50.0367 13.4636 50.0367V50.0367Z" fill="#A5BCED"/>
</svg>
