<svg width="65" height="64" viewBox="0 0 65 64" fill="none" xmlns="http://www.w3.org/2000/svg">
<path d="M32.5 61.091C48.5664 61.091 61.5909 48.0666 61.5909 32.0001C61.5909 15.9336 48.5664 2.90918 32.5 2.90918C16.4335 2.90918 3.40906 15.9336 3.40906 32.0001C3.40906 48.0666 16.4335 61.091 32.5 61.091Z" fill="#E7EFFF"/>
<path d="M2.82724 8.14569C3.79123 8.14569 4.5727 7.36423 4.5727 6.40024C4.5727 5.43625 3.79123 4.65479 2.82724 4.65479C1.86325 4.65479 1.08179 5.43625 1.08179 6.40024C1.08179 7.36423 1.86325 8.14569 2.82724 8.14569Z" fill="#FF4D69"/>
<path d="M58.0999 4.07294C59.0639 4.07294 59.8454 3.29147 59.8454 2.32749C59.8454 1.3635 59.0639 0.582031 58.0999 0.582031C57.136 0.582031 56.3545 1.3635 56.3545 2.32749C56.3545 3.29147 57.136 4.07294 58.0999 4.07294Z" fill="#00C99F"/>
<path d="M62.1727 61.091C63.1367 61.091 63.9182 60.3095 63.9182 59.3456C63.9182 58.3816 63.1367 57.6001 62.1727 57.6001C61.2087 57.6001 60.4272 58.3816 60.4272 59.3456C60.4272 60.3095 61.2087 61.091 62.1727 61.091Z" fill="#FFA100"/>
<path d="M7.48178 63.4182C8.44577 63.4182 9.22724 62.6367 9.22724 61.6727C9.22724 60.7087 8.44577 59.9272 7.48178 59.9272C6.51779 59.9272 5.73633 60.7087 5.73633 61.6727C5.73633 62.6367 6.51779 63.4182 7.48178 63.4182Z" fill="#00C99F"/>
<path d="M19.1182 6.98193H54.6091C55.2263 6.98193 55.8183 7.22713 56.2547 7.66358C56.6912 8.10002 56.9363 8.69198 56.9363 9.30921V12.8001H19.1182V6.98193Z" fill="#4E6AFF"/>
<path d="M10.3909 6.98193H19.1181C20.044 6.98193 20.9319 7.34972 21.5866 8.0044C22.2413 8.65907 22.6091 9.547 22.6091 10.4728V12.8001H8.0636V9.30921C8.0636 8.69198 8.30879 8.10002 8.74524 7.66358C9.18169 7.22713 9.77364 6.98193 10.3909 6.98193V6.98193Z" fill="#8FA2FF"/>
<path d="M56.9363 13.3818V47.7789C56.2309 48.8691 55.4534 49.911 54.609 50.8975C50.2396 49.9782 50.6934 54.6909 50.6934 54.6909C49.6335 55.5459 48.5135 56.3237 47.3421 57.0182H17.6694C16.498 56.3237 15.378 55.5459 14.3181 54.6909C14.609 51.6713 10.4025 50.8975 10.4025 50.8975C9.5581 49.911 8.78061 48.8691 8.0752 47.7789V13.3818H56.9363Z" fill="#A5BCED"/>
<path d="M54.609 22.6909V50.8975C53.4271 52.2832 52.1159 53.5534 50.6934 54.6909H14.3065C12.884 53.5534 11.5729 52.2832 10.3909 50.8975V22.6909H54.609Z" fill="white"/>
<path d="M61.5909 23.273H3.40906L8.0636 12.8003H56.9363L61.5909 23.273Z" fill="#323FD4"/>
<path d="M6.31815 27.9275C5.93612 27.9275 5.55784 27.8522 5.20489 27.7061C4.85194 27.5599 4.53124 27.3456 4.26111 27.0754C3.99098 26.8053 3.77669 26.4846 3.6305 26.1317C3.4843 25.7787 3.40906 25.4004 3.40906 25.0184V23.2729H9.22724V25.0184C9.22724 25.4004 9.15199 25.7787 9.0058 26.1317C8.8596 26.4846 8.64532 26.8053 8.37519 27.0754C8.10505 27.3456 7.78436 27.5599 7.43141 27.7061C7.07846 27.8522 6.70018 27.9275 6.31815 27.9275V27.9275Z" fill="#4E6AFF"/>
<path d="M12.1364 27.9275C11.7544 27.9275 11.3761 27.8522 11.0231 27.7061C10.6702 27.5599 10.3495 27.3456 10.0793 27.0754C9.80921 26.8053 9.59493 26.4846 9.44874 26.1317C9.30254 25.7787 9.22729 25.4004 9.22729 25.0184V23.2729H15.0455V25.0184C15.0455 25.4004 14.9702 25.7787 14.824 26.1317C14.6778 26.4846 14.4636 26.8053 14.1934 27.0754C13.9233 27.3456 13.6026 27.5599 13.2496 27.7061C12.8967 27.8522 12.5184 27.9275 12.1364 27.9275V27.9275Z" fill="#4E6AFF"/>
<path d="M17.9545 27.9275C17.5725 27.9275 17.1942 27.8522 16.8412 27.7061C16.4883 27.5599 16.1676 27.3456 15.8975 27.0754C15.6273 26.8053 15.413 26.4846 15.2669 26.1317C15.1207 25.7787 15.0454 25.4004 15.0454 25.0184V23.2729H20.8636V25.0184C20.8636 25.4004 20.7883 25.7787 20.6421 26.1317C20.496 26.4846 20.2817 26.8053 20.0115 27.0754C19.7414 27.3456 19.4207 27.5599 19.0678 27.7061C18.7148 27.8522 18.3365 27.9275 17.9545 27.9275V27.9275Z" fill="#4E6AFF"/>
<path d="M23.7727 27.9275C23.3907 27.9275 23.0124 27.8522 22.6595 27.7061C22.3065 27.5599 21.9858 27.3456 21.7157 27.0754C21.4456 26.8053 21.2313 26.4846 21.0851 26.1317C20.9389 25.7787 20.8636 25.4004 20.8636 25.0184V23.2729H26.6818V25.0184C26.6818 25.4004 26.6066 25.7787 26.4604 26.1317C26.3142 26.4846 26.0999 26.8053 25.8298 27.0754C25.5596 27.3456 25.2389 27.5599 24.886 27.7061C24.5331 27.8522 24.1548 27.9275 23.7727 27.9275V27.9275Z" fill="#4E6AFF"/>
<path d="M29.5909 27.9275C29.2088 27.9275 28.8305 27.8522 28.4776 27.7061C28.1246 27.5599 27.8039 27.3456 27.5338 27.0754C27.2637 26.8053 27.0494 26.4846 26.9032 26.1317C26.757 25.7787 26.6818 25.4004 26.6818 25.0184V23.2729H32.4999V25.0184C32.4999 25.4004 32.4247 25.7787 32.2785 26.1317C32.1323 26.4846 31.918 26.8053 31.6479 27.0754C31.3778 27.3456 31.0571 27.5599 30.7041 27.7061C30.3512 27.8522 29.9729 27.9275 29.5909 27.9275V27.9275Z" fill="#4E6AFF"/>
<path d="M35.4091 27.9275C35.0271 27.9275 34.6488 27.8522 34.2958 27.7061C33.9429 27.5599 33.6222 27.3456 33.3521 27.0754C33.0819 26.8053 32.8676 26.4846 32.7214 26.1317C32.5752 25.7787 32.5 25.4004 32.5 25.0184V23.2729H38.3182V25.0184C38.3182 25.4004 38.2429 25.7787 38.0967 26.1317C37.9505 26.4846 37.7363 26.8053 37.4661 27.0754C37.196 27.3456 36.8753 27.5599 36.5224 27.7061C36.1694 27.8522 35.7911 27.9275 35.4091 27.9275V27.9275Z" fill="#4E6AFF"/>
<path d="M41.2272 27.9275C40.8452 27.9275 40.4669 27.8522 40.1139 27.7061C39.761 27.5599 39.4403 27.3456 39.1702 27.0754C38.9 26.8053 38.6858 26.4846 38.5396 26.1317C38.3934 25.7787 38.3181 25.4004 38.3181 25.0184V23.2729H44.1363V25.0184C44.1363 25.4004 44.0611 25.7787 43.9149 26.1317C43.7687 26.4846 43.5544 26.8053 43.2842 27.0754C43.0141 27.3456 42.6934 27.5599 42.3405 27.7061C41.9875 27.8522 41.6092 27.9275 41.2272 27.9275V27.9275Z" fill="#4E6AFF"/>
<path d="M47.0453 27.9275C46.6633 27.9275 46.285 27.8522 45.9321 27.7061C45.5791 27.5599 45.2584 27.3456 44.9883 27.0754C44.7181 26.8053 44.5039 26.4846 44.3577 26.1317C44.2115 25.7787 44.1362 25.4004 44.1362 25.0184V23.2729H49.9544V25.0184C49.9544 25.4004 49.8792 25.7787 49.733 26.1317C49.5868 26.4846 49.3725 26.8053 49.1024 27.0754C48.8322 27.3456 48.5115 27.5599 48.1586 27.7061C47.8056 27.8522 47.4273 27.9275 47.0453 27.9275V27.9275Z" fill="#4E6AFF"/>
<path d="M52.8637 27.9275C52.4817 27.9275 52.1034 27.8522 51.7504 27.7061C51.3975 27.5599 51.0768 27.3456 50.8066 27.0754C50.5365 26.8053 50.3222 26.4846 50.176 26.1317C50.0298 25.7787 49.9546 25.4004 49.9546 25.0184V23.2729H55.7728V25.0184C55.7728 25.4004 55.6975 25.7787 55.5513 26.1317C55.4051 26.4846 55.1909 26.8053 54.9207 27.0754C54.6506 27.3456 54.3299 27.5599 53.9769 27.7061C53.624 27.8522 53.2457 27.9275 52.8637 27.9275V27.9275Z" fill="#4E6AFF"/>
<path d="M58.6818 27.9275C58.2998 27.9275 57.9215 27.8522 57.5685 27.7061C57.2156 27.5599 56.8949 27.3456 56.6248 27.0754C56.3546 26.8053 56.1403 26.4846 55.9941 26.1317C55.8479 25.7787 55.7727 25.4004 55.7727 25.0184V23.2729H61.5909V25.0184C61.5909 25.4004 61.5156 25.7787 61.3694 26.1317C61.2233 26.4846 61.009 26.8053 60.7388 27.0754C60.4687 27.3456 60.148 27.5599 59.7951 27.7061C59.4421 27.8522 59.0638 27.9275 58.6818 27.9275V27.9275Z" fill="#4E6AFF"/>
<path d="M54.0271 10.4727C54.3485 10.4727 54.6089 10.2122 54.6089 9.8909C54.6089 9.56957 54.3485 9.30908 54.0271 9.30908C53.7058 9.30908 53.4453 9.56957 53.4453 9.8909C53.4453 10.2122 53.7058 10.4727 54.0271 10.4727Z" fill="white"/>
<path d="M50.5364 10.4727C50.8577 10.4727 51.1182 10.2122 51.1182 9.8909C51.1182 9.56957 50.8577 9.30908 50.5364 9.30908C50.2151 9.30908 49.9546 9.56957 49.9546 9.8909C49.9546 10.2122 50.2151 10.4727 50.5364 10.4727Z" fill="white"/>
<path d="M47.0454 10.4727C47.3668 10.4727 47.6273 10.2122 47.6273 9.8909C47.6273 9.56957 47.3668 9.30908 47.0454 9.30908C46.7241 9.30908 46.4636 9.56957 46.4636 9.8909C46.4636 10.2122 46.7241 10.4727 47.0454 10.4727Z" fill="white"/>
<path d="M19.7 10.4727C20.0213 10.4727 20.2818 10.2122 20.2818 9.8909C20.2818 9.56957 20.0213 9.30908 19.7 9.30908C19.3787 9.30908 19.1182 9.56957 19.1182 9.8909C19.1182 10.2122 19.3787 10.4727 19.7 10.4727Z" fill="white"/>
<path d="M30.1727 45.2655C30.1902 45.351 30.1882 45.4394 30.1669 45.524C30.1456 45.6087 30.1055 45.6874 30.0496 45.7545C29.9937 45.8215 29.9235 45.8751 29.8441 45.9114C29.7647 45.9476 29.6781 45.9655 29.5909 45.9637H23.7727C23.6413 45.9682 23.5123 45.9281 23.4067 45.8499C23.301 45.7717 23.225 45.6601 23.1909 45.5331L22.0272 41.1928L20.8636 45.5331C20.8295 45.6601 20.7534 45.7717 20.6478 45.8499C20.5421 45.9281 20.4131 45.9682 20.2818 45.9637H14.4636C14.3763 45.9655 14.2898 45.9476 14.2104 45.9114C14.131 45.8751 14.0607 45.8215 14.0048 45.7545C13.949 45.6874 13.9089 45.6087 13.8876 45.524C13.8663 45.4394 13.8643 45.351 13.8818 45.2655L16.209 33.6291C16.2362 33.4957 16.3094 33.3761 16.4157 33.2911C16.522 33.206 16.6548 33.1609 16.7909 33.1637H27.2636C27.3997 33.1609 27.5325 33.206 27.6388 33.2911C27.7451 33.3761 27.8182 33.4957 27.8454 33.6291L30.1727 45.2655Z" fill="#4E6AFF"/>
<path d="M28.2062 35.491H15.8484L16.2091 33.6291C16.2363 33.4958 16.3094 33.3761 16.4157 33.2911C16.5221 33.206 16.6548 33.1609 16.7909 33.1637H27.2637C27.3998 33.1609 27.5325 33.206 27.6389 33.2911C27.7452 33.3761 27.8183 33.4958 27.8455 33.6291L28.2062 35.491Z" fill="#8FA2FF"/>
<path d="M23.1909 38.4003C23.0366 38.4003 22.8886 38.339 22.7795 38.2299C22.6704 38.1208 22.6091 37.9728 22.6091 37.8185C22.6288 37.107 22.4254 36.4071 22.0273 35.817C21.6292 36.4071 21.4257 37.107 21.4455 37.8185C21.4455 37.9728 21.3842 38.1208 21.2751 38.2299C21.1659 38.339 21.018 38.4003 20.8636 38.4003C20.7093 38.4003 20.5614 38.339 20.4522 38.2299C20.3431 38.1208 20.2818 37.9728 20.2818 37.8185C20.2678 37.2034 20.3786 36.5919 20.6076 36.0209C20.8366 35.4499 21.179 34.9312 21.6142 34.4963C21.6683 34.4418 21.7326 34.3985 21.8035 34.369C21.8744 34.3394 21.9505 34.3242 22.0273 34.3242C22.1041 34.3242 22.1801 34.3394 22.251 34.369C22.3219 34.3985 22.3863 34.4418 22.4404 34.4963C22.8755 34.9312 23.218 35.4499 23.447 36.0209C23.676 36.5919 23.7868 37.2034 23.7727 37.8185C23.7727 37.9728 23.7114 38.1208 23.6023 38.2299C23.4932 38.339 23.3452 38.4003 23.1909 38.4003Z" fill="#323FD4"/>
<path d="M50.5364 34.3277H35.4091C35.2548 34.3277 35.1068 34.2664 34.9977 34.1573C34.8886 34.0482 34.8273 33.9002 34.8273 33.7459C34.8273 33.5916 34.8886 33.4436 34.9977 33.3345C35.1068 33.2254 35.2548 33.1641 35.4091 33.1641H50.5364C50.6907 33.1641 50.8387 33.2254 50.9478 33.3345C51.0569 33.4436 51.1182 33.5916 51.1182 33.7459C51.1182 33.9002 51.0569 34.0482 50.9478 34.1573C50.8387 34.2664 50.6907 34.3277 50.5364 34.3277Z" fill="#7F96D1"/>
<path d="M50.5364 37.8184H35.4091C35.2548 37.8184 35.1068 37.7571 34.9977 37.648C34.8886 37.5389 34.8273 37.3909 34.8273 37.2366C34.8273 37.0823 34.8886 36.9343 34.9977 36.8252C35.1068 36.7161 35.2548 36.6548 35.4091 36.6548H50.5364C50.6907 36.6548 50.8387 36.7161 50.9478 36.8252C51.0569 36.9343 51.1182 37.0823 51.1182 37.2366C51.1182 37.3909 51.0569 37.5389 50.9478 37.648C50.8387 37.7571 50.6907 37.8184 50.5364 37.8184Z" fill="#7F96D1"/>
<path d="M44.7182 41.3091H35.4091C35.2548 41.3091 35.1068 41.2478 34.9977 41.1387C34.8886 41.0296 34.8273 40.8816 34.8273 40.7273C34.8273 40.573 34.8886 40.425 34.9977 40.3159C35.1068 40.2068 35.2548 40.1455 35.4091 40.1455H44.7182C44.8725 40.1455 45.0205 40.2068 45.1296 40.3159C45.2387 40.425 45.3 40.573 45.3 40.7273C45.3 40.8816 45.2387 41.0296 45.1296 41.1387C45.0205 41.2478 44.8725 41.3091 44.7182 41.3091Z" fill="#7F96D1"/>
<path d="M45.3 49.4548H37.1545C36.5373 49.4548 35.9454 49.2096 35.5089 48.7732C35.0725 48.3367 34.8273 47.7448 34.8273 47.1276C34.8273 46.5103 35.0725 45.9184 35.5089 45.4819C35.9454 45.0455 36.5373 44.8003 37.1545 44.8003H45.3C45.9172 44.8003 46.5092 45.0455 46.9456 45.4819C47.3821 45.9184 47.6273 46.5103 47.6273 47.1276C47.6273 47.7448 47.3821 48.3367 46.9456 48.7732C46.5092 49.2096 45.9172 49.4548 45.3 49.4548Z" fill="#00C99F"/>
<path d="M16.7909 49.4547H14.4637C14.3093 49.4547 14.1614 49.3934 14.0522 49.2842C13.9431 49.1751 13.8818 49.0271 13.8818 48.8728C13.8818 48.7185 13.9431 48.5705 14.0522 48.4614C14.1614 48.3523 14.3093 48.291 14.4637 48.291H16.7909C16.9452 48.291 17.0932 48.3523 17.2023 48.4614C17.3114 48.5705 17.3727 48.7185 17.3727 48.8728C17.3727 49.0271 17.3114 49.1751 17.2023 49.2842C17.0932 49.3934 16.9452 49.4547 16.7909 49.4547Z" fill="#A5BCED"/>
<path d="M22.0273 49.4547H19.7C19.5457 49.4547 19.3977 49.3934 19.2886 49.2842C19.1795 49.1751 19.1182 49.0271 19.1182 48.8728C19.1182 48.7185 19.1795 48.5705 19.2886 48.4614C19.3977 48.3523 19.5457 48.291 19.7 48.291H22.0273C22.1816 48.291 22.3296 48.3523 22.4387 48.4614C22.5478 48.5705 22.6091 48.7185 22.6091 48.8728C22.6091 49.0271 22.5478 49.1751 22.4387 49.2842C22.3296 49.3934 22.1816 49.4547 22.0273 49.4547Z" fill="#A5BCED"/>
</svg>
