<svg width="65" height="64" viewBox="0 0 65 64" fill="none" xmlns="http://www.w3.org/2000/svg">
<path d="M30.1727 63.4186C46.2392 63.4186 59.2636 50.3942 59.2636 34.3277C59.2636 18.2613 46.2392 5.23682 30.1727 5.23682C14.1062 5.23682 1.08179 18.2613 1.08179 34.3277C1.08179 50.3942 14.1062 63.4186 30.1727 63.4186Z" fill="#E7EFFF"/>
<path d="M5.73633 33.7454V26.8049C5.73634 25.6631 6.14822 24.5596 6.89636 23.697C7.6445 22.8344 8.67869 22.2706 9.80906 22.1091V22.1091L10.7283 20.7307C11.1613 20.0809 11.7481 19.548 12.4366 19.1795C13.1251 18.8109 13.8939 18.6181 14.6748 18.6182H26.6818C27.299 18.6182 27.891 18.8634 28.3274 19.2998C28.7639 19.7363 29.0091 20.3282 29.0091 20.9454V29.0909C29.0091 30.3254 28.5187 31.5093 27.6458 32.3822C26.7729 33.255 25.589 33.7454 24.3545 33.7454H5.73633Z" fill="#7F96D1"/>
<path d="M34.2454 53.9524V63.1334C28.2779 63.9748 22.1964 62.9435 16.8399 60.1818C11.4834 57.4202 7.1159 53.0644 4.33997 47.7153C4.42142 47.6745 4.50288 47.6338 4.59015 47.5931L13.3 43.6367H21.4454L30.1552 47.5931C31.3753 48.1489 32.4096 49.0441 33.1348 50.1716C33.8601 51.2992 34.2456 52.6117 34.2454 53.9524V53.9524Z" fill="#4E6AFF"/>
<path d="M13.2999 43.6367H21.4454V45.3822C21.4454 46.4623 21.0163 47.4982 20.2525 48.262C19.4887 49.0258 18.4528 49.4549 17.3727 49.4549C16.2925 49.4549 15.2566 49.0258 14.4928 48.262C13.729 47.4982 13.2999 46.4623 13.2999 45.3822V43.6367Z" fill="#7F96D1"/>
<path d="M14.964 59.1305L16.2091 53.5276L14.4636 50.6185L17.3727 48.873L20.2818 50.6185L18.5363 53.5276L20.3574 61.7196C18.475 61.0452 16.6675 60.1775 14.964 59.1305V59.1305Z" fill="#FF4D69"/>
<path d="M17.3726 48.8731L13.8817 52.364L11.281 44.556L13.2999 43.6367L17.3726 48.8731Z" fill="#323FD4"/>
<path d="M23.4643 44.556L20.8636 52.364L17.3727 48.8731L21.4454 43.6367L23.4643 44.556Z" fill="#323FD4"/>
<path d="M17.3727 45.9638C15.058 45.9638 12.8382 45.0444 11.2015 43.4077C9.56486 41.771 8.64539 39.5512 8.64539 37.2366V31.0466C8.64531 30.7134 8.71087 30.3835 8.83832 30.0756C8.96576 29.7678 9.15261 29.4881 9.38817 29.2525C9.62373 29.0169 9.90341 28.8299 10.2112 28.7024C10.519 28.5749 10.8489 28.5093 11.1821 28.5093V28.5093C11.429 28.5093 11.6746 28.5454 11.9111 28.6163L12.4598 28.781C15.7176 29.7584 19.1007 30.2548 22.502 30.2547H24.9363C25.2449 30.2547 25.5409 30.3773 25.7591 30.5956C25.9773 30.8138 26.0999 31.1098 26.0999 31.4184V37.2366C26.0999 39.5512 25.1805 41.771 23.5438 43.4077C21.9071 45.0444 19.6873 45.9638 17.3727 45.9638Z" fill="#A5BCED"/>
<path d="M7.48184 31.4185H8.64548V37.2366H7.48184C6.71031 37.2366 5.97037 36.9301 5.42481 36.3846C4.87925 35.839 4.57275 35.0991 4.57275 34.3275V34.3275C4.57275 33.556 4.87925 32.8161 5.42481 32.2705C5.97037 31.7249 6.71031 31.4185 7.48184 31.4185Z" fill="#A5BCED"/>
<path d="M27.2636 37.2368H26.1V31.4186H27.2636C28.0352 31.4186 28.7751 31.7251 29.3207 32.2707C29.8662 32.8162 30.1727 33.5562 30.1727 34.3277C30.1727 35.0993 29.8662 35.8392 29.3207 36.3848C28.7751 36.9303 28.0352 37.2368 27.2636 37.2368Z" fill="#A5BCED"/>
<path d="M13.8817 38.9819H20.8636C21.0179 38.9819 21.1659 39.0432 21.275 39.1523C21.3841 39.2615 21.4454 39.4094 21.4454 39.5638C21.4454 40.6439 21.0163 41.6798 20.2525 42.4436C19.4887 43.2074 18.4528 43.6365 17.3727 43.6365C16.2925 43.6365 15.2566 43.2074 14.4928 42.4436C13.729 41.6798 13.2999 40.6439 13.2999 39.5638C13.2999 39.4094 13.3612 39.2615 13.4703 39.1523C13.5794 39.0432 13.7274 38.9819 13.8817 38.9819Z" fill="white"/>
<path d="M15.6272 34.3277C15.6272 33.685 15.1062 33.1641 14.4636 33.1641C13.8209 33.1641 13.2999 33.685 13.2999 34.3277V35.4913C13.2999 36.134 13.8209 36.655 14.4636 36.655C15.1062 36.655 15.6272 36.134 15.6272 35.4913V34.3277Z" fill="#7F96D1"/>
<path d="M21.4454 34.3277C21.4454 33.685 20.9245 33.1641 20.2818 33.1641C19.6391 33.1641 19.1182 33.685 19.1182 34.3277V35.4913C19.1182 36.134 19.6391 36.655 20.2818 36.655C20.9245 36.655 21.4454 36.134 21.4454 35.4913V34.3277Z" fill="#7F96D1"/>
<path d="M2.82724 9.30927C3.79123 9.30927 4.5727 8.5278 4.5727 7.56381C4.5727 6.59983 3.79123 5.81836 2.82724 5.81836C1.86325 5.81836 1.08179 6.59983 1.08179 7.56381C1.08179 8.5278 1.86325 9.30927 2.82724 9.30927Z" fill="#FF4D69"/>
<path d="M59.8454 4.07294C60.8094 4.07294 61.5909 3.29147 61.5909 2.32749C61.5909 1.3635 60.8094 0.582031 59.8454 0.582031C58.8814 0.582031 58.1 1.3635 58.1 2.32749C58.1 3.29147 58.8814 4.07294 59.8454 4.07294Z" fill="#00C99F"/>
<path d="M62.1727 59.9274C63.1367 59.9274 63.9182 59.146 63.9182 58.182C63.9182 57.218 63.1367 56.4365 62.1727 56.4365C61.2087 56.4365 60.4272 57.218 60.4272 58.182C60.4272 59.146 61.2087 59.9274 62.1727 59.9274Z" fill="#FFA100"/>
<path d="M4.57273 63.4182C5.53671 63.4182 6.31818 62.6367 6.31818 61.6727C6.31818 60.7087 5.53671 59.9272 4.57273 59.9272C3.60874 59.9272 2.82727 60.7087 2.82727 61.6727C2.82727 62.6367 3.60874 63.4182 4.57273 63.4182Z" fill="#00C99F"/>
<path d="M61.0091 11.0547H35.4091C34.1237 11.0547 33.0818 12.0966 33.0818 13.382V32.0001C33.0818 33.2855 34.1237 34.3274 35.4091 34.3274H61.0091C62.2944 34.3274 63.3363 33.2855 63.3363 32.0001V13.382C63.3363 12.0966 62.2944 11.0547 61.0091 11.0547Z" fill="#4E6AFF"/>
<path d="M61.0091 12.8003H35.4091C35.0878 12.8003 34.8273 13.0608 34.8273 13.3821V32.0003C34.8273 32.3216 35.0878 32.5821 35.4091 32.5821H61.0091C61.3304 32.5821 61.5909 32.3216 61.5909 32.0003V13.3821C61.5909 13.0608 61.3304 12.8003 61.0091 12.8003Z" fill="white"/>
<path d="M46.4636 22.1094H42.9727C42.3301 22.1094 41.8091 22.6304 41.8091 23.273V29.0912C41.8091 29.7339 42.3301 30.2548 42.9727 30.2548H46.4636C47.1063 30.2548 47.6273 29.7339 47.6273 29.0912V23.273C47.6273 22.6304 47.1063 22.1094 46.4636 22.1094Z" fill="#8FA2FF"/>
<path d="M52.2817 18.6182H48.7908C48.1482 18.6182 47.6272 19.1391 47.6272 19.7818V29.0909C47.6272 29.7336 48.1482 30.2545 48.7908 30.2545H52.2817C52.9244 30.2545 53.4454 29.7336 53.4454 29.0909V19.7818C53.4454 19.1391 52.9244 18.6182 52.2817 18.6182Z" fill="#4E6AFF"/>
<path d="M58.1 15.1274H54.6091C53.9664 15.1274 53.4454 15.6484 53.4454 16.2911V29.0911C53.4454 29.7337 53.9664 30.2547 54.6091 30.2547H58.1C58.7426 30.2547 59.2636 29.7337 59.2636 29.0911V16.2911C59.2636 15.6484 58.7426 15.1274 58.1 15.1274Z" fill="#323FD4"/>
<path d="M43.5545 15.1274H37.7364C37.415 15.1274 37.1545 15.3879 37.1545 15.7093C37.1545 16.0306 37.415 16.2911 37.7364 16.2911H43.5545C43.8759 16.2911 44.1364 16.0306 44.1364 15.7093C44.1364 15.3879 43.8759 15.1274 43.5545 15.1274Z" fill="#A5BCED"/>
<path d="M41.2273 17.4546H37.7364C37.415 17.4546 37.1545 17.7151 37.1545 18.0364C37.1545 18.3577 37.415 18.6182 37.7364 18.6182H41.2273C41.5486 18.6182 41.8091 18.3577 41.8091 18.0364C41.8091 17.7151 41.5486 17.4546 41.2273 17.4546Z" fill="#A5BCED"/>
<path d="M29.4623 13.9173C29.3638 14.1067 29.2152 14.2655 29.0327 14.3763C28.8501 14.4871 28.6407 14.5457 28.4272 14.5456H22.609C22.3953 14.5457 22.1858 14.487 22.0033 14.3758C21.8207 14.2646 21.6724 14.1054 21.5744 13.9155C21.4765 13.7255 21.4327 13.5123 21.4479 13.2992C21.4631 13.086 21.5367 12.8812 21.6607 12.7071L24.5698 8.63437C24.6773 8.48307 24.8196 8.3597 24.9845 8.27457C25.1495 8.18944 25.3325 8.14502 25.5181 8.14502C25.7038 8.14502 25.8867 8.18944 26.0517 8.27457C26.2167 8.3597 26.3589 8.48307 26.4665 8.63437L29.3756 12.7071C29.4986 12.8819 29.5717 13.0869 29.587 13.3002C29.6022 13.5134 29.5591 13.7267 29.4623 13.9173V13.9173Z" fill="#FFA100"/>
<path d="M50.9902 44.7537C50.8916 44.9432 50.743 45.102 50.5603 45.2129C50.3777 45.3237 50.1682 45.3822 49.9546 45.3821H44.1364C43.9227 45.3822 43.7131 45.3234 43.5306 45.2122C43.3481 45.1011 43.1997 44.9418 43.1018 44.7519C43.0038 44.562 42.96 44.3487 42.9752 44.1356C42.9905 43.9224 43.0641 43.7176 43.188 43.5435L46.0971 39.4708C46.2047 39.3195 46.3469 39.1961 46.5119 39.111C46.6769 39.0259 46.8598 38.9814 47.0455 38.9814C47.2311 38.9814 47.4141 39.0259 47.5791 39.111C47.744 39.1961 47.8862 39.3195 47.9938 39.4708L50.9029 43.5435C51.026 43.7183 51.0992 43.9233 51.1146 44.1365C51.13 44.3497 51.087 44.5631 50.9902 44.7537V44.7537Z" fill="#FFA100"/>
</svg>
