<svg width="65" height="64" viewBox="0 0 65 64" fill="none" xmlns="http://www.w3.org/2000/svg">
<path d="M30.1727 63.4182C46.2392 63.4182 59.2636 50.3937 59.2636 34.3272C59.2636 18.2608 46.2392 5.23633 30.1727 5.23633C14.1062 5.23633 1.08179 18.2608 1.08179 34.3272C1.08179 50.3937 14.1062 63.4182 30.1727 63.4182Z" fill="#E7EFFF"/>
<path d="M41.2273 23.8544H19.1182V18.618C19.1182 15.6862 20.2828 12.8744 22.356 10.8013C24.4291 8.72815 27.2409 7.56348 30.1727 7.56348C33.1046 7.56348 35.9163 8.72815 37.9895 10.8013C40.0626 12.8744 41.2273 15.6862 41.2273 18.618V23.8544Z" fill="#323FD4"/>
<path d="M49.3727 39.692V52.9458C49.3727 53.563 49.1275 54.155 48.691 54.5914C48.2546 55.0279 47.6626 55.2731 47.0454 55.2731H13.2999C12.6827 55.2731 12.0907 55.0279 11.6543 54.5914C11.2179 54.155 10.9727 53.563 10.9727 52.9458V39.692C10.973 38.7888 11.2362 37.9052 11.73 37.149C12.2238 36.3928 12.927 35.7966 13.7537 35.4331L25.5181 30.2549H34.8272L46.5916 35.4331C47.4184 35.7966 48.1215 36.3928 48.6153 37.149C49.1091 37.9052 49.3723 38.7888 49.3727 39.692V39.692Z" fill="#7F96D1"/>
<path d="M39.4818 24.4368H20.8636V18.6187C20.8636 16.1497 21.8444 13.7819 23.5902 12.0361C25.336 10.2903 27.7038 9.30957 30.1727 9.30957C32.6417 9.30957 35.0095 10.2903 36.7553 12.0361C38.5011 13.7819 39.4818 16.1497 39.4818 18.6187V24.4368Z" fill="#7F96D1"/>
<path d="M30.1727 34.3275C28.0124 34.3275 25.9405 33.4693 24.413 31.9417C22.8854 30.4141 22.0272 28.3423 22.0272 26.182V20.9456H25.361C29.7479 20.9456 30.5974 19.2002 34.9843 19.2002H37.1545C37.4631 19.2002 37.7591 19.3228 37.9773 19.541C38.1955 19.7592 38.3181 20.0552 38.3181 20.3638V26.182C38.3181 28.3423 37.46 30.4141 35.9324 31.9417C34.4048 33.4693 32.333 34.3275 30.1727 34.3275V34.3275Z" fill="#A5BCED"/>
<path d="M19.7 20.9453H22.0272V26.7635H19.7C19.0827 26.7635 18.4908 26.5183 18.0543 26.0819C17.6179 25.6454 17.3727 25.0535 17.3727 24.4362V23.2726C17.3727 22.6554 17.6179 22.0634 18.0543 21.627C18.4908 21.1905 19.0827 20.9453 19.7 20.9453Z" fill="#4E6AFF"/>
<path d="M6.31821 8.72724C7.2822 8.72724 8.06366 7.94577 8.06366 6.98178C8.06366 6.01779 7.2822 5.23633 6.31821 5.23633C5.35422 5.23633 4.57275 6.01779 4.57275 6.98178C4.57275 7.94577 5.35422 8.72724 6.31821 8.72724Z" fill="#00C99F"/>
<path d="M59.2636 4.07294C60.2276 4.07294 61.0091 3.29147 61.0091 2.32749C61.0091 1.3635 60.2276 0.582031 59.2636 0.582031C58.2997 0.582031 57.5182 1.3635 57.5182 2.32749C57.5182 3.29147 58.2997 4.07294 59.2636 4.07294Z" fill="#FFA100"/>
<path d="M62.1727 54.6911C63.1367 54.6911 63.9182 53.9096 63.9182 52.9457C63.9182 51.9817 63.1367 51.2002 62.1727 51.2002C61.2087 51.2002 60.4272 51.9817 60.4272 52.9457C60.4272 53.9096 61.2087 54.6911 62.1727 54.6911Z" fill="#00C99F"/>
<path d="M8.06357 63.4186C9.02756 63.4186 9.80902 62.6372 9.80902 61.6732C9.80902 60.7092 9.02756 59.9277 8.06357 59.9277C7.09958 59.9277 6.31812 60.7092 6.31812 61.6732C6.31812 62.6372 7.09958 63.4186 8.06357 63.4186Z" fill="#FF4D69"/>
<path d="M50.3501 55.2725C49.0031 56.5788 47.5297 57.7481 45.9516 58.7634H14.3938C12.8157 57.7481 11.3423 56.5788 9.99524 55.2725H50.3501Z" fill="#8FA2FF"/>
<path d="M45.9516 58.7637C41.249 61.7998 35.7703 63.4147 30.1727 63.4147C24.5751 63.4147 19.0964 61.7998 14.3938 58.7637H45.9516Z" fill="#4E6AFF"/>
<path d="M16.7908 50.6182H43.5545C43.8631 50.6182 44.1591 50.7408 44.3773 50.959C44.5955 51.1772 44.7181 51.4732 44.7181 51.7818V52.9454C44.7181 53.5627 44.4729 54.1546 44.0365 54.5911C43.6 55.0275 43.0081 55.2727 42.3908 55.2727H17.9545C17.3372 55.2727 16.7453 55.0275 16.3088 54.5911C15.8724 54.1546 15.6272 53.5627 15.6272 52.9454V51.7818C15.6272 51.4732 15.7498 51.1772 15.968 50.959C16.1862 50.7408 16.4822 50.6182 16.7908 50.6182V50.6182Z" fill="#323FD4"/>
<path d="M40.6454 30.8369H19.7C18.4146 30.8369 17.3727 31.8789 17.3727 33.1642V48.2915C17.3727 49.5768 18.4146 50.6187 19.7 50.6187H40.6454C41.9307 50.6187 42.9727 49.5768 42.9727 48.2915V33.1642C42.9727 31.8789 41.9307 30.8369 40.6454 30.8369Z" fill="#4E6AFF"/>
<path d="M30.1727 43.0549C31.4581 43.0549 32.5 42.013 32.5 40.7277C32.5 39.4423 31.4581 38.4004 30.1727 38.4004C28.8874 38.4004 27.8455 39.4423 27.8455 40.7277C27.8455 42.013 28.8874 43.0549 30.1727 43.0549Z" fill="white"/>
<path d="M61.5908 8.72754H47.6272C47.01 8.72754 46.418 8.97273 45.9816 9.40918C45.5451 9.84563 45.2999 10.4376 45.2999 11.0548V21.5275C45.2999 22.1448 45.5451 22.7367 45.9816 23.1732C46.418 23.6096 47.01 23.8548 47.6272 23.8548V26.1821C47.6269 26.3305 47.6834 26.4735 47.7851 26.5816C47.8868 26.6898 48.0259 26.755 48.1741 26.7639C48.6403 26.7739 49.1009 26.6608 49.5095 26.4361C49.918 26.2114 50.2602 25.883 50.5014 25.4839L51.4497 23.8548H61.5908C62.2081 23.8548 62.8 23.6096 63.2365 23.1732C63.6729 22.7367 63.9181 22.1448 63.9181 21.5275V11.0548C63.9181 10.4376 63.6729 9.84563 63.2365 9.40918C62.8 8.97273 62.2081 8.72754 61.5908 8.72754V8.72754Z" fill="#4E6AFF"/>
<path d="M49.3727 17.4552C50.0154 17.4552 50.5364 16.9342 50.5364 16.2916C50.5364 15.6489 50.0154 15.1279 49.3727 15.1279C48.7301 15.1279 48.2091 15.6489 48.2091 16.2916C48.2091 16.9342 48.7301 17.4552 49.3727 17.4552Z" fill="white"/>
<path d="M54.6091 17.4552C55.2517 17.4552 55.7727 16.9342 55.7727 16.2916C55.7727 15.6489 55.2517 15.1279 54.6091 15.1279C53.9664 15.1279 53.4454 15.6489 53.4454 16.2916C53.4454 16.9342 53.9664 17.4552 54.6091 17.4552Z" fill="white"/>
<path d="M59.8454 17.4552C60.4881 17.4552 61.009 16.9342 61.009 16.2916C61.009 15.6489 60.4881 15.1279 59.8454 15.1279C59.2027 15.1279 58.6818 15.6489 58.6818 16.2916C58.6818 16.9342 59.2027 17.4552 59.8454 17.4552Z" fill="white"/>
<path d="M39.4818 26.1816V28.5089H34.2454C34.0911 28.5089 33.9431 28.5702 33.834 28.6793C33.7249 28.7884 33.6636 28.9364 33.6636 29.0907C33.6636 29.245 33.7249 29.393 33.834 29.5021C33.9431 29.6113 34.0911 29.6726 34.2454 29.6726H40.0636C40.3722 29.6726 40.6682 29.55 40.8864 29.3317C41.1046 29.1135 41.2272 28.8175 41.2272 28.5089V26.1816H39.4818Z" fill="#323FD4"/>
<path d="M38.3181 20.9453H40.6454C41.2626 20.9453 41.8546 21.1905 42.291 21.627C42.7275 22.0634 42.9727 22.6554 42.9727 23.2726V24.4362C42.9727 25.0535 42.7275 25.6454 42.291 26.0819C41.8546 26.5183 41.2626 26.7635 40.6454 26.7635H38.3181V20.9453Z" fill="#4E6AFF"/>
</svg>
