<svg width="65" height="64" viewBox="0 0 65 64" fill="none" xmlns="http://www.w3.org/2000/svg">
<g clip-path="url(#clip0_57_41587)">
<path d="M32.8334 64C50.5065 64 64.8334 49.6731 64.8334 32C64.8334 14.3269 50.5065 0 32.8334 0C15.1603 0 0.833374 14.3269 0.833374 32C0.833374 49.6731 15.1603 64 32.8334 64Z" fill="#E7EFFF"/>
<path d="M15.8334 22C21.9085 22 26.8334 17.0751 26.8334 11C26.8334 4.92487 21.9085 0 15.8334 0C9.75824 0 4.83337 4.92487 4.83337 11C4.83337 17.0751 9.75824 22 15.8334 22Z" fill="#FFA100"/>
<path d="M23.1384 9.815V10.99C23.1384 11.29 22.8984 11.53 22.5984 11.53H21.2934C20.8934 13.16 20.4934 14.795 20.0834 16.495C20.0434 16.66 19.8684 16.805 19.6884 16.805H17.9234C17.7584 16.805 17.5684 16.67 17.5284 16.505C17.0284 14.55 16.6184 12.895 16.0784 10.945C16.0634 10.85 16.0084 10.485 15.9684 10.32L15.8734 10.96C15.3984 12.82 14.8984 14.635 14.4234 16.495C14.3834 16.66 14.2084 16.805 14.0284 16.805H12.2784C12.1034 16.805 11.9234 16.655 11.8834 16.495C11.4584 14.795 11.0534 13.16 10.6584 11.53H9.37337C9.07337 11.53 8.83337 11.29 8.83337 10.99V9.815C8.83337 9.515 9.07337 9.275 9.37337 9.275H10.1184C9.82337 8.035 9.52337 6.785 9.21837 5.5C9.14837 5.23 9.33837 5 9.61337 5H11.6334C11.8084 5 11.9884 5.15 12.0284 5.325L13.2084 10.885C13.2084 10.94 13.2884 11.48 13.2884 11.63L13.3684 11.035C13.8034 9.26 14.3334 7.155 14.8084 5.31C14.8484 5.145 15.0384 5 15.2034 5H16.7884C16.9634 5 17.1434 5.15 17.1834 5.31L18.6334 11.09C18.6334 11.16 18.6484 11.495 18.6884 11.62C18.7284 11.415 18.7034 11.225 18.7434 10.955C18.9584 9.965 19.1634 8.945 19.9634 5.325C20.0034 5.15 20.1784 5 20.3584 5H22.3684C22.6384 5 22.8284 5.23 22.7634 5.5C22.4534 6.79 22.1484 8.035 21.8484 9.275H22.6034C22.9034 9.275 23.1434 9.515 23.1434 9.815H23.1384Z" fill="white"/>
<path d="M64.8334 46V50C64.8334 50.2652 64.728 50.5196 64.5405 50.7071C64.3529 50.8946 64.0986 51 63.8334 51H7.07837C5.69745 49.1329 4.52387 47.1211 3.57837 45H63.8334C64.0986 45 64.3529 45.1054 64.5405 45.2929C64.728 45.4804 64.8334 45.7348 64.8334 46Z" fill="#A5BCED"/>
<path d="M58.5784 51C55.6038 55.0317 51.724 58.3086 47.2515 60.5669C42.779 62.8252 37.8387 64.0016 32.8284 64.0016C27.8181 64.0016 22.8778 62.8252 18.4053 60.5669C13.9327 58.3086 10.053 55.0317 7.07837 51H58.5784Z" fill="#323FD4"/>
<path d="M59.8334 31.335V45H27.8334V31.335C27.8333 30.3482 28.1252 29.3834 28.6724 28.5621C29.2196 27.7409 29.9976 27.0999 30.9084 26.72L39.8334 23H47.8334L56.7584 26.72C57.6691 27.0999 58.4471 27.7409 58.9943 28.5621C59.5415 29.3834 59.8335 30.3482 59.8334 31.335Z" fill="#8FA2FF"/>
<path d="M43.8334 28C42.7725 28 41.7551 27.5786 41.0049 26.8284C40.2548 26.0783 39.8334 25.0609 39.8334 24V23H47.8334V24C47.8334 25.0609 47.4119 26.0783 46.6618 26.8284C45.9117 27.5786 44.8942 28 43.8334 28Z" fill="#323FD4"/>
<path d="M43.8333 28L38.8333 32L37.9233 23.795L39.8333 23L43.8333 28Z" fill="#4E6AFF"/>
<path d="M49.7434 23.795L48.8334 32L43.8334 28L47.8334 23L49.7434 23.795Z" fill="#4E6AFF"/>
<path d="M41.8334 0H45.8334C48.2203 0 50.5095 0.948212 52.1973 2.63604C53.8852 4.32387 54.8334 6.61305 54.8334 9V22C54.8334 22.5304 54.6227 23.0391 54.2476 23.4142C53.8725 23.7893 53.3638 24 52.8334 24H34.8334C34.3029 24 33.7942 23.7893 33.4192 23.4142C33.0441 23.0391 32.8334 22.5304 32.8334 22V9C32.8334 6.61305 33.7816 4.32387 35.4694 2.63604C37.1572 0.948212 39.4464 0 41.8334 0V0Z" fill="#323FD4"/>
<path d="M43.8334 25C41.7116 25 39.6768 24.1571 38.1765 22.6569C36.6762 21.1566 35.8334 19.1217 35.8334 17V9C35.8334 8.46957 36.0441 7.96086 36.4192 7.58579C36.7942 7.21071 37.3029 7 37.8334 7H38.5984C42.5334 7 43.1334 9 47.0684 9H49.8334C50.3638 9 50.8725 9.21071 51.2476 9.58579C51.6227 9.96086 51.8334 10.4696 51.8334 11V17C51.8334 19.1217 50.9905 21.1566 49.4902 22.6569C47.9899 24.1571 45.9551 25 43.8334 25Z" fill="#A5BCED"/>
<path d="M34.8334 17H35.8334V11H34.8334C34.0377 11 33.2747 11.3161 32.7121 11.8787C32.1494 12.4413 31.8334 13.2044 31.8334 14C31.8334 14.7956 32.1494 15.5587 32.7121 16.1213C33.2747 16.6839 34.0377 17 34.8334 17V17Z" fill="#A5BCED"/>
<path d="M52.8334 17H51.8334V11H52.8334C53.629 11 54.3921 11.3161 54.9547 11.8787C55.5173 12.4413 55.8334 13.2044 55.8334 14C55.8334 14.7956 55.5173 15.5587 54.9547 16.1213C54.3921 16.6839 53.629 17 52.8334 17V17Z" fill="#A5BCED"/>
<path d="M27.9433 41.0003L25.0083 27.7853C24.9585 27.5588 24.8316 27.3566 24.6491 27.2134C24.4667 27.0702 24.2402 26.9949 24.0083 27.0003H2.07834C1.9289 27.0005 1.78141 27.0342 1.64672 27.099C1.51203 27.1637 1.39356 27.2578 1.30003 27.3744C1.2065 27.491 1.14028 27.627 1.10624 27.7725C1.0722 27.918 1.07121 28.0693 1.10334 28.2153L4.48334 43.4353C4.58238 43.8797 4.83011 44.2771 5.18559 44.5616C5.54106 44.8462 5.983 45.0009 6.43834 45.0003H36.8333C37.0986 45.0003 37.3529 44.8949 37.5405 44.7074C37.728 44.5198 37.8333 44.2655 37.8333 44.0003V42.0003C37.8333 41.7351 37.728 41.4807 37.5405 41.2932C37.3529 41.1056 37.0986 41.0003 36.8333 41.0003H27.9433Z" fill="#4E6AFF"/>
<path d="M14.8334 38C15.9379 38 16.8334 37.1046 16.8334 36C16.8334 34.8954 15.9379 34 14.8334 34C13.7288 34 12.8334 34.8954 12.8334 36C12.8334 37.1046 13.7288 38 14.8334 38Z" fill="#8FA2FF"/>
<path d="M41.3884 20.895C41.1593 20.7721 40.9871 20.565 40.9082 20.3174C40.8293 20.0698 40.8498 19.8012 40.9655 19.5685C41.0812 19.3358 41.283 19.1572 41.528 19.0707C41.7731 18.9842 42.0422 18.9965 42.2784 19.1049C42.7617 19.3446 43.2939 19.4694 43.8334 19.4694C44.3729 19.4694 44.905 19.3446 45.3884 19.1049C45.6245 18.9965 45.8936 18.9842 46.1387 19.0707C46.3837 19.1572 46.5855 19.3358 46.7012 19.5685C46.8169 19.8012 46.8375 20.0698 46.7585 20.3174C46.6796 20.565 46.5074 20.7721 46.2784 20.895C45.5185 21.2721 44.6817 21.4683 43.8334 21.4683C42.9851 21.4683 42.1482 21.2721 41.3884 20.895Z" fill="white"/>
<path d="M43.8334 35C44.3857 35 44.8334 34.5523 44.8334 34C44.8334 33.4477 44.3857 33 43.8334 33C43.2811 33 42.8334 33.4477 42.8334 34C42.8334 34.5523 43.2811 35 43.8334 35Z" fill="white"/>
<path d="M43.8334 39C44.3857 39 44.8334 38.5523 44.8334 38C44.8334 37.4477 44.3857 37 43.8334 37C43.2811 37 42.8334 37.4477 42.8334 38C42.8334 38.5523 43.2811 39 43.8334 39Z" fill="white"/>
<path d="M2.33337 22.1553C3.1618 22.1553 3.83337 21.4837 3.83337 20.6553C3.83337 19.8268 3.1618 19.1553 2.33337 19.1553C1.50495 19.1553 0.833374 19.8268 0.833374 20.6553C0.833374 21.4837 1.50495 22.1553 2.33337 22.1553Z" fill="#FFA100"/>
<path d="M60.3334 57C61.1618 57 61.8334 56.3284 61.8334 55.5C61.8334 54.6716 61.1618 54 60.3334 54C59.5049 54 58.8334 54.6716 58.8334 55.5C58.8334 56.3284 59.5049 57 60.3334 57Z" fill="#FFA100"/>
<path d="M59.3334 14C60.1618 14 60.8334 13.3284 60.8334 12.5C60.8334 11.6716 60.1618 11 59.3334 11C58.5049 11 57.8334 11.6716 57.8334 12.5C57.8334 13.3284 58.5049 14 59.3334 14Z" fill="#00C99F"/>
<path d="M7.33337 61C8.1618 61 8.83337 60.3284 8.83337 59.5C8.83337 58.6716 8.1618 58 7.33337 58C6.50495 58 5.83337 58.6716 5.83337 59.5C5.83337 60.3284 6.50495 61 7.33337 61Z" fill="#00C99F"/>
</g>
<defs>
<clipPath id="clip0_57_41587">
<rect width="64" height="64" fill="white" transform="translate(0.833374)"/>
</clipPath>
</defs>
</svg>
