<svg width="140" height="79" viewBox="0 0 140 79" fill="none" xmlns="http://www.w3.org/2000/svg">
<g clip-path="url(#clip0_675_72088)">
<path d="M96.2587 10.3806C96.5932 8.55594 96.9328 6.95459 96.7733 6.91097C94.9181 6.39258 91.0841 6.11286 83.0509 7.14706C82.3047 7.24202 82.2378 7.43448 81.0361 15.2128C80.0043 21.8928 79.4047 30.5566 79.765 30.5566C80.5369 30.5566 83.918 30.0176 83.918 30.0176L96.2561 10.3831L96.2587 10.3806Z" fill="#FFFEFF"/>
<path d="M82.2377 30.2691C82.23 30.2204 82.0396 30.2101 81.386 30.2691C81.0618 30.2948 80.6167 30.3436 80.0326 30.3821C79.9965 30.3821 79.9605 30.3846 79.9219 30.3872C79.8962 30.3872 79.8988 30.3872 79.8859 30.3872C79.8627 30.3923 79.8628 30.3615 79.8602 30.3461C79.855 30.3025 79.8473 30.1973 79.8447 30.1203C79.8447 30.033 79.8422 29.9432 79.8396 29.8534C79.8396 29.4839 79.8525 29.0656 79.873 28.6036C79.9528 26.856 80.1998 23.7483 80.5472 20.6302C80.7196 19.0725 80.9177 17.5097 81.1184 16.1136C81.3294 14.7176 81.5147 13.478 81.6511 12.567C81.9727 10.4242 82.1734 9.15388 82.3149 8.42763C82.4539 7.70137 82.5439 7.52943 82.4925 7.49607C82.4565 7.46784 82.2738 7.62695 82.0679 8.34807C81.8569 9.06406 81.6125 10.319 81.2625 12.4438C81.1133 13.3523 80.9152 14.5815 80.7016 15.9802C80.4932 17.3788 80.295 18.9416 80.1226 20.5019C79.7753 23.6225 79.5437 26.7354 79.4896 28.501C79.4742 28.9732 79.4691 29.3992 79.4794 29.7867C79.4845 29.9817 79.4922 30.1639 79.5154 30.3461C79.5179 30.3795 79.5334 30.4719 79.554 30.536C79.5771 30.6028 79.6029 30.6643 79.6646 30.6926C79.6878 30.7157 79.7238 30.708 79.7521 30.7182C79.783 30.7259 79.8139 30.7285 79.8499 30.7259C79.9013 30.7234 79.9528 30.7182 80.0017 30.7157C80.6141 30.6541 81.0592 30.5745 81.3912 30.5181C82.0525 30.3949 82.2455 30.3256 82.2377 30.2794V30.2691Z" fill="#181818"/>
<path d="M84.1006 7.01361C84.1135 7.11626 84.5355 7.11113 86.6043 6.93662C87.5821 6.8622 89.3164 6.71849 91.0661 6.67743C92.8158 6.62354 94.5707 6.71336 95.5768 6.86477C95.7878 6.89813 95.9885 6.92636 96.166 6.96229C96.2561 6.98025 96.3436 6.99308 96.4259 7.01361C96.4671 7.02388 96.5082 7.03158 96.5468 7.04184L96.5983 7.05467H96.6086C96.6292 7.05467 96.6292 7.0752 96.6317 7.08803C96.6317 7.15989 96.6292 7.23431 96.624 7.3036C96.6112 7.44474 96.5983 7.57306 96.588 7.68854C96.5648 7.91694 96.5468 8.09144 96.5417 8.21976C96.5262 8.47895 96.5494 8.56107 96.5931 8.56877C96.6369 8.57647 96.6858 8.50975 96.7604 8.26082C96.7964 8.13764 96.8427 7.96826 96.8891 7.7373C96.9122 7.62182 96.9379 7.49094 96.9611 7.34209C96.9714 7.26767 96.9817 7.18555 96.9868 7.09573C96.9894 7.02388 96.9868 6.94432 96.9637 6.8776C96.9534 6.84424 96.9328 6.81088 96.9019 6.79035C96.8839 6.75699 96.8427 6.75185 96.8119 6.72876C96.7192 6.70309 96.624 6.67743 96.5237 6.6492C96.4413 6.62354 96.3538 6.60814 96.2638 6.58761C96.0837 6.54399 95.8855 6.50806 95.6745 6.46956C94.6453 6.28736 92.8647 6.18214 91.1021 6.2386C89.3395 6.27966 87.5975 6.44133 86.6172 6.54655C84.5226 6.78778 84.0903 6.92379 84.1006 7.01361Z" fill="#181818"/>
<path d="M8.38658 27.7799C9.54706 26.2966 13.8905 29.5275 15.1462 30.1742C15.1462 30.1742 13.8159 32.4094 13.7464 32.3632C13.6769 32.317 6.86586 29.7251 8.38915 27.7773L8.38658 27.7799Z" fill="#FFFEFF"/>
<path d="M19.3944 34.7396C12.9899 36.3127 9.68857 42.7284 6.57509 51.4845C4.59636 57.0481 4.7842 65.0626 5.569 70.6776C5.569 70.6776 32.9856 70.9214 32.9547 70.6776C32.9238 70.4338 19.3944 34.7396 19.3944 34.7396Z" fill="#FFFEFF"/>
<path d="M3.38184 71.8966C3.79868 68.3526 8.38141 64.6623 14.5466 65.3911C20.7118 66.1199 21.6175 71.5322 21.6175 71.5322L3.38184 71.8966Z" fill="#181818"/>
<path d="M41.832 14.3275C43.4891 15.0486 50.488 13.7988 50.488 13.7988C50.488 13.7988 54.0003 11.0888 55.6959 9.96738C57.3942 8.84849 58.6833 7.38829 57.9835 5.20696C57.0263 2.21726 55.4155 3.6364 54.9678 3.11545C54.52 2.5945 53.7815 0.392638 50.6346 0.0256619C47.9097 -0.292555 43.1983 2.33017 42.6914 4.90414C42.555 5.59446 40.4425 4.15992 39.1842 7.88101C37.9517 11.5225 40.1131 13.5781 41.8294 14.3275H41.832Z" fill="#181818"/>
<path d="M39.9742 25.4779C42.4573 26.2427 44.0423 27.2409 45.6222 27.5207C47.2021 27.8004 49.2169 26.5275 49.2169 26.5275C49.2169 26.5275 51.1802 26.5814 52.6314 30.3333C54.0852 34.0852 59.5119 69.0352 59.3833 69.0352H41.091C41.091 69.0352 37.1592 27.69 37.2879 27.5181C37.4165 27.3487 39.9742 25.4753 39.9742 25.4753V25.4779Z" fill="#FFFEFF"/>
<path d="M31.2616 67.421C31.1767 70.1464 31.2616 71.8966 31.2616 71.8966C31.2616 71.8966 42.5782 73.7263 42.3466 71.2961C42.1176 68.8658 41.9452 64.1362 41.989 62.5579L31.2616 67.4184V67.421Z" fill="#516FF3"/>
<path d="M46.7209 59.0088C45.8949 59.2731 45.3366 59.4579 45.2285 59.5503C43.7361 60.836 42.4624 65.8222 42.6039 65.9865C42.6039 65.9865 38.7571 66.977 32.8364 67.3594C26.9182 67.7444 22.8887 66.3047 19.8756 63.9386C16.8624 61.575 15.967 52.2056 16.7029 45.908C17.4414 39.6104 18.9467 33.7285 20.9974 29.1246C23.0508 24.5207 28.8197 23.4352 33.6289 24.0742C34.9978 24.2564 36.2921 24.513 37.4783 24.7978C38.3763 25.016 39.2151 25.2495 39.9742 25.4779C39.1019 28.7242 39.825 32.1528 40.144 34.37C40.4605 36.5899 41.1836 40.6523 41.675 45.0893C41.9761 47.8198 42.1433 50.44 42.236 52.4904C42.344 54.9592 42.3466 56.599 42.3466 56.599C42.3466 56.599 43.7258 57.0019 44.8786 57.3227C45.9361 57.6153 46.5897 58.3903 46.7209 59.0088Z" fill="#516FF3"/>
<path d="M20.6526 32.8559C22.567 33.4667 23.9617 34.9731 22.8835 35.9457C22.1193 36.6335 20.3233 36.6745 19.1808 35.1989C19.0856 35.0758 20.6552 32.8559 20.6552 32.8559H20.6526Z" fill="#FFFEFF"/>
<path d="M85.3718 38.4607C86.5323 33.2948 87.8137 28.4137 87.8137 28.4137C87.8137 28.4137 96.4723 24.9364 96.6344 25.5934C96.7991 26.2504 96.8814 35.7199 96.9174 36.9183C96.956 38.1168 85.3718 38.4607 85.3718 38.4607Z" fill="#516FF3"/>
<path d="M97.2056 25.4651C97.1953 25.5241 97.1876 25.5806 97.1773 25.6396C96.691 28.5241 95.7389 30.8696 93.5054 31.4881C91.2308 32.1194 89.3344 31.2366 87.5641 29.2811C87.5641 29.2811 90.2736 19.6756 91.537 17.6893C91.7531 17.3505 92.013 17.058 92.3012 16.8168C93.7087 15.6337 95.8161 15.6337 96.9508 17.2684C98.0084 18.7928 97.679 22.5036 97.2056 25.4651Z" fill="#FFFEFF"/>
<path d="M85.539 9.35918C83.0148 9.73899 81.1313 10.1907 80.9615 10.6911C80.8483 11.017 81.5095 32.2734 82.1503 32.8559C82.562 33.2306 85.6085 30.708 94.0226 29.2041L85.5416 9.35918H85.539Z" fill="#FFFEFF"/>
<path d="M94.02 29.2041C94.0123 29.1579 93.9197 29.1348 93.6237 29.1579C93.3253 29.181 92.8209 29.2478 91.9924 29.412C91.2076 29.566 89.8207 29.8842 88.4518 30.3025C87.0803 30.7105 85.7294 31.2289 84.96 31.5677C84.0543 31.9603 83.5345 32.2349 83.2412 32.4017C82.9479 32.5711 82.8784 32.6455 82.899 32.6943C82.9196 32.743 83.0199 32.7481 83.339 32.6404C83.658 32.5351 84.1907 32.3093 85.0913 31.95C85.8581 31.6395 87.1909 31.1391 88.5444 30.7311C89.8953 30.3128 91.2642 29.9817 92.0361 29.7969C92.8621 29.5993 93.3639 29.4839 93.6572 29.3966C93.948 29.3094 94.0303 29.2529 94.0226 29.2041H94.02Z" fill="#181818"/>
<path d="M82.1477 32.8559C82.1632 32.8354 82.1503 32.802 82.1349 32.6712C82.1168 32.5429 82.0937 32.3273 82.0602 31.9885C81.9985 31.311 81.911 30.146 81.8029 28.2007C81.5791 24.5258 81.2137 15.1307 81.1519 11.2659C81.1519 11.1658 81.1519 11.0658 81.1519 10.9708C81.1519 10.9246 81.1519 10.8758 81.1519 10.8322C81.1519 10.804 81.1519 10.7758 81.1545 10.7501C81.1596 10.7475 81.1648 10.7373 81.1699 10.7244C81.1802 10.7116 81.1982 10.6962 81.2111 10.6808C81.2343 10.65 81.2883 10.6218 81.3243 10.591C81.4144 10.5371 81.5096 10.4858 81.6074 10.4422C81.8055 10.3549 82.0036 10.2856 82.194 10.2266C82.5774 10.106 82.9274 10.0187 83.2361 9.94429C83.8588 9.79802 84.3271 9.70306 84.6694 9.62608C85.3564 9.47723 85.5468 9.41308 85.5391 9.36175C85.5314 9.31299 85.3358 9.29503 84.6359 9.37715C84.286 9.42078 83.8125 9.4875 83.1744 9.61325C82.8553 9.6774 82.4951 9.75439 82.0937 9.86987C81.893 9.9289 81.6794 9.99562 81.4555 10.088C81.3449 10.1342 81.2291 10.1907 81.1133 10.2599C81.0541 10.3036 80.995 10.3318 80.9358 10.396C80.9075 10.4268 80.8766 10.4524 80.8483 10.4883C80.8226 10.5294 80.7968 10.5756 80.7711 10.6295C80.7608 10.6628 80.7557 10.709 80.7531 10.7373V10.804C80.7479 10.8476 80.7479 10.8912 80.7454 10.9374C80.7454 11.0247 80.7454 11.1145 80.7454 11.2069C80.7557 15.0717 81.1262 24.4488 81.4092 28.134C81.5533 30.1049 81.6897 31.2956 81.8184 31.9937C81.8827 32.3427 81.947 32.5659 82.0062 32.702C82.0602 32.838 82.1374 32.879 82.1477 32.8559Z" fill="#181818"/>
<path d="M83.918 30.4924C81.4221 31.4188 81.1622 31.6498 81.0181 30.8389C80.874 30.0279 80.9075 23.8124 82.2378 17.3942C83.5681 10.9759 84.0801 8.61497 84.4686 8.43276C86.6764 7.38829 97.6868 7.70908 97.8617 8.02729C98.0367 8.34551 96.7605 12.6594 96.7605 12.6594L83.9206 30.4924H83.918Z" fill="#516FF3"/>
<path d="M91.9693 8.57134C94.1667 8.59701 98.3429 8.67913 98.2734 8.89213C97.4783 11.2916 95.5279 20.6071 94.4498 28.9911C94.3803 29.5326 91.6219 28.7704 82.4822 31.5009C81.5945 31.7653 83.4137 17.4994 83.7713 16.75C84.129 16.0007 90.0266 8.54825 91.9719 8.57134H91.9693Z" fill="#FFFEFF"/>
<path d="M74.1453 45.1535L67.8978 69.8333L57.1087 70.4877C57.1087 70.4877 56.522 61.3441 55.1428 51.1278C53.8794 41.7635 51.9573 31.4958 49.2144 26.5301C50.3157 26.0938 51.4041 25.714 52.4616 25.4009C56.4757 24.1999 60.0781 23.8997 62.5045 24.6618C65.5691 25.6242 72.7816 33.1921 74.1453 45.1535Z" fill="#516FF3"/>
<path d="M56.6171 68.3911C56.1025 68.622 51.5429 68.7247 51.5429 68.7247C49.3532 65.1627 46.5948 66.0019 45.4858 66.2072C44.3794 66.4125 43.0413 66.4946 42.6039 65.9865C42.4624 65.8222 43.7361 60.836 45.2285 59.5503C45.3366 59.4579 45.8949 59.2731 46.7209 59.0088C47.516 58.7547 48.5607 58.4237 49.6877 58.0336C51.9804 57.238 54.3759 58.0593 55.8709 61.2466C57.3659 64.4339 57.1343 68.1601 56.6171 68.3911Z" fill="#FFFEFF"/>
<path d="M64.0613 67.6956C64.4833 66.5023 67.0101 54.7411 74.7938 40.9833C75.2621 40.157 95.8753 41.2707 101.961 41.6531C108.046 42.0355 106.657 43.7549 105.89 47.1962C105.123 50.6376 99.9975 67.6982 97.7923 70.8033C95.5871 73.9085 36.7476 71.8555 35.5511 71.758C34.3546 71.6605 35.0082 68.5065 37.1438 68.4809C45.5374 68.3782 49.7907 68.0215 54.1033 67.9881C60.9298 67.9343 63.8323 68.3397 64.0587 67.6982L64.0613 67.6956Z" fill="#181818"/>
<path d="M139.497 66.8513C139.497 66.8513 133.754 68.468 124.674 68.0266C115.591 67.5878 112.449 66.9514 111.368 66.9514C110.287 66.9514 108.718 65.8735 107.64 60.8308C107.017 57.9284 105.826 54.9618 104.377 52.7035C103.304 51.0379 102.092 49.7599 100.865 49.1774C97.9673 47.807 93.3717 48.5512 89.1981 48.2587C89.1595 48.2561 89.1183 48.2535 89.0771 48.2484C88.5111 48.1971 87.9012 48.0534 87.2734 47.8481C84.5922 46.6779 85.0605 43.2622 85.5134 40.8396C83.3674 40.7626 81.3372 40.7061 79.6338 40.6907C81.4118 37.9166 82.9171 35.9688 84.1007 35.7148C86.9286 35.104 99.7839 34.293 106.95 35.2246C114.119 36.1536 114.757 36.8413 115.395 40.0235C116.033 43.2057 117.014 46.8293 119.715 47.7095C122.414 48.5897 126.637 47.1706 129.483 49.9627C132.331 52.7522 133.852 58.2851 134.786 61.1234C135.718 63.9642 137.29 66.3637 139.497 66.8513Z" fill="#FFFEFF"/>
<path d="M88.5214 52.221C91.2823 52.416 90.2608 58.2158 86.944 57.9232C83.6247 57.6307 84.7389 51.9541 88.5214 52.221Z" fill="#516FF3"/>
<path d="M1.67851 69.8974C5.00041 69.9128 112.763 69.7101 114.541 69.9411C114.968 69.9975 115.647 77.8426 115.776 78.5637C115.905 79.2849 115.732 78.8178 79.8731 78.8178C44.0141 78.8178 1.92553 78.9666 0.986344 78.9666C0.538621 78.9666 0.870553 69.8949 1.67851 69.8974Z" fill="#FFFEFF"/>
<path d="M44.2456 16.7962C44.6418 16.8732 43.3759 22.5395 41.3225 26.7303C41.2247 26.9304 42.7197 29.4762 45.3649 29.607C48.0101 29.7379 49.1165 29.4685 49.7443 27.7799C50.3722 26.0913 52.1605 21.1281 52.1605 21.1281C52.1605 21.1281 57.0108 20.4095 56.7046 15.3104C56.3984 10.2112 55.8298 6.81088 55.8298 6.81088C55.8298 6.81088 55.0398 6.05126 52.6803 7.46271C50.3207 8.87416 48.3703 9.15132 46.9988 7.0983C48.0486 9.15132 47.8145 12.5722 45.7123 13.5781C44.6496 14.0863 42.218 13.129 41.832 14.3275C41.4486 15.5182 42.3878 16.4344 44.2456 16.7962Z" fill="#FFFEFF"/>
<path d="M24.9241 29.1579C25.1068 28.1212 17.5006 24.6464 13.9832 30.2281C10.2084 36.2126 15.8101 40.1287 16.4611 39.9671C17.1147 39.8054 24.7362 30.2306 24.9267 29.1579H24.9241Z" fill="#181818"/>
<path d="M116.288 69.7974C116.288 69.782 116.283 69.764 116.262 69.746L116.226 69.7178C116.226 69.7178 116.224 69.7127 116.221 69.7101C116.221 69.7076 116.236 69.6973 116.229 69.6922C116.231 69.6793 116.252 69.6793 116.265 69.6742C116.26 69.6306 116.121 69.6152 116.018 69.5998C115.92 69.5844 115.807 69.5715 115.665 69.5613C115.102 69.5151 114.142 69.4817 112.544 69.4638C109.521 69.4278 101.817 69.4407 98.6414 69.4817C94.9155 69.5279 94.2079 69.6203 94.2079 69.7614C94.2079 69.9026 94.8872 69.9898 98.5925 70.0232C101.752 70.0514 109.446 70.0283 112.469 69.9821C114.088 69.9565 115.066 69.9231 115.642 69.8846C115.786 69.8744 115.904 69.8641 116 69.8538C116.046 69.8487 116.069 69.8436 116.095 69.8384C116.118 69.8359 116.151 69.823 116.164 69.8307C116.159 69.8307 116.151 69.8307 116.146 69.8359C116.139 69.8384 116.182 69.8538 116.19 69.8513C116.218 69.8513 116.234 69.8461 116.249 69.841C116.278 69.8307 116.29 69.8153 116.293 69.7999L116.288 69.7974Z" fill="#181818"/>
<path d="M36.3564 69.7768C36.3564 69.6485 35.3452 69.5664 30.3456 69.5407C25.6214 69.5151 13.574 69.5536 8.61045 69.6049C2.78234 69.6639 1.67847 69.7589 1.67847 69.9C1.67847 70.0412 2.74117 70.1258 8.53069 70.1464C13.4711 70.1618 25.4978 70.1156 30.2272 70.0591C35.286 69.9975 36.3564 69.9077 36.3564 69.7794V69.7768Z" fill="#181818"/>
<path d="M1.15094 71.409C1.03001 71.3885 0.891059 71.5963 0.734099 72.6921C0.662051 73.2105 0.577138 74.1344 0.535969 75.0633C0.492225 75.9949 0.489652 76.9342 0.517957 77.4859C0.551407 78.1326 0.615735 78.5201 0.703221 78.7485C0.746964 78.8614 0.798427 78.9384 0.857609 78.982C0.914217 79.0154 0.95796 78.9872 0.983692 78.9641C1.00942 78.941 1.012 78.9204 1.01972 78.8794C1.03515 78.8486 1.0403 78.7921 1.04545 78.6921C1.05317 78.4893 1.05059 78.1223 1.05831 77.4936C1.06346 76.9573 1.0789 76.0334 1.11749 75.1147C1.15352 74.196 1.2127 73.2824 1.24358 72.7691C1.31048 71.6707 1.2796 71.4295 1.14837 71.409H1.15094Z" fill="#181818"/>
<path d="M115.776 78.5612C115.902 78.5381 115.953 78.3328 115.889 77.2909C115.827 76.308 115.57 73.811 115.413 72.7845C115.23 71.5809 115.104 71.3628 114.965 71.3833C114.824 71.4039 114.77 71.6323 114.873 72.8307C114.963 73.8546 115.228 76.3439 115.372 77.3191C115.524 78.361 115.65 78.5843 115.776 78.5586V78.5612Z" fill="#181818"/>
<path d="M139.497 66.8513C139.505 66.8205 139.461 66.7769 139.333 66.7153C139.204 66.6562 138.998 66.5664 138.692 66.3996C138.388 66.2328 137.997 65.9659 137.547 65.5245C137.094 65.0857 136.6 64.4493 136.119 63.5716C135.893 63.1559 135.646 62.6452 135.411 62.0524C135.175 61.4621 134.966 60.7846 134.735 60.0481C134.277 58.5853 133.744 56.9327 133.08 55.3159C132.416 53.7043 131.611 52.1209 130.638 50.8506C130.512 50.6941 130.389 50.5401 130.268 50.3887C130.144 50.2398 130.005 50.1038 129.879 49.9652C129.632 49.6855 129.347 49.4417 129.069 49.2313C128.505 48.8104 127.929 48.5435 127.43 48.3665C126.248 47.961 125.258 47.9148 124.496 47.8789C123.729 47.8532 123.166 47.8712 122.754 47.884C121.931 47.9122 121.704 47.9482 121.699 48.02C121.694 48.0867 121.913 48.1663 122.726 48.2279C123.14 48.2535 123.688 48.2895 124.429 48.3357C125.165 48.3998 126.107 48.4717 127.188 48.8515C127.646 49.0132 128.165 49.2621 128.677 49.6368C128.932 49.8267 129.184 50.0397 129.421 50.3014C129.542 50.4297 129.663 50.5606 129.787 50.6966C129.9 50.8403 130.018 50.9866 130.134 51.1355C131.063 52.3365 131.85 53.8737 132.506 55.4519C133.165 57.0327 133.698 58.6649 134.169 60.1225C134.403 60.8488 134.621 61.5442 134.871 62.1576C135.118 62.7709 135.38 63.2996 135.62 63.7333C136.147 64.652 136.688 65.3321 137.202 65.794C137.714 66.2559 138.167 66.5279 138.525 66.6691C138.88 66.8179 139.124 66.8692 139.279 66.8795C139.431 66.8949 139.49 66.8795 139.497 66.8487V66.8513Z" fill="#181818"/>
<path d="M120.853 47.9533C120.858 47.9199 120.768 47.884 120.526 47.8147C120.287 47.7429 119.88 47.6556 119.329 47.381C118.779 47.1064 118.115 46.5598 117.508 45.6026C116.913 44.6377 116.399 43.2775 115.987 41.5145C115.886 41.0988 115.789 40.6369 115.691 40.139C115.585 39.6386 115.49 39.092 115.292 38.5171C115.102 37.9474 114.777 37.3289 114.237 36.8798C113.702 36.4256 113.043 36.1587 112.377 35.9432C111.031 35.5197 109.58 35.3067 108.09 35.086C106.605 34.8602 105.043 34.7165 103.494 34.6318C100.389 34.4624 97.2725 34.4932 94.4833 34.583C91.6914 34.6728 89.2238 34.8422 87.4046 35.0167C86.3368 35.1142 85.3821 35.2323 84.5176 35.3786C84.4095 35.3991 84.3014 35.4196 84.1985 35.4376L84.0416 35.4684L83.8717 35.5197C83.6479 35.5941 83.46 35.7019 83.2876 35.8123C82.9454 36.0432 82.6752 36.2999 82.4308 36.5462C81.9496 37.0466 81.5868 37.5188 81.2806 37.9346C80.9744 38.3503 80.7325 38.7147 80.5318 39.0227C79.7367 40.2673 79.5823 40.6471 79.6389 40.683C79.7033 40.7241 79.9477 40.4162 80.7968 39.2511C81.013 38.9611 81.2652 38.6172 81.5765 38.2271C81.8878 37.8371 82.2507 37.388 82.7112 36.926C82.9428 36.6976 83.1976 36.4615 83.4909 36.2639C83.6376 36.1639 83.7945 36.0792 83.9566 36.0124C84.0415 35.9868 84.1136 35.9611 84.2139 35.9432C84.3143 35.9252 84.4146 35.9072 84.5176 35.8918C85.3461 35.7584 86.2905 35.6532 87.3429 35.5633C89.1389 35.4068 91.5911 35.2451 94.3649 35.1604C97.1362 35.0783 100.234 35.0424 103.307 35.2041C104.076 35.2349 104.84 35.3042 105.599 35.3632C106.356 35.4427 107.104 35.5249 107.845 35.6326C109.322 35.8431 110.763 36.0535 112.047 36.4282C112.691 36.6078 113.285 36.8593 113.756 37.2032C114.229 37.5471 114.538 38.0193 114.726 38.5325C114.919 39.0458 115.03 39.5744 115.138 40.0671C115.243 40.5701 115.344 41.0346 115.446 41.4581C115.884 43.2673 116.419 44.7018 117.086 45.7335C117.747 46.7677 118.516 47.363 119.141 47.6402C119.78 47.9097 120.217 47.9584 120.485 47.979C120.752 47.9969 120.853 47.9764 120.858 47.9456L120.853 47.9533Z" fill="#181818"/>
<path d="M89.198 48.2561C89.1929 48.31 89.6226 48.4204 91.1279 48.4871C91.8792 48.5204 92.9007 48.5256 94.2619 48.5281C94.9438 48.5281 95.708 48.5358 96.5649 48.5795C97.4191 48.6257 98.3712 48.7001 99.3824 48.9439C99.861 49.0542 100.371 49.2262 100.875 49.4828C100.998 49.5521 101.122 49.6214 101.251 49.6932C101.371 49.7805 101.492 49.8677 101.616 49.955C101.742 50.0397 101.86 50.1423 101.979 50.2501C102.097 50.3579 102.223 50.458 102.336 50.5735C103.265 51.4999 104.13 52.7112 104.871 54.1021C105.254 54.7898 105.589 55.534 105.918 56.2962C106.227 57.0687 106.533 57.8642 106.778 58.6931C106.914 59.1037 107.014 59.5272 107.135 59.948C107.236 60.3766 107.336 60.8077 107.436 61.2389C107.632 62.1191 107.874 62.9993 108.198 63.859C108.52 64.7162 108.921 65.5682 109.551 66.2995C109.868 66.6588 110.272 66.9796 110.766 67.1413C110.887 67.1875 111.018 67.2054 111.147 67.2285L111.342 67.2414L111.502 67.2465C111.708 67.2542 111.926 67.2747 112.143 67.2978C113.885 67.4954 115.603 67.6879 117.224 67.8239C120.469 68.1011 123.343 68.2499 125.471 68.332C127.97 68.4116 129.967 68.332 131.546 68.2217C133.126 68.1062 134.292 67.9599 135.144 67.8265C136.847 67.5544 137.297 67.3902 137.285 67.3261C137.272 67.2491 136.819 67.2978 135.141 67.4775C134.302 67.5621 133.157 67.6725 131.603 67.7546C130.049 67.8367 128.088 67.8855 125.626 67.7982C123.526 67.7033 120.66 67.5442 117.441 67.267C115.827 67.1284 114.134 66.9437 112.382 66.7384C112.161 66.7153 111.942 66.6896 111.71 66.6768C111.6 66.6665 111.474 66.6665 111.36 66.6614C111.27 66.6563 111.178 66.6511 111.088 66.628C110.725 66.5587 110.39 66.3226 110.102 66.0352C109.816 65.7427 109.567 65.3937 109.361 65.0138C109.145 64.6417 108.972 64.2363 108.805 63.8334C108.484 63.0147 108.247 62.1576 108.044 61.303C107.941 60.8693 107.84 60.4356 107.74 60.0045C107.632 59.5708 107.513 59.1448 107.387 58.7214C106.87 57.0379 106.23 55.4442 105.46 54.0225C105.09 53.304 104.665 52.6444 104.243 52.0183C103.798 51.4075 103.355 50.8301 102.856 50.3451C102.625 50.0884 102.349 49.8806 102.105 49.6599C101.829 49.4725 101.585 49.2621 101.299 49.1235C100.754 48.8027 100.201 48.641 99.7015 48.4973C98.6208 48.2279 97.6301 48.156 96.7476 48.115C95.8624 48.079 95.0776 48.0893 94.3829 48.0996C93.0011 48.1304 91.9641 48.156 91.1896 48.1714C89.656 48.192 89.198 48.1868 89.1929 48.2612L89.198 48.2561Z" fill="#181818"/>
<path d="M89.0771 48.2458C89.0822 48.1817 88.9716 48.1175 88.5908 48.038C88.4055 47.9815 88.1482 47.9302 87.824 47.8147C87.5049 47.6967 87.1009 47.535 86.6995 47.2091C86.3161 46.9088 85.8787 46.3648 85.6703 45.5975C85.4464 44.8378 85.4181 43.9089 85.4979 42.9876C85.5751 42.0611 85.7526 41.1321 85.9096 40.293C85.9868 39.8695 86.0666 39.4743 86.1 39.0868C86.1463 38.7045 86.1283 38.3529 86.1026 38.0578C86.0177 37.3623 85.7784 36.8208 85.5005 36.4641C85.2251 36.1023 84.9395 35.9072 84.7208 35.7969C84.4995 35.6891 84.3426 35.6583 84.2448 35.6557C84.147 35.6557 84.1084 35.6788 84.1007 35.7122C84.0801 35.7917 84.1959 35.8405 84.5278 36.0843C84.6899 36.21 84.9035 36.3974 85.1094 36.7105C85.3178 37.021 85.5005 37.4701 85.5596 38.0757C85.7063 39.0971 85.0733 40.9551 84.9189 42.8849C84.834 43.8473 84.8572 44.8404 85.1119 45.7027C85.3512 46.5701 85.8761 47.2373 86.3367 47.5786C86.8282 47.9559 87.2991 48.1175 87.6645 48.2228C88.0376 48.3177 88.3206 48.3382 88.529 48.3536C88.9484 48.3536 89.072 48.31 89.0745 48.2458H89.0771Z" fill="#181818"/>
<path d="M109.119 37.3341C109.111 37.234 108.743 37.2032 106.86 37.0877C105.082 36.9799 100.535 36.749 98.6542 36.7438C96.4491 36.7284 96.0297 36.8259 96.0322 36.926C96.0322 37.0389 96.4336 37.0749 98.6157 37.1467C100.476 37.2032 105.01 37.4239 106.798 37.4726C108.707 37.5265 109.127 37.429 109.119 37.3341Z" fill="#181818"/>
<path d="M110.478 39.7618C110.478 39.6668 110.087 39.5898 108.134 39.5051C107.21 39.4641 105.568 39.4179 103.914 39.4025C102.259 39.3871 100.594 39.4076 99.6217 39.4461C97.3368 39.5411 96.9096 39.6668 96.9173 39.7643C96.9251 39.8772 97.3419 39.8875 99.6011 39.8516C100.566 39.8387 102.221 39.8285 103.867 39.8413C105.514 39.8618 107.148 39.8798 108.077 39.8926C110.053 39.9132 110.478 39.8618 110.478 39.7643V39.7618Z" fill="#181818"/>
<path d="M110.859 41.6223C110.856 41.5274 110.303 41.4709 107.532 41.3939C104.912 41.3195 98.2323 41.2399 95.4791 41.3092C92.2446 41.3759 91.6322 41.5299 91.64 41.6223C91.6477 41.7404 92.2343 41.725 95.4379 41.7147C98.1731 41.6942 104.837 41.766 107.46 41.7788C110.262 41.7917 110.864 41.7198 110.859 41.6223Z" fill="#181818"/>
<path d="M112.629 44.6787C112.629 44.5838 112.364 44.5119 111.046 44.4965C110.424 44.4888 109.317 44.5042 108.206 44.5504C107.094 44.594 105.972 44.6762 105.321 44.748C103.79 44.92 103.512 45.056 103.528 45.1535C103.546 45.2664 103.826 45.2664 105.337 45.1535C105.982 45.1073 107.091 45.0354 108.198 44.9892C109.302 44.9482 110.395 44.9071 111.023 44.884C112.351 44.8327 112.631 44.7763 112.631 44.6787H112.629Z" fill="#181818"/>
<path d="M114.651 46.2878C114.646 46.1928 114.33 46.1441 112.778 46.1672C111.296 46.2057 107.575 46.2981 106.026 46.3365C104.217 46.3827 103.875 46.4264 103.873 46.5393C103.873 46.6394 104.202 46.7292 106.006 46.742C107.544 46.7574 111.286 46.6445 112.755 46.5547C114.327 46.4623 114.657 46.3827 114.651 46.2878Z" fill="#181818"/>
<path d="M115.284 47.4862C115.289 47.3913 115.145 47.3143 114.404 47.2501C113.707 47.1808 111.919 47.1398 111.175 47.2039C110.303 47.2732 110.143 47.3913 110.161 47.4888C110.179 47.5991 110.334 47.6197 111.178 47.6094C111.898 47.5966 113.671 47.6299 114.368 47.6376C115.114 47.6376 115.277 47.5863 115.282 47.4888L115.284 47.4862Z" fill="#181818"/>
<path d="M120.657 48.872C120.657 48.8233 120.539 48.7796 120.114 48.7309C119.689 48.6795 118.964 48.6282 117.752 48.5872C116.607 48.5461 114.574 48.5281 112.529 48.5538C110.483 48.5769 108.424 48.6308 107.223 48.6667C104.405 48.754 103.88 48.7591 103.87 48.872C103.862 48.9695 104.385 49.1004 107.192 49.0722C108.388 49.0542 110.442 49.0234 112.48 48.9926C114.518 48.9644 116.545 48.9644 117.688 48.9721C118.91 48.9772 119.651 48.9824 120.086 48.9695C120.521 48.9541 120.654 48.9208 120.654 48.872H120.657Z" fill="#181818"/>
<path d="M127.517 52.9088C127.517 52.8138 127.339 52.7548 126.477 52.7368C125.664 52.7214 123.59 52.7342 122.739 52.7394C121.738 52.7496 121.547 52.801 121.542 52.9088C121.537 53.0114 121.717 53.0961 122.718 53.1448C123.572 53.1885 125.649 53.1705 126.462 53.1243C127.334 53.0781 127.517 53.0063 127.514 52.9113L127.517 52.9088Z" fill="#181818"/>
<path d="M128.814 55.1773C128.814 55.0824 128.381 55.0234 126.264 55.0234C124.259 55.0234 119.154 55.0952 117.049 55.1517C114.579 55.2184 114.114 55.2928 114.114 55.398C114.114 55.5032 114.566 55.5648 117.021 55.5571C119.116 55.5494 124.213 55.4725 126.217 55.4109C128.361 55.3467 128.814 55.2748 128.811 55.1773H128.814Z" fill="#181818"/>
<path d="M129.444 58.3929C129.444 58.2979 128.991 58.244 126.758 58.2594C124.645 58.2748 119.262 58.3929 117.044 58.4673C114.44 58.5545 113.949 58.6341 113.954 58.7393C113.957 58.8445 114.435 58.901 117.019 58.8728C119.224 58.8471 124.594 58.7265 126.706 58.6469C128.966 58.5648 129.442 58.4878 129.442 58.3929H129.444Z" fill="#181818"/>
<path d="M83.6092 17.4121C83.5192 17.3942 83.3571 17.7919 83.0354 19.827C82.8836 20.7893 82.6546 22.501 82.4642 24.2307C82.2712 25.9604 82.1271 27.708 82.0834 28.7319C82.0293 29.9355 82.0576 30.6566 82.1426 31.0801C82.1863 31.2905 82.2403 31.4317 82.3252 31.5086C82.4282 31.5856 82.4693 31.5189 82.4771 31.5009C82.4899 31.4779 82.4513 31.4676 82.441 31.4188C82.4282 31.3726 82.4102 31.252 82.405 31.057C82.3921 30.6669 82.4076 29.9663 82.4899 28.7858C82.5568 27.7773 82.7112 26.0425 82.8991 24.3205C83.0843 22.5986 83.2953 20.892 83.4162 19.9271C83.6736 17.8664 83.7122 17.4301 83.6118 17.4096L83.6092 17.4121Z" fill="#181818"/>
<path d="M82.7781 31.4137C82.791 31.4625 83.074 31.4137 84.0287 31.1802C84.9833 30.9569 86.6069 30.5078 89.3499 30.0048C89.916 29.9047 90.5798 29.7944 91.4212 29.6866C91.8407 29.6327 92.3064 29.5814 92.8262 29.5326C93.0886 29.5095 93.3614 29.4839 93.6521 29.4582C93.7988 29.4428 93.948 29.43 94.1102 29.4017C94.1925 29.3889 94.2774 29.3709 94.3752 29.335C94.4215 29.317 94.5038 29.276 94.5553 29.2221C94.5785 29.1939 94.6068 29.1631 94.6196 29.1297C94.6299 29.0938 94.6479 29.0579 94.6557 29.0194C94.702 28.6729 94.7534 28.3111 94.8023 27.9364C94.8538 27.5694 94.9078 27.1896 94.9644 26.7995C95.0751 26.0194 95.2037 25.2033 95.3324 24.3616C95.6 22.6807 95.901 20.9074 96.2201 19.1752C96.8531 15.7107 97.5478 12.4079 98.0779 10.3138C98.1319 10.0854 98.1963 9.8673 98.2503 9.65687C98.2786 9.55165 98.3069 9.44643 98.3378 9.34635C98.3764 9.21547 98.415 9.08972 98.4536 8.96398C98.451 8.89725 98.4716 8.82796 98.4356 8.77664C98.4021 8.72275 98.3481 8.68939 98.2786 8.66372C98.2117 8.64063 98.1294 8.62523 98.0625 8.61496L97.9364 8.597C97.7717 8.57647 97.6147 8.56364 97.4629 8.55337C97.1567 8.53284 96.8685 8.51745 96.5958 8.50718C96.0503 8.48665 95.5665 8.47639 95.1394 8.46869C94.2826 8.45586 93.6444 8.45842 93.1761 8.46869C92.2369 8.48665 91.9693 8.52514 91.9693 8.5739C91.9693 8.62266 92.2266 8.66629 93.1607 8.71505C93.6341 8.73558 94.2671 8.76381 95.1188 8.8023C95.546 8.82283 96.0297 8.84593 96.5726 8.87416C96.8428 8.88956 97.131 8.90752 97.4295 8.93318C97.5787 8.94601 97.7331 8.96141 97.8875 8.98194L98.0007 8.9999C98.0187 9.00247 98.0136 9.00247 98.0213 9.00504C98.0316 9.00504 98.0367 9.0153 98.029 9.023C98.0084 9.08716 97.9879 9.15388 97.9673 9.2206C97.9364 9.31812 97.9081 9.41564 97.8798 9.51572C97.8257 9.71589 97.7666 9.92119 97.71 10.1316C97.1516 12.2411 96.4388 15.5696 95.7981 19.0597C95.4765 20.8047 95.1729 22.5909 94.9053 24.2846C94.7766 25.1315 94.6505 25.9552 94.5399 26.7379C94.4858 27.1306 94.4344 27.5104 94.3829 27.8799C94.334 28.2443 94.2877 28.5959 94.244 28.9321C94.2388 28.9372 94.2543 28.9321 94.2259 28.9449C94.1822 28.9629 94.1153 28.9783 94.0484 28.9886C93.9146 29.0117 93.7705 29.0271 93.6316 29.0425C93.3485 29.0681 93.0835 29.0938 92.8287 29.1194C92.3167 29.1682 91.8587 29.2221 91.447 29.276C90.621 29.3863 89.97 29.4967 89.4116 29.6019C88.0144 29.8637 86.9054 30.1357 86.0228 30.3641C85.1403 30.5951 84.4867 30.7875 84.0029 30.9389C83.0406 31.2417 82.7653 31.3701 82.7781 31.4137Z" fill="#181818"/>
<path d="M97.2056 25.4651C97.1954 25.5241 97.1876 25.5806 97.1773 25.6396L96.372 25.0801C95.4739 23.1144 93.3074 22.9399 91.2257 23.8329C91.2257 23.8329 90.6828 22.3881 92.3013 16.8168C93.7088 15.6337 95.8162 15.6337 96.9509 17.2684C98.0085 18.7928 97.6791 22.5036 97.2056 25.4651Z" fill="#FFFEFF"/>
<path d="M91.3878 8.72018C91.3672 8.67655 91.2797 8.67912 91.0096 8.79203C90.7368 8.90238 90.3174 9.16928 89.6844 9.67996C89.09 10.1676 88.1122 11.1119 87.2013 12.1256C86.2853 13.1342 85.4156 14.194 84.9267 14.8279C83.7791 16.3086 83.6762 16.709 83.7688 16.7475C83.792 16.7577 83.8254 16.75 83.8743 16.7115C83.9232 16.6705 83.9849 16.6012 84.093 16.4806C84.2963 16.2419 84.6411 15.8159 85.2278 15.0999C85.7295 14.4891 86.5967 13.4447 87.5024 12.4438C88.403 11.4404 89.3499 10.4935 89.9108 9.99561C90.5104 9.4644 90.8912 9.16671 91.1202 9.00247C91.3492 8.84079 91.4084 8.76124 91.3878 8.71761V8.72018Z" fill="#181818"/>
<path d="M91.9693 8.57134C91.9178 8.50975 91.501 8.83566 91.0018 10.7809C90.8628 11.2941 90.693 12.0358 90.5232 12.8724C90.4383 13.2907 90.3534 13.7321 90.271 14.1786C90.2041 14.5687 90.1347 14.9639 90.0678 15.3514L89.952 15.3591C89.8542 15.3668 89.759 15.372 89.6638 15.3796C89.4734 15.3976 89.2855 15.4156 89.1028 15.431C88.7374 15.4695 88.3849 15.5131 88.0581 15.5593C87.402 15.6517 86.8359 15.7569 86.4062 15.8493C85.2586 16.0931 84.5947 16.324 84.219 16.4703C83.8434 16.6269 83.7533 16.7013 83.7713 16.75C83.7893 16.7988 83.9026 16.8091 84.2859 16.7218C84.6719 16.6423 85.3281 16.4626 86.4551 16.2522C86.8822 16.1701 87.4483 16.0751 88.1019 15.9879C88.4287 15.9442 88.776 15.9032 89.1414 15.8672C89.3241 15.8518 89.5094 15.8339 89.6972 15.8185C89.7924 15.8108 89.8851 15.8057 89.9828 15.798C90.1372 15.7903 90.2916 15.7826 90.4486 15.7723C90.4949 15.4951 90.5412 15.2154 90.5875 14.9331C90.6261 14.7099 90.6647 14.4892 90.7033 14.2685C90.7857 13.8271 90.8654 13.3934 90.9426 12.9802C91.1021 12.1564 91.254 11.4276 91.3723 10.922C91.8098 8.95628 92.0696 8.64319 91.9744 8.57391L91.9693 8.57134Z" fill="#181818"/>
<path d="M57.1421 47.2578C57.1987 47.2809 57.3248 47.1167 57.595 46.4879C57.8574 45.8566 58.282 44.7583 58.758 42.8618C58.9716 41.9636 59.2598 40.7138 59.3858 39.2357C59.4039 39.0509 59.4064 38.861 59.4142 38.6685C59.4142 38.571 59.4116 38.4709 59.409 38.3734C59.409 38.3323 59.4039 38.2554 59.391 38.1886C59.3756 38.127 59.3601 38.0629 59.3395 38.009C59.162 37.5702 58.8789 37.2648 58.5882 36.9645C57.9989 36.3794 57.3196 35.8893 56.6275 35.4325C56.2852 35.2066 55.9456 34.9808 55.6188 34.7498C55.2946 34.5189 54.9781 34.2776 54.7362 34.0133C54.6076 33.885 54.5226 33.7413 54.4532 33.6027C54.394 33.4616 54.3734 33.3179 54.3786 33.1665C54.3991 33.015 54.43 32.8559 54.5021 32.6994C54.5612 32.5326 54.6333 32.4145 54.7336 32.2888C54.9318 32.0476 55.2045 31.8577 55.4876 31.7062C55.7732 31.5548 56.0717 31.4368 56.3624 31.3316C56.6558 31.2238 56.9362 31.1417 57.2244 31.0185C57.2502 31.0108 57.3248 30.9672 57.3814 30.9389C57.4354 30.903 57.492 30.8696 57.5306 30.8234C57.5744 30.7824 57.6052 30.7311 57.6233 30.6746C57.6336 30.6489 57.6336 30.6181 57.6438 30.5899L57.6335 30.5052C57.613 30.3949 57.5666 30.2794 57.4997 30.1844C57.4534 30.1152 57.42 30.0664 57.3788 30.0151C57.0134 29.548 56.6583 29.1862 56.3393 28.8526C56.0202 28.5215 55.7294 28.2366 55.4721 27.9852C54.9549 27.4847 54.5587 27.128 54.2628 26.8714C53.6709 26.3607 53.4728 26.2555 53.4239 26.3068C53.375 26.3581 53.4857 26.5403 54.0054 27.1075C54.2756 27.3923 54.6307 27.7747 55.1119 28.2828C55.3538 28.542 55.6265 28.832 55.9327 29.1631C56.2338 29.4941 56.5786 29.8688 56.9054 30.2922C56.9723 30.3769 57.0597 30.5104 57.0366 30.4821C57.0417 30.4898 57.0314 30.4975 57.0237 30.5001L56.962 30.5258L56.8693 30.5617C56.8024 30.5848 56.7355 30.6079 56.6686 30.631C56.5271 30.6797 56.3804 30.7285 56.2312 30.7773C55.9276 30.8825 55.6059 31.0005 55.2791 31.1648C54.9549 31.3316 54.6179 31.5394 54.3348 31.8551C54.1959 32.0091 54.0698 32.2041 53.9874 32.3991C53.9488 32.4967 53.9025 32.589 53.8742 32.6968L53.8279 32.8559L53.8022 33.0253C53.7173 33.4898 53.9385 34.0133 54.237 34.329C54.5304 34.6652 54.8674 34.9192 55.2045 35.1656C55.5416 35.4094 55.8864 35.6378 56.2286 35.8636C56.9079 36.3076 57.5615 36.7798 58.1121 37.3058C58.3823 37.5676 58.6371 37.855 58.7709 38.1347C58.8017 38.204 58.8249 38.2708 58.8301 38.3195C58.8352 38.3349 58.8326 38.3991 58.8352 38.4376V38.571C58.8403 38.7481 58.8326 38.9277 58.8223 39.1022C58.7246 40.5188 58.4595 41.7609 58.2691 42.6488C57.842 44.5504 57.4792 45.677 57.2965 46.3468C57.1035 47.014 57.0752 47.227 57.1369 47.2501L57.1421 47.2578Z" fill="white"/>
<path d="M42.604 65.9865C42.5705 65.8581 42.2798 65.8633 40.8826 66.0942C40.2213 66.202 39.0505 66.3945 37.8643 66.5562C36.6781 66.7204 35.479 66.8513 34.7791 66.9334C33.1375 67.1182 32.8261 67.2106 32.8364 67.3568C32.8441 67.4929 33.1555 67.5775 34.8074 67.4723C35.5125 67.4236 36.7193 67.3081 37.9132 67.1387C39.1071 66.9719 40.2882 66.7563 40.9469 66.6075C42.3595 66.2867 42.6349 66.1071 42.604 65.9865Z" fill="#181818"/>
<path d="M42.3364 55.765C42.4007 55.765 42.447 55.5417 42.465 54.7667C42.4753 53.9943 42.5011 52.6675 42.3853 50.4682C42.3312 49.4289 42.2412 47.9867 42.0868 46.3442C41.935 44.6993 41.7085 42.8593 41.4512 41.0167C41.1914 39.1741 40.8954 37.3341 40.633 35.684C40.5043 34.8576 40.386 34.08 40.2753 33.3718C40.1621 32.666 40.0669 32.0347 40 31.4984C39.6758 28.9757 39.8147 27.4693 39.9099 26.6071C39.9357 26.3941 39.9563 26.217 39.9743 26.0682C39.9949 25.9244 40.0077 25.8115 40.0129 25.7268C40.0232 25.5549 40.0077 25.4882 39.9717 25.4779C39.9382 25.4677 39.8919 25.5164 39.825 25.6755C39.7556 25.8321 39.6629 26.099 39.5703 26.5301C39.4777 26.9612 39.3747 27.5592 39.3361 28.3727C39.2898 29.1862 39.313 30.2178 39.4519 31.4932C39.5111 32.0373 39.5986 32.6763 39.7067 33.382C39.8122 34.0877 39.9254 34.8653 40.0489 35.6891C40.3036 37.3392 40.597 39.1715 40.8568 41.0038C41.1167 42.8362 41.3509 44.6659 41.513 46.2955C41.6777 47.9276 41.7883 49.3596 41.8629 50.3964C42.025 52.6111 42.0662 53.9532 42.1434 54.7436C42.2103 55.5315 42.2721 55.7676 42.3364 55.765Z" fill="#181818"/>
<path d="M36.4876 26.0271C36.4387 25.9912 36.2586 26.1272 35.7929 26.7226C35.5613 27.0228 35.2603 27.4385 34.8949 28.0211C34.5346 28.6088 34.0843 29.3453 33.6726 30.3692C33.6186 30.5155 33.5594 30.6669 33.5002 30.885C33.4745 30.998 33.4385 31.1211 33.4256 31.2854C33.423 31.3752 33.4076 31.4471 33.4462 31.6087C33.4642 31.6806 33.4977 31.7524 33.5491 31.814C33.598 31.8782 33.6752 31.9116 33.7524 31.95C33.8836 31.9937 34.02 32.0399 34.159 32.0861C34.2902 32.1323 34.424 32.181 34.5604 32.2298C34.8357 32.3299 35.1239 32.4428 35.4172 32.5736C35.9936 32.8354 36.6446 33.1511 37.0897 33.6438C37.1901 33.7695 37.2879 33.8978 37.3342 34.039C37.3522 34.0723 37.3574 34.1083 37.3651 34.1442C37.3702 34.1801 37.3882 34.2109 37.3857 34.2546C37.3857 34.3367 37.3934 34.4162 37.3934 34.4983C37.3754 34.8345 37.2493 35.1938 37.1026 35.5505C36.799 36.2639 36.3667 36.9697 35.9833 37.7088C35.6051 38.4478 35.2165 39.2254 35.1573 40.1262C35.1625 40.2417 35.1651 40.3648 35.1779 40.4752L35.2371 40.7883C35.2783 40.9936 35.34 41.1835 35.3915 41.3785C35.4532 41.5659 35.515 41.7506 35.5768 41.9354C35.6437 42.115 35.7106 42.2921 35.7749 42.4692C36.3178 43.8601 36.9071 45.038 37.3651 45.9131C38.5384 48.1304 39.403 49.3545 39.933 50.0397C40.4708 50.7197 40.669 50.8686 40.7204 50.8275C40.7796 50.7813 40.6792 50.5709 40.2315 49.86C39.7915 49.144 39.0016 47.9174 37.8797 45.7258C37.4397 44.8532 36.8659 43.6779 36.3332 42.3126C36.2689 42.1407 36.2046 41.9688 36.1403 41.7917C36.0811 41.6146 36.0219 41.435 35.9627 41.2553C35.8624 40.9012 35.744 40.506 35.7414 40.1852C35.7492 39.8388 35.8495 39.4615 35.9833 39.0971C36.1274 38.7327 36.2972 38.3657 36.4876 38.0064C36.8633 37.2802 37.3007 36.5719 37.6327 35.7917C37.7922 35.4017 37.9466 34.9988 37.9698 34.5445C37.9749 34.4316 37.9646 34.3161 37.962 34.2007C37.9517 34.0877 37.9209 33.9594 37.8823 33.8517C37.8025 33.6258 37.6687 33.441 37.5297 33.2768C37.2467 32.9535 36.9173 32.7328 36.5983 32.5403C36.2766 32.353 35.955 32.2015 35.6462 32.0655C35.3349 31.9321 35.0364 31.8192 34.7508 31.7191C34.6093 31.6703 34.4703 31.6241 34.3365 31.5779C34.2104 31.5369 34.0895 31.4984 33.9737 31.4625C33.966 31.4625 33.9608 31.4548 33.9583 31.4496C33.9583 31.4573 33.9531 31.406 33.9557 31.3572C33.9634 31.2572 33.9788 31.1596 33.9994 31.0749C34.0406 30.9004 34.0843 30.7696 34.1281 30.6438C34.4857 29.6609 34.9129 28.8988 35.2397 28.2982C35.5767 27.6977 35.8469 27.2589 36.0451 26.9304C36.4439 26.276 36.5468 26.0656 36.4928 26.0271H36.4876Z" fill="white"/>
<path d="M57.0083 66.6716C57.0649 66.6716 57.1524 66.4176 57.1318 65.5143C57.1164 65.0652 57.0649 64.4518 56.9054 63.646C56.7381 62.8428 56.4731 61.8342 55.8684 60.6768C55.6137 60.2098 55.2997 59.6657 54.8263 59.1448C54.3631 58.6213 53.743 58.1131 52.9608 57.7975C52.1888 57.469 51.2574 57.3843 50.3619 57.5588C50.2513 57.5819 50.1381 57.6076 50.0274 57.6307L49.6981 57.7282C49.4768 57.7949 49.2786 57.8642 49.0651 57.9335C48.6456 58.0721 48.2211 58.2107 47.7939 58.3492C47.3668 58.4878 46.9397 58.629 46.5125 58.7675L45.8667 58.978C45.648 59.0524 45.4395 59.1191 45.2028 59.2269C45.1719 59.2423 45.1411 59.2577 45.0973 59.2834C45.0767 59.2988 45.051 59.3167 45.033 59.3321L44.9944 59.3655C44.9481 59.4091 44.9018 59.4502 44.8606 59.4964C44.7731 59.5862 44.6959 59.6786 44.6239 59.771C44.4772 59.9583 44.3511 60.1533 44.2327 60.3484C43.9986 60.741 43.8056 61.1413 43.6281 61.5365C43.2807 62.3321 43.0079 63.1174 42.7815 63.8642C42.6683 64.2363 42.5679 64.6007 42.483 64.9548C42.4393 65.1319 42.4007 65.3064 42.3672 65.4809C42.3492 65.5682 42.3364 65.6554 42.3235 65.7478C42.3183 65.7812 42.3055 65.8838 42.3235 65.9531C42.3286 65.9916 42.3338 66.0301 42.3492 66.0634L42.3595 66.0891C42.3389 66.1096 42.3595 66.1071 42.3595 66.1199L42.3878 66.1687C42.4521 66.2302 42.5268 66.3072 42.5782 66.3355C42.6297 66.3714 42.6786 66.4022 42.73 66.4253C42.8304 66.4792 42.9282 66.5074 43.0234 66.5382C43.2112 66.5921 43.3862 66.6126 43.5483 66.628C43.8725 66.6537 44.1504 66.6434 44.4 66.628C44.8966 66.5895 45.2774 66.5254 45.6197 66.4561C45.9876 66.3791 46.317 66.3124 46.636 66.2739C46.9525 66.2405 47.2536 66.22 47.5366 66.2431C48.1027 66.2713 48.5865 66.4125 48.993 66.5895C49.8061 66.9565 50.2899 67.4492 50.6398 67.7957C50.8019 67.983 50.9512 68.1267 51.0541 68.2576C51.157 68.3885 51.2419 68.4886 51.3088 68.5604C51.4426 68.7067 51.5095 68.7478 51.5404 68.7298C51.5713 68.7118 51.561 68.64 51.4761 68.4603C51.4349 68.3705 51.3732 68.2576 51.2882 68.1088C51.2059 67.9599 51.0721 67.7982 50.9203 67.5878C50.5961 67.1977 50.1175 66.6383 49.24 66.1943C48.8052 65.9762 48.2674 65.794 47.6421 65.7427C47.022 65.6836 46.317 65.7606 45.5965 65.912C45.2594 65.9762 44.8863 66.0378 44.4103 66.0737C44.1736 66.0891 43.9085 66.0994 43.6229 66.0763C43.4814 66.0609 43.3322 66.0455 43.1906 66.0044C43.1212 65.9839 43.0491 65.9608 42.9899 65.93C42.9565 65.9172 42.9282 65.8992 42.905 65.8812C42.8741 65.8607 42.8844 65.8684 42.8819 65.8658C42.8819 65.8658 42.8819 65.8658 42.8819 65.8607L42.887 65.8248C42.8973 65.7555 42.9102 65.6734 42.9256 65.5938C42.9565 65.4347 42.9951 65.2679 43.0388 65.0985C43.1237 64.7598 43.2215 64.4082 43.3322 64.0464C43.5534 63.3227 43.821 62.5605 44.153 61.8009C44.3202 61.4211 44.5055 61.0413 44.7191 60.682C44.8246 60.5023 44.9404 60.3278 45.0639 60.1636C45.1256 60.0815 45.1899 60.0045 45.2594 59.9326C45.2929 59.8967 45.3263 59.8608 45.3623 59.83L45.4138 59.7838C45.4138 59.7838 45.4138 59.7838 45.4292 59.7735C45.5811 59.6991 45.8075 59.6221 46.0108 59.5528L46.6438 59.345C47.0709 59.2038 47.4955 59.0652 47.92 58.9241C48.3446 58.7829 48.7666 58.6444 49.186 58.5058C49.3944 58.4365 49.6028 58.3698 49.8087 58.3005C50.0068 58.2415 50.1998 58.1747 50.3979 58.1414C50.5935 58.09 50.7942 58.0772 50.9898 58.0516C51.1853 58.0516 51.3809 58.0285 51.5739 58.0516C51.9598 58.0695 52.3252 58.1619 52.6674 58.2851C53.3519 58.5443 53.918 58.9703 54.3528 59.4322C54.7903 59.8967 55.1068 60.3894 55.3589 60.8206C55.9636 61.9138 56.2621 62.8915 56.4628 63.6742C56.6583 64.4595 56.7458 65.0626 56.8076 65.5091C56.9157 66.4048 56.9362 66.6768 57.0083 66.6768V66.6716Z" fill="#181818"/>
<path d="M46.0416 57.9438C46.0776 57.9027 46.0313 57.741 45.6145 57.4485C45.509 57.3766 45.3778 57.3022 45.2157 57.2304C45.1333 57.1944 45.0458 57.1611 44.948 57.1277C44.8554 57.0969 44.7576 57.0661 44.6547 57.0302C44.2379 56.8942 43.7155 56.7299 43.062 56.5323C42.9204 56.4913 42.7686 56.4451 42.4212 56.3424L41.6596 56.1166L42.1356 56.7556L42.4187 56.3424C39.8636 55.5725 34.0071 54.1534 31.4983 53.5991C28.3771 52.9036 27.7647 52.8626 27.7339 52.9986C27.703 53.1372 28.2511 53.3502 31.3311 54.1123C33.8244 54.7282 39.722 56.1525 42.2746 56.848L43.0362 57.0558L42.5576 56.4348L42.272 56.848C42.5885 56.9352 42.7274 56.9737 42.8561 57.0097C43.5277 57.1893 44.0655 57.3304 44.5003 57.4357C44.719 57.4921 44.9069 57.5306 45.0561 57.5742C45.2079 57.6204 45.3366 57.6692 45.4447 57.7154C45.8692 57.9104 45.9979 57.9951 46.0442 57.9386L46.0416 57.9438Z" fill="#181818"/>
<path d="M52.5723 67.7059C52.6366 67.7059 52.688 67.6699 52.7318 67.5365C52.773 67.403 52.8064 67.1695 52.7678 66.7717C52.7421 66.587 52.6983 66.3226 52.5903 66.0403C52.4848 65.7581 52.3227 65.4578 52.1348 65.1858C51.7566 64.6417 51.3114 64.1772 51.0464 63.9155C50.416 63.3047 50.2333 63.2585 50.1329 63.356C50.03 63.4561 50.084 63.6281 50.6424 64.2773C50.8791 64.5545 51.3011 65.0164 51.6434 65.504C51.8132 65.7478 51.9573 65.9993 52.0576 66.2328C52.158 66.4663 52.2146 66.6845 52.2532 66.8436C52.3304 67.1849 52.3664 67.4056 52.4101 67.5365C52.4539 67.6674 52.5079 67.7084 52.5723 67.7084V67.7059Z" fill="#181818"/>
<path d="M54.0672 67.421C54.1315 67.4159 54.1804 67.3748 54.2113 67.2311C54.2421 67.0874 54.2576 66.8436 54.2138 66.4407C54.1752 66.0609 54.044 65.3808 53.7867 64.7392C53.5371 64.0951 53.1846 63.4997 52.9659 63.1687C52.4435 62.3962 52.2608 62.3116 52.145 62.386C52.0241 62.4655 52.055 62.6503 52.495 63.4356C52.6802 63.7718 52.9993 64.3415 53.2335 64.9368C53.4779 65.5297 53.622 66.1507 53.6992 66.5048C53.7841 66.8821 53.833 67.1156 53.8896 67.2516C53.9436 67.3876 54.0028 67.4261 54.0646 67.421H54.0672Z" fill="#181818"/>
<path d="M56.0588 67.1387C56.1797 67.1233 56.2569 66.9052 56.1308 65.8761C56.0665 65.3911 55.9224 64.5288 55.6522 63.6819C55.3975 62.8299 54.9601 62.0139 54.6255 61.5956C54.2344 61.0977 53.9128 60.8821 53.7224 60.7795C53.5242 60.682 53.4471 60.6948 53.4059 60.7513C53.3647 60.8077 53.375 60.8898 53.4985 61.0438C53.6195 61.2029 53.8588 61.4365 54.1804 61.8984C54.4557 62.291 54.8443 63.0301 55.0913 63.8359C55.3537 64.634 55.5184 65.4681 55.6213 65.9377C55.8323 66.9437 55.9275 67.1541 56.0613 67.1361L56.0588 67.1387Z" fill="#181818"/>
<path d="M49.7443 29.9612C49.68 29.9407 49.6105 30.0074 49.4587 30.2306C49.379 30.341 49.276 30.4898 49.1036 30.6618C48.9364 30.8337 48.7074 31.0365 48.3729 31.2264C48.0615 31.406 47.5855 31.5985 47.0143 31.7011C46.443 31.7986 45.7766 31.7986 45.1333 31.6626C44.49 31.5292 43.8751 31.2623 43.3862 30.9312C42.8947 30.6028 42.5242 30.2255 42.2694 29.9304C41.6905 29.2221 41.464 28.7089 41.2942 28.4343C41.1398 28.1494 41.0523 28.0827 40.9854 28.1058C40.9185 28.1289 40.8928 28.229 40.97 28.5574C41.0601 28.8757 41.235 29.4479 41.8346 30.2512C42.0945 30.5874 42.4933 31.0159 43.0388 31.3906C43.5766 31.773 44.2636 32.0707 44.9789 32.2272C45.3366 32.3068 45.702 32.3401 46.0571 32.3504C46.4122 32.353 46.757 32.3222 47.0786 32.2657C47.7193 32.1451 48.2545 31.9116 48.607 31.6909C49.3661 31.2084 49.6388 30.6797 49.7418 30.3898C49.8396 30.0869 49.8035 29.9817 49.7469 29.9638L49.7443 29.9612Z" fill="#181818"/>
<path d="M48.8207 10.9503C48.9159 11.0426 49.0265 11.0298 49.3404 10.822C49.4897 10.7244 49.7496 10.5576 50.0378 10.437C50.3234 10.3138 50.6322 10.2317 50.8174 10.1855C51.2471 10.0752 51.3372 9.99818 51.3243 9.84934C51.314 9.71589 51.224 9.61067 50.7274 9.65173C50.5164 9.6697 50.1535 9.74925 49.8139 9.89809C49.4717 10.0444 49.1706 10.2676 49.0265 10.4139C48.7177 10.7296 48.7358 10.863 48.8232 10.9477L48.8207 10.9503Z" fill="#181818"/>
<path d="M51.543 11.8972C51.543 12.2 51.35 12.4438 51.1133 12.4438C50.8766 12.4438 50.6836 12.1975 50.6836 11.8972C50.6836 11.597 50.8766 11.3506 51.1133 11.3506C51.35 11.3506 51.543 11.597 51.543 11.8972Z" fill="#1C1C1C"/>
<path d="M55.3203 10.7963C55.3203 11.0427 55.1633 11.2428 54.9678 11.2428C54.7722 11.2428 54.6152 11.0427 54.6152 10.7963C54.6152 10.5499 54.7722 10.3498 54.9678 10.3498C55.1633 10.3498 55.3203 10.5499 55.3203 10.7963Z" fill="#1C1C1C"/>
<path d="M55.4978 8.46356C55.5261 8.34807 55.4644 8.21463 55.0964 8.19666C54.9266 8.1941 54.6127 8.24029 54.3348 8.4071C54.0543 8.56364 53.8407 8.8254 53.7687 8.99221C53.6735 9.18724 53.6632 9.31556 53.6838 9.39511C53.7018 9.47467 53.7507 9.50803 53.8202 9.52856C53.8871 9.54909 53.9488 9.55165 54.0106 9.51316C54.0698 9.47467 54.1341 9.39768 54.2267 9.27963C54.3039 9.17441 54.4454 9.01787 54.6281 8.91265C54.8057 8.79974 55.0218 8.74328 55.1427 8.71248C55.4052 8.64833 55.4695 8.59444 55.4978 8.46356Z" fill="#181818"/>
<path d="M53.4034 14.3839C53.4497 14.4276 53.5115 14.4404 53.6118 14.4019C53.7147 14.3634 53.8588 14.2838 54.1187 14.1273C54.2397 14.0478 54.4198 13.9425 54.6153 13.7424C54.7105 13.6397 54.8083 13.5011 54.8623 13.3343C54.9164 13.1598 54.9215 13.0007 54.9112 12.8493C54.8546 12.2334 54.5484 11.7586 54.376 11.4969C53.9437 10.8938 53.7688 10.8656 53.6633 10.9451C53.5449 11.035 53.5784 11.1812 53.9103 11.7689C54.0441 12.0178 54.2885 12.4618 54.3271 12.8801C54.3426 13.1085 54.3168 13.2188 54.2011 13.3574C54.0904 13.4909 53.9334 13.6089 53.8254 13.7013C53.5861 13.8963 53.4446 14.0529 53.3905 14.1658C53.3365 14.2787 53.3545 14.3403 53.4008 14.3839H53.4034Z" fill="#181818"/>
<path d="M51.9444 21.726C51.8234 21.6824 51.6665 21.8646 51.2445 22.8963C50.8457 23.8714 49.9245 26.3915 49.5771 27.4411C49.3893 28.0596 49.2323 28.3573 49.1397 28.5549C49.047 28.7448 49.0393 28.8243 49.0908 28.8757C49.1397 28.9244 49.2297 28.9295 49.4124 28.7704C49.59 28.619 49.855 28.2572 50.0789 27.6464C50.4854 26.6225 51.3989 24.1024 51.7205 23.0964C52.0653 22.0212 52.0653 21.7697 51.9444 21.726Z" fill="#181818"/>
<path d="M48.7975 29.122C48.7589 29.0656 48.6842 29.0656 48.4938 29.1169C48.3034 29.1682 47.9921 29.2709 47.4286 29.3196C47.1635 29.3453 46.7853 29.3581 46.3504 29.3504C45.9207 29.3401 45.4035 29.3324 44.9532 29.2657C44.4926 29.1913 44.0449 29.0296 43.6692 28.8346C43.2936 28.6396 42.9848 28.4137 42.7661 28.2392C42.2566 27.8209 41.9993 27.5155 41.8269 27.359C41.657 27.1973 41.5798 27.1691 41.5155 27.2076C41.4563 27.2435 41.4358 27.3308 41.5387 27.554C41.6468 27.7747 41.868 28.1468 42.3981 28.6344C42.6245 28.8397 42.9565 29.1015 43.3759 29.3299C43.7927 29.5583 44.3022 29.7508 44.8297 29.8354C45.3726 29.9176 45.859 29.9099 46.317 29.9124C46.7698 29.9099 47.1712 29.8791 47.462 29.8329C48.0847 29.7354 48.4527 29.5454 48.6328 29.4017C48.8155 29.2555 48.8309 29.1682 48.7975 29.1169V29.122Z" fill="#181818"/>
<path d="M41.3225 26.7303C41.3791 26.7585 41.4897 26.661 41.7265 26.2504C41.9606 25.8398 42.3286 25.1135 42.8149 23.8586C43.1057 23.1067 43.5045 21.975 43.8647 20.7047C44.0448 20.0682 44.2198 19.401 44.3639 18.7261C44.436 18.3899 44.5029 18.0511 44.5517 17.7098C44.5749 17.5379 44.5981 17.3685 44.6058 17.1889C44.6058 17.1452 44.6084 17.099 44.6084 17.0503C44.6084 16.9861 44.6032 16.8912 44.5852 16.8193C44.5672 16.7423 44.5389 16.673 44.4874 16.6192C44.4411 16.5576 44.3665 16.5447 44.2996 16.5114C44.2198 16.4934 44.14 16.4754 44.0603 16.46C44.0062 16.4498 43.9548 16.4369 43.9033 16.4216C43.8004 16.3908 43.6949 16.3702 43.5997 16.3343C43.4041 16.2701 43.2137 16.1983 43.0439 16.1136C42.7042 15.9468 42.4135 15.7364 42.2462 15.49C42.0713 15.2488 42.0069 14.9844 42.0327 14.7329C42.0404 14.6123 42.0738 14.4789 42.1047 14.3839C42.1382 14.2967 42.1845 14.2325 42.2437 14.1786C42.4444 14.0093 42.7892 13.9656 43.0799 13.9502C43.3784 13.9348 43.6537 13.9451 43.9007 13.9502C44.3948 13.9631 44.7756 13.9554 45.0561 13.9092C45.3365 13.8655 45.5141 13.7937 45.6093 13.7295C45.7045 13.6628 45.7251 13.6166 45.7096 13.5858C45.6711 13.5114 45.5475 13.5653 45.0432 13.5627C44.791 13.5627 44.4411 13.5345 43.9522 13.4909C43.7078 13.4703 43.4273 13.4447 43.1005 13.4472C42.9358 13.4472 42.7583 13.4575 42.5653 13.4909C42.3723 13.5268 42.1536 13.5807 41.9426 13.7347C41.8114 13.8296 41.6853 13.9733 41.6107 14.1427C41.5695 14.23 41.5489 14.3121 41.5283 14.3916C41.5026 14.4712 41.4897 14.5584 41.4794 14.6483C41.4537 14.8279 41.4666 15.0255 41.5052 15.2231C41.5566 15.4181 41.6338 15.6234 41.7599 15.7979C42.0018 16.1598 42.3697 16.4267 42.7711 16.6294C42.9718 16.7346 43.188 16.8168 43.4093 16.8886C43.5199 16.9297 43.6331 16.9553 43.7489 16.9887C43.8055 17.0067 43.8647 17.0195 43.9239 17.0323L44.0114 17.0529C44.032 17.058 44.0165 17.0529 44.0217 17.0529C44.0217 17.0888 44.0217 17.1273 44.0217 17.1658C44.014 17.312 43.996 17.4712 43.9728 17.6277C43.9265 17.9459 43.8647 18.2718 43.7952 18.5977C43.6563 19.2496 43.4916 19.904 43.3218 20.525C42.9796 21.7697 42.6116 22.8834 42.3517 23.6276C41.9091 24.8954 41.6004 25.6524 41.4434 26.1041C41.2813 26.5557 41.2633 26.7072 41.3225 26.7354V26.7303Z" fill="#181818"/>
<path d="M52.6828 7.46271C52.7137 7.5166 52.8655 7.47297 53.3158 7.28307C53.5422 7.19068 53.8459 7.06494 54.2601 6.94946C54.466 6.89813 54.7001 6.84424 54.9575 6.83397C55.0835 6.83397 55.2199 6.83397 55.3486 6.8622C55.4129 6.87247 55.4772 6.893 55.5364 6.91609C55.5673 6.92636 55.6007 6.94432 55.593 6.94176C55.5982 6.94689 55.6059 6.94946 55.6085 6.95715C55.6419 7.22148 55.6805 7.5166 55.7242 7.83482C55.9352 9.52342 56.2775 12.5568 56.4138 15.5875V16.1393C56.4036 16.3215 56.3701 16.5011 56.3495 16.6807L56.3135 16.9502C56.2929 17.0375 56.2672 17.1221 56.244 17.2094C56.19 17.3788 56.1617 17.5584 56.0922 17.7201C55.8529 18.3847 55.4412 18.9519 54.9755 19.4036C54.0311 20.3043 52.8552 20.7303 52.0344 20.8689C51.5481 20.9613 51.1106 20.8946 50.7247 20.7945C50.3387 20.697 50.0145 20.5327 49.7366 20.3762C49.1834 20.0528 48.8128 19.732 48.5452 19.4959C48.0178 19.0135 47.8762 18.8698 47.8119 18.916C47.7604 18.9519 47.8068 19.1649 48.2828 19.7269C48.5272 20.0015 48.8797 20.3685 49.4613 20.7508C49.6028 20.8535 49.7726 20.933 49.9424 21.0306C50.1251 21.1076 50.313 21.2076 50.5343 21.2667C50.7478 21.3437 50.9871 21.3821 51.2393 21.4258C51.368 21.4309 51.4992 21.436 51.6356 21.4437C51.7719 21.4514 51.9057 21.4232 52.0473 21.4129C52.5336 21.3642 53.0585 21.1999 53.6272 20.9613C54.1907 20.7175 54.7851 20.3659 55.3203 19.8732C55.8529 19.383 56.3341 18.7466 56.6068 18.0024C56.6969 17.8253 56.7303 17.6277 56.7895 17.4378C56.8436 17.2453 56.9027 17.0529 56.9182 16.8553C56.9439 16.6576 56.9696 16.46 56.9954 16.2599C57.0005 16.0623 56.9954 15.8621 56.9979 15.6645C57.0082 15.259 56.9671 14.8895 56.9465 14.5071C56.9182 14.1273 56.8899 13.7526 56.8641 13.3805C56.8024 12.6389 56.7381 11.9203 56.6686 11.2428C56.5296 9.8904 56.3778 8.70735 56.2492 7.85535C56.2183 7.66031 56.19 7.47297 56.1617 7.2959C56.1257 7.08547 56.0922 6.88273 56.0588 6.69283C56.0047 6.63894 55.943 6.59531 55.8786 6.55425C55.8014 6.51062 55.7551 6.49266 55.7088 6.47726C55.6136 6.4439 55.521 6.4208 55.4335 6.40797C55.2534 6.37718 55.0887 6.38488 54.9343 6.39257C54.6281 6.4208 54.3734 6.49523 54.1495 6.56708C53.7095 6.72362 53.4059 6.89043 53.1897 7.02131C52.7574 7.29077 52.6545 7.42165 52.6828 7.46784V7.46271Z" fill="#181818"/>
<path d="M50.627 16.401C50.5189 16.4524 50.4417 16.5576 50.6064 16.827C50.6836 16.9528 50.874 17.1375 51.1004 17.2582C51.3268 17.3813 51.5739 17.4404 51.718 17.4532C52.0602 17.4737 52.1219 17.3685 52.1271 17.2325C52.1348 17.0862 52.0808 17.0092 51.8286 16.9245C51.7205 16.8886 51.5404 16.8296 51.3783 16.7449C51.2162 16.6628 51.0772 16.555 50.9975 16.4934C50.8302 16.3625 50.7453 16.3446 50.6244 16.4036L50.627 16.401Z" fill="#181818"/>
<path d="M51.718 1.72197C51.7617 1.67578 51.7746 1.61675 51.7102 1.51154C51.6794 1.45508 51.6253 1.39605 51.5404 1.32933C51.4581 1.25747 51.3371 1.19075 51.1802 1.12659C50.8843 0.998281 50.3156 0.928992 49.783 1.02138C49.2478 1.0958 48.7486 1.28827 48.4707 1.41658C47.8222 1.73223 47.7605 1.89648 47.8222 2.01452C47.8917 2.1454 48.0384 2.14284 48.6637 1.91957C48.9313 1.82975 49.3944 1.66808 49.8576 1.59879C50.3233 1.5141 50.771 1.5526 51.0052 1.61419C51.2574 1.67578 51.4066 1.73737 51.507 1.7656C51.6073 1.79126 51.6716 1.77329 51.7154 1.72454L51.718 1.72197Z" fill="white"/>
<path d="M45.8152 6.51576C45.8693 6.40028 45.8358 6.28736 45.5039 6.08976C45.1899 5.89986 44.3382 5.52775 43.9651 5.42253C43.5303 5.29422 43.4171 5.35324 43.3708 5.48412C43.3219 5.61757 43.3682 5.72535 43.7619 5.92295C44.0989 6.08719 44.9378 6.44391 45.2826 6.55682C45.6505 6.67487 45.7612 6.63381 45.8152 6.51833V6.51576Z" fill="white"/>
<path d="M19.1783 35.2015C19.1397 35.2297 19.15 35.3042 19.2761 35.4992C19.4124 35.6814 19.6646 36.0125 20.2667 36.3204C20.5523 36.4564 20.9795 36.613 21.4941 36.6155C21.9984 36.6207 22.6083 36.5 23.0663 36.0689C23.2927 35.8687 23.46 35.548 23.4728 35.2297C23.4857 34.909 23.3776 34.6215 23.2412 34.3931C22.9582 33.9389 22.598 33.6592 22.3355 33.4667C21.6974 33.0381 21.2548 32.9073 21.0052 32.8405C20.7479 32.7867 20.6707 32.8046 20.6527 32.8534C20.6373 32.9047 20.6861 32.9663 20.9049 33.0818C21.1159 33.2075 21.5121 33.3718 22.0782 33.7849C22.3124 33.9646 22.6263 34.2315 22.8579 34.5933C22.9608 34.7781 23.0405 34.9834 23.0354 35.1861C23.0328 35.3863 22.9453 35.5813 22.7755 35.7379C22.459 36.0561 21.9521 36.1921 21.525 36.1921C21.0875 36.2049 20.7119 36.0843 20.4546 35.9817C19.9065 35.7404 19.6363 35.4735 19.4588 35.3427C19.2915 35.1989 19.2169 35.1707 19.1783 35.2015Z" fill="#181818"/>
<path d="M13.098 67.1387C13.1546 67.1079 13.0517 66.8128 12.5731 65.8556C12.0919 64.9009 11.235 63.2816 9.75293 60.623C8.89608 59.0858 7.61724 56.8326 6.16342 54.3587C5.43523 53.1243 4.66587 51.8309 3.87334 50.5504C3.47966 49.9088 3.07568 49.2724 2.67684 48.6462C2.47357 48.3331 2.27286 48.0226 2.07216 47.7172C1.87146 47.4169 1.67075 47.1193 1.47262 46.8241C1.47262 46.819 1.47262 46.8395 1.47262 46.7882C1.47262 46.742 1.48034 46.6881 1.49063 46.6291C1.51122 46.5136 1.54467 46.3904 1.57812 46.2672C1.65017 46.0235 1.73508 45.7771 1.82514 45.5384C2.00526 45.0585 2.20596 44.5915 2.40409 44.1398C2.8055 43.2391 3.21463 42.3973 3.60831 41.6172C4.39569 40.0594 5.12388 38.7481 5.70541 37.7318C7.468 34.6677 8.68251 32.9483 9.38754 31.9577C10.1003 30.9723 10.2984 30.7003 10.2418 30.6489C10.1929 30.6053 9.91503 30.7952 9.13023 31.7216C8.35572 32.6532 7.08717 34.3341 5.28599 37.3777C4.68388 38.4016 3.93253 39.7284 3.12199 41.3118C2.71801 42.1048 2.29602 42.9593 1.88432 43.8806C1.67847 44.3426 1.47262 44.8199 1.28221 45.3203C1.18701 45.5718 1.09695 45.8284 1.01718 46.0979C0.978584 46.2339 0.939987 46.3699 0.914256 46.5213C0.90139 46.5957 0.888524 46.6753 0.885951 46.7677C0.880805 46.8498 0.898817 47.0089 0.970864 47.1244C1.17157 47.4221 1.37484 47.7249 1.57812 48.0303C1.77625 48.3331 1.97438 48.6385 2.17509 48.9464C2.57135 49.5649 2.97018 50.1911 3.35872 50.8249C4.14352 52.0875 4.90774 53.363 5.63336 54.5794C7.07945 57.0173 8.36087 59.2372 9.23316 60.7487C10.7719 63.4151 11.7008 65.0318 12.2694 65.9685C12.8381 66.9052 13.0414 67.1669 13.098 67.1361V67.1387Z" fill="#181818"/>
<path d="M15.1437 30.1742C15.1668 30.1306 15.0845 30.0484 14.7731 29.8252C14.4592 29.6019 13.9189 29.2195 12.9719 28.6396C12.5217 28.3701 11.8938 28.0006 11.1219 27.6567C10.7359 27.4873 10.3139 27.3256 9.84303 27.2332C9.60631 27.1896 9.35928 27.1614 9.09683 27.187C8.83694 27.2101 8.5539 27.3077 8.34033 27.5078C8.29144 27.5592 8.2374 27.6105 8.19881 27.6669L8.08559 27.8414C8.02384 27.9672 7.9698 28.1032 7.95693 28.2469C7.92091 28.5343 8.0084 28.8115 8.12419 29.0373C8.37378 29.4813 8.71858 29.8046 9.05308 30.0767C9.72724 30.6181 10.3885 30.9826 10.8749 31.2469C12.0276 31.8474 12.7481 32.1169 13.1701 32.2657C13.5946 32.4094 13.7207 32.4094 13.7439 32.3632C13.767 32.3145 13.6693 32.2298 13.2833 32.0296C12.8999 31.8243 12.2103 31.5163 11.1013 30.9081C10.633 30.6438 9.99227 30.2794 9.35929 29.7687C9.04794 29.5147 8.73144 29.217 8.53074 28.868C8.43553 28.6934 8.37378 28.5087 8.38407 28.3342C8.38407 28.1622 8.48957 27.9877 8.61051 27.8543C8.85238 27.59 9.30268 27.5746 9.7118 27.6464C10.1286 27.7234 10.5326 27.8671 10.9032 28.0237C11.6468 28.3393 12.2746 28.6934 12.7275 28.9449C13.6924 29.4941 14.2714 29.8457 14.6316 30.0202C14.9918 30.1998 15.1205 30.2152 15.1411 30.1716L15.1437 30.1742Z" fill="#181818"/>
<path d="M50.331 28.9398C50.2718 28.9629 50.3027 29.199 50.5368 29.9612C50.6629 30.3384 50.8096 30.8594 51.0154 31.5548C51.0669 31.7293 51.1235 31.9141 51.1827 32.1092C51.2367 32.3068 51.2933 32.5172 51.3525 32.7405C51.4683 33.187 51.6175 33.6746 51.7488 34.2289C52.2917 36.3076 53.0997 40.0415 53.7429 43.8344C54.3888 47.6274 54.9137 51.4691 55.207 53.712C55.5518 56.345 55.7551 57.913 55.8966 58.8189C56.0382 59.7248 56.1231 59.9711 56.1925 59.9634C56.262 59.9557 56.2955 59.7094 56.244 58.806C56.1925 57.9027 56.0562 56.345 55.7525 53.7171C55.4927 51.4768 54.9832 47.6325 54.3348 43.8344C53.6915 40.0338 52.8578 36.2896 52.2737 34.2032C51.6536 31.9706 51.1801 30.6438 50.8507 29.8868C50.524 29.1271 50.3902 28.9167 50.331 28.9424V28.9398Z" fill="#181818"/>
<path d="M88.7786 30.4308C88.7451 30.4744 88.8429 30.6541 89.391 31.0518C89.6689 31.2443 90.0677 31.4881 90.6595 31.6934C91.2513 31.8859 92.0619 32.0245 93.0371 31.8551C93.4874 31.7781 94.0483 31.6318 94.599 31.3008C95.147 30.9749 95.6668 30.4667 96.0631 29.8457C96.8582 28.5934 97.2596 26.9971 97.5092 25.4215C97.7588 23.8483 97.9363 22.2521 97.9414 20.8022C97.9414 20.0785 97.9003 19.3882 97.7871 18.7646C97.6738 18.141 97.4886 17.5764 97.1927 17.1427C96.8607 16.6525 96.4284 16.3035 96.0013 16.0854C95.5716 15.8672 95.1445 15.7774 94.7739 15.7543C94.0226 15.7261 93.4899 15.9211 93.14 16.0956C92.965 16.1906 92.8261 16.2701 92.7232 16.3523C92.6151 16.4267 92.5405 16.496 92.4916 16.5524C92.3861 16.6628 92.3655 16.7192 92.3861 16.7475C92.4092 16.7757 92.4684 16.7706 92.5971 16.7115C92.6614 16.6807 92.7437 16.6397 92.8544 16.5935C92.9599 16.5396 93.0963 16.4857 93.2609 16.4216C93.5929 16.3035 94.0663 16.1649 94.7045 16.2162C95.0184 16.247 95.3735 16.3292 95.726 16.5139C96.0785 16.6987 96.4284 16.9887 96.7166 17.3993C96.9508 17.7355 97.1232 18.2256 97.2261 18.7979C97.329 19.3728 97.3702 20.0297 97.3676 20.7277C97.3625 22.1264 97.1875 23.6969 96.9482 25.2495C96.7115 26.7918 96.3384 28.3239 95.6359 29.4685C95.2937 30.0433 94.8563 30.495 94.3931 30.7927C93.9299 31.0929 93.4565 31.2443 93.0371 31.3316C92.1468 31.5189 91.4083 31.4368 90.8473 31.2905C90.2838 31.1417 89.8824 30.9389 89.5891 30.7901C89.0076 30.477 88.83 30.3692 88.7863 30.4282L88.7786 30.4308Z" fill="#181818"/>
<path d="M96.6344 19.1829C96.6884 19.1495 96.7116 19.0905 96.6601 18.9468C96.6061 18.8082 96.4543 18.5695 96.0734 18.3565C95.7184 18.1435 95.0005 18.0075 94.3289 18.0922C93.6496 18.1589 93.0089 18.3693 92.6538 18.5208C92.2318 18.6953 92.0028 18.839 91.8818 18.9442C91.7609 19.0494 91.748 19.1187 91.7789 19.1829C91.8098 19.247 91.8715 19.2804 92.0259 19.2598C92.1777 19.2367 92.4248 19.1598 92.8313 19.0314C93.1761 18.9185 93.7782 18.7363 94.3778 18.6747C94.9799 18.5926 95.5562 18.6927 95.8393 18.8133C96.1481 18.9365 96.2999 19.0725 96.4105 19.1392C96.516 19.2111 96.5855 19.2162 96.6421 19.1829H96.6344Z" fill="#181818"/>
<path d="M91.2257 21.9134C91.2668 21.9621 91.3337 21.9775 91.465 21.9313C91.5319 21.9082 91.6116 21.8646 91.7223 21.8159C91.7763 21.7902 91.8381 21.762 91.905 21.726C91.977 21.6952 92.0516 21.6619 92.1366 21.6259C92.2961 21.5567 92.5251 21.472 92.7927 21.4001C93.0629 21.3385 93.3691 21.2744 93.683 21.2667C94.3108 21.2307 94.9387 21.3668 95.2912 21.4745C95.4996 21.5387 95.6669 21.5926 95.7955 21.6439C95.9293 21.6875 96.0297 21.7209 96.1043 21.744C96.2587 21.7825 96.3282 21.7568 96.3668 21.6978C96.4054 21.6388 96.4002 21.5695 96.2818 21.4463C96.2252 21.3847 96.1352 21.3103 96.004 21.2333C95.8753 21.1486 95.7029 21.0639 95.4765 20.9715C95.0931 20.815 94.3829 20.6456 93.6676 20.6867C93.3099 20.6995 92.96 20.7714 92.6538 20.8535C92.3501 20.9485 92.0954 21.0588 91.9204 21.1563C91.8304 21.2102 91.748 21.259 91.6708 21.3052C91.6013 21.3565 91.5396 21.4052 91.4881 21.4489C91.3801 21.5336 91.3132 21.6131 91.2668 21.6747C91.1742 21.8005 91.1768 21.8672 91.2179 21.9159L91.2257 21.9134Z" fill="#181818"/>
<path d="M96.3719 25.0776C96.4311 25.0519 96.4594 24.9903 96.4234 24.8338C96.4028 24.7568 96.3797 24.6464 96.3076 24.5207C96.2742 24.4565 96.233 24.3847 96.1841 24.3026C96.1326 24.223 96.0657 24.1435 95.9937 24.0536C95.8547 23.8843 95.6232 23.6764 95.3247 23.4865C95.021 23.3069 94.648 23.1683 94.262 23.0913C93.876 23.0194 93.4875 23.0194 93.1427 23.0425C92.8005 23.0785 92.502 23.1375 92.2884 23.1965C92.1649 23.235 92.0542 23.2709 91.9539 23.3017C91.8561 23.3377 91.7712 23.3761 91.6966 23.4095C91.5448 23.4737 91.4418 23.5378 91.3672 23.5917C91.2206 23.6995 91.2 23.7688 91.2283 23.8329C91.2566 23.8971 91.3209 23.933 91.4907 23.9151C91.5756 23.9074 91.6863 23.8791 91.8355 23.8509C91.9127 23.8329 91.9951 23.8124 92.0851 23.7919C92.1803 23.7713 92.2858 23.7508 92.399 23.7277C92.5972 23.6892 92.8673 23.6456 93.171 23.6199C93.4746 23.6071 93.8143 23.6045 94.1385 23.6661C94.4627 23.7277 94.7715 23.8304 95.0236 23.969C95.2732 24.1101 95.4713 24.2666 95.6026 24.395C95.6721 24.4642 95.7338 24.5258 95.793 24.5849C95.8444 24.6464 95.8908 24.7029 95.9345 24.7517C96.0271 24.8466 96.0812 24.9287 96.1352 24.9826C96.2407 25.093 96.3128 25.1109 96.3719 25.0827V25.0776Z" fill="#181818"/>
<path d="M32.4067 45.4999C32.2754 45.5282 32.2446 45.695 32.1519 46.6856C32.0696 47.6171 31.9101 50.0166 31.9049 51.0097C31.892 52.1748 31.9821 52.3981 32.121 52.4032C32.2651 52.4083 32.3552 52.1979 32.4453 51.0508C32.5173 50.0705 32.6691 47.6838 32.6691 46.7317C32.6768 45.7181 32.5302 45.4691 32.4067 45.4999Z" fill="#353535"/>
<path d="M12.5267 39.3743C12.4778 39.3358 12.3749 39.3794 12.1305 39.6283C11.8834 39.8747 11.5078 40.3366 10.9546 41.1552C10.4348 41.9303 9.60624 43.3674 8.91149 44.8763C8.20388 46.3802 7.59406 47.9328 7.26212 48.8463C6.49019 50.9969 6.44902 51.4383 6.57767 51.4845C6.71662 51.5332 6.92247 51.1637 7.75616 49.0696C8.1164 48.1791 8.73137 46.6445 9.42354 45.1612C10.1028 43.6702 10.8954 42.2536 11.3688 41.4709C11.868 40.6625 12.1716 40.1698 12.3801 39.8336C12.5576 39.5308 12.5782 39.4153 12.5293 39.3743H12.5267Z" fill="#353535"/>
<path d="M5.56386 55.4725C5.4455 55.4519 5.28339 55.7368 5.04924 57.2509C4.94117 57.9669 4.81251 59.2449 4.76105 60.5357C4.70444 61.8265 4.71988 63.1276 4.7559 63.8847C4.84339 65.6631 4.97462 65.9916 5.11099 65.9839C5.25766 65.9762 5.30912 65.6477 5.29883 63.8949C5.29883 63.1482 5.29626 61.865 5.34515 60.5896C5.39146 59.3167 5.49439 58.0541 5.55872 57.3433C5.70281 55.824 5.70024 55.493 5.56386 55.4699V55.4725Z" fill="#353535"/>
</g>
<defs>
<clipPath id="clip0_675_72088">
<rect width="139" height="79" fill="white" transform="translate(0.5)"/>
</clipPath>
</defs>
</svg>
