<svg width="40" height="40" viewBox="0 0 40 40" fill="none" xmlns="http://www.w3.org/2000/svg">
<path d="M14.9999 29.1667L6.86659 37.3001C6.20355 37.9631 5.30427 38.3356 4.36659 38.3356C3.42891 38.3356 2.52963 37.9631 1.86659 37.3001C1.20355 36.637 0.831055 35.7378 0.831055 34.8001C0.831055 33.8624 1.20355 32.9631 1.86659 32.3001L9.99992 24.1667L14.9999 29.1667Z" fill="url(#paint0_linear_690_97016)"/>
<path d="M15.8362 20.0015L12.501 23.3367L15.8362 26.6719L19.1714 23.3367L15.8362 20.0015Z" fill="#4795EA"/>
<path d="M25 26.6667C31.9036 26.6667 37.5 21.0703 37.5 14.1667C37.5 7.26319 31.9036 1.66675 25 1.66675C18.0964 1.66675 12.5 7.26319 12.5 14.1667C12.5 21.0703 18.0964 26.6667 25 26.6667Z" fill="url(#paint1_linear_690_97016)"/>
<path d="M25 24.1667C30.5228 24.1667 35 19.6896 35 14.1667C35 8.6439 30.5228 4.16675 25 4.16675C19.4772 4.16675 15 8.6439 15 14.1667C15 19.6896 19.4772 24.1667 25 24.1667Z" fill="#F0F7FC"/>
<path d="M31.6663 19.3002V21.6668C29.8329 23.3067 27.4594 24.2133 24.9997 24.2133C22.5399 24.2133 20.1664 23.3067 18.333 21.6668V19.3002C18.334 18.7765 18.4994 18.2663 18.8059 17.8416C19.1124 17.417 19.5446 17.0993 20.0413 16.9335L23.333 15.8335H26.6663L29.9997 16.9335C30.4887 17.1064 30.9118 17.427 31.2104 17.8511C31.509 18.2751 31.6683 18.7815 31.6663 19.3002Z" fill="url(#paint2_linear_690_97016)"/>
<path d="M24.9997 18.3335C24.5576 18.3335 24.1337 18.1579 23.8212 17.8453C23.5086 17.5328 23.333 17.1089 23.333 16.6668V15.8335H26.6663V16.6668C26.6663 17.1089 26.4907 17.5328 26.1782 17.8453C25.8656 18.1579 25.4417 18.3335 24.9997 18.3335Z" fill="url(#paint3_linear_690_97016)"/>
<path d="M25.0003 16.6668C24.1163 16.6668 23.2684 16.3156 22.6433 15.6905C22.0182 15.0654 21.667 14.2176 21.667 13.3335V10.8335H28.3337V13.3335C28.3337 14.2176 27.9825 15.0654 27.3573 15.6905C26.7322 16.3156 25.8844 16.6668 25.0003 16.6668Z" fill="url(#paint4_linear_690_97016)"/>
<path d="M23.3337 7.5H29.167V10C29.167 10.221 29.0792 10.433 28.9229 10.5893C28.7666 10.7455 28.5547 10.8333 28.3337 10.8333H21.667V9.16667C21.667 8.72464 21.8426 8.30072 22.1551 7.98816C22.4677 7.6756 22.8916 7.5 23.3337 7.5Z" fill="url(#paint5_linear_690_97016)"/>
<path d="M9.41585 21.423L7.25918 23.5797C6.93374 23.9051 6.93374 24.4328 7.25918 24.7582L14.4127 31.9118C14.7382 32.2372 15.2658 32.2372 15.5913 31.9118L17.7479 29.7551C18.0734 29.4297 18.0734 28.902 17.7479 28.5766L10.5944 21.423C10.2689 21.0976 9.74129 21.0976 9.41585 21.423Z" fill="url(#paint6_linear_690_97016)"/>
<path d="M22.4997 21.6668V23.8502C21.9261 23.7081 21.3678 23.5099 20.833 23.2585V21.6668C20.833 21.4458 20.9208 21.2339 21.0771 21.0776C21.2334 20.9213 21.4453 20.8335 21.6663 20.8335C21.8874 20.8335 22.0993 20.9213 22.2556 21.0776C22.4119 21.2339 22.4997 21.4458 22.4997 21.6668Z" fill="#EB7F58"/>
<path d="M29.1667 21.6668V23.2585C28.6319 23.5099 28.0736 23.7081 27.5 23.8502V21.6668C27.5 21.4458 27.5878 21.2339 27.7441 21.0776C27.9004 20.9213 28.1123 20.8335 28.3333 20.8335C28.5543 20.8335 28.7663 20.9213 28.9226 21.0776C29.0789 21.2339 29.1667 21.4458 29.1667 21.6668Z" fill="#EB7F58"/>
<path d="M33.3333 38.3334C36.555 38.3334 39.1667 35.7217 39.1667 32.5001C39.1667 29.2784 36.555 26.6667 33.3333 26.6667C30.1117 26.6667 27.5 29.2784 27.5 32.5001C27.5 35.7217 30.1117 38.3334 33.3333 38.3334Z" fill="#FE9661"/>
<path d="M32.4995 35C32.0495 35 32.0245 34.875 30.2412 33.0917C30.1635 33.014 30.1018 32.9217 30.0598 32.8202C30.0177 32.7187 29.9961 32.6099 29.9961 32.5C29.9961 32.3901 30.0177 32.2813 30.0598 32.1798C30.1018 32.0783 30.1635 31.986 30.2412 31.9083C30.3189 31.8306 30.4111 31.769 30.5126 31.7269C30.6141 31.6849 30.723 31.6632 30.8328 31.6632C30.9427 31.6632 31.0515 31.6849 31.153 31.7269C31.2546 31.769 31.3468 31.8306 31.4245 31.9083L32.4995 32.9917L35.2412 30.2417C35.3981 30.0847 35.6109 29.9966 35.8328 29.9966C36.0548 29.9966 36.2676 30.0847 36.4245 30.2417C36.5814 30.3986 36.6696 30.6114 36.6696 30.8333C36.6696 31.0552 36.5814 31.2681 36.4245 31.425L33.0912 34.7583C33.0133 34.8356 32.921 34.8967 32.8194 34.9381C32.7179 34.9796 32.6092 35.0006 32.4995 35Z" fill="#F0F7FC"/>
<defs>
<linearGradient id="paint0_linear_690_97016" x1="1.86659" y1="37.3001" x2="12.4999" y2="26.6667" gradientUnits="userSpaceOnUse">
<stop stop-color="#FE9661"/>
<stop offset="1" stop-color="#FFB369"/>
</linearGradient>
<linearGradient id="paint1_linear_690_97016" x1="16.1583" y1="23.0084" x2="33.8417" y2="5.32508" gradientUnits="userSpaceOnUse">
<stop stop-color="#54A5FF"/>
<stop offset="1" stop-color="#8AD3FE"/>
</linearGradient>
<linearGradient id="paint2_linear_690_97016" x1="24.9997" y1="24.1668" x2="24.9997" y2="15.8335" gradientUnits="userSpaceOnUse">
<stop stop-color="#FE9661"/>
<stop offset="1" stop-color="#FFB369"/>
</linearGradient>
<linearGradient id="paint3_linear_690_97016" x1="24.9997" y1="18.3335" x2="24.9997" y2="15.8335" gradientUnits="userSpaceOnUse">
<stop stop-color="#D3E6F5"/>
<stop offset="1" stop-color="#F0F7FC"/>
</linearGradient>
<linearGradient id="paint4_linear_690_97016" x1="0.00032768" y1="16.6668" x2="0.833661" y2="10.8335" gradientUnits="userSpaceOnUse">
<stop stop-color="#D3E6F5"/>
<stop offset="1" stop-color="#F0F7FC"/>
</linearGradient>
<linearGradient id="paint5_linear_690_97016" x1="25.417" y1="10.8333" x2="25.417" y2="7.5" gradientUnits="userSpaceOnUse">
<stop stop-color="#FE9661"/>
<stop offset="1" stop-color="#FFB369"/>
</linearGradient>
<linearGradient id="paint6_linear_690_97016" x1="10.8388" y1="28.3369" x2="14.1721" y2="25.0036" gradientUnits="userSpaceOnUse">
<stop stop-color="#D3E6F5"/>
<stop offset="1" stop-color="#F0F7FC"/>
</linearGradient>
</defs>
</svg>
