<svg width="249" height="177" viewBox="0 0 249 177" fill="none" xmlns="http://www.w3.org/2000/svg">
<g clip-path="url(#clip0_589_45667)">
<g clip-path="url(#clip1_589_45667)">
<path d="M108.772 6.40666C108.772 6.40666 112.214 6.09792 111.414 9.05883C110.228 13.4268 102.383 13.2193 99.9563 12.784C93.6471 11.6401 93.3319 8.30469 95.8086 7.22155C94.2175 2.88393 98.8956 -1.98008 101.843 2.55494C104.81 -2.44066 112.41 2.81813 108.772 6.41172V6.40666Z" fill="#181818"/>
<path d="M81.6341 45.8805C86.8826 52.6982 117.808 49.6006 124.618 43.694C125.994 42.5045 126.324 39.9384 124.793 38.6073C123.262 37.2761 122.321 36.9623 122.696 34.9681C123.072 32.9739 123.882 30.7267 122.601 28.449C121.321 26.1714 116.672 27.1533 115.317 23.1649C114.286 20.1382 113.38 14.1101 104.434 11.6806C97.5547 9.81297 87.7932 15.1274 89.1892 24.5973C89.4944 26.6877 85.0964 26.9003 84.436 30.18C83.7756 33.4548 85.7319 36.77 83.6705 38.4453C81.8943 39.8878 79.3376 42.874 81.6391 45.8653L81.6341 45.8805Z" fill="#181818"/>
<path d="M110.473 43.0157C118.929 42.2515 129.651 42.0136 136.171 54.581C142.69 67.1485 143.35 93.574 143.065 95.963C142.78 98.352 126.794 106.951 126.794 106.951C126.794 106.951 82.4147 102.745 82.2696 102.745C82.1245 102.745 71.2173 97.4865 71.2173 97.4865C71.2173 97.4865 75.9404 88.9327 74.8997 77.99C74.4745 73.5005 76.1205 44.6405 90.7453 44.0179C102.298 43.5269 110.468 43.0107 110.468 43.0107L110.473 43.0157Z" fill="#516FF3"/>
<path d="M94.1676 40.1105C92.8217 42.0035 90.6553 45.3895 91.1456 47.9455C91.6359 50.5016 94.8531 55.3807 98.5305 57.5723C102.208 59.7639 105.785 60.8926 109.002 60.1638C112.22 59.4349 113.991 56.5752 114.681 52.7286C115.372 48.8768 114.436 42.5703 112.18 41.138C109.923 39.7107 94.1676 40.1105 94.1676 40.1105Z" fill="#FFFEFF"/>
<path d="M95.7935 44.8024C97.1193 48.973 100.171 51.8074 102.978 52.268C105.785 52.7286 108.772 51.5796 110.929 49.1653C113.085 46.7561 111.874 43.3296 111.574 42.9753C111.274 42.621 95.7985 44.8024 95.7985 44.8024H95.7935Z" fill="#FFFEFF"/>
<path d="M92.5215 34.1127C93.0769 34.0166 92.3464 30.7874 92.3464 30.7874C92.3464 30.7874 94.3227 30.0535 94.3528 28.2871C94.3828 26.5206 94.3828 25.64 96.0389 25.7564C97.695 25.8728 98.5105 23.9343 98.1903 22.9321C98.1903 22.9321 100.662 26.2575 102.988 28.0188C105.315 29.7852 108.137 27.6088 109.153 28.0796C110.168 28.5503 110.313 30.4584 111.534 30.5343C112.755 30.6103 113.395 30.6103 113.601 31.906C113.541 33.2068 113.49 33.1511 113.806 33.2017C114.121 33.2523 115.087 32.5235 114.796 28.0542C114.796 28.0542 116.367 26.3182 117.443 28.0846C118.519 29.851 117.763 31.5871 116.512 33.2928C115.262 34.9985 114.071 36.2638 114.071 36.2638C114.071 36.2638 114.741 38.7945 112.995 42.3831C111.249 45.9716 108.602 50.6129 103.924 50.1726C99.246 49.7322 98.1353 47.652 96.159 45.7641C94.1876 43.8762 92.2364 39.9637 91.3608 36.5726C91.3608 36.5726 89.7897 35.7375 88.659 33.5307C87.5282 31.3239 88.0786 28.5604 88.659 28.3832C89.2394 28.2061 89.7697 28.3427 90.3151 30.5445C90.7504 32.2957 91.9662 34.214 92.5265 34.1178L92.5215 34.1127Z" fill="#FFFEFF"/>
<path d="M123.947 46.7966C122.341 49.5804 117.913 57.8456 116.828 58.9136C116.793 58.949 116.763 58.9743 116.733 58.9946C113.846 60.9736 113.956 60.9635 114.626 57.4205C114.626 57.38 114.651 57.3294 114.676 57.2585C115.122 56.064 118.239 50.4358 121.101 45.7337C123.887 41.1582 124.263 40.0903 125.974 40.8292C127.68 41.5733 125.604 43.9167 123.947 46.7966Z" fill="#181818"/>
<path opacity="0.23" d="M248.5 142.027C248.665 156.462 196.621 170.431 137.657 175.245C76.8011 180.21 7.84521 169.809 7.84521 155.374C7.84521 140.939 44.1143 124.287 140.328 117.18C197.772 112.939 248.37 131.003 248.495 142.027H248.5Z" fill="#4762F0"/>
<path d="M19.7131 158.152C19.598 159.473 15.0499 161.215 11.1874 160.638C7.31981 160.056 5.02328 160.531 4.55297 158.259C4.08265 155.986 3.07198 137.507 3.50727 135.432C3.86751 133.726 7.1647 132.881 11.1874 132.916C17.6667 132.972 19.648 134.495 19.7131 135.315C19.8081 136.571 19.8281 156.831 19.7131 158.152Z" fill="#FFFEFF"/>
<path d="M5.81881 158.745C4.16771 158.598 3.62235 159.276 4.01761 160.081C4.41287 160.886 7.66004 162.105 12.3632 162.09C17.0363 162.07 20.3535 160.101 20.3535 159.317C20.3535 158.152 19.1377 157.899 18.5973 158.087C18.057 158.274 5.81381 158.745 5.81381 158.745H5.81881Z" fill="#FFFEFF"/>
<path d="M19.7131 135.315C18.8675 136.561 17.3515 137.279 15.5553 137.618C14.9199 137.74 14.2445 137.806 13.554 137.831C13.0487 137.856 12.5333 137.851 12.013 137.826C11.0874 137.785 10.1517 137.674 9.24114 137.512C8.84087 137.441 8.44561 137.36 8.06035 137.269C7.29484 137.087 6.56936 136.869 5.90392 136.621C4.95329 136.277 4.13274 135.872 3.50732 135.432C3.64241 134.809 4.16276 134.303 4.9733 133.908C5.64375 133.584 6.51432 133.336 7.51999 133.169C7.59504 133.154 7.6751 133.144 7.75015 133.134C8.78584 132.977 9.95161 132.906 11.1874 132.916C11.8379 132.916 12.4433 132.942 13.0036 132.977C18.047 133.271 19.6531 134.576 19.7131 135.315Z" fill="#181818"/>
<path d="M13.5537 137.831C13.0484 137.856 12.533 137.851 12.0127 137.826C10.6768 137.765 9.32087 137.568 8.06003 137.269C7.89993 136.095 7.71981 134.698 7.51967 133.169C6.40893 124.565 4.86291 111.795 5.4583 111.618C7.15943 111.117 10.4616 111.355 10.5517 111.77C10.6117 112.043 12.0277 124.378 13.0033 132.977C13.2085 134.809 13.3986 136.48 13.5537 137.831Z" fill="#FFFEFF"/>
<path d="M9.2409 137.512C8.84063 137.441 8.44537 137.36 8.06011 137.269C7.2946 137.087 6.56912 136.869 5.90368 136.621C5.60848 135.761 5.29327 134.84 4.97306 133.908C3.26692 128.898 1.4257 123.391 1.54078 123.209C2.07613 122.348 3.63217 121.69 3.99241 122.348C4.18754 122.702 6.05378 128.169 7.74991 133.134C8.28526 134.703 8.8006 136.221 9.2409 137.512Z" fill="#181818"/>
<path d="M16.0804 134.263L15.5551 137.618C14.4493 137.826 13.2385 137.887 12.0127 137.826C12.1728 136.905 12.423 135.558 12.7982 133.772L16.0804 134.263Z" fill="#FFFEFF"/>
<path d="M17.0809 120.445C12.0726 119.802 9.97119 122.287 9.97119 125.491C9.97119 128.695 12.2627 130.107 12.6129 130.208C12.9682 130.31 11.8524 134.409 12.2977 134.526C14.7544 135.174 15.7901 135.528 16.1203 135.295C16.4505 135.067 17.256 131.2 17.3611 130.866C17.4612 130.532 20.9535 131.889 22.2744 128.128C23.5903 124.363 22.0943 121.083 17.0809 120.445ZM13.3985 127.04C12.8931 126.969 11.6523 126.169 11.8825 124.646C12.1476 122.905 13.8638 123.112 14.209 123.406C14.5542 123.699 13.7887 127.096 13.3985 127.04ZM20.7083 126.21C20.5582 128.194 18.4168 128.113 18.1767 127.855C17.9365 127.597 18.1116 126.822 18.6169 124.211C18.692 123.826 20.8534 124.307 20.7083 126.21Z" fill="#516FF3"/>
<path d="M28.3537 152.458C40.5017 151.183 70.3766 148.025 70.3766 148.025L57.7032 161.539C57.7032 161.539 40.7719 165.102 39.6662 164.677C38.5605 164.251 27.9934 154.25 27.7833 153.825C27.5731 153.4 27.8834 152.514 28.3537 152.463V152.458Z" fill="#FFFEFF"/>
<path d="M36.229 159.134C36.229 159.63 45.7003 160.997 57.0328 163.801C68.3654 166.6 71.5725 167.577 72.5882 167.415C73.6039 167.253 110.624 152.696 110.889 152.155C111.154 151.613 81.7893 146.577 80.3984 146.633C79.0075 146.688 36.234 158.107 36.229 159.139V159.134Z" fill="#181818"/>
<path d="M38.4654 157.505C38.2453 157.742 45.3901 158.937 56.7226 161.741C68.0551 164.54 71.2623 165.517 72.278 165.355C73.2936 165.193 109.037 151.714 109.303 151.173C109.568 150.631 81.4791 144.517 80.0882 144.568C78.6972 144.623 39.1559 156.745 38.4604 157.505H38.4654Z" fill="#FFFEFF"/>
<path d="M60.7654 131.281C63.9725 127.698 88.8891 136.495 88.8891 136.495L88.1636 140.837C88.1636 140.837 82.9502 140.372 77.5416 141.536C72.128 142.7 62.8868 146.82 59.3895 141.374C57.168 137.912 58.8391 133.438 60.7654 131.287V131.281Z" fill="#FFFEFF"/>
<path d="M140.564 98.2558C154.483 97.4207 163.519 99.8097 165.68 106.567C167.842 113.319 160.842 124.651 151.171 130.183C141.499 135.72 122.346 137.907 122.346 137.907C122.346 137.907 83.7207 128.7 73.2888 119.048C62.8518 109.391 53.3105 98.514 56.2374 97.4865C59.1644 96.459 72.4282 93.8474 93.3321 103.343L140.564 98.2558Z" fill="#FFFEFF"/>
<path d="M135.225 103.763C127.284 103.945 125.863 97.6586 125.288 91.0585C124.798 85.4201 125.078 75.5454 125.258 70.5548C125.288 69.7096 125.313 69.001 125.333 68.4796C125.463 64.8911 124.978 64.2179 123.557 63.6764C121.385 62.8564 120.805 60.3561 120.805 60.3561C114.596 54.5659 119.519 51.3772 119.519 51.3772C119.519 51.3772 114.08 51.9238 113.26 50.3446C112.82 49.4943 116.087 48.6339 120.745 48.5883C125.403 48.5428 125.803 49.2818 128.35 52.9968C130.386 55.9679 133.003 60.7509 134.999 65.4883C135.42 66.4804 135.81 67.4674 136.16 68.4391C138.202 74.0472 143.525 89.8033 143.97 93.6196C144.411 97.4359 143.17 103.585 135.225 103.763Z" fill="#516FF3"/>
<path d="M135.41 145.544C130.862 147.139 125.043 146.709 118.984 145.914C114.451 145.317 110.968 143.333 109.297 142.158C111.494 139.592 114.496 135.665 115.532 132.309C118.493 133.463 120.98 134.075 123.462 133.22C125.948 132.36 135.89 129.363 140.978 132.304C146.072 135.245 139.953 143.95 135.405 145.544H135.41Z" fill="#FFFEFF"/>
<path d="M115.672 131.818C115.632 131.98 115.582 132.147 115.532 132.309C114.496 135.665 111.494 139.592 109.297 142.158C107.876 143.819 106.791 144.912 106.791 144.912C106.791 144.912 98.8105 143.54 85.6617 140.21C72.513 136.874 64.4976 133.959 56.9376 128.943C49.3726 123.922 45.59 118.658 44.9996 110.935C44.4093 103.216 51.3539 98.9138 56.2371 97.4814C60.0597 96.3629 70.4316 104.34 81.9492 110.97C87.4529 114.144 91.8208 118.598 98.1 122.844C104.379 127.091 115.672 131.818 115.672 131.818Z" fill="#FFFEFF"/>
<path d="M235.156 117.823C237.132 123.998 242.776 141.177 242.831 143.059C242.886 144.942 239.399 146.354 237.482 143.763C235.561 141.176 228.176 117.818 228.176 117.818H235.156V117.823Z" fill="#181818"/>
<path d="M199.857 124.535C201.544 129.464 203.93 135.351 203.81 136.232C203.695 137.112 200.668 139.289 199.157 137.466C197.871 135.913 194.179 122.667 194.179 122.667L199.852 124.535H199.857Z" fill="#181818"/>
<path d="M181.325 128.467C176.147 141.607 170.158 160.035 169.332 162.095C168.367 164.499 161.937 164.955 162.708 161.508C163.478 158.061 173.83 127.622 173.83 127.622L181.32 128.467H181.325Z" fill="#181818"/>
<path d="M141.799 123.553C140.118 127.916 131.857 149.568 130.862 152.119C129.861 154.675 123.897 153.8 124.287 151.8C124.573 150.328 134.859 123.816 135.28 122.966C135.7 122.115 141.799 123.553 141.799 123.553Z" fill="#181818"/>
<path d="M238.819 113.233C238.819 116.35 239.049 119.175 238.468 119.468C237.888 119.762 178.048 130.998 176.597 130.765C175.141 130.532 132.343 123.998 131.587 123.588C130.832 123.178 131.587 117.469 131.587 117.469L238.819 113.233Z" fill="#FFFEFF"/>
<path d="M218.125 109.528C234.811 110.702 238.649 111.117 239.869 111.527C241.09 111.937 242.256 114.412 241.556 114.528C240.86 114.645 178.694 125.527 176.602 125.41C174.511 125.294 130.196 118.997 129.211 118.704C128.22 118.41 129.211 113.663 129.211 113.663L185.273 112.726L218.13 109.528H218.125Z" fill="#FFFEFF"/>
<path d="M230.003 100.26C229.728 97.7042 227.926 96.8842 225.36 96.8285C225.38 96.211 225.38 95.6948 225.37 95.3354C225.345 94.6724 225.209 94.2067 224.904 93.8727C223.944 92.83 221.307 93.154 215.348 93.1894C215.348 93.1894 215.203 93.6753 214.958 94.4902C213.762 98.5443 210.23 110.742 210.965 111.461C212.756 113.192 221.232 113.091 222.663 111.461C223.423 110.596 223.999 108.551 224.424 106.172C228.917 106.222 230.288 102.948 230.003 100.26ZM228.171 101.434C228.086 102.948 226.415 104.633 224.679 104.598C224.969 102.609 225.159 100.523 225.27 98.7822C226.836 98.7772 228.292 99.2934 228.171 101.434Z" fill="#516FF3"/>
<path d="M148.193 112.893C142.625 113.41 141.789 115.166 142.35 115.566C142.91 115.966 172.63 119.939 173.75 119.828C174.876 119.716 213.522 114.311 213.857 113.658C214.192 113.005 220.822 72.2048 220.432 71.6936C220.036 71.1824 181.165 72.8881 180.55 73.8548C179.935 74.8216 175.046 109.512 175.046 109.512C175.046 109.512 173.585 109.032 173.08 109.032C172.575 109.032 148.193 112.893 148.193 112.893Z" fill="#181818"/>
<path d="M173.675 117.135C166.47 116.436 159.831 115.48 160.026 115.282C160.221 115.085 174.391 112.772 174.296 113.157C174.201 113.541 174.211 117.185 173.675 117.13V117.135Z" fill="#FFFEFF"/>
<path d="M149.084 115.404C145.727 113.501 141.224 113.961 138.777 115.343C136.33 116.725 134.744 118.218 125.643 116.173C125.618 116.163 125.588 116.158 125.563 116.153C116.392 114.078 104.034 109.927 96.9691 106.587C89.9044 103.246 85.5765 99.7287 79.5975 88.5531C73.6136 77.3725 71.5072 67.7508 72.1326 57.2079C72.763 46.665 84.0405 44.4734 90.75 44.023C90.75 44.023 88.9388 60.432 93.9521 70.3473C98.9604 80.2575 107.961 89.7628 115.446 95.5227C120.16 99.1517 127.119 102.847 131.632 105.084C134.294 106.405 136.1 107.22 136.1 107.22C146.012 100.594 146.807 100.938 151.365 104.223C156.194 107.705 158.2 111.254 158.825 113.212C159.451 115.171 152.446 117.307 149.084 115.404Z" fill="#516FF3"/>
<path d="M134.999 65.4883C133.598 68.8997 129.221 70.5093 125.258 70.5548C125.288 69.7096 125.313 69.001 125.333 68.4796C125.463 64.8911 124.978 64.2179 123.557 63.6764C121.385 62.8564 120.805 60.3561 120.805 60.3561C114.596 54.5659 119.519 51.3772 119.519 51.3772C119.519 51.3772 114.08 51.9238 113.26 50.3446C112.82 49.4943 116.087 48.6339 120.745 48.5883C125.403 48.5428 125.803 49.2818 128.35 52.9968C130.386 55.9679 133.003 60.7509 134.999 65.4883Z" fill="#FFFEFF"/>
<path d="M149.084 115.404C145.727 113.501 141.224 113.961 138.777 115.343C136.331 116.725 134.745 118.218 125.644 116.173C126.289 110.783 128.581 106.88 131.633 105.084C134.294 106.405 136.101 107.22 136.101 107.22C146.012 100.594 146.808 100.938 151.366 104.223C156.194 107.705 158.2 111.254 158.826 113.212C159.451 115.171 152.446 117.307 149.084 115.404Z" fill="#FFFEFF"/>
<path d="M108.537 36.2183C108.537 36.7042 108.232 37.099 107.851 37.099C107.471 37.099 107.166 36.7042 107.166 36.2183C107.166 35.7324 107.471 35.3376 107.851 35.3376C108.232 35.3376 108.537 35.7324 108.537 36.2183Z" fill="#181818"/>
<path d="M98.095 36.5675C98.095 37.0534 97.7898 37.4482 97.4096 37.4482C97.0293 37.4482 96.7241 37.0534 96.7241 36.5675C96.7241 36.0816 97.0293 35.6868 97.4096 35.6868C97.7898 35.6868 98.095 36.0816 98.095 36.5675Z" fill="#181818"/>
<path d="M116.828 58.9136C116.793 58.949 116.762 58.9743 116.732 58.9946C116.197 59.3641 115.762 59.6627 115.422 59.8803C114.271 60.6142 114.096 60.4776 114.311 59.116C114.381 58.6808 114.496 58.119 114.626 57.4205C114.626 57.38 114.651 57.3294 114.676 57.2585C115.667 57.6584 116.367 58.2708 116.828 58.9136Z" fill="#FFFEFF"/>
<path d="M115.422 59.8803C114.271 60.6142 114.096 60.4776 114.311 59.1161C114.741 59.3337 115.111 59.5918 115.422 59.8803Z" fill="#181818"/>
<path d="M117.132 67.6243C117.948 67.4775 118.418 70.1499 117.473 70.2258C116.532 70.2967 115.932 67.8419 117.132 67.6243Z" fill="#FFFEFF"/>
<path d="M122.796 94.3434C123.612 94.1966 124.082 96.869 123.137 96.9449C122.196 97.0158 121.596 94.561 122.796 94.3434Z" fill="#FFFEFF"/>
<path d="M112.359 100.807C113.175 100.66 113.645 103.332 112.7 103.408C111.759 103.479 111.159 101.024 112.359 100.807Z" fill="#FFFEFF"/>
<path d="M123.347 79.3009C124.162 79.1541 124.633 81.8266 123.687 81.9025C122.746 81.9733 122.146 79.5186 123.347 79.3009Z" fill="#FFFEFF"/>
<path d="M93.9219 99.501C94.7374 99.3542 95.2077 102.027 94.2621 102.103C93.3215 102.173 92.7211 99.7186 93.9219 99.501Z" fill="#FFFEFF"/>
<path d="M128.045 86.8778C128.86 86.731 129.331 89.4035 128.385 89.4794C127.445 89.5502 126.844 87.0955 128.045 86.8778Z" fill="#FFFEFF"/>
<path d="M142.254 94.3434C143.07 94.1966 143.54 96.869 142.595 96.9449C141.654 97.0158 141.054 94.561 142.254 94.3434Z" fill="#FFFEFF"/>
<path d="M135.149 60.017C135.965 59.8702 136.435 62.5426 135.49 62.6185C134.549 62.6894 133.949 60.2346 135.149 60.017Z" fill="#FFFEFF"/>
<path d="M95.6933 61.8188C96.5089 61.6721 96.9792 64.3445 96.0336 64.4204C95.093 64.4913 94.4925 62.0365 95.6933 61.8188Z" fill="#FFFEFF"/>
<path d="M83.5454 50.6888C84.3609 50.542 84.8313 53.2145 83.8856 53.2904C82.945 53.3612 82.3446 50.9065 83.5454 50.6888Z" fill="#FFFEFF"/>
<path d="M90.2148 56.1248C91.0304 55.978 91.5007 58.6504 90.5551 58.7263C89.6144 58.7972 89.014 56.3424 90.2148 56.1248Z" fill="#FFFEFF"/>
<path d="M106.525 67.6243C107.356 67.6141 107.371 70.3321 106.43 70.2461C105.49 70.16 105.305 67.6344 106.525 67.6243Z" fill="#FFFEFF"/>
<path d="M77.5864 63.1095C78.417 63.0994 78.432 65.8173 77.4914 65.7313C76.5508 65.6453 76.3656 63.1196 77.5864 63.1095Z" fill="#FFFEFF"/>
<path d="M81.7739 85.9718C82.6045 85.9617 82.6195 88.6847 81.6789 88.5936C80.7383 88.5076 80.5531 85.982 81.7739 85.9718Z" fill="#FFFEFF"/>
<path d="M136.871 84.8938C137.701 84.8836 137.716 87.6067 136.776 87.5156C135.835 87.4295 135.65 84.9039 136.871 84.8938Z" fill="#FFFEFF"/>
<path d="M135.365 98.4887C136.195 98.4786 136.21 101.197 135.27 101.11C134.329 101.024 134.144 98.4988 135.365 98.4887Z" fill="#FFFEFF"/>
<path d="M114.831 85.5568C115.662 85.5467 115.677 88.2697 114.736 88.1786C113.795 88.0926 113.61 85.5669 114.831 85.5568Z" fill="#FFFEFF"/>
<path d="M107.291 106.567C108.122 106.557 108.137 109.275 107.196 109.188C106.255 109.102 106.07 106.577 107.291 106.567Z" fill="#FFFEFF"/>
<path d="M131.067 49.3627C131.897 49.3526 131.912 52.0706 130.972 51.9845C130.031 51.8985 129.846 49.3729 131.067 49.3627Z" fill="#FFFEFF"/>
<path d="M103.543 79.4831C104.374 79.473 104.389 82.191 103.448 82.1049C102.508 82.0189 102.323 79.4932 103.543 79.4831Z" fill="#FFFEFF"/>
<path d="M99.4209 88.5936C100.251 88.5835 100.266 91.3015 99.3259 91.2154C98.3852 91.1294 98.2001 88.6038 99.4209 88.5936Z" fill="#FFFEFF"/>
<path d="M83.3252 95.634C84.1558 95.6239 84.1708 98.3419 83.2302 98.2558C82.2895 98.1698 82.1044 95.6442 83.3252 95.634Z" fill="#FFFEFF"/>
<path d="M86.6074 72.7768C87.438 72.7666 87.453 75.4846 86.5124 75.3986C85.5718 75.3125 85.3866 72.7869 86.6074 72.7768Z" fill="#FFFEFF"/>
<path d="M75.2046 93.0274C76.0352 93.0173 76.0502 95.7353 75.1095 95.6492C74.1689 95.5632 73.9838 93.0375 75.2046 93.0274Z" fill="#FFFEFF"/>
<path d="M113.61 168.736C113.105 170.173 113.465 171.307 114.171 171.418C115.386 171.611 128.125 173.326 128.72 173.215C129.311 173.104 137.611 162.04 137.931 161.331C138.252 160.622 137.931 159.205 137.931 159.205C137.931 159.205 125.153 158.061 124.267 158.335C123.382 158.608 113.67 168.559 113.61 168.736Z" fill="#181818"/>
<path d="M117.518 167.784C120.91 168.493 126.809 169.571 127.314 169.298C127.825 169.024 133.619 161.108 133.649 160.729C133.684 160.354 125.573 159.858 124.973 159.975C124.503 160.066 117.118 167.703 117.513 167.784H117.518Z" fill="#FFFEFF"/>
<path d="M44.1641 162.566C49.5126 164.095 57.8682 166.281 58.3235 166.119C58.7788 165.952 63.3518 162.773 63.0266 162.404C62.7014 162.035 50.6534 159.058 49.5927 159.18C48.532 159.301 43.4336 162.358 44.1641 162.566Z" fill="#181818"/>
<path d="M112.62 10.0711C112.539 10.0256 112.439 10.0306 112.289 10.147C112.139 10.2634 111.924 10.476 111.534 10.7898C111.169 11.0884 110.443 11.5338 109.613 11.8021C108.792 12.0906 107.906 12.2222 107.396 12.2981C106.18 12.455 105.935 12.5411 105.935 12.7638C105.935 12.9561 106.16 13.1434 107.456 13.0978C108.006 13.0675 108.957 12.951 109.868 12.6322C110.783 12.3335 111.619 11.7869 112.009 11.382C112.434 10.9568 112.61 10.6329 112.67 10.4203C112.73 10.2078 112.695 10.1217 112.615 10.0711H112.62Z" fill="#181818"/>
<path d="M125.563 116.153C125.553 116.198 125.568 116.249 125.593 116.295H125.613C125.833 116.512 126.734 116.912 129.491 117.408C130.291 117.545 131.412 117.697 132.718 117.727C133.368 117.752 134.074 117.702 134.799 117.606C135.525 117.489 136.27 117.282 136.971 116.973C137.671 116.669 138.307 116.274 138.902 115.935C139.477 115.601 140.053 115.363 140.643 115.181C141.809 114.817 142.91 114.71 143.71 114.675C144.656 114.635 145.411 114.71 146.002 114.786C146.597 114.862 147.032 114.958 147.363 115.019C148.008 115.151 148.223 115.136 148.278 114.999C148.328 114.877 148.213 114.69 147.588 114.371C147.273 114.219 146.827 114.042 146.202 113.896C145.576 113.744 144.766 113.612 143.745 113.607C142.875 113.607 141.684 113.693 140.383 114.073C139.738 114.26 139.052 114.523 138.402 114.898C137.781 115.252 137.186 115.616 136.576 115.89C135.37 116.457 134.019 116.614 132.798 116.619C131.577 116.624 130.486 116.507 129.706 116.416C126.954 116.067 125.968 115.905 125.668 116.052H125.688C125.598 116.077 125.568 116.112 125.563 116.158V116.153Z" fill="#181818"/>
<path d="M158.825 113.212C158.935 113.177 158.985 112.898 158.715 112.068C158.435 111.248 157.81 109.867 156.254 107.969C155.518 107.073 154.402 105.914 152.986 104.765C152.281 104.183 151.5 103.616 150.695 103.049C149.879 102.492 149.004 101.88 147.913 101.561C146.817 101.227 145.632 101.369 144.646 101.687C144.401 101.774 144.156 101.86 143.915 101.946C143.685 102.047 143.46 102.148 143.23 102.249C142.77 102.442 142.364 102.685 141.949 102.892C140.333 103.788 138.987 104.674 137.996 105.332C137.411 105.716 136.901 106.076 136.435 106.395C136.32 106.476 136.21 106.551 136.1 106.627C136.085 106.638 136.07 106.668 136.05 106.658C136.08 106.678 135.77 106.541 135.585 106.46C134.779 106.111 134.174 105.868 133.729 105.706C132.828 105.377 132.543 105.367 132.483 105.494C132.423 105.62 132.603 105.828 133.418 106.314C133.829 106.557 134.394 106.87 135.17 107.27C135.265 107.321 135.37 107.371 135.47 107.427C135.62 107.503 135.77 107.579 135.93 107.655C136.14 107.857 136.33 107.614 136.535 107.503C136.661 107.422 136.791 107.341 136.921 107.26C137.391 106.961 137.911 106.632 138.497 106.263C139.492 105.64 140.838 104.78 142.394 103.93C143.18 103.525 144.01 103.079 144.886 102.811C145.762 102.528 146.652 102.411 147.503 102.639C148.353 102.857 149.174 103.383 149.964 103.92C150.76 104.461 151.525 105.013 152.206 105.554C153.582 106.638 154.683 107.716 155.413 108.541C156.989 110.307 157.7 111.562 158.125 112.291C158.54 113.025 158.69 113.243 158.82 113.202L158.825 113.212Z" fill="#181818"/>
<path d="M141.799 86.5438C142.039 86.4679 142.014 85.8403 141.229 82.9451C140.483 80.2069 138.412 73.2829 137.406 70.4637C136.831 68.8036 136.39 67.8419 136.09 67.3105C135.795 66.774 135.63 66.6626 135.5 66.7183C135.375 66.7689 135.325 66.9612 135.455 67.5433C135.585 68.1254 135.895 69.0921 136.39 70.7522C137.261 73.5714 139.347 80.4802 140.243 83.1729C141.204 86.0528 141.554 86.6146 141.794 86.5438H141.799Z" fill="#FFFEFF"/>
<path d="M125.223 71.6025C124.978 71.5924 124.768 72.3769 124.588 76.2792C124.508 78.1267 124.423 81.4014 124.458 84.7115C124.478 88.0166 124.688 91.3673 124.998 93.3058C125.328 95.5885 125.774 96.9196 126.109 97.6535C126.444 98.3874 126.649 98.5342 126.769 98.4836C126.904 98.4279 126.909 98.2002 126.754 97.4561C126.604 96.7121 126.299 95.4417 126.049 93.2299C125.814 91.342 125.629 88.0672 125.599 84.7824C125.554 81.5026 125.594 78.238 125.594 76.3957C125.604 72.4528 125.478 71.6126 125.223 71.6025Z" fill="#FFFEFF"/>
<path d="M128.32 101.11C128.23 101.191 128.225 101.364 128.49 101.753C128.761 102.128 129.306 102.776 130.512 103.398C131.077 103.692 131.918 103.995 132.898 104.168C133.879 104.335 134.99 104.375 136.09 104.294C137.196 104.213 138.307 103.975 139.258 103.596C140.213 103.221 140.984 102.71 141.494 102.27C142.094 101.748 142.495 101.252 142.76 100.827C143.03 100.407 143.175 100.068 143.265 99.8097C143.43 99.2934 143.375 99.1163 143.255 99.0606C143.125 99.0049 142.975 99.0859 142.68 99.4756C142.53 99.668 142.335 99.9312 142.054 100.265C141.779 100.604 141.399 100.999 140.869 101.419C140.413 101.779 139.743 102.199 138.907 102.518C138.072 102.841 137.076 103.059 136.06 103.14C135.04 103.226 134.019 103.206 133.134 103.079C132.248 102.953 131.507 102.715 130.992 102.502C129.891 102.037 129.321 101.556 128.951 101.318C128.586 101.07 128.425 101.024 128.325 101.11H128.32Z" fill="#181818"/>
<path d="M123.442 50.1675C123.442 50.0713 123.362 50.0005 123.087 49.96C122.951 49.9397 122.766 49.9296 122.516 49.9246C122.271 49.9397 121.961 49.9853 121.571 50.046C121.39 50.0966 121.175 50.1574 120.935 50.2232C120.69 50.2839 120.445 50.4206 120.165 50.537C119.634 50.8103 119.049 51.1899 118.599 51.7163C117.628 52.7336 117.293 54.2065 117.343 55.0062C117.378 55.9679 117.633 56.4993 117.808 56.7676C117.993 57.0409 118.103 57.0763 118.193 57.0257C118.283 56.9801 118.328 56.8637 118.278 56.5803C118.238 56.2969 118.108 55.8261 118.128 55.0315C118.128 54.3583 118.408 53.1689 119.204 52.3186C119.569 51.8732 120.06 51.5543 120.505 51.2911C120.74 51.1848 120.955 51.0583 121.165 50.9875C121.375 50.9115 121.561 50.8457 121.721 50.7901C122.051 50.699 122.326 50.6281 122.571 50.5572C122.801 50.5117 122.971 50.4712 123.102 50.4256C123.357 50.3396 123.437 50.2536 123.432 50.1574L123.442 50.1675Z" fill="#181818"/>
<path d="M125.804 52.106C125.819 52.0149 125.749 51.9289 125.468 51.8378C125.188 51.7568 124.698 51.61 123.852 51.6404C123.752 51.6404 123.642 51.6404 123.522 51.6404C123.402 51.6606 123.277 51.6809 123.142 51.7011C122.877 51.7517 122.571 51.772 122.266 51.9036C122.111 51.9592 121.951 52.0149 121.791 52.0756C121.631 52.1364 121.481 52.2427 121.321 52.3338C120.99 52.4957 120.72 52.7691 120.435 53.0171C119.92 53.5789 119.549 54.2571 119.359 54.91C119.194 55.5629 119.129 56.1602 119.169 56.5955C119.224 57.6229 119.539 58.1999 119.75 58.4884C120.01 58.7668 120.13 58.7769 120.205 58.7061C120.28 58.6352 120.295 58.5036 120.195 58.2455C120.135 57.9519 119.96 57.4762 119.96 56.6005C119.94 56.2311 120.02 55.73 120.155 55.1833C120.33 54.6468 120.62 54.1002 121.02 53.6447C121.256 53.4523 121.456 53.2195 121.726 53.0879C121.856 53.012 121.971 52.926 122.101 52.8652C122.236 52.8146 122.366 52.764 122.496 52.7134C122.747 52.5919 123.012 52.5615 123.242 52.5059C123.357 52.4806 123.467 52.4552 123.572 52.435C123.677 52.4148 123.777 52.4198 123.867 52.4097C124.638 52.3186 125.118 52.3591 125.408 52.3186C125.699 52.2832 125.794 52.2123 125.809 52.1161L125.804 52.106Z" fill="#181818"/>
<path d="M126.589 54.1559C126.599 54.0597 126.529 53.9787 126.254 53.8927C125.979 53.8218 125.473 53.7307 124.648 53.8977C124.263 53.9838 123.722 54.1711 123.192 54.5254C122.657 54.8797 122.151 55.4212 121.786 56.0438C121.421 56.6714 121.206 57.38 121.156 58.038C121.1 58.696 121.221 59.3033 121.411 59.7184C121.636 60.2093 121.971 60.5282 122.266 60.7003C122.566 60.8774 122.822 60.9078 122.997 60.9179C123.352 60.9179 123.442 60.8167 123.447 60.7205C123.452 60.6142 123.367 60.5332 123.117 60.4168C122.882 60.2903 122.436 60.1233 122.146 59.4248C122.026 59.1312 121.946 58.6706 121.991 58.1392C122.041 57.6128 122.211 57.0206 122.506 56.5044C122.797 55.983 123.207 55.5376 123.627 55.2289C124.052 54.9252 124.483 54.7379 124.803 54.6418C125.488 54.4241 125.949 54.414 126.219 54.3583C126.489 54.3128 126.579 54.2419 126.594 54.1458L126.589 54.1559Z" fill="#181818"/>
<path d="M135 65.4884C135.085 65.4529 135.065 65.2049 134.799 64.4255C134.524 63.6511 134.004 62.3452 132.983 60.2397C132.013 58.2607 130.186 54.7683 127.88 51.5543C127.31 50.7496 126.724 49.9094 125.899 49.2514C125.063 48.5833 124.017 48.3403 123.127 48.2492C121.321 48.0873 119.759 48.1834 118.599 48.31C115.887 48.6491 114.336 49.216 113.475 49.631C112.61 50.0562 112.47 50.4155 112.555 50.4611C112.65 50.5319 112.8 50.3953 113.645 50.1118C114.486 49.8436 115.992 49.383 118.609 49.1097C119.714 49.0034 121.26 48.9325 122.952 49.0793C123.782 49.1755 124.638 49.3526 125.313 49.8841C126.004 50.3902 126.564 51.1848 127.129 51.9643C129.411 55.1226 131.247 58.5441 132.263 60.4826C133.308 62.5274 133.944 63.7675 134.359 64.5773C134.749 65.3163 134.92 65.5187 135.005 65.4782L135 65.4884Z" fill="#181818"/>
<path d="M119.519 51.3772C119.469 51.2962 119.379 51.2608 119.204 51.3164C119.029 51.3772 118.759 51.529 118.404 51.8985C118.233 52.0706 118.028 52.3388 117.823 52.6678C117.638 53.0069 117.448 53.4119 117.358 53.8471C117.138 54.7228 117.293 55.6287 117.448 56.1045C117.633 56.6714 117.833 56.9599 117.973 57.1117C118.113 57.2636 118.208 57.2737 118.304 57.2231C118.394 57.1775 118.449 57.0915 118.434 56.8941C118.424 56.7018 118.319 56.4082 118.213 55.9071C118.128 55.487 118.018 54.7531 118.183 54.0547C118.324 53.3511 118.714 52.7286 118.959 52.4046C119.219 52.0503 119.399 51.8378 119.484 51.691C119.569 51.5442 119.564 51.4531 119.514 51.3721L119.519 51.3772Z" fill="#181818"/>
<path d="M120.805 60.3561C120.715 60.3763 120.655 60.4877 120.7 60.8116C120.755 61.1305 120.89 61.6822 121.41 62.4667C121.661 62.8261 122.071 63.317 122.686 63.7017C122.841 63.7928 122.996 63.894 123.177 63.9649C123.262 64.0054 123.347 64.0408 123.437 64.0813L123.662 64.1774C123.957 64.309 124.212 64.471 124.387 64.6887C124.748 65.1138 124.853 65.8376 124.903 66.4652C124.953 67.1029 124.953 67.685 124.953 68.1152C124.943 70.1499 125.053 70.5498 125.263 70.5548C125.468 70.5599 125.618 70.2005 125.743 68.1608C125.768 67.7204 125.788 67.1232 125.743 66.4348C125.723 66.0907 125.683 65.7212 125.598 65.3314C125.513 64.9468 125.363 64.5267 125.073 64.1673C124.788 63.808 124.392 63.5701 124.042 63.4132C123.662 63.2462 123.412 63.1702 123.157 63.0083C122.651 62.7198 122.286 62.3351 122.046 62.0365C121.535 61.3937 121.32 60.9179 121.155 60.6598C120.995 60.3966 120.905 60.3257 120.815 60.351L120.805 60.3561Z" fill="#181818"/>
<path d="M137.656 75.1202C137.561 75.0392 137.421 75.0392 137.141 75.2164C137.001 75.3024 136.836 75.4391 136.611 75.6213C136.375 75.7832 136.11 76.0262 135.75 76.2843C135.095 76.8006 133.834 77.5952 132.428 78.0153C131.027 78.4557 129.536 78.4557 128.705 78.2988C127.72 78.1419 127.169 77.909 126.824 77.8179C126.484 77.7167 126.329 77.7572 126.254 77.8736C126.179 77.99 126.199 78.1317 126.484 78.4101C126.774 78.6733 127.359 79.0732 128.48 79.3414C129.426 79.5945 131.142 79.6299 132.718 79.1339C134.304 78.6581 135.685 77.7319 136.345 77.1043C137.076 76.4513 137.426 75.9705 137.591 75.6567C137.761 75.348 137.746 75.2062 137.651 75.1253L137.656 75.1202Z" fill="#FFFEFF"/>
<path d="M122.891 101.809C122.846 101.693 122.721 101.632 122.381 101.698C122.211 101.728 121.986 101.794 121.706 101.93C121.415 102.052 121.085 102.259 120.68 102.533C119.914 103.059 118.774 104.279 117.983 105.711C117.183 107.144 116.697 108.718 116.507 109.644C116.287 110.737 116.262 111.405 116.302 111.79C116.342 112.18 116.442 112.291 116.577 112.306C116.712 112.321 116.837 112.235 116.972 111.886C117.102 111.542 117.248 110.935 117.523 109.927C117.758 109.072 118.233 107.614 118.959 106.303C119.669 104.982 120.65 103.879 121.27 103.348C121.605 103.069 121.876 102.836 122.106 102.674C122.331 102.497 122.501 102.371 122.631 102.27C122.881 102.057 122.936 101.92 122.886 101.799L122.891 101.809Z" fill="#FFFEFF"/>
<path d="M157.82 113.455C157.955 113.359 157.86 112.883 156.504 111.223C155.853 110.449 154.628 109.143 153.277 107.948C151.936 106.744 150.48 105.656 149.569 105.094C148.514 104.426 147.793 104.152 147.373 104.041C146.937 103.945 146.802 103.985 146.772 104.087C146.742 104.188 146.822 104.309 147.168 104.512C147.508 104.734 148.123 105.063 149.109 105.747C149.955 106.319 151.36 107.392 152.676 108.566C154.002 109.725 155.233 110.975 155.908 111.694C157.344 113.243 157.65 113.572 157.82 113.45V113.455Z" fill="#181818"/>
<path d="M154.823 113.663C154.953 113.531 154.768 113.146 153.392 111.643C152.731 110.945 151.515 109.7 150.064 108.703C148.638 107.665 146.967 106.992 145.977 106.729C145.391 106.562 144.916 106.486 144.536 106.435C144.161 106.369 143.87 106.384 143.665 106.384C143.25 106.4 143.13 106.47 143.12 106.572C143.11 106.673 143.21 106.774 143.59 106.891C143.97 107.007 144.641 107.128 145.717 107.483C146.637 107.776 148.188 108.414 149.544 109.386C150.925 110.322 152.131 111.496 152.821 112.149C154.292 113.567 154.688 113.804 154.823 113.663Z" fill="#181818"/>
<path d="M152.026 114.316C152.096 114.25 152.086 114.133 151.891 113.85C151.685 113.587 151.28 113.162 150.495 112.661C149.759 112.175 148.368 111.476 146.922 110.93C145.476 110.378 143.985 109.943 143.105 109.73C141.033 109.239 140.608 109.32 140.568 109.512C140.523 109.725 140.878 109.902 142.87 110.494C143.72 110.747 145.176 111.193 146.587 111.724C148.003 112.251 149.349 112.888 150.079 113.293C151.63 114.169 151.866 114.468 152.031 114.311L152.026 114.316Z" fill="#181818"/>
<path d="M114.066 36.2588C113.966 36.2841 114.001 36.5625 113.956 37.5241C113.926 37.9999 113.866 38.6528 113.661 39.4981C113.455 40.3433 113.11 41.3809 112.455 42.5906C111.839 43.7446 111.034 45.4047 109.723 46.9586C109.067 47.7228 108.297 48.4871 107.356 49.0034C106.896 49.2818 106.386 49.4589 105.865 49.6057C105.335 49.712 104.795 49.798 104.244 49.7474C103.134 49.6715 101.978 49.4791 100.967 49.0793C99.9464 48.6896 99.0708 48.0822 98.3304 47.3685C97.9551 47.0142 97.6049 46.6448 97.2596 46.2854C96.9194 45.926 96.5542 45.5768 96.249 45.2681C95.6386 44.6455 95.1682 43.9977 94.788 43.4358C93.9024 42.1047 93.337 40.9456 92.9067 40.0194C92.4815 39.0881 92.2013 38.3846 91.9961 37.8632C91.5909 36.8206 91.4558 36.5372 91.3507 36.5625C91.2606 36.5878 91.2306 36.9016 91.5058 37.9948C91.6509 38.5364 91.8761 39.2754 92.2663 40.237C92.6566 41.1987 93.1969 42.3983 94.0825 43.8003C94.4628 44.3924 94.9431 45.0859 95.5885 45.7742C95.9037 46.0981 96.239 46.4372 96.5842 46.7915C96.9244 47.1458 97.2797 47.5305 97.6699 47.9101C98.4454 48.6693 99.4211 49.4032 100.547 49.8334C101.668 50.289 102.863 50.5117 104.074 50.6028C105.315 50.6888 106.596 50.4104 107.647 49.8081C108.717 49.2311 109.568 48.4163 110.263 47.5963C111.654 45.9362 112.47 44.2457 113.065 43.0512C113.726 41.7757 114.091 40.6318 114.261 39.7106C114.441 38.7895 114.456 38.0758 114.426 37.5596C114.351 36.5169 114.146 36.2335 114.066 36.2588Z" fill="#181818"/>
<path d="M102.733 42.9753C102.768 42.8842 102.753 42.8032 102.648 42.6564C102.553 42.5096 102.338 42.3072 102.248 41.9073C102.158 41.4923 102.128 40.5559 102.113 39.6347C102.093 38.7085 102.098 37.7721 102.008 37.18C101.958 36.8408 101.878 36.5422 101.723 36.2993C101.557 36.0462 101.302 35.9399 101.172 35.9298C100.907 35.9095 100.847 35.9905 100.812 36.0867C100.777 36.1879 100.837 36.2841 100.987 36.4056C101.062 36.4714 101.092 36.522 101.127 36.6232C101.162 36.7396 101.202 36.9471 101.217 37.2458C101.252 37.7418 101.227 38.6883 101.252 39.6246C101.277 40.566 101.322 41.4973 101.507 42.0845C101.617 42.4236 101.803 42.6513 101.958 42.793C102.118 42.9348 102.263 43.0056 102.373 43.0411C102.593 43.1119 102.693 43.0562 102.728 42.9702L102.733 42.9753Z" fill="#181818"/>
<path d="M107.171 43.4662C106.981 43.4207 106.866 43.4915 106.661 43.8003C106.566 43.9471 106.391 44.2001 106.17 44.3925C105.95 44.5848 105.68 44.7164 105.51 44.7872C105.115 44.9543 105.015 45.0606 105.035 45.2833C105.045 45.3896 105.075 45.4705 105.17 45.5262C105.27 45.5819 105.44 45.6123 105.73 45.5566C105.975 45.5161 106.391 45.3491 106.726 45.0504C107.061 44.7569 107.276 44.3671 107.341 44.1343C107.486 43.6383 107.346 43.5067 107.176 43.4662H107.171Z" fill="#181818"/>
<path d="M109.848 32.3716C109.933 32.2147 109.808 31.9667 109.042 31.7643C108.682 31.6681 108.032 31.577 107.371 31.582C106.711 31.577 106.035 31.6833 105.655 31.7997C105.205 31.9465 104.955 32.1034 104.84 32.24C104.719 32.3716 104.724 32.4678 104.779 32.5589C104.895 32.7563 105.055 32.7411 105.83 32.5842C106.165 32.5235 106.761 32.4475 107.366 32.4475C107.972 32.4374 108.572 32.488 108.907 32.5184C109.628 32.5842 109.768 32.5538 109.858 32.3767L109.848 32.3716Z" fill="#181818"/>
<path d="M96.1537 45.759C96.1537 45.759 96.1787 45.7135 96.1737 45.678L96.1337 45.4047L96.0586 45.754C96.0336 45.8653 96.0686 46.1589 96.3038 46.7662C96.5389 47.3685 96.9692 48.2998 97.9399 49.5196C98.4702 50.1726 99.3058 51.033 100.467 51.7466C101.047 52.1009 101.712 52.4097 102.448 52.597C103.188 52.7792 103.954 52.8298 104.719 52.7842C106.255 52.6931 107.736 52.1465 108.897 51.4227C110.068 50.6838 110.924 49.8334 111.494 49.1046C112.149 48.2138 112.359 47.328 112.45 46.6599C112.525 45.9817 112.475 45.4756 112.409 45.1162C112.274 44.3975 112.119 44.2355 112.024 44.2558C111.914 44.2811 111.899 44.4785 111.899 45.1415C111.899 45.4756 111.884 45.926 111.779 46.5182C111.664 47.1003 111.454 47.8393 110.888 48.5732C110.398 49.1805 109.568 50.0005 108.507 50.6534C107.441 51.3114 106.105 51.8124 104.729 51.9086C104.049 51.9592 103.343 51.9187 102.708 51.777C102.073 51.6302 101.472 51.3721 100.942 51.0634C99.8762 50.4509 99.0856 49.6664 98.5553 49.0793C97.5846 47.9607 97.0943 47.1003 96.7691 46.5587C96.4439 46.0121 96.2938 45.759 96.1787 45.7033L96.0636 45.7793C96.0986 45.7843 96.1237 45.7793 96.1437 45.759H96.1537Z" fill="#181818"/>
<path d="M107.862 129.874C107.661 129.844 107.556 130.214 106.926 132C106.626 132.84 106.02 134.313 105.235 135.705C104.464 137.107 103.499 138.393 102.923 139.132C102.583 139.547 102.308 139.886 102.078 140.169C101.848 140.432 101.687 140.635 101.572 140.797C101.347 141.116 101.332 141.252 101.402 141.328C101.472 141.404 101.602 141.394 101.918 141.171C102.078 141.06 102.283 140.893 102.548 140.655C102.813 140.412 103.113 140.083 103.504 139.668C104.139 138.939 105.16 137.618 105.955 136.161C106.771 134.718 107.366 133.174 107.626 132.279C108.167 130.36 108.032 129.89 107.862 129.869V129.874Z" fill="#181818"/>
<path d="M119.994 117.52C119.869 117.464 119.779 117.484 119.364 117.671C118.954 117.859 118.243 118.213 117.027 118.77C115.882 119.296 113.82 120.197 111.709 121.002C109.598 121.817 107.436 122.525 106.165 122.915C103.188 123.811 102.618 123.993 102.673 124.292C102.713 124.54 103.343 124.712 106.41 123.953C107.716 123.624 109.923 122.93 112.059 122.1C114.201 121.28 116.277 120.329 117.413 119.716C118.634 119.068 119.334 118.572 119.709 118.208C120.09 117.854 120.11 117.57 119.994 117.525V117.52Z" fill="#181818"/>
<path d="M60.7703 131.287C60.7103 131.398 60.8454 131.59 61.4508 132.015C62.0562 132.441 63.1419 133.088 65.0231 133.999C66.7993 134.875 70.0515 136.216 73.3987 137.31C76.7459 138.423 80.1632 139.349 82.1645 139.85C86.8727 141.009 87.8083 141.025 87.8733 140.767C87.9434 140.488 87.1178 140.134 82.4998 138.838C80.5335 138.276 77.1462 137.34 73.839 136.247C70.5218 135.174 67.3097 133.898 65.5235 133.114C63.6072 132.284 62.4614 131.747 61.766 131.469C61.0705 131.19 60.8253 131.175 60.7653 131.287H60.7703Z" fill="#181818"/>
<path d="M109.298 142.158C109.388 142.239 109.788 141.961 110.889 140.726C111.434 140.103 112.155 139.243 113.035 138.013C113.47 137.396 113.956 136.692 114.441 135.857C114.926 135.022 115.442 134.07 115.857 132.916C115.892 132.81 115.932 132.704 115.982 132.557C116.002 132.511 116.052 132.334 116.102 132.157C116.152 131.975 116.212 131.767 116.282 131.524C115.897 131.357 115.492 131.18 115.072 131.003C114.796 130.882 114.511 130.755 114.216 130.623C113.626 130.355 112.995 130.072 112.335 129.768C111.009 129.161 109.558 128.477 108.027 127.728C104.98 126.215 101.578 124.479 98.4405 122.384C95.2934 120.263 92.3364 117.843 89.6296 115.702C86.9328 113.556 84.4111 111.765 82.4198 110.631C73.1186 105.033 71.2724 104.107 71.1273 104.345C70.9822 104.578 72.5833 105.767 81.7694 111.476C83.6957 112.6 86.1573 114.356 88.8491 116.517C91.5459 118.663 94.5379 121.128 97.755 123.3C101.002 125.466 104.444 127.207 107.537 128.72C109.088 129.469 110.559 130.148 111.899 130.745C112.57 131.039 113.21 131.322 113.806 131.585C114.106 131.712 114.396 131.838 114.676 131.955C114.786 132 114.896 132.046 115.001 132.091L115.067 132.117C115.067 132.117 115.057 132.152 115.057 132.167C115.027 132.253 115.007 132.314 114.986 132.375C114.636 133.458 114.176 134.399 113.726 135.229C113.275 136.059 112.83 136.778 112.425 137.411C111.604 138.671 110.939 139.592 110.453 140.271C109.473 141.632 109.208 142.067 109.308 142.153L109.298 142.158Z" fill="#181818"/>
<path d="M142.455 133.767C142.55 133.716 142.6 133.453 142.154 132.83C141.929 132.537 141.554 132.142 140.969 131.828C140.673 131.681 140.353 131.474 139.963 131.327C139.768 131.256 139.558 131.185 139.342 131.104C139.232 131.064 139.117 131.028 139.002 130.988C138.882 130.963 138.762 130.932 138.637 130.902C137.701 130.644 136.37 130.502 134.869 130.497C133.363 130.492 131.687 130.664 130.036 130.952C128.38 131.241 126.744 131.631 125.293 132.056C124.568 132.268 123.887 132.486 123.277 132.699C122.716 132.896 122.196 132.997 121.746 133.053C120.685 133.169 119.814 133.058 119.124 132.952C118.434 132.84 117.918 132.724 117.533 132.653C116.767 132.501 116.527 132.522 116.482 132.658C116.437 132.785 116.592 132.972 117.313 133.301C117.678 133.458 118.183 133.655 118.904 133.837C119.619 134.015 120.565 134.202 121.776 134.116C122.291 134.075 122.902 133.979 123.552 133.767C124.162 133.569 124.808 133.362 125.523 133.164C126.939 132.759 128.535 132.38 130.136 132.096C131.742 131.808 133.353 131.631 134.784 131.605C135.145 131.585 135.485 131.605 135.82 131.605C136.15 131.61 136.471 131.616 136.766 131.656C137.066 131.686 137.346 131.712 137.611 131.737C137.866 131.783 138.107 131.828 138.327 131.869C139.262 132.041 139.973 132.304 140.518 132.552C141.084 132.77 141.424 133.038 141.684 133.24C142.184 133.66 142.334 133.832 142.455 133.762V133.767Z" fill="#181818"/>
<path d="M217.454 94.6876C217.444 94.8748 217.63 95.0166 218.59 95.1026C219.046 95.1431 219.851 95.1633 220.667 95.133C221.482 95.1026 222.303 95.0115 222.783 94.9153C223.904 94.6825 224.079 94.4345 224.019 94.2523C223.954 94.0397 223.749 94.0144 222.688 94.1257C222.233 94.1713 221.447 94.2371 220.657 94.2776C219.876 94.308 219.111 94.3333 218.635 94.3484C217.68 94.394 217.475 94.5003 217.464 94.6926L217.454 94.6876Z" fill="#FFFEFF"/>
<path d="M176.597 125.405C176.612 125.157 175.206 124.859 168.091 123.791C161.367 122.793 144.206 120.354 137.131 119.377C133.113 118.846 130.727 118.527 129.281 118.334C129.251 118.309 129.231 118.284 129.211 118.248C129.186 118.203 129.161 118.137 129.141 118.076C129.101 117.955 129.076 117.828 129.05 117.717C129.015 117.504 128.98 117.327 128.955 117.17C128.905 116.892 128.85 116.786 128.78 116.786C128.715 116.786 128.64 116.877 128.58 117.155C128.55 117.297 128.525 117.484 128.515 117.737C128.515 117.864 128.515 118.01 128.54 118.178C128.55 118.264 128.57 118.35 128.6 118.451C128.63 118.557 128.695 118.694 128.78 118.8C128.865 118.916 129 118.997 129.141 119.043C129.246 119.063 129.356 119.089 129.466 119.114C129.676 119.159 129.906 119.205 130.151 119.261C130.642 119.362 131.232 119.483 131.872 119.59C133.168 119.817 134.804 120.091 136.866 120.41C143.89 121.513 161.032 123.932 167.786 124.773C175.001 125.684 176.582 125.663 176.597 125.405Z" fill="#181818"/>
<path d="M131.412 119.063C131.347 119.058 131.257 119.301 131.147 120.005C131.092 120.354 131.037 120.825 130.997 121.437C130.977 121.746 130.962 122.085 130.972 122.475C130.977 122.672 130.992 122.874 131.027 123.102C131.052 123.229 131.062 123.315 131.127 123.492C131.157 123.573 131.212 123.634 131.252 123.71C131.307 123.77 131.372 123.836 131.442 123.882C131.687 123.953 131.893 124.013 132.128 124.074C132.328 124.115 132.538 124.16 132.753 124.206C133.188 124.292 133.654 124.383 134.149 124.479C135.145 124.666 136.275 124.874 137.551 125.096C140.103 125.547 143.25 126.073 147.108 126.701C151.065 127.329 156.549 128.204 162.813 129.201C165.945 129.687 169.277 130.208 172.705 130.74C173.56 130.872 174.426 131.008 175.296 131.14L175.947 131.241L176.272 131.292C176.392 131.307 176.457 131.337 176.642 131.332C177.008 131.332 177.173 131.292 177.418 131.271C177.648 131.246 177.863 131.211 178.088 131.18C179.859 130.922 181.621 130.618 183.387 130.32C197.501 127.87 211.661 125.188 219.931 123.608C224.779 122.677 228.647 121.918 231.714 121.295C233.245 120.976 234.581 120.698 235.742 120.46C236.322 120.334 236.857 120.217 237.353 120.106C237.603 120.05 237.838 119.995 238.068 119.939L238.238 119.898C238.288 119.888 238.348 119.873 238.438 119.843C238.518 119.812 238.599 119.797 238.674 119.757C238.744 119.706 238.809 119.65 238.854 119.58C238.959 119.453 239.014 119.266 239.039 119.159C239.074 119.038 239.084 118.932 239.104 118.825C239.129 118.613 239.144 118.42 239.149 118.238C239.159 117.874 239.149 117.55 239.144 117.256C239.124 116.679 239.089 116.239 239.054 115.905C238.984 115.237 238.919 115.004 238.849 115.004C238.779 115.004 238.724 115.237 238.679 115.885C238.659 116.224 238.639 116.654 238.609 117.201C238.594 117.479 238.579 117.788 238.549 118.127C238.534 118.294 238.513 118.471 238.483 118.648C238.468 118.739 238.448 118.82 238.428 118.911L238.393 119.028C238.383 119.063 238.373 119.073 238.363 119.094C238.338 119.129 238.318 119.164 238.263 119.17C238.183 119.185 238.103 119.2 238.023 119.215C237.798 119.256 237.568 119.301 237.323 119.347C236.832 119.438 236.302 119.534 235.727 119.635C234.576 119.843 233.25 120.086 231.729 120.359C228.682 120.916 224.839 121.619 220.016 122.505C211.781 124.013 197.646 126.66 183.582 129.115C181.826 129.419 180.065 129.718 178.323 129.986C177.888 130.046 177.453 130.117 177.038 130.163L176.877 130.183H176.787C176.752 130.188 176.737 130.198 176.692 130.198L176.527 130.173L175.872 130.072C175.006 129.94 174.141 129.809 173.285 129.677C169.858 129.156 166.536 128.644 163.399 128.169C157.134 127.212 151.646 126.372 147.683 125.765C143.715 125.162 140.483 124.666 137.857 124.266C136.546 124.064 135.385 123.887 134.364 123.73C133.854 123.649 133.379 123.573 132.938 123.502C132.718 123.467 132.503 123.431 132.298 123.401C132.128 123.365 131.948 123.33 131.823 123.315C131.682 123.29 131.617 122.788 131.587 122.459C131.552 122.1 131.547 121.771 131.537 121.472C131.537 120.885 131.537 120.42 131.532 120.055C131.532 119.347 131.502 119.084 131.432 119.078L131.412 119.063Z" fill="#181818"/>
<path d="M176.597 130.76C176.617 131.069 178.639 131.018 188.215 129.404C197.281 127.9 220.311 123.629 229.778 121.741C232.554 121.189 234.771 120.734 236.527 120.354C236.967 120.258 237.378 120.162 237.763 120.081C237.958 120.035 238.143 119.989 238.323 119.944C238.438 119.903 238.598 119.863 238.718 119.797C238.839 119.711 238.934 119.595 238.994 119.463C239.129 119.175 239.124 119.033 239.159 118.846C239.179 118.674 239.194 118.512 239.199 118.355C239.209 118.051 239.209 117.773 239.199 117.525C239.119 115.53 238.969 115.004 238.839 114.999C238.693 114.999 238.613 115.535 238.523 117.459C238.508 117.697 238.493 117.96 238.463 118.233C238.433 118.496 238.383 118.835 238.308 119.028C238.288 119.078 238.253 119.114 238.178 119.114C238.013 119.144 237.843 119.175 237.668 119.21C237.288 119.281 236.882 119.352 236.447 119.433C234.696 119.752 232.494 120.157 229.733 120.658C220.286 122.409 197.316 126.676 188.27 128.356C183.437 129.257 180.515 129.814 178.804 130.163C177.948 130.34 177.398 130.462 177.062 130.553C176.732 130.644 176.622 130.689 176.602 130.755L176.597 130.76Z" fill="#181818"/>
<path d="M3.50707 135.432C3.45703 135.508 3.50707 135.655 3.86731 135.943C4.22755 136.226 4.89299 136.647 6.09379 137.097C7.21954 137.532 9.30592 138.079 11.4574 138.226C11.9927 138.271 12.5381 138.256 13.0634 138.261C13.5938 138.271 14.0991 138.241 14.5894 138.185C15.5651 138.084 16.4207 137.866 17.0311 137.644C18.412 137.148 19.1175 136.48 19.4477 136.049C19.7779 135.609 19.7929 135.401 19.7329 135.331V135.315C19.7329 135.315 19.7179 135.315 19.7078 135.315C19.6978 135.315 19.6878 135.315 19.6778 135.315V135.3C19.5828 135.26 19.4427 135.366 19.0774 135.67C18.7072 135.963 18.0718 136.464 16.8159 136.874C16.2555 137.057 15.465 137.244 14.5494 137.33C14.0941 137.37 13.5988 137.406 13.0984 137.396C12.5981 137.386 12.0828 137.411 11.5674 137.365C9.50106 137.239 7.48471 136.748 6.38898 136.388C5.2082 136.019 4.52775 135.7 4.11747 135.538C3.7122 135.366 3.5621 135.346 3.50707 135.427V135.432Z" fill="#181818"/>
<path d="M19.7127 158.152C19.7127 158.152 19.6627 158.168 19.6376 158.188C19.6026 158.218 19.5576 158.269 19.5025 158.34C19.3925 158.481 19.2023 158.704 18.8021 158.932C18.0166 159.403 16.3755 159.853 13.5936 159.924C12.2827 159.959 10.4415 159.924 8.38515 159.625C7.87481 159.544 7.34446 159.453 6.81911 159.327C6.30376 159.195 5.74839 159.043 5.33812 158.8C5.23305 158.745 5.153 158.674 5.12298 158.633C5.12298 158.623 5.11297 158.618 5.10297 158.613C5.09296 158.613 5.08796 158.562 5.07795 158.537L5.02291 158.36C4.93285 158.142 4.91784 157.828 4.86781 157.555C4.80277 156.973 4.74273 156.376 4.69269 155.779C4.29243 150.991 4.06728 146.137 3.92718 143.312C3.76708 139.992 3.70704 138.023 3.657 136.884C3.61698 135.746 3.61197 135.452 3.5019 135.422C3.41684 135.391 3.24173 135.705 3.15167 136.844C3.06661 137.983 3.03659 139.947 3.13666 143.252C3.22672 146.076 3.43686 150.915 3.83712 155.723C3.89216 156.325 3.9472 156.928 4.01724 157.53C4.05727 157.834 4.08729 158.137 4.17235 158.461L4.32745 158.952C4.38749 159.058 4.46754 159.185 4.54259 159.256C4.61764 159.322 4.6977 159.398 4.77275 159.448C5.36814 159.823 5.93352 159.964 6.49389 160.116C7.05426 160.253 7.59963 160.354 8.12998 160.43C10.2564 160.734 12.1326 160.749 13.4835 160.693C16.3705 160.562 18.1366 160.015 19.0222 159.352C19.2474 159.195 19.4025 159.013 19.5176 158.871C19.6126 158.704 19.7027 158.588 19.7227 158.466C19.7527 158.355 19.7627 158.279 19.7577 158.228C19.7577 158.168 19.7327 158.142 19.7077 158.147L19.7127 158.152Z" fill="#181818"/>
<path d="M4.71775 158.79C4.69774 158.704 4.60267 158.623 4.27245 158.699C4.11735 158.745 3.85718 158.841 3.66705 159.185C3.57699 159.357 3.53696 159.58 3.56698 159.808C3.60201 160.035 3.65704 160.238 3.85718 160.496C5.20808 161.908 9.17071 162.424 10.7968 162.439C12.7081 162.46 13.0683 162.257 13.0533 162.065C13.0433 161.842 12.6981 161.776 10.8618 161.645C10.0813 161.579 8.73542 161.452 7.43956 161.159C6.79413 161.017 6.15871 160.835 5.61835 160.633C5.08299 160.435 4.63269 160.187 4.43256 160.005C4.37752 159.949 4.36752 159.944 4.32749 159.878C4.29247 159.818 4.27245 159.762 4.25744 159.706C4.22242 159.6 4.22742 159.524 4.23743 159.453C4.26245 159.317 4.37252 159.205 4.46258 159.124C4.65271 158.967 4.73776 158.881 4.71275 158.785L4.71775 158.79Z" fill="#181818"/>
<path d="M12.623 134.612C12.4429 134.571 12.2978 134.642 12.1477 135.093C12.0026 135.518 11.7825 136.641 11.7424 137.112C11.6974 137.664 11.8075 137.79 12.0076 137.826C12.2127 137.861 12.3578 137.785 12.518 137.264C12.653 136.819 12.8582 135.705 12.8832 135.26C12.9082 134.779 12.8031 134.652 12.623 134.617V134.612Z" fill="#181818"/>
<path d="M15.5551 137.618C15.7402 137.644 15.8753 137.593 15.9804 137.269C16.0805 136.965 16.1955 136.166 16.1905 135.827C16.1905 135.432 16.0655 135.341 15.8603 135.31C15.6552 135.28 15.5151 135.336 15.41 135.71C15.32 136.034 15.2149 136.829 15.2349 137.153C15.2549 137.497 15.37 137.583 15.5551 137.613V137.618Z" fill="#181818"/>
<path d="M17.0811 120.445C16.896 120.41 16.6958 120.789 16.2555 122.778C15.8353 124.661 14.9096 129.48 14.5794 131.479C14.1892 133.822 14.2342 134.293 14.4393 134.334C14.6395 134.374 14.8496 133.974 15.3499 131.666C15.7752 129.697 16.6858 124.879 16.986 122.971C17.3112 120.931 17.2662 120.48 17.0811 120.445Z" fill="#181818"/>
<path d="M11.6926 121.493C11.8777 121.472 11.8777 120.394 11.3223 115.1C11.2373 114.351 11.1372 113.435 10.9471 111.694C10.9121 111.547 10.812 111.421 10.6819 111.334C10.6169 111.289 10.5418 111.259 10.4668 111.228C10.3917 111.198 10.3617 111.193 10.3067 111.173C10.1165 111.117 9.93141 111.081 9.74129 111.051C9.36604 110.99 8.98078 110.96 8.58552 110.94C7.78999 110.904 6.93942 110.919 6.04383 111.061C5.93375 111.081 5.81868 111.102 5.7036 111.127C5.62855 111.142 5.37839 111.193 5.20327 111.294C5.02815 111.405 4.97312 111.628 4.93809 111.846C4.91808 112.018 4.91308 112.109 4.90807 112.24C4.89306 112.716 4.91308 113.177 4.93309 113.642C4.98312 114.569 5.05817 115.5 5.14323 116.426C5.48346 120.126 5.92875 123.71 6.21394 125.942C7.01948 132.066 7.31968 133.21 7.51981 133.185C7.72995 133.159 7.69493 132.026 7.00947 125.932C6.76431 123.7 6.33902 120.091 5.9988 116.391C5.91374 115.465 5.83869 114.533 5.78866 113.622C5.76364 113.167 5.74363 112.711 5.75363 112.286C5.75363 112.185 5.76364 112.068 5.77365 111.992C5.68859 112.008 5.98379 111.937 6.16891 111.906C6.97445 111.77 7.79499 111.75 8.54549 111.775C8.92074 111.79 9.28098 111.82 9.6162 111.866C9.78131 111.891 9.94142 111.922 10.0815 111.957L10.1716 111.982C10.1716 111.982 10.1816 111.987 10.1816 111.992C10.3817 113.592 10.4818 114.427 10.5668 115.115C11.2523 120.405 11.5075 121.518 11.6926 121.498V121.493Z" fill="#181818"/>
<path d="M3.05678 132.193C3.2319 132.127 3.26192 131.828 2.88667 130.548C2.71155 129.94 2.36132 128.877 1.99608 127.809C1.81095 127.278 1.62583 126.741 1.46072 126.261C1.38067 126.038 1.31062 125.765 1.32063 125.775C1.32063 125.77 1.31062 125.77 1.33063 125.754C1.33063 125.744 1.41069 125.704 1.46072 125.679C1.76092 125.542 2.06612 125.436 2.28627 125.344C2.51142 125.253 2.68153 125.172 2.79661 125.102C3.03177 124.96 3.0818 124.859 3.05178 124.757C3.02176 124.656 2.9317 124.595 2.66152 124.605C2.52643 124.611 2.34631 124.636 2.10615 124.681C1.86099 124.732 1.57079 124.788 1.16052 124.934C1.12049 124.95 1.06546 124.975 1.01542 125C0.965392 125.026 0.910355 125.051 0.840308 125.112C0.700215 125.193 0.565125 125.38 0.520095 125.582C0.470062 125.805 0.520095 125.982 0.540109 126.119C0.570129 126.256 0.610155 126.382 0.650182 126.504C0.800282 126.989 0.990408 127.526 1.17553 128.057C1.54578 129.125 1.92603 130.183 2.16119 130.775C2.66152 132.036 2.87666 132.263 3.05178 132.203L3.05678 132.193Z" fill="#181818"/>
<path d="M64.4376 149.108C64.4126 149.017 63.6771 149.158 61.2005 149.852C58.7238 150.55 54.491 151.79 47.4964 153.987C46.0104 154.458 44.2642 155.009 42.3129 155.657C41.8276 155.819 41.3273 155.991 40.8119 156.163C40.5567 156.254 40.2966 156.34 40.0364 156.432C39.7212 156.548 39.401 156.664 39.0808 156.781C38.9657 156.831 38.8106 156.877 38.7305 156.933L38.4704 157.095L38.2102 157.257C38.1752 157.282 38.1101 157.312 38.0951 157.338L38.0801 157.413C38.0701 157.459 38.0501 157.52 38.0701 157.591C38.0801 157.641 38.1001 157.687 38.1351 157.737C38.1902 157.839 38.3503 157.945 38.6155 158.026C38.8706 158.107 39.1558 158.173 39.436 158.238L39.9163 158.35C40.2115 158.416 40.5067 158.481 40.8019 158.547C45.5751 159.57 50.9887 160.749 56.6274 162.151L56.6775 162.161H56.7325L56.6324 162.151C59.7845 162.941 63.0117 163.75 66.2038 164.555C67.8049 164.95 69.3759 165.37 70.997 165.679C71.4123 165.745 71.8075 165.826 72.3279 165.775C72.548 165.719 72.7682 165.648 72.9733 165.583L73.5387 165.385C74.2892 165.117 75.0297 164.849 75.7602 164.585C81.584 162.444 86.7975 160.46 90.54 159.028C98.5253 155.966 103.248 154.068 105.96 152.904C108.667 151.745 109.388 151.294 109.307 151.163C109.282 151.137 109.112 151.193 108.587 151.38C108.057 151.562 107.201 151.886 105.845 152.398C103.103 153.43 98.4102 155.202 90.485 158.193C86.7175 159.605 81.454 161.589 75.5901 163.735C74.8546 163.998 74.1141 164.267 73.3636 164.535C72.9883 164.666 72.5981 164.803 72.2829 164.899C72.0077 164.975 71.6074 164.899 71.2271 164.839C69.6711 164.55 68.065 164.12 66.464 163.725C63.2518 162.92 60.0047 162.105 56.8426 161.311L56.7925 161.301H56.7375L56.8376 161.311C51.2388 159.924 45.8753 158.765 41.1671 157.773C40.6668 157.661 40.1765 157.555 39.6962 157.449C39.6812 157.449 39.6661 157.444 39.6511 157.439C39.6511 157.429 39.6712 157.424 39.6812 157.419C39.8162 157.368 39.9463 157.317 40.0764 157.272C40.3316 157.181 40.5868 157.09 40.8319 157.003C41.3323 156.831 41.8226 156.664 42.3029 156.497C44.2242 155.865 45.9353 155.298 47.4013 154.812C54.456 152.524 58.7388 151.168 61.2455 150.328C63.7522 149.492 64.4777 149.189 64.4526 149.098L64.4376 149.108Z" fill="#181818"/>
<path d="M71.4725 161.468C71.5275 161.291 71.0522 160.992 68.5005 160.137C66.0939 159.311 59.8748 157.5 57.2731 156.892C54.226 156.153 53.6106 156.168 53.5656 156.366C53.5156 156.578 54.0459 156.816 57.0329 157.651C59.5846 158.35 65.7837 160.142 68.2204 160.845C70.8321 161.584 71.4125 161.65 71.4725 161.463V161.468Z" fill="#181818"/>
<path d="M74.0642 159.175C74.1143 158.993 73.8491 158.79 72.3981 158.319C71.0272 157.879 67.4899 156.892 66.0189 156.538C64.2927 156.123 63.9325 156.158 63.8774 156.361C63.8224 156.563 64.0976 156.776 65.7837 157.302C67.2197 157.753 70.757 158.719 72.163 159.043C73.664 159.392 74.0142 159.357 74.0642 159.17V159.175Z" fill="#181818"/>
<path d="M77.6863 158.016C77.7414 157.839 77.5762 157.656 76.5806 157.307C75.64 156.973 73.1883 156.27 72.1626 156.027C70.9618 155.743 70.7017 155.809 70.6516 156.011C70.5966 156.214 70.7817 156.401 71.9375 156.791C72.9231 157.125 75.3548 157.813 76.3304 158.026C77.3711 158.259 77.6313 158.198 77.6863 158.016Z" fill="#181818"/>
<path d="M81.9192 157.272C81.9742 157.095 81.609 156.847 79.6527 156.199C77.8065 155.581 73.0383 154.22 71.047 153.734C68.7154 153.162 68.2401 153.182 68.1901 153.385C68.14 153.587 68.5303 153.82 70.8118 154.498C72.7581 155.07 77.5163 156.416 79.3925 156.917C81.4039 157.444 81.8592 157.454 81.9142 157.272H81.9192Z" fill="#181818"/>
<path d="M85.3263 156.006C85.3764 155.824 85.0762 155.601 83.4451 155.05C81.904 154.528 77.9364 153.339 76.2853 152.899C74.349 152.382 73.9438 152.403 73.8837 152.6C73.8237 152.797 74.1339 153.03 76.0301 153.653C77.6462 154.184 81.6239 155.364 83.2049 155.769C84.891 156.204 85.2813 156.184 85.3313 156.001L85.3263 156.006Z" fill="#181818"/>
<path d="M93.9523 70.3473C93.8422 70.403 93.8872 70.7168 94.3025 71.6734C94.5026 72.1593 94.8229 72.7869 95.2732 73.622C95.4933 74.0421 95.7585 74.5078 96.0737 75.019C96.3839 75.5302 96.7191 76.1122 97.1344 76.7247C97.8949 77.904 99.0056 79.4983 100.367 81.2546C101.732 83.0008 103.339 84.9089 105.04 86.7412C108.427 90.4208 112.229 93.731 114.566 95.5075C115.927 96.5704 117.083 97.3296 117.998 97.9117C118.924 98.4887 119.624 98.8885 120.15 99.1618C121.2 99.7085 121.541 99.7743 121.606 99.6528C121.676 99.5313 121.466 99.2782 120.525 98.595C120.035 98.2457 119.394 97.7902 118.544 97.1828C117.678 96.5603 116.587 95.7909 115.281 94.723C113.03 92.9363 109.297 89.6666 105.955 86.0477C104.274 84.2459 102.678 82.3833 101.312 80.6776C99.9613 78.9618 98.8255 77.4181 98.045 76.2742C96.3689 73.8397 95.4383 72.3061 94.8729 71.4152C94.3025 70.5244 94.0624 70.2916 93.9523 70.3523V70.3473Z" fill="#FFFEFF"/>
<path d="M99.4009 32.5589C99.481 32.4071 99.3759 32.154 98.6054 31.9465C98.2451 31.8503 97.5897 31.7643 96.9343 31.7845C96.2788 31.7946 95.6134 31.911 95.2381 32.0325C94.3525 32.3413 94.2725 32.6045 94.3626 32.7715C94.4626 32.9689 94.6327 32.9739 95.4132 32.812C95.7485 32.7512 96.3389 32.6601 96.9393 32.6449C97.5347 32.6196 98.1301 32.6652 98.4603 32.6905C99.1657 32.7512 99.3108 32.736 99.4009 32.5538V32.5589Z" fill="#181818"/>
<path d="M88.8742 101.45C88.9192 101.333 88.4489 101.045 86.6977 100.306C84.9465 99.5819 81.8995 98.3976 76.616 97.1676C74.1143 96.6362 70.602 95.9934 66.5293 95.8365C64.4929 95.7656 62.3265 95.8163 60.1 96.0845C58.9893 96.2313 57.8635 96.4084 56.7328 96.7222C56.1724 96.8893 55.627 97.0664 55.0817 97.2486C54.5363 97.4511 53.9859 97.6586 53.4606 97.9066C52.3999 98.3925 51.3592 98.9493 50.4036 99.6224C49.4429 100.285 48.5323 101.029 47.7468 101.89C46.1257 103.56 45.035 105.691 44.6247 107.832C44.5497 108.095 44.5397 108.369 44.5096 108.632C44.4846 108.9 44.4546 109.163 44.4296 109.426C44.4196 109.953 44.4446 110.469 44.4496 110.975C44.5046 111.466 44.5547 111.947 44.6047 112.423C44.6848 112.893 44.7498 113.354 44.8349 113.799C45.1851 115.581 45.7204 117.14 46.3158 118.39C47.7068 121.346 49.4679 123.295 50.9089 124.707C52.3749 126.114 53.5907 126.989 54.4813 127.627C56.2925 128.852 56.8779 129.049 56.9429 128.943C57.028 128.817 56.5827 128.437 54.9266 127.111C54.116 126.423 52.9803 125.527 51.6144 124.135C50.2735 122.738 48.6374 120.87 47.3365 118.097C46.7912 116.912 46.2858 115.454 45.9456 113.769C45.7755 112.929 45.6554 112.028 45.5753 111.086C45.5353 110.621 45.5553 110.155 45.5353 109.679C45.5603 109.209 45.6204 108.728 45.6804 108.242C46.0357 106.329 46.9563 104.4 48.4222 102.841C49.8582 101.257 51.7194 99.997 53.7158 99.0555C57.7434 97.1271 62.2815 96.8589 66.2441 96.9449C70.2217 97.0462 73.684 97.6333 76.1607 98.1141C81.4492 99.2226 84.5663 100.306 86.4125 100.873C88.2537 101.465 88.8291 101.566 88.8742 101.45Z" fill="#181818"/>
<path d="M224.609 109.988C224.599 110.105 225.435 110.261 228.252 110.56C229.667 110.702 231.569 110.894 234.105 111.152C235.371 111.289 236.807 111.431 238.383 111.669C238.774 111.734 239.179 111.8 239.554 111.906C239.754 111.962 239.859 112.008 240.009 112.114C240.149 112.21 240.295 112.342 240.425 112.488C240.69 112.782 240.925 113.146 241.1 113.536C241.145 113.632 241.18 113.729 241.215 113.825C241.23 113.875 241.245 113.921 241.255 113.966C241.26 113.992 241.26 113.997 241.265 114.007C241.275 114.047 241.255 114.093 241.21 114.088C240.009 114.29 238.703 114.513 237.318 114.746C228.252 116.29 212.171 119.028 195.975 121.781C191.922 122.449 187.865 123.117 183.907 123.775C181.931 124.089 179.969 124.408 178.063 124.666L177.358 124.762L176.722 124.823C176.282 124.813 175.817 124.742 175.346 124.686C174.406 124.565 173.48 124.449 172.564 124.327C165.24 123.325 158.75 122.439 153.967 121.786C142.74 120.232 136.06 119.326 132.183 118.825C131.227 118.699 130.441 118.598 129.801 118.517C129.646 118.496 129.501 118.481 129.361 118.466C129.266 118.466 129.206 118.405 129.166 118.339C129.081 118.208 129.026 117.965 128.995 117.798C128.885 117.069 128.875 116.781 128.795 116.781C128.735 116.781 128.62 117.029 128.615 117.808C128.625 118.01 128.625 118.228 128.745 118.537C128.815 118.694 128.935 118.861 129.131 118.932C129.316 118.977 129.441 118.997 129.606 119.033C130.236 119.159 131.032 119.326 131.977 119.488C135.775 120.151 142.359 121.179 153.507 122.799C158.265 123.487 164.724 124.413 172.039 125.405C172.955 125.527 173.885 125.648 174.826 125.77C175.301 125.825 175.762 125.891 176.267 125.942C176.392 125.947 176.512 125.977 176.647 125.967L177.047 125.937C177.318 125.916 177.593 125.891 177.823 125.856C179.759 125.598 181.711 125.289 183.692 124.975C187.65 124.347 191.702 123.669 195.745 122.991C211.921 120.263 227.981 117.444 237.042 115.829C238.688 115.53 240.229 115.257 241.635 115.004C241.856 114.958 242.026 114.852 242.141 114.665C242.251 114.488 242.271 114.27 242.251 114.052C242.241 113.941 242.216 113.835 242.196 113.734C242.176 113.663 242.156 113.592 242.136 113.526C242.091 113.394 242.041 113.268 241.986 113.146C241.761 112.666 241.485 112.246 241.145 111.871C240.975 111.684 240.79 111.512 240.57 111.36C240.46 111.284 240.345 111.218 240.219 111.157C240.084 111.097 239.959 111.061 239.854 111.031C239.404 110.904 238.989 110.849 238.583 110.788C236.967 110.565 235.536 110.459 234.266 110.353C231.719 110.155 229.803 110.044 228.377 109.973C225.525 109.836 224.644 109.872 224.639 109.988H224.609Z" fill="#181818"/>
<path d="M166.075 111.744C166.2 111.76 166.315 111.552 166.451 110.783C166.531 110.024 166.746 108.652 166.13 106.455C165.845 105.428 165.22 104.026 164.094 102.745C163.529 102.113 162.863 101.5 162.103 100.984C161.357 100.452 160.527 100.002 159.671 99.6275C156.234 98.1091 152.501 97.775 150.375 97.6586C147.858 97.5422 146.372 97.6637 145.512 97.7649C144.651 97.8762 144.421 98.0028 144.426 98.1394C144.426 98.2812 144.661 98.3824 145.507 98.4482C146.347 98.5241 147.803 98.5342 150.24 98.7164C152.301 98.8835 155.918 99.2479 159.131 100.645C160.737 101.323 162.183 102.305 163.213 103.418C164.239 104.537 164.829 105.757 165.14 106.668C165.795 108.642 165.74 109.973 165.825 110.722C165.86 111.486 165.95 111.729 166.075 111.739V111.744Z" fill="#181818"/>
<path d="M75.8903 80.6017C75.6752 80.6877 75.7002 81.3811 76.946 84.3522C77.5364 85.7542 78.7172 88.1938 80.0481 90.5625C81.364 92.9414 82.865 95.2494 83.8356 96.5249C84.9714 98.0281 85.7519 98.843 86.2472 99.2681C86.7426 99.6933 86.9477 99.7439 87.0478 99.6477C87.1478 99.5516 87.1128 99.3491 86.7626 98.8278C86.4173 98.3014 85.7569 97.441 84.7162 95.9428C83.8256 94.6673 82.3746 92.3998 81.0688 90.0614C79.7479 87.7281 78.5471 85.3493 77.8867 83.9979C76.4857 81.1028 76.1355 80.5055 75.8853 80.6068L75.8903 80.6017Z" fill="#FFFEFF"/>
</g>
</g>
<defs>
<clipPath id="clip0_589_45667">
<rect width="248" height="176" fill="white" transform="translate(0.5 0.5)"/>
</clipPath>
<clipPath id="clip1_589_45667">
<rect width="248" height="176" fill="white" transform="translate(0.5 0.5)"/>
</clipPath>
</defs>
</svg>
