<svg width="36" height="36" viewBox="0 0 36 36" fill="none" xmlns="http://www.w3.org/2000/svg">
<path d="M18.75 0.75H6.75C4.26472 0.75 2.25 2.76472 2.25 5.25V30.75C2.25 33.2353 4.26472 35.25 6.75 35.25H18.75C21.2353 35.25 23.25 33.2353 23.25 30.75V5.25C23.25 2.76472 21.2353 0.75 18.75 0.75Z" fill="url(#paint0_linear_498_36174)"/>
<path d="M21 5.25V30.75C21 31.3467 20.7629 31.919 20.341 32.341C19.919 32.7629 19.3467 33 18.75 33H6.75C6.15326 33 5.58097 32.7629 5.15901 32.341C4.73705 31.919 4.5 31.3467 4.5 30.75V5.25C4.5 4.65326 4.73705 4.08097 5.15901 3.65901C5.58097 3.23705 6.15326 3 6.75 3H8.25V3.75C8.25 4.14782 8.40804 4.52936 8.68934 4.81066C8.97064 5.09196 9.35218 5.25 9.75 5.25H15.75C16.1478 5.25 16.5294 5.09196 16.8107 4.81066C17.092 4.52936 17.25 4.14782 17.25 3.75V3H18.75C19.3467 3 19.919 3.23705 20.341 3.65901C20.7629 4.08097 21 4.65326 21 5.25Z" fill="#F0F7FC"/>
<path d="M27.7519 12.7452L19.5 20.9972L22.5017 23.9988L30.7536 15.7469L27.7519 12.7452Z" fill="url(#paint1_linear_498_36174)"/>
<path d="M29.2538 11.2488L27.7529 12.7497L30.7546 15.7513L32.2554 14.2505L29.2538 11.2488Z" fill="#EB7F58"/>
<path d="M33.1275 13.3725L32.25 14.25L29.25 11.25C30.06 10.44 30.555 9.75 31.6275 9.75C32.047 9.75033 32.4571 9.87499 32.8058 10.1082C33.1546 10.3415 33.4264 10.6728 33.5869 11.0605C33.7474 11.4481 33.7894 11.8746 33.7076 12.2861C33.6259 12.6976 33.424 13.0757 33.1275 13.3725Z" fill="#E0633D"/>
<path d="M22.5 24L18 25.5L19.5 21L22.5 24Z" fill="#EB7F58"/>
<path d="M19.6875 24.9375L18 25.5L18.5625 23.8125L19.6875 24.9375Z" fill="#E0633D"/>
<path d="M15 3.75C15.4142 3.75 15.75 3.41421 15.75 3C15.75 2.58579 15.4142 2.25 15 2.25C14.5858 2.25 14.25 2.58579 14.25 3C14.25 3.41421 14.5858 3.75 15 3.75Z" fill="#F0F7FC"/>
<path d="M10.5 3.75H12C12.1989 3.75 12.3897 3.67098 12.5303 3.53033C12.671 3.38968 12.75 3.19891 12.75 3C12.75 2.80109 12.671 2.61032 12.5303 2.46967C12.3897 2.32902 12.1989 2.25 12 2.25H10.5C10.3011 2.25 10.1103 2.32902 9.96967 2.46967C9.82902 2.61032 9.75 2.80109 9.75 3C9.75 3.19891 9.82902 3.38968 9.96967 3.53033C10.1103 3.67098 10.3011 3.75 10.5 3.75Z" fill="#F0F7FC"/>
<path d="M18 30.75H7.5C7.30109 30.75 7.11032 30.671 6.96967 30.5303C6.82902 30.3897 6.75 30.1989 6.75 30C6.75 29.8011 6.82902 29.6103 6.96967 29.4697C7.11032 29.329 7.30109 29.25 7.5 29.25H18C18.1989 29.25 18.3897 29.329 18.5303 29.4697C18.671 29.6103 18.75 29.8011 18.75 30C18.75 30.1989 18.671 30.3897 18.5303 30.5303C18.3897 30.671 18.1989 30.75 18 30.75Z" fill="#B4CDE1"/>
<path d="M15.75 25.5H9.75C8.95435 25.5 8.19129 25.1839 7.62868 24.6213C7.06607 24.0587 6.75 23.2956 6.75 22.5C6.75 21.7044 7.06607 20.9413 7.62868 20.3787C8.19129 19.8161 8.95435 19.5 9.75 19.5H13.5C13.8978 19.5 14.2794 19.342 14.5607 19.0607C14.842 18.7794 15 18.3978 15 18C15 17.6022 14.842 17.2206 14.5607 16.9393C14.2794 16.658 13.8978 16.5 13.5 16.5H9.75C9.55109 16.5 9.36032 16.421 9.21967 16.2803C9.07902 16.1397 9 15.9489 9 15.75C9 15.5511 9.07902 15.3603 9.21967 15.2197C9.36032 15.079 9.55109 15 9.75 15H13.5C14.2956 15 15.0587 15.3161 15.6213 15.8787C16.1839 16.4413 16.5 17.2044 16.5 18C16.5 18.7956 16.1839 19.5587 15.6213 20.1213C15.0587 20.6839 14.2956 21 13.5 21H9.75C9.35218 21 8.97064 21.158 8.68934 21.4393C8.40804 21.7206 8.25 22.1022 8.25 22.5C8.25 22.8978 8.40804 23.2794 8.68934 23.5607C8.97064 23.842 9.35218 24 9.75 24H15.75C15.9489 24 16.1397 24.079 16.2803 24.2197C16.421 24.3603 16.5 24.5511 16.5 24.75C16.5 24.9489 16.421 25.1397 16.2803 25.2803C16.1397 25.421 15.9489 25.5 15.75 25.5Z" fill="#B4CDE1"/>
<path d="M18 7.5H7.5C7.08579 7.5 6.75 7.83579 6.75 8.25V9.75C6.75 10.1642 7.08579 10.5 7.5 10.5H18C18.4142 10.5 18.75 10.1642 18.75 9.75V8.25C18.75 7.83579 18.4142 7.5 18 7.5Z" fill="url(#paint2_linear_498_36174)"/>
<defs>
<linearGradient id="paint0_linear_498_36174" x1="12.75" y1="35.25" x2="12.75" y2="0.75" gradientUnits="userSpaceOnUse">
<stop stop-color="#54A5FF"/>
<stop offset="1" stop-color="#8AD3FE"/>
</linearGradient>
<linearGradient id="paint1_linear_498_36174" x1="21.0051" y1="22.4961" x2="29.2551" y2="14.2461" gradientUnits="userSpaceOnUse">
<stop stop-color="#FE9661"/>
<stop offset="1" stop-color="#FFB369"/>
</linearGradient>
<linearGradient id="paint2_linear_498_36174" x1="6.75" y1="9" x2="18.75" y2="9" gradientUnits="userSpaceOnUse">
<stop stop-color="#FE9661"/>
<stop offset="1" stop-color="#FFB369"/>
</linearGradient>
</defs>
</svg>
