<svg width="40" height="40" viewBox="0 0 40 40" fill="none" xmlns="http://www.w3.org/2000/svg">
<path d="M30.8334 30.8333H9.16671C8.70647 30.8333 8.33337 31.2064 8.33337 31.6667V38.3333C8.33337 38.7936 8.70647 39.1667 9.16671 39.1667H30.8334C31.2936 39.1667 31.6667 38.7936 31.6667 38.3333V31.6667C31.6667 31.2064 31.2936 30.8333 30.8334 30.8333Z" fill="url(#paint0_linear_675_72077)"/>
<path d="M27.5 34.1667H12.5C12.2789 34.1667 12.067 34.0789 11.9107 33.9226C11.7544 33.7663 11.6666 33.5543 11.6666 33.3333C11.6666 33.1123 11.7544 32.9004 11.9107 32.7441C12.067 32.5878 12.2789 32.5 12.5 32.5H27.5C27.721 32.5 27.9329 32.5878 28.0892 32.7441C28.2455 32.9004 28.3333 33.1123 28.3333 33.3333C28.3333 33.5543 28.2455 33.7663 28.0892 33.9226C27.9329 34.0789 27.721 34.1667 27.5 34.1667Z" fill="#F0F7FC"/>
<path d="M24.1667 37.5H15.8333C15.6123 37.5 15.4004 37.4122 15.2441 37.2559C15.0878 37.0996 15 36.8877 15 36.6667C15 36.4456 15.0878 36.2337 15.2441 36.0774C15.4004 35.9211 15.6123 35.8333 15.8333 35.8333H24.1667C24.3877 35.8333 24.5996 35.9211 24.7559 36.0774C24.9122 36.2337 25 36.4456 25 36.6667C25 36.8877 24.9122 37.0996 24.7559 37.2559C24.5996 37.4122 24.3877 37.5 24.1667 37.5Z" fill="#F0F7FC"/>
<path d="M31.6666 8.33332V26.6667C31.6665 26.9163 31.6102 27.1628 31.5021 27.3878C31.3939 27.6128 31.2365 27.8106 31.0416 27.9667L27.5 30.8333H12.5L8.95832 28C8.75897 27.8405 8.59894 27.6373 8.49058 27.4061C8.38221 27.1749 8.32841 26.9219 8.33332 26.6667V8.33332C8.33332 7.8913 8.50891 7.46737 8.82147 7.15481C9.13403 6.84225 9.55796 6.66666 9.99998 6.66666H30C30.442 6.66666 30.8659 6.84225 31.1785 7.15481C31.4911 7.46737 31.6666 7.8913 31.6666 8.33332Z" fill="url(#paint1_linear_675_72077)"/>
<path d="M27.5 13.3333H12.5C12.0397 13.3333 11.6666 13.7064 11.6666 14.1667V15.8333C11.6666 16.2936 12.0397 16.6667 12.5 16.6667H27.5C27.9602 16.6667 28.3333 16.2936 28.3333 15.8333V14.1667C28.3333 13.7064 27.9602 13.3333 27.5 13.3333Z" fill="#B4CDE1"/>
<path d="M27.5 19.1667H12.5C12.0397 19.1667 11.6666 19.5398 11.6666 20V21.6667C11.6666 22.1269 12.0397 22.5 12.5 22.5H27.5C27.9602 22.5 28.3333 22.1269 28.3333 21.6667V20C28.3333 19.5398 27.9602 19.1667 27.5 19.1667Z" fill="#B4CDE1"/>
<path d="M25 26.6667H15C14.7789 26.6667 14.567 26.5789 14.4107 26.4226C14.2544 26.2663 14.1666 26.0543 14.1666 25.8333C14.1666 25.6123 14.2544 25.4004 14.4107 25.2441C14.567 25.0878 14.7789 25 15 25H25C25.221 25 25.4329 25.0878 25.5892 25.2441C25.7455 25.4004 25.8333 25.6123 25.8333 25.8333C25.8333 26.0543 25.7455 26.2663 25.5892 26.4226C25.4329 26.5789 25.221 26.6667 25 26.6667Z" fill="#B4CDE1"/>
<path d="M21.5416 4.85L19.3999 6.93333L19.9083 9.89166C19.9179 9.94989 19.9148 10.0095 19.8992 10.0664C19.8836 10.1234 19.8558 10.1762 19.8178 10.2214C19.7797 10.2665 19.7324 10.3029 19.6789 10.328C19.6255 10.353 19.5673 10.3662 19.5083 10.3667C19.3749 10.3667 19.5666 10.45 16.6666 8.925L14.0083 10.3167C13.9418 10.3525 13.8666 10.3689 13.7913 10.3638C13.716 10.3587 13.6437 10.3324 13.5827 10.288C13.5217 10.2435 13.4745 10.1827 13.4466 10.1126C13.4186 10.0425 13.4112 9.96588 13.4249 9.89166L13.9333 6.93333L11.7916 4.85C11.7379 4.79827 11.6998 4.73258 11.6815 4.66033C11.6631 4.58808 11.6654 4.51215 11.6879 4.4411C11.7104 4.37005 11.7524 4.3067 11.809 4.25821C11.8656 4.20972 11.9346 4.17801 12.0083 4.16666L14.9999 3.72499L16.3249 1.04166C16.3624 0.977704 16.416 0.924663 16.4803 0.887806C16.5446 0.850949 16.6175 0.831558 16.6916 0.831558C16.7657 0.831558 16.8386 0.850949 16.9029 0.887806C16.9672 0.924663 17.0208 0.977704 17.0583 1.04166L18.3333 3.72499L21.3249 4.16666C21.3986 4.17801 21.4676 4.20972 21.5242 4.25821C21.5808 4.3067 21.6228 4.37005 21.6453 4.4411C21.6678 4.51215 21.6701 4.58808 21.6517 4.66033C21.6334 4.73258 21.5953 4.79827 21.5416 4.85Z" fill="url(#paint2_linear_675_72077)"/>
<defs>
<linearGradient id="paint0_linear_675_72077" x1="20" y1="39.1667" x2="20" y2="30.8333" gradientUnits="userSpaceOnUse">
<stop stop-color="#54A5FF"/>
<stop offset="1" stop-color="#8AD3FE"/>
</linearGradient>
<linearGradient id="paint1_linear_675_72077" x1="20" y1="30.8333" x2="20" y2="6.66666" gradientUnits="userSpaceOnUse">
<stop stop-color="#D3E6F5"/>
<stop offset="1" stop-color="#F0F7FC"/>
</linearGradient>
<linearGradient id="paint2_linear_675_72077" x1="11.6666" y1="5.6" x2="21.6666" y2="5.6" gradientUnits="userSpaceOnUse">
<stop stop-color="#FE9661"/>
<stop offset="1" stop-color="#FFB369"/>
</linearGradient>
</defs>
</svg>
