<svg width="152" height="29" viewBox="0 0 152 29" fill="none" xmlns="http://www.w3.org/2000/svg">
<g clip-path="url(#clip0_430_21959)">
<path d="M20.2 14.83L22.24 20.44L22.11 20.5C21.38 20.84 20.69 21.23 20.04 21.69L19.92 21.77L15.39 16.37L7.51 6.98L7.64 6.88C10.04 5 12.68 3.47 15.48 2.34L15.63 2.28L20.2 14.83ZM35.19 8.98L37.87 1.63L37.72 1.58C34.83 0.64 31.83 0.11 28.78 0H28.62V0.16V19.31H28.76C29.54 19.39 30.33 19.53 31.11 19.75L31.25 19.79L35.18 8.98H35.19ZM17.6 1.57L17.45 1.62L21.98 14.06L24.06 19.78L24.2 19.74C24.97 19.53 25.77 19.38 26.55 19.32H26.69V0H26.53C23.49 0.11 20.48 0.64 17.6 1.57ZM13.23 16.81L6.03 8.23L5.91 8.34C3.65 10.37 1.69 12.7 0.09 15.28L0 15.42L0.23 15.55L16.73 25.07L16.81 24.95C17.27 24.29 17.78 23.67 18.34 23.12L18.44 23.02L13.23 16.81ZM47.8 6.98L47.67 6.88C45.27 5 42.63 3.47 39.83 2.34L39.68 2.28L37.3 8.81L33.07 20.44L33.2 20.5C33.93 20.83 34.63 21.23 35.27 21.69L35.39 21.77L45.25 10.03L47.81 6.98H47.8ZM49.4 8.33L49.28 8.22L47.21 10.68L36.86 23.01L36.96 23.11C37.52 23.67 38.04 24.28 38.49 24.94L38.57 25.06L55.3 15.4L55.14 15.15C53.54 12.61 51.6 10.32 49.39 8.32L49.4 8.33ZM69.63 11.44H65.39V7.57H68.25C68.77 7.59 69.53 7.71 69.96 8.66H70.73V6.59H61.73V7.26C61.73 7.26 62.89 8.04 62.89 8.68V17.61H65.39V12.52H69.63V11.44ZM72.69 16.29C71.7 15.26 71.2 13.85 71.2 12.09C71.2 10.33 71.7 8.91 72.69 7.89C73.68 6.86 75.05 6.35 76.77 6.35C78.49 6.35 79.85 6.87 80.84 7.89C81.83 8.91 82.33 10.33 82.33 12.09C82.33 13.85 81.83 15.27 80.84 16.29C79.85 17.31 78.48 17.84 76.77 17.84C75.06 17.84 73.68 17.32 72.69 16.29ZM73.82 12.06C73.82 13.67 74.07 14.89 74.57 15.69C75.06 16.48 75.78 16.86 76.76 16.86C77.74 16.86 78.47 16.48 78.96 15.69C79.46 14.89 79.71 13.67 79.71 12.06C79.71 10.45 79.46 9.26 78.96 8.47C78.47 7.69 77.75 7.31 76.76 7.31C75.77 7.31 75.06 7.69 74.57 8.47C74.07 9.26 73.82 10.46 73.82 12.06ZM89.14 17.83C87.43 17.83 86.05 17.31 85.06 16.28C84.07 15.25 83.57 13.84 83.57 12.08C83.57 10.32 84.07 8.9 85.06 7.88C86.05 6.85 87.42 6.34 89.14 6.34C90.86 6.34 92.22 6.86 93.21 7.88C94.2 8.9 94.7 10.32 94.7 12.08C94.7 13.84 94.2 15.26 93.21 16.28C92.22 17.3 90.85 17.83 89.14 17.83ZM89.14 16.86C90.13 16.86 90.85 16.48 91.34 15.69C91.83 14.89 92.09 13.67 92.09 12.06C92.09 10.45 91.84 9.26 91.35 8.47C90.86 7.69 90.14 7.31 89.15 7.31C88.16 7.31 87.45 7.69 86.96 8.47C86.46 9.26 86.21 10.46 86.21 12.06C86.21 13.66 86.46 14.89 86.96 15.69C87.45 16.48 88.17 16.86 89.15 16.86H89.14ZM119.34 16.29C118.35 15.26 117.85 13.85 117.85 12.09C117.85 10.33 118.35 8.91 119.34 7.89C120.33 6.86 121.7 6.35 123.42 6.35C125.14 6.35 126.5 6.87 127.49 7.89C128.48 8.91 128.98 10.33 128.98 12.09C128.98 13.85 128.48 15.27 127.49 16.29C126.5 17.31 125.13 17.84 123.42 17.84C121.71 17.84 120.33 17.32 119.34 16.29ZM120.47 12.06C120.47 13.67 120.72 14.89 121.22 15.69C121.71 16.48 122.43 16.86 123.41 16.86C124.39 16.86 125.12 16.48 125.61 15.69C126.11 14.89 126.36 13.67 126.36 12.06C126.36 10.45 126.11 9.26 125.61 8.47C125.12 7.69 124.4 7.31 123.41 7.31C122.42 7.31 121.71 7.69 121.22 8.47C120.72 9.26 120.47 10.47 120.47 12.06ZM130.96 8.68V17.57H138.33V16.52H133.46V8.81L133.48 6.6H133.35H131.09H129.8V7.27C129.8 7.27 130.96 8.05 130.96 8.69V8.68ZM139.51 8.68V17.54H142.01V6.6H138.35V7.27C138.35 7.27 139.51 8.05 139.51 8.69V8.68ZM95.4 7.26V6.59H101.13C102.83 6.59 104.16 7.05 105.08 7.96C106 8.87 106.46 10.19 106.46 11.87C106.46 13.55 105.99 14.99 105.06 16.02C104.13 17.05 102.86 17.58 101.3 17.58H96.57V8.68C96.57 8.04 95.41 7.26 95.41 7.26H95.4ZM99.06 16.55H100.49C101.6 16.55 102.44 16.16 102.99 15.4C103.55 14.62 103.83 13.43 103.83 11.86C103.83 10.29 103.52 9.18 102.9 8.54C102.29 7.9 101.22 7.57 99.73 7.57H99.05V16.55H99.06ZM150.77 12.66C150.35 12.17 149.6 11.63 148.47 11.01L147.71 10.59C147.11 10.26 146.7 9.97 146.5 9.73C146.3 9.5 146.2 9.22 146.2 8.88C146.2 8.43 146.35 8.06 146.66 7.75C146.97 7.44 147.34 7.29 147.78 7.29C148.18 7.29 149.07 7.55 149.7 8.09L149.81 8.18L150.86 6.84L150.68 6.78C149.54 6.47 148.51 6.31 147.62 6.31C146.47 6.31 145.53 6.6 144.83 7.17C144.12 7.75 143.76 8.52 143.76 9.46C143.76 10.67 144.72 11.79 146.63 12.79L147.38 13.18C147.98 13.5 148.39 13.79 148.59 14.04C148.79 14.29 148.89 14.63 148.89 15.05C148.89 15.58 148.72 16.01 148.37 16.34C148.02 16.67 147.58 16.83 147.01 16.83C146.44 16.83 145.32 16.37 144.86 16.01L144.75 15.93L143.61 17.37L143.81 17.41C145.01 17.67 146.08 17.8 147.01 17.8C148.33 17.8 149.4 17.5 150.2 16.9C151 16.29 151.4 15.47 151.4 14.46C151.4 13.75 151.19 13.14 150.77 12.64V12.66ZM116.84 10.56C116.72 11.46 116.34 12.17 115.71 12.67C114.94 13.28 113.77 13.59 112.25 13.59H110.83V17.58H108.44V8.67C108.44 8.03 107.28 7.25 107.28 7.25V6.58H112.26C113.79 6.58 114.95 6.89 115.72 7.5C116.36 8 116.73 8.71 116.85 9.61C116.85 9.61 116.93 9.95 116.85 10.56H116.84ZM114.34 10.09C114.34 9.24 114.14 8.6 113.76 8.18C113.38 7.77 112.79 7.55 112.01 7.55H110.83V12.61H112.01C112.79 12.61 113.38 12.4 113.76 11.98C114.14 11.56 114.34 10.92 114.34 10.07V10.09ZM72.01 27C71.75 27.03 71.48 27.06 71.21 27.08C70.93 27.1 70.66 27.11 70.39 27.12C70.12 27.12 69.87 27.12 69.63 27.12C69.39 27.12 69.17 27.1 68.98 27.08C68.86 27.07 68.79 26.99 68.79 26.87V26.02C68.79 25.9 68.73 25.84 68.62 25.84H68.03C67.91 25.84 67.86 25.9 67.86 26.02V27C67.86 27.14 67.87 27.26 67.9 27.36C67.93 27.46 67.98 27.54 68.04 27.6C68.11 27.66 68.19 27.71 68.29 27.74C68.39 27.77 68.51 27.8 68.65 27.81C68.89 27.83 69.18 27.85 69.5 27.85C69.82 27.85 70.14 27.85 70.46 27.83C70.78 27.81 71.09 27.79 71.38 27.76C71.67 27.73 71.91 27.69 72.11 27.64C72.21 27.62 72.28 27.57 72.32 27.5C72.36 27.43 72.38 27.35 72.36 27.28C72.35 27.2 72.31 27.14 72.25 27.08C72.19 27.02 72.11 27 72.01 27.01V27ZM72.84 23.39H72.14V21.71C72.14 21.59 72.08 21.53 71.97 21.53H71.39C71.28 21.53 71.22 21.59 71.22 21.71V26.09C71.22 26.21 71.28 26.27 71.39 26.27H71.67C71.82 26.27 71.94 26.2 72.02 26.06C72.1 25.92 72.14 25.68 72.14 25.34V24.12H72.84C72.95 24.12 73.01 24.06 73.01 23.94V23.57C73.01 23.45 72.95 23.39 72.84 23.39ZM67.85 21.42C67.73 21.42 67.67 21.48 67.67 21.59V21.71C67.67 21.85 67.73 21.95 67.86 22.03C67.99 22.1 68.2 22.14 68.48 22.14H69.97C70.08 22.14 70.14 22.08 70.14 21.96V21.6C70.14 21.48 70.08 21.42 69.97 21.42H67.85ZM68.25 25.38C68.05 25.31 67.87 25.21 67.73 25.08C67.59 24.95 67.48 24.8 67.4 24.62C67.32 24.44 67.29 24.24 67.29 24.03C67.29 23.74 67.38 23.48 67.57 23.27H67.52C67.26 23.27 67.08 23.22 66.96 23.15C66.85 23.08 66.79 22.98 66.79 22.85V22.74C66.79 22.63 66.85 22.57 66.97 22.57H70.77C70.88 22.57 70.94 22.63 70.94 22.75V23.09C70.94 23.21 70.88 23.27 70.77 23.27H70.31C70.41 23.38 70.48 23.49 70.52 23.62C70.57 23.75 70.59 23.88 70.59 24.03C70.59 24.25 70.55 24.44 70.48 24.62C70.4 24.8 70.29 24.95 70.15 25.08C70.01 25.21 69.83 25.31 69.63 25.38C69.43 25.45 69.2 25.49 68.94 25.49C68.68 25.49 68.46 25.45 68.25 25.38ZM68.21 24.02C68.21 24.25 68.27 24.43 68.4 24.57C68.53 24.71 68.71 24.78 68.93 24.78C69.15 24.78 69.33 24.71 69.46 24.57C69.59 24.43 69.65 24.25 69.65 24.02C69.65 23.8 69.59 23.62 69.46 23.48C69.34 23.34 69.16 23.26 68.92 23.26C68.68 23.26 68.51 23.33 68.38 23.48C68.26 23.62 68.19 23.81 68.19 24.02H68.21ZM79.1 23.83H78.35C78.4 23.66 78.44 23.47 78.46 23.27C78.49 23.07 78.5 22.88 78.5 22.69V21.81C78.5 21.69 78.44 21.63 78.33 21.63H74.15C74.03 21.63 73.97 21.69 73.97 21.8V21.9C73.97 22.04 74.03 22.14 74.16 22.22C74.29 22.29 74.5 22.33 74.78 22.33H77.57V22.89C77.57 23.03 77.57 23.18 77.55 23.35C77.53 23.52 77.51 23.68 77.49 23.83H73.41C73.29 23.83 73.23 23.89 73.23 24V24.1C73.23 24.24 73.29 24.34 73.42 24.42C73.55 24.49 73.76 24.53 74.04 24.53H75.74V25.41H74.06C73.94 25.41 73.88 25.47 73.88 25.58V25.7C73.88 25.84 73.94 25.94 74.07 26.01C74.2 26.08 74.41 26.11 74.69 26.11H77.59V27.68C77.59 27.8 77.65 27.86 77.76 27.86H78.04C78.19 27.86 78.31 27.79 78.39 27.65C78.47 27.51 78.51 27.27 78.51 26.93V25.58C78.51 25.46 78.45 25.4 78.34 25.4H76.66V24.52H79.07C79.18 24.52 79.24 24.46 79.24 24.34V24C79.24 23.88 79.18 23.82 79.07 23.82L79.1 23.83ZM84.9 25.41H80.85C80.73 25.41 80.67 25.47 80.67 25.58V25.71C80.67 25.85 80.73 25.95 80.86 26.03C80.99 26.1 81.2 26.14 81.48 26.14H84.14V27.69C84.14 27.81 84.2 27.87 84.31 27.87H84.59C84.74 27.87 84.86 27.8 84.94 27.66C85.02 27.52 85.06 27.28 85.06 26.94V25.58C85.06 25.46 85 25.4 84.89 25.4L84.9 25.41ZM81.71 23.69C81.9 23.95 82.11 24.18 82.34 24.38C82.57 24.58 82.82 24.74 83.06 24.85C83.16 24.9 83.25 24.91 83.34 24.9C83.43 24.89 83.5 24.85 83.56 24.8C83.62 24.75 83.66 24.69 83.69 24.61C83.72 24.53 83.73 24.46 83.72 24.38C83.72 24.3 83.68 24.23 83.63 24.16C83.58 24.09 83.5 24.04 83.39 24C83.13 23.91 82.88 23.8 82.64 23.65C82.4 23.5 82.19 23.32 82.01 23.09C82.1 22.85 82.14 22.58 82.14 22.3V21.78C82.14 21.66 82.08 21.6 81.97 21.6H81.38C81.26 21.6 81.21 21.66 81.21 21.78V22.3C81.21 23.13 80.72 23.83 79.75 24.38C79.66 24.43 79.61 24.49 79.59 24.57C79.57 24.64 79.57 24.71 79.6 24.78C79.63 24.84 79.68 24.89 79.75 24.92C79.82 24.95 79.9 24.95 79.99 24.92C80.77 24.63 81.34 24.22 81.71 23.69ZM84.9 21.53H84.32C84.2 21.53 84.15 21.59 84.15 21.71V24.86C84.15 24.98 84.21 25.04 84.32 25.04H84.6C84.75 25.04 84.87 24.97 84.95 24.83C85.03 24.69 85.07 24.45 85.07 24.11V21.71C85.07 21.59 85.01 21.53 84.9 21.53ZM90.33 22.87C90.33 23.09 90.27 23.25 90.16 23.35H90.99C91.1 23.35 91.16 23.41 91.16 23.52V23.86C91.16 23.92 91.15 23.96 91.12 24C91.09 24.04 91.05 24.06 90.99 24.06H86.77C86.48 24.06 86.28 24.03 86.15 23.96C86.02 23.89 85.96 23.79 85.96 23.65V23.53C85.96 23.42 86.02 23.36 86.14 23.36H86.92C86.92 23.36 86.84 23.29 86.82 23.23C86.8 23.17 86.79 23.12 86.79 23.07V22.66C86.79 22.6 86.8 22.53 86.83 22.47C86.86 22.41 86.9 22.37 86.97 22.35H86.71C86.42 22.35 86.22 22.31 86.1 22.24C85.98 22.17 85.92 22.06 85.92 21.92V21.82C85.92 21.71 85.98 21.65 86.1 21.65H91.02C91.13 21.65 91.19 21.71 91.19 21.83V22.17C91.19 22.29 91.13 22.35 91.02 22.35H90.32V22.88L90.33 22.87ZM89.41 22.34H87.93C87.86 22.34 87.8 22.36 87.77 22.41C87.74 22.45 87.73 22.5 87.73 22.56V23.16C87.73 23.26 87.76 23.33 87.83 23.35H89.19C89.26 23.34 89.31 23.3 89.35 23.25C89.39 23.19 89.41 23.13 89.41 23.06V22.35V22.34ZM91.58 24.58V24.92C91.58 25.04 91.52 25.1 91.41 25.1H89.03V25.66H90.68C90.79 25.66 90.85 25.72 90.85 25.84V26.92C90.85 27.26 90.81 27.5 90.73 27.64C90.65 27.78 90.53 27.85 90.38 27.85H90.1C89.98 27.85 89.93 27.79 89.93 27.67V27.65C89.76 27.68 89.56 27.71 89.32 27.74C89.08 27.77 88.83 27.79 88.56 27.81C88.29 27.83 88.04 27.84 87.78 27.85C87.52 27.85 87.29 27.86 87.08 27.85C86.8 27.85 86.6 27.78 86.48 27.65C86.35 27.52 86.29 27.32 86.29 27.03V25.84C86.29 25.72 86.35 25.66 86.46 25.66H88.11V25.1H86.37C86.08 25.1 85.88 25.07 85.75 25C85.62 24.93 85.56 24.83 85.56 24.69V24.57C85.56 24.46 85.62 24.4 85.74 24.4H91.42C91.53 24.4 91.59 24.46 91.59 24.58H91.58ZM87.21 26.37V26.95C87.21 27.07 87.27 27.14 87.4 27.14C87.57 27.14 87.76 27.15 87.98 27.15C88.2 27.15 88.42 27.15 88.64 27.13C88.86 27.13 89.07 27.11 89.26 27.1C89.46 27.09 89.61 27.07 89.73 27.05C89.87 27.03 89.94 26.94 89.94 26.78V26.37H87.22H87.21ZM93.94 23.9C94.11 24.16 94.32 24.4 94.54 24.6C94.77 24.81 95 24.97 95.24 25.09C95.34 25.14 95.43 25.16 95.51 25.15C95.6 25.15 95.67 25.11 95.73 25.06C95.79 25.01 95.84 24.95 95.87 24.88C95.9 24.81 95.92 24.73 95.91 24.65C95.91 24.57 95.88 24.5 95.83 24.43C95.78 24.36 95.7 24.3 95.6 24.27C95.34 24.17 95.09 24.04 94.85 23.88C94.61 23.71 94.41 23.51 94.23 23.27C94.31 23.02 94.35 22.74 94.35 22.45V21.8C94.35 21.68 94.29 21.62 94.18 21.62H93.59C93.47 21.62 93.42 21.68 93.42 21.8V22.45C93.42 22.91 93.3 23.33 93.05 23.69C92.8 24.05 92.45 24.37 91.99 24.65C91.9 24.71 91.85 24.77 91.83 24.85C91.81 24.93 91.82 24.99 91.85 25.06C91.88 25.12 91.93 25.17 92 25.2C92.07 25.23 92.15 25.23 92.24 25.2C93.01 24.88 93.57 24.45 93.92 23.92L93.94 23.9ZM97.85 22.93H97.15V21.72C97.15 21.6 97.09 21.54 96.98 21.54H96.4C96.28 21.54 96.23 21.6 96.23 21.72V25.87C96.23 25.99 96.29 26.05 96.4 26.05H96.68C96.83 26.05 96.95 25.98 97.03 25.84C97.11 25.7 97.15 25.46 97.15 25.12V23.66H97.85C97.96 23.66 98.02 23.6 98.02 23.48V23.11C98.02 22.99 97.96 22.93 97.85 22.93ZM97.02 26.99C96.76 27.02 96.49 27.05 96.22 27.07C95.94 27.09 95.67 27.1 95.4 27.11C95.13 27.11 94.88 27.11 94.64 27.11C94.4 27.11 94.18 27.09 93.99 27.07C93.87 27.06 93.8 26.98 93.8 26.86V25.79C93.8 25.67 93.74 25.61 93.63 25.61H93.04C92.93 25.61 92.87 25.67 92.87 25.79V26.99C92.87 27.13 92.88 27.25 92.91 27.35C92.94 27.45 92.99 27.53 93.05 27.59C93.12 27.65 93.2 27.7 93.3 27.73C93.4 27.76 93.52 27.79 93.66 27.8C93.9 27.82 94.19 27.84 94.51 27.84C94.83 27.84 95.15 27.84 95.47 27.82C95.79 27.8 96.1 27.78 96.39 27.75C96.68 27.72 96.92 27.68 97.12 27.63C97.22 27.61 97.29 27.56 97.33 27.49C97.37 27.42 97.39 27.34 97.37 27.27C97.36 27.19 97.32 27.13 97.26 27.07C97.2 27.01 97.12 26.99 97.02 27V26.99ZM103.69 21.71V23.88C103.69 24.22 103.65 24.46 103.57 24.6C103.49 24.74 103.37 24.81 103.22 24.81H102.94C102.83 24.81 102.77 24.75 102.77 24.63V23.45H101.89C101.83 23.84 101.65 24.15 101.35 24.38C101.05 24.61 100.65 24.72 100.15 24.72C99.87 24.72 99.62 24.68 99.4 24.61C99.18 24.53 99 24.43 98.84 24.29C98.69 24.15 98.57 23.98 98.49 23.78C98.41 23.58 98.37 23.36 98.37 23.11C98.37 22.86 98.41 22.64 98.49 22.44C98.57 22.24 98.69 22.07 98.84 21.93C98.99 21.79 99.18 21.68 99.4 21.61C99.62 21.53 99.87 21.5 100.15 21.5C100.63 21.5 101.02 21.61 101.32 21.83C101.62 22.05 101.8 22.35 101.88 22.72H102.77V21.71C102.77 21.59 102.83 21.53 102.94 21.53H103.52C103.63 21.53 103.69 21.59 103.69 21.71ZM100.99 23.11C100.99 22.83 100.91 22.61 100.76 22.46C100.61 22.31 100.4 22.23 100.14 22.23C99.88 22.23 99.67 22.31 99.52 22.46C99.37 22.61 99.29 22.83 99.29 23.11C99.29 23.39 99.37 23.61 99.52 23.76C99.67 23.91 99.88 23.99 100.14 23.99C100.4 23.99 100.61 23.91 100.76 23.76C100.91 23.61 100.99 23.39 100.99 23.11ZM103.52 25.15H102.94C102.83 25.15 102.77 25.21 102.77 25.33V25.76H100.67C100.55 25.76 100.49 25.82 100.49 25.93V26.05C100.49 26.19 100.55 26.29 100.68 26.36C100.81 26.43 101.02 26.46 101.3 26.46H102.77V26.75C102.77 26.9 102.7 26.99 102.56 27.02C102.47 27.04 102.34 27.06 102.17 27.07C102 27.09 101.83 27.1 101.63 27.11C101.44 27.11 101.24 27.13 101.04 27.13C100.84 27.13 100.66 27.13 100.49 27.13C100.37 27.13 100.3 27.06 100.3 26.94V25.34C100.3 25.22 100.24 25.16 100.13 25.16H99.55C99.44 25.16 99.38 25.22 99.38 25.34V27.04C99.38 27.33 99.44 27.53 99.57 27.66C99.7 27.79 99.9 27.85 100.17 27.86C100.36 27.86 100.57 27.86 100.8 27.86C101.03 27.86 101.27 27.84 101.5 27.82C101.74 27.8 101.96 27.78 102.18 27.75C102.4 27.72 102.59 27.69 102.75 27.66V27.69C102.75 27.81 102.81 27.87 102.92 27.87H103.2C103.35 27.87 103.47 27.8 103.55 27.66C103.63 27.52 103.67 27.28 103.67 26.94V25.35C103.67 25.23 103.61 25.17 103.5 25.17L103.52 25.15ZM109.27 27.1C109.01 27.13 108.74 27.16 108.44 27.18C108.14 27.2 107.84 27.21 107.55 27.22C107.26 27.22 106.98 27.22 106.72 27.22C106.46 27.22 106.23 27.2 106.04 27.18C105.92 27.17 105.85 27.09 105.85 26.97V26.78H109.27C109.38 26.78 109.44 26.72 109.44 26.6V25.28C109.44 25.22 109.43 25.19 109.4 25.17C109.37 25.15 109.33 25.14 109.27 25.14H105.1C105.04 25.14 105 25.14 104.97 25.16C104.94 25.18 104.93 25.21 104.93 25.27V25.39C104.93 25.53 104.99 25.63 105.12 25.69C105.25 25.75 105.46 25.78 105.74 25.78H108.53V26.15H105.1C104.99 26.15 104.93 26.21 104.93 26.33V27.05C104.93 27.19 104.94 27.31 104.97 27.41C105 27.51 105.05 27.59 105.11 27.65C105.18 27.71 105.26 27.76 105.36 27.79C105.46 27.82 105.58 27.85 105.72 27.86C105.88 27.88 106.07 27.89 106.28 27.89C106.49 27.89 106.71 27.89 106.94 27.89C107.17 27.89 107.4 27.89 107.64 27.87C107.88 27.87 108.1 27.85 108.32 27.83C108.54 27.81 108.74 27.79 108.92 27.76C109.1 27.73 109.26 27.71 109.39 27.67C109.49 27.65 109.56 27.6 109.6 27.54C109.64 27.47 109.66 27.41 109.64 27.34C109.63 27.27 109.59 27.21 109.53 27.16C109.47 27.11 109.39 27.09 109.29 27.1H109.27ZM110.02 23.93H109.28C109.33 23.75 109.37 23.56 109.4 23.36C109.43 23.16 109.44 22.96 109.44 22.77V21.79C109.44 21.67 109.38 21.61 109.27 21.61H105.09C104.97 21.61 104.91 21.67 104.91 21.78V21.86C104.91 22 104.97 22.1 105.1 22.18C105.23 22.25 105.44 22.29 105.72 22.29H108.51V22.44C108.51 22.5 108.49 22.55 108.44 22.59C108.39 22.63 108.34 22.66 108.27 22.67C108.12 22.7 107.96 22.72 107.79 22.73C107.62 22.73 107.43 22.73 107.24 22.73H104.98C104.86 22.73 104.8 22.79 104.8 22.9V22.98C104.8 23.12 104.86 23.22 104.99 23.3C105.12 23.37 105.33 23.41 105.61 23.41H106.97C107.07 23.41 107.17 23.41 107.28 23.41C107.39 23.41 107.5 23.41 107.6 23.4C107.71 23.4 107.81 23.39 107.91 23.38C108.01 23.38 108.1 23.36 108.19 23.34C108.26 23.32 108.33 23.3 108.38 23.27C108.44 23.24 108.47 23.21 108.5 23.18C108.5 23.3 108.49 23.43 108.47 23.57C108.46 23.7 108.44 23.83 108.41 23.95H104.32C104.2 23.95 104.14 24.01 104.14 24.12V24.22C104.14 24.36 104.2 24.46 104.33 24.52C104.46 24.58 104.67 24.62 104.95 24.62H109.99C110.1 24.62 110.16 24.56 110.16 24.44V24.12C110.16 24 110.1 23.94 109.99 23.94L110.02 23.93ZM114.05 25.57C113.88 25.59 113.7 25.61 113.5 25.62C113.3 25.63 113.09 25.64 112.89 25.65C112.68 25.65 112.48 25.65 112.29 25.65C112.1 25.65 111.92 25.65 111.77 25.63C111.65 25.63 111.58 25.56 111.58 25.42V24.28H113.66C113.77 24.28 113.83 24.22 113.83 24.1V21.86C113.83 21.74 113.77 21.68 113.66 21.68H110.84C110.72 21.68 110.66 21.74 110.66 21.85V21.98C110.66 22.12 110.72 22.22 110.85 22.3C110.98 22.37 111.19 22.41 111.47 22.41H112.9V23.56H110.82C110.71 23.56 110.65 23.62 110.65 23.74V25.54C110.65 25.68 110.66 25.8 110.69 25.9C110.72 26 110.77 26.08 110.83 26.14C110.9 26.2 110.98 26.25 111.08 26.28C111.18 26.31 111.3 26.34 111.44 26.35C111.64 26.37 111.87 26.38 112.11 26.38C112.35 26.38 112.6 26.38 112.84 26.36C113.08 26.35 113.32 26.33 113.55 26.31C113.78 26.29 113.98 26.26 114.15 26.22C114.25 26.2 114.32 26.15 114.36 26.08C114.4 26.01 114.42 25.92 114.4 25.84C114.39 25.76 114.35 25.69 114.29 25.63C114.23 25.57 114.14 25.55 114.03 25.56L114.05 25.57ZM115.65 21.53H115.07C114.96 21.53 114.9 21.59 114.9 21.71V23.54H114.15C114.03 23.54 113.97 23.6 113.97 23.71V23.85C113.97 23.98 114.02 24.09 114.13 24.16C114.24 24.23 114.42 24.27 114.66 24.27H114.89V27.63C114.89 27.75 114.95 27.81 115.06 27.81H115.34C115.49 27.81 115.61 27.74 115.69 27.6C115.77 27.46 115.81 27.22 115.81 26.88V21.71C115.81 21.59 115.75 21.53 115.64 21.53H115.65ZM116.71 24.91C116.73 24.98 116.77 25.04 116.83 25.09C116.89 25.14 116.97 25.15 117.07 25.12C117.59 25.01 118.03 24.84 118.41 24.6C118.79 24.36 119.09 24.09 119.31 23.78C119.46 23.95 119.63 24.11 119.8 24.26C119.98 24.41 120.16 24.54 120.34 24.65C120.52 24.76 120.7 24.86 120.88 24.93C121.06 25.01 121.22 25.05 121.37 25.07C121.53 25.09 121.65 25.07 121.74 24.99C121.83 24.92 121.88 24.83 121.9 24.72C121.91 24.61 121.89 24.51 121.82 24.41C121.76 24.31 121.65 24.23 121.49 24.19C121.14 24.1 120.8 23.98 120.47 23.81C120.14 23.64 119.85 23.45 119.61 23.22C119.72 22.95 119.77 22.69 119.77 22.43V21.87C119.77 21.75 119.71 21.69 119.6 21.69H119.01C118.89 21.69 118.84 21.75 118.84 21.87V22.43C118.84 22.61 118.8 22.8 118.72 22.99C118.64 23.19 118.52 23.38 118.36 23.57C118.2 23.76 118 23.94 117.76 24.1C117.52 24.27 117.23 24.41 116.91 24.52C116.81 24.56 116.75 24.61 116.72 24.68C116.69 24.75 116.68 24.82 116.7 24.89L116.71 24.91ZM122.15 26.31H116.47C116.35 26.31 116.29 26.37 116.29 26.48V26.61C116.29 26.75 116.35 26.85 116.48 26.93C116.61 27 116.82 27.04 117.1 27.04H122.14C122.25 27.04 122.31 26.98 122.31 26.86V26.49C122.31 26.37 122.25 26.31 122.14 26.31H122.15ZM125.91 25.59C125.77 25.61 125.59 25.63 125.38 25.65C125.17 25.67 124.96 25.68 124.75 25.68C124.54 25.68 124.34 25.68 124.15 25.68C123.96 25.68 123.82 25.66 123.73 25.65C123.62 25.63 123.56 25.57 123.56 25.47V24.28H125.33C125.44 24.28 125.5 24.22 125.5 24.1V23.74C125.5 23.62 125.44 23.56 125.33 23.56H123.56V22.43H125.64C125.75 22.43 125.81 22.37 125.81 22.25V21.88C125.81 21.76 125.75 21.7 125.64 21.7H122.4C122.28 21.7 122.22 21.76 122.22 21.87V22C122.22 22.1 122.25 22.19 122.32 22.25C122.38 22.32 122.49 22.36 122.64 22.39V25.58C122.64 25.86 122.71 26.05 122.86 26.17C123.01 26.28 123.23 26.35 123.52 26.37C123.7 26.38 123.91 26.39 124.14 26.39C124.37 26.39 124.6 26.38 124.84 26.37C125.07 26.36 125.29 26.34 125.51 26.31C125.72 26.28 125.9 26.25 126.05 26.21C126.14 26.18 126.21 26.13 126.24 26.06C126.28 25.99 126.29 25.92 126.27 25.84C126.26 25.77 126.22 25.7 126.16 25.65C126.1 25.6 126.02 25.58 125.92 25.6L125.91 25.59ZM127.59 21.53H127.01C126.9 21.53 126.84 21.59 126.84 21.71V23.54H125.95C125.83 23.54 125.77 23.6 125.77 23.71V23.84C125.77 23.98 125.83 24.08 125.96 24.16C126.09 24.23 126.3 24.27 126.58 24.27H126.84V27.63C126.84 27.75 126.9 27.81 127.01 27.81H127.29C127.44 27.81 127.56 27.74 127.64 27.6C127.72 27.46 127.76 27.22 127.76 26.88V21.71C127.76 21.59 127.7 21.53 127.59 21.53ZM133.66 26.99C133.4 27.02 133.13 27.05 132.85 27.07C132.57 27.09 132.29 27.1 132.02 27.11C131.75 27.11 131.49 27.11 131.24 27.11C130.99 27.11 130.78 27.09 130.59 27.07C130.47 27.06 130.4 26.98 130.4 26.86V25.82C130.4 25.7 130.34 25.64 130.23 25.64H129.64C129.53 25.64 129.47 25.7 129.47 25.82V26.99C129.47 27.13 129.48 27.25 129.51 27.35C129.54 27.45 129.59 27.53 129.65 27.59C129.72 27.65 129.8 27.7 129.9 27.73C130 27.76 130.12 27.79 130.26 27.8C130.5 27.82 130.79 27.84 131.11 27.84C131.43 27.84 131.75 27.84 132.08 27.82C132.4 27.8 132.71 27.78 133.01 27.75C133.31 27.72 133.56 27.68 133.76 27.63C133.86 27.61 133.93 27.56 133.97 27.49C134.01 27.42 134.03 27.34 134.01 27.27C134 27.19 133.96 27.13 133.9 27.07C133.84 27.01 133.76 26.99 133.66 27V26.99ZM130.44 23.98C130.63 24.24 130.85 24.47 131.09 24.67C131.33 24.87 131.58 25.02 131.84 25.13C131.94 25.17 132.03 25.18 132.11 25.17C132.19 25.15 132.26 25.12 132.31 25.07C132.36 25.02 132.4 24.96 132.43 24.88C132.46 24.81 132.47 24.73 132.45 24.66C132.44 24.59 132.41 24.52 132.35 24.45C132.3 24.39 132.22 24.34 132.12 24.31C131.84 24.23 131.59 24.11 131.36 23.96C131.13 23.81 130.92 23.62 130.75 23.38C130.79 23.27 130.81 23.16 130.83 23.05C130.85 22.94 130.86 22.82 130.86 22.7V22.42H132.05C132.16 22.42 132.22 22.36 132.22 22.24V21.87C132.22 21.75 132.16 21.69 132.05 21.69H128.63C128.51 21.69 128.45 21.75 128.45 21.86V21.99C128.45 22.13 128.51 22.23 128.64 22.31C128.77 22.38 128.98 22.42 129.26 22.42H129.92V22.7C129.92 23.09 129.8 23.45 129.55 23.79C129.31 24.12 128.93 24.42 128.43 24.69C128.34 24.74 128.29 24.8 128.27 24.87C128.25 24.94 128.25 25.01 128.28 25.08C128.31 25.14 128.36 25.19 128.43 25.23C128.5 25.26 128.58 25.27 128.67 25.23C129.07 25.08 129.42 24.9 129.72 24.7C130.01 24.49 130.25 24.25 130.43 23.99L130.44 23.98ZM133.04 21.54C132.92 21.54 132.87 21.6 132.87 21.72V25.89C132.87 26.01 132.93 26.07 133.04 26.07H133.32C133.47 26.07 133.59 26 133.67 25.86C133.75 25.72 133.79 25.48 133.79 25.14V21.71C133.79 21.59 133.73 21.53 133.62 21.53H133.04V21.54ZM139.35 26.95C139.35 27.31 139.18 27.59 138.85 27.79C138.52 27.99 137.99 28.09 137.28 28.09C136.57 28.09 136.04 27.99 135.71 27.79C135.38 27.59 135.21 27.31 135.21 26.95C135.21 26.59 135.38 26.31 135.71 26.11C136.04 25.91 136.57 25.81 137.28 25.81C137.99 25.81 138.52 25.91 138.85 26.11C139.18 26.31 139.35 26.59 139.35 26.95ZM138.43 26.95C138.43 26.8 138.34 26.69 138.16 26.61C137.98 26.53 137.69 26.49 137.28 26.49C136.87 26.49 136.58 26.53 136.4 26.61C136.22 26.69 136.13 26.81 136.13 26.95C136.13 27.09 136.22 27.21 136.4 27.29C136.58 27.37 136.87 27.41 137.28 27.41C137.69 27.41 137.98 27.37 138.16 27.29C138.34 27.21 138.43 27.09 138.43 26.95ZM139.82 22.91H139.07C139.15 22.99 139.2 23.08 139.24 23.18C139.27 23.27 139.29 23.37 139.29 23.47C139.29 23.64 139.25 23.81 139.18 23.95C139.11 24.1 138.99 24.22 138.83 24.33C138.67 24.44 138.46 24.52 138.21 24.59C137.96 24.65 137.65 24.68 137.29 24.68C136.93 24.68 136.63 24.65 136.37 24.59C136.12 24.53 135.91 24.44 135.75 24.33C135.59 24.22 135.47 24.09 135.4 23.95C135.33 23.8 135.29 23.64 135.29 23.47C135.29 23.37 135.31 23.28 135.34 23.18C135.37 23.09 135.43 23 135.51 22.91H135.41C135.12 22.91 134.92 22.88 134.79 22.81C134.66 22.75 134.6 22.65 134.6 22.51V22.42C134.6 22.31 134.66 22.25 134.78 22.25H139.84C139.95 22.25 140.01 22.31 140.01 22.43V22.73C140.01 22.85 139.95 22.91 139.84 22.91H139.82ZM138.36 23.47C138.36 23.4 138.34 23.33 138.31 23.27C138.28 23.2 138.22 23.14 138.14 23.09C138.06 23.04 137.95 23 137.81 22.97C137.67 22.94 137.5 22.93 137.29 22.93C137.08 22.93 136.9 22.95 136.77 22.97C136.63 23 136.52 23.04 136.44 23.09C136.36 23.14 136.3 23.2 136.27 23.27C136.24 23.34 136.22 23.4 136.22 23.47C136.22 23.54 136.24 23.61 136.27 23.67C136.3 23.73 136.36 23.79 136.44 23.85C136.52 23.9 136.63 23.94 136.77 23.97C136.91 24 137.08 24.01 137.29 24.01C137.5 24.01 137.68 24 137.81 23.97C137.95 23.94 138.06 23.9 138.14 23.85C138.22 23.8 138.28 23.74 138.31 23.67C138.34 23.61 138.36 23.54 138.36 23.47ZM140.13 24.92H134.45C134.33 24.92 134.27 24.98 134.27 25.09V25.18C134.27 25.32 134.33 25.42 134.46 25.49C134.59 25.56 134.8 25.59 135.08 25.59H140.12C140.23 25.59 140.29 25.53 140.29 25.41V25.09C140.29 24.97 140.23 24.91 140.12 24.91L140.13 24.92ZM136.68 22H138.47C138.58 22 138.64 21.94 138.64 21.82V21.5C138.64 21.38 138.58 21.32 138.47 21.32H136.05C135.93 21.32 135.87 21.38 135.87 21.49V21.57C135.87 21.71 135.93 21.81 136.06 21.89C136.19 21.97 136.4 22 136.68 22ZM145.99 26.99C145.73 27.02 145.45 27.05 145.16 27.07C144.86 27.09 144.56 27.1 144.27 27.11C143.98 27.11 143.7 27.11 143.44 27.11C143.18 27.11 142.95 27.09 142.76 27.07C142.64 27.06 142.57 26.98 142.57 26.86V26.36H142.91C143.06 26.36 143.18 26.29 143.26 26.15C143.34 26.01 143.38 25.77 143.38 25.43V25.11H143.4C143.52 25.11 143.65 25.11 143.79 25.1C143.92 25.1 144.05 25.08 144.18 25.06C144.31 25.04 144.43 25.02 144.55 24.99C144.66 24.96 144.76 24.94 144.85 24.91C144.93 24.88 144.99 24.83 145.02 24.77C145.05 24.7 145.05 24.63 145.04 24.56C145.02 24.49 144.99 24.43 144.93 24.38C144.87 24.33 144.8 24.31 144.72 24.33C144.64 24.34 144.55 24.36 144.45 24.36C144.35 24.36 144.24 24.38 144.13 24.38C144.02 24.38 143.9 24.39 143.79 24.39C143.68 24.39 143.57 24.39 143.48 24.39H140.78C140.66 24.39 140.6 24.45 140.6 24.56V24.68C140.6 24.82 140.66 24.92 140.79 24.99C140.92 25.06 141.13 25.09 141.41 25.09H142.47V25.88H141.82C141.71 25.88 141.65 25.94 141.65 26.06V26.97C141.65 27.11 141.66 27.23 141.69 27.33C141.72 27.43 141.77 27.51 141.83 27.57C141.9 27.63 141.98 27.68 142.08 27.71C142.18 27.74 142.3 27.77 142.44 27.78C142.68 27.8 142.97 27.82 143.31 27.82C143.65 27.82 143.99 27.82 144.34 27.8C144.69 27.78 145.02 27.76 145.33 27.73C145.64 27.7 145.9 27.66 146.1 27.61C146.2 27.59 146.27 27.54 146.31 27.47C146.35 27.4 146.37 27.32 146.35 27.25C146.34 27.17 146.3 27.11 146.24 27.05C146.18 26.99 146.1 26.97 146 26.98L145.99 26.99ZM141.59 21.84C141.74 21.72 141.93 21.63 142.16 21.56C142.38 21.49 142.64 21.46 142.92 21.46C143.2 21.46 143.45 21.49 143.68 21.56C143.91 21.63 144.1 21.72 144.25 21.84C144.4 21.96 144.52 22.1 144.61 22.26C144.69 22.42 144.73 22.6 144.73 22.79C144.73 22.98 144.69 23.16 144.61 23.32C144.53 23.48 144.41 23.62 144.25 23.74C144.1 23.86 143.91 23.95 143.68 24.02C143.45 24.09 143.2 24.12 142.92 24.12C142.64 24.12 142.38 24.09 142.16 24.02C141.94 23.95 141.75 23.86 141.59 23.74C141.44 23.62 141.32 23.48 141.23 23.32C141.15 23.16 141.11 22.98 141.11 22.79C141.11 22.6 141.15 22.42 141.23 22.26C141.31 22.1 141.43 21.96 141.59 21.84ZM142.04 22.8C142.04 22.98 142.12 23.13 142.27 23.24C142.43 23.35 142.64 23.4 142.92 23.4C143.2 23.4 143.41 23.35 143.57 23.24C143.73 23.13 143.8 22.99 143.8 22.8C143.8 22.61 143.72 22.47 143.57 22.36C143.41 22.25 143.2 22.2 142.92 22.2C142.64 22.2 142.43 22.25 142.27 22.36C142.11 22.47 142.04 22.61 142.04 22.8ZM145.38 26.38H145.66C145.81 26.38 145.93 26.31 146.01 26.17C146.09 26.03 146.13 25.79 146.13 25.45V21.71C146.13 21.59 146.07 21.53 145.96 21.53H145.38C145.27 21.53 145.21 21.59 145.21 21.71V25.37H144.13C144.01 25.37 143.95 25.43 143.95 25.54V25.64C143.95 25.78 144.01 25.88 144.14 25.94C144.27 26 144.48 26.04 144.76 26.04H145.21V26.18C145.21 26.3 145.27 26.36 145.38 26.36V26.38Z" fill="white"/>
</g>
<defs>
<clipPath id="clip0_430_21959">
<rect width="151.39" height="28.5" fill="white"/>
</clipPath>
</defs>
</svg>
