<svg width="174" height="20" viewBox="0 0 174 20" fill="none" xmlns="http://www.w3.org/2000/svg">
<g clip-path="url(#clip0_21_19219)">
<path fill-rule="evenodd" clip-rule="evenodd" d="M10.195 9.18977C10.195 9.18977 10.255 9.10977 10.275 9.07977L16.085 0.509766H12.325C12.105 0.509766 11.895 0.549766 11.685 0.629766C11.475 0.709766 11.265 0.819766 11.075 0.949766C10.875 1.07977 10.695 1.23977 10.535 1.40977C10.365 1.57977 10.215 1.75977 10.095 1.93977L5.04497 9.35977V0.509766H0.844971V19.5298H5.04497V10.1498L10.485 18.0798C10.785 18.5298 11.045 18.8998 11.345 19.2298C11.625 19.5398 11.805 19.5298 12.305 19.5298H16.065L10.285 10.4398C9.76497 9.77977 10.015 9.42977 10.195 9.17977" fill="#009F98"/>
<path fill-rule="evenodd" clip-rule="evenodd" d="M55.2051 0.499512V3.46951C55.2051 3.91951 55.5851 4.27951 56.0451 4.27951H60.7651V19.5295H64.9651V4.27951H69.7951C70.1951 4.27951 70.5151 3.96951 70.5151 3.57951V0.499512H55.2051Z" fill="#009F98"/>
<path fill-rule="evenodd" clip-rule="evenodd" d="M54.715 9.15973C54.305 4.28973 50.105 0.469727 45.025 0.469727C42.645 0.469727 40.745 1.04973 38.965 2.83973C38.175 3.62973 36.875 5.82973 37.705 8.05973C37.925 8.65973 38.165 8.95973 38.415 9.08973C38.815 9.28973 39.305 9.01973 39.385 8.57973C39.505 7.96973 39.845 6.77973 40.735 5.84973C41.565 4.97973 42.565 4.46973 43.665 4.25973C47.315 3.54973 50.805 6.04973 50.985 9.68973C51.145 13.0397 48.425 15.8097 45.045 15.8097C43.275 15.8097 41.675 15.0597 40.595 14.1597C40.135 13.7797 39.555 13.1197 39.135 12.5897L36.535 9.26973L32.645 4.17973C30.645 1.77973 27.565 0.199727 24.055 0.519727C19.335 0.949727 15.555 4.77973 15.275 9.43973C14.945 14.9597 19.405 19.5497 24.955 19.5497C27.325 19.5497 29.495 18.7397 31.355 17.1397C31.405 17.0997 31.635 16.8897 31.545 16.5997C31.485 16.4197 31.415 16.2297 31.345 16.0497C31.345 16.0497 30.485 14.0997 29.695 13.1497C28.785 12.0697 28.035 11.3597 26.725 10.6797C26.645 10.6397 26.595 10.5497 26.625 10.4697C26.645 10.4197 26.745 10.4197 26.835 10.4397C27.705 10.6797 28.645 11.0197 29.805 12.1797C30.565 12.9397 31.445 14.3697 32.055 15.6597C32.125 15.7997 32.345 15.7597 32.355 15.5997C32.525 13.0597 31.615 11.2897 30.205 10.2297C28.655 9.06973 26.435 8.85973 24.265 9.31973C23.555 9.46973 23.495 9.89973 24.115 10.2797C26.635 11.8297 26.665 14.1297 27.465 15.2697C27.365 15.3797 27.215 15.4297 27.155 15.4597C26.365 15.7697 25.485 15.9297 24.575 15.8697C21.595 15.6897 19.175 13.2697 19.035 10.3297C18.875 6.97973 21.585 4.20973 24.955 4.20973C26.795 4.20973 28.445 5.03973 29.535 6.32973L34.265 11.9997L37.345 15.8397C39.355 18.2397 42.445 19.8197 45.965 19.4997C48.335 19.2797 50.455 18.2097 52.035 16.6197C52.175 16.4797 52.405 16.5097 52.505 16.6797C52.725 17.0997 52.945 17.4397 53.165 17.6997C53.605 18.2197 54.015 18.6197 54.405 18.9097C54.885 19.2497 55.305 19.4397 55.685 19.4997C56.065 19.5597 56.385 19.5597 56.645 19.4997C57.205 19.3597 57.475 18.7097 57.155 18.2297C56.355 17.0097 55.235 15.0697 54.745 9.15973" fill="#009F98"/>
<g style="mix-blend-mode:multiply" opacity="0.85">
<mask id="mask0_21_19219" style="mask-type:luminance" maskUnits="userSpaceOnUse" x="0" y="0" width="71" height="20">
<path d="M70.515 0.469727H0.844971V19.5397H70.515V0.469727Z" fill="white"/>
</mask>
<g mask="url(#mask0_21_19219)">
<mask id="mask1_21_19219" style="mask-type:luminance" maskUnits="userSpaceOnUse" x="0" y="0" width="17" height="20">
<path d="M10.195 9.18977C10.195 9.18977 10.255 9.10977 10.275 9.07977L16.085 0.509766H12.325C12.105 0.509766 11.895 0.549766 11.685 0.629766C11.475 0.709766 11.265 0.819766 11.075 0.949766C10.875 1.07977 10.695 1.23977 10.535 1.40977C10.365 1.57977 10.215 1.75977 10.095 1.93977L5.04497 9.35977V0.509766H0.844971V19.5298H5.04497V10.1498L10.485 18.0798C10.785 18.5298 11.045 18.8998 11.335 19.2298C11.615 19.5398 11.795 19.5298 12.295 19.5298H16.055L10.275 10.4398C9.75497 9.77977 10.005 9.42977 10.185 9.17977" fill="white"/>
</mask>
<g mask="url(#mask1_21_19219)">
<path d="M16.085 0.509766H0.844971V19.5498H16.085V0.509766Z" fill="url(#paint0_linear_21_19219)"/>
</g>
<mask id="mask2_21_19219" style="mask-type:luminance" maskUnits="userSpaceOnUse" x="55" y="0" width="16" height="20">
<path d="M55.2051 0.499512V3.46951C55.2051 3.91951 55.5851 4.27951 56.0451 4.27951H60.7651V19.5295H64.9651V4.27951H69.7951C70.1951 4.27951 70.5151 3.96951 70.5151 3.57951V0.499512H55.2051Z" fill="white"/>
</mask>
<g mask="url(#mask2_21_19219)">
<path d="M70.5151 0.499512H55.2051V19.5295H70.5151V0.499512Z" fill="url(#paint1_linear_21_19219)"/>
</g>
<mask id="mask3_21_19219" style="mask-type:luminance" maskUnits="userSpaceOnUse" x="15" y="0" width="43" height="20">
<path d="M54.715 9.15973C54.305 4.28973 50.105 0.469727 45.025 0.469727C42.645 0.469727 40.745 1.04973 38.965 2.83973C38.175 3.62973 36.875 5.82973 37.705 8.05973C37.925 8.65973 38.165 8.95973 38.415 9.08973C38.815 9.28973 39.305 9.01973 39.385 8.57973C39.505 7.96973 39.845 6.77973 40.735 5.84973C41.565 4.97973 42.565 4.46973 43.665 4.25973C47.315 3.54973 50.805 6.04973 50.985 9.68973C51.145 13.0397 48.425 15.8097 45.045 15.8097C43.275 15.8097 41.675 15.0597 40.595 14.1597C40.135 13.7797 39.555 13.1197 39.135 12.5897L36.535 9.26973L32.645 4.17973C30.645 1.77973 27.565 0.199727 24.055 0.519727C19.335 0.949727 15.555 4.77973 15.275 9.43973C14.945 14.9597 19.405 19.5497 24.955 19.5497C27.325 19.5497 29.495 18.7397 31.355 17.1397C31.405 17.0997 31.645 16.8897 31.545 16.5997C31.485 16.4197 31.415 16.2297 31.345 16.0497C31.345 16.0497 30.485 14.0997 29.695 13.1497C28.785 12.0697 28.035 11.3597 26.725 10.6797C26.645 10.6397 26.595 10.5497 26.625 10.4697C26.645 10.4197 26.745 10.4197 26.835 10.4397C27.705 10.6797 28.645 11.0197 29.805 12.1797C30.565 12.9397 31.445 14.3697 32.055 15.6597C32.125 15.7997 32.345 15.7597 32.355 15.5997C32.525 13.0597 31.615 11.2897 30.205 10.2297C28.655 9.06973 26.435 8.85973 24.265 9.31973C23.555 9.46973 23.495 9.89973 24.115 10.2797C26.635 11.8297 26.665 14.1297 27.465 15.2697C27.365 15.3797 27.215 15.4297 27.155 15.4597C26.365 15.7697 25.485 15.9297 24.575 15.8697C21.595 15.6897 19.175 13.2697 19.035 10.3297C18.875 6.97973 21.585 4.20973 24.955 4.20973C26.795 4.20973 28.445 5.03973 29.535 6.32973L34.265 11.9997L37.345 15.8397C39.355 18.2397 42.445 19.8197 45.965 19.4997C48.335 19.2797 50.455 18.2097 52.035 16.6197C52.175 16.4797 52.405 16.5097 52.505 16.6797C52.725 17.0997 52.945 17.4397 53.165 17.6997C53.605 18.2197 54.015 18.6197 54.405 18.9097C54.885 19.2497 55.305 19.4397 55.685 19.4997C56.065 19.5597 56.385 19.5597 56.645 19.4997C57.205 19.3597 57.475 18.7097 57.155 18.2297C56.355 17.0097 55.235 15.0697 54.745 9.15973" fill="white"/>
</mask>
<g mask="url(#mask3_21_19219)">
<path d="M57.4451 0.189941H14.9451V19.8099H57.4451V0.189941Z" fill="url(#paint2_linear_21_19219)"/>
</g>
</g>
</g>
<path d="M81.565 12.2499H74.455V10.0399C74.455 9.97992 74.405 9.91992 74.335 9.91992H73.285C73.225 9.91992 73.165 9.96992 73.165 10.0399V12.5499C73.165 12.8499 73.225 13.0599 73.355 13.1899C73.485 13.3399 73.695 13.4099 73.995 13.4099H81.555C81.625 13.4099 81.675 13.3599 81.675 13.2899V12.3699C81.675 12.3099 81.625 12.2499 81.555 12.2499" fill="#002F87"/>
<path d="M74.3451 9.39955C74.6951 9.50955 75.1151 9.55955 75.6451 9.55955C76.1751 9.55955 76.5951 9.50955 76.9551 9.39955C77.3451 9.28955 77.6451 9.14955 77.8751 8.95955C78.1151 8.78955 78.3051 8.55955 78.4351 8.28955C78.5551 8.03955 78.6251 7.74955 78.6251 7.42955C78.6251 7.10955 78.5651 6.83955 78.4351 6.56955C78.3151 6.31955 78.1251 6.08955 77.8751 5.87955C77.6351 5.70955 77.3151 5.55955 76.9551 5.44955C76.5451 5.33955 76.1051 5.28955 75.6451 5.28955C75.1851 5.28955 74.7251 5.33955 74.3451 5.44955C73.9951 5.54955 73.6851 5.69955 73.4251 5.88955C73.1751 6.09955 72.9951 6.32955 72.8851 6.57955C72.7651 6.85955 72.7051 7.13955 72.7051 7.43955C72.7051 7.73955 72.7651 8.03955 72.8851 8.27955C72.9951 8.55955 73.1851 8.78955 73.4251 8.96955C73.6651 9.16955 73.9551 9.29955 74.3451 9.40955M73.9851 7.43955C73.9851 7.14955 74.1151 6.90955 74.3551 6.71955C74.5951 6.51955 75.0351 6.42955 75.6451 6.42955C76.2551 6.42955 76.6951 6.52955 76.9551 6.71955C77.2051 6.91955 77.3251 7.15955 77.3251 7.43955C77.3251 7.71955 77.2051 7.94955 76.9551 8.13955C76.6851 8.33955 76.2451 8.43955 75.6351 8.43955C75.0251 8.43955 74.5851 8.33955 74.3451 8.13955C74.0951 7.95955 73.9751 7.72955 73.9751 7.43955" fill="#002F87"/>
<path d="M83.105 5.73963H81.465V2.48963C81.465 2.42963 81.415 2.36963 81.345 2.36963H80.295C80.235 2.36963 80.175 2.41963 80.175 2.48963V10.4596C80.175 10.5296 80.225 10.5796 80.295 10.5796H81.345C81.415 10.5796 81.465 10.5296 81.465 10.4596V6.88963H83.105C83.175 6.88963 83.225 6.83963 83.225 6.76963V5.84963C83.225 5.77963 83.175 5.72963 83.105 5.72963" fill="#002F87"/>
<path d="M73.755 3.36975H77.545C77.615 3.36975 77.665 3.31975 77.665 3.24975V2.35975C77.665 2.28975 77.615 2.23975 77.545 2.23975H73.755C73.685 2.23975 73.635 2.28975 73.635 2.35975V3.24975C73.635 3.31975 73.685 3.36975 73.755 3.36975Z" fill="#002F87"/>
<path d="M79.0649 4.77953V3.88953C79.0649 3.82953 79.0149 3.76953 78.9449 3.76953H72.3649C72.2949 3.76953 72.2449 3.81953 72.2449 3.88953V4.77953C72.2449 4.84953 72.2949 4.89953 72.3649 4.89953H78.9449C79.0149 4.89953 79.0649 4.84953 79.0649 4.77953Z" fill="#002F87"/>
<path d="M94.1451 6.64979H93.3051V2.64979C93.3051 2.58979 93.2551 2.52979 93.1851 2.52979H84.7951C84.7351 2.52979 84.6751 2.57979 84.6751 2.64979V3.53979C84.6751 3.59979 84.7251 3.65979 84.7951 3.65979H92.0151V6.64979H83.8151C83.7451 6.64979 83.6951 6.69978 83.6951 6.76978V7.68979C83.6951 7.75979 83.7451 7.80978 83.8151 7.80978H88.3351V9.24979H84.7351C84.6651 9.24979 84.6151 9.29979 84.6151 9.36979V10.2598C84.6151 10.3198 84.6651 10.3798 84.7351 10.3798H92.0851V13.2998C92.0851 13.3598 92.1351 13.4198 92.2051 13.4198H93.2551C93.3251 13.4198 93.3751 13.3698 93.3751 13.2998V9.36979C93.3751 9.30979 93.3251 9.24979 93.2551 9.24979H89.6351V7.80978H94.1651C94.2351 7.80978 94.2851 7.75979 94.2851 7.68979V6.76978C94.2851 6.70978 94.2351 6.64979 94.1651 6.64979" fill="#002F87"/>
<path d="M105.455 7.53979H100.935V6.72978H104.495C104.555 6.72978 104.615 6.67979 104.615 6.60979V5.71979C104.615 5.65979 104.565 5.59979 104.495 5.59979H97.3949V2.64979C97.3949 2.58979 97.3449 2.52979 97.2749 2.52979H96.2249C96.1549 2.52979 96.1049 2.57979 96.1049 2.64979V5.88979C96.1049 6.18979 96.1749 6.38979 96.3049 6.50979C96.4349 6.65979 96.6449 6.72978 96.9449 6.72978H99.6349V7.53979H95.1149C95.0549 7.53979 94.9949 7.58979 94.9949 7.65979V8.57979C94.9949 8.63979 95.0449 8.69979 95.1149 8.69979H105.435C105.505 8.69979 105.555 8.64979 105.555 8.57979V7.65979C105.555 7.58979 105.505 7.53979 105.435 7.53979" fill="#002F87"/>
<path d="M102.865 9.59994C102.545 9.42994 102.165 9.28994 101.735 9.19994C100.795 9.01994 99.735 9.01994 98.855 9.19994C98.405 9.29994 98.025 9.42994 97.705 9.60994C97.355 9.80994 97.105 10.0499 96.935 10.3399C96.745 10.6299 96.655 10.9899 96.655 11.4099C96.655 11.8299 96.755 12.1899 96.935 12.4799C97.105 12.7699 97.355 13.0099 97.705 13.2099C98.005 13.3899 98.385 13.5299 98.855 13.6299C99.295 13.7199 99.775 13.7599 100.285 13.7599C100.795 13.7599 101.265 13.7099 101.735 13.6299C102.185 13.5299 102.555 13.3899 102.865 13.2099C103.175 13.0099 103.425 12.7699 103.605 12.4799C103.785 12.1699 103.875 11.7999 103.875 11.4099C103.875 11.0199 103.785 10.6499 103.605 10.3399C103.425 10.0499 103.175 9.80994 102.855 9.60994M102.585 11.4299C102.585 11.6599 102.525 11.8499 102.415 12.0099C102.295 12.1599 102.125 12.2799 101.915 12.3799C101.695 12.4699 101.445 12.5399 101.185 12.5899C100.505 12.6699 100.025 12.6699 99.375 12.5899C99.085 12.5399 98.825 12.4799 98.615 12.3899C98.395 12.2899 98.225 12.1699 98.105 12.0199C97.985 11.8599 97.925 11.6699 97.925 11.4399C97.925 11.2099 97.985 11.0199 98.105 10.8599C98.225 10.7099 98.395 10.5899 98.615 10.4899C98.855 10.3899 99.105 10.3099 99.365 10.2699C99.685 10.2299 99.975 10.2099 100.265 10.2099C100.555 10.2099 100.845 10.2299 101.165 10.2699C101.405 10.3099 101.645 10.3799 101.895 10.4899C102.115 10.5999 102.275 10.7199 102.395 10.8599C102.515 11.0299 102.565 11.2199 102.565 11.4499" fill="#002F87"/>
<path d="M116.135 2.36955H115.085C115.015 2.36955 114.965 2.41955 114.965 2.48955V4.62955H112.885C112.825 4.29955 112.715 3.99955 112.565 3.71955C112.415 3.44955 112.195 3.19955 111.895 2.94955C111.625 2.73955 111.315 2.57955 110.945 2.45955C110.565 2.34955 110.165 2.28955 109.745 2.28955C109.255 2.28955 108.815 2.35955 108.425 2.49955C108.035 2.64955 107.705 2.84955 107.425 3.10955C107.155 3.35955 106.945 3.66955 106.795 4.02955C106.645 4.38955 106.565 4.78955 106.565 5.21955C106.565 5.64955 106.645 6.05955 106.795 6.38955C106.945 6.76955 107.155 7.07955 107.425 7.31955C107.685 7.57955 108.025 7.77955 108.425 7.91955C108.795 8.05955 109.225 8.12955 109.755 8.12955C110.215 8.12955 110.605 8.06955 110.955 7.95955C111.315 7.84955 111.635 7.67955 111.905 7.46955C112.175 7.26955 112.405 6.99955 112.575 6.69955C112.725 6.42955 112.835 6.13955 112.895 5.80955H114.975V8.25955C114.975 8.32955 115.025 8.37955 115.095 8.37955H116.145C116.215 8.37955 116.265 8.32955 116.265 8.25955V2.48955C116.265 2.42955 116.215 2.36955 116.145 2.36955M109.755 6.96955C109.455 6.96955 109.205 6.92955 108.975 6.84955C108.745 6.78955 108.555 6.67955 108.385 6.51955C108.215 6.37955 108.085 6.19955 107.995 5.96955C107.905 5.76955 107.855 5.50955 107.855 5.20955C107.855 4.90955 107.905 4.64955 107.995 4.42955C108.085 4.20955 108.215 4.02955 108.385 3.87955C108.555 3.72955 108.745 3.61955 108.975 3.54955C109.235 3.46955 109.495 3.42955 109.755 3.42955C110.015 3.42955 110.255 3.46955 110.525 3.53955C110.755 3.61955 110.965 3.72955 111.125 3.86955C111.285 4.01955 111.415 4.20955 111.515 4.41955C111.605 4.65955 111.655 4.91955 111.655 5.19955C111.655 5.47955 111.605 5.73955 111.515 5.95955C111.415 6.18955 111.285 6.37955 111.125 6.51955C110.955 6.66955 110.755 6.77955 110.525 6.84955C110.295 6.92955 110.045 6.95955 109.755 6.95955" fill="#002F87"/>
<path d="M116.135 8.72949H115.085C115.025 8.72949 114.965 8.77949 114.965 8.84949V10.0395H108.785V8.84949C108.785 8.77949 108.735 8.72949 108.665 8.72949H107.615C107.545 8.72949 107.495 8.77949 107.495 8.84949V12.5495C107.495 12.8295 107.565 13.0495 107.695 13.1895C107.825 13.3395 108.035 13.4095 108.335 13.4095H116.125C116.195 13.4095 116.245 13.3595 116.245 13.2895V8.84949C116.245 8.77949 116.195 8.72949 116.125 8.72949M114.955 12.2795H108.775V11.1695H114.955V12.2795Z" fill="#002F87"/>
<path d="M127.455 2.37963H126.405C126.335 2.37963 126.285 2.42963 126.285 2.49963V13.2896C126.285 13.3496 126.335 13.4096 126.405 13.4096H127.455C127.525 13.4096 127.575 13.3596 127.575 13.2896V2.48963C127.575 2.42963 127.525 2.36963 127.455 2.36963" fill="#002F87"/>
<path d="M124.015 2.6499H118.465C118.395 2.6499 118.345 2.6999 118.345 2.7699V3.6799C118.345 3.7499 118.395 3.7999 118.465 3.7999H122.805C122.735 4.7899 122.575 5.6299 122.285 6.3599C121.975 7.1499 121.595 7.8299 121.145 8.3899C120.685 8.9799 120.175 9.4799 119.635 9.8799C119.045 10.3099 118.485 10.6399 117.935 10.8999C117.905 10.9199 117.885 10.9399 117.875 10.9699C117.865 10.9999 117.875 11.0399 117.885 11.0699L118.415 11.8799C118.415 11.8799 118.475 11.9299 118.515 11.9299C118.535 11.9299 118.555 11.9299 118.565 11.9199C119.295 11.5599 120.005 11.1199 120.665 10.6099C121.335 10.0999 121.935 9.4799 122.445 8.7699C122.965 8.0499 123.375 7.1899 123.675 6.2299C123.975 5.2699 124.135 4.1299 124.135 2.8399V2.7699C124.135 2.6999 124.085 2.6499 124.015 2.6499Z" fill="#002F87"/>
<path d="M130.015 6.50957C130.015 6.50957 130.095 6.58957 130.145 6.56957C130.975 6.36957 131.765 6.05957 132.475 5.66957C133.135 5.30957 133.715 4.83957 134.205 4.26957C134.485 4.51957 134.775 4.74957 135.075 4.94957C135.485 5.23957 135.815 5.43957 136.135 5.60957C136.465 5.79957 136.835 5.98957 137.235 6.14957C137.605 6.31957 137.975 6.45957 138.325 6.57957C138.335 6.57957 138.355 6.57957 138.365 6.57957C138.405 6.57957 138.445 6.55957 138.465 6.51957L138.905 5.68957C138.905 5.68957 138.925 5.61957 138.905 5.58957C138.895 5.55957 138.865 5.52957 138.835 5.51957C138.495 5.41957 138.155 5.28957 137.815 5.12957C137.445 4.96957 137.095 4.78957 136.765 4.59957C136.435 4.42957 136.095 4.20957 135.745 3.94957C135.445 3.74957 135.165 3.52957 134.905 3.28957C134.955 3.20957 134.995 3.10957 135.045 2.99957C135.075 2.91957 135.115 2.83957 135.155 2.74957L135.205 2.63957C135.205 2.63957 135.215 2.56957 135.205 2.53957C135.185 2.50957 135.155 2.48957 135.125 2.47957L134.145 2.30957C134.095 2.30957 134.035 2.32957 134.015 2.37957C133.835 2.78957 133.605 3.15957 133.315 3.48957C133.035 3.80957 132.715 4.09957 132.315 4.37957C131.935 4.64957 131.525 4.87957 131.105 5.06957C130.665 5.25957 130.205 5.41957 129.695 5.53957C129.655 5.53957 129.625 5.56957 129.615 5.59957C129.605 5.62957 129.605 5.66957 129.615 5.69957L130.015 6.50957Z" fill="#002F87"/>
<path d="M139.435 7.08984H129.115C129.055 7.08984 128.995 7.13984 128.995 7.20984V8.12984C128.995 8.18984 129.045 8.24984 129.115 8.24984H133.635V8.85984H130.045C129.985 8.85984 129.925 8.90984 129.925 8.97984V9.86984C129.925 9.92984 129.975 9.98984 130.045 9.98984H137.385V10.5498H130.045C129.985 10.5498 129.925 10.5998 129.925 10.6698V12.5598C129.925 12.8598 129.985 13.0698 130.115 13.1998C130.245 13.3498 130.455 13.4198 130.755 13.4198H138.765C138.825 13.4198 138.885 13.3698 138.885 13.2998V12.4098C138.885 12.3498 138.835 12.2898 138.765 12.2898H131.205V11.6798H138.545C138.615 11.6798 138.665 11.6298 138.665 11.5598V8.97984C138.665 8.90984 138.615 8.85984 138.545 8.85984H134.915V8.24984H139.435C139.505 8.24984 139.555 8.19984 139.555 8.12984V7.20984C139.555 7.13984 139.505 7.08984 139.435 7.08984Z" fill="#002F87"/>
<path d="M144.425 6.60955C144.805 6.99955 145.195 7.32955 145.615 7.63955C146.075 7.99955 146.525 8.28955 146.995 8.53955C147.045 8.56955 147.105 8.54955 147.145 8.50955L147.735 7.74955C147.735 7.74955 147.765 7.68955 147.755 7.64955C147.755 7.60955 147.725 7.58955 147.695 7.56955C147.235 7.33955 146.785 7.04955 146.365 6.72955C145.945 6.41955 145.565 6.08955 145.215 5.74955C145.545 5.32955 145.815 4.91955 146.045 4.51955C146.285 4.05955 146.485 3.56955 146.615 3.01955C146.615 3.00955 146.615 2.98955 146.625 2.97955V2.90955C146.625 2.90955 146.625 2.82955 146.615 2.75955C146.615 2.73955 146.595 2.71955 146.585 2.70955C146.565 2.68955 146.555 2.66955 146.525 2.62955C146.515 2.60955 146.495 2.59955 146.485 2.58955C146.425 2.55955 146.345 2.53955 146.255 2.53955H141.295C141.235 2.53955 141.175 2.58955 141.175 2.65955V3.54955C141.175 3.60955 141.225 3.66955 141.295 3.66955H145.105C144.915 4.08955 144.685 4.48955 144.405 4.86955C144.095 5.27955 143.745 5.67955 143.325 6.07955C142.865 6.49955 142.435 6.83955 142.005 7.10955C141.495 7.44955 141.005 7.71955 140.515 7.94955C140.485 7.95955 140.465 7.98955 140.455 8.02955C140.455 8.05955 140.455 8.09955 140.475 8.12955L141.015 8.86955C141.015 8.86955 141.075 8.91955 141.105 8.91955C141.125 8.91955 141.135 8.91955 141.155 8.90955C141.645 8.67955 142.195 8.35955 142.825 7.93955C143.385 7.56955 143.925 7.12955 144.435 6.62955" fill="#002F87"/>
<path d="M150.335 12.2499H142.765V9.55994C142.765 9.49994 142.715 9.43994 142.645 9.43994H141.595C141.525 9.43994 141.475 9.48994 141.475 9.55994V12.5499C141.475 12.8499 141.535 13.0599 141.665 13.1899C141.795 13.3399 142.005 13.4099 142.305 13.4099H150.325C150.395 13.4099 150.445 13.3599 150.445 13.2899V12.3699C150.445 12.3099 150.395 12.2499 150.325 12.2499" fill="#002F87"/>
<path d="M149.065 10.6996H150.115C150.185 10.6996 150.235 10.6496 150.235 10.5796V2.48963C150.235 2.42963 150.185 2.36963 150.115 2.36963H149.065C148.995 2.36963 148.945 2.41963 148.945 2.48963V10.5796C148.945 10.6396 148.995 10.6996 149.065 10.6996Z" fill="#002F87"/>
<path d="M152.685 4.72961H161.195C161.265 4.72961 161.315 4.67961 161.315 4.60961V3.71961C161.315 3.65961 161.265 3.59961 161.195 3.59961H152.685C152.615 3.59961 152.565 3.64961 152.565 3.71961V4.60961C152.565 4.66961 152.615 4.72961 152.685 4.72961Z" fill="#002F87"/>
<path d="M154.865 3.31973H159.015C159.085 3.31973 159.135 3.26973 159.135 3.19973V2.33973C159.135 2.27973 159.085 2.21973 159.015 2.21973H154.865C154.795 2.21973 154.745 2.26973 154.745 2.33973V3.19973C154.745 3.25973 154.795 3.31973 154.865 3.31973Z" fill="#002F87"/>
<path d="M158.295 5.01971C157.875 4.96971 157.415 4.94971 156.925 4.94971C156.435 4.94971 155.975 4.96971 155.565 5.01971C155.145 5.07971 154.795 5.15971 154.485 5.27971C154.155 5.40971 153.905 5.57971 153.735 5.77971C153.545 5.99971 153.455 6.27971 153.455 6.60971C153.455 6.93971 153.545 7.21971 153.735 7.41971C153.905 7.63971 154.155 7.79971 154.485 7.91971C154.785 8.04971 155.145 8.12971 155.565 8.17971C155.975 8.22971 156.425 8.24971 156.915 8.24971C157.405 8.24971 157.865 8.22971 158.275 8.17971C158.685 8.14971 159.055 8.05971 159.365 7.93971C159.675 7.82971 159.925 7.65971 160.105 7.43971C160.295 7.21971 160.385 6.93971 160.385 6.60971C160.385 6.27971 160.295 6.01971 160.105 5.77971C159.905 5.56971 159.665 5.39971 159.365 5.26971C159.045 5.15971 158.675 5.06971 158.275 5.02971M159.075 6.60971C159.075 6.78971 158.825 6.89971 158.615 6.95971C158.275 7.06971 157.735 7.11971 156.905 7.11971C156.075 7.11971 155.535 7.06971 155.205 6.95971C154.745 6.83971 154.745 6.66971 154.745 6.60971C154.745 6.55971 154.745 6.38971 155.205 6.24971C155.545 6.14971 156.135 6.08971 156.905 6.08971C157.675 6.08971 158.245 6.13971 158.615 6.24971C158.905 6.34971 159.075 6.47971 159.075 6.60971Z" fill="#002F87"/>
<path d="M159.515 10.2797C159.195 10.1497 158.815 10.0497 158.365 9.96971C157.305 9.85971 156.485 9.85971 155.455 9.96971C154.975 10.0497 154.595 10.1497 154.305 10.2797C153.965 10.4297 153.705 10.6297 153.535 10.8697C153.345 11.1197 153.245 11.4397 153.245 11.8097C153.245 12.1797 153.345 12.4997 153.535 12.7497C153.715 12.9997 153.975 13.1997 154.305 13.3497C154.595 13.4897 154.955 13.5897 155.465 13.6697C155.975 13.7297 156.435 13.7497 156.905 13.7497C157.375 13.7497 157.845 13.7197 158.365 13.6597C158.835 13.5797 159.205 13.4797 159.515 13.3397C159.825 13.1897 160.085 12.9897 160.295 12.7397C160.475 12.4697 160.565 12.1597 160.565 11.7997C160.565 11.4397 160.465 11.1297 160.285 10.8597C160.085 10.6097 159.825 10.4197 159.515 10.2697M156.905 11.0097C157.225 11.0097 157.545 11.0297 157.835 11.0597C158.125 11.0897 158.395 11.1397 158.615 11.1997C158.835 11.2697 159.005 11.3597 159.125 11.4597C159.235 11.5597 159.285 11.6797 159.285 11.8297C159.285 11.9797 159.235 12.0997 159.125 12.1897C158.995 12.2997 158.825 12.3897 158.615 12.4497C158.395 12.5097 158.125 12.5497 157.835 12.5897C157.255 12.6397 156.565 12.6397 155.975 12.5897C155.675 12.5497 155.415 12.5097 155.195 12.4497C154.975 12.3797 154.805 12.2997 154.685 12.1897C154.575 12.0897 154.515 11.9697 154.515 11.8297C154.515 11.6897 154.565 11.5697 154.685 11.4697C154.815 11.3597 154.985 11.2697 155.195 11.2097C155.415 11.1497 155.685 11.0997 155.965 11.0697C156.295 11.0397 156.585 11.0197 156.895 11.0197" fill="#002F87"/>
<path d="M162.095 8.49951H151.765C151.695 8.49951 151.645 8.54951 151.645 8.61951V9.53951C151.645 9.60951 151.695 9.65951 151.765 9.65951H162.095C162.165 9.65951 162.215 9.60951 162.215 9.53951V8.61951C162.215 8.55951 162.165 8.49951 162.095 8.49951Z" fill="#002F87"/>
<path d="M166.335 10.5996C166.335 10.6596 166.385 10.7196 166.455 10.7196H167.505C167.575 10.7196 167.625 10.6696 167.625 10.5996V8.77963H171.125C171.195 8.77963 171.245 8.72963 171.245 8.65963V7.73963C171.245 7.66963 171.195 7.61963 171.125 7.61963H163.095C163.035 7.61963 162.975 7.66963 162.975 7.73963V8.65963C162.975 8.71963 163.025 8.77963 163.095 8.77963H166.345V10.5996H166.335Z" fill="#002F87"/>
<path d="M172.985 12.2499H165.545V9.97986C165.545 9.90986 165.495 9.85986 165.425 9.85986H164.375C164.315 9.85986 164.255 9.90986 164.255 9.97986V12.5499C164.255 12.8499 164.315 13.0599 164.445 13.1899C164.565 13.3399 164.785 13.4099 165.085 13.4099H172.975C173.045 13.4099 173.095 13.3599 173.095 13.2899V12.3699C173.095 12.3099 173.045 12.2499 172.975 12.2499" fill="#002F87"/>
<path d="M169.015 9.39963V10.3296C169.015 10.3896 169.065 10.4496 169.135 10.4496H171.595V11.3796C171.595 11.4396 171.645 11.4996 171.715 11.4996H172.765C172.835 11.4996 172.885 11.4496 172.885 11.3796V2.48963C172.885 2.42963 172.835 2.36963 172.765 2.36963H171.715C171.645 2.36963 171.595 2.41963 171.595 2.48963V9.27963H169.135C169.065 9.27963 169.015 9.32963 169.015 9.39963Z" fill="#002F87"/>
<path d="M166.985 7.16975C167.945 7.16975 168.665 6.95975 169.195 6.52975C169.725 6.09975 169.985 5.48975 169.985 4.69975C169.985 3.90975 169.715 3.30975 169.185 2.86975C168.655 2.44975 167.925 2.23975 166.975 2.23975C166.025 2.23975 165.295 2.44975 164.775 2.86975C164.245 3.29975 163.985 3.91975 163.985 4.69975C163.985 5.47975 164.255 6.09975 164.775 6.50975C165.285 6.94975 166.015 7.16975 166.975 7.16975M165.715 3.69975C166.015 3.47975 166.435 3.36975 166.975 3.36975C167.515 3.36975 167.915 3.47975 168.245 3.69975C168.545 3.92975 168.695 4.26975 168.695 4.70975C168.695 5.14975 168.545 5.48975 168.245 5.70975C167.915 5.93975 167.495 6.04975 166.975 6.04975C166.455 6.04975 166.015 5.93975 165.715 5.70975C165.415 5.48975 165.265 5.17975 165.265 4.70975C165.265 4.23975 165.415 3.91975 165.715 3.69975Z" fill="#002F87"/>
<path d="M72.9451 15.0195V16.3495L74.2451 15.0195H74.8951L73.6951 16.2495L74.9251 18.0595H74.3151L73.3451 16.6095L72.9451 17.0095V18.0595H72.4451V15.0195H72.9451Z" fill="#002F87"/>
<path d="M75.375 16.9496C75.375 16.7896 75.395 16.6395 75.445 16.4995C75.495 16.3595 75.555 16.2395 75.645 16.1295C75.735 16.0295 75.835 15.9395 75.965 15.8795C76.085 15.8195 76.235 15.7896 76.395 15.7896C76.555 15.7896 76.705 15.8195 76.825 15.8795C76.955 15.9395 77.055 16.0195 77.145 16.1295C77.235 16.2395 77.295 16.3595 77.345 16.4995C77.395 16.6395 77.415 16.7896 77.415 16.9496C77.415 17.1096 77.395 17.2595 77.345 17.3995C77.295 17.5395 77.235 17.6596 77.145 17.7696C77.055 17.8696 76.955 17.9596 76.825 18.0196C76.695 18.0796 76.555 18.1096 76.395 18.1096C76.235 18.1096 76.085 18.0796 75.955 18.0196C75.825 17.9596 75.725 17.8796 75.635 17.7696C75.545 17.6696 75.485 17.5395 75.435 17.3995C75.385 17.2595 75.365 17.1096 75.365 16.9496M75.875 16.9496C75.875 17.0496 75.885 17.1396 75.915 17.2296C75.935 17.3196 75.975 17.3896 76.015 17.4596C76.055 17.5296 76.115 17.5796 76.175 17.6196C76.235 17.6596 76.315 17.6796 76.385 17.6796C76.455 17.6796 76.535 17.6596 76.605 17.6196C76.665 17.5796 76.725 17.5296 76.765 17.4596C76.805 17.3896 76.845 17.3196 76.875 17.2296C76.895 17.1396 76.915 17.0496 76.915 16.9496C76.915 16.8496 76.905 16.7595 76.875 16.6695C76.845 16.5795 76.815 16.4996 76.765 16.4396C76.715 16.3696 76.665 16.3196 76.605 16.2796C76.545 16.2396 76.465 16.2196 76.385 16.2196C76.305 16.2196 76.235 16.2396 76.175 16.2796C76.115 16.3196 76.055 16.3696 76.015 16.4396C75.975 16.5096 75.935 16.5795 75.915 16.6695C75.895 16.7595 75.875 16.8496 75.875 16.9496Z" fill="#002F87"/>
<path d="M78.0149 15.8396H78.3849L78.4649 16.1096C78.5249 16.0096 78.5949 15.9296 78.6649 15.8696C78.7349 15.8196 78.8149 15.7896 78.8949 15.7896C78.9249 15.7896 78.9649 15.7896 79.0149 15.8096C79.0749 15.8196 79.1349 15.8496 79.2149 15.8996V16.3396C79.1649 16.3196 79.1149 16.2996 79.0849 16.2896C79.0449 16.2796 79.0149 16.2696 78.9949 16.2696C78.9649 16.2696 78.9549 16.2696 78.9349 16.2696C78.9249 16.2696 78.9149 16.2696 78.9049 16.2696C78.8449 16.2696 78.7849 16.2796 78.7349 16.3096C78.6849 16.3396 78.6449 16.3695 78.6049 16.4095C78.5749 16.4495 78.5449 16.5096 78.5249 16.5596C78.5049 16.6196 78.4949 16.6795 78.4949 16.7395V18.0596H77.9949V15.8396H78.0149Z" fill="#002F87"/>
<path d="M80.0649 17.0896C80.0649 17.1696 80.0849 17.2495 80.1149 17.3195C80.1449 17.3895 80.1849 17.4596 80.2249 17.5096C80.2649 17.5596 80.3249 17.6096 80.3749 17.6396C80.4349 17.6696 80.4949 17.6896 80.5649 17.6896C80.6849 17.6896 80.7849 17.6596 80.8749 17.5896C80.9549 17.5195 81.0249 17.4196 81.0649 17.2796H81.5249C81.4949 17.4096 81.4549 17.5296 81.3949 17.6296C81.3349 17.7296 81.2549 17.8196 81.1749 17.8896C81.0849 17.9596 80.9949 18.0196 80.8849 18.0496C80.7749 18.0896 80.6749 18.1096 80.5649 18.1096C80.4049 18.1096 80.2649 18.0796 80.1449 18.0096C80.0149 17.9496 79.9149 17.8595 79.8249 17.7495C79.7349 17.6395 79.6649 17.5196 79.6249 17.3696C79.5749 17.2296 79.5549 17.0795 79.5549 16.9195C79.5549 16.7695 79.5749 16.6295 79.6249 16.4895C79.6749 16.3495 79.7449 16.2295 79.8249 16.1295C79.9149 16.0295 80.0149 15.9395 80.1449 15.8795C80.2749 15.8195 80.4149 15.7896 80.5649 15.7896C80.7149 15.7896 80.8549 15.8196 80.9749 15.8696C81.0949 15.9296 81.2049 15.9996 81.2849 16.0996C81.3749 16.1996 81.4349 16.3096 81.4849 16.4396C81.5349 16.5696 81.5549 16.7196 81.5549 16.8696V17.0695H80.0649V17.0896ZM81.0449 16.6996C81.0449 16.6296 81.0249 16.5696 80.9949 16.5096C80.9649 16.4496 80.9349 16.3996 80.8949 16.3596C80.8549 16.3196 80.8049 16.2896 80.7449 16.2596C80.6849 16.2396 80.6249 16.2296 80.5549 16.2296C80.4949 16.2296 80.4349 16.2396 80.3849 16.2696C80.3349 16.2996 80.2849 16.3296 80.2349 16.3696C80.1949 16.4096 80.1549 16.4596 80.1349 16.5196C80.1049 16.5796 80.0849 16.6396 80.0749 16.6996H81.0549H81.0449Z" fill="#002F87"/>
<path d="M84.1149 17.9995C84.1149 17.9995 84.0349 18.0495 84.0049 18.0595C83.9749 18.0695 83.9449 18.0795 83.9249 18.0895C83.9049 18.0895 83.8849 18.0995 83.8649 18.0995C83.8449 18.0995 83.8349 18.0995 83.8149 18.0995C83.7649 18.0995 83.7149 18.0995 83.6749 18.0695C83.6349 18.0495 83.5949 18.0295 83.5649 17.9895C83.5349 17.9595 83.5049 17.9195 83.4849 17.8795C83.4649 17.8395 83.4449 17.7995 83.4249 17.7495C83.3649 17.8195 83.3049 17.8695 83.2449 17.9195C83.1849 17.9595 83.1349 17.9995 83.0749 18.0195C83.0149 18.0495 82.9649 18.0595 82.9049 18.0695C82.8449 18.0795 82.7949 18.0795 82.7349 18.0795C82.6349 18.0795 82.5449 18.0695 82.4649 18.0295C82.3849 17.9995 82.3049 17.9495 82.2449 17.8995C82.1849 17.8395 82.1349 17.7695 82.0949 17.6895C82.0549 17.6095 82.0449 17.5195 82.0449 17.4195C82.0449 17.3295 82.0649 17.2595 82.1049 17.1995C82.1449 17.1395 82.1949 17.0795 82.2549 17.0395C82.3149 16.9895 82.3849 16.9495 82.4649 16.9195C82.5449 16.8895 82.6249 16.8595 82.7049 16.8295C82.7849 16.7995 82.8649 16.7795 82.9449 16.7495C83.0249 16.7295 83.0949 16.6995 83.1549 16.6695C83.2149 16.6395 83.2649 16.6095 83.3049 16.5795C83.3449 16.5495 83.3649 16.4995 83.3649 16.4595C83.3649 16.4195 83.3549 16.3695 83.3249 16.3395C83.3049 16.3095 83.2749 16.2795 83.2349 16.2595C83.1949 16.2395 83.1549 16.2295 83.1149 16.2195C83.0749 16.2195 83.0249 16.2095 82.9849 16.2095C82.9449 16.2095 82.8949 16.2095 82.8549 16.2295C82.8149 16.2395 82.7749 16.2595 82.7449 16.2895C82.7149 16.3195 82.6849 16.3495 82.6549 16.3895C82.6349 16.4295 82.6149 16.4795 82.6049 16.5395H82.0949C82.0949 16.4095 82.1349 16.2995 82.1849 16.1995C82.2349 16.1095 82.3049 16.0295 82.3849 15.9595C82.4649 15.8995 82.5549 15.8495 82.6649 15.8195C82.7649 15.7895 82.8749 15.7695 82.9849 15.7695C83.0949 15.7695 83.2049 15.7795 83.3149 15.8095C83.4149 15.8395 83.5149 15.8795 83.5949 15.9295C83.6749 15.9895 83.7349 16.0595 83.7849 16.1495C83.8349 16.2395 83.8549 16.3395 83.8549 16.4595V17.5395C83.8549 17.5395 83.8549 17.5895 83.8849 17.6195C83.9049 17.6395 83.9349 17.6595 83.9649 17.6595C83.9649 17.6595 83.9849 17.6595 84.0149 17.6595C84.0449 17.6595 84.0749 17.6395 84.1149 17.6195V17.9795V17.9995ZM83.3549 16.9995C83.3549 16.9995 83.2749 17.0395 83.2249 17.0495C83.1749 17.0695 83.1149 17.0795 83.0549 17.0995C82.9949 17.1195 82.9349 17.1295 82.8749 17.1495C82.8149 17.1695 82.7549 17.1895 82.7049 17.2195C82.6549 17.2495 82.6149 17.2695 82.5849 17.3095C82.5549 17.3395 82.5349 17.3795 82.5349 17.4295C82.5349 17.4695 82.5349 17.5095 82.5549 17.5395C82.5649 17.5695 82.5849 17.5995 82.6149 17.6195C82.6349 17.6395 82.6649 17.6595 82.6949 17.6695C82.7249 17.6695 82.7549 17.6795 82.7849 17.6795C82.8849 17.6795 82.9849 17.6495 83.0849 17.5795C83.1849 17.5095 83.2749 17.4095 83.3549 17.2695V16.9895V16.9995Z" fill="#002F87"/>
<path d="M87.4149 15.0195L88.4949 18.0595H87.9749L87.6549 17.1695H86.5849C86.5349 17.3195 86.4849 17.4695 86.4249 17.6195C86.3749 17.7695 86.3149 17.9195 86.2649 18.0595H85.7449L86.8249 15.0195H87.4049H87.4149ZM87.1249 15.6595L86.7449 16.7395H87.4949L87.1249 15.6595Z" fill="#002F87"/>
<path d="M91.0149 18.0298C91.0149 18.1898 90.9849 18.3198 90.9349 18.4398C90.8849 18.5598 90.8149 18.6598 90.7249 18.7298C90.6349 18.8098 90.5349 18.8698 90.4249 18.9098C90.3149 18.9498 90.195 18.9698 90.075 18.9698C89.965 18.9698 89.8649 18.9498 89.7749 18.9198C89.6849 18.8898 89.5949 18.8398 89.5149 18.7798C89.4349 18.7198 89.3649 18.6298 89.2949 18.5398C89.2249 18.4398 89.1749 18.3198 89.1349 18.1898H89.6249C89.6749 18.3198 89.7449 18.4098 89.8149 18.4598C89.8849 18.5198 89.975 18.5398 90.075 18.5398C90.135 18.5398 90.1949 18.5298 90.2449 18.4998C90.2949 18.4798 90.3449 18.4398 90.3849 18.3998C90.4249 18.3598 90.4549 18.2998 90.4849 18.2398C90.5049 18.1798 90.5249 18.1098 90.5249 18.0398V17.8398C90.4549 17.9198 90.3749 17.9798 90.2749 18.0198C90.1849 18.0598 90.0849 18.0798 89.9949 18.0798C89.8549 18.0798 89.7249 18.0498 89.6049 17.9898C89.4949 17.9298 89.3949 17.8498 89.3149 17.7398C89.2349 17.6398 89.1749 17.5098 89.1349 17.3698C89.0949 17.2298 89.075 17.0798 89.075 16.9198C89.075 16.7598 89.0949 16.6098 89.1349 16.4698C89.1749 16.3298 89.245 16.2098 89.325 16.0998C89.405 15.9998 89.5049 15.9098 89.6149 15.8498C89.7249 15.7898 89.8549 15.7598 89.9949 15.7598C90.0349 15.7598 90.0749 15.7598 90.1149 15.7598C90.1549 15.7598 90.1949 15.7798 90.2449 15.7898C90.2849 15.8098 90.3349 15.8298 90.3749 15.8698C90.4149 15.8998 90.465 15.9498 90.505 15.9998V15.7998H91.005V17.9898L91.0149 18.0298ZM90.5149 16.9198C90.5149 16.8198 90.5049 16.7298 90.4749 16.6498C90.4549 16.5698 90.4249 16.4898 90.3849 16.4298C90.3449 16.3698 90.3049 16.3198 90.2449 16.2798C90.1949 16.2398 90.1249 16.2198 90.0649 16.2198C89.9949 16.2198 89.9249 16.2398 89.8649 16.2798C89.8049 16.3198 89.7549 16.3698 89.7049 16.4298C89.6549 16.4998 89.6249 16.5698 89.5949 16.6598C89.5649 16.7498 89.5549 16.8398 89.5549 16.9398C89.5549 17.0398 89.5649 17.1298 89.5949 17.2198C89.6249 17.3098 89.6549 17.3898 89.7049 17.4498C89.7549 17.5198 89.8049 17.5698 89.8649 17.6098C89.9249 17.6498 89.9949 17.6698 90.0649 17.6698C90.1349 17.6698 90.195 17.6498 90.255 17.6098C90.315 17.5698 90.355 17.5198 90.395 17.4498C90.435 17.3898 90.4649 17.3098 90.4849 17.2198C90.5049 17.1298 90.5149 17.0398 90.5149 16.9398V16.9098V16.9198Z" fill="#002F87"/>
<path d="M91.7351 15.8396H92.1051L92.1851 16.1096C92.2551 16.0096 92.3151 15.9296 92.3851 15.8696C92.4551 15.8196 92.5351 15.7896 92.6151 15.7896C92.6451 15.7896 92.6851 15.7896 92.7351 15.8096C92.7951 15.8196 92.8551 15.8496 92.9351 15.8996V16.3396C92.8851 16.3196 92.8351 16.2996 92.8051 16.2896C92.7651 16.2796 92.7351 16.2696 92.7151 16.2696C92.6851 16.2696 92.6751 16.2696 92.6551 16.2696C92.6451 16.2696 92.6351 16.2696 92.6251 16.2696C92.5651 16.2696 92.5051 16.2796 92.4551 16.3096C92.4051 16.3396 92.3651 16.3695 92.3251 16.4095C92.2951 16.4495 92.2651 16.5096 92.2451 16.5596C92.2251 16.6196 92.2151 16.6795 92.2151 16.7395V18.0596H91.7151V15.8396H91.7351Z" fill="#002F87"/>
<path d="M93.865 15.5398H93.365V15.0298H93.865V15.5398ZM93.865 18.0598H93.365V15.8398H93.865V18.0598Z" fill="#002F87"/>
<path d="M95.8451 16.6296C95.8051 16.4796 95.7551 16.3795 95.6851 16.3195C95.6151 16.2495 95.5351 16.2196 95.4251 16.2196C95.3451 16.2196 95.2851 16.2396 95.2151 16.2796C95.1551 16.3196 95.1051 16.3696 95.0651 16.4296C95.0251 16.4896 94.9951 16.5695 94.9751 16.6495C94.9551 16.7295 94.9451 16.8195 94.9451 16.9095C94.9451 17.0095 94.9551 17.0996 94.9751 17.1896C94.9951 17.2796 95.0251 17.3596 95.0751 17.4296C95.1151 17.4996 95.1651 17.5596 95.2251 17.5996C95.2851 17.6396 95.3551 17.6695 95.4251 17.6695C95.4851 17.6695 95.5351 17.6596 95.5851 17.6296C95.6351 17.5996 95.6751 17.5696 95.7051 17.5196C95.7351 17.4696 95.7651 17.4196 95.7951 17.3596C95.8151 17.2996 95.8351 17.2395 95.8451 17.1695H96.3651C96.3451 17.3095 96.3151 17.4396 96.2651 17.5596C96.2151 17.6696 96.1451 17.7696 96.0651 17.8496C95.9851 17.9296 95.8851 17.9896 95.7851 18.0296C95.6751 18.0696 95.5551 18.0896 95.4251 18.0896C95.3151 18.0896 95.2151 18.0696 95.1251 18.0396C95.0351 18.0096 94.9551 17.9695 94.8851 17.9095C94.8151 17.8595 94.7551 17.7896 94.6951 17.7196C94.6451 17.6396 94.5951 17.5596 94.5651 17.4696C94.5351 17.3796 94.5051 17.2896 94.4851 17.1896C94.4651 17.0896 94.4551 16.9995 94.4551 16.8995C94.4551 16.7395 94.4751 16.5896 94.5251 16.4496C94.5751 16.3096 94.6351 16.1996 94.7251 16.0996C94.8151 15.9996 94.9151 15.9196 95.0351 15.8696C95.1551 15.8096 95.2951 15.7896 95.4451 15.7896C95.5751 15.7896 95.6951 15.8096 95.7951 15.8496C95.8951 15.8896 95.9851 15.9496 96.0651 16.0296C96.1451 16.0996 96.2051 16.1896 96.2551 16.2896C96.3051 16.3896 96.3451 16.4996 96.3651 16.6196H95.8551L95.8451 16.6296Z" fill="#002F87"/>
<path d="M98.7851 18.0598H98.2851V17.8098C98.2351 17.8698 98.1751 17.9098 98.1251 17.9498C98.0751 17.9898 98.0251 18.0198 97.9751 18.0398C97.9251 18.0598 97.8751 18.0798 97.8251 18.0898C97.7751 18.0898 97.7251 18.0998 97.6651 18.0998C97.5551 18.0998 97.4651 18.0798 97.3751 18.0498C97.2851 18.0198 97.2151 17.9698 97.1551 17.9098C97.0951 17.8498 97.0451 17.7698 97.0151 17.6898C96.9851 17.5998 96.9651 17.5098 96.9651 17.3998V15.8398H97.4651V17.3598C97.4651 17.4198 97.4651 17.4698 97.4851 17.5098C97.4951 17.5498 97.5251 17.5798 97.5451 17.6098C97.5751 17.6298 97.6051 17.6498 97.6351 17.6598C97.6751 17.6698 97.7151 17.6798 97.7551 17.6798C97.8151 17.6798 97.8851 17.6598 97.9451 17.6298C98.0051 17.5998 98.0651 17.5598 98.1151 17.4998C98.1651 17.4498 98.2051 17.3898 98.2351 17.3198C98.2651 17.2498 98.2751 17.1798 98.2751 17.0998V15.8498H98.7751V18.0698L98.7851 18.0598Z" fill="#002F87"/>
<path d="M100.015 15.0195H99.5149V18.0595H100.015V15.0195Z" fill="#002F87"/>
<path d="M101.345 15.2397V15.8497H101.745V16.2697H101.345V17.4797C101.345 17.5397 101.355 17.5897 101.385 17.6297C101.415 17.6697 101.455 17.6897 101.495 17.6897C101.515 17.6897 101.545 17.6897 101.585 17.6897C101.635 17.6897 101.695 17.6697 101.775 17.6297V18.0397C101.685 18.0697 101.605 18.0897 101.525 18.0997C101.445 18.0997 101.385 18.1097 101.335 18.1097C101.265 18.1097 101.205 18.0997 101.145 18.0697C101.085 18.0397 101.035 17.9997 100.985 17.9497C100.935 17.8997 100.905 17.8397 100.875 17.7697C100.845 17.6997 100.835 17.6197 100.835 17.5297V16.2697H100.535V15.8497H100.835V15.2397H101.345Z" fill="#002F87"/>
<path d="M104.145 18.0598H103.645V17.8098C103.595 17.8698 103.535 17.9098 103.485 17.9498C103.435 17.9898 103.385 18.0198 103.335 18.0398C103.285 18.0598 103.235 18.0798 103.185 18.0898C103.135 18.0898 103.085 18.0998 103.025 18.0998C102.915 18.0998 102.825 18.0798 102.735 18.0498C102.645 18.0198 102.575 17.9698 102.515 17.9098C102.455 17.8498 102.405 17.7698 102.375 17.6898C102.345 17.5998 102.325 17.5098 102.325 17.3998V15.8398H102.825V17.3598C102.825 17.4198 102.825 17.4698 102.845 17.5098C102.855 17.5498 102.875 17.5798 102.905 17.6098C102.935 17.6298 102.965 17.6498 102.995 17.6598C103.035 17.6698 103.065 17.6798 103.115 17.6798C103.185 17.6798 103.245 17.6598 103.305 17.6298C103.365 17.5998 103.425 17.5598 103.475 17.4998C103.525 17.4498 103.565 17.3898 103.595 17.3198C103.625 17.2498 103.645 17.1798 103.645 17.0998V15.8498H104.145V18.0698V18.0598Z" fill="#002F87"/>
<path d="M104.885 15.8396H105.255L105.335 16.1096C105.405 16.0096 105.465 15.9296 105.535 15.8696C105.605 15.8196 105.685 15.7896 105.765 15.7896C105.795 15.7896 105.835 15.7896 105.885 15.8096C105.945 15.8196 106.005 15.8496 106.085 15.8996V16.3396C106.035 16.3196 105.985 16.2996 105.955 16.2896C105.915 16.2796 105.885 16.2696 105.865 16.2696C105.835 16.2696 105.825 16.2696 105.805 16.2696C105.795 16.2696 105.785 16.2696 105.775 16.2696C105.715 16.2696 105.655 16.2796 105.605 16.3096C105.555 16.3396 105.515 16.3695 105.475 16.4095C105.445 16.4495 105.415 16.5096 105.395 16.5596C105.375 16.6196 105.365 16.6795 105.365 16.7395V18.0596H104.865V15.8396H104.885Z" fill="#002F87"/>
<path d="M106.935 17.0896C106.935 17.1696 106.955 17.2495 106.985 17.3195C107.015 17.3895 107.055 17.4596 107.095 17.5096C107.135 17.5596 107.195 17.6096 107.245 17.6396C107.305 17.6696 107.365 17.6896 107.435 17.6896C107.555 17.6896 107.655 17.6596 107.745 17.5896C107.825 17.5195 107.895 17.4196 107.935 17.2796H108.395C108.365 17.4096 108.325 17.5296 108.265 17.6296C108.205 17.7296 108.125 17.8196 108.045 17.8896C107.955 17.9596 107.865 18.0196 107.755 18.0496C107.645 18.0896 107.545 18.1096 107.435 18.1096C107.285 18.1096 107.135 18.0796 107.015 18.0096C106.885 17.9496 106.785 17.8595 106.695 17.7495C106.605 17.6395 106.535 17.5196 106.495 17.3696C106.445 17.2296 106.425 17.0795 106.425 16.9195C106.425 16.7695 106.445 16.6295 106.495 16.4895C106.545 16.3495 106.615 16.2295 106.695 16.1295C106.785 16.0295 106.885 15.9395 107.015 15.8795C107.145 15.8195 107.285 15.7896 107.435 15.7896C107.585 15.7896 107.725 15.8196 107.845 15.8696C107.965 15.9296 108.075 15.9996 108.155 16.0996C108.245 16.1996 108.305 16.3096 108.355 16.4396C108.405 16.5696 108.425 16.7196 108.425 16.8696V17.0695H106.935V17.0896ZM107.915 16.6996C107.915 16.6296 107.895 16.5696 107.865 16.5096C107.835 16.4496 107.805 16.3996 107.765 16.3596C107.725 16.3196 107.675 16.2896 107.615 16.2596C107.555 16.2396 107.495 16.2296 107.425 16.2296C107.365 16.2296 107.305 16.2396 107.245 16.2696C107.195 16.2996 107.145 16.3296 107.095 16.3696C107.055 16.4096 107.015 16.4596 106.995 16.5196C106.965 16.5796 106.945 16.6396 106.935 16.6996H107.915Z" fill="#002F87"/>
<path d="M112.565 15.0195V15.4595H111.635V18.0595H111.125V15.4595H110.195V15.0195H112.565Z" fill="#002F87"/>
<path d="M113.625 17.0896C113.625 17.1696 113.645 17.2495 113.675 17.3195C113.705 17.3895 113.745 17.4596 113.785 17.5096C113.835 17.5596 113.885 17.6096 113.935 17.6396C113.995 17.6696 114.055 17.6896 114.125 17.6896C114.245 17.6896 114.345 17.6596 114.425 17.5896C114.505 17.5195 114.575 17.4196 114.615 17.2796H115.075C115.045 17.4096 115.005 17.5296 114.945 17.6296C114.885 17.7296 114.805 17.8196 114.725 17.8896C114.635 17.9596 114.545 18.0196 114.435 18.0496C114.335 18.0896 114.225 18.1096 114.115 18.1096C113.955 18.1096 113.815 18.0796 113.695 18.0096C113.565 17.9496 113.465 17.8595 113.375 17.7495C113.285 17.6395 113.215 17.5196 113.175 17.3696C113.125 17.2296 113.105 17.0795 113.105 16.9195C113.105 16.7695 113.125 16.6295 113.175 16.4895C113.225 16.3495 113.295 16.2295 113.375 16.1295C113.465 16.0295 113.565 15.9395 113.695 15.8795C113.825 15.8195 113.965 15.7896 114.115 15.7896C114.265 15.7896 114.405 15.8196 114.525 15.8696C114.645 15.9296 114.755 15.9996 114.835 16.0996C114.925 16.1996 114.985 16.3096 115.035 16.4396C115.085 16.5696 115.105 16.7196 115.105 16.8696V17.0695H113.615L113.625 17.0896ZM114.605 16.6996C114.605 16.6296 114.585 16.5696 114.555 16.5096C114.525 16.4496 114.495 16.3996 114.455 16.3596C114.415 16.3196 114.365 16.2896 114.305 16.2596C114.245 16.2396 114.185 16.2296 114.115 16.2296C114.055 16.2296 113.995 16.2396 113.945 16.2696C113.895 16.2996 113.845 16.3296 113.795 16.3696C113.755 16.4096 113.715 16.4596 113.685 16.5196C113.655 16.5796 113.635 16.6396 113.625 16.6996H114.605Z" fill="#002F87"/>
<path d="M116.985 16.6296C116.945 16.4796 116.895 16.3795 116.825 16.3195C116.755 16.2495 116.675 16.2196 116.575 16.2196C116.495 16.2196 116.435 16.2396 116.365 16.2796C116.305 16.3196 116.255 16.3696 116.215 16.4296C116.175 16.4896 116.145 16.5695 116.125 16.6495C116.105 16.7295 116.095 16.8195 116.095 16.9095C116.095 17.0095 116.105 17.0996 116.125 17.1896C116.145 17.2796 116.175 17.3596 116.225 17.4296C116.265 17.4996 116.315 17.5596 116.375 17.5996C116.435 17.6396 116.505 17.6695 116.575 17.6695C116.635 17.6695 116.685 17.6596 116.735 17.6296C116.785 17.5996 116.825 17.5696 116.855 17.5196C116.885 17.4696 116.915 17.4196 116.945 17.3596C116.965 17.2996 116.985 17.2395 116.995 17.1695H117.515C117.495 17.3095 117.465 17.4396 117.415 17.5596C117.365 17.6696 117.295 17.7696 117.215 17.8496C117.135 17.9296 117.035 17.9896 116.935 18.0296C116.825 18.0696 116.705 18.0896 116.575 18.0896C116.465 18.0896 116.365 18.0696 116.275 18.0396C116.185 18.0096 116.105 17.9695 116.035 17.9095C115.965 17.8595 115.905 17.7896 115.845 17.7196C115.795 17.6396 115.745 17.5596 115.715 17.4696C115.675 17.3796 115.655 17.2896 115.635 17.1896C115.615 17.0896 115.605 16.9995 115.605 16.8995C115.605 16.7395 115.625 16.5896 115.675 16.4496C115.725 16.3096 115.785 16.1996 115.875 16.0996C115.965 15.9996 116.065 15.9196 116.185 15.8696C116.305 15.8096 116.445 15.7896 116.595 15.7896C116.725 15.7896 116.845 15.8096 116.945 15.8496C117.045 15.8896 117.135 15.9496 117.215 16.0296C117.295 16.0996 117.355 16.1896 117.405 16.2896C117.455 16.3896 117.495 16.4996 117.515 16.6196H117.005L116.985 16.6296Z" fill="#002F87"/>
<path d="M118.615 15.0198V16.0798C118.775 15.8898 118.965 15.7998 119.205 15.7998C119.315 15.7998 119.415 15.8198 119.505 15.8498C119.595 15.8898 119.675 15.9398 119.735 15.9998C119.795 16.0598 119.845 16.1398 119.885 16.2198C119.915 16.3098 119.935 16.3998 119.935 16.4898V18.0498H119.435V16.6098C119.435 16.5398 119.425 16.4798 119.405 16.4298C119.385 16.3798 119.365 16.3398 119.335 16.3098C119.305 16.2798 119.265 16.2598 119.225 16.2398C119.185 16.2198 119.145 16.2198 119.105 16.2198C119.045 16.2198 118.985 16.2298 118.935 16.2598C118.875 16.2898 118.825 16.3198 118.775 16.3698C118.725 16.4198 118.695 16.4698 118.665 16.5298C118.635 16.5898 118.625 16.6598 118.625 16.7298V18.0498H118.125V15.0098H118.625L118.615 15.0198Z" fill="#002F87"/>
<path d="M120.695 15.8398H121.195V16.0998C121.285 15.9898 121.385 15.9098 121.495 15.8698C121.595 15.8198 121.705 15.7998 121.805 15.7998C121.915 15.7998 122.015 15.8198 122.105 15.8498C122.195 15.8798 122.265 15.9298 122.325 15.9898C122.385 16.0498 122.435 16.1298 122.465 16.2098C122.495 16.2998 122.515 16.3898 122.515 16.4998V18.0598H122.005V16.5798C122.005 16.5198 122.005 16.4798 121.985 16.4298C121.965 16.3898 121.945 16.3498 121.925 16.3198C121.895 16.2898 121.865 16.2698 121.835 16.2498C121.795 16.2298 121.755 16.2298 121.715 16.2298C121.645 16.2298 121.585 16.2398 121.525 16.2698C121.465 16.2998 121.405 16.3398 121.365 16.3898C121.315 16.4398 121.275 16.4898 121.255 16.5498C121.225 16.6098 121.215 16.6798 121.215 16.7398V18.0598H120.715V15.8398H120.695Z" fill="#002F87"/>
<path d="M123.135 16.9496C123.135 16.7896 123.155 16.6395 123.205 16.4995C123.255 16.3595 123.315 16.2395 123.405 16.1295C123.495 16.0295 123.595 15.9395 123.725 15.8795C123.855 15.8195 123.995 15.7896 124.155 15.7896C124.315 15.7896 124.465 15.8195 124.585 15.8795C124.715 15.9395 124.815 16.0195 124.905 16.1295C124.995 16.2395 125.055 16.3595 125.105 16.4995C125.155 16.6395 125.175 16.7896 125.175 16.9496C125.175 17.1096 125.155 17.2595 125.105 17.3995C125.055 17.5395 124.995 17.6596 124.905 17.7696C124.815 17.8696 124.715 17.9596 124.585 18.0196C124.455 18.0796 124.315 18.1096 124.155 18.1096C123.995 18.1096 123.845 18.0796 123.715 18.0196C123.585 17.9596 123.485 17.8796 123.395 17.7696C123.305 17.6696 123.245 17.5395 123.195 17.3995C123.145 17.2595 123.125 17.1096 123.125 16.9496M123.635 16.9496C123.635 17.0496 123.645 17.1396 123.675 17.2296C123.695 17.3196 123.735 17.3896 123.775 17.4596C123.815 17.5296 123.875 17.5796 123.935 17.6196C123.995 17.6596 124.075 17.6796 124.145 17.6796C124.215 17.6796 124.295 17.6596 124.355 17.6196C124.415 17.5796 124.475 17.5296 124.515 17.4596C124.555 17.3896 124.595 17.3196 124.615 17.2296C124.635 17.1396 124.655 17.0496 124.655 16.9496C124.655 16.8496 124.645 16.7595 124.615 16.6695C124.585 16.5795 124.555 16.4996 124.515 16.4396C124.465 16.3696 124.415 16.3196 124.355 16.2796C124.295 16.2396 124.215 16.2196 124.145 16.2196C124.075 16.2196 123.995 16.2396 123.935 16.2796C123.875 16.3196 123.815 16.3696 123.775 16.4396C123.735 16.5096 123.695 16.5795 123.675 16.6695C123.655 16.7595 123.635 16.8496 123.635 16.9496Z" fill="#002F87"/>
<path d="M126.255 15.0195H125.755V18.0595H126.255V15.0195Z" fill="#002F87"/>
<path d="M126.835 16.9496C126.835 16.7896 126.855 16.6395 126.905 16.4995C126.955 16.3595 127.015 16.2395 127.105 16.1295C127.195 16.0295 127.295 15.9395 127.425 15.8795C127.555 15.8195 127.695 15.7896 127.855 15.7896C128.015 15.7896 128.165 15.8195 128.285 15.8795C128.415 15.9395 128.515 16.0195 128.605 16.1295C128.695 16.2395 128.755 16.3595 128.805 16.4995C128.855 16.6395 128.875 16.7896 128.875 16.9496C128.875 17.1096 128.855 17.2595 128.805 17.3995C128.755 17.5395 128.695 17.6596 128.605 17.7696C128.515 17.8696 128.415 17.9596 128.285 18.0196C128.155 18.0796 128.015 18.1096 127.855 18.1096C127.695 18.1096 127.545 18.0796 127.425 18.0196C127.295 17.9596 127.195 17.8796 127.105 17.7696C127.015 17.6696 126.955 17.5395 126.905 17.3995C126.855 17.2595 126.835 17.1096 126.835 16.9496ZM127.345 16.9496C127.345 17.0496 127.355 17.1396 127.385 17.2296C127.405 17.3196 127.445 17.3896 127.485 17.4596C127.535 17.5296 127.585 17.5796 127.645 17.6196C127.705 17.6596 127.785 17.6796 127.855 17.6796C127.925 17.6796 128.005 17.6596 128.065 17.6196C128.125 17.5796 128.185 17.5296 128.225 17.4596C128.275 17.3896 128.305 17.3196 128.335 17.2296C128.365 17.1396 128.375 17.0496 128.375 16.9496C128.375 16.8496 128.365 16.7595 128.335 16.6695C128.315 16.5795 128.275 16.4996 128.225 16.4396C128.175 16.3696 128.125 16.3196 128.065 16.2796C128.005 16.2396 127.925 16.2196 127.855 16.2196C127.785 16.2196 127.705 16.2396 127.645 16.2796C127.585 16.3196 127.525 16.3696 127.485 16.4396C127.445 16.5096 127.405 16.5795 127.385 16.6695C127.365 16.7595 127.345 16.8496 127.345 16.9496Z" fill="#002F87"/>
<path d="M131.325 18.0298C131.325 18.1898 131.295 18.3198 131.245 18.4398C131.195 18.5598 131.125 18.6598 131.035 18.7298C130.945 18.8098 130.845 18.8698 130.735 18.9098C130.625 18.9498 130.505 18.9698 130.385 18.9698C130.275 18.9698 130.175 18.9498 130.085 18.9198C129.995 18.8898 129.905 18.8398 129.825 18.7798C129.745 18.7198 129.675 18.6298 129.605 18.5398C129.545 18.4398 129.485 18.3198 129.445 18.1898H129.935C129.985 18.3198 130.055 18.4098 130.125 18.4598C130.195 18.5198 130.285 18.5398 130.385 18.5398C130.445 18.5398 130.505 18.5298 130.555 18.4998C130.605 18.4798 130.655 18.4398 130.695 18.3998C130.735 18.3598 130.765 18.2998 130.795 18.2398C130.815 18.1798 130.835 18.1098 130.835 18.0398V17.8398C130.765 17.9198 130.685 17.9798 130.585 18.0198C130.495 18.0598 130.405 18.0798 130.305 18.0798C130.165 18.0798 130.035 18.0498 129.915 17.9898C129.805 17.9298 129.705 17.8498 129.625 17.7398C129.545 17.6398 129.485 17.5098 129.445 17.3698C129.405 17.2298 129.385 17.0798 129.385 16.9198C129.385 16.7598 129.405 16.6098 129.445 16.4698C129.485 16.3298 129.555 16.2098 129.635 16.0998C129.715 15.9998 129.815 15.9098 129.925 15.8498C130.035 15.7898 130.165 15.7598 130.305 15.7598C130.345 15.7598 130.385 15.7598 130.425 15.7598C130.465 15.7598 130.505 15.7798 130.555 15.7898C130.595 15.8098 130.645 15.8298 130.685 15.8698C130.725 15.8998 130.775 15.9498 130.815 15.9998V15.7998H131.315V17.9898L131.325 18.0298ZM130.825 16.9198C130.825 16.8198 130.815 16.7298 130.785 16.6498C130.765 16.5698 130.735 16.4898 130.695 16.4298C130.655 16.3698 130.615 16.3198 130.555 16.2798C130.505 16.2398 130.445 16.2198 130.375 16.2198C130.305 16.2198 130.235 16.2398 130.175 16.2798C130.115 16.3198 130.065 16.3698 130.015 16.4298C129.965 16.4998 129.935 16.5698 129.905 16.6598C129.875 16.7498 129.865 16.8398 129.865 16.9398C129.865 17.0398 129.875 17.1298 129.905 17.2198C129.935 17.3098 129.965 17.3898 130.015 17.4498C130.065 17.5198 130.115 17.5698 130.175 17.6098C130.235 17.6498 130.305 17.6698 130.375 17.6698C130.445 17.6698 130.505 17.6498 130.565 17.6098C130.615 17.5698 130.665 17.5198 130.705 17.4498C130.745 17.3898 130.775 17.3098 130.795 17.2198C130.815 17.1298 130.825 17.0398 130.825 16.9398V16.9098V16.9198Z" fill="#002F87"/>
<path d="M132.815 17.3096L133.305 15.8496H133.815L132.915 18.4696C132.885 18.5596 132.845 18.6296 132.805 18.6896C132.765 18.7496 132.715 18.7996 132.665 18.8396C132.615 18.8796 132.565 18.9096 132.505 18.9296C132.455 18.9496 132.405 18.9596 132.355 18.9596C132.315 18.9596 132.265 18.9596 132.195 18.9396C132.135 18.9196 132.075 18.8996 132.015 18.8696V18.4696C132.065 18.4996 132.115 18.5196 132.155 18.5296C132.195 18.5396 132.225 18.5496 132.245 18.5496C132.275 18.5496 132.315 18.5396 132.335 18.5196C132.365 18.4996 132.385 18.4696 132.405 18.4196C132.425 18.3796 132.445 18.3196 132.475 18.2496C132.495 18.1796 132.525 18.0996 132.545 18.0096C132.525 17.9596 132.505 17.9096 132.485 17.8496C132.465 17.7996 132.445 17.7296 132.415 17.6596C132.385 17.5896 132.355 17.4996 132.325 17.3996C132.285 17.2996 132.245 17.1796 132.195 17.0296C132.145 16.8896 132.085 16.7196 132.015 16.5296C131.945 16.3396 131.865 16.1096 131.775 15.8596H132.305L132.795 17.3196L132.815 17.3096Z" fill="#002F87"/>
<path d="M135.645 15.0198H136.815C136.965 15.0198 137.105 15.0498 137.225 15.0998C137.345 15.1498 137.445 15.2198 137.525 15.3098C137.605 15.3998 137.665 15.4898 137.705 15.5998C137.745 15.7098 137.765 15.8198 137.765 15.9198C137.765 16.0298 137.745 16.1498 137.705 16.2598C137.665 16.3698 137.605 16.4698 137.525 16.5498C137.445 16.6398 137.345 16.6998 137.225 16.7498C137.105 16.7998 136.975 16.8298 136.815 16.8298H136.145V18.0498H135.645V15.0098V15.0198ZM136.145 16.3998H136.715C136.815 16.3998 136.905 16.3898 136.975 16.3598C137.045 16.3398 137.105 16.2998 137.145 16.2598C137.185 16.2198 137.215 16.1698 137.235 16.1098C137.255 16.0498 137.265 15.9898 137.265 15.9198C137.265 15.8498 137.255 15.7898 137.225 15.7298C137.205 15.6698 137.165 15.6198 137.115 15.5798C137.065 15.5398 137.015 15.5098 136.945 15.4798C136.875 15.4598 136.795 15.4398 136.705 15.4398H136.135V16.3898L136.145 16.3998Z" fill="#002F87"/>
<path d="M138.435 15.8396H138.805L138.885 16.1096C138.955 16.0096 139.015 15.9296 139.085 15.8696C139.155 15.8196 139.235 15.7896 139.315 15.7896C139.345 15.7896 139.385 15.7896 139.435 15.8096C139.495 15.8196 139.555 15.8496 139.635 15.8996V16.3396C139.585 16.3196 139.535 16.2996 139.505 16.2896C139.465 16.2796 139.435 16.2696 139.415 16.2696C139.395 16.2696 139.375 16.2696 139.355 16.2696C139.345 16.2696 139.335 16.2696 139.325 16.2696C139.265 16.2696 139.205 16.2796 139.155 16.3096C139.105 16.3396 139.065 16.3695 139.025 16.4095C138.995 16.4495 138.965 16.5096 138.945 16.5596C138.925 16.6196 138.915 16.6795 138.915 16.7395V18.0596H138.415V15.8396H138.435Z" fill="#002F87"/>
<path d="M139.965 16.9496C139.965 16.7896 139.985 16.6395 140.035 16.4995C140.085 16.3595 140.145 16.2395 140.235 16.1295C140.325 16.0295 140.425 15.9395 140.555 15.8795C140.685 15.8195 140.825 15.7896 140.985 15.7896C141.145 15.7896 141.295 15.8195 141.415 15.8795C141.545 15.9395 141.645 16.0195 141.735 16.1295C141.825 16.2395 141.885 16.3595 141.935 16.4995C141.985 16.6395 142.005 16.7896 142.005 16.9496C142.005 17.1096 141.985 17.2595 141.935 17.3995C141.895 17.5395 141.825 17.6596 141.735 17.7696C141.645 17.8696 141.545 17.9596 141.415 18.0196C141.285 18.0796 141.145 18.1096 140.985 18.1096C140.825 18.1096 140.675 18.0796 140.545 18.0196C140.415 17.9596 140.315 17.8796 140.225 17.7696C140.135 17.6696 140.075 17.5395 140.025 17.3995C139.975 17.2595 139.955 17.1096 139.955 16.9496M140.465 16.9496C140.465 17.0496 140.475 17.1396 140.505 17.2296C140.525 17.3196 140.565 17.3896 140.605 17.4596C140.645 17.5296 140.705 17.5796 140.765 17.6196C140.825 17.6596 140.905 17.6796 140.985 17.6796C141.065 17.6796 141.135 17.6596 141.195 17.6196C141.255 17.5796 141.315 17.5296 141.355 17.4596C141.395 17.3896 141.435 17.3196 141.465 17.2296C141.485 17.1396 141.505 17.0496 141.505 16.9496C141.505 16.8496 141.495 16.7595 141.465 16.6695C141.435 16.5795 141.405 16.4996 141.355 16.4396C141.305 16.3696 141.255 16.3196 141.195 16.2796C141.135 16.2396 141.065 16.2196 140.985 16.2196C140.905 16.2196 140.835 16.2396 140.765 16.2796C140.705 16.3196 140.645 16.3696 140.605 16.4396C140.565 16.5096 140.525 16.5795 140.505 16.6695C140.485 16.7595 140.465 16.8496 140.465 16.9496Z" fill="#002F87"/>
<path d="M142.655 15.8398H143.155V16.0798C143.235 15.9798 143.325 15.9098 143.425 15.8698C143.515 15.8298 143.605 15.7998 143.685 15.7998C143.735 15.7998 143.785 15.7998 143.835 15.8198C143.885 15.8298 143.925 15.8498 143.975 15.8798C144.015 15.9098 144.065 15.9498 144.105 15.9998C144.145 16.0498 144.185 16.1198 144.235 16.1998C144.285 16.1198 144.335 16.0598 144.395 16.0098C144.455 15.9598 144.505 15.9198 144.565 15.8898C144.625 15.8598 144.675 15.8398 144.735 15.8198C144.795 15.8098 144.845 15.7998 144.905 15.7998C145.015 15.7998 145.115 15.8198 145.205 15.8598C145.295 15.8998 145.365 15.9498 145.435 16.0198C145.495 16.0898 145.545 16.1698 145.575 16.2698C145.605 16.3598 145.625 16.4698 145.625 16.5798V18.0598H145.125V16.5998C145.125 16.5298 145.125 16.4698 145.095 16.4198C145.075 16.3698 145.055 16.3398 145.025 16.3098C144.995 16.2798 144.965 16.2598 144.925 16.2498C144.885 16.2398 144.855 16.2298 144.815 16.2298C144.765 16.2298 144.715 16.2398 144.665 16.2698C144.615 16.2898 144.575 16.3298 144.525 16.3698C144.485 16.4098 144.455 16.4698 144.425 16.5198C144.395 16.5798 144.385 16.6398 144.385 16.7098V18.0498H143.885V16.5898C143.885 16.5198 143.885 16.4598 143.855 16.4098C143.835 16.3598 143.815 16.3298 143.785 16.2998C143.755 16.2698 143.725 16.2498 143.695 16.2398C143.665 16.2298 143.635 16.2198 143.605 16.2198C143.545 16.2198 143.485 16.2398 143.425 16.2698C143.365 16.2998 143.315 16.3398 143.275 16.3898C143.235 16.4398 143.205 16.4898 143.175 16.5498C143.155 16.6098 143.135 16.6698 143.135 16.7198V18.0398H142.635V15.8198L142.655 15.8398Z" fill="#002F87"/>
<path d="M146.255 16.9496C146.255 16.7896 146.275 16.6395 146.325 16.4995C146.375 16.3595 146.435 16.2395 146.525 16.1295C146.615 16.0295 146.715 15.9395 146.845 15.8795C146.975 15.8195 147.115 15.7896 147.275 15.7896C147.435 15.7896 147.585 15.8195 147.705 15.8795C147.835 15.9395 147.935 16.0195 148.025 16.1295C148.115 16.2395 148.175 16.3595 148.225 16.4995C148.275 16.6395 148.295 16.7896 148.295 16.9496C148.295 17.1096 148.275 17.2595 148.225 17.3995C148.175 17.5395 148.115 17.6596 148.025 17.7696C147.935 17.8696 147.835 17.9596 147.705 18.0196C147.575 18.0796 147.435 18.1096 147.275 18.1096C147.115 18.1096 146.965 18.0796 146.845 18.0196C146.715 17.9596 146.615 17.8796 146.525 17.7696C146.435 17.6696 146.375 17.5395 146.325 17.3995C146.275 17.2595 146.255 17.1096 146.255 16.9496ZM146.765 16.9496C146.765 17.0496 146.775 17.1396 146.805 17.2296C146.825 17.3196 146.865 17.3896 146.905 17.4596C146.955 17.5296 147.005 17.5796 147.065 17.6196C147.125 17.6596 147.205 17.6796 147.285 17.6796C147.365 17.6796 147.435 17.6596 147.495 17.6196C147.555 17.5796 147.615 17.5296 147.655 17.4596C147.705 17.3896 147.735 17.3196 147.755 17.2296C147.785 17.1396 147.795 17.0496 147.795 16.9496C147.795 16.8496 147.785 16.7595 147.755 16.6695C147.735 16.5795 147.695 16.4996 147.655 16.4396C147.605 16.3696 147.555 16.3196 147.495 16.2796C147.435 16.2396 147.355 16.2196 147.285 16.2196C147.215 16.2196 147.135 16.2396 147.065 16.2796C147.005 16.3196 146.945 16.3696 146.905 16.4396C146.865 16.5096 146.825 16.5795 146.805 16.6695C146.785 16.7595 146.765 16.8496 146.765 16.9496Z" fill="#002F87"/>
<path d="M149.525 15.2397V15.8497H149.925V16.2697H149.525V17.4797C149.525 17.5397 149.535 17.5897 149.565 17.6297C149.595 17.6697 149.635 17.6897 149.675 17.6897C149.695 17.6897 149.725 17.6897 149.765 17.6897C149.815 17.6897 149.875 17.6697 149.955 17.6297V18.0397C149.865 18.0697 149.785 18.0897 149.705 18.0997C149.625 18.0997 149.565 18.1097 149.515 18.1097C149.445 18.1097 149.385 18.0997 149.325 18.0697C149.265 18.0397 149.215 17.9997 149.165 17.9497C149.115 17.8997 149.085 17.8397 149.055 17.7697C149.025 17.6997 149.015 17.6197 149.015 17.5297V16.2697H148.715V15.8497H149.015V15.2397H149.525Z" fill="#002F87"/>
<path d="M150.975 15.5398H150.475V15.0298H150.975V15.5398ZM150.975 18.0598H150.475V15.8398H150.975V18.0598Z" fill="#002F87"/>
<path d="M151.555 16.9496C151.555 16.7896 151.575 16.6395 151.625 16.4995C151.675 16.3595 151.735 16.2395 151.825 16.1295C151.915 16.0295 152.015 15.9395 152.145 15.8795C152.275 15.8195 152.415 15.7896 152.575 15.7896C152.735 15.7896 152.885 15.8195 153.005 15.8795C153.135 15.9395 153.235 16.0195 153.325 16.1295C153.415 16.2395 153.475 16.3595 153.525 16.4995C153.575 16.6395 153.595 16.7896 153.595 16.9496C153.595 17.1096 153.575 17.2595 153.525 17.3995C153.475 17.5395 153.415 17.6596 153.325 17.7696C153.235 17.8696 153.135 17.9596 153.005 18.0196C152.875 18.0796 152.735 18.1096 152.575 18.1096C152.415 18.1096 152.265 18.0796 152.145 18.0196C152.015 17.9596 151.915 17.8796 151.825 17.7696C151.735 17.6696 151.675 17.5395 151.625 17.3995C151.575 17.2595 151.555 17.1096 151.555 16.9496ZM152.065 16.9496C152.065 17.0496 152.075 17.1396 152.105 17.2296C152.125 17.3196 152.165 17.3896 152.205 17.4596C152.245 17.5296 152.305 17.5796 152.365 17.6196C152.425 17.6596 152.505 17.6796 152.575 17.6796C152.645 17.6796 152.725 17.6596 152.785 17.6196C152.845 17.5796 152.905 17.5296 152.945 17.4596C152.995 17.3896 153.025 17.3196 153.055 17.2296C153.085 17.1396 153.095 17.0496 153.095 16.9496C153.095 16.8496 153.085 16.7595 153.055 16.6695C153.035 16.5795 152.995 16.4996 152.945 16.4396C152.895 16.3696 152.845 16.3196 152.785 16.2796C152.725 16.2396 152.645 16.2196 152.575 16.2196C152.505 16.2196 152.425 16.2396 152.365 16.2796C152.305 16.3196 152.245 16.3696 152.205 16.4396C152.165 16.5096 152.125 16.5795 152.105 16.6695C152.085 16.7595 152.065 16.8496 152.065 16.9496Z" fill="#002F87"/>
<path d="M154.215 15.8398H154.715V16.0998C154.805 15.9898 154.905 15.9098 155.005 15.8698C155.105 15.8198 155.215 15.7998 155.325 15.7998C155.435 15.7998 155.535 15.8198 155.625 15.8498C155.715 15.8798 155.785 15.9298 155.845 15.9898C155.905 16.0498 155.955 16.1298 155.985 16.2098C156.015 16.2998 156.035 16.3898 156.035 16.4998V18.0598H155.525V16.5798C155.525 16.5198 155.525 16.4798 155.505 16.4298C155.485 16.3898 155.465 16.3498 155.445 16.3198C155.415 16.2898 155.385 16.2698 155.355 16.2498C155.315 16.2298 155.275 16.2298 155.235 16.2298C155.165 16.2298 155.105 16.2398 155.045 16.2698C154.985 16.2998 154.925 16.3398 154.885 16.3898C154.835 16.4398 154.795 16.4898 154.775 16.5498C154.745 16.6098 154.735 16.6798 154.735 16.7398V18.0598H154.235V15.8398H154.215Z" fill="#002F87"/>
<path d="M159.615 15.0195L160.695 18.0595H160.175L159.855 17.1695H158.785C158.735 17.3195 158.685 17.4695 158.625 17.6195C158.575 17.7695 158.515 17.9195 158.465 18.0595H157.945L159.025 15.0195H159.605H159.615ZM159.325 15.6595L158.945 16.7395H159.695L159.325 15.6595Z" fill="#002F87"/>
<path d="M163.215 18.0298C163.215 18.1898 163.185 18.3198 163.135 18.4398C163.085 18.5598 163.015 18.6598 162.925 18.7298C162.835 18.8098 162.735 18.8698 162.625 18.9098C162.515 18.9498 162.395 18.9698 162.275 18.9698C162.165 18.9698 162.065 18.9498 161.975 18.9198C161.885 18.8898 161.795 18.8398 161.715 18.7798C161.635 18.7198 161.565 18.6298 161.495 18.5398C161.435 18.4398 161.375 18.3198 161.335 18.1898H161.825C161.875 18.3198 161.945 18.4098 162.015 18.4598C162.085 18.5198 162.175 18.5398 162.275 18.5398C162.335 18.5398 162.395 18.5298 162.445 18.4998C162.495 18.4798 162.545 18.4398 162.585 18.3998C162.625 18.3598 162.655 18.2998 162.685 18.2398C162.705 18.1798 162.725 18.1098 162.725 18.0398V17.8398C162.655 17.9198 162.575 17.9798 162.475 18.0198C162.385 18.0598 162.285 18.0798 162.195 18.0798C162.055 18.0798 161.925 18.0498 161.805 17.9898C161.695 17.9298 161.595 17.8498 161.515 17.7398C161.435 17.6398 161.375 17.5098 161.335 17.3698C161.295 17.2298 161.275 17.0798 161.275 16.9198C161.275 16.7598 161.295 16.6098 161.335 16.4698C161.375 16.3298 161.445 16.2098 161.525 16.0998C161.605 15.9998 161.705 15.9098 161.815 15.8498C161.925 15.7898 162.055 15.7598 162.195 15.7598C162.235 15.7598 162.275 15.7598 162.315 15.7598C162.355 15.7598 162.395 15.7798 162.445 15.7898C162.485 15.8098 162.535 15.8298 162.575 15.8698C162.615 15.8998 162.665 15.9498 162.705 15.9998V15.7998H163.205V17.9898L163.215 18.0298ZM162.715 16.9198C162.715 16.8198 162.705 16.7298 162.675 16.6498C162.655 16.5698 162.625 16.4898 162.585 16.4298C162.545 16.3698 162.505 16.3198 162.445 16.2798C162.395 16.2398 162.325 16.2198 162.265 16.2198C162.205 16.2198 162.125 16.2398 162.065 16.2798C162.005 16.3198 161.945 16.3698 161.905 16.4298C161.855 16.4998 161.825 16.5698 161.795 16.6598C161.765 16.7498 161.755 16.8398 161.755 16.9398C161.755 17.0398 161.765 17.1298 161.795 17.2198C161.825 17.3098 161.855 17.3898 161.905 17.4498C161.955 17.5198 162.005 17.5698 162.065 17.6098C162.125 17.6498 162.195 17.6698 162.265 17.6698C162.335 17.6698 162.395 17.6498 162.455 17.6098C162.505 17.5698 162.555 17.5198 162.595 17.4498C162.635 17.3898 162.665 17.3098 162.685 17.2198C162.705 17.1298 162.715 17.0398 162.715 16.9398V16.9098V16.9198Z" fill="#002F87"/>
<path d="M164.335 17.0896C164.335 17.1696 164.365 17.2495 164.385 17.3195C164.415 17.3895 164.445 17.4596 164.495 17.5096C164.545 17.5596 164.595 17.6096 164.645 17.6396C164.705 17.6696 164.765 17.6896 164.835 17.6896C164.955 17.6896 165.055 17.6596 165.135 17.5896C165.215 17.5195 165.285 17.4196 165.325 17.2796H165.785C165.755 17.4096 165.715 17.5296 165.655 17.6296C165.595 17.7296 165.515 17.8196 165.435 17.8896C165.345 17.9596 165.255 18.0196 165.145 18.0496C165.045 18.0896 164.935 18.1096 164.825 18.1096C164.665 18.1096 164.525 18.0796 164.405 18.0096C164.275 17.9496 164.175 17.8595 164.085 17.7495C163.995 17.6395 163.935 17.5196 163.885 17.3696C163.835 17.2296 163.815 17.0795 163.815 16.9195C163.815 16.7695 163.835 16.6295 163.885 16.4895C163.935 16.3495 164.005 16.2295 164.085 16.1295C164.175 16.0295 164.285 15.9395 164.405 15.8795C164.535 15.8195 164.675 15.7896 164.825 15.7896C164.975 15.7896 165.115 15.8196 165.235 15.8696C165.355 15.9296 165.465 15.9996 165.545 16.0996C165.635 16.1996 165.695 16.3096 165.745 16.4396C165.795 16.5696 165.815 16.7196 165.815 16.8696V17.0695H164.325L164.335 17.0896ZM165.315 16.6996C165.315 16.6296 165.295 16.5696 165.265 16.5096C165.235 16.4496 165.205 16.3996 165.165 16.3596C165.125 16.3196 165.075 16.2896 165.015 16.2596C164.955 16.2396 164.895 16.2296 164.825 16.2296C164.765 16.2296 164.705 16.2396 164.645 16.2696C164.595 16.2996 164.545 16.3296 164.505 16.3696C164.465 16.4096 164.425 16.4596 164.395 16.5196C164.365 16.5796 164.345 16.6396 164.335 16.6996H165.315Z" fill="#002F87"/>
<path d="M166.445 15.8398H166.945V16.0998C167.035 15.9898 167.135 15.9098 167.245 15.8698C167.345 15.8198 167.455 15.7998 167.565 15.7998C167.675 15.7998 167.775 15.8198 167.865 15.8498C167.955 15.8798 168.025 15.9298 168.085 15.9898C168.145 16.0498 168.195 16.1298 168.225 16.2098C168.255 16.2998 168.275 16.3898 168.275 16.4998V18.0598H167.765V16.5798C167.765 16.5198 167.765 16.4798 167.745 16.4298C167.725 16.3898 167.705 16.3498 167.685 16.3198C167.655 16.2898 167.625 16.2698 167.595 16.2498C167.555 16.2298 167.515 16.2298 167.475 16.2298C167.405 16.2298 167.345 16.2398 167.285 16.2698C167.225 16.2998 167.165 16.3398 167.125 16.3898C167.075 16.4398 167.035 16.4898 167.005 16.5498C166.975 16.6098 166.965 16.6798 166.965 16.7398V18.0598H166.465V15.8398H166.445Z" fill="#002F87"/>
<path d="M170.275 16.6296C170.235 16.4796 170.185 16.3795 170.115 16.3195C170.045 16.2495 169.965 16.2196 169.865 16.2196C169.785 16.2196 169.725 16.2396 169.655 16.2796C169.595 16.3196 169.545 16.3696 169.505 16.4296C169.465 16.4896 169.435 16.5695 169.415 16.6495C169.395 16.7295 169.385 16.8195 169.385 16.9095C169.385 17.0095 169.395 17.0996 169.415 17.1896C169.435 17.2796 169.465 17.3596 169.515 17.4296C169.555 17.4996 169.605 17.5596 169.665 17.5996C169.725 17.6396 169.795 17.6695 169.865 17.6695C169.925 17.6695 169.975 17.6596 170.025 17.6296C170.075 17.5996 170.115 17.5696 170.145 17.5196C170.175 17.4696 170.205 17.4196 170.235 17.3596C170.255 17.2996 170.275 17.2395 170.285 17.1695H170.805C170.785 17.3095 170.755 17.4396 170.705 17.5596C170.655 17.6696 170.585 17.7696 170.505 17.8496C170.425 17.9296 170.325 17.9896 170.225 18.0296C170.115 18.0696 169.995 18.0896 169.865 18.0896C169.755 18.0896 169.655 18.0696 169.565 18.0396C169.475 18.0096 169.395 17.9695 169.325 17.9095C169.255 17.8595 169.195 17.7896 169.135 17.7196C169.085 17.6396 169.035 17.5596 169.005 17.4696C168.965 17.3796 168.945 17.2896 168.925 17.1896C168.905 17.0896 168.895 16.9995 168.895 16.8995C168.895 16.7395 168.915 16.5896 168.965 16.4496C169.015 16.3096 169.075 16.1996 169.165 16.0996C169.255 15.9996 169.355 15.9196 169.475 15.8696C169.595 15.8196 169.735 15.7896 169.885 15.7896C170.015 15.7896 170.135 15.8096 170.235 15.8496C170.335 15.8896 170.425 15.9496 170.505 16.0296C170.585 16.0996 170.645 16.1896 170.695 16.2896C170.745 16.3896 170.785 16.4996 170.805 16.6196H170.295L170.275 16.6296Z" fill="#002F87"/>
<path d="M172.155 17.3096L172.645 15.8496H173.155L172.255 18.4696C172.225 18.5596 172.185 18.6296 172.145 18.6896C172.105 18.7496 172.055 18.7996 172.005 18.8396C171.955 18.8796 171.905 18.9096 171.845 18.9296C171.795 18.9496 171.745 18.9596 171.695 18.9596C171.655 18.9596 171.605 18.9596 171.535 18.9396C171.475 18.9196 171.415 18.8996 171.355 18.8696V18.4696C171.405 18.4996 171.455 18.5196 171.495 18.5296C171.535 18.5396 171.565 18.5496 171.585 18.5496C171.615 18.5496 171.655 18.5396 171.675 18.5196C171.705 18.4996 171.725 18.4696 171.745 18.4196C171.765 18.3796 171.785 18.3196 171.815 18.2496C171.835 18.1796 171.865 18.0996 171.885 18.0096C171.865 17.9596 171.845 17.9096 171.825 17.8496C171.805 17.7996 171.785 17.7296 171.755 17.6596C171.725 17.5896 171.695 17.4996 171.665 17.3996C171.625 17.2996 171.585 17.1796 171.535 17.0296C171.485 16.8896 171.425 16.7196 171.355 16.5296C171.285 16.3396 171.205 16.1096 171.115 15.8596H171.645L172.145 17.3196L172.155 17.3096Z" fill="#002F87"/>
</g>
<defs>
<linearGradient id="paint0_linear_21_19219" x1="24.3511" y1="10.2943" x2="41.9298" y2="10.2943" gradientUnits="userSpaceOnUse">
<stop stop-color="white"/>
<stop offset="0.53" stop-color="white"/>
<stop offset="0.74" stop-color="#222988"/>
<stop offset="1" stop-color="#222988"/>
</linearGradient>
<linearGradient id="paint1_linear_21_19219" x1="24.3512" y1="10.294" x2="41.9299" y2="10.294" gradientUnits="userSpaceOnUse">
<stop stop-color="white"/>
<stop offset="0.53" stop-color="white"/>
<stop offset="0.74" stop-color="#222988"/>
<stop offset="1" stop-color="#222988"/>
</linearGradient>
<linearGradient id="paint2_linear_21_19219" x1="24.3512" y1="10.2844" x2="41.9299" y2="10.2844" gradientUnits="userSpaceOnUse">
<stop stop-color="white"/>
<stop offset="0.53" stop-color="white"/>
<stop offset="0.74" stop-color="#222988"/>
<stop offset="1" stop-color="#222988"/>
</linearGradient>
<clipPath id="clip0_21_19219">
<rect width="172.31" height="19.62" fill="white" transform="translate(0.844971 0.189941)"/>
</clipPath>
</defs>
</svg>
