<svg width="176" height="26" viewBox="0 0 176 26" fill="none" xmlns="http://www.w3.org/2000/svg">
<g clip-path="url(#clip0_21_9997)">
<path d="M37.3105 10.1508H49.9939L49.7472 11.2429C49.7032 11.4543 49.4918 11.6305 49.2804 11.6305H45.8365L42.7361 25.6175C42.6833 25.8289 42.4807 26.005 42.2693 26.005H40.6839C40.2699 26.005 39.8912 25.8729 39.6093 25.5999C39.6093 25.5999 39.5917 25.591 39.5829 25.5822C39.2658 25.2828 38.7021 24.5958 38.5171 24.1642C38.3674 23.8471 38.341 23.4771 38.4291 23.0984L40.9657 11.6305H36.9846C36.7732 11.6305 36.6411 11.4631 36.6851 11.2429L36.8436 10.5383C36.8877 10.3269 37.0991 10.1508 37.3105 10.1508ZM23.711 10.5383L20.9277 23.0984C20.8484 23.4683 20.8749 23.8471 21.0158 24.1642C21.2008 24.5869 21.7645 25.2828 22.0815 25.5734C22.0904 25.5822 22.0992 25.591 22.108 25.5999C22.3898 25.8553 22.7686 25.9962 23.1913 25.9962H31.4444C31.6558 25.9962 31.8672 25.8201 31.9112 25.6175L32.1578 24.5253H25.4902L26.8731 18.2628H32.334C32.5454 18.2628 32.7568 18.0955 32.8008 17.8841L33.0386 16.7919H27.1901L28.3352 11.6217H34.624C34.8354 11.6217 35.0468 11.4543 35.0909 11.2341L35.3287 10.1419H24.169C23.9576 10.1419 23.7462 10.3093 23.7022 10.5295L23.711 10.5383ZM21.3505 14.0086L20.6547 17.1442C20.1878 19.267 18.0563 21.0109 15.9336 21.0109H11.9877L10.9748 25.6087C10.9307 25.8201 10.7193 25.9874 10.5079 25.9874H8.9225C8.50853 25.9874 8.12979 25.8553 7.84794 25.5822C7.84794 25.5822 7.83032 25.5734 7.81271 25.5646C7.49562 25.2652 6.93191 24.5781 6.74695 24.1465C6.60602 23.8295 6.5796 23.4595 6.65887 23.0808L7.97125 17.1442L8.66707 14.0086L9.44217 10.5295C9.48621 10.3181 9.6976 10.1419 9.90899 10.1419H18.3382C20.4609 10.1419 21.8173 11.8859 21.3505 14.0086ZM16.4885 11.5953H14.1016L12.3136 19.5488H14.7622C15.3699 19.5488 15.8015 19.3286 15.9688 18.5976L17.2724 12.8019C17.29 12.7315 17.3076 12.6434 17.3253 12.5465C17.4574 11.789 16.9377 11.6041 16.4885 11.6041V11.5953ZM36.8877 7.44672C36.8877 7.44672 40.8689 6.60996 44.163 5.83487C14.8238 -5.15742 1.15391 13.7972 1.15391 13.7972L0.0441139 18.8001C-0.0439654 19.1701 -0.00873364 19.5488 0.132193 19.8659C0.31716 20.2975 0.880867 20.9845 1.19795 21.2752C1.20676 21.2752 1.21557 21.2928 1.22438 21.3016C1.50623 21.557 1.89378 21.6891 2.30775 21.6891H3.89318C4.10457 21.6891 4.31596 21.5218 4.36 21.3104L6.89668 9.84247C20.9717 2.3205 36.8877 7.43791 36.8877 7.43791V7.44672ZM33.3469 1.70395C31.9376 1.18428 30.6605 0.840773 29.6916 0.646998C25.8337 -0.154523 16.6294 -1.16743 9.29244 4.23182C3.71702 8.45963 1.42696 13.0133 1.42696 13.0133C12.0669 0.338721 27.7891 0.999315 33.3557 1.70395H33.3469ZM166.91 16.8536C166.91 15.4707 168.187 14.6956 169.958 14.6956C171.728 14.6956 172.988 15.4707 172.988 16.8536C172.988 18.2364 171.781 18.9675 169.958 18.9675C168.135 18.9675 166.91 18.2364 166.91 16.8536ZM168.549 16.8536C168.549 17.3556 169.024 17.6639 169.967 17.6639C170.909 17.6639 171.367 17.3468 171.367 16.8536C171.367 16.3075 170.909 15.964 169.958 15.964C169.007 15.964 168.549 16.3251 168.549 16.8536ZM153.003 23.6357C153.003 25.1506 151.646 25.9962 149.074 25.9962C146.502 25.9962 145.146 25.1242 145.146 23.6357C145.146 22.1471 146.546 21.3368 149.074 21.3368C151.602 21.3368 153.003 22.1824 153.003 23.6357ZM151.241 23.6445C151.241 22.9663 150.334 22.658 149.092 22.658C147.85 22.658 146.952 22.9751 146.952 23.6445C146.952 24.3139 147.832 24.6486 149.092 24.6486C150.351 24.6486 151.241 24.3139 151.241 23.6445ZM60.5105 18.4566H63.426C63.5933 18.4566 63.7342 18.3157 63.7342 18.1395V17.0738H57.4982V14.5723H56.0185C55.8511 14.5723 55.7014 14.7133 55.7014 14.8894V17.6463C55.7014 17.7432 55.7278 17.8577 55.7895 17.9458C55.8688 18.0691 56.0625 18.254 56.177 18.3421C56.177 18.3421 56.177 18.3421 56.1858 18.3421C56.2827 18.4126 56.3972 18.4478 56.5117 18.4478H58.7049V19.3903H54.5828C54.4154 19.3903 54.2745 19.5312 54.2745 19.7074V19.9804C54.2745 20.0861 54.3009 20.1918 54.3626 20.2799C54.4419 20.4032 54.6356 20.5881 54.7501 20.6762C54.7501 20.6762 54.7501 20.6762 54.759 20.685C54.8558 20.7555 54.9703 20.7907 55.0849 20.7907H64.6062C64.7824 20.7907 64.9233 20.6498 64.9233 20.4736V19.3903H60.5105V18.4478V18.4566ZM63.7078 23.6357C63.7078 24.9833 62.3426 25.9962 59.6385 25.9962C56.9345 25.9962 55.5076 24.9833 55.5076 23.6357C55.5076 22.2881 56.8376 21.284 59.6385 21.284C62.4395 21.284 63.7078 22.3321 63.7078 23.6357ZM61.9462 23.6445C61.9462 23.0103 61.0478 22.6404 59.6385 22.6404C58.15 22.6404 57.2868 22.9839 57.2868 23.6445C57.2868 24.3051 58.15 24.6222 59.6385 24.6222C61.0478 24.6222 61.9462 24.261 61.9462 23.6445ZM72.2251 20.4913C72.3924 20.4648 72.5157 20.3151 72.5245 20.1477V19.1789C70.6837 19.3286 69.477 19.3991 68.0501 19.3991V18.4654H71.2122C71.3883 18.4654 71.5204 18.3245 71.5204 18.1483V14.9335H66.6497C66.4735 14.9335 66.3326 15.0744 66.3326 15.2417V15.4355C66.3326 15.5412 66.3678 15.6381 66.4207 15.735C66.4999 15.8583 66.6937 16.0433 66.8082 16.1313C66.9051 16.2018 67.0196 16.2458 67.1341 16.2458H69.7941V17.1971H66.6408C66.4647 17.1971 66.3238 17.338 66.3238 17.5142V19.9099C66.3238 20.0156 66.359 20.1213 66.4118 20.2094C66.4911 20.3327 66.6849 20.5177 66.7994 20.6058C66.8875 20.6762 66.9932 20.7115 67.0989 20.7115C68.7019 20.7115 70.5868 20.6498 72.2075 20.4824L72.2251 20.4913ZM73.3613 14.819V20.2006C73.3613 20.3063 73.3877 20.412 73.4494 20.5001C73.5286 20.6234 73.7312 20.8083 73.8369 20.8964C73.8369 20.8964 73.8369 20.8964 73.8457 20.9052C73.9426 20.9757 74.0571 21.0109 74.1716 21.0109H74.8234C74.9996 21.0109 75.1317 20.87 75.1317 20.7026V14.5107H73.6696C73.4934 14.5107 73.3613 14.6516 73.3613 14.8278V14.819ZM67.8475 21.5482H75.1317V25.4149C75.1317 25.5822 74.9908 25.7232 74.8234 25.7232H68.3496C68.2351 25.7232 68.1206 25.6879 68.0237 25.6087C68.0237 25.6087 68.0237 25.6087 68.0149 25.6087C67.9092 25.5206 67.7066 25.3356 67.6273 25.2123C67.5657 25.1242 67.5393 25.0185 67.5393 24.9128V21.8565C67.5393 21.6891 67.6802 21.5394 67.8475 21.5394V21.5482ZM69.2656 24.3667H73.4053V22.9046H69.2656V24.3667ZM84.6354 14.8101V20.2711C84.6354 20.3768 84.6619 20.4824 84.7235 20.5705C84.8028 20.685 84.9966 20.8788 85.1111 20.9669C85.1111 20.9669 85.1111 20.9669 85.1199 20.9669C85.2168 21.0373 85.3313 21.0726 85.4458 21.0726H86.0976C86.2737 21.0726 86.4146 20.9317 86.4146 20.7643V14.4931H84.9525C84.7852 14.4931 84.6442 14.634 84.6442 14.8101H84.6354ZM78.6108 21.971V22.2528C78.6108 22.3585 78.6372 22.4554 78.6989 22.5435C78.7782 22.6668 78.9808 22.8606 79.0864 22.9399C79.0864 22.9399 79.0864 22.9399 79.0953 22.9399C79.1833 23.0103 79.2978 23.0456 79.4035 23.0456H84.6354V25.045C84.6354 25.1507 84.6619 25.2475 84.7235 25.3356C84.8028 25.4589 84.9966 25.6439 85.1111 25.732C85.1111 25.732 85.1111 25.732 85.1199 25.7408C85.2168 25.8112 85.3313 25.8465 85.4458 25.8465H86.0976C86.2737 25.8465 86.4146 25.7055 86.4146 25.5294V21.6451H78.9191C78.7517 21.6451 78.6108 21.786 78.6108 21.9534V21.971ZM171.719 21.4337V21.5482C171.719 21.6539 171.755 21.7596 171.807 21.8477C171.887 21.971 172.089 22.156 172.195 22.244C172.195 22.244 172.204 22.244 172.204 22.2528C172.301 22.3233 172.415 22.3585 172.53 22.3585H174.027V22.429C174.027 22.5347 174.054 22.6316 174.115 22.7285C174.194 22.8518 174.388 23.0456 174.494 23.1248C174.494 23.1248 174.503 23.1248 174.503 23.1336C174.6 23.2041 174.714 23.2393 174.829 23.2393H175.445C175.621 23.2393 175.753 23.0984 175.753 22.9222V14.5019H174.327C174.15 14.5019 174.009 14.6428 174.009 14.819V21.1166H172.01C171.834 21.1166 171.693 21.2575 171.693 21.4337H171.719ZM89.1099 15.5852C89.1891 15.7086 89.3829 15.8935 89.4974 15.9816C89.4974 15.9816 89.4974 15.9816 89.5062 15.9904C89.6031 16.0609 89.7176 16.0961 89.8321 16.0961H97.1603C97.3277 16.0961 97.4686 15.9552 97.4686 15.7878V14.7749H89.3301C89.1539 14.7749 89.0218 14.9158 89.0218 15.0832V15.2858C89.0218 15.3915 89.0482 15.4972 89.1099 15.5852ZM89.2596 19.0996C89.2596 19.0996 89.2596 19.0996 89.2684 19.1084C89.3653 19.1789 89.4798 19.2141 89.5943 19.2141H97.3893C97.5567 19.2141 97.6976 19.0732 97.6976 18.897V17.8929H96.121L96.3148 16.5101H94.5532L94.4034 17.8929H92.1046L91.8932 16.5101H90.1844L90.4311 17.8929H89.1011C88.9337 17.8929 88.7928 18.0338 88.7928 18.21V18.395C88.7928 18.5007 88.8192 18.6064 88.8809 18.6944C88.9601 18.8177 89.1539 19.0027 89.2684 19.0908L89.2596 19.0996ZM88.2291 19.8835H98.5608V20.9493C98.5608 21.1254 98.4198 21.2664 98.2437 21.2664H94.1568V22.0238H97.2308V25.4237C97.2308 25.591 97.0899 25.732 96.9137 25.732H90.0964C89.9818 25.732 89.8673 25.6967 89.7705 25.6175C89.7705 25.6175 89.7705 25.6175 89.7617 25.6175C89.656 25.5294 89.4534 25.3444 89.3741 25.2211C89.3125 25.133 89.286 25.0273 89.286 24.9305V22.3409C89.286 22.1648 89.427 22.0238 89.6031 22.0238H92.3159V21.2664H88.7223C88.6078 21.2664 88.4933 21.2311 88.3964 21.1519H88.3876C88.2819 21.0726 88.0793 20.8788 88.0001 20.7555C87.9384 20.6674 87.912 20.5617 87.912 20.456V20.2006C87.912 20.0244 88.0529 19.8835 88.2203 19.8835H88.2291ZM91.0212 23.3626V24.3756H95.5044V23.3626H91.0212ZM106.814 14.819V25.0009C106.814 25.1066 106.84 25.2123 106.902 25.3004C106.981 25.4149 107.184 25.6087 107.289 25.6879C107.289 25.6879 107.289 25.6879 107.298 25.6879C107.395 25.7584 107.51 25.7936 107.624 25.7936H108.285C108.461 25.7936 108.602 25.6527 108.602 25.4765V14.4843H107.131C106.955 14.4843 106.823 14.6252 106.823 14.8013L106.814 14.819ZM110.126 19.1613V19.3991C110.126 19.5048 110.161 19.6105 110.222 19.6985C110.302 19.8219 110.504 20.0068 110.61 20.0949C110.707 20.1742 110.821 20.2094 110.936 20.2094H114.53V20.87H111.817C111.649 20.87 111.5 21.0109 111.5 21.1871V21.3456C111.5 21.4513 111.535 21.5482 111.597 21.6363C111.676 21.7596 111.878 21.9534 111.984 22.0326H111.993C112.09 22.1031 112.204 22.1383 112.319 22.1383H117.63V22.6932H111.826C111.658 22.6932 111.508 22.8342 111.508 23.0103V25.045C111.508 25.1507 111.544 25.2563 111.605 25.3444C111.685 25.4677 111.887 25.6527 111.993 25.7408C111.993 25.7408 112.002 25.7408 112.002 25.7496C112.099 25.8201 112.213 25.8553 112.328 25.8553H119.409C119.576 25.8553 119.726 25.7144 119.726 25.5382V24.5781H113.34V23.9528H119.145C119.321 23.9528 119.462 23.8118 119.462 23.6357V20.8612H116.388V20.2006H120.475C120.651 20.2006 120.792 20.0597 120.792 19.8835V18.8354H110.46C110.284 18.8354 110.143 18.9763 110.143 19.1525L110.126 19.1613ZM128.842 14.819V25.0009C128.842 25.1066 128.869 25.2123 128.931 25.3004C129.01 25.4237 129.204 25.6087 129.318 25.6967C129.318 25.6967 129.327 25.6967 129.327 25.7055C129.424 25.776 129.538 25.8112 129.653 25.8112H130.313C130.49 25.8112 130.63 25.6703 130.63 25.4942V14.5019H129.16C128.983 14.5019 128.851 14.6428 128.851 14.819H128.842ZM140.011 14.819V21.1342C140.011 21.2399 140.037 21.3456 140.108 21.4337C140.187 21.5482 140.39 21.742 140.495 21.8301C140.495 21.8301 140.495 21.8301 140.504 21.8301C140.601 21.9005 140.716 21.9358 140.83 21.9358H141.447C141.614 21.9358 141.764 21.7948 141.764 21.6187V14.4931H140.337C140.161 14.4931 140.02 14.634 140.02 14.8101L140.011 14.819ZM133.792 22.7725V23.0103C133.792 23.1072 133.819 23.2129 133.881 23.3098C133.96 23.4331 134.154 23.6181 134.268 23.7061C134.268 23.7061 134.268 23.7061 134.277 23.7061C134.374 23.7766 134.488 23.8207 134.603 23.8207H140.02V25.0538C140.02 25.1595 140.046 25.2652 140.108 25.3532C140.187 25.4765 140.381 25.6615 140.495 25.7496C140.495 25.7496 140.495 25.7496 140.504 25.7584C140.601 25.8289 140.716 25.8641 140.83 25.8641H141.438C141.605 25.8641 141.755 25.7232 141.755 25.547V22.4554H134.101C133.925 22.4554 133.792 22.5964 133.792 22.7725ZM143.631 15.8671C143.71 15.9816 143.913 16.1754 144.018 16.2635C144.018 16.2635 144.018 16.2635 144.027 16.2635C144.124 16.3339 144.239 16.378 144.353 16.378H149.391C149.559 16.378 149.7 16.237 149.7 16.0697V15.0127H143.86C143.684 15.0127 143.543 15.1537 143.543 15.3298V15.5764C143.543 15.6821 143.569 15.7878 143.631 15.8759V15.8671ZM133.132 16.5629C133.132 16.5629 133.141 16.5629 133.15 16.5629C133.246 16.6334 133.361 16.6686 133.475 16.6686H138.875C139.051 16.6686 139.192 16.5277 139.192 16.3515V15.4267H136.884V14.3609H135.484C135.307 14.3609 135.167 14.5019 135.167 14.678V15.4355H132.991C132.815 15.4355 132.683 15.5764 132.683 15.7526V15.8759C132.683 15.9816 132.709 16.0873 132.771 16.1754C132.85 16.2987 133.044 16.4837 133.158 16.5717L133.132 16.5629ZM163.317 14.5107H161.846C161.67 14.5107 161.529 14.6516 161.529 14.8278V25.0097C161.529 25.1154 161.555 25.2211 161.617 25.3092C161.696 25.4237 161.89 25.6175 161.995 25.6967C161.995 25.6967 161.995 25.6967 162.004 25.6967C162.101 25.7672 162.216 25.8024 162.33 25.8024H162.991C163.167 25.8024 163.308 25.6615 163.308 25.4853V20.0244H164.964C165.14 20.0244 165.281 19.8835 165.281 19.7074V18.5711H163.317V14.4843V14.5107ZM168.778 20.8083V21.4513C168.778 21.557 168.804 21.6539 168.866 21.7508C168.945 21.8653 169.148 22.0591 169.253 22.1471C169.253 22.1471 169.253 22.1471 169.262 22.1471C169.359 22.2176 169.473 22.2528 169.588 22.2528H170.187C170.363 22.2528 170.504 22.1119 170.504 21.9446V20.7555C171.596 20.7203 172.609 20.6498 173.516 20.5265V19.2758C171.543 19.4872 169.218 19.5488 166.611 19.5576C166.443 19.5576 166.303 19.6985 166.303 19.8747V20.0068C166.303 20.1125 166.338 20.2094 166.391 20.3063C166.47 20.4208 166.672 20.6146 166.778 20.7026C166.778 20.7026 166.787 20.7026 166.787 20.7115C166.884 20.7819 166.998 20.8171 167.113 20.8171H168.769L168.778 20.8083ZM169.632 24.2082V22.702H168.135C167.958 22.702 167.826 22.843 167.826 23.0191V24.7807C167.826 24.8864 167.853 24.9921 167.914 25.0802C167.994 25.2035 168.187 25.3885 168.302 25.4765C168.302 25.4765 168.302 25.4765 168.311 25.4853C168.408 25.5558 168.522 25.591 168.637 25.591H175.692C175.859 25.591 176 25.4501 176 25.274V24.2082H169.632ZM149.814 20.7115C149.99 20.6938 150.122 20.5353 150.122 20.3591V19.3815L149.647 19.4255C149.383 19.4519 149.136 19.4695 148.872 19.4872L148.986 17.0297H147.577C147.41 17.0297 147.269 17.1619 147.251 17.3292L147.181 19.5928C146.819 19.6017 146.582 19.6193 146.203 19.6281L146.132 17.0297H144.732C144.565 17.0297 144.432 17.1619 144.432 17.3292L144.512 19.6721H143.622C143.446 19.6721 143.305 19.813 143.305 19.9892V20.1742C143.305 20.2799 143.331 20.3856 143.393 20.4736C143.472 20.597 143.666 20.7819 143.772 20.87C143.772 20.87 143.772 20.87 143.781 20.8788C143.869 20.9405 143.974 20.9757 144.08 20.9845C146.212 20.9757 148.132 20.8964 149.805 20.7115H149.814ZM149.955 19.0379C150.034 19.1613 150.228 19.355 150.343 19.4343C150.343 19.4343 150.343 19.4343 150.351 19.4343C150.439 19.5048 150.545 19.54 150.651 19.54H151.188V20.3151C151.188 20.4208 151.215 20.5265 151.276 20.6146C151.355 20.7379 151.549 20.9228 151.655 21.0109C151.655 21.0109 151.664 21.0109 151.673 21.0197C151.769 21.0902 151.884 21.1254 151.998 21.1254H152.65C152.826 21.1254 152.967 20.9845 152.967 20.8083V14.4931H151.505C151.329 14.4931 151.188 14.634 151.188 14.8101V16.0873H150.175C150.008 16.0873 149.867 16.2282 149.867 16.4044V16.6246C149.867 16.7303 149.893 16.836 149.955 16.924C150.034 17.0385 150.228 17.2323 150.343 17.3204C150.343 17.3204 150.343 17.3204 150.351 17.3292C150.448 17.3997 150.563 17.4437 150.677 17.4437H151.188V18.1748H150.184C150.008 18.1748 149.867 18.3157 149.867 18.483V18.7385C149.867 18.8442 149.902 18.9411 149.955 19.0291V19.0379ZM133.105 22.0326C132.991 22.0326 132.885 21.9886 132.788 21.9181C132.788 21.9181 132.788 21.9181 132.78 21.9181C132.674 21.8301 132.471 21.6363 132.392 21.5218C132.33 21.4337 132.304 21.328 132.304 21.2223V21.099C132.304 20.9228 132.445 20.7819 132.621 20.7819C132.621 20.7819 134.242 20.7731 135.149 20.7467V20.2799C133.907 20.0949 133.088 19.4783 133.088 18.6416C133.088 17.5406 134.233 16.924 135.95 16.924C137.668 16.924 138.857 17.5054 138.857 18.6416C138.857 19.4519 138.082 20.0685 136.858 20.2711V20.685C137.8 20.641 138.69 20.5529 139.518 20.4648V21.3897C139.518 21.557 139.386 21.7156 139.218 21.742C137.483 21.971 135.387 22.0062 133.105 22.015V22.0326ZM135.95 19.2053C136.69 19.2053 137.192 18.9939 137.192 18.6592C137.192 18.2629 136.673 18.0603 135.95 18.0603C135.343 18.0603 134.735 18.2717 134.735 18.6592C134.735 19.0115 135.307 19.2053 135.95 19.2053ZM80.4517 18.8882C81.1387 19.725 82.1956 20.3768 83.2614 20.7819L83.9925 19.584C82.6801 19.0291 81.262 18.2012 81.262 16.7038V14.8101H79.8087C79.6325 14.8101 79.4916 14.9511 79.4916 15.1272V16.7215C79.4916 18.1924 78.1704 19.1348 76.8316 19.8307C76.6819 19.9099 76.6555 20.0861 76.77 20.227L77.5362 21.1342C78.6284 20.5617 79.8263 19.813 80.4517 18.897V18.8882ZM99.7058 15.6117V15.9023C99.7058 16.008 99.741 16.1137 99.7939 16.2018C99.8732 16.3251 100.076 16.5189 100.181 16.5982C100.181 16.5982 100.181 16.5982 100.19 16.607C100.287 16.6774 100.402 16.7127 100.516 16.7127H103.484C103.388 19.1965 102.093 20.7907 99.4504 22.3233C99.2918 22.3938 99.2918 22.5787 99.4063 22.7197L100.331 23.7238C103.247 22.0943 105.316 19.9187 105.36 15.2946H100.023C99.8467 15.2946 99.7058 15.4355 99.7058 15.6117ZM121.734 15.6117V15.9023C121.734 16.008 121.77 16.1137 121.831 16.2018C121.911 16.3251 122.113 16.5189 122.219 16.5982C122.219 16.5982 122.228 16.5982 122.228 16.607C122.325 16.6774 122.439 16.7127 122.554 16.7127H125.522C125.425 19.1965 124.13 20.7907 121.488 22.3233C121.338 22.3938 121.329 22.5787 121.444 22.7197L122.369 23.7238C125.284 22.0943 127.354 19.9187 127.398 15.2946H122.06C121.893 15.2946 121.743 15.4355 121.743 15.6117H121.734ZM154.738 15.6117V15.9023C154.738 16.008 154.773 16.1137 154.835 16.2018C154.914 16.3251 155.116 16.5189 155.222 16.5982C155.222 16.5982 155.231 16.5982 155.231 16.607C155.328 16.6774 155.442 16.7127 155.557 16.7127H158.411C158.305 19.1965 157.125 20.7907 154.491 22.3233C154.341 22.4026 154.333 22.5787 154.438 22.7109L155.372 23.7326C158.27 22.1031 160.243 19.9275 160.287 15.3034H155.055C154.887 15.3034 154.738 15.4443 154.738 15.6205V15.6117ZM110.857 17.4085L110.936 17.523L111.597 18.4566C113.111 18.0867 114.626 17.5054 115.428 16.6422C116.274 17.5142 117.85 18.0867 119.365 18.4214L120.158 17.2499C118.546 16.9329 116.362 16.1842 116.362 15.048V14.4226H114.882C114.706 14.4226 114.565 14.5635 114.565 14.7397V15.0568C114.565 16.2018 112.275 16.9593 110.733 17.2499L110.839 17.3997L110.857 17.4261V17.4085Z" fill="white"/>
</g>
<defs>
<clipPath id="clip0_21_9997">
<rect width="176" height="25.9922" fill="white" transform="translate(0 0.00390625)"/>
</clipPath>
</defs>
</svg>
