<svg width="32" height="32" viewBox="0 0 32 32" fill="none" xmlns="http://www.w3.org/2000/svg">
<path d="M15.4 19.5C13.1 17.2 9.3 17.1 6.9 19.5L4 22.9L8.9 27.4L10.1 26.3C10.5 25.9 11.3 25.6 11.9 25.6H16.9C17.6 25.6 18.2 25.5 18.9 25.3L24.2 23.8L29.5 20.8C30.1 20.4 29.2 17.8 26.4 18.8C25 19.4 23.1 20 22.3 20.5L18.2 21.2C17.7 21.4 16.9 21.2 16.5 20.8L15.4 19.5Z" fill="white"/>
<path d="M19 25.3L24.3 23.8L29.6 20.8C30.2 20.4 29.3 17.8 26.5 18.8C25.1 19.4 23.2 20 22.4 20.5L18.3 21.2C17.8 21.4 17 21.2 16.6 20.8L15.2 19.4C14.7 18.9 14.1 18.5 13.5 18.2C11.9 18 9.5 18.6 8 20L6 22L9.5 26.8L10.3 26.1C10.7 25.7 11.5 25.4 12.1 25.4H17.1C17.7 25.5 18.4 25.4 19 25.3Z" fill="#FFE0B2"/>
<path d="M21.5 21.6H14.1L14.2 18.6H17.9C21.5 18.6 21.5 21.1 21.5 21.6Z" fill="#FFE0B2"/>
<path d="M1.90002 23.9L4.70002 21L11.1 27.4L8.20002 30.3C7.40002 31.1 6.10002 31.1 5.40002 30.3L1.90002 26.8C1.10002 26 1.10002 24.7 1.90002 23.9Z" fill="#80D8FF"/>
<path d="M4.7 21L1.7 24.1C1.1 24.7 1 25.7 1.4 26.4L5.8 22L4.7 21Z" fill="white"/>
<path d="M9.6 25.9L9.3 25.6L5 29.9L5.4 30.3C6.1 31 7.1 31.1 7.8 30.6L11 27.4L9.6 25.9Z" fill="#65C7EA"/>
<path d="M29.5 2.5H5.5V15.5H29.5V2.5Z" fill="#FF8A80"/>
<path d="M27.5 13.5H19.5C18.4 13.5 17.5 14.4 17.5 15.5V3.5C17.5 2.4 18.4 1.5 19.5 1.5H27.5V13.5Z" fill="white"/>
<path d="M15.5 13.5H7.5V1.5H15.5C16.6 1.5 17.5 2.4 17.5 3.5V15.5C17.5 14.4 16.6 13.5 15.5 13.5Z" fill="white"/>
<path d="M14 18.4C11.7 17.2 8.90001 17.5 6.90001 19.4L6.70001 19.7" stroke="#455A64" stroke-miterlimit="10" stroke-linecap="round" stroke-linejoin="round"/>
<path d="M21.4 20.7L22.5 20.5L25.3 19C27.7 17.9 29.6 18.3 29.8 20.4L24.3 23.7L19 25.2C18.3 25.4 17.7 25.5 17 25.5H12C11.4 25.5 10.7 25.8 10.3 26.1L10.1 26.2" stroke="#455A64" stroke-miterlimit="10" stroke-linecap="round" stroke-linejoin="round"/>
<path d="M14.2 21.5H21.5C21.5 21 21.5 18.5 18 18.5H14.3" stroke="#455A64" stroke-miterlimit="10" stroke-linecap="round" stroke-linejoin="round"/>
<path d="M1.5 24.2L4.7 21L11.1 27.3L7.8 30.6" stroke="#455A64" stroke-miterlimit="10" stroke-linecap="round" stroke-linejoin="round"/>
<path d="M29.5 2.5V15.5H19.5" stroke="#455A64" stroke-miterlimit="10" stroke-linecap="round" stroke-linejoin="round"/>
<path d="M15.5 15.5H5.5V2.5" stroke="#455A64" stroke-miterlimit="10" stroke-linecap="round" stroke-linejoin="round"/>
<path d="M27.5 13.5H19.5C18.4 13.5 17.5 14.4 17.5 15.5V3.5C17.5 2.4 18.4 1.5 19.5 1.5H27.5V13.5Z" stroke="#455A64" stroke-miterlimit="10" stroke-linecap="round" stroke-linejoin="round"/>
<path d="M15.5 13.5H7.5V1.5H15.5C16.6 1.5 17.5 2.4 17.5 3.5V15.5C17.5 14.4 16.6 13.5 15.5 13.5Z" stroke="#455A64" stroke-miterlimit="10" stroke-linecap="round" stroke-linejoin="round"/>
<path d="M25.5 10.5H19.5" stroke="#455A64" stroke-miterlimit="10" stroke-linecap="round" stroke-linejoin="round"/>
<path d="M25.5 4.5H19.5" stroke="#455A64" stroke-miterlimit="10" stroke-linecap="round" stroke-linejoin="round"/>
<path d="M19.5 8.5H21.5" stroke="#455A64" stroke-miterlimit="10" stroke-linecap="round" stroke-linejoin="round"/>
<path d="M23.5 8.5H25.5" stroke="#455A64" stroke-miterlimit="10" stroke-linecap="round" stroke-linejoin="round"/>
<path d="M25.5 6.5H19.5" stroke="#455A64" stroke-miterlimit="10" stroke-linecap="round" stroke-linejoin="round"/>
<path d="M15.5 4.5H14.5" stroke="#455A64" stroke-miterlimit="10" stroke-linecap="round" stroke-linejoin="round"/>
<path d="M12.5 4.5H10.5" stroke="#455A64" stroke-miterlimit="10" stroke-linecap="round" stroke-linejoin="round"/>
<path d="M15.5 10.5H13.5" stroke="#455A64" stroke-miterlimit="10" stroke-linecap="round" stroke-linejoin="round"/>
<path d="M11.5 10.5H9.5" stroke="#455A64" stroke-miterlimit="10" stroke-linecap="round" stroke-linejoin="round"/>
<path d="M15.5 8.5H9.5" stroke="#455A64" stroke-miterlimit="10" stroke-linecap="round" stroke-linejoin="round"/>
<path d="M15.5 6.5H9.5" stroke="#455A64" stroke-miterlimit="10" stroke-linecap="round" stroke-linejoin="round"/>
</svg>
