<svg width="32" height="32" viewBox="0 0 32 32" fill="none" xmlns="http://www.w3.org/2000/svg">
<path d="M26.5 17.5H4C2.6 17.5 1.5 16.4 1.5 15V14C1.5 12.6 2.6 11.5 4 11.5H26.5C25.1 11.5 24 12.6 24 14V15C24 16.4 25.1 17.5 26.5 17.5Z" fill="#55FB9B"/>
<path d="M24 15V14C24 12.6 25.1 11.5 26.5 11.5H13C11.6 11.5 10.5 12.6 10.5 14V15C10.5 16.4 11.6 17.5 13 17.5H26.5C25.1 17.5 24 16.4 24 15Z" fill="#FFE0B2"/>
<path d="M24 15C24 15.4 24.1 15.7 24.2 16H12.5C12.2 16 12 15.8 12 15.5C12 15.2 12.2 15 12.5 15H24Z" fill="#EAC89B"/>
<path d="M24 14C24 13.6 24.1 13.3 24.2 13H12.5C12.2 13 12 13.2 12 13.5C12 13.8 12.2 14 12.5 14H24Z" fill="#EAC89B"/>
<path d="M28.5 23.5H6C4.6 23.5 3.5 22.4 3.5 21V20C3.5 18.6 4.6 17.5 6 17.5H28.5C27.1 17.5 26 18.6 26 20V21C26 22.4 27.1 23.5 28.5 23.5Z" fill="#FFF176"/>
<path d="M26 21V20C26 18.6 27.1 17.5 28.5 17.5H15C13.6 17.5 12.5 18.6 12.5 20V21C12.5 22.4 13.6 23.5 15 23.5H28.5C27.1 23.5 26 22.4 26 21Z" fill="#ECEFF1"/>
<path d="M26 21C26 21.4 26.1 21.7 26.2 22H14.5C14.2 22 14 21.8 14 21.5C14 21.2 14.2 21 14.5 21H26Z" fill="#CFD8DC"/>
<path d="M26 20C26 19.6 26.1 19.3 26.2 19H14.5C14.2 19 14 19.2 14 19.5C14 19.8 14.2 20 14.5 20H26Z" fill="#CFD8DC"/>
<path d="M30.5 30.5H4C2.6 30.5 1.5 29.4 1.5 28V26C1.5 24.6 2.6 23.5 4 23.5H30.5C29.1 23.5 28 24.6 28 26V28C28 29.4 29.1 30.5 30.5 30.5Z" fill="#FF8A80"/>
<path d="M28 28V26C28 24.6 29.1 23.5 30.5 23.5H14C12.6 23.5 11.5 24.6 11.5 26V28C11.5 29.4 12.6 30.5 14 30.5H30.5C29.1 30.5 28 29.4 28 28Z" fill="#FFE0B2"/>
<path d="M28 28C28 28.4 28.1 28.7 28.2 29H13.5C13.2 29 13 28.8 13 28.5C13 28.2 13.2 28 13.5 28H28Z" fill="#EAC89B"/>
<path d="M13 24.5C13 24.8 13.2 25 13.5 25H28.2C28.4 24.6 28.7 24.3 29 24H13.5C13.2 24 13 24.2 13 24.5Z" fill="#EAC89B"/>
<path d="M28 26H13.5C13.2 26 13 26.2 13 26.5C13 26.8 13.2 27 13.5 27H28V26Z" fill="#EAC89B"/>
<path d="M21.5 26L20 24.5L18.5 26V22.5C18.5 21.9 18.1 21.5 17.5 21.5H20.5C21.1 21.5 21.5 21.9 21.5 22.5V26Z" fill="#FF8A80"/>
<path d="M26.5 11.5H8C6.6 11.5 5.5 10.4 5.5 9V8C5.5 6.6 6.6 5.5 8 5.5H26.5C25.4 5.5 24.5 6.4 24.5 7.5V9.5C24.5 10.6 25.4 11.5 26.5 11.5Z" fill="#FFFDA6"/>
<path d="M26 9V8C26 6.6 27.1 5.5 28.5 5.5H18C16.6 5.5 15.5 6.6 15.5 8V9C15.5 10.4 16.6 11.5 18 11.5H28.5C27.1 11.5 26 10.4 26 9Z" fill="#ECEFF1"/>
<path d="M26.2 7H17.5C17.2 7 17 7.2 17 7.5C17 7.8 17.2 8 17.5 8H26C26 7.6 26.1 7.3 26.2 7Z" fill="#CFD8DC"/>
<path d="M26 9H17.5C17.2 9 17 9.2 17 9.5C17 9.8 17.2 10 17.5 10H26.2C26.1 9.7 26 9.4 26 9Z" fill="#CFD8DC"/>
<path d="M8 17.5H7C5.6 17.5 4.5 16.4 4.5 15V14C4.5 12.6 5.6 11.5 7 11.5H8" stroke="white" stroke-miterlimit="10" stroke-linecap="round" stroke-linejoin="round"/>
<path d="M10 23.5H9C7.6 23.5 6.5 22.4 6.5 21V20C6.5 18.6 7.6 17.5 9 17.5H10" stroke="#43E886" stroke-miterlimit="10" stroke-linecap="round" stroke-linejoin="round"/>
<path d="M8 30.5H7C5.6 30.5 4.5 29.4 4.5 28V26C4.5 24.6 5.6 23.5 7 23.5H8" stroke="#FFF176" stroke-miterlimit="10" stroke-linecap="round" stroke-linejoin="round"/>
<path d="M11.5 11.5H11C9.6 11.5 8.5 10.4 8.5 9V8C8.5 6.6 9.6 5.5 11 5.5H11.5" stroke="#80D8FF" stroke-miterlimit="10" stroke-linecap="round" stroke-linejoin="round"/>
<path d="M12.5 17.5H4C2.6 17.5 1.5 16.4 1.5 15V14C1.5 12.6 2.6 11.5 4 11.5H26.5" stroke="#455A64" stroke-miterlimit="10" stroke-linecap="round" stroke-linejoin="round"/>
<path d="M13.5 17.5H13C11.6 17.5 10.5 16.4 10.5 15V14C10.5 12.6 11.6 11.5 13 11.5H14" stroke="#455A64" stroke-miterlimit="10" stroke-linecap="round" stroke-linejoin="round"/>
<path d="M14.5 23.5H6C4.6 23.5 3.5 22.4 3.5 21V20C3.5 18.6 4.6 17.5 6 17.5H28.5" stroke="#455A64" stroke-miterlimit="10" stroke-linecap="round" stroke-linejoin="round"/>
<path d="M15.5 23.5H15C13.6 23.5 12.5 22.4 12.5 21V20C12.5 18.6 13.6 17.5 15 17.5H16" stroke="#455A64" stroke-miterlimit="10" stroke-linecap="round" stroke-linejoin="round"/>
<path d="M23.5 23.5H30.5" stroke="#455A64" stroke-miterlimit="10" stroke-linecap="round" stroke-linejoin="round"/>
<path d="M30.5 30.5H4C2.6 30.5 1.5 29.4 1.5 28V26C1.5 24.6 2.6 23.5 4 23.5H14.5" stroke="#455A64" stroke-miterlimit="10" stroke-linecap="round" stroke-linejoin="round"/>
<path d="M15 30.5H14C12.6 30.5 11.5 29.4 11.5 28V26C11.5 24.6 12.6 23.5 14 23.5H16.5" stroke="#455A64" stroke-miterlimit="10" stroke-linecap="round" stroke-linejoin="round"/>
<path d="M21.5 26L20 24.5L18.5 26V22.5C18.5 21.9 18.1 21.5 17.5 21.5H20.5C21.1 21.5 21.5 21.9 21.5 22.5V26Z" stroke="#455A64" stroke-miterlimit="10" stroke-linecap="round" stroke-linejoin="round"/>
<path d="M17.5 11.5H8C6.6 11.5 5.5 10.4 5.5 9V8C5.5 6.6 6.6 5.5 8 5.5H28.5" stroke="#455A64" stroke-miterlimit="10" stroke-linecap="round" stroke-linejoin="round"/>
<path d="M28.5 11.5H18C16.6 11.5 15.5 10.4 15.5 9V8C15.5 6.6 16.6 5.5 18 5.5H18.5" stroke="#455A64" stroke-miterlimit="10" stroke-linecap="round" stroke-linejoin="round"/>
</svg>
