<svg width="32" height="32" viewBox="0 0 32 32" fill="none" xmlns="http://www.w3.org/2000/svg">
<path d="M3.5 24V6.5C3.5 5.9 3.9 5.5 4.5 5.5H29.5C30.1 5.5 30.5 5.9 30.5 6.5V24H3.5Z" fill="white"/>
<path d="M29 7H5V22H29V7Z" fill="#A9E4FF"/>
<path d="M5 19H28C28.6 19 29 18.6 29 18V7H5V19Z" fill="#65C7EA"/>
<path d="M19.5 26.5V28.5C19.5 29.6 20.4 30.5 21.5 30.5H22.5H11.5H12.5C13.6 30.5 14.5 29.6 14.5 28.5V26.5H19.5Z" fill="#CFD8DC"/>
<path d="M19.5 28.5C19.5 29.6 20.4 30.5 21.5 30.5H22.5H11.5H12.5C13.6 30.5 14.5 29.6 14.5 28.5V28H19.5V28.5Z" fill="#ECEFF1"/>
<path d="M4.5 26.5H29.5C30.1 26.5 30.5 26.1 30.5 25.5V23.5H3.5V25.5C3.5 26.1 3.9 26.5 4.5 26.5Z" fill="#ECEFF1"/>
<path d="M30 24H4V25H30V24Z" fill="white"/>
<path d="M27.5 2.5H1.5V17.5H27.5V2.5Z" fill="#FFF176"/>
<path d="M25.5 15.5H16.5C15.4 15.5 14.5 16.4 14.5 17.5V3.5C14.5 2.4 15.4 1.5 16.5 1.5H25.5V15.5Z" fill="white"/>
<path d="M12.5 15.5H3.5V1.5H12.5C13.6 1.5 14.5 2.4 14.5 3.5V17.5C14.5 16.4 13.6 15.5 12.5 15.5Z" fill="white"/>
<path d="M29.5 5.5C30.1 5.5 30.5 5.9 30.5 6.5V23.5" stroke="#455A64" stroke-miterlimit="10" stroke-linecap="round"/>
<path d="M3.5 23.5V19.5" stroke="#455A64" stroke-miterlimit="10" stroke-linecap="round"/>
<path d="M19.5 26.5V28.5C19.5 29.6 20.4 30.5 21.5 30.5H22.5H11.5H12.5C13.6 30.5 14.5 29.6 14.5 28.5V26.5" stroke="#455A64" stroke-miterlimit="10" stroke-linecap="round" stroke-linejoin="round"/>
<path d="M4.5 26.5H29.5C30.1 26.5 30.5 26.1 30.5 25.5V23.5H3.5V25.5C3.5 26.1 3.9 26.5 4.5 26.5Z" stroke="#455A64" stroke-miterlimit="10" stroke-linecap="round" stroke-linejoin="round"/>
<path d="M27.5 2.5V17.5H16.5" stroke="#455A64" stroke-miterlimit="10" stroke-linecap="round" stroke-linejoin="round"/>
<path d="M12.5 17.5H1.5V2.5" stroke="#455A64" stroke-miterlimit="10" stroke-linecap="round" stroke-linejoin="round"/>
<path d="M25.5 15.5H16.5C15.4 15.5 14.5 16.4 14.5 17.5V3.5C14.5 2.4 15.4 1.5 16.5 1.5H25.5V15.5Z" stroke="#455A64" stroke-miterlimit="10" stroke-linecap="round" stroke-linejoin="round"/>
<path d="M12.5 15.5H3.5V1.5H12.5C13.6 1.5 14.5 2.4 14.5 3.5V17.5C14.5 16.4 13.6 15.5 12.5 15.5Z" stroke="#455A64" stroke-miterlimit="10" stroke-linecap="round" stroke-linejoin="round"/>
<path d="M23.5 10.5H16.5" stroke="#455A64" stroke-miterlimit="10" stroke-linecap="round" stroke-linejoin="round"/>
<path d="M23.5 12.5H16.5" stroke="#455A64" stroke-miterlimit="10" stroke-linecap="round" stroke-linejoin="round"/>
<path d="M23.5 4.5H16.5" stroke="#455A64" stroke-miterlimit="10" stroke-linecap="round" stroke-linejoin="round"/>
<path d="M16.5 8.5H19.5" stroke="#455A64" stroke-miterlimit="10" stroke-linecap="round" stroke-linejoin="round"/>
<path d="M21.5 8.5H23.5" stroke="#455A64" stroke-miterlimit="10" stroke-linecap="round" stroke-linejoin="round"/>
<path d="M23.5 6.5H16.5" stroke="#455A64" stroke-miterlimit="10" stroke-linecap="round" stroke-linejoin="round"/>
<path d="M12.5 12.5H5.5" stroke="#455A64" stroke-miterlimit="10" stroke-linecap="round" stroke-linejoin="round"/>
<path d="M12.5 4.5H10.5" stroke="#455A64" stroke-miterlimit="10" stroke-linecap="round" stroke-linejoin="round"/>
<path d="M8.5 4.5H6.5" stroke="#455A64" stroke-miterlimit="10" stroke-linecap="round" stroke-linejoin="round"/>
<path d="M12.5 10.5H9.5" stroke="#455A64" stroke-miterlimit="10" stroke-linecap="round" stroke-linejoin="round"/>
<path d="M7.5 10.5H5.5" stroke="#455A64" stroke-miterlimit="10" stroke-linecap="round" stroke-linejoin="round"/>
<path d="M12.5 8.5H5.5" stroke="#455A64" stroke-miterlimit="10" stroke-linecap="round" stroke-linejoin="round"/>
<path d="M12.5 6.5H5.5" stroke="#455A64" stroke-miterlimit="10" stroke-linecap="round" stroke-linejoin="round"/>
</svg>
