<svg width="143" height="32" viewBox="0 0 143 32" fill="none" xmlns="http://www.w3.org/2000/svg">
<g clip-path="url(#clip0_704_75046)">
<path d="M10.5138 19.1207L10.2416 18.3009H8.25281L7.95275 19.1207H6.38265L8.66453 13.4787H9.82292L12.0908 19.1207H10.5068H10.5138ZM9.2507 15.2285L8.65057 17.1574H9.84385L9.2507 15.2285Z" fill="#35A8E0"/>
<path d="M13.947 19.1207H12.5514V13.4787H14.4216C15.245 13.4787 15.8312 13.6165 16.1801 13.8989C16.6267 14.264 16.85 14.76 16.85 15.3938C16.85 16.0276 16.6476 16.4891 16.2499 16.8543C15.894 17.1849 15.3427 17.3434 14.5821 17.3434H13.954V19.1138L13.947 19.1207ZM13.947 14.76V16.0827H14.5332C15.1403 16.0827 15.4404 15.8623 15.4404 15.4283C15.4404 14.9943 15.1194 14.76 14.4704 14.76H13.9401H13.947Z" fill="#35A8E0"/>
<path d="M19.0691 19.1207H17.6734V13.4787H20.7927V14.7531H19.0691V15.69H20.7299V16.9645H19.0691V19.1138V19.1207Z" fill="#35A8E0"/>
<path d="M24.9238 14.016C25.0634 14.1814 25.1541 14.3398 25.2099 14.4845C25.2588 14.636 25.2936 14.8496 25.3076 15.1251H23.8631C23.8143 14.76 23.6398 14.5809 23.3397 14.5809C23.2002 14.5809 23.0885 14.6222 22.9839 14.7049C22.8862 14.7876 22.8373 14.8909 22.8373 15.008C22.8373 15.2353 22.9978 15.4214 23.3258 15.566L24.0236 15.876C24.5051 16.0896 24.847 16.3238 25.0494 16.5718C25.2518 16.8198 25.3565 17.1298 25.3565 17.5018C25.3565 18.046 25.182 18.4662 24.8261 18.7694C24.4772 19.0725 23.9887 19.224 23.3537 19.224C22.7187 19.224 22.2093 19.0656 21.8394 18.7418C21.4696 18.4249 21.2812 17.984 21.2812 17.4398V17.2538H22.7466C22.7466 17.4811 22.8024 17.6671 22.9071 17.8049C23.0118 17.9427 23.1583 18.0116 23.3397 18.0116C23.5002 18.0116 23.6328 17.9565 23.7445 17.8531C23.8561 17.7498 23.905 17.6189 23.905 17.4673C23.905 17.2262 23.7026 17.0196 23.2909 16.8611L22.628 16.5925C22.3488 16.4754 22.1255 16.3445 21.9371 16.1929C21.5533 15.8898 21.3649 15.4971 21.3649 15.0287C21.3649 14.5602 21.5603 14.1676 21.9441 13.8438C22.3349 13.52 22.8024 13.3616 23.3677 13.3616C24.0376 13.3616 24.547 13.5751 24.9098 14.0022L24.9238 14.016Z" fill="#35A8E0"/>
<path d="M8.56683 26.2369C9.23674 26.5124 9.90665 26.7536 10.5975 26.9533C6.55013 24.928 3.77279 20.7809 3.77279 16.0069C3.77279 9.242 9.3484 3.73778 16.201 3.73778C23.0536 3.73778 28.6292 9.242 28.6292 16.0069C28.6292 20.7809 25.8519 24.928 21.8115 26.9533C22.4884 26.7536 23.1513 26.5193 23.8073 26.2507C23.9887 26.1749 24.1702 26.0991 24.3516 26.0164C24.3935 25.9958 24.4423 25.9751 24.4842 25.9544L24.6517 25.8787C24.7284 25.8442 24.8052 25.8098 24.8889 25.7684C24.9517 25.734 25.0215 25.6996 25.0913 25.6651L25.2657 25.5756C25.3146 25.548 25.3634 25.5273 25.4123 25.4998C25.503 25.4516 25.5937 25.4033 25.6844 25.3482L25.817 25.2724C25.817 25.2724 25.8868 25.238 25.9217 25.2173C26.0473 25.1484 26.1659 25.0796 26.2846 25.0038L26.3474 24.9693C26.3474 24.9693 26.3962 24.9418 26.4241 24.928C26.5567 24.8453 26.6823 24.7696 26.8149 24.6869L26.8638 24.6524C26.8638 24.6524 26.8986 24.6318 26.9126 24.6249C27.0522 24.5353 27.1847 24.4458 27.3243 24.3562L27.3941 24.308C27.5197 24.2184 27.6593 24.122 27.8198 24.0118L27.8686 23.9773C28.0082 23.874 28.1477 23.7707 28.3013 23.6536L28.3292 23.6398C28.4757 23.5296 28.6153 23.4124 28.7688 23.2884H28.7758C29.5922 22.6133 30.2203 22.0002 30.7506 21.1047C31.6159 19.6442 31.916 17.7911 31.916 16.0069C31.902 7.45089 24.861 0.5 16.201 0.5C7.54103 0.5 0.5 7.45089 0.5 16C0.5 17.7842 0.800064 19.6373 1.66536 21.1047C3.17266 23.6536 5.82439 25.0933 8.57381 26.2369H8.56683Z" fill="url(#paint0_radial_704_75046)"/>
<path d="M16.201 31.5C22.286 31.5 27.5755 28.0624 30.1784 23.0542C29.8783 23.3298 29.5713 23.5984 29.2573 23.8602H29.2503C29.0898 23.998 28.9433 24.1151 28.7897 24.2322L28.7688 24.246C28.6083 24.37 28.4618 24.4802 28.3152 24.5904L28.2664 24.6249C28.1059 24.742 27.9593 24.8384 27.8267 24.9349L27.757 24.9831C27.5895 25.1002 27.4569 25.1829 27.3313 25.2655C27.3104 25.2793 27.2894 25.2931 27.2685 25.3069L27.2266 25.3344C27.094 25.4171 26.9545 25.5066 26.8149 25.5893C26.787 25.6031 26.7591 25.6238 26.7312 25.6375L26.6753 25.672C26.5497 25.7478 26.4241 25.8166 26.2915 25.8924C26.2566 25.9131 26.2148 25.9338 26.1729 25.9544L26.0473 26.0233C25.9496 26.0784 25.8589 26.1266 25.7612 26.1818C25.7054 26.2093 25.6565 26.2369 25.6007 26.2644L25.4332 26.354C25.3634 26.3884 25.2936 26.4229 25.2169 26.4642C25.1331 26.5055 25.0494 26.54 24.9657 26.5813L24.8122 26.6571C24.7633 26.6778 24.7145 26.7053 24.6656 26.726C24.4772 26.8086 24.2888 26.8913 24.1004 26.9671C21.5952 28.0073 18.9365 28.5309 16.194 28.5309C13.4516 28.5309 10.7789 28.0004 8.26677 26.9602C6.04071 26.0371 3.98911 24.7144 2.22362 23.0886C4.8265 28.0969 10.116 31.5275 16.201 31.5275V31.5Z" fill="url(#paint1_radial_704_75046)"/>
<path d="M67.7422 11.1158C67.9516 11.4878 68.2447 11.8391 68.6354 12.1698C69.11 12.5693 69.6543 12.8793 70.2753 13.1067L71.015 11.9769C70.6661 11.8253 70.3451 11.6462 70.052 11.4396C69.7589 11.2329 69.5077 11.0056 69.2914 10.7576C69.082 10.5027 68.9146 10.2271 68.8029 9.91711C68.6913 9.60711 68.6285 9.26955 68.6285 8.89755V8.60133H70.5684V7.36133H65.0486V8.60133H66.835V8.89755C66.835 9.26955 66.7792 9.60711 66.6606 9.91711C66.542 10.2271 66.3815 10.5027 66.1721 10.7576C65.9628 11.0056 65.7046 11.2398 65.4185 11.4396C65.1254 11.6462 64.8044 11.8253 64.4555 11.9769L65.1952 13.1067C65.8232 12.8793 66.3675 12.5693 66.835 12.1698C67.2258 11.8391 67.5189 11.4878 67.7283 11.1158H67.7422Z" fill="#636362"/>
<path d="M46.8285 10.8678H50.2059V9.53823H43.8278C43.6813 9.53823 43.5766 9.51068 43.5138 9.46934C43.4719 9.4349 43.451 9.37979 43.437 9.3109V7.11334H41.3715C41.518 7.20979 41.6297 7.34068 41.6995 7.49912C41.7693 7.65756 41.8041 7.80223 41.8041 7.94001V9.8689C41.8041 10.172 41.9018 10.42 42.0972 10.5991C42.2926 10.7851 42.5578 10.8747 42.8858 10.8747H45.2025V11.8942H40.7365V13.2858H51.2945V11.8942H46.8285V10.8747V10.8678Z" fill="#636362"/>
<path d="M49.1243 14.4845C48.7614 14.2778 48.3288 14.1193 47.8124 14.0022C47.296 13.8851 46.7098 13.8231 46.0469 13.8231C45.384 13.8231 44.7908 13.8782 44.2744 14.0022C43.7511 14.1193 43.3114 14.2778 42.9416 14.4845C42.5787 14.6911 42.2996 14.9322 42.1112 15.2078C41.9228 15.4833 41.8251 15.7796 41.8251 16.0896C41.8251 16.3996 41.9228 16.7027 42.1112 16.9782C42.2996 17.2607 42.5787 17.4949 42.9416 17.7016C43.3045 17.9013 43.7511 18.0667 44.2744 18.1838C44.7908 18.3009 45.3909 18.3629 46.0469 18.3629C46.7029 18.3629 47.296 18.3009 47.8124 18.1838C48.3288 18.0667 48.7684 17.9082 49.1243 17.7016C49.4872 17.5018 49.7593 17.2607 49.9477 16.9782C50.1361 16.7027 50.2338 16.3996 50.2338 16.0896C50.2338 15.7796 50.1361 15.4833 49.9477 15.2078C49.7593 14.9322 49.4802 14.6911 49.1243 14.4845ZM47.7635 16.9093C47.3518 17.116 46.7796 17.2193 46.0539 17.2193C45.3281 17.2193 44.7559 17.116 44.3303 16.9093C43.8976 16.7027 43.6813 16.4271 43.6813 16.0896C43.6813 15.752 43.8976 15.4627 44.3303 15.2629C44.7629 15.0631 45.3351 14.9598 46.0539 14.9598C46.7726 14.9598 47.3518 15.0631 47.7635 15.2629C48.1753 15.4627 48.3776 15.7382 48.3776 16.0896C48.3776 16.4409 48.1753 16.6958 47.7635 16.9093Z" fill="#636362"/>
<path d="M60.2057 6.87909C60.3383 6.95487 60.443 7.07198 60.5198 7.23731C60.5965 7.40264 60.6384 7.5542 60.6384 7.69198V9.46931H58.6984C58.6217 9.17998 58.503 8.90442 58.3425 8.64264C58.182 8.38087 57.9727 8.14664 57.7215 7.95376C57.4703 7.75398 57.1772 7.59553 56.8422 7.47842C56.5073 7.36131 56.1374 7.29931 55.7397 7.29931C55.2582 7.29931 54.8255 7.38198 54.4487 7.54042C54.0719 7.69887 53.7509 7.91242 53.4927 8.1742C53.2275 8.43598 53.0321 8.73909 52.8995 9.07664C52.7669 9.4142 52.6972 9.76553 52.6972 10.1169C52.6972 10.4682 52.7669 10.8195 52.8995 11.164C53.0321 11.5015 53.2345 11.8046 53.4927 12.0664C53.7578 12.3282 54.0719 12.5418 54.4487 12.7071C54.8255 12.8655 55.2512 12.9482 55.7397 12.9482C56.1653 12.9482 56.5491 12.8862 56.8911 12.7622C57.233 12.6382 57.5331 12.4729 57.7843 12.2593C58.0355 12.0458 58.2449 11.8046 58.4054 11.5222C58.5659 11.2398 58.6705 10.9435 58.7263 10.6404H60.6314V13.1618H62.2573V6.88598H60.1988L60.2057 6.87909ZM57.1214 10.7162C57.0585 10.9091 56.9609 11.0744 56.8352 11.226C56.7096 11.3775 56.5561 11.4946 56.3677 11.5842C56.1863 11.6738 55.9769 11.722 55.7397 11.722C55.5024 11.722 55.2931 11.6738 55.1046 11.5842C54.9232 11.4946 54.7627 11.3775 54.6371 11.226C54.5115 11.0813 54.4138 10.9091 54.351 10.7162C54.2882 10.5302 54.2533 10.3304 54.2533 10.1238C54.2533 9.91709 54.2882 9.73109 54.351 9.5382C54.4138 9.3522 54.5115 9.17998 54.6371 9.02842C54.7627 8.87687 54.9162 8.75976 55.1046 8.6702C55.2861 8.58064 55.5024 8.53931 55.7397 8.53931C55.9769 8.53931 56.1863 8.58753 56.3677 8.6702C56.5561 8.75976 56.7096 8.87687 56.8352 9.02842C56.9609 9.17998 57.0585 9.3522 57.1214 9.5382C57.1842 9.73109 57.219 9.92398 57.219 10.1238C57.219 10.3235 57.1842 10.5233 57.1214 10.7162Z" fill="#636362"/>
<path d="M72.8991 14.3604C72.5642 14.1537 72.1525 13.9884 71.664 13.8644C71.1755 13.7473 70.6173 13.6853 69.9962 13.6853C69.3751 13.6853 68.8099 13.7473 68.3214 13.8644C67.826 13.9815 67.4142 14.1469 67.0723 14.3604C66.7304 14.5671 66.4722 14.8151 66.2908 15.1044C66.1093 15.3869 66.0186 15.69 66.0186 16.0069C66.0186 16.3237 66.1093 16.6269 66.2908 16.9093C66.4722 17.1917 66.7304 17.4329 67.0723 17.6395C67.4142 17.8462 67.8329 18.0115 68.3214 18.1286C68.8169 18.2457 69.3751 18.3077 69.9962 18.3077C70.6173 18.3077 71.1755 18.2457 71.664 18.1286C72.1525 18.0115 72.5642 17.8462 72.8991 17.6395C73.2341 17.4329 73.4923 17.1917 73.6737 16.9093C73.8552 16.6269 73.9459 16.3306 73.9459 16.0069C73.9459 15.6831 73.8552 15.3869 73.6737 15.1044C73.4923 14.822 73.2341 14.574 72.8991 14.3604ZM71.5593 16.8542C71.1825 17.0746 70.6661 17.1849 70.0101 17.1849C69.3542 17.1849 68.8378 17.0746 68.454 16.8542C68.0702 16.6337 67.8748 16.3582 67.8748 16.0206C67.8748 15.6624 68.0702 15.3731 68.454 15.1457C68.8378 14.9184 69.3542 14.8082 70.0101 14.8082C70.6661 14.8082 71.1825 14.9184 71.5593 15.1457C71.9361 15.3731 72.1246 15.6624 72.1246 16.0206C72.1246 16.3582 71.9361 16.6337 71.5593 16.8542Z" fill="#636362"/>
<path d="M72.1804 7.23731C72.2571 7.40264 72.299 7.5542 72.299 7.69198V9.26953H70.4707V10.4338H72.299V13.2031H73.918V7.64376C73.918 7.64376 73.918 7.6162 73.918 7.60242V6.87909H73.0945C73.0945 6.87909 73.0945 6.87909 73.0806 6.87909H71.8664C71.9989 6.95487 72.1036 7.07198 72.1804 7.23731Z" fill="#636362"/>
<path d="M61.4199 13.8093H60.2127C60.3383 13.8851 60.443 14.0022 60.5198 14.1607C60.5895 14.3122 60.6244 14.4569 60.6314 14.5878V14.8082H55.9769V13.8093H55.1814C55.1814 13.8093 55.1605 13.8093 55.1465 13.8093H53.9393C54.0649 13.8851 54.1696 14.0022 54.2463 14.1607C54.3231 14.326 54.365 14.4775 54.365 14.6153V16.31V16.9713C54.365 17.3847 54.4696 17.6878 54.679 17.8807C54.8883 18.0735 55.1535 18.17 55.4745 18.17H62.2573V13.8093H61.4409C61.4409 13.8093 61.4269 13.8093 61.4199 13.8093ZM60.6384 17.0127H56.3468C56.2002 17.0127 56.1025 16.9782 56.0537 16.9093C56.0048 16.8404 55.9839 16.7302 55.9839 16.5855V15.9793H60.6384V17.0127Z" fill="#636362"/>
<path d="M81.8034 7.48531C81.8452 7.66442 81.8731 7.81598 81.8731 7.94687V13.2238H83.3665V10.916H84.483V13.2582H86.0043V12.9551V6.87909H85.1878C85.1878 6.87909 85.1878 6.87909 85.1808 6.87909H84.0783C84.2248 6.96864 84.3295 7.09264 84.3923 7.25109C84.4551 7.41642 84.483 7.5542 84.483 7.6782V9.75176H83.3665V7.08576H81.5242C81.6638 7.17531 81.7545 7.3062 81.8034 7.48531Z" fill="#636362"/>
<path d="M78.8655 11.4258C78.9423 11.6118 79.0539 11.7978 79.2075 11.9907C79.361 12.1767 79.5424 12.3558 79.7448 12.5211C79.9471 12.6865 80.1565 12.838 80.3868 12.9689C80.6171 13.0998 80.8404 13.2031 81.0637 13.2789L81.6917 12.3971C81.0218 12.0665 80.5054 11.6669 80.1565 11.1985C79.8006 10.73 79.6052 10.1514 79.5633 9.46247H81.4265V8.29824H79.5703V7.74024C79.5703 7.74024 79.5703 7.71269 79.5703 7.7058V6.96869H78.9144C78.9144 6.96869 78.9004 6.96869 78.8934 6.96869H77.6164C77.6932 7.01002 77.749 7.06513 77.7978 7.13402C77.8397 7.20291 77.8746 7.2718 77.9025 7.35447C77.9304 7.43024 77.9444 7.50602 77.9584 7.5818C77.9723 7.65758 77.9793 7.72647 77.9793 7.78158V8.29824H76.1649V9.46247H77.9793C77.9374 10.1307 77.742 10.7094 77.3931 11.1916C77.0442 11.6738 76.5208 12.094 75.837 12.4454L76.6464 13.4718C77.1628 13.2376 77.6234 12.9414 78.0212 12.5831C78.4189 12.2249 78.705 11.8391 78.8655 11.4258Z" fill="#636362"/>
<path d="M93.6733 13.086H96.4158V7.39575H94.3153C94.6363 7.63686 94.7968 8.01575 94.7968 8.53242V9.40042H90.5401V7.46464H88.4396C88.7606 7.70575 88.9142 8.08464 88.9142 8.6082V11.8873C88.9142 12.3006 89.0188 12.6038 89.2282 12.7966C89.4375 12.9895 89.7027 13.086 90.0167 13.086H91.6985V15.1458H87.6581V16.5166H97.7695V15.1458H93.6663V13.086H93.6733ZM90.9448 11.9218C90.7983 11.9218 90.6936 11.8942 90.6308 11.846C90.575 11.7978 90.5471 11.7082 90.5401 11.5773V10.5578H94.7968V11.9218H90.9448Z" fill="#636362"/>
<path d="M101.873 13.4236C102.298 13.4236 102.682 13.3616 103.024 13.2376C103.366 13.1136 103.652 12.9414 103.889 12.7278C104.127 12.5142 104.308 12.2594 104.427 11.9769C104.552 11.6876 104.608 11.3845 104.608 11.0538C104.608 10.3856 104.364 9.82069 103.882 9.36602H105.173V8.2018H102.654V6.86536H100.7C100.84 6.95491 100.945 7.0858 101.014 7.25113C101.084 7.42336 101.119 7.56113 101.119 7.67825V8.19491H98.5441V9.35913H99.8421C99.6048 9.57958 99.4234 9.83447 99.3048 10.1169C99.1861 10.4062 99.1303 10.7094 99.1303 11.0469C99.1303 11.3845 99.1931 11.6876 99.3117 11.97C99.4373 12.2525 99.6118 12.5074 99.8491 12.7209C100.086 12.9345 100.372 13.1067 100.707 13.2307C101.042 13.3547 101.426 13.4167 101.859 13.4167L101.873 13.4236ZM100.959 10.0962C101.175 9.84825 101.482 9.72425 101.873 9.72425C102.264 9.72425 102.578 9.84825 102.794 10.0962C103.01 10.3442 103.115 10.6405 103.115 10.9987C103.115 11.3569 103.01 11.66 102.794 11.9011C102.585 12.1422 102.277 12.2594 101.873 12.2594C101.468 12.2594 101.175 12.1422 100.959 11.9011C100.742 11.66 100.631 11.3638 100.631 10.9987C100.631 10.6336 100.742 10.3442 100.959 10.0962Z" fill="#636362"/>
<path d="M118.676 7.46464L111.566 7.45087V8.61509H117.092L117.078 11.4533H110.009V12.9206H120.56V11.4533H118.697L118.676 7.46464Z" fill="#636362"/>
<path d="M123.868 10.9022C124.203 11.1158 124.615 11.2742 125.103 11.3913C125.592 11.5084 126.15 11.5704 126.778 11.5704C127.406 11.5704 127.964 11.5153 128.453 11.3913C128.941 11.2742 129.353 11.1089 129.688 10.9022C130.023 10.6887 130.274 10.4476 130.449 10.1582C130.616 9.86888 130.707 9.56577 130.707 9.22822C130.707 8.89066 130.623 8.58755 130.449 8.30511C130.281 8.01577 130.023 7.76777 129.688 7.56111C129.353 7.35444 128.941 7.18911 128.453 7.07199C127.964 6.95488 127.406 6.89288 126.778 6.89288C126.15 6.89288 125.592 6.95488 125.103 7.07199C124.615 7.18911 124.203 7.35444 123.868 7.56111C123.533 7.76777 123.282 8.02266 123.107 8.30511C122.94 8.59444 122.856 8.89755 122.856 9.22822C122.856 9.55888 122.94 9.86888 123.107 10.1582C123.282 10.4476 123.533 10.6956 123.868 10.9022ZM125.222 8.40844C125.606 8.22244 126.129 8.12599 126.778 8.12599C127.427 8.12599 127.95 8.22244 128.334 8.40844C128.718 8.59444 128.913 8.86999 128.913 9.23511C128.913 9.60022 128.718 9.87577 128.334 10.0618C127.95 10.2478 127.434 10.3373 126.778 10.3373C126.122 10.3373 125.606 10.2478 125.222 10.0618C124.838 9.87577 124.65 9.60022 124.65 9.23511C124.65 8.86999 124.845 8.60133 125.222 8.40844Z" fill="#636362"/>
<path d="M133.903 10.0825C134.028 10.358 134.21 10.5922 134.447 10.7989C134.684 10.9987 134.977 11.164 135.333 11.2742C135.682 11.3913 136.094 11.4533 136.548 11.4533C137.001 11.4533 137.399 11.3913 137.755 11.2742C138.111 11.1571 138.411 10.9987 138.655 10.7989C138.899 10.5991 139.088 10.358 139.213 10.0825C139.339 9.8069 139.402 9.51757 139.402 9.20757C139.402 8.89757 139.339 8.60135 139.213 8.32579C139.088 8.05713 138.899 7.81601 138.655 7.61624C138.411 7.41646 138.111 7.25113 137.755 7.1409C137.399 7.02379 136.994 6.96179 136.548 6.96179C136.101 6.96179 135.682 7.02379 135.333 7.1409C134.984 7.25801 134.684 7.41646 134.447 7.61624C134.21 7.81601 134.028 8.05024 133.903 8.32579C133.777 8.59446 133.714 8.89068 133.714 9.20757C133.714 9.52446 133.777 9.8069 133.903 10.0825ZM135.571 8.47046C135.794 8.27068 136.129 8.16735 136.562 8.16735C136.994 8.16735 137.315 8.27068 137.545 8.47046C137.776 8.67024 137.887 8.91824 137.887 9.21446C137.887 9.51068 137.776 9.75868 137.545 9.95846C137.315 10.1582 136.987 10.2547 136.562 10.2547C136.136 10.2547 135.801 10.1582 135.571 9.95846C135.347 9.75868 135.236 9.51068 135.236 9.21446C135.236 8.91824 135.347 8.67713 135.571 8.47046Z" fill="#636362"/>
<path d="M136.331 16.8198C136.268 16.7715 136.241 16.6751 136.241 16.5304V14.9942H135.403C135.403 14.9942 135.403 14.9942 135.389 14.9942H134.182C134.315 15.07 134.419 15.1871 134.496 15.3524C134.573 15.5178 134.615 15.6693 134.615 15.8002V16.9162V17.054C134.615 17.3571 134.712 17.6051 134.908 17.7842C135.103 17.9633 135.368 18.0529 135.689 18.0529H142.472V16.8886H136.631C136.485 16.8886 136.38 16.8611 136.317 16.8129L136.331 16.8198Z" fill="#636362"/>
<path d="M135.787 13.0378V14.3949H137.406V13.0378H140.309V11.8735H133.219V13.0378H135.787Z" fill="#636362"/>
<path d="M108.209 6.88599H106.15C106.283 6.95488 106.388 7.07887 106.464 7.24421C106.541 7.40954 106.583 7.5611 106.583 7.69887V10.3511H105.013V11.5153H106.583V13.6509H108.202V6.89287L108.209 6.88599Z" fill="#636362"/>
<path d="M142.5 6.88599H140.441C140.574 6.95488 140.679 7.07199 140.755 7.23732C140.832 7.40265 140.874 7.55421 140.874 7.69199V13.6027H138.99V14.7669H140.874V15.8209H142.493V6.88599H142.5Z" fill="#636362"/>
<path d="M108.202 14.2433H107.344C107.267 14.2295 107.183 14.2227 107.099 14.2227H100.268V16.9713C100.268 17.3847 100.372 17.6878 100.582 17.8807C100.791 18.0735 101.056 18.17 101.377 18.17H108.209V15.2698C108.209 15.2698 108.209 15.2629 108.209 15.256V14.2364L108.202 14.2433ZM106.583 15.9173V17.0127H102.291C102.145 17.0127 102.04 16.9851 101.977 16.9369C101.915 16.8887 101.887 16.7922 101.887 16.6475V15.3869H106.583V15.9173Z" fill="#636362"/>
<path d="M119.039 13.9265L111.37 13.9471V16.9025C111.37 17.3158 111.475 17.6189 111.684 17.8118C111.893 18.0047 112.159 18.1011 112.48 18.1011H119.046V13.9265H119.039ZM113.408 16.9369C113.261 16.9369 113.157 16.9093 113.094 16.8611C113.031 16.8129 113.003 16.7165 113.003 16.5718V15.1045H117.42V16.9369H113.408Z" fill="#636362"/>
<path d="M84.5109 13.9954H78.0072V15.1596H84.3853V15.8002V18.2596H86.0043V17.4742H86.0112V13.9885H84.5109V13.9954Z" fill="#636362"/>
<path d="M131.844 13.21V12.0458H121.663V13.21H123.889V14.3949C123.826 14.4293 123.763 14.4569 123.701 14.4913C123.338 14.698 123.059 14.9391 122.87 15.2147C122.682 15.4902 122.584 15.7864 122.584 16.0964C122.584 16.4064 122.682 16.7096 122.87 16.9851C123.059 17.2676 123.338 17.5018 123.701 17.7084C124.064 17.9082 124.51 18.0736 125.026 18.1907C125.55 18.3078 126.136 18.3698 126.806 18.3698C127.476 18.3698 128.055 18.3078 128.571 18.1907C129.088 18.0736 129.527 17.9151 129.883 17.7084C130.239 17.5087 130.518 17.2676 130.707 16.9851C130.895 16.7096 130.993 16.4064 130.993 16.0964C130.993 15.7864 130.895 15.4902 130.707 15.2147C130.518 14.9391 130.239 14.698 129.883 14.4913C129.814 14.4569 129.744 14.4224 129.674 14.3811V13.21H131.837H131.844ZM127.978 13.21V13.8989C127.615 13.8507 127.225 13.8231 126.806 13.8231C126.387 13.8231 125.969 13.8507 125.592 13.8989V13.2031H127.971L127.978 13.21ZM126.82 14.9667C127.546 14.9667 128.118 15.07 128.53 15.2698C128.941 15.4696 129.144 15.7451 129.144 16.0964C129.144 16.4478 128.934 16.7027 128.53 16.9162C128.118 17.1229 127.546 17.2262 126.82 17.2262C126.094 17.2262 125.529 17.1229 125.096 16.9162C124.664 16.7096 124.454 16.434 124.454 16.0964C124.454 15.7589 124.671 15.4696 125.096 15.2698C125.529 15.07 126.101 14.9667 126.82 14.9667Z" fill="#636362"/>
<path d="M49.8012 22.5444H49.222V23.0542H49.8012V22.5444Z" fill="#636362"/>
<path d="M75.0763 22.5444H74.4971V23.0542H75.0763V22.5444Z" fill="#636362"/>
<path d="M111.419 22.5444H110.84V23.0542H111.419V22.5444Z" fill="#636362"/>
<path d="M136.827 22.5444H136.247V23.0542H136.827V22.5444Z" fill="#636362"/>
<path d="M42.3415 22.5444L41.0226 25.6789H41.6716L42.0274 24.866H43.1509L43.4929 25.6789H44.1419L42.809 22.5444H42.3484H42.3415ZM42.2298 24.3287L42.5718 23.3642L42.9137 24.3287H42.2298Z" fill="#636362"/>
<path d="M46.4656 23.6191C46.2632 23.3711 45.9981 23.2471 45.6701 23.2471C45.3421 23.2471 45.049 23.3711 44.8048 23.6122C44.5675 23.8534 44.4489 24.1496 44.4489 24.4871C44.4489 24.8247 44.5675 25.1347 44.8118 25.3827C45.056 25.6307 45.3421 25.7616 45.6771 25.7616C45.9911 25.7616 46.2563 25.6376 46.4656 25.3827C46.4516 25.6031 46.3749 25.7822 46.2423 25.9131C46.1027 26.0509 45.9353 26.1198 45.7259 26.1198C45.4886 26.1198 45.2933 26.0371 45.1397 25.858H44.4908C44.5885 26.0991 44.742 26.2851 44.9583 26.4229C45.1746 26.5607 45.4189 26.6365 45.691 26.6365C46.0469 26.6365 46.34 26.5262 46.5842 26.3058C46.8564 26.0509 46.9959 25.7065 46.9959 25.2587V23.3367H46.4726V23.626L46.4656 23.6191ZM46.2144 25.0314C46.0818 25.176 45.9213 25.2449 45.7329 25.2449C45.5375 25.2449 45.37 25.1691 45.2305 25.0314C45.0909 24.8867 45.0281 24.7076 45.0281 24.494C45.0281 24.2805 45.0979 24.1151 45.2305 23.9705C45.363 23.8327 45.5305 23.7638 45.7189 23.7638C45.9073 23.7638 46.0748 23.8396 46.2074 23.9842C46.34 24.1289 46.4098 24.3011 46.4098 24.5078C46.4098 24.7145 46.347 24.8867 46.2144 25.0314Z" fill="#636362"/>
<path d="M48.4614 23.3091C48.3916 23.3505 48.3079 23.4262 48.2241 23.5365V23.3298H47.7007V25.6789H48.2799V24.3562C48.2799 23.998 48.4474 23.8051 48.7893 23.7982V23.254C48.7893 23.254 48.7614 23.2471 48.7475 23.2471C48.6358 23.2471 48.5381 23.2678 48.4684 23.3091H48.4614Z" fill="#636362"/>
<path d="M49.8012 23.3298H49.222V25.6789H49.8012V23.3298Z" fill="#636362"/>
<path d="M51.5109 23.7569C51.7481 23.7569 51.9296 23.874 52.0621 24.1082H52.7041C52.6483 23.9429 52.5785 23.8051 52.4878 23.7018C52.2296 23.3987 51.9016 23.2471 51.5109 23.2471C51.1689 23.2471 50.8689 23.3711 50.6176 23.6122C50.3664 23.8534 50.2478 24.1496 50.2478 24.494C50.2478 24.8385 50.3734 25.1416 50.6176 25.3896C50.8619 25.6376 51.1619 25.7616 51.5109 25.7616C51.7551 25.7616 51.9854 25.6927 52.1947 25.5618C52.425 25.4171 52.5925 25.2036 52.6972 24.9142H52.0552C51.9226 25.1347 51.7411 25.2449 51.5248 25.2449C51.3085 25.2449 51.148 25.176 51.0154 25.0382C50.8828 24.9005 50.813 24.7214 50.813 24.5078C50.813 24.2942 50.8758 24.1151 51.0084 23.9774C51.141 23.8396 51.3015 23.7707 51.5039 23.7707L51.5109 23.7569Z" fill="#636362"/>
<path d="M54.6232 24.5353C54.6232 25.0107 54.4557 25.2449 54.1347 25.2449C53.8137 25.2449 53.6532 25.0107 53.6532 24.5353V23.3298H53.081V24.7076C53.081 25.0589 53.1787 25.3276 53.374 25.5067C53.5625 25.6789 53.7927 25.7616 54.0579 25.7616C54.1975 25.7616 54.3091 25.734 54.4068 25.6927C54.4975 25.6444 54.5883 25.5618 54.679 25.4516V25.6858H55.2023V23.3367H54.6232V24.5422V24.5353Z" fill="#636362"/>
<path d="M56.3398 22.5444H55.7606V25.6789H56.3398V22.5444Z" fill="#636362"/>
<path d="M57.7285 22.5444H57.1563V23.3298H56.8771V23.8395H57.1563V25.6789H57.7285V23.8395H58.0704V23.3298H57.7285V22.5444Z" fill="#636362"/>
<path d="M60.0871 24.5353C60.0871 25.0107 59.9266 25.2449 59.5986 25.2449C59.2707 25.2449 59.1171 25.0107 59.1171 24.5353V23.3298H58.5379V24.7076C58.5379 25.0589 58.6356 25.3276 58.831 25.5067C59.0194 25.6789 59.2497 25.7616 59.5149 25.7616C59.6545 25.7616 59.7661 25.734 59.8568 25.6927C59.9475 25.6444 60.0383 25.5618 60.129 25.4516V25.6858H60.6523V23.3367H60.0731V24.5422L60.0871 24.5353Z" fill="#636362"/>
<path d="M61.9852 23.3091C61.9154 23.3505 61.8317 23.4262 61.7479 23.5365V23.3298H61.2245V25.6789H61.8037V24.3562C61.8037 23.998 61.9712 23.8051 62.3132 23.7982V23.254C62.3132 23.254 62.2852 23.2471 62.2713 23.2471C62.1596 23.2471 62.0619 23.2678 61.9922 23.3091H61.9852Z" fill="#636362"/>
<path d="M64.4764 23.626C64.3857 23.5158 64.2671 23.4262 64.1205 23.3574C63.974 23.2885 63.8274 23.2471 63.6739 23.2471C63.332 23.2471 63.0529 23.3711 62.8226 23.6054C62.5923 23.8465 62.4806 24.1427 62.4806 24.494C62.4806 24.8454 62.5923 25.1554 62.8086 25.3965C63.0249 25.6376 63.3041 25.7616 63.639 25.7616C63.7856 25.7616 63.9391 25.7271 64.0996 25.6514C64.2601 25.5825 64.3857 25.4929 64.4764 25.3896V25.6789H64.9998V23.3298H64.4764V23.626ZM64.2671 25.0314C64.1345 25.1691 63.967 25.2449 63.7646 25.2449C63.5623 25.2449 63.4018 25.176 63.2622 25.0382C63.1296 24.9005 63.0598 24.7282 63.0598 24.5216C63.0598 24.3149 63.1296 24.1289 63.2622 23.9842C63.3948 23.8396 63.5623 23.7638 63.7646 23.7638C63.967 23.7638 64.1345 23.8327 64.2671 23.9705C64.3996 24.1082 64.4625 24.2874 64.4625 24.494C64.4625 24.7007 64.3996 24.8867 64.2671 25.0314Z" fill="#636362"/>
<path d="M66.1442 22.5444H65.565V25.6789H66.1442V22.5444Z" fill="#636362"/>
<path d="M69.3681 22.572C69.2705 22.5513 69.103 22.5444 68.8657 22.5444H68.0632V25.6789H68.6564V24.4871H68.8587C69.1797 24.4871 69.403 24.4595 69.5356 24.4113C69.7031 24.3493 69.8357 24.2322 69.9404 24.06C70.045 23.8878 70.0939 23.7018 70.0939 23.4951C70.0939 23.2127 69.9962 22.9784 69.8008 22.7993C69.6752 22.6822 69.5286 22.6064 69.3681 22.572ZM68.8448 23.9429H68.6564V23.0818H68.8657C69.096 23.0818 69.2635 23.1162 69.3612 23.1782C69.4589 23.2402 69.5077 23.3504 69.5077 23.4951C69.5077 23.7913 69.2844 23.9429 68.8378 23.9429H68.8448Z" fill="#636362"/>
<path d="M71.65 23.2471C71.2941 23.2471 70.9941 23.3711 70.7498 23.6191C70.4986 23.8671 70.373 24.1634 70.373 24.5078C70.373 24.8522 70.4986 25.1485 70.7498 25.3965C71.0011 25.6445 71.2941 25.7685 71.643 25.7685C71.992 25.7685 72.292 25.6445 72.5432 25.3965C72.7945 25.1485 72.9131 24.8591 72.9131 24.5078C72.9131 24.1565 72.7875 23.8602 72.5432 23.6191C72.299 23.378 71.9989 23.2471 71.65 23.2471ZM72.1315 25.0314C71.9989 25.1691 71.8384 25.2449 71.643 25.2449C71.4477 25.2449 71.2802 25.176 71.1476 25.0314C71.015 24.8867 70.9452 24.7076 70.9452 24.5009C70.9452 24.2942 71.015 24.122 71.1546 23.9774C71.2941 23.8327 71.4546 23.7569 71.643 23.7569C71.8315 23.7569 71.992 23.8327 72.1245 23.9774C72.2571 24.122 72.3269 24.3011 72.3269 24.5078C72.3269 24.7145 72.2641 24.8867 72.1315 25.0314Z" fill="#636362"/>
<path d="M73.9389 22.5444H73.3597V25.6789H73.9389V22.5444Z" fill="#636362"/>
<path d="M75.0763 23.3298H74.4971V25.6789H75.0763V23.3298Z" fill="#636362"/>
<path d="M76.786 23.7569C77.0233 23.7569 77.2047 23.874 77.3373 24.1082H77.9793C77.9235 23.9429 77.8537 23.8051 77.763 23.7018C77.5048 23.3987 77.1838 23.2471 76.786 23.2471C76.4371 23.2471 76.144 23.3711 75.8928 23.6122C75.6416 23.8534 75.5229 24.1496 75.5229 24.494C75.5229 24.8385 75.6486 25.1416 75.8928 25.3896C76.144 25.6376 76.4371 25.7616 76.786 25.7616C77.0302 25.7616 77.2605 25.6927 77.4699 25.5618C77.7002 25.4171 77.8676 25.2036 77.9723 24.9142H77.3303C77.1907 25.1347 77.0163 25.2449 76.8 25.2449C76.5976 25.2449 76.4231 25.176 76.2906 25.0382C76.158 24.9005 76.0882 24.7214 76.0882 24.5078C76.0882 24.2942 76.151 24.1151 76.2836 23.9774C76.4162 23.8396 76.5767 23.7707 76.779 23.7707L76.786 23.7569Z" fill="#636362"/>
<path d="M79.2772 24.8384L78.7399 23.3298H78.084L78.9562 25.4584L78.5166 26.4642H79.1307L80.5054 23.3298H79.8494L79.2772 24.8384Z" fill="#636362"/>
<path d="M82.6547 22.5444H82.0616V25.6789H82.6547V22.5444Z" fill="#636362"/>
<path d="M85.0273 23.3918C84.8738 23.2954 84.7063 23.2471 84.5249 23.2471C84.2876 23.2471 84.0713 23.3436 83.8759 23.5365V23.3298H83.3456V25.6789H83.9178V24.556C83.9178 24.3149 83.9387 24.1496 83.9736 24.0531C84.0085 23.9705 84.0643 23.8947 84.148 23.8465C84.2248 23.7914 84.3155 23.7638 84.4062 23.7638C84.7203 23.7638 84.8808 24.0118 84.8808 24.5147V25.6789H85.46V24.4114C85.46 24.1289 85.4251 23.9222 85.3623 23.7776C85.2925 23.6191 85.1738 23.4882 85.0203 23.3918H85.0273Z" fill="#636362"/>
<path d="M86.9882 24.2254L86.8277 24.1703C86.6672 24.122 86.5834 24.0463 86.5834 23.9567C86.5834 23.9016 86.6044 23.8534 86.6462 23.8189C86.6881 23.7776 86.737 23.7638 86.7998 23.7638C86.9254 23.7638 86.9952 23.8327 87.0231 23.9705H87.5813C87.5743 23.7638 87.4906 23.5985 87.3441 23.4607C87.1975 23.3229 87.0161 23.254 86.7998 23.254C86.5834 23.254 86.3881 23.3298 86.2345 23.4676C86.081 23.6054 86.0043 23.7845 86.0043 23.9843C86.0043 24.184 86.074 24.3563 86.2206 24.4803C86.3043 24.556 86.4578 24.6318 86.6672 24.7007C86.8277 24.7558 86.9324 24.7971 86.9882 24.8454C87.044 24.8867 87.0719 24.9418 87.0719 25.0107C87.0719 25.0796 87.051 25.1347 87.0021 25.1829C86.9533 25.2311 86.8905 25.2518 86.8207 25.2518C86.6672 25.2518 86.5625 25.1485 86.5067 24.9487H85.9275C85.9414 25.1071 85.9763 25.2311 86.0252 25.3276C86.095 25.4585 86.1927 25.5687 86.3322 25.6445C86.4718 25.7271 86.6183 25.7685 86.7858 25.7685C87.03 25.7685 87.2324 25.6858 87.3999 25.5205C87.5674 25.362 87.6511 25.1691 87.6511 24.9418C87.6511 24.7283 87.5813 24.5629 87.4278 24.4389C87.351 24.37 87.2045 24.308 86.9882 24.2391V24.2254Z" fill="#636362"/>
<path d="M89.7167 24.5353C89.7167 25.0107 89.5492 25.2449 89.2282 25.2449C88.9072 25.2449 88.7467 25.0107 88.7467 24.5353V23.3298H88.1675V24.7076C88.1675 25.0589 88.2652 25.3276 88.4606 25.5067C88.649 25.6789 88.8793 25.7616 89.1445 25.7616C89.284 25.7616 89.3957 25.734 89.4864 25.6927C89.5771 25.6444 89.6678 25.5618 89.7585 25.4516V25.6858H90.2819V23.3367H89.7097V24.5422L89.7167 24.5353Z" fill="#636362"/>
<path d="M91.6148 23.3091C91.545 23.3505 91.4612 23.4262 91.3775 23.5365V23.3298H90.8541V25.6789H91.4263V24.3562C91.4263 23.998 91.6008 23.8051 91.9358 23.7982V23.254C91.9358 23.254 91.9078 23.2471 91.8939 23.2471C91.7822 23.2471 91.6845 23.2678 91.6148 23.3091Z" fill="#636362"/>
<path d="M94.099 23.626C94.0153 23.5158 93.8896 23.4262 93.7431 23.3574C93.5966 23.2885 93.45 23.2471 93.2965 23.2471C92.9546 23.2471 92.6754 23.3711 92.4452 23.6054C92.2149 23.8465 92.1032 24.1427 92.1032 24.494C92.1032 24.8454 92.2149 25.1554 92.4312 25.3965C92.6475 25.6376 92.9266 25.7616 93.2616 25.7616C93.4081 25.7616 93.5617 25.7271 93.7222 25.6514C93.8827 25.5825 94.0083 25.4929 94.092 25.3896V25.6789H94.6154V23.3298H94.092V23.626H94.099ZM93.8896 25.0314C93.7571 25.1691 93.5896 25.2449 93.3872 25.2449C93.1848 25.2449 93.0243 25.176 92.8918 25.0382C92.7592 24.9005 92.6894 24.7282 92.6894 24.5216C92.6894 24.3149 92.7592 24.1289 92.8918 23.9842C93.0243 23.8396 93.1918 23.7638 93.3942 23.7638C93.5966 23.7638 93.764 23.8327 93.8966 23.9705C94.0292 24.1082 94.092 24.2874 94.092 24.494C94.092 24.7007 94.0292 24.8867 93.8966 25.0314H93.8896Z" fill="#636362"/>
<path d="M96.8693 23.3918C96.7158 23.2954 96.5483 23.2471 96.3669 23.2471C96.1297 23.2471 95.9133 23.3436 95.7179 23.5365V23.3298H95.1876V25.6789H95.7598V24.556C95.7598 24.3149 95.7807 24.1496 95.8156 24.0531C95.8505 23.9705 95.9063 23.8947 95.9901 23.8465C96.0668 23.7914 96.1576 23.7638 96.2483 23.7638C96.5623 23.7638 96.7228 24.0118 96.7228 24.5147V25.6789H97.295V24.4114C97.295 24.1289 97.2671 23.9222 97.1973 23.7776C97.1275 23.6191 97.0089 23.4882 96.8554 23.3918H96.8693Z" fill="#636362"/>
<path d="M99.0117 23.7569C99.2489 23.7569 99.4304 23.874 99.563 24.1082H100.205C100.149 23.9429 100.079 23.8051 99.9886 23.7018C99.7304 23.3987 99.4024 23.2471 99.0117 23.2471C98.6628 23.2471 98.3697 23.3711 98.1185 23.6122C97.8742 23.8534 97.7486 24.1496 97.7486 24.494C97.7486 24.8385 97.8742 25.1416 98.1185 25.3896C98.3697 25.6376 98.6628 25.7616 99.0117 25.7616C99.2559 25.7616 99.4862 25.6927 99.6955 25.5618C99.9258 25.4171 100.093 25.2036 100.198 24.9142H99.556C99.4164 25.1347 99.242 25.2449 99.0256 25.2449C98.8163 25.2449 98.6488 25.176 98.5162 25.0382C98.3836 24.9005 98.3138 24.7214 98.3138 24.5078C98.3138 24.2942 98.3766 24.1151 98.5092 23.9774C98.6348 23.8396 98.8023 23.7707 99.0047 23.7707L99.0117 23.7569Z" fill="#636362"/>
<path d="M101.629 23.2333C101.28 23.2333 100.987 23.3573 100.742 23.6053C100.498 23.8533 100.372 24.1564 100.372 24.5078C100.372 24.8591 100.498 25.1553 100.742 25.3964C100.987 25.6376 101.287 25.7616 101.635 25.7616C101.894 25.7616 102.131 25.6858 102.347 25.5273C102.564 25.3758 102.703 25.176 102.78 24.9349H102.152C102.026 25.1416 101.845 25.2449 101.615 25.2449C101.468 25.2449 101.335 25.1967 101.217 25.1071C101.098 25.0107 101.021 24.8936 100.98 24.7558H102.829C102.85 24.6456 102.864 24.556 102.864 24.4733C102.864 24.1358 102.745 23.8464 102.501 23.5984C102.257 23.3573 101.963 23.2333 101.629 23.2333ZM100.966 24.3011C101 24.1358 101.084 23.998 101.21 23.8947C101.335 23.7913 101.475 23.7431 101.642 23.7431C101.81 23.7431 101.95 23.7913 102.068 23.8947C102.187 23.9911 102.264 24.1289 102.305 24.3011H100.966Z" fill="#636362"/>
<path d="M107.051 23.8327H106.416L106.109 24.3562L105.815 24.0324C106.15 23.8464 106.318 23.5915 106.318 23.2609C106.318 23.0404 106.241 22.8544 106.081 22.7098C105.927 22.5582 105.732 22.4893 105.501 22.4893C105.271 22.4893 105.076 22.5651 104.922 22.7167C104.769 22.8682 104.692 23.0611 104.692 23.2953C104.692 23.4124 104.713 23.5158 104.762 23.6053C104.79 23.6604 104.859 23.75 104.957 23.8671C104.825 23.9429 104.72 24.0118 104.657 24.0807C104.462 24.2667 104.364 24.494 104.364 24.7558C104.364 25.0313 104.462 25.2655 104.671 25.4584C104.873 25.6513 105.118 25.7478 105.411 25.7478C105.718 25.7478 105.99 25.5893 106.22 25.2793L106.653 25.7478L107.072 25.3895L106.506 24.7833L107.051 23.8395V23.8327ZM105.313 23.0887C105.362 23.0404 105.425 23.0129 105.501 23.0129C105.585 23.0129 105.648 23.0404 105.697 23.0818C105.746 23.13 105.767 23.1989 105.767 23.2747C105.767 23.3504 105.746 23.4124 105.697 23.4675C105.655 23.5158 105.571 23.5778 105.446 23.6329C105.299 23.4882 105.222 23.3711 105.222 23.2678C105.222 23.192 105.25 23.13 105.299 23.0818L105.313 23.0887ZM105.369 25.1966C105.243 25.1966 105.139 25.1553 105.055 25.0726C104.971 24.9969 104.929 24.8935 104.929 24.7764C104.929 24.5835 105.055 24.432 105.313 24.308L105.808 24.8453C105.676 25.0795 105.529 25.1966 105.369 25.1966Z" fill="#636362"/>
<path d="M108.704 25.6789H109.298V24.3975H110.275V23.8533H109.298V23.0818H110.323V22.5444H108.704V25.6789Z" fill="#636362"/>
<path d="M111.419 23.3298H110.84V25.6789H111.419V23.3298Z" fill="#636362"/>
<path d="M113.757 23.3918C113.603 23.2954 113.436 23.2471 113.254 23.2471C113.017 23.2471 112.801 23.3436 112.605 23.5365V23.3298H112.075V25.6789H112.647V24.556C112.647 24.3149 112.668 24.1496 112.703 24.0531C112.738 23.9705 112.794 23.8947 112.877 23.8465C112.961 23.7914 113.045 23.7638 113.136 23.7638C113.45 23.7638 113.61 24.0118 113.61 24.5147V25.6789H114.182V24.4114C114.182 24.1289 114.147 23.9222 114.085 23.7776C114.008 23.6191 113.896 23.4882 113.743 23.3918H113.757Z" fill="#636362"/>
<path d="M116.625 23.626C116.534 23.5158 116.415 23.4262 116.269 23.3574C116.122 23.2885 115.976 23.2471 115.822 23.2471C115.48 23.2471 115.201 23.3711 114.971 23.6054C114.741 23.8465 114.629 24.1427 114.629 24.494C114.629 24.8454 114.741 25.1554 114.957 25.3965C115.173 25.6376 115.452 25.7616 115.787 25.7616C115.934 25.7616 116.087 25.7271 116.248 25.6514C116.408 25.5825 116.534 25.4929 116.625 25.3896V25.6789H117.148V23.3298H116.625V23.626ZM116.415 25.0314C116.283 25.1691 116.115 25.2449 115.913 25.2449C115.711 25.2449 115.55 25.176 115.417 25.0382C115.278 24.9005 115.215 24.7282 115.215 24.5216C115.215 24.3149 115.285 24.1289 115.417 23.9842C115.55 23.8396 115.718 23.7638 115.92 23.7638C116.122 23.7638 116.29 23.8327 116.422 23.9705C116.555 24.1082 116.618 24.2874 116.618 24.494C116.618 24.7007 116.555 24.8867 116.422 25.0314H116.415Z" fill="#636362"/>
<path d="M119.395 23.3918C119.242 23.2954 119.074 23.2471 118.893 23.2471C118.655 23.2471 118.439 23.3436 118.244 23.5365V23.3298H117.713V25.6789H118.293V24.556C118.293 24.3149 118.313 24.1496 118.348 24.0531C118.383 23.9705 118.439 23.8947 118.516 23.8465C118.6 23.7914 118.683 23.7638 118.774 23.7638C119.088 23.7638 119.249 24.0118 119.249 24.5147V25.6789H119.821V24.4114C119.821 24.1289 119.793 23.9222 119.723 23.7776C119.653 23.6191 119.535 23.4882 119.381 23.3918H119.395Z" fill="#636362"/>
<path d="M121.44 23.7569C121.677 23.7569 121.858 23.874 121.991 24.1082H122.633C122.577 23.9429 122.507 23.8051 122.417 23.7018C122.158 23.3987 121.83 23.2471 121.44 23.2471C121.091 23.2471 120.798 23.3711 120.546 23.6122C120.295 23.8534 120.177 24.1496 120.177 24.494C120.177 24.8385 120.302 25.1416 120.546 25.3896C120.798 25.6376 121.091 25.7616 121.44 25.7616C121.684 25.7616 121.914 25.6927 122.124 25.5618C122.354 25.4171 122.521 25.2036 122.626 24.9142H121.984C121.851 25.1347 121.67 25.2449 121.454 25.2449C121.251 25.2449 121.077 25.176 120.944 25.0382C120.812 24.9005 120.742 24.7214 120.742 24.5078C120.742 24.2942 120.805 24.1151 120.937 23.9774C121.07 23.8396 121.23 23.7707 121.433 23.7707L121.44 23.7569Z" fill="#636362"/>
<path d="M124.154 23.2333C123.812 23.2333 123.512 23.3573 123.268 23.6053C123.024 23.8533 122.898 24.1564 122.898 24.5078C122.898 24.8591 123.024 25.1553 123.268 25.3964C123.512 25.6376 123.812 25.7616 124.161 25.7616C124.419 25.7616 124.657 25.6858 124.873 25.5273C125.089 25.3758 125.236 25.176 125.306 24.9349H124.678C124.552 25.1416 124.371 25.2449 124.14 25.2449C123.994 25.2449 123.861 25.1967 123.743 25.1071C123.624 25.0107 123.547 24.8936 123.505 24.7558H125.354C125.375 24.6456 125.389 24.556 125.389 24.4733C125.389 24.1358 125.271 23.8464 125.027 23.5984C124.782 23.3504 124.496 23.2333 124.154 23.2333ZM123.491 24.3011C123.533 24.1358 123.61 23.998 123.736 23.8947C123.861 23.7913 124.001 23.7431 124.168 23.7431C124.336 23.7431 124.475 23.7913 124.594 23.8947C124.712 23.9911 124.789 24.1289 124.831 24.3011H123.491Z" fill="#636362"/>
<path d="M128.132 23.7776C127.915 23.7018 127.776 23.6398 127.706 23.5778C127.636 23.5227 127.601 23.44 127.601 23.3367C127.601 23.2402 127.629 23.1645 127.692 23.1025C127.755 23.0474 127.832 23.0129 127.929 23.0129C128.139 23.0129 128.257 23.13 128.278 23.3642H128.885C128.871 23.1094 128.774 22.8958 128.599 22.7236C128.425 22.5514 128.202 22.4687 127.943 22.4687C127.685 22.4687 127.469 22.5582 127.287 22.7305C127.106 22.9096 127.015 23.1162 127.015 23.3574C127.015 23.5985 127.106 23.8189 127.28 23.9911C127.343 24.06 127.42 24.1082 127.49 24.1496C127.56 24.184 127.713 24.246 127.943 24.3287C128.23 24.432 128.369 24.5836 128.369 24.7902C128.369 24.9074 128.327 25.0038 128.25 25.0727C128.174 25.1485 128.069 25.1829 127.943 25.1829C127.818 25.1829 127.706 25.1416 127.629 25.0658C127.553 24.99 127.511 24.8867 127.511 24.7627H126.897C126.911 25.0382 127.015 25.2656 127.211 25.4447C127.406 25.6238 127.643 25.7134 127.929 25.7134C128.216 25.7134 128.46 25.6169 128.655 25.4171C128.858 25.2174 128.955 24.9762 128.955 24.7007C128.955 24.4389 128.858 24.2185 128.669 24.0394C128.557 23.936 128.376 23.8396 128.125 23.75L128.132 23.7776Z" fill="#636362"/>
<path d="M130.553 23.2333C130.204 23.2333 129.911 23.3573 129.667 23.6053C129.423 23.8533 129.297 24.1564 129.297 24.5078C129.297 24.8591 129.423 25.1553 129.667 25.3964C129.911 25.6376 130.204 25.7616 130.56 25.7616C130.818 25.7616 131.056 25.6858 131.272 25.5273C131.488 25.3758 131.635 25.176 131.705 24.9349H131.077C130.951 25.1416 130.77 25.2449 130.546 25.2449C130.4 25.2449 130.267 25.1967 130.149 25.1071C130.03 25.0107 129.953 24.8936 129.911 24.7558H131.761C131.781 24.6456 131.795 24.556 131.795 24.4733C131.795 24.1358 131.677 23.8464 131.433 23.5984C131.188 23.3573 130.902 23.2333 130.56 23.2333H130.553ZM129.883 24.3011C129.918 24.1358 130.002 23.998 130.128 23.8947C130.253 23.7913 130.4 23.7431 130.56 23.7431C130.721 23.7431 130.867 23.7913 130.986 23.8947C131.105 23.9911 131.188 24.1289 131.23 24.3011H129.89H129.883Z" fill="#636362"/>
<path d="M133.003 23.3091C132.926 23.3505 132.849 23.4262 132.765 23.5365V23.3298H132.242V25.6789H132.814V24.3562C132.814 23.998 132.982 23.8051 133.324 23.7982V23.254C133.324 23.254 133.296 23.2471 133.282 23.2471C133.17 23.2471 133.072 23.2678 133.003 23.3091Z" fill="#636362"/>
<path d="M134.782 24.8867L134.203 23.3298H133.582L134.545 25.6789H134.991L135.961 23.3298H135.333L134.782 24.8867Z" fill="#636362"/>
<path d="M136.827 23.3298H136.247V25.6789H136.827V23.3298Z" fill="#636362"/>
<path d="M138.536 23.7569C138.774 23.7569 138.955 23.874 139.088 24.1082H139.73C139.674 23.9429 139.604 23.8051 139.506 23.7018C139.248 23.3987 138.927 23.2471 138.529 23.2471C138.18 23.2471 137.887 23.3711 137.636 23.6122C137.385 23.8534 137.266 24.1496 137.266 24.494C137.266 24.8385 137.392 25.1416 137.636 25.3896C137.88 25.6376 138.18 25.7616 138.529 25.7616C138.774 25.7616 139.004 25.6927 139.213 25.5618C139.444 25.4171 139.611 25.2036 139.716 24.9142H139.074C138.934 25.1347 138.76 25.2449 138.543 25.2449C138.327 25.2449 138.167 25.176 138.034 25.0382C137.901 24.9005 137.832 24.7214 137.832 24.5078C137.832 24.2942 137.894 24.1151 138.027 23.9774C138.16 23.8396 138.32 23.7707 138.522 23.7707L138.536 23.7569Z" fill="#636362"/>
<path d="M142.486 24.4664C142.486 24.1289 142.367 23.8396 142.123 23.5916C141.879 23.3504 141.593 23.2264 141.251 23.2264C140.909 23.2264 140.609 23.3504 140.365 23.5984C140.12 23.8464 140.002 24.1496 140.002 24.5009C140.002 24.8522 140.127 25.1484 140.365 25.3896C140.609 25.6307 140.909 25.7547 141.258 25.7547C141.516 25.7547 141.753 25.6789 141.97 25.5204C142.186 25.3689 142.333 25.1691 142.402 24.928H141.774C141.649 25.1347 141.467 25.238 141.237 25.238C141.09 25.238 140.958 25.1898 140.839 25.1002C140.721 25.0038 140.644 24.8867 140.602 24.7489H142.451C142.472 24.6387 142.486 24.5491 142.486 24.4664ZM140.588 24.2942C140.623 24.1289 140.707 23.9911 140.832 23.8878C140.958 23.7844 141.097 23.7362 141.265 23.7362C141.432 23.7362 141.572 23.7844 141.691 23.8878C141.809 23.9842 141.886 24.122 141.928 24.2942H140.588Z" fill="#636362"/>
</g>
<defs>
<radialGradient id="paint0_radial_704_75046" cx="0" cy="0" r="1" gradientUnits="userSpaceOnUse" gradientTransform="translate(16.201 17.4329) scale(17.0688 16.8502)">
<stop stop-color="#C7E0F6"/>
<stop offset="0.39" stop-color="#50BBEC"/>
<stop offset="0.66" stop-color="#4EB9EA"/>
<stop offset="0.76" stop-color="#49B2E5"/>
<stop offset="0.82" stop-color="#41A6DD"/>
<stop offset="0.88" stop-color="#3595D0"/>
<stop offset="0.93" stop-color="#257FC0"/>
<stop offset="0.97" stop-color="#1265AD"/>
<stop offset="1" stop-color="#004C9B"/>
</radialGradient>
<radialGradient id="paint1_radial_704_75046" cx="0" cy="0" r="1" gradientUnits="userSpaceOnUse" gradientTransform="translate(16.4941 41.2009) scale(13.4401 7.2974)">
<stop stop-color="#88BC24"/>
<stop offset="0.4" stop-color="#85BA24"/>
<stop offset="0.57" stop-color="#7EB526"/>
<stop offset="0.7" stop-color="#72AB28"/>
<stop offset="0.81" stop-color="#609E2C"/>
<stop offset="0.9" stop-color="#498D31"/>
<stop offset="0.98" stop-color="#2C7837"/>
<stop offset="1" stop-color="#277439"/>
</radialGradient>
<clipPath id="clip0_704_75046">
<rect width="142" height="31" fill="white" transform="translate(0.5 0.5)"/>
</clipPath>
</defs>
</svg>
