<svg width="150" height="32" viewBox="0 0 150 32" fill="none" xmlns="http://www.w3.org/2000/svg">
<g clip-path="url(#clip0_503_49405)">
<path d="M94.8648 5.9824V8.17712H101.951C101.992 9.20132 101.909 11.4378 101.637 12.7756L104.083 12.9846C104.459 11.4587 104.542 8.61606 104.501 5.9824H94.8648ZM105.462 14.176C104.229 14.3432 101.971 14.5105 99.735 14.5941V10.7272H97.2267V14.6359C95.8681 14.6359 94.5094 14.615 93.5688 14.5732L93.8406 16.7888C95.5963 16.7888 98.0628 16.7261 99.7559 16.6634C101.762 16.5798 104.271 16.308 105.671 16.1199L105.462 14.176ZM109.601 24V21.8053H100.446V17.9175H97.8956V24H109.601ZM111.879 12.4829V10.3509H109.162V5H106.612V19.1298H109.162V12.4829H111.879Z" fill="white"/>
<path d="M124.92 15.1166C122.621 15.5765 118.754 15.7855 116.685 15.681V12.7338H122.935V5.94059H114.093V8.11441H120.364V10.6227H114.135V17.7921C117.521 17.9593 122.517 17.7921 125.192 17.2277L124.92 15.1166ZM126.551 22.2442H129.101V5H126.551V22.2442Z" fill="white"/>
<path d="M150.315 12.7965V10.6227H147.242V5H144.692V22.2442H147.242V12.7965H150.315ZM143.208 15.9109C140.512 14.5732 138.819 12.6293 138.819 8.76238V8.38614H142.476V6.25413H132.464V8.38614H136.164V8.80418C136.164 12.6084 134.659 14.8031 131.837 16.2871L133.384 18.2519C135.349 17.1441 136.958 15.3674 137.544 13.4653C138.212 15.2838 140.073 17.0187 141.766 17.8548L143.208 15.9109Z" fill="white"/>
<path d="M39.4009 28.9621C50.8248 28.9621 61.6022 27.2863 71.0951 24.3177C62.9632 29.2002 51.7604 32.2115 39.4009 32.2115C27.0413 32.2115 15.8386 29.1917 7.70665 24.3177C17.1996 27.2863 27.977 28.9621 39.4009 28.9621ZM13.8652 23.348H18.2969L16.6552 14.578L13.2697 19.5287L13.8652 23.348ZM24.0471 15.5988C25.204 16.0326 26.1312 16.2367 26.9733 16.526C28.1046 16.9343 28.4363 17.4531 28.4363 18.3208C28.4363 19.1884 28.1301 19.6562 27.6453 19.9114C27.0073 20.2432 25.7739 20.3453 24.566 20.3453C23.3581 20.3453 21.6143 20.2177 20.1002 19.988L19.4878 23.399C21.104 23.5776 22.8478 23.7052 24.4895 23.7052C26.6415 23.7052 28.8787 23.399 30.4693 22.2677C31.8559 21.2979 32.749 19.6222 32.749 17.4701C32.749 15.0289 31.5411 13.8295 29.6698 13.1064C29.0063 12.8513 27.7729 12.5195 26.9988 12.2643C25.893 11.8815 25.4847 11.4903 25.4847 10.5971C25.4847 9.772 25.8164 9.21059 26.4629 8.9554C27.0243 8.70021 27.9515 8.67469 28.6915 8.67469C30.1546 8.67469 31.5666 8.80229 33.0042 9.03196L33.5656 5.74855C32.1791 5.51888 30.3332 5.41681 28.8957 5.41681C27.254 5.41681 25.6123 5.62096 24.2258 6.34399C22.1417 7.39876 21.172 9.34669 21.172 11.6264C21.172 13.5743 22.1758 14.8332 24.0471 15.6073V15.5988ZM44.8109 22.2677C46.1974 21.2979 47.0905 19.6222 47.0905 17.4701C47.0905 15.0289 45.8826 13.8295 44.0113 13.1064C43.3393 12.8513 42.1144 12.5195 41.3403 12.2643C40.243 11.8815 39.8262 11.4903 39.8262 10.5971C39.8262 9.772 40.1579 9.21059 40.7959 8.9554C41.3573 8.70021 42.2845 8.67469 43.0331 8.67469C44.4961 8.67469 45.9082 8.80229 47.3457 9.03196L47.9071 5.74855C46.5206 5.51888 44.6748 5.41681 43.2372 5.41681C41.5955 5.41681 39.9538 5.62096 38.5673 6.34399C36.4832 7.39876 35.5135 9.34669 35.5135 11.6264C35.5135 13.5743 36.5088 14.8332 38.3886 15.6073C39.5455 16.0411 40.4727 16.2452 41.3148 16.5345C42.4461 16.9428 42.7779 17.4616 42.7779 18.3293C42.7779 19.1969 42.4716 19.6648 41.9868 19.9199C41.3403 20.2517 40.1069 20.3538 38.9075 20.3538C37.7081 20.3538 35.9559 20.2262 34.4418 19.9965L33.8208 23.4075C35.437 23.5861 37.1808 23.7137 38.8225 23.7137C40.9745 23.7137 43.2117 23.4075 44.8023 22.2762L44.8109 22.2677ZM56.0901 5.78257H51.9816L48.8768 23.3565H52.9853L56.0901 5.78257ZM67.3524 22.2847C68.7389 21.315 69.6321 19.6392 69.6321 17.4872C69.6321 15.0459 68.4242 13.8465 66.5528 13.1235C65.8893 12.8683 64.6559 12.5365 63.8818 12.2813C62.7845 11.8986 62.3677 11.5073 62.3677 10.6141C62.3677 9.78901 62.6995 9.2276 63.3374 8.97241C63.8988 8.71723 64.826 8.69171 65.5746 8.69171C67.0376 8.69171 68.4497 8.8193 69.8872 9.04897L70.4487 5.76556C69.0621 5.53589 67.2163 5.43382 65.7787 5.43382C64.137 5.43382 62.4953 5.63797 61.1088 6.361C59.0248 7.41577 58.0551 9.3637 58.0551 11.6434C58.0551 13.5913 59.0503 14.8502 60.9302 15.6243C62.087 16.0581 63.0142 16.2623 63.8563 16.5515C64.9791 16.9598 65.3194 17.4786 65.3194 18.3463C65.3194 19.2139 65.0132 19.6818 64.5283 19.937C63.8818 20.2687 62.6569 20.3708 61.4491 20.3708C60.2412 20.3708 58.4974 20.2432 56.9833 20.0135L56.3623 23.4245C57.9785 23.6031 59.7223 23.7307 61.364 23.7307C63.5161 23.7307 65.7532 23.4245 67.3439 22.2932L67.3524 22.2847ZM71.665 5.78257L71.0781 9.06598H76.7688L74.2254 23.3565H78.3339L80.8773 9.06598H86.551L87.1464 5.78257H71.6736H71.665ZM9.74815 18.1677L6.85603 21.0002L4.44876 23.3565H0L9.67159 5.4083H14.937L15.8641 10.3844L18.0247 7.22863L17.2932 6.70975L21.0189 5L20.6361 9.08299L19.9386 8.58963L16.4766 13.6508L10.6073 22.2336L9.74815 18.1762V18.1677ZM7.73217 16.8577L11.1687 13.4977L11.7726 16.3728L12.5892 15.182L11.6621 9.23611H11.5855L7.74068 16.8662L7.73217 16.8577Z" fill="white"/>
</g>
<defs>
<clipPath id="clip0_503_49405">
<rect width="150" height="32" fill="white"/>
</clipPath>
</defs>
</svg>
