<svg width="186" height="28" viewBox="0 0 186 28" fill="none" xmlns="http://www.w3.org/2000/svg">
<path d="M107.816 14.83H109.339V22.54H107.816V19.3709H106.403V22.54H104.894V21.9089C103.851 22.0324 102.781 22.101 101.656 22.101H99.077V15.2827H103.59V16.6546H100.531V17.9716H103.398V19.3023H100.531V20.7565H101.67C102.685 20.7565 103.769 20.7016 104.894 20.5782V14.83H106.403V17.999H107.816V14.83ZM101.039 24.6115H107.83V27.5473H109.339V23.2533H101.039V24.6252V24.6115ZM117.515 22.0049H121V20.5919H114.085V16.9015H120.904V15.4885H112.535V22.0049H115.965V24.6664H111.149V26.0794H122.33V24.6664H117.515V22.0049ZM132.482 27.3827H134.032V14.83H132.482V27.3827ZM142.593 24.6664H147.408V26.0794H136.227V24.6664H141.043V22.2793H137.599V15.2416H139.149V17.2857H144.472V15.2416H146.023V22.2793H142.593V24.6664ZM144.472 20.88V18.6987H139.149V20.88H144.472ZM169.523 17.3543C169.523 18.2185 169.413 19.1514 169.18 20.1392H170.703C170.95 19.1651 171.073 18.1774 171.073 17.2034V15.1455H162.595V16.5311H169.523V17.3543ZM183.447 18.9045V14.8163H181.897V27.369H183.447V20.3724H185.354V18.9045H183.447ZM86.5106 19.9745L86.9633 21.3327C89.4189 20.8251 90.8457 19.8236 91.6688 18.781C92.4782 19.8374 93.9187 20.8388 96.3744 21.3327L96.8271 19.9745C95.0436 19.563 93.0133 18.6713 92.684 16.682H95.9765V15.2964H87.3748V16.682H90.6673C90.3381 18.6713 88.3077 19.5767 86.5243 19.9745H86.5106ZM86.0716 23.5003H90.8868V27.6159H92.4371V23.5003H97.2523V22.0872H86.0716V23.5003ZM128.161 17.3268V15.2141H126.528V17.3268C126.528 18.6164 126.309 21.4013 123.181 23.5551L124.031 24.6526C125.746 23.514 126.761 22.1695 127.351 20.9349C127.941 22.1833 128.956 23.5277 130.671 24.6526L131.522 23.5551C128.394 21.4013 128.174 18.6164 128.174 17.3268H128.161ZM178.056 17.4366C178.056 17.4366 178.056 17.3543 178.056 17.3268V15.2141H176.423V17.3268C176.423 18.6164 176.204 21.4013 173.076 23.5551L173.927 24.6526C175.641 23.514 176.657 22.1833 177.246 20.9349C177.836 22.1833 178.852 23.5277 180.566 24.6526L181.417 23.5551C178.371 21.4699 178.083 18.7673 178.07 17.4366H178.056ZM149.466 19.2063L149.946 20.441C152.278 19.9197 153.609 19.0965 154.35 18.246C155.091 19.0828 156.435 19.9197 158.754 20.441L159.234 19.2063C156.902 18.6301 155.489 17.7109 155.242 16.5311H158.644V15.1593H150.042V16.5311H153.444C153.197 17.7109 151.798 18.6301 149.452 19.2063H149.466ZM148.753 21.1544H159.933V22.5537H156.888C157.464 23.1299 157.821 23.8981 157.821 24.7624C157.821 26.5458 156.27 28 154.35 28C152.429 28 150.879 26.5458 150.879 24.7624C150.879 23.9118 151.236 23.1436 151.812 22.5537H148.766V21.1544H148.753ZM152.429 24.7487C152.429 25.7639 153.294 26.6007 154.35 26.6007C155.406 26.6007 156.27 25.7776 156.27 24.7487C156.27 23.7198 155.406 22.8966 154.35 22.8966C153.294 22.8966 152.429 23.7198 152.429 24.7487ZM166.779 21.1544H172.486V22.5537H169.441C170.017 23.1299 170.373 23.8981 170.373 24.7624C170.373 26.5458 168.823 28 166.903 28C164.982 28 163.432 26.5458 163.432 24.7624C163.432 23.9118 163.788 23.1436 164.365 22.5537H161.319V21.1544H165.243V18.4243H166.806V21.1544H166.779ZM164.968 24.7487C164.968 25.7639 165.832 26.6007 166.889 26.6007C167.945 26.6007 168.809 25.7776 168.809 24.7487C168.809 23.7198 167.945 22.8966 166.889 22.8966C165.832 22.8966 164.968 23.7198 164.968 24.7487ZM25.6404 3.63549C24.5703 1.7423 22.3205 0.740832 19.2749 0.658519C18.1225 0.631082 16.3391 0.781988 15.4336 1.09752C15.4336 1.09752 15.0907 1.17983 15.0632 1.38561C15.0358 1.56396 15.1867 1.65999 15.3925 1.64627C18.5341 1.26214 20.0157 2.0304 20.4684 2.89468C20.8388 3.62177 20.7977 4.63696 19.563 5.61099C19.563 5.61099 18.0402 6.76337 18.2871 8.34103C18.5341 9.94612 20.9897 11.6198 23.6649 10.3028C26.3401 8.98581 26.7105 5.52868 25.6404 3.63549ZM17.5463 10.3851C17.6972 8.87606 16.1059 8.64284 15.3925 8.62912C15.269 8.62912 15.1455 8.62912 15.0495 8.62912C14.6791 8.64284 14.1852 8.62912 14.1852 8.62912C11.3043 8.51937 9.04069 7.39443 8.49194 5.5424C7.94319 3.69037 8.95838 1.68743 12.5115 0.53505C12.5115 0.53505 12.8957 0.384144 12.7036 0.109769C12.5939 -0.0411378 12.2646 0.027456 12.2646 0.027456C3.7864 1.37189 -1.01516 6.28321 0.178369 11.661C0.740838 14.1715 3.59434 16.3391 6.76338 17.0113C7.05147 17.0662 10.8927 18.1225 14.7614 16.9427C16.6135 16.3802 17.9853 15.5297 18.7124 14.3636C19.3435 13.3347 19.3435 12.3881 18.9594 12.0039C18.5752 11.6198 17.3543 12.1548 17.5326 10.3851H17.5463ZM60.7879 10.2479H57.8521V22.5125C57.8521 24.0627 56.0823 25.3797 53.9971 25.3797C51.9118 25.3797 50.1421 24.0627 50.1421 22.5125V10.9064C50.1421 10.536 49.8266 10.2342 49.4287 10.2342H44.8741V12.0725H45.5875C45.7658 12.0725 46.4929 12.1548 46.4929 13.0054V22.6085C46.4929 25.5169 49.854 27.8765 53.9971 27.8765C58.1402 27.8765 61.4875 25.5169 61.4875 22.6085V10.9064C61.4875 10.536 61.172 10.2342 60.7742 10.2342L60.7879 10.2479ZM41.8697 10.2479H38.9339V17.4914H31.2239V10.9202C31.2239 10.5497 30.9084 10.2479 30.5106 10.2479H25.9559V12.0863H26.6693C26.8477 12.0863 27.5747 12.1686 27.5747 13.0191V25.9971C27.5747 26.8888 28.3018 27.6296 29.1936 27.6296H31.2239V20.194H38.9339V25.9971C38.9339 26.8888 39.661 27.6296 40.5527 27.6296H42.5694V10.9064C42.5694 10.536 42.2538 10.2342 41.856 10.2342L41.8697 10.2479ZM77.2092 16.0098C77.8952 16.1058 78.5262 15.8589 78.9927 15.3239C79.4866 14.7614 79.7335 13.9657 79.6649 13.1838C79.5689 12.2509 78.9515 11.4277 77.9089 10.879C76.9349 10.3577 75.3846 10.0559 73.6561 10.0559C72.5586 10.0559 71.5022 10.1793 70.6517 10.3988C69.2798 10.7555 68.1137 11.3592 67.0162 12.292C64.8349 14.1303 63.9295 16.4214 64.0529 19.7139C64.1215 21.2641 64.5743 23.857 66.9339 25.709C68.4978 26.9437 70.7203 27.6159 73.3543 27.657C75.8374 27.6845 78.4028 26.9437 79.4728 26.3263V18.3557C79.4728 17.9853 79.1573 17.6972 78.7732 17.6972H72.4214V20.1529H74.9319C75.1651 20.1529 76.098 20.2489 76.098 21.3464V24.6801C75.3023 25.1465 73.9716 25.2014 73.5052 25.2014C72.0921 25.2014 71.0358 24.6389 71.0358 24.6389C69.2386 23.706 68.1411 22.3342 67.8256 19.5767C67.4826 16.6958 68.2646 14.5419 69.9246 13.2112C70.6791 12.6076 71.7217 12.3057 73.0387 12.2646C73.3406 12.2646 73.6424 12.2783 73.9442 12.3195C75.4395 12.5115 77.0446 13.1563 77.0583 15.4062V15.9687L77.2367 15.9961L77.2092 16.0098Z" fill="white"/>
</svg>
