<svg width="538" height="893" viewBox="0 0 538 893" fill="none" xmlns="http://www.w3.org/2000/svg">
<g filter="url(#filter0_d_15_3617)">
<path d="M76.7338 797.791C76.7338 797.791 73.2017 799.364 71.237 801.735C69.2723 804.107 66.5239 804.096 66.5239 806.467C66.5239 808.838 63.7755 811.985 60.6408 813.957C57.5061 815.93 54.7577 815.531 53.974 822.623C53.1903 829.714 53.974 831.687 53.974 831.687C53.974 831.687 59.4708 829.326 63.0029 834.833C66.5349 840.352 66.9323 844.684 69.6697 841.526C72.418 838.379 71.237 836.008 76.7338 835.221C82.2306 834.435 90.8621 834.822 98.7099 835.221C106.558 835.62 112.055 837.582 115.973 834.822C119.902 832.063 124.218 827.332 133.236 828.13C142.265 828.916 140.3 822.102 145.797 820.196C151.294 818.29 148.932 813.946 153.258 811.586C157.585 809.226 159.925 802.921 159.925 800.162C159.925 797.403 155.609 794.644 156.79 791.497C157.971 788.35 159.925 788.738 153.656 787.951C147.375 787.164 151.691 782.045 147.375 782.433C143.06 782.821 125.002 783.219 122.253 785.58C119.505 787.94 112.485 788.727 106.778 789.524C101.061 790.311 99.4936 790.71 97.1426 792.671C94.7915 794.644 83.4116 796.217 83.4116 796.217L76.7448 797.791H76.7338Z" fill="white" stroke="#C1C1C1" stroke-width="0.75" stroke-linecap="round" stroke-linejoin="round"/>
<path d="M411.707 590.769C417.987 591.434 418.374 586.559 418.374 586.559C418.374 586.559 416.023 579.068 421.122 578.68C426.221 578.292 434.069 576.32 436.034 572.774C437.999 569.228 439.169 566.868 444.665 565.239C450.162 563.61 449.379 557.405 448.981 553.128C448.584 548.84 455.262 552.286 459.975 553.073C462.127 553.438 463.948 551.809 465.295 549.948C464.732 549.527 464.291 548.685 463.893 546.89C462.712 541.482 461.542 540.474 456.045 538.9C450.549 537.327 448.198 532.994 441.917 528.263C435.637 523.531 434.456 527.077 432.105 524.318C429.753 521.559 435.637 519.986 437.601 516.041C438.694 513.847 437.844 509.946 436.862 506.91C434.224 508.218 432.127 510.279 427.391 507.365C420.327 503.032 418.363 507.365 412.866 511.697C407.369 516.03 408.153 525.094 396.386 518.789C384.609 512.484 379.51 516.03 374.013 515.243C368.516 514.456 370.481 501.846 367.733 501.846C364.984 501.846 367.732 507.365 355.955 508.539C344.178 509.725 348.891 510.113 344.962 506.943C341.032 503.774 337.114 504.195 326.904 506.168C316.705 508.14 320.237 506.168 318.659 502.223C317.091 498.278 324.542 501.436 322.588 491.43C320.623 481.425 320.623 484.893 314.74 480.161C308.857 475.43 309.641 479.762 306.495 476.616C303.36 473.469 296.296 473.469 288.437 473.856C280.579 474.244 284.519 474.255 282.952 467.552C282.323 464.848 280.722 462.787 279.044 461.291C277.797 462.798 276.682 464.615 275.888 466.765C273.139 474.255 259.011 473.458 259.011 473.458C255.479 481.336 250.225 487.242 250.225 487.242C248.9 503.398 242.521 504.184 242.521 507.73C242.521 511.276 245.269 510.09 244.485 512.85C243.702 515.609 235.07 517.969 235.456 522.301C235.854 526.634 246.836 531.753 248.017 535.299C249.198 538.845 252.333 541.205 248.017 543.576C243.702 545.937 238.602 562.491 238.602 562.491C238.602 562.491 238.403 562.458 238.05 562.391C239.209 565.14 240.92 568.84 243.139 572.73C247.631 580.608 243.359 582.581 243.139 585.727C242.918 588.874 250.766 587.7 255.479 597.551C260.192 607.401 265.954 608.354 265.291 618.427C265.037 622.338 264.165 625.696 263.514 628.743C274.662 626.327 280.512 627.435 282.952 620.787C285.7 613.296 284.916 619.213 291.197 617.241C297.477 615.269 299.442 598.725 304.542 598.725C309.641 598.725 308.074 601.872 306.506 612.909C304.939 623.945 307.29 629.064 315.138 629.452C322.986 629.84 324.553 620.787 330.447 622.759C336.33 624.732 344.178 623.945 347.71 630.25C351.242 636.555 354.377 627.491 353.991 622.371C353.604 617.252 367.335 615.679 368.119 614.094C368.902 612.521 368.119 608.975 361.452 610.548C354.785 612.122 339.079 608.975 343.394 607.401C347.71 605.828 355.955 599.124 362.236 600.31C368.516 601.495 365.867 597.163 368.373 594.404C370.867 591.645 375.58 600.709 378.329 601.096C381.077 601.484 372.832 592.032 375.58 586.126C378.329 580.22 384.609 586.525 384.609 586.525C384.609 586.525 388.539 594.016 392.457 595.589C396.386 597.163 396.773 603.867 407.766 601.495C408.517 601.329 409.245 601.174 409.974 601.019C408.473 595.689 407.314 590.271 411.696 590.736L411.707 590.769Z" fill="#FFFAEA" stroke="#C1C1C1" stroke-width="0.75" stroke-linecap="round" stroke-linejoin="round"/>
<path d="M490.207 519.576C492.282 517.282 494.898 512.672 496.962 506.988C483.298 495.741 480.958 504.605 476.863 504.605C472.547 504.605 472.933 498.699 469.015 494.755C465.085 490.81 453.705 495.541 447.822 497.514C441.939 499.486 447.425 507.365 441.542 506.179C439.599 505.791 438.175 506.256 436.884 506.899C437.855 509.924 438.716 513.836 437.623 516.03C435.659 519.974 429.776 521.548 432.127 524.307C434.478 527.066 435.659 523.52 441.939 528.252C448.22 532.983 450.571 537.316 456.067 538.889C461.564 540.463 462.734 541.482 463.915 546.878C465.096 552.286 466.664 549.128 470.979 551.488C473.849 553.062 474.291 559.832 476.454 562.713C478.375 560.652 480.108 558.746 481.189 557.006C485.119 550.701 486.289 523.908 490.218 519.576H490.207Z" fill="#FFFAEA" stroke="#C1C1C1" stroke-width="0.75" stroke-linecap="round" stroke-linejoin="round"/>
<path d="M429.367 600.731C432.116 603.878 429.367 607.823 437.215 599.944C445.063 592.066 441.144 592.066 449.379 591.667C457.624 591.268 464.291 593.639 464.688 582.603C464.975 574.625 471.41 568.098 476.432 562.702C474.28 559.821 473.827 553.05 470.957 551.477C468.077 549.904 466.432 550.768 465.295 549.926C463.948 551.787 462.127 553.416 459.975 553.05C455.262 552.264 448.595 548.818 448.981 553.106C449.379 557.394 450.162 563.599 444.666 565.217C439.169 566.835 437.999 569.206 436.034 572.752C434.069 576.298 426.221 578.27 421.122 578.658C416.023 579.046 418.374 586.536 418.374 586.536C418.374 586.536 417.976 591.423 411.707 590.747C407.325 590.282 408.484 595.7 409.985 601.03C419.809 598.947 426.806 597.772 429.367 600.709V600.731Z" fill="#FFFAEA" stroke="#C1C1C1" stroke-width="0.75" stroke-linecap="round" stroke-linejoin="round"/>
<path d="M375.602 491.442C377.567 488.527 380.315 501.447 383.848 496.328C387.38 491.209 390.912 495.143 391.64 491.442C392.369 487.741 390.128 484.106 391.64 483.718C393.152 483.319 397.192 480.959 396.408 474.699C395.625 468.438 397.589 468.748 401.508 468.36C405.437 467.961 400.724 461.668 399.157 455.363C397.59 449.058 398.373 443.54 391.64 440.78C384.907 438.021 379.532 446.299 372.865 449.058C366.198 451.817 369.333 453.39 367.766 459.695C366.198 466 360.701 462.454 360.701 459.695C360.701 456.936 356.386 454.576 353.637 459.695C350.889 464.815 348.14 463.64 345.392 466.787C342.644 469.934 346.959 469.934 355.591 471.518C364.222 473.092 355.194 477.037 351.684 478.61C348.174 480.184 346.485 489.646 346.485 489.646C346.485 489.646 354.807 494.378 350.403 494.766C345.999 495.165 339.509 495.951 344.211 499.098C348.924 502.245 350.403 509.182 350.403 509.182C351.662 509.027 353.439 508.805 355.988 508.55C367.766 507.365 365.017 501.857 367.766 501.857C368.317 501.857 368.671 502.378 368.947 503.198C370.79 492.926 373.925 493.957 375.613 491.453L375.602 491.442Z" fill="white" stroke="#C1C1C1" stroke-width="0.75" stroke-linecap="round" stroke-linejoin="round"/>
<path d="M509.821 427.772C507.073 431.317 494.126 449.833 491.377 445.9C488.629 441.966 486.278 436.836 485.097 434.476C483.916 432.115 487.061 431.329 490.593 426.985C494.126 422.652 489.026 422.652 487.845 420.292C486.664 417.932 483.916 419.893 483.916 406.508C483.916 393.122 479.986 387.593 485.88 378.928C491.763 370.263 490.98 369.077 491.377 363.559C491.774 358.041 495.693 357.298 491.775 352.744C487.845 348.19 482.746 341.098 487.061 334.405C491.377 327.713 496.874 331.259 495.307 319.036C493.739 306.825 489.81 314.704 488.64 299.335C487.459 283.966 488.242 268.608 487.072 262.303C486.388 258.635 484.633 252.962 482.668 246.99C478.077 247.931 472.194 248.951 467.834 248.995C459.588 249.095 464.302 256.785 462.734 264.663C461.167 272.542 453.705 262.691 445.471 257.572C437.226 252.452 436.442 257.971 425.46 263.478C414.477 268.985 414.864 265.051 408.98 263.478C403.097 261.904 388.185 263.478 385.437 263.478C384.907 263.478 384.245 263.411 383.527 263.311C380.382 268.386 373.13 271.29 368.825 273.45C363.075 276.342 358.097 285.794 354.697 287.634C351.297 289.473 354.697 296.299 354.697 299.712C354.697 303.125 344.498 306.537 339.001 306.537C333.505 306.537 334.288 301.019 330.889 298.393C327.489 295.767 325.657 303.125 322.257 307.324C318.857 311.524 317.025 301.806 313.879 305.485C310.745 309.164 305.502 306.271 301.848 308.898C298.184 311.524 302.367 324.4 300.016 323.081C297.665 321.762 291.638 321.762 288.504 322.294C285.369 322.815 280.921 329.652 280.921 329.652C280.921 329.652 281.704 342.517 281.704 343.314C281.704 344.112 277.256 334.649 277.256 334.649C277.256 334.649 275.689 339.636 273.592 340.167C271.495 340.688 270.711 347.78 270.711 347.78L281.958 356.711C281.958 356.711 279.861 360.656 278.294 363.803C276.726 366.95 278.559 382.186 278.029 386.396C277.51 390.596 272.532 395.593 272.532 395.593L276.98 399.272C276.98 399.272 281.164 390.862 282.996 395.859C284.828 400.845 295.811 400.591 295.811 400.591C295.811 400.591 300.259 399.272 300.259 400.857C300.259 402.441 301.826 410.84 301.826 410.84L297.378 411.893L293.449 410.84L291.098 412.946C291.098 412.946 294.232 417.932 294.497 419.251C294.762 420.569 292.4 423.195 289 426.076C285.601 428.968 287.433 436.581 287.433 436.581C287.433 436.581 283.813 438.996 280.126 439.695C282.212 447.451 290.314 455.751 288.095 455.751C286.142 455.751 282.19 457.568 279.089 461.313C280.766 462.809 282.367 464.87 282.996 467.574C284.563 474.266 280.623 474.266 288.482 473.879C296.34 473.491 303.405 473.48 306.539 476.638C309.674 479.785 308.89 475.452 314.785 480.184C320.668 484.915 320.668 481.447 322.632 491.453C324.597 501.459 317.136 498.301 318.703 502.245C320.27 506.19 316.738 508.151 326.948 506.19C337.147 504.218 341.076 503.797 345.006 506.966C348.085 509.448 345.856 509.747 350.414 509.182C350.414 509.182 348.935 502.245 344.222 499.098C339.509 495.951 345.999 495.154 350.414 494.766C354.818 494.367 346.496 489.646 346.496 489.646C346.496 489.646 348.185 480.195 351.695 478.61C355.205 477.037 364.234 473.092 355.602 471.518C346.971 469.945 342.655 469.945 345.403 466.787C348.152 463.64 350.9 464.815 353.648 459.695C356.397 454.576 360.712 456.936 360.712 459.695C360.712 462.454 366.209 466 367.777 459.695C369.344 453.39 366.209 451.817 372.876 449.058C379.543 446.299 384.929 438.021 391.651 440.78C398.384 443.54 397.601 449.058 399.168 455.363C400.735 461.668 405.448 467.973 401.519 468.36C397.59 468.759 395.636 468.438 396.42 474.699C397.203 480.959 393.163 483.33 391.651 483.718C390.139 484.117 392.38 487.741 391.651 491.442C390.923 495.143 387.391 491.198 383.859 496.328C380.327 501.447 377.578 488.538 375.613 491.442C373.925 493.946 370.79 492.904 368.947 503.187C370.017 506.445 369.653 514.611 374.046 515.243C379.543 516.03 384.642 512.484 396.42 518.789C408.197 525.094 407.413 516.03 412.899 511.697C418.396 507.365 420.36 503.032 427.425 507.365C434.489 511.697 435.67 505.004 441.553 506.179C447.436 507.365 441.95 499.486 447.833 497.514C453.716 495.541 465.096 490.821 469.026 494.755C472.955 498.699 472.558 504.605 476.874 504.605C481.189 504.605 483.309 495.741 496.973 506.988C498.817 501.913 500.229 495.974 500.417 490.034C500.814 477.424 500.417 477.037 503.165 469.158C505.914 461.28 510.23 445.523 511.797 437.645C513.364 429.766 512.581 424.248 509.832 427.794L509.821 427.772Z" fill="white" stroke="#C1C1C1" stroke-width="0.75" stroke-linecap="round" stroke-linejoin="round"/>
<path d="M255.512 597.584C250.799 587.733 242.951 588.919 243.172 585.761C243.392 582.614 247.664 580.642 243.172 572.763C240.953 568.874 239.242 565.173 238.083 562.425C235.876 562.015 227.255 560.142 219.794 555.034C211.162 549.128 214.694 556.607 210.456 561.682C206.217 566.757 197.42 566.059 190.003 561.649C182.586 557.239 171.912 562.126 166.029 561.649C160.146 561.173 161.316 553.46 162.894 549.516C164.462 545.571 165.245 542.823 163.292 538.479C161.338 534.136 155.047 542.424 148.38 550.302C141.713 558.181 138.965 539.266 131.117 535.72C123.269 532.174 124.45 540.452 120.123 543.998C115.796 547.543 119.726 550.69 113.059 556.607C106.392 562.513 95.796 563.3 89.5155 558.58C83.2351 553.848 86.3808 547.543 82.054 544.396C80.2328 543.067 77.3078 542.867 74.5152 543.067C72.8706 548.363 67.8374 561.793 62.4289 566.059C56.9321 570.392 56.9321 575.123 60.0779 579.844C63.2126 584.575 76.9546 598.758 73.4225 603.878C69.8904 608.997 61.6453 612.155 61.6453 615.701C61.6453 619.247 67.142 614.515 66.7447 622.394C66.3473 630.272 67.5284 638.549 62.8153 644.455C58.1021 650.361 57.7158 651.946 60.0669 660.212C62.4179 668.49 60.4642 675.969 53.0027 685.033C45.5412 694.097 16.8983 708.668 27.8808 715.76C38.8634 722.852 49.0733 718.519 61.2369 718.519C73.4004 718.519 77.7162 708.923 79.6809 719.827C81.6456 730.73 84.394 745.301 93.8092 731.517C103.224 717.732 107.937 709.455 114.604 701.178C121.271 692.9 118.92 681.875 122.452 684.634C125.984 687.393 121.271 699.216 128.335 703.549C135.399 707.882 157.773 713.788 155.411 699.604C153.06 685.421 147.949 678.329 149.914 677.543C151.879 676.756 164.826 679.116 171.106 671.238C177.387 663.359 179.352 660.999 185.632 660.999C191.913 660.999 200.941 653.508 201.725 661.786C202.509 670.063 199.374 676.368 195.842 674.783C192.31 673.21 195.445 668.877 193.094 668.877C190.743 668.877 194.661 669.664 187.994 675.57C181.327 681.476 178.965 677.543 177.398 684.235C175.831 690.928 165.621 697.632 177.398 698.817C189.175 700.003 189.175 701.577 195.456 706.308C201.736 711.04 217.432 708.28 214.683 697.643C211.935 687.005 218.999 685.82 222.531 686.219C226.063 686.618 229.198 683.46 222.531 678.728C215.864 673.997 208.403 653.121 211.935 649.575C215.467 646.029 219.783 636.577 223.315 640.511C226.847 644.455 234.308 648.389 232.73 652.334C231.163 656.279 233.127 676.756 240.578 677.941C248.039 679.127 238.613 661.786 248.039 660.999C257.466 660.212 264.132 670.451 264.916 665.332C265.7 660.212 258.636 649.963 260.203 645.242C261.77 640.522 259.806 643.669 252.741 640.123C245.677 636.577 243.713 632.632 248.028 631.846C252.344 631.059 244.894 633.818 259.022 629.873C260.622 629.43 262.112 629.075 263.525 628.765C264.177 625.718 265.037 622.36 265.302 618.449C265.965 608.365 260.203 607.413 255.49 597.573L255.512 597.584Z" fill="white" stroke="#C1C1C1" stroke-width="0.75" stroke-linecap="round" stroke-linejoin="round"/>
<path d="M118.942 573.55C118.942 573.55 118.942 574.337 116.194 577.495C113.445 580.653 112.264 573.949 111.481 577.495C110.697 581.04 109.516 586.16 107.949 587.345C106.381 588.531 106.381 586.946 107.949 597.196C109.516 607.435 109.913 600.343 115.013 600.343C120.112 600.343 122.474 603.49 122.077 607.036C121.679 610.582 129.925 614.128 136.989 607.036C144.053 599.944 144.053 601.917 148.766 604.277C153.479 606.637 158.965 593.639 158.579 588.908C158.192 584.176 155.444 583.002 153.082 584.176C150.731 585.362 146.801 582.603 146.801 578.658C146.801 574.713 148.766 568.807 143.269 570.78C137.772 572.752 128.744 581.816 124.825 580.232C120.896 578.658 118.942 573.539 118.942 573.539V573.55Z" fill="white" stroke="#C1C1C1" stroke-width="0.75" stroke-linecap="round" stroke-linejoin="round"/>
<path d="M82.054 544.396C86.3698 547.543 83.2351 553.848 89.5155 558.58C95.796 563.311 106.392 562.524 113.059 556.607C119.726 550.701 115.807 547.543 120.123 543.997C124.439 540.452 123.258 532.174 131.117 535.72C138.965 539.266 141.713 558.181 148.38 550.302C155.047 542.424 161.327 534.147 163.292 538.479C165.256 542.812 164.473 545.571 162.894 549.516C161.327 553.46 160.146 561.173 166.029 561.649C171.912 562.126 182.586 557.239 190.003 561.649C197.42 566.059 206.228 566.757 210.456 561.682C214.694 556.607 211.162 549.128 219.794 555.034C228.425 560.94 238.635 562.524 238.635 562.524C238.635 562.524 243.735 545.981 248.05 543.61C252.366 541.249 249.231 538.878 248.05 535.332C246.869 531.786 235.887 526.667 235.489 522.335C235.092 518.002 243.735 515.642 244.518 512.883C245.302 510.124 242.554 511.309 242.554 507.763C242.554 504.218 248.933 503.431 250.258 487.275C250.258 487.275 255.512 481.369 259.044 473.491C259.044 473.491 273.172 474.277 275.921 466.798C278.669 459.307 285.336 455.762 288.084 455.762C290.314 455.762 282.212 447.462 280.115 439.706C278.647 439.983 277.179 440.005 275.91 439.484C271.461 437.645 267.013 440.005 263.879 442.11C260.744 444.215 256.549 441.323 255.501 438.431C254.452 435.539 247.918 438.165 244.772 435.805C244.198 435.373 243.602 434.897 242.995 434.365C242.995 434.365 244.121 442.376 240.589 442.764C237.057 443.152 234.308 437.512 233.127 438.564C231.946 439.617 233.525 445.124 228.812 446.31C224.099 447.495 223.712 445.789 221.35 440.337C218.988 434.886 212.498 443.163 212.807 444.337C213.116 445.512 204.871 425.035 204.871 423.062C204.871 421.09 193.094 425.821 188.391 428.968C183.689 432.115 177.795 429.755 174.263 431.329C170.731 432.902 169.55 435.273 167.596 430.542C165.643 425.81 169.164 424.88 163.667 422.586C158.17 420.292 148.358 415.561 146.007 418.719C143.656 421.866 140.51 417.533 138.942 423.838C137.375 430.143 136.591 434.476 127.949 434.476C119.306 434.476 120.487 436.448 118.534 439.994C117.783 441.346 115.388 442.01 112.695 442.31C113.335 444.88 112.187 445.855 108.975 447.085C103.478 449.191 90.6634 448.659 90.6634 451.551C90.6634 454.443 104.615 455.75 104.439 460.748C104.262 465.734 105.178 466.399 109.107 470.333C113.037 474.266 112.242 480.184 106.756 480.571C101.271 480.959 103.224 484.904 101.26 489.236C99.2949 493.569 94.9792 495.143 88.3124 500.273C81.6456 505.392 77.3188 510.511 82.4293 513.669C87.5398 516.828 98.125 514.855 97.7386 519.576C97.3413 524.307 93.4229 527.066 87.1424 527.853C80.8619 528.64 76.1488 537.704 74.5815 542.823C74.5594 542.9 74.5263 542.989 74.5042 543.067C77.2857 542.867 80.2218 543.067 82.043 544.396H82.054Z" fill="white" stroke="#C1C1C1" stroke-width="0.75" stroke-linecap="round" stroke-linejoin="round"/>
<path d="M385.415 263.489C385.139 263.489 384.83 263.467 384.51 263.444C384.83 263.467 385.15 263.489 385.415 263.489ZM192.74 289.595C192.74 289.595 192.773 289.595 192.784 289.606C192.773 289.606 192.751 289.606 192.74 289.595ZM191.361 288.886C191.361 288.886 191.46 288.941 191.515 288.963C191.46 288.93 191.416 288.908 191.361 288.886ZM330.866 298.426C327.467 295.8 325.635 303.158 322.235 307.357C318.835 311.557 317.003 301.839 313.857 305.518C310.723 309.197 305.48 306.305 301.826 308.931C298.162 311.557 302.345 324.433 299.994 323.114C297.643 321.796 291.616 321.796 288.482 322.327C285.347 322.848 280.899 329.685 280.899 329.685C280.899 329.685 281.682 342.55 281.682 343.348C281.682 344.145 277.234 334.682 277.234 334.682C277.234 334.682 275.667 339.669 273.57 340.201C271.472 340.721 270.689 347.813 270.689 347.813L281.936 356.744C281.936 356.744 279.839 360.689 278.272 363.836C276.704 366.983 278.537 382.219 278.007 386.429C277.488 390.629 272.51 395.626 272.51 395.626L276.958 399.305C276.958 399.305 281.142 390.895 282.974 395.892C284.806 400.879 295.789 400.624 295.789 400.624C295.789 400.624 300.237 399.305 300.237 400.89C300.237 402.474 301.804 410.874 301.804 410.874L297.356 411.926L293.426 410.874L291.075 412.979C291.075 412.979 294.21 417.965 294.475 419.284C294.74 420.602 292.378 423.229 288.978 426.11C285.579 429.002 287.411 436.614 287.411 436.614C287.411 436.614 283.791 439.03 280.104 439.728C278.636 440.005 277.168 440.027 275.899 439.506C271.45 437.667 267.002 440.027 263.867 442.132C260.733 444.238 256.538 441.346 255.49 438.453C254.441 435.561 247.907 438.188 244.761 435.827C244.187 435.395 243.591 434.919 242.984 434.387C240.247 431.982 237.443 428.525 237.443 424.015C237.443 420.514 232.476 410.962 228.856 404.458C226.781 400.735 225.147 398.009 225.147 398.009L226.979 386.186L230.909 378.828L223.061 370.163L212.597 368.589L214.275 360.445C214.275 360.445 213.679 359.913 212.818 359.027C212.156 358.351 211.339 357.453 210.511 356.445C209.694 355.426 208.866 354.295 208.193 353.11C207.752 352.323 207.365 351.525 207.1 350.727C205.533 345.996 201.35 348.888 201.35 348.888C201.35 348.888 196.902 342.062 197.166 336.544C197.431 331.026 195.334 326.56 195.334 326.56L196.151 325.696L200.312 321.308C200.312 321.308 205.279 317.108 211.041 319.469C216.792 321.829 213.657 317.629 211.041 312.898C208.425 308.166 199.01 297.141 197.696 295.567C196.383 293.994 195.345 290.171 195.345 290.171V290.138H195.356C196.78 290.071 198.138 289.407 199.396 287.955C202.144 284.808 202.531 284.808 209.595 285.196C216.659 285.584 209.992 277.705 211.946 274.558C213.911 271.411 220.191 271.411 221.747 266.68C223.315 261.948 228.823 263.921 232.355 263.921C235.887 263.921 240.203 260.774 244.132 253.084C248.061 245.405 245.699 249.339 250.799 252.486C255.898 255.632 256.296 245.394 256.296 241.449C256.296 240.928 256.362 240.385 256.483 239.82C256.483 239.82 257.079 247.355 262.576 248.929C268.073 250.502 274.353 246.568 278.272 248.929C282.201 251.289 282.985 232.773 287.301 232.773C291.616 232.773 290.435 244.186 299.861 241.039C309.288 237.892 303.394 232.374 311.639 234.745C319.884 237.117 324.2 230.413 324.2 230.413L334.796 239.865C334.796 239.865 332.831 245.383 336.761 247.355C340.69 249.328 345.006 253.66 355.205 254.447C365.404 255.234 366.198 254.447 371.684 258.392C376.121 261.572 380.525 262.935 383.516 263.356C380.371 268.431 373.119 271.334 368.814 273.495C363.064 276.387 358.086 285.839 354.686 287.678C351.286 289.517 354.686 296.343 354.686 299.756C354.686 303.169 344.487 306.582 338.99 306.582C333.493 306.582 334.277 301.063 330.877 298.437L330.866 298.426Z" fill="white" stroke="#C1C1C1" stroke-width="0.75" stroke-linecap="round" stroke-linejoin="round"/>
<path d="M118.556 439.983C120.52 436.437 119.339 434.464 127.971 434.464C136.602 434.464 137.386 430.132 138.965 423.827C140.532 417.522 143.678 421.855 146.029 418.708C148.38 415.561 158.192 420.281 163.689 422.575C169.186 424.869 165.654 425.799 167.618 430.531C169.583 435.262 170.753 432.891 174.285 431.318C177.817 429.744 183.7 432.104 188.414 428.957C193.127 425.81 204.893 421.079 204.893 423.051C204.893 425.024 213.138 445.512 212.829 444.326C212.52 443.141 219.021 434.874 221.372 440.326C223.723 445.778 224.121 447.484 228.834 446.299C233.547 445.113 231.968 439.606 233.149 438.553C234.33 437.501 237.079 443.152 240.611 442.753C244.143 442.354 243.017 434.354 243.017 434.354C240.28 431.949 237.476 428.492 237.476 423.982C237.476 420.481 232.509 410.929 228.889 404.425C223.878 413.533 212.41 420.281 212.84 410.453C213.315 399.416 209.22 400.602 209.22 400.602C205.29 421.09 199.021 414.386 197.056 407.693C195.091 401.001 188.425 400.602 190.389 394.297C190.809 392.945 191.151 391.516 191.427 390.119C191.736 390.463 192.023 390.829 192.354 391.15C198.634 397.455 189.738 375.781 195.367 374.207C200.997 372.634 208.061 362.783 208.061 362.783L212.862 359.005C211.096 357.187 208.204 353.885 207.145 350.705C205.577 345.974 201.394 348.866 201.394 348.866C201.394 348.866 196.946 342.04 197.211 336.522C197.476 331.004 195.378 326.538 195.378 326.538L200.345 321.286C200.345 321.286 205.312 317.086 211.074 319.446C216.825 321.807 213.69 317.607 211.074 312.876C208.458 308.144 199.043 297.119 197.729 295.545C196.416 293.972 195.378 290.149 195.378 290.149V290.116C193.712 290.193 191.924 289.429 190.014 287.933C186.482 285.174 178.237 282.415 175.886 282.814C173.535 283.212 164.892 283.6 160.974 285.573C157.055 287.545 151.161 286.093 149.196 288.332C148.722 288.875 148.004 289.351 147.199 289.728C147.243 289.983 147.265 290.26 147.243 290.559C146.724 296.077 137.298 299.224 131.282 294.238C125.267 289.251 131.282 283.467 124.483 280.575C117.684 277.683 111.403 280.841 105.642 275.323C99.891 269.805 96.7452 266.126 92.5619 267.445C88.3786 268.763 84.4492 276.896 79.4822 275.057C74.5152 273.218 68.2348 273.738 67.9699 276.11C67.705 278.47 74.7691 278.736 76.6014 284.254C78.4336 289.772 71.6344 293.185 71.6344 295.545C71.6344 297.906 66.6674 306.05 63.7866 302.116C60.9057 298.171 65.6188 296.864 62.4731 293.972C59.3273 291.08 61.9543 293.185 55.6738 292.398C49.3934 291.612 47.5611 292.664 47.2962 295.545C47.0313 298.437 42.5831 310.515 39.1835 311.834C35.7839 313.153 38.9186 315.779 47.2962 318.139C55.6738 320.499 60.3759 322.339 60.3759 328.123C60.3759 333.907 66.3915 366.994 72.1532 371.459C77.9038 375.925 62.9919 337.054 69.5372 337.84C76.0826 338.627 84.4492 340.733 85.2329 347.292C86.0166 353.863 84.4492 372.246 87.8488 378.019C91.2484 383.792 97.0101 386.684 92.297 390.097C87.5839 393.51 93.0807 395.084 92.297 403.76C91.5133 412.436 86.2815 418.209 84.968 419.517C83.6545 420.824 103.544 423.716 108.776 433.7C110.951 437.855 112.297 440.492 112.75 442.321C115.432 442.01 117.838 441.357 118.589 440.005L118.556 439.983Z" fill="white" stroke="#C1C1C1" stroke-width="0.75" stroke-linecap="round" stroke-linejoin="round"/>
<path d="M207.111 350.683C205.544 345.952 201.361 348.844 201.361 348.844C201.361 348.844 196.913 342.018 197.178 336.5C197.442 330.981 195.345 326.516 195.345 326.516L196.162 325.652L175.466 319.025C175.466 319.025 182.928 333.608 178.601 343.059C174.285 352.511 172.321 355.669 172.321 355.669C172.321 355.669 177.034 362.362 179.782 369.066C182.53 375.759 186.063 384.823 192.343 391.128C198.623 397.433 189.727 375.759 195.356 374.185C200.986 372.612 208.05 362.761 208.05 362.761L212.851 358.982C211.085 357.165 208.193 353.863 207.134 350.683H207.111Z" fill="white" stroke="#C1C1C1" stroke-width="0.75" stroke-linecap="round" stroke-linejoin="round"/>
<path d="M195.345 374.196C189.716 375.77 198.612 397.444 192.332 391.139C192.001 390.806 191.714 390.452 191.405 390.108C191.129 391.516 190.787 392.934 190.367 394.286C188.403 400.591 195.08 400.978 197.034 407.682C198.999 414.375 205.279 421.079 209.198 400.591C209.198 400.591 213.293 399.405 212.818 410.441C212.388 420.27 223.856 413.522 228.867 404.413C226.792 400.69 225.158 397.964 225.158 397.964L226.99 386.141L230.92 378.784L223.072 370.119L212.608 368.545L214.286 360.401C214.286 360.401 213.69 359.869 212.829 358.982L208.028 362.761C208.028 362.761 200.963 372.612 195.334 374.185L195.345 374.196Z" fill="white" stroke="#C1C1C1" stroke-width="0.75" stroke-linecap="round" stroke-linejoin="round"/>
<path d="M262.576 248.907C268.073 250.48 274.353 246.546 278.272 248.907C282.201 251.267 282.985 232.751 287.301 232.751C291.616 232.751 290.435 244.164 299.861 241.017C309.288 237.87 303.394 232.352 311.639 234.723C319.884 237.094 324.2 230.391 324.2 230.391L334.796 239.842C334.796 239.842 332.831 245.361 336.761 247.333C340.69 249.305 345.006 253.638 355.205 254.425C365.404 255.211 366.198 254.425 371.684 258.369C377.181 262.314 382.678 263.489 385.415 263.489C388.152 263.489 403.075 261.915 408.958 263.489C414.841 265.062 414.455 269.007 425.438 263.489C436.42 257.971 437.215 252.452 445.449 257.583C453.694 262.702 461.145 272.553 462.712 264.674C464.279 256.796 459.577 249.106 467.812 249.006C472.171 248.951 478.055 247.942 482.646 247.001C481.233 242.723 479.721 238.291 478.408 234.335C475.273 224.883 455.251 212.661 452.502 197.304C449.754 181.935 433.275 158.299 428.959 152.393C424.643 146.487 394.422 111.816 383.042 87.7816C371.662 63.7475 347.324 7.01411 339.873 1.89481C332.412 -3.22449 335.557 6.22737 335.557 12.5323C335.557 18.8372 330.061 30.6604 328.493 33.4084C326.926 36.1675 330.844 37.3532 329.674 39.7133C328.493 42.0735 325.359 37.3532 322.213 43.2592C319.078 49.1652 314.365 50.7498 311.617 49.5641C308.868 48.3785 308.085 43.6581 302.588 46.805C297.091 49.9519 300.237 62.174 293.559 57.8414C286.892 53.5089 285.314 55.8691 279.033 52.7221C272.753 49.5752 266.87 47.9907 260.589 49.1763C254.309 50.3619 240.964 46.8161 228.801 52.3232C216.637 57.8414 220.169 46.0183 213.491 47.5917C206.813 49.1652 186.018 47.9907 183.27 50.7387C180.522 53.4978 171.106 54.6834 171.106 54.6834L170.301 55.0712C170.698 58.2071 171.493 61.2875 173.071 62.1629C176.603 64.1353 180.533 60.1905 181.703 69.2546C182.873 78.3186 180.919 88.1694 188.369 82.2523C195.831 76.3463 195.831 79.9253 199.363 84.0474C202.895 88.1694 207.211 83.4379 211.527 86.9838C215.842 90.5296 215.842 96.4356 219.374 101.167C222.906 105.899 231.152 100.38 233.9 105.899C236.648 111.417 244.099 116.935 238.999 122.054C233.9 127.174 228.801 132.692 230.368 144.515C231.935 156.338 228.801 168.549 233.503 168.937C238.205 169.325 240.567 162.244 245.28 168.937C249.993 175.63 249.209 175.242 260.192 176.815C271.185 178.389 273.536 181.547 273.536 181.547L264.121 186.278C264.121 186.278 264.905 194.157 265.689 199.675C266.472 205.193 265.689 205.581 264.121 211.886C262.554 218.191 260.987 221.737 260.589 226.856C260.247 231.31 257.245 236.053 256.461 239.809C256.461 239.809 257.057 247.344 262.554 248.918L262.576 248.907Z" fill="white" stroke="#C1C1C1" stroke-width="0.75" stroke-linecap="round" stroke-linejoin="round"/>
<path d="M264.154 186.267L273.57 181.536C273.57 181.536 271.219 178.389 260.225 176.804C249.231 175.231 250.026 175.619 245.313 168.926C240.6 162.233 238.249 169.325 233.536 168.926C228.823 168.527 231.968 156.316 230.401 144.504C228.834 132.681 233.933 127.174 239.033 122.043C244.132 116.924 236.682 111.406 233.933 105.887C231.185 100.369 222.94 105.887 219.408 101.156C215.875 96.4245 215.875 90.5185 211.56 86.9727C207.244 83.4268 202.928 88.1583 199.396 84.0363C195.864 79.9142 195.864 76.3352 188.403 82.2412C180.941 88.1472 182.906 78.2964 181.736 69.2435C180.566 60.1905 176.636 64.1242 173.104 62.1518C171.526 61.2764 170.731 58.196 170.334 55.0602L156.614 61.764C156.614 61.764 153.865 71.2159 151.514 75.1606C149.163 79.1053 138.567 81.8534 138.17 85.7981C137.772 89.7428 129.538 108.259 124.042 109.045C118.545 109.832 115.41 107.073 113.843 111.805C112.275 116.536 113.843 126.387 113.843 126.387C113.843 126.387 113.445 131.118 111.094 134.664C108.832 138.077 103.644 142.93 95.5642 139.772L96.4803 171.718C98.5554 171.906 100.046 172.461 100.631 173.923C100.653 173.967 100.675 174.034 100.686 174.089C105.024 171.319 109.141 167.94 109.328 164.992C109.615 160.405 120.454 168.161 125.521 173.857C127.419 175.995 127.187 179.619 127.187 179.619L125.62 188.838C125.62 188.838 124.836 191.985 127.187 194.943C128.799 196.96 120.532 209.958 115.156 217.969C121.039 218.711 126.039 219.587 127.839 222.002C130.19 225.149 138.832 230.413 130.719 230.668C122.607 230.934 112.143 226.202 111.624 230.668C111.105 235.133 116.072 241.172 114.759 248.264C113.445 255.355 117.375 251.677 126.006 245.638C134.638 239.599 134.903 247.211 132.022 250.624C129.141 254.037 127.309 252.463 126.79 258.502C126.271 264.541 130.19 269.539 132.287 274.004C134.384 278.47 135.951 285.041 135.686 286.614C135.444 288.099 146.382 285.384 147.155 289.717C147.96 289.329 148.678 288.864 149.152 288.321C151.117 286.093 157 287.534 160.93 285.562C164.859 283.589 173.491 283.201 175.842 282.802C178.193 282.404 186.438 285.163 189.97 287.922C193.502 290.681 196.637 291.069 199.385 287.922C202.133 284.775 202.52 284.775 209.584 285.163C216.648 285.55 209.981 277.672 211.935 274.525C213.9 271.378 220.18 271.378 221.736 266.647C223.304 261.915 228.812 263.888 232.344 263.888C235.876 263.888 240.192 260.741 244.121 253.051C248.05 245.372 245.688 249.305 250.788 252.452C255.887 255.599 256.285 245.361 256.285 241.416C256.285 237.471 260.214 231.964 260.6 226.834C260.987 221.703 262.565 218.169 264.132 211.864C265.7 205.559 266.483 205.171 265.7 199.653C264.916 194.134 264.132 186.256 264.132 186.256L264.154 186.267Z" fill="white" stroke="#C1C1C1" stroke-width="0.75" stroke-linecap="round" stroke-linejoin="round"/>
<path d="M94.615 139.385C85.9834 135.44 84.8024 132.293 79.703 135.44C74.6036 138.587 68.9743 147.917 70.8066 155.008C72.6388 162.1 83.1026 156.848 80.7516 161.047C78.4005 165.247 73.6874 169.978 82.3189 171.286C87.7495 172.106 92.9593 171.386 96.4803 171.707L95.5642 139.761C95.2441 139.639 94.935 139.529 94.615 139.385Z" fill="white" stroke="#C1C1C1" stroke-width="0.75" stroke-linecap="round" stroke-linejoin="round"/>
<path d="M127.187 194.932C124.836 191.974 125.62 188.827 125.62 188.827L127.187 179.608C127.187 179.608 127.419 175.984 125.521 173.846C120.465 168.15 109.615 160.394 109.328 164.981C109.141 167.929 105.024 171.308 100.686 174.078C102.253 178.134 104.538 188.516 103.765 200.971C102.982 213.581 101.414 216.207 109.516 217.26C111.425 217.504 113.324 217.725 115.145 217.958C120.52 209.947 128.788 196.96 127.176 194.932H127.187Z" fill="white" stroke="#C1C1C1" stroke-width="0.75" stroke-linecap="round" stroke-linejoin="round"/>
<path d="M161.724 154.155C161.724 154.155 156.824 154.742 156.426 157.114C156.029 159.485 155.058 164.793 155.058 164.793C155.058 164.793 152.309 163.607 152.309 163.02C152.309 162.432 151.327 159.474 151.327 159.474L147.011 161.646L143.082 164.793C142.099 165.579 143.082 171.098 143.082 171.098C143.082 171.098 140.135 175.042 138.181 174.245C136.227 173.447 132.099 170.699 132.099 170.699L127.198 175.43V182.921L132.695 186.467C132.695 186.467 131.514 196.905 134.262 196.905H142.508L143.49 202.223C143.49 202.223 152.32 205.182 155.852 202.223C159.384 199.265 160.168 196.506 161.735 199.664C163.303 202.811 163.7 204.783 167.232 204.982C170.764 205.182 176.46 204.982 176.46 204.982L172.034 199.863L176.46 195.531L181.36 192.384L179.793 186.865C179.793 186.865 184.694 185.292 184.694 183.907C184.694 182.522 185.676 171.153 183.513 172.605C181.349 174.056 178.612 175.242 178.612 175.242L173.513 175.829L174.098 163.618L172.023 163.031V157.313C172.023 157.313 165.466 157.9 163.7 156.914C161.934 155.928 161.735 154.155 161.735 154.155H161.724Z" fill="white" stroke="#C1C1C1" stroke-width="0.75" stroke-linecap="round" stroke-linejoin="round"/>
</g>
<path d="M458.65 522.135C449.754 522.135 442.546 529.382 442.535 538.313C442.535 547.798 451.31 553.616 457.116 557.461L458.12 558.125C458.441 558.336 458.849 558.336 459.169 558.125L460.173 557.461C465.979 553.616 474.754 547.787 474.754 538.313C474.754 529.382 467.536 522.146 458.639 522.135H458.65Z" fill="#4762F0"/>
<path d="M458.65 543.056C461.265 543.056 463.385 540.927 463.385 538.302C463.385 535.677 461.265 533.548 458.65 533.548C456.035 533.548 453.915 535.677 453.915 538.302C453.915 540.927 456.035 543.056 458.65 543.056Z" fill="white"/>
<path d="M415.504 517.149V510.822H409.245V508.883H424.069V510.822H417.855V517.149H415.515H415.504ZM410.868 507.309V498.888H413.23V501.281H420.051V498.888H422.435V507.309H410.868ZM420.051 503.198H413.23V505.392H420.051V503.198Z" fill="black"/>
<path d="M434.158 509.304C431.95 508.451 430.504 506.91 429.919 505.348C429.367 506.921 427.987 508.495 425.747 509.559L424.709 507.763C427.071 506.711 428.727 504.672 428.727 501.913V499.22H431.188V501.913C431.188 504.605 432.458 506.423 435.129 507.464C434.809 508.085 434.489 508.705 434.158 509.304ZM429.511 510.157V514.6H438.749V516.551H427.16V510.146H429.5L429.511 510.157ZM438.341 498.589V503.243H440.626V505.193H438.341V511.719H435.979V498.589H438.341Z" fill="black"/>
<path d="M447.326 499.253L449.036 499.907L442.756 515.609L441.067 514.966L447.326 499.242V499.253Z" fill="black"/>
<path d="M463.761 498.6V509.115H461.377V506.999H458.098V505.049H461.377V503.098H458.297C457.458 506.09 455.173 508.362 450.968 509.802L450.019 507.952C454.07 506.711 456.123 504.34 456.244 501.403H450.88V499.386H458.694V500.206C458.694 500.528 458.672 500.849 458.65 501.148H461.388V498.611H463.772L463.761 498.6ZM457.535 509.359H458.573C462.293 509.359 464.004 510.899 464.004 513.204C464.004 515.509 462.293 517.06 458.573 517.06H457.535C453.783 517.06 452.105 515.509 452.105 513.204C452.105 510.899 453.794 509.359 457.535 509.359ZM457.535 515.066H458.551C460.703 515.066 461.653 514.49 461.653 513.215C461.653 511.941 460.703 511.376 458.551 511.376H457.535C455.372 511.376 454.434 511.952 454.434 513.215C454.434 514.478 455.383 515.066 457.535 515.066Z" fill="black"/>
<path d="M468.661 499.01V505.968C471.244 505.968 473.849 505.725 475.681 505.326C475.759 505.968 475.825 506.6 475.924 507.243C474.059 507.741 470.416 507.963 467.756 507.963H466.321V499.01H468.661ZM479.136 516.772H467.823V509.669H479.136V516.772ZM476.774 511.608H470.196V514.822H476.774V511.608ZM479.136 498.6V502.367H481.421V504.34H479.136V508.705H476.774V498.589H479.136V498.6Z" fill="black"/>
<path d="M483.165 513.714L481.829 511.963C484.633 510.024 485.902 507.398 485.902 503.963V501.625H482.348V499.586H491.83V501.625H488.331V503.974C488.331 507.265 489.677 509.98 492.382 511.62L491.145 513.492C489.114 512.34 487.646 510.279 487.105 508.705C486.609 510.345 485.24 512.34 483.154 513.714H483.165ZM495.803 498.589V516.861H493.441V498.589H495.803Z" fill="black"/>
<path d="M506.212 500.694H509.435V498.6H511.819V509.071H509.435V506.899H506.278C505.505 507.896 504.247 508.539 502.702 508.539C500.02 508.539 498.232 506.622 498.232 504.184V503.531C498.232 501.037 500.02 499.143 502.702 499.143C504.214 499.143 505.439 499.741 506.223 500.694H506.212ZM511.819 510.013V517.093H509.435V511.93H500.031V510.013H511.819ZM500.527 503.553V504.173C500.527 505.514 501.3 506.567 502.691 506.567C504.082 506.567 504.854 505.503 504.854 504.173V503.553C504.854 502.201 504.137 501.159 502.691 501.159C501.245 501.159 500.527 502.201 500.527 503.553ZM507.106 502.655C507.161 502.932 507.183 503.231 507.183 503.531V504.184C507.183 504.461 507.161 504.727 507.128 504.96H509.435V502.644H507.106V502.655Z" fill="black"/>
<path opacity="0.2" d="M458.65 565.228C465.892 565.228 471.763 563.889 471.763 562.236C471.763 560.584 465.892 559.245 458.65 559.245C451.408 559.245 445.537 560.584 445.537 562.236C445.537 563.889 451.408 565.228 458.65 565.228Z" fill="#191D31"/>
<path d="M380.106 414.076C371.209 414.076 364.002 421.323 363.991 430.254C363.991 439.739 372.766 445.556 378.572 449.401L379.576 450.066C379.896 450.277 380.304 450.277 380.625 450.066L381.629 449.401C387.435 445.556 396.21 439.728 396.21 430.254C396.21 421.323 388.991 414.087 380.095 414.076H380.106Z" fill="#4762F0"/>
<path d="M380.106 435.007C382.721 435.007 384.841 432.879 384.841 430.254C384.841 427.628 382.721 425.5 380.106 425.5C377.491 425.5 375.371 427.628 375.371 430.254C375.371 432.879 377.491 435.007 380.106 435.007Z" fill="white"/>
<path d="M337.18 391.859V393.831H333.041V403.106C334.73 403.106 336.463 403.006 337.688 402.663C337.787 403.316 337.842 403.981 337.931 404.613C336.617 404.968 334.211 405.156 332.599 405.156H330.734V391.848H337.169L337.18 391.859ZM340.9 390.762V397.289H342.533V390.54H344.818V408.79H342.533V399.217H340.9V408.491H338.67V390.751H340.9V390.762Z" fill="black"/>
<path d="M352.975 409.012V401.433H346.739V399.494H356.838C357.28 397.721 357.556 395.66 357.512 393.211H348.207V391.238H359.896V392.59C359.896 395.305 359.62 397.555 359.057 399.494H361.54V401.433H355.326V409.012H352.986H352.975Z" fill="black"/>
<path d="M368.781 391.205L370.492 391.859L364.211 407.56L362.523 406.918L368.781 391.194V391.205Z" fill="black"/>
<path d="M385.205 390.54V401.056H382.821V398.94H379.543V396.989H382.821V395.039H379.742C378.903 398.031 376.618 400.303 372.412 401.743L371.463 399.893C375.514 398.652 377.567 396.28 377.689 393.344H372.324V391.327H380.139V392.147C380.139 392.468 380.117 392.79 380.095 393.089H382.832V390.551H385.216L385.205 390.54ZM378.98 401.3H380.017C383.737 401.3 385.448 402.84 385.448 405.145C385.448 407.45 383.737 409.001 380.017 409.001H378.98C375.227 409.001 373.549 407.45 373.549 405.145C373.549 402.84 375.238 401.3 378.98 401.3ZM378.98 407.006H379.995C382.148 407.006 383.097 406.43 383.097 405.156C383.097 403.882 382.148 403.316 379.995 403.316H378.98C376.817 403.316 375.878 403.893 375.878 405.156C375.878 406.419 376.828 407.006 378.98 407.006Z" fill="black"/>
<path d="M393.793 402.851V401.111H387.534V399.172H402.358V401.111H396.133V402.851H400.779V409.112H398.395V404.746H388.892V402.851H393.781H393.793ZM389.201 397.964V390.684H391.563V392.557H398.296V390.684H400.68V397.964H389.19H389.201ZM398.307 394.496H391.574V396.048H398.307V394.496Z" fill="black"/>
<path d="M404.632 405.666L403.296 403.915C406.1 401.976 407.369 399.35 407.369 395.915V393.577H403.815V391.538H413.296V393.577H409.797V395.926C409.797 399.217 411.144 401.931 413.848 403.571L412.612 405.444C410.581 404.292 409.113 402.231 408.572 400.657C408.075 402.297 406.707 404.292 404.621 405.666H404.632ZM417.27 390.54V408.813H414.908V390.54H417.27Z" fill="black"/>
<path d="M427.678 392.635H430.901V390.54H433.286V401.012H430.901V398.84H427.745C426.972 399.837 425.714 400.48 424.168 400.48C421.486 400.48 419.698 398.563 419.698 396.125V395.471C419.698 392.978 421.486 391.083 424.168 391.083C425.681 391.083 426.906 391.682 427.689 392.635H427.678ZM433.286 401.954V409.034H430.901V403.871H421.497V401.954H433.286ZM421.994 395.493V396.114C421.994 397.455 422.767 398.507 424.157 398.507C425.548 398.507 426.321 397.444 426.321 396.114V395.493C426.321 394.142 425.603 393.1 424.157 393.1C422.711 393.1 421.994 394.142 421.994 395.493ZM428.572 394.596C428.628 394.873 428.65 395.172 428.65 395.471V396.125C428.65 396.402 428.628 396.668 428.594 396.901H430.901V394.585H428.572V394.596Z" fill="black"/>
<path opacity="0.2" d="M380.106 457.18C387.348 457.18 393.219 455.84 393.219 454.188C393.219 452.536 387.348 451.196 380.106 451.196C372.864 451.196 366.993 452.536 366.993 454.188C366.993 455.84 372.864 457.18 380.106 457.18Z" fill="#191D31"/>
<path d="M114.88 769.125C105.984 769.125 98.7762 776.372 98.7651 785.303C98.7651 794.788 107.54 800.605 113.346 804.45L114.35 805.115C114.67 805.326 115.079 805.326 115.399 805.115L116.403 804.45C122.209 800.605 130.984 794.777 130.984 785.303C130.984 776.372 123.766 769.136 114.869 769.125H114.88Z" fill="#4762F0"/>
<path d="M114.88 790.045C117.495 790.045 119.615 787.917 119.615 785.292C119.615 782.666 117.495 780.538 114.88 780.538C112.265 780.538 110.145 782.666 110.145 785.292C110.145 787.917 112.265 790.045 114.88 790.045Z" fill="white"/>
<path d="M85.9503 759.728L84.6368 757.978C87.0762 755.784 87.6722 753.324 87.6722 749.235V747.617H85.0342V745.623H92.584V747.617H90.0012V749.235C90.0012 753.124 90.6745 755.617 93.2242 757.634C92.8048 758.255 92.3522 758.875 91.9328 759.474C90.52 758.399 89.35 756.737 88.8753 755.207C88.4559 756.725 87.4625 758.498 85.9503 759.739V759.728ZM95.7629 744.526V762.266H93.5553V752.515H91.425V750.576H93.5553V744.526H95.7629ZM99.317 744.304V762.543H97.0322V744.304H99.317Z" fill="black"/>
<path d="M107.496 762.82V756.26H101.238V754.321H116.061V756.26H109.847V762.82H107.507H107.496ZM110.002 746.797V747.196C110.002 749.246 112.43 750.764 115.487 751.285C115.244 751.939 114.969 752.559 114.715 753.202C112.055 752.803 109.626 751.551 108.655 749.789C107.717 751.506 105.222 752.825 102.595 753.224C102.319 752.581 102.076 751.95 101.801 751.307C104.902 750.786 107.33 749.246 107.33 747.196V746.797H102.562V744.858H114.781V746.797H110.013H110.002Z" fill="black"/>
<path d="M118.335 759.429L116.999 757.678C119.803 755.739 121.072 753.113 121.072 749.678V747.34H117.518V745.301H127V747.34H123.501V749.689C123.501 752.98 124.847 755.695 127.552 757.335L126.315 759.207C124.284 758.055 122.816 755.994 122.275 754.421C121.779 756.061 120.41 758.055 118.324 759.429H118.335ZM130.973 744.304V762.576H128.611V744.304H130.973Z" fill="black"/>
<path d="M141.393 746.398H144.616V744.304H147V754.775H144.616V752.603H141.459C140.686 753.601 139.428 754.243 137.883 754.243C135.201 754.243 133.413 752.326 133.413 749.889V749.235C133.413 746.742 135.201 744.847 137.883 744.847C139.395 744.847 140.62 745.445 141.404 746.398H141.393ZM147 755.717V762.798H144.616V757.634H135.212V755.717H147ZM135.708 749.257V749.878C135.708 751.218 136.481 752.271 137.872 752.271C139.263 752.271 140.035 751.207 140.035 749.878V749.257C140.035 747.905 139.318 746.864 137.872 746.864C136.426 746.864 135.708 747.905 135.708 749.257ZM142.287 748.359C142.342 748.636 142.364 748.936 142.364 749.235V749.889C142.364 750.166 142.342 750.432 142.309 750.664H144.616V748.348H142.287V748.359Z" fill="black"/>
<path opacity="0.2" d="M114.88 812.218C122.122 812.218 127.993 810.878 127.993 809.226C127.993 807.574 122.122 806.234 114.88 806.234C107.638 806.234 101.767 807.574 101.767 809.226C101.767 810.878 107.638 812.218 114.88 812.218Z" fill="#191D31"/>
<path d="M149.759 523.409C140.863 523.409 133.655 530.656 133.644 539.587C133.644 549.072 142.419 554.89 148.225 558.735L149.23 559.4C149.55 559.61 149.958 559.61 150.278 559.4L151.283 558.735C157.088 554.89 165.863 549.061 165.863 539.587C165.863 530.656 158.645 523.421 149.748 523.409H149.759Z" fill="#4762F0"/>
<path d="M149.759 544.341C152.375 544.341 154.495 542.213 154.495 539.587C154.495 536.962 152.375 534.834 149.759 534.834C147.144 534.834 145.024 536.962 145.024 539.587C145.024 542.213 147.144 544.341 149.759 544.341Z" fill="white"/>
<path d="M104.99 503.32V506.91C106.933 506.833 108.534 506.689 109.836 506.434L110.057 508.207C107.695 508.75 103.379 508.96 99.8579 508.96V506.944H102.617V503.309H104.979L104.99 503.32ZM109.163 500.173C109.163 502.046 109.019 503.907 108.721 505.525C107.971 505.47 107.209 505.403 106.458 505.326C106.712 504.007 106.812 502.788 106.812 501.536V501.137H100.476V499.143H109.163V500.184V500.173ZM106.977 510.024H107.949C111.723 510.024 113.412 511.243 113.412 513.359C113.412 515.476 111.701 516.706 107.949 516.706H106.977C103.158 516.706 101.491 515.431 101.491 513.359C101.491 511.287 103.18 510.024 106.977 510.024ZM106.999 514.789H107.915C110.079 514.789 111.05 514.312 111.05 513.348C111.05 512.384 110.079 511.93 107.915 511.93H106.999C104.792 511.93 103.865 512.406 103.865 513.348C103.865 514.29 104.814 514.789 106.999 514.789ZM113.158 498.589V503.243H115.443V505.193H113.158V509.703H110.796V498.589H113.158Z" fill="black"/>
<path d="M122.397 517.105V510.545H116.139V508.606H130.962V510.545H124.748V517.105H122.408H122.397ZM124.902 501.082V501.481C124.902 503.531 127.331 505.049 130.388 505.569C130.145 506.223 129.869 506.844 129.616 507.486C126.955 507.088 124.527 505.835 123.556 504.074C122.618 505.791 120.123 507.11 117.496 507.509C117.22 506.866 116.977 506.234 116.701 505.592C119.803 505.071 122.231 503.531 122.231 501.481V501.082H117.463V499.143H129.682V501.082H124.914H124.902Z" fill="black"/>
<path d="M138.192 499.253L139.903 499.907L133.622 515.609L131.934 514.966L138.192 499.242V499.253Z" fill="black"/>
<path d="M141.625 509.969L140.587 508.218C143.048 507.121 144.627 505.259 144.627 502.666V501.514H141.305V499.519H150.51V501.514H147.11V502.633C147.11 505.182 148.38 506.822 151.128 507.941C150.83 508.539 150.488 509.16 150.19 509.78C147.861 508.86 146.492 507.342 145.863 505.946C145.245 507.398 144.02 508.86 141.636 509.98L141.625 509.969ZM145.521 510.345V514.711H154.936V516.65H143.148V510.345H145.51H145.521ZM154.605 498.589V512.041H152.221V505.038H149.439V503.143H152.221V498.589H154.605Z" fill="black"/>
<path d="M157.1 499.597H165.124V507.254H159.462V511.343H160.013C162.596 511.343 165.223 511.099 166.57 510.789C166.625 511.431 166.713 512.063 166.791 512.705C165.146 513.104 161.901 513.381 158.523 513.381H157.111V505.304H162.773V501.569H157.088V499.597H157.1ZM170.003 498.6V505.16H172.287V507.132H170.003V516.828H167.641V498.589H170.003V498.6Z" fill="black"/>
<path d="M174.053 513.714L172.718 511.963C175.521 510.024 176.791 507.398 176.791 503.963V501.625H173.237V499.586H182.718V501.625H179.219V503.974C179.219 507.265 180.566 509.98 183.27 511.62L182.034 513.492C180.003 512.34 178.535 510.279 177.994 508.705C177.497 510.345 176.129 512.34 174.042 513.714H174.053ZM186.692 498.589V516.861H184.33V498.589H186.692Z" fill="black"/>
<path d="M197.1 500.694H200.323V498.6H202.707V509.071H200.323V506.899H197.166C196.394 507.896 195.136 508.539 193.59 508.539C190.908 508.539 189.12 506.622 189.12 504.184V503.531C189.12 501.037 190.908 499.143 193.59 499.143C195.102 499.143 196.328 499.741 197.111 500.694H197.1ZM202.707 510.013V517.093H200.323V511.93H190.919V510.013H202.707ZM191.416 503.553V504.173C191.416 505.514 192.188 506.567 193.579 506.567C194.97 506.567 195.743 505.503 195.743 504.173V503.553C195.743 502.201 195.025 501.159 193.579 501.159C192.133 501.159 191.416 502.201 191.416 503.553ZM197.994 502.655C198.049 502.932 198.072 503.231 198.072 503.531V504.184C198.072 504.461 198.049 504.727 198.016 504.96H200.323V502.644H197.994V502.655Z" fill="black"/>
<path opacity="0.2" d="M149.759 566.502C157.001 566.502 162.872 565.163 162.872 563.511C162.872 561.858 157.001 560.519 149.759 560.519C142.517 560.519 136.647 561.858 136.647 563.511C136.647 565.163 142.517 566.502 149.759 566.502Z" fill="#191D31"/>
<path d="M196.173 335.99C187.277 335.99 180.069 343.237 180.058 352.168C180.058 361.653 188.833 367.47 194.639 371.315L195.643 371.98C195.963 372.191 196.372 372.191 196.692 371.98L197.696 371.315C203.502 367.47 212.277 361.642 212.277 352.168C212.277 343.237 205.058 336.001 196.162 335.99H196.173Z" fill="#4762F0"/>
<path d="M196.173 356.91C198.788 356.91 200.908 354.782 200.908 352.157C200.908 349.531 198.788 347.403 196.173 347.403C193.558 347.403 191.438 349.531 191.438 352.157C191.438 354.782 193.558 356.91 196.173 356.91Z" fill="white"/>
<path d="M155.113 312.488V314.46H150.974V323.735C152.662 323.735 154.395 323.635 155.62 323.291C155.72 323.945 155.775 324.61 155.863 325.242C154.55 325.596 152.144 325.785 150.532 325.785H148.667V312.477H155.102L155.113 312.488ZM158.832 311.391V317.917H160.466V311.169H162.751V329.419H160.466V319.845H158.832V329.12H156.603V311.38H158.832V311.391Z" fill="black"/>
<path d="M165.356 322.549L164.318 320.798C166.78 319.701 168.358 317.84 168.358 315.247V314.094H165.036V312.1H174.241V314.094H170.841V315.214C170.841 317.762 172.111 319.402 174.859 320.521C174.561 321.12 174.219 321.74 173.921 322.361C171.592 321.441 170.223 319.923 169.594 318.527C168.976 319.978 167.751 321.441 165.367 322.56L165.356 322.549ZM169.252 322.926V327.292H178.667V329.231H166.879V322.926H169.241H169.252ZM178.336 311.169V324.621H175.952V317.618H173.17V315.723H175.952V311.169H178.336Z" fill="black"/>
<path d="M186.703 311.834L188.414 312.488L182.133 328.189L180.444 327.546L186.703 311.823V311.834Z" fill="black"/>
<path d="M204.242 320.311V322.206H198.016V323.502C201.416 323.624 202.961 324.699 202.961 326.549C202.961 328.522 201.195 329.663 197.321 329.663H196.328C192.409 329.663 190.687 328.522 190.687 326.549C190.687 324.699 192.233 323.613 195.676 323.502V322.206H189.418V320.311H204.242ZM190.886 319.535C190.665 318.915 190.467 318.294 190.268 317.685C193.27 317.485 195.18 316.831 195.434 315.513H190.941V313.762H202.707V315.513H198.237C198.491 316.809 200.367 317.485 203.348 317.707L202.752 319.524C200.268 319.402 197.763 318.549 196.824 317.308C195.93 318.56 193.469 319.38 190.886 319.546V319.535ZM196.372 325.341C194.087 325.341 193.116 325.696 193.116 326.56C193.116 327.425 194.109 327.812 196.372 327.812H197.266C199.529 327.812 200.566 327.458 200.566 326.56C200.566 325.663 199.529 325.341 197.266 325.341H196.372ZM199.595 310.992V312.743H194.032V310.992H199.595Z" fill="black"/>
<path d="M206.085 322.449C205.787 321.796 205.511 321.153 205.191 320.499C207.134 320.023 209.087 318.604 209.087 316.665V316.011H205.71V314.072H214.992V316.011H211.593V316.665C211.593 318.482 213.58 319.712 215.412 320.156L214.573 322.05C212.928 321.674 211.096 320.61 210.379 319.258C209.805 320.732 207.818 322.017 206.085 322.449ZM212.763 322.693H213.999C217.741 322.693 219.43 324.045 219.43 326.161C219.43 328.278 217.719 329.607 213.999 329.607H212.763C209.032 329.607 207.332 328.211 207.332 326.161C207.332 324.111 209.043 322.693 212.763 322.693ZM212.807 311.147V313.064H207.917V311.147H212.807ZM212.785 327.702H213.999C216.14 327.702 217.101 327.203 217.101 326.161C217.101 325.12 216.14 324.621 213.999 324.621H212.785C210.621 324.621 209.683 325.12 209.683 326.161C209.683 327.203 210.633 327.702 212.785 327.702ZM219.143 311.18V322.416H216.758V318.726H213.977V316.754H216.758V311.191H219.143V311.18Z" fill="black"/>
<path d="M222.553 326.294L221.218 324.544C224.021 322.604 225.291 319.978 225.291 316.543V314.205H221.736V312.166H231.218V314.205H227.719V316.554C227.719 319.845 229.066 322.56 231.77 324.2L230.534 326.073C228.503 324.92 227.035 322.859 226.494 321.286C225.997 322.926 224.628 324.92 222.542 326.294H222.553ZM235.191 311.169V329.441H232.829V311.169H235.191Z" fill="black"/>
<path d="M245.611 313.274H248.834V311.18H251.218V321.651H248.834V319.48H245.677C244.905 320.477 243.646 321.12 242.101 321.12C239.419 321.12 237.631 319.203 237.631 316.765V316.111C237.631 313.618 239.419 311.723 242.101 311.723C243.613 311.723 244.838 312.322 245.622 313.274H245.611ZM251.218 322.593V329.674H248.834V324.51H239.43V322.593H251.218ZM239.927 316.133V316.754C239.927 318.095 240.699 319.147 242.09 319.147C243.481 319.147 244.253 318.083 244.253 316.754V316.133C244.253 314.781 243.536 313.74 242.09 313.74C240.644 313.74 239.927 314.781 239.927 316.133ZM246.505 315.236C246.56 315.513 246.582 315.812 246.582 316.111V316.765C246.582 317.042 246.56 317.308 246.527 317.541H248.834V315.225H246.505V315.236Z" fill="black"/>
<path opacity="0.2" d="M196.173 379.083C203.415 379.083 209.286 377.743 209.286 376.091C209.286 374.439 203.415 373.099 196.173 373.099C188.931 373.099 183.06 374.439 183.06 376.091C183.06 377.743 188.931 379.083 196.173 379.083Z" fill="#191D31"/>
<path d="M337.997 132.138C329.1 132.138 321.893 139.385 321.882 148.316C321.882 157.801 330.657 163.618 336.463 167.463L337.467 168.128C337.787 168.338 338.196 168.338 338.516 168.128L339.52 167.463C345.326 163.618 354.101 157.79 354.101 148.316C354.101 139.385 346.882 132.149 337.986 132.138H337.997Z" fill="#4762F0"/>
<path d="M337.997 153.069C340.612 153.069 342.732 150.941 342.732 148.316C342.732 145.69 340.612 143.562 337.997 143.562C335.382 143.562 333.262 145.69 333.262 148.316C333.262 150.941 335.382 153.069 337.997 153.069Z" fill="white"/>
<path d="M315.69 108.226V109.023C315.69 113.433 313.548 116.647 308.018 118.464L307.069 116.569C311.164 115.395 313.074 113.112 313.173 110.22H307.742V108.226H315.69ZM314.321 118.143H315.358C319.078 118.143 320.767 119.661 320.767 121.955C320.767 124.248 319.056 125.744 315.358 125.744H314.321C310.568 125.744 308.89 124.204 308.89 121.955C308.89 119.705 310.579 118.143 314.321 118.143ZM314.343 123.772H315.336C317.489 123.772 318.416 123.218 318.416 121.932C318.416 120.647 317.478 120.159 315.336 120.159H314.343C312.18 120.159 311.241 120.714 311.241 121.932C311.241 123.207 312.191 123.772 314.343 123.772ZM320.403 107.328V111.572H322.688V113.522H320.403V117.855H318.041V107.317H320.403V107.328Z" fill="black"/>
<path d="M333.604 114.996L333.802 116.769C332.809 117.013 331.462 117.19 329.763 117.323V120.758H327.677V123.45H337.456V125.39H325.314V119.506H327.401V117.467C325.966 117.522 324.564 117.544 323.306 117.544V115.55C328.173 115.55 331.275 115.428 333.604 114.996ZM332.853 110.962V111.417C332.853 113.256 331.242 114.663 328.46 114.663C325.679 114.663 324.067 113.245 324.067 111.417V110.962C324.067 109.112 325.712 107.594 328.46 107.594C331.209 107.594 332.853 109.09 332.853 110.962ZM326.418 111.04V111.361C326.418 112.181 327.213 112.902 328.46 112.902C329.796 112.902 330.502 112.181 330.502 111.361V111.04C330.502 110.165 329.785 109.422 328.46 109.422C327.136 109.422 326.418 110.165 326.418 111.04ZM337.114 107.328V121.533H334.73V119.894H331.551V117.977H334.73V107.317H337.114V107.328Z" fill="black"/>
<path d="M340.458 122.453L339.123 120.702C341.926 118.763 343.196 116.137 343.196 112.702V110.364H339.641V108.325H349.123V110.364H345.624V112.713C345.624 116.004 346.97 118.719 349.675 120.359L348.439 122.232C346.408 121.079 344.94 119.018 344.399 117.445C343.902 119.085 342.533 121.079 340.447 122.453H340.458ZM353.096 107.328V125.6H350.734V107.328H353.096Z" fill="black"/>
<path d="M363.505 109.422H366.728V107.328H369.112V117.799H366.728V115.627H363.571C362.799 116.625 361.54 117.267 359.995 117.267C357.313 117.267 355.525 115.35 355.525 112.913V112.259C355.525 109.766 357.313 107.871 359.995 107.871C361.507 107.871 362.732 108.469 363.516 109.422H363.505ZM369.112 118.741V125.822H366.728V120.658H357.324V118.741H369.112ZM357.821 112.281V112.902C357.821 114.242 358.593 115.295 359.984 115.295C361.375 115.295 362.147 114.231 362.147 112.902V112.281C362.147 110.929 361.43 109.888 359.984 109.888C358.538 109.888 357.821 110.929 357.821 112.281ZM364.399 111.384C364.454 111.661 364.476 111.96 364.476 112.259V112.913C364.476 113.19 364.454 113.456 364.421 113.688H366.728V111.372H364.399V111.384Z" fill="black"/>
<path opacity="0.2" d="M337.997 175.242C345.239 175.242 351.11 173.902 351.11 172.25C351.11 170.598 345.239 169.258 337.997 169.258C330.755 169.258 324.884 170.598 324.884 172.25C324.884 173.902 330.755 175.242 337.997 175.242Z" fill="#191D31"/>
<path d="M156.978 137.977C148.082 137.977 140.874 145.224 140.863 154.155C140.863 163.64 149.638 169.458 155.444 173.303L156.448 173.968C156.768 174.178 157.177 174.178 157.497 173.968L158.501 173.303C164.307 169.458 173.082 163.629 173.082 154.155C173.082 145.224 165.863 137.988 156.967 137.977H156.978Z" fill="#4762F0"/>
<path d="M156.978 158.909C159.593 158.909 161.713 156.781 161.713 154.155C161.713 151.53 159.593 149.402 156.978 149.402C154.363 149.402 152.243 151.53 152.243 154.155C152.243 156.781 154.363 158.909 156.978 158.909Z" fill="white"/>
<path d="M130.046 113.866H132.452V118.298C132.452 121.711 133.7 124.381 136.503 126.054C136.106 126.697 135.686 127.329 135.311 127.971C133.346 126.83 131.834 124.736 131.216 123.04C130.719 124.78 129.251 126.93 127.242 128.226C126.823 127.628 126.404 126.985 125.973 126.387C128.733 124.414 130.046 121.777 130.046 118.265V113.855V113.866ZM140.024 113.168V131.417H137.64V121.002H134.395V119.007H137.64V113.156H140.024V113.168Z" fill="black"/>
<path d="M157.166 120.27V122.165H150.952V123.462H155.643V128.215H146.161V129.412H156.095V131.351H143.777V126.464H153.28V125.323H143.777V123.473H148.612V122.176H142.375V120.281H157.177L157.166 120.27ZM150.234 113.245C154.108 113.245 155.841 114.386 155.841 116.359C155.841 118.331 154.097 119.495 150.234 119.495H149.296C145.4 119.495 143.689 118.298 143.689 116.359C143.689 114.42 145.422 113.245 149.296 113.245H150.234ZM149.318 115.084C147.066 115.084 146.117 115.461 146.117 116.359C146.117 117.256 147.088 117.677 149.318 117.677H150.19C152.42 117.677 153.391 117.301 153.391 116.359C153.391 115.417 152.42 115.084 150.19 115.084H149.318Z" fill="black"/>
<path d="M159.451 128.293L158.115 126.542C160.919 124.603 162.188 121.977 162.188 118.542V116.204H158.634V114.165H168.115V116.204H164.616V118.553C164.616 121.844 165.963 124.559 168.667 126.198L167.431 128.071C165.4 126.919 163.932 124.858 163.391 123.284C162.894 124.924 161.526 126.919 159.44 128.293H159.451ZM172.089 113.168V131.44H169.727V113.168H172.089Z" fill="black"/>
<path d="M182.497 115.262H185.72V113.168H188.105V123.639H185.72V121.467H182.564C181.791 122.464 180.533 123.107 178.987 123.107C176.305 123.107 174.517 121.19 174.517 118.752V118.098C174.517 115.605 176.305 113.71 178.987 113.71C180.499 113.71 181.725 114.309 182.508 115.262H182.497ZM188.105 124.581V131.661H185.72V126.498H176.316V124.581H188.105ZM176.813 118.121V118.741C176.813 120.082 177.586 121.135 178.976 121.135C180.367 121.135 181.14 120.071 181.14 118.741V118.121C181.14 116.769 180.422 115.727 178.976 115.727C177.53 115.727 176.813 116.769 176.813 118.121ZM183.391 117.223C183.447 117.5 183.469 117.799 183.469 118.098V118.752C183.469 119.029 183.447 119.295 183.413 119.528H185.72V117.212H183.391V117.223Z" fill="black"/>
<path opacity="0.2" d="M156.978 181.081C164.22 181.081 170.091 179.742 170.091 178.09C170.091 176.437 164.22 175.098 156.978 175.098C149.736 175.098 143.865 176.437 143.865 178.09C143.865 179.742 149.736 181.081 156.978 181.081Z" fill="#191D31"/>
<path d="M216.869 209.404C207.972 209.404 200.765 216.65 200.754 225.582C200.754 235.067 209.529 240.884 215.335 244.729L216.339 245.394C216.659 245.604 217.068 245.604 217.388 245.394L218.392 244.729C224.198 240.884 232.973 235.056 232.973 225.582C232.973 216.65 225.754 209.415 216.858 209.404H216.869Z" fill="#4762F0"/>
<path d="M216.869 230.335C219.484 230.335 221.604 228.207 221.604 225.582C221.604 222.956 219.484 220.828 216.869 220.828C214.254 220.828 212.134 222.956 212.134 225.582C212.134 228.207 214.254 230.335 216.869 230.335Z" fill="white"/>
<path d="M199.904 184.594V195.11H197.52V192.993H194.241V191.043H197.52V189.093H194.44C193.601 192.084 191.316 194.356 187.111 195.797L186.162 193.946C190.213 192.705 192.266 190.334 192.387 187.397H187.023V185.381H194.838V186.201C194.838 186.522 194.815 186.843 194.793 187.142H197.542V184.605H199.926L199.904 184.594ZM193.679 195.353H194.716C198.436 195.353 200.147 196.894 200.147 199.198C200.147 201.503 198.436 203.054 194.716 203.054H193.679C189.926 203.054 188.248 201.503 188.248 199.198C188.248 196.894 189.937 195.353 193.679 195.353ZM193.679 201.06H194.694C196.846 201.06 197.796 200.484 197.796 199.209C197.796 197.935 196.846 197.37 194.694 197.37H193.679C191.515 197.37 190.577 197.946 190.577 199.209C190.577 200.473 191.526 201.06 193.679 201.06Z" fill="black"/>
<path d="M211.24 185.591V186.644C211.24 191.774 209.529 196.639 203.613 199.63L202.42 197.713C207.167 195.497 208.822 191.63 208.822 187.597H203.083V185.58H211.251L211.24 185.591ZM215.931 184.594V202.833H213.546V184.594H215.931Z" fill="black"/>
<path d="M219.33 199.708L217.995 197.957C220.798 196.018 222.068 193.392 222.068 189.957V187.619H218.513V185.58H227.995V187.619H224.496V189.968C224.496 193.259 225.843 195.974 228.547 197.614L227.311 199.486C225.28 198.334 223.812 196.273 223.271 194.7C222.774 196.34 221.405 198.334 219.319 199.708H219.33ZM231.968 184.583V202.855H229.606V184.583H231.968Z" fill="black"/>
<path d="M242.377 186.688H245.6V184.594H247.984V195.065H245.6V192.893H242.443C241.671 193.891 240.412 194.533 238.867 194.533C236.185 194.533 234.397 192.616 234.397 190.179V189.525C234.397 187.032 236.185 185.137 238.867 185.137C240.379 185.137 241.604 185.735 242.388 186.688H242.377ZM247.984 196.007V203.088H245.6V197.924H236.196V196.007H247.984ZM236.693 189.547V190.168C236.693 191.508 237.465 192.561 238.856 192.561C240.247 192.561 241.019 191.497 241.019 190.168V189.547C241.019 188.195 240.302 187.154 238.856 187.154C237.41 187.154 236.693 188.195 236.693 189.547ZM243.271 188.649C243.326 188.926 243.348 189.226 243.348 189.525V190.179C243.348 190.456 243.326 190.722 243.293 190.954H245.6V188.638H243.271V188.649Z" fill="black"/>
<path opacity="0.2" d="M216.869 252.497C224.111 252.497 229.982 251.157 229.982 249.505C229.982 247.853 224.111 246.513 216.869 246.513C209.627 246.513 203.756 247.853 203.756 249.505C203.756 251.157 209.627 252.497 216.869 252.497Z" fill="#191D31"/>
<defs>
<filter id="filter0_d_15_3617" x="0.0278168" y="0.0549927" width="537.943" height="892.914" filterUnits="userSpaceOnUse" color-interpolation-filters="sRGB">
<feFlood flood-opacity="0" result="BackgroundImageFix"/>
<feColorMatrix in="SourceAlpha" type="matrix" values="0 0 0 0 0 0 0 0 0 0 0 0 0 0 0 0 0 0 127 0" result="hardAlpha"/>
<feOffset dy="25"/>
<feGaussianBlur stdDeviation="12.5"/>
<feComposite in2="hardAlpha" operator="out"/>
<feColorMatrix type="matrix" values="0 0 0 0 0 0 0 0 0 0 0 0 0 0 0 0 0 0 0.1 0"/>
<feBlend mode="normal" in2="BackgroundImageFix" result="effect1_dropShadow_15_3617"/>
<feBlend mode="normal" in="SourceGraphic" in2="effect1_dropShadow_15_3617" result="shape"/>
</filter>
</defs>
</svg>
