<svg width="19" height="21" viewBox="0 0 19 21" fill="none" xmlns="http://www.w3.org/2000/svg">
<path d="M9.39041 0C4.20639 0 0.00643178 4.20998 0 9.39842C0 14.9087 5.11326 18.2883 8.49638 20.522L9.08168 20.9083C9.2682 21.0306 9.50618 21.0306 9.6927 20.9083L10.278 20.522C13.6611 18.2883 18.7744 14.9023 18.7744 9.39842C18.7744 4.20998 14.568 0.00643727 9.38397 0H9.39041Z" fill="#4762F0"/>
<path d="M9.39041 12.1536C10.9143 12.1536 12.1496 10.9172 12.1496 9.39198C12.1496 7.8668 10.9143 6.6304 9.39041 6.6304C7.86652 6.6304 6.63116 7.8668 6.63116 9.39198C6.63116 10.9172 7.86652 12.1536 9.39041 12.1536Z" fill="white"/>
</svg>
