<svg width="144" height="32" viewBox="0 0 144 32" fill="none" xmlns="http://www.w3.org/2000/svg">
<g clip-path="url(#clip0_21_8367)">
<path d="M5.96525 19.1991H7.55747L7.86176 18.3587H9.87857L10.1546 19.1991H11.7609L9.46105 13.4153H8.28635L5.97233 19.1991H5.96525ZM9.47521 17.1864H8.26512L8.8737 15.2091L9.47521 17.1864ZM14.266 17.3842C15.0373 17.3842 15.6035 17.2147 15.9573 16.8828C16.3607 16.5085 16.5659 16.0071 16.5659 15.3856C16.5659 14.7641 16.3394 14.2274 15.8865 13.8531C15.5398 13.5636 14.9454 13.4224 14.1032 13.4224H12.2067V19.2062H13.622V17.3912H14.2589L14.266 17.3842ZM13.6291 14.7218H14.1669C14.818 14.7218 15.1506 14.9478 15.1506 15.4068C15.1506 15.8658 14.8392 16.0777 14.2306 16.0777H13.6362V14.7218H13.6291ZM18.8233 14.7218V15.6822H20.5075V16.9887H18.8233V19.1921H17.408V13.4082H20.5712V14.7147H18.8233V14.7218ZM23.5716 17.9068C23.6848 17.8008 23.7344 17.6667 23.7344 17.5113C23.7344 17.2641 23.5292 17.0523 23.1116 16.8898L22.4394 16.6144C22.1563 16.4944 21.9299 16.3602 21.7388 16.2048C21.3496 15.8941 21.1585 15.4915 21.1585 15.0113C21.1585 14.5311 21.3567 14.1286 21.7459 13.7966C22.1422 13.4647 22.6163 13.3023 23.1895 13.3023C23.8688 13.3023 24.3854 13.5212 24.7534 13.9591C24.8949 14.1286 24.9869 14.291 25.0435 14.4393C25.0931 14.5947 25.1285 14.8136 25.1426 15.0961H23.6778C23.6282 14.7218 23.4513 14.5382 23.147 14.5382C23.0055 14.5382 22.8923 14.5805 22.7861 14.6653C22.6871 14.75 22.6375 14.856 22.6375 14.976C22.6375 15.2091 22.8003 15.3997 23.1329 15.548L23.8405 15.8658C24.3288 16.0848 24.6756 16.3249 24.8808 16.5791C25.086 16.8333 25.1921 17.1511 25.1921 17.5325C25.1921 18.0904 25.0152 18.5212 24.6543 18.8319C24.3005 19.1426 23.8051 19.298 23.1612 19.298C22.5172 19.298 22.0006 19.1356 21.6256 18.8036C21.2505 18.4788 21.0595 18.0268 21.0595 17.4689V17.2782H22.5455C22.5455 17.5184 22.6021 17.702 22.7083 17.8432C22.8144 17.9844 22.963 18.0551 23.147 18.0551C23.3098 18.0551 23.4442 17.9986 23.5575 17.8926L23.5716 17.9068ZM31.837 15.9929C31.837 17.822 31.5327 19.7217 30.6552 21.2189C30.1174 22.1369 29.4805 22.7655 28.6526 23.4505H28.6455C28.4898 23.5847 28.3412 23.7047 28.1997 23.8177L28.1714 23.8318C28.0157 23.9519 27.8741 24.0578 27.7326 24.1638L27.6831 24.1991C27.5274 24.3121 27.3859 24.418 27.2514 24.5027L27.1806 24.5522C27.0391 24.644 26.9047 24.7358 26.7631 24.8276C26.749 24.8347 26.7277 24.8488 26.7136 24.8558L26.6641 24.8912C26.5296 24.9759 26.4022 25.0536 26.2678 25.1383C26.2395 25.1524 26.2182 25.1666 26.1899 25.1807L26.1262 25.216C26.0059 25.2866 25.8786 25.3643 25.7583 25.4349C25.7229 25.4561 25.6875 25.4773 25.6521 25.4914L25.5177 25.5691C25.4257 25.6185 25.3337 25.668 25.2417 25.7245C25.1921 25.7527 25.1426 25.7739 25.0931 25.8022L24.9162 25.894C24.8525 25.9293 24.7817 25.9646 24.7109 25.9999C24.6331 26.0352 24.5553 26.0776 24.4703 26.1129L24.3005 26.1906C24.258 26.2118 24.2085 26.2329 24.166 26.2541C23.9821 26.3389 23.7981 26.4166 23.6141 26.4942C22.9489 26.7697 22.2766 27.0098 21.5902 27.2146C25.6875 25.1383 28.504 20.887 28.504 15.9929C28.504 9.05799 22.8498 3.4154 15.9007 3.4154C8.95154 3.4154 3.31864 9.06506 3.31864 16C3.31864 20.894 6.13509 25.1454 10.2395 27.2216C9.53889 27.0168 8.85955 26.7697 8.1802 26.4872C5.39913 25.3149 2.70298 23.846 1.17445 21.2259C0.296966 19.7288 -0.00732422 17.8291 -0.00732422 15.9929C-0.000247704 7.23598 7.13996 0.110352 15.9219 0.110352C24.7039 0.110352 31.8441 7.23598 31.8441 16L31.837 15.9929ZM29.155 24.0508C29.4734 23.7895 29.7848 23.514 30.0891 23.2245C27.4496 28.3586 22.0856 31.8826 15.9148 31.8826C9.74411 31.8826 4.38719 28.3657 1.74057 23.2316C3.53093 24.9053 5.61851 26.2541 7.86884 27.2004C10.4164 28.2668 13.1196 28.8106 15.9078 28.8106C18.6959 28.8106 21.385 28.2739 23.9254 27.2075C24.1094 27.1298 24.3076 27.0451 24.4986 26.9603C24.5482 26.9392 24.5977 26.9109 24.6473 26.8897L24.8029 26.812C24.8879 26.7697 24.9728 26.7344 25.0577 26.692C25.1285 26.6567 25.1992 26.6214 25.2771 26.579L25.4469 26.4872C25.5035 26.4589 25.553 26.4307 25.6097 26.4024C25.7087 26.353 25.8078 26.2965 25.8998 26.24L26.0272 26.1694C26.0696 26.1482 26.105 26.127 26.1475 26.1058C26.2749 26.0352 26.4093 25.9575 26.5367 25.8798L26.5933 25.8445C26.5933 25.8445 26.6499 25.8092 26.6782 25.7951C26.8197 25.7104 26.9542 25.6256 27.0957 25.5338L27.1382 25.5056C27.1382 25.5056 27.1806 25.4773 27.2019 25.4632C27.3293 25.3855 27.4637 25.2937 27.6335 25.1736L27.7043 25.1242C27.8388 25.0324 27.9874 24.9265 28.1501 24.8064L28.1997 24.7711C28.3483 24.6652 28.4969 24.5522 28.6596 24.418L28.6809 24.4039C28.8295 24.2838 28.9852 24.1638 29.1479 24.0296H29.155V24.0508ZM67.2762 12.0735C66.8021 12.4831 66.243 12.8009 65.6132 13.0339L64.8631 11.8758C65.2169 11.7204 65.5354 11.5368 65.8397 11.3249C66.1369 11.1131 66.3916 10.88 66.6039 10.6258C66.8162 10.3645 66.986 10.082 67.0993 9.7642C67.2125 9.44641 67.2762 9.10037 67.2762 8.71901V8.41535H65.4646V7.14417H71.0621V8.41535H69.0948V8.71901C69.0948 9.10037 69.1515 9.44641 69.2718 9.7642C69.3921 10.082 69.5548 10.3645 69.7671 10.6258C69.9794 10.88 70.2412 11.1201 70.5385 11.3249C70.8357 11.5368 71.1612 11.7204 71.515 11.8758L70.7649 13.0339C70.128 12.8009 69.576 12.4831 69.1019 12.0735C68.7056 11.7345 68.4084 11.3744 68.1961 10.993C67.9838 11.3744 67.6866 11.7345 67.2903 12.0735H67.2762ZM51.5026 13.2034H40.7959V11.7769H45.3248V10.7317H42.9754C42.6428 10.7317 42.381 10.6399 42.1758 10.4492C41.9776 10.2656 41.8786 10.0114 41.8786 9.70064V7.72326C41.8786 7.58202 41.8432 7.43372 41.7724 7.27129C41.7017 7.10886 41.5884 6.98174 41.4398 6.87581H43.5274V9.12861C43.5415 9.19923 43.5628 9.25573 43.6052 9.29104C43.6689 9.34048 43.7751 9.36166 43.9237 9.36166H50.3916V10.7246H46.9666V11.7698H51.4956V13.1964L51.5026 13.2034ZM49.3018 14.4393C48.9339 14.2274 48.4951 14.065 47.9715 13.9449C47.4478 13.8249 46.8534 13.7613 46.1811 13.7613C45.5088 13.7613 44.9073 13.8178 44.3837 13.9449C43.8529 14.065 43.4071 14.2274 43.032 14.4393C42.6641 14.6512 42.381 14.8983 42.1899 15.1808C41.9989 15.4633 41.8998 15.767 41.8998 16.0848C41.8998 16.4025 41.9989 16.7133 42.1899 16.9958C42.381 17.2853 42.6641 17.5254 43.032 17.7373C43.4 17.9421 43.8529 18.1116 44.3837 18.2316C44.9073 18.3517 45.5159 18.4152 46.1811 18.4152C46.8463 18.4152 47.4478 18.3517 47.9715 18.2316C48.4951 18.1116 48.9409 17.9491 49.3018 17.7373C49.6698 17.5325 49.9458 17.2853 50.1369 16.9958C50.3279 16.7133 50.427 16.4025 50.427 16.0848C50.427 15.767 50.3279 15.4633 50.1369 15.1808C49.9458 14.8983 49.6627 14.6512 49.3018 14.4393ZM47.9219 16.9251C47.5044 17.137 46.9241 17.2429 46.1882 17.2429C45.4522 17.2429 44.8719 17.137 44.4403 16.9251C44.0015 16.7133 43.7822 16.4308 43.7822 16.0848C43.7822 15.7387 44.0015 15.4421 44.4403 15.2373C44.879 15.0325 45.4593 14.9266 46.1882 14.9266C46.917 14.9266 47.5044 15.0325 47.9219 15.2373C48.3394 15.4421 48.5446 15.7246 48.5446 16.0848C48.5446 16.4449 48.3394 16.7062 47.9219 16.9251ZM54.7012 12.6243C55.0833 12.7868 55.515 12.8715 56.0104 12.8715C56.442 12.8715 56.8312 12.808 57.178 12.6808C57.5247 12.5537 57.829 12.3842 58.0838 12.1653C58.3385 11.9464 58.5508 11.6992 58.7136 11.4097C58.8764 11.1201 58.9825 10.8164 59.0391 10.5057H60.971V13.0904H62.6198V6.65689H60.5323C60.6667 6.73457 60.7729 6.85463 60.8507 7.02412C60.9285 7.19361 60.971 7.34897 60.971 7.49021V9.31223H59.0037C58.9259 9.01562 58.8056 8.73314 58.6428 8.46478C58.4801 8.19642 58.2678 7.95631 58.013 7.75857C57.7583 7.55377 57.4611 7.39135 57.1214 7.27129C56.7817 7.15123 56.4067 7.08768 56.0033 7.08768C55.515 7.08768 55.0763 7.17242 54.6941 7.33485C54.312 7.49728 53.9865 7.7162 53.7247 7.98456C53.4557 8.25292 53.2576 8.56365 53.1231 8.90969C52.9887 9.25573 52.9179 9.6159 52.9179 9.97606C52.9179 10.3362 52.9887 10.6964 53.1231 11.0495C53.2576 11.3955 53.4628 11.7063 53.7247 11.9746C53.9936 12.243 54.312 12.4619 54.6941 12.6314L54.7012 12.6243ZM54.6021 9.37579C54.6658 9.18511 54.7649 9.00856 54.8923 8.85319C55.0197 8.69783 55.1753 8.57777 55.3664 8.48597C55.5504 8.39416 55.7698 8.35179 56.0104 8.35179C56.251 8.35179 56.4633 8.40122 56.6473 8.48597C56.8383 8.57777 56.994 8.69783 57.1214 8.85319C57.2488 9.00856 57.3478 9.18511 57.4115 9.37579C57.4752 9.57352 57.5106 9.77126 57.5106 9.97606C57.5106 10.1809 57.4752 10.3857 57.4115 10.5834C57.3478 10.7811 57.2488 10.9506 57.1214 11.106C56.994 11.2614 56.8383 11.3814 56.6473 11.4732C56.4633 11.565 56.251 11.6145 56.0104 11.6145C55.7698 11.6145 55.5575 11.565 55.3664 11.4732C55.1824 11.3814 55.0197 11.2614 54.8923 11.106C54.7649 10.9577 54.6658 10.7811 54.6021 10.5834C54.5385 10.3927 54.5031 10.1879 54.5031 9.97606C54.5031 9.7642 54.5385 9.57352 54.6021 9.37579ZM73.4115 14.3192C73.0718 14.1074 72.6543 13.9379 72.159 13.8108C71.6636 13.6907 71.0975 13.6272 70.4677 13.6272C69.8379 13.6272 69.2647 13.6907 68.7693 13.8108C68.2669 13.9308 67.8494 14.1003 67.5026 14.3192C67.1559 14.5311 66.8941 14.7853 66.7101 15.0819C66.5261 15.3715 66.4341 15.6822 66.4341 16.0071C66.4341 16.3319 66.5261 16.6427 66.7101 16.9322C66.8941 17.2217 67.1559 17.4689 67.5026 17.6808C67.8494 17.8926 68.274 18.0621 68.7693 18.1822C69.2718 18.3022 69.8379 18.3658 70.4677 18.3658C71.0975 18.3658 71.6636 18.3022 72.159 18.1822C72.6543 18.0621 73.0718 17.8926 73.4115 17.6808C73.7512 17.4689 74.013 17.2217 74.197 16.9322C74.381 16.6427 74.473 16.339 74.473 16.0071C74.473 15.6752 74.381 15.3715 74.197 15.0819C74.013 14.7924 73.7512 14.5382 73.4115 14.3192ZM72.0528 16.8757C71.6707 17.1017 71.147 17.2147 70.4818 17.2147C69.8167 17.2147 69.293 17.1017 68.9038 16.8757C68.5146 16.6497 68.3164 16.3672 68.3164 16.0212C68.3164 15.654 68.5146 15.3574 68.9038 15.1243C69.293 14.8913 69.8167 14.7783 70.4818 14.7783C71.147 14.7783 71.6707 14.8913 72.0528 15.1243C72.435 15.3574 72.626 15.654 72.626 16.0212C72.626 16.3672 72.435 16.6497 72.0528 16.8757ZM72.3642 6.64983H73.5955C73.5955 6.64983 73.6026 6.64983 73.6097 6.64983H74.4447V7.39135C74.4447 7.39135 74.4447 7.41959 74.4447 7.43372V13.1328H72.8029V10.2939H70.9489V9.10037H72.8029V7.48315C72.8029 7.34191 72.7605 7.18654 72.6826 7.01706C72.6048 6.84757 72.4986 6.72751 72.3642 6.64983ZM62.6198 13.7543H61.7919C61.7919 13.7543 61.7777 13.7543 61.7707 13.7543H60.5464C60.6738 13.832 60.7799 13.952 60.8578 14.1144C60.9285 14.2698 60.9639 14.4181 60.971 14.5523V14.7783H56.251V13.7543H55.4442C55.4442 13.7543 55.423 13.7543 55.4089 13.7543H54.1846C54.312 13.832 54.4182 13.952 54.496 14.1144C54.5738 14.2839 54.6163 14.4393 54.6163 14.5805V16.3178V16.9958C54.6163 17.4195 54.7224 17.7302 54.9347 17.928C55.147 18.1257 55.4159 18.2246 55.7415 18.2246H62.6198V13.7543ZM60.9781 17.0381H56.626C56.4774 17.0381 56.3783 17.0028 56.3288 16.9322C56.2793 16.8616 56.258 16.7486 56.258 16.6003V15.9788H60.9781V17.0381ZM82.1581 6.86169H84.0334V9.59471H85.1656V7.46903C85.1656 7.34191 85.1373 7.20067 85.0736 7.03118C85.0099 6.86875 84.9038 6.73457 84.7552 6.64983H85.8733C85.8733 6.64983 85.8733 6.64983 85.8803 6.64983H86.7083V12.8786V13.1893H85.1656V10.7882H84.0334V13.154H82.519V7.74445C82.519 7.61027 82.4907 7.4549 82.4482 7.27129C82.3987 7.08768 82.3067 6.9535 82.1652 6.86169H82.1581ZM77.9617 11.0636C78.3155 10.5693 78.5208 9.98312 78.5561 9.29104H76.7163V8.09755H78.5561V7.5679C78.5561 7.5114 78.5562 7.44078 78.5349 7.3631C78.5208 7.28541 78.5066 7.20773 78.4783 7.13005C78.4571 7.05237 78.4146 6.97468 78.3722 6.90406C78.3226 6.83344 78.266 6.77695 78.1882 6.73457H79.4832C79.4832 6.73457 79.4973 6.73457 79.5044 6.73457H80.1696V7.49021C80.1696 7.49021 80.1696 7.51846 80.1696 7.52552V8.09755H82.0519V9.29104H80.1625C80.205 9.99725 80.4031 10.5905 80.764 11.0707C81.1178 11.5509 81.6415 11.9605 82.3209 12.2995L81.684 13.2034C81.4575 13.1257 81.2311 13.0198 80.9975 12.8856C80.764 12.7515 80.5446 12.5961 80.3465 12.4266C80.1413 12.2571 79.9644 12.0735 79.8016 11.8828C79.6459 11.6851 79.5256 11.4944 79.4549 11.3037C79.285 11.7275 79.002 12.1229 78.5986 12.4902C78.1952 12.8574 77.7282 13.1611 77.2045 13.4012L76.3837 12.3489C77.0842 11.9817 77.6079 11.558 77.9617 11.0636ZM98.6322 15.1172H94.4712V13.0057H97.2523V7.17242H95.1223C95.4478 7.41959 95.6105 7.80801 95.6105 8.33766V9.22748H91.2939V7.24304H89.1638C89.4894 7.49021 89.645 7.87863 89.645 8.41535V11.7769C89.645 12.2006 89.7512 12.5113 89.9635 12.7091C90.1758 12.9068 90.4447 13.0057 90.7631 13.0057H92.4686V15.1172H88.3713V16.5226H98.6251V15.1172H98.6322ZM91.7043 11.8122C91.5557 11.8122 91.4496 11.784 91.3859 11.7345C91.3292 11.6851 91.3009 11.5933 91.2939 11.4591V10.4139H95.6105V11.8122H91.7043ZM100.189 9.969C100.069 10.2656 100.012 10.5763 100.012 10.9224C100.012 11.2684 100.076 11.5792 100.196 11.8687C100.324 12.1582 100.5 12.4195 100.741 12.6385C100.982 12.8574 101.272 13.0339 101.611 13.1611C101.951 13.2882 102.34 13.3517 102.779 13.3517C103.218 13.3517 103.6 13.2882 103.947 13.1611C104.293 13.0339 104.584 12.8574 104.824 12.6385C105.065 12.4195 105.249 12.1653 105.369 11.8687C105.496 11.5721 105.553 11.2614 105.553 10.9224C105.553 10.2374 105.305 9.65827 104.817 9.19217H106.126V7.99868H103.572V6.62864H101.59C101.732 6.72045 101.838 6.85463 101.909 7.02412C101.979 7.20067 102.015 7.34191 102.015 7.46197V7.99162H99.4036V9.18511H100.72C100.479 9.4111 100.295 9.67239 100.175 9.96194L100.189 9.969ZM101.859 9.94075C102.078 9.68652 102.39 9.5594 102.786 9.5594C103.182 9.5594 103.501 9.68652 103.72 9.94075C103.94 10.195 104.046 10.4987 104.046 10.8659C104.046 11.2331 103.94 11.5438 103.72 11.791C103.508 12.0382 103.197 12.1582 102.786 12.1582C102.376 12.1582 102.078 12.0382 101.859 11.791C101.64 11.5438 101.527 11.2402 101.527 10.8659C101.527 10.4916 101.64 10.195 101.859 9.94075ZM121.744 12.8291H111.037V11.3249H118.206L118.22 8.41535H112.622V7.22186L119.833 7.23598L119.855 11.3249H121.751V12.8291H121.744ZM125.098 10.767C125.438 10.9789 125.856 11.1484 126.351 11.2684C126.846 11.3885 127.412 11.452 128.049 11.452C128.686 11.452 129.252 11.3955 129.748 11.2684C130.243 11.1484 130.661 10.9789 131 10.767C131.34 10.5481 131.595 10.3009 131.772 10.0043C131.941 9.7077 132.033 9.39697 132.033 9.05093C132.033 8.70489 131.948 8.39416 131.772 8.10461C131.602 7.80801 131.34 7.55377 131 7.34191C130.661 7.13005 130.243 6.96056 129.748 6.8405C129.252 6.72045 128.686 6.65689 128.049 6.65689C127.412 6.65689 126.846 6.72045 126.351 6.8405C125.856 6.96056 125.438 7.13005 125.098 7.34191C124.759 7.55377 124.504 7.81507 124.327 8.10461C124.157 8.40122 124.072 8.71195 124.072 9.05093C124.072 9.38991 124.157 9.7077 124.327 10.0043C124.504 10.3009 124.759 10.5552 125.098 10.767ZM126.471 8.21055C126.86 8.01987 127.391 7.921 128.049 7.921C128.707 7.921 129.238 8.01987 129.627 8.21055C130.017 8.40122 130.215 8.6837 130.215 9.05799C130.215 9.43228 130.017 9.71477 129.627 9.90544C129.238 10.0961 128.714 10.1879 128.049 10.1879C127.384 10.1879 126.86 10.0961 126.471 9.90544C126.082 9.71477 125.891 9.43228 125.891 9.05799C125.891 8.6837 126.089 8.40828 126.471 8.21055ZM135.826 10.6611C136.067 10.8659 136.364 11.0354 136.725 11.1484C137.079 11.2684 137.496 11.332 137.956 11.332C138.416 11.332 138.82 11.2684 139.181 11.1484C139.542 11.0283 139.846 10.8659 140.094 10.6611C140.341 10.4563 140.532 10.2091 140.66 9.92663C140.787 9.64415 140.851 9.34754 140.851 9.02975C140.851 8.71195 140.787 8.40828 140.66 8.1258C140.532 7.85038 140.341 7.60321 140.094 7.39841C139.846 7.19361 139.542 7.02412 139.181 6.91112C138.82 6.79107 138.409 6.72751 137.956 6.72751C137.504 6.72751 137.079 6.79107 136.725 6.91112C136.371 7.03118 136.067 7.19361 135.826 7.39841C135.586 7.60321 135.402 7.84332 135.274 8.1258C135.147 8.40122 135.083 8.70489 135.083 9.02975C135.083 9.3546 135.147 9.64415 135.274 9.92663C135.402 10.2091 135.586 10.4492 135.826 10.6611ZM136.966 8.2741C137.192 8.0693 137.532 7.96337 137.971 7.96337C138.409 7.96337 138.735 8.0693 138.968 8.2741C139.202 8.4789 139.315 8.73314 139.315 9.03681C139.315 9.34048 139.202 9.59471 138.968 9.79951C138.735 10.0043 138.402 10.1032 137.971 10.1032C137.539 10.1032 137.199 10.0043 136.966 9.79951C136.739 9.59471 136.626 9.34048 136.626 9.03681C136.626 8.73314 136.739 8.48597 136.966 8.2741ZM138.055 16.911H143.979V18.1045H137.1C136.768 18.1045 136.506 18.0127 136.308 17.8291C136.109 17.6455 136.01 17.3912 136.01 17.0805V16.9322V15.7952C136.01 15.654 135.968 15.4986 135.89 15.3362C135.812 15.1667 135.706 15.0466 135.572 14.9689H136.796C136.796 14.9689 136.803 14.9689 136.81 14.9689H137.659V16.5438C137.659 16.6921 137.688 16.791 137.751 16.8404C137.815 16.8898 137.921 16.9181 138.07 16.9181L138.055 16.911ZM137.185 12.9633H134.581V11.7698H141.771V12.9633H138.834V14.3545H137.192V12.9633H137.185ZM107.131 6.64983H109.219V13.5848H107.577V11.3955H105.985V10.202H107.577V7.48315C107.577 7.34191 107.534 7.18654 107.457 7.01706C107.379 6.84757 107.273 6.72751 107.138 6.64983H107.131ZM143.986 6.64983V15.8093H142.33V14.7288H140.419V13.5353H142.33V7.47609C142.33 7.33485 142.294 7.17948 142.209 7.00999C142.132 6.8405 142.025 6.72045 141.891 6.64277H143.979L143.986 6.64983ZM109.205 14.1921H108.334C108.256 14.178 108.171 14.1709 108.086 14.1709H101.159V16.9887C101.159 17.4124 101.265 17.7232 101.477 17.9209C101.689 18.1186 101.958 18.2175 102.284 18.2175H109.212V15.2444C109.212 15.2444 109.212 15.2373 109.212 15.2302V14.1851L109.205 14.1921ZM107.563 15.9082V17.0311H103.211C103.062 17.0311 102.956 17.0028 102.892 16.9534C102.829 16.904 102.8 16.8051 102.8 16.6568V15.3644H107.563V15.9082ZM120.194 18.1469V13.8673L112.417 13.8884V16.9181C112.417 17.3418 112.523 17.6525 112.736 17.8503C112.948 18.048 113.217 18.1469 113.542 18.1469H120.201H120.194ZM114.073 15.0819H118.553V16.9604H114.484C114.335 16.9604 114.229 16.9322 114.165 16.8828C114.101 16.8333 114.073 16.7345 114.073 16.5862V15.0819ZM85.0453 15.1314H78.5774V13.9379H85.1798L86.7012 13.9308V17.5042V18.3093H85.0595V15.1314H85.0453ZM122.855 13.1328H125.113V14.3475C125.049 14.3828 124.985 14.411 124.921 14.4464C124.553 14.6582 124.27 14.9054 124.079 15.1879C123.888 15.4704 123.789 15.774 123.789 16.0918C123.789 16.4096 123.888 16.7203 124.079 17.0028C124.27 17.2924 124.553 17.5325 124.921 17.7443C125.289 17.9491 125.742 18.1186 126.266 18.2387C126.797 18.3587 127.391 18.4223 128.071 18.4223C128.75 18.4223 129.337 18.3587 129.861 18.2387C130.385 18.1186 130.83 17.9562 131.191 17.7443C131.552 17.5395 131.835 17.2924 132.026 17.0028C132.217 16.7203 132.316 16.4096 132.316 16.0918C132.316 15.774 132.217 15.4704 132.026 15.1879C131.835 14.9054 131.552 14.6582 131.191 14.4464C131.12 14.411 131.05 14.3757 130.979 14.3334V13.1328H133.173V11.9393H122.848V13.1328H122.855ZM126.839 13.1328H129.252V13.839C128.884 13.7896 128.488 13.7613 128.063 13.7613C127.639 13.7613 127.214 13.7896 126.832 13.839V13.1257L126.839 13.1328ZM126.337 15.2373C126.776 15.0325 127.356 14.9266 128.085 14.9266C128.814 14.9266 129.401 15.0325 129.818 15.2373C130.236 15.4421 130.441 15.7246 130.441 16.0848C130.441 16.4449 130.229 16.7062 129.818 16.9251C129.401 17.137 128.821 17.2429 128.085 17.2429C127.349 17.2429 126.776 17.137 126.337 16.9251C125.898 16.7133 125.686 16.4308 125.686 16.0848C125.686 15.7387 125.905 15.4421 126.337 15.2373ZM49.3938 22.7019H49.9812V23.2245H49.3938V22.7019ZM75.025 22.7019H75.6123V23.2245H75.025V22.7019ZM111.879 22.7019H112.467V23.2245H111.879V22.7019ZM137.645 22.7019H138.232V23.2245H137.645V22.7019ZM42.4164 22.7019L41.0789 25.9152H41.737L42.0979 25.0818H43.2373L43.584 25.9152H44.2421L42.8905 22.7019H42.4235H42.4164ZM42.3032 24.531L42.6499 23.5423L42.9967 24.531H42.3032ZM46.5915 23.8036C46.3863 23.5494 46.1174 23.4222 45.7848 23.4222C45.4522 23.4222 45.155 23.5494 44.9073 23.7965C44.6667 24.0437 44.5464 24.3474 44.5464 24.6934C44.5464 25.0395 44.6667 25.3573 44.9144 25.6115C45.1621 25.8657 45.4522 25.9999 45.7919 25.9999C46.1103 25.9999 46.3792 25.8728 46.5915 25.6115C46.5774 25.8375 46.4995 26.0211 46.3651 26.1553C46.2235 26.2965 46.0537 26.3671 45.8414 26.3671C45.6008 26.3671 45.4027 26.2824 45.247 26.0988H44.5889C44.6879 26.3459 44.8436 26.5366 45.063 26.6779C45.2824 26.8191 45.5301 26.8968 45.806 26.8968C46.1669 26.8968 46.4642 26.7838 46.7118 26.5578C46.9878 26.2965 47.1293 25.9434 47.1293 25.4844V23.514H46.5986V23.8107L46.5915 23.8036ZM46.3368 25.2513C46.2023 25.3996 46.0396 25.4702 45.8485 25.4702C45.6504 25.4702 45.4805 25.3926 45.339 25.2513C45.1975 25.103 45.1338 24.9194 45.1338 24.7005C45.1338 24.4816 45.2045 24.3121 45.339 24.1638C45.4734 24.0225 45.6433 23.9519 45.8343 23.9519C46.0254 23.9519 46.1952 24.0296 46.3297 24.1779C46.4642 24.3262 46.5349 24.5027 46.5349 24.7146C46.5349 24.9265 46.4712 25.103 46.3368 25.2513ZM48.8985 23.4222C48.8985 23.4222 48.9268 23.4222 48.9409 23.4293V23.9872C48.5942 24.0013 48.4243 24.192 48.4243 24.5592V25.9152H47.837V23.507H48.3677V23.7188C48.4527 23.6059 48.5376 23.5211 48.6083 23.4858C48.6791 23.4434 48.7782 23.4222 48.8914 23.4222H48.8985ZM49.3938 23.507H49.9812V25.9152H49.3938V23.507ZM51.2125 24.1638C51.078 24.305 51.0143 24.4886 51.0143 24.7075C51.0143 24.9265 51.0851 25.1101 51.2196 25.2513C51.354 25.3926 51.5309 25.4632 51.7362 25.4632C51.9414 25.4632 52.1324 25.3502 52.274 25.1242H52.925C52.8189 25.4208 52.6419 25.6468 52.4155 25.788C52.1961 25.9222 51.9697 25.9928 51.722 25.9928C51.3682 25.9928 51.0639 25.8657 50.8162 25.6115C50.5615 25.3573 50.4412 25.0536 50.4412 24.6934C50.4412 24.3333 50.5685 24.0366 50.8162 23.7895C51.0639 23.5423 51.3682 23.4152 51.722 23.4152C52.1183 23.4152 52.4509 23.5705 52.7127 23.8813C52.8047 23.9943 52.8826 24.1355 52.9321 24.2979H52.281C52.1466 24.0649 51.9626 23.9378 51.722 23.9378C51.5239 23.9378 51.354 24.0084 51.2196 24.1496L51.2125 24.1638ZM54.8711 23.507H55.4584V25.9152H54.9277V25.675C54.8357 25.7951 54.7437 25.8798 54.6517 25.9222C54.5597 25.9716 54.4394 25.9928 54.2979 25.9928C54.0219 25.9928 53.7954 25.9081 53.6044 25.7315C53.4062 25.5479 53.3071 25.2725 53.3071 24.9123V23.4999H53.8874V24.7358C53.8874 25.2231 54.0502 25.4632 54.3757 25.4632C54.7012 25.4632 54.8711 25.2231 54.8711 24.7358V23.4999V23.507ZM56.0245 22.7019H56.6119V25.9152H56.0245V22.7019ZM58.0201 23.507H58.3598V24.0296H58.0201V25.9152H57.4328V24.0296H57.1497V23.507H57.4328V22.7019H58.0201V23.507ZM60.412 23.507H60.9993V25.9152H60.4686V25.675C60.3766 25.7951 60.2846 25.8798 60.1926 25.9222C60.1006 25.9716 59.9803 25.9928 59.8458 25.9928C59.5699 25.9928 59.3434 25.9081 59.1523 25.7315C58.9542 25.5479 58.8551 25.2725 58.8551 24.9123V23.4999H59.4425V24.7358C59.4425 25.2231 59.6052 25.4632 59.9308 25.4632C60.2563 25.4632 60.4261 25.2231 60.4261 24.7358V23.4999L60.412 23.507ZM62.6198 23.4222C62.6198 23.4222 62.6481 23.4222 62.6623 23.4293V23.9872C62.3155 24.0013 62.1457 24.192 62.1457 24.5592V25.9152H61.5584V23.507H62.0891V23.7188C62.174 23.6059 62.2589 23.5211 62.3297 23.4858C62.4075 23.4434 62.4995 23.4222 62.6128 23.4222H62.6198ZM64.856 23.8107C64.764 23.6977 64.6437 23.6059 64.4951 23.5352C64.3465 23.4646 64.1979 23.4222 64.0422 23.4222C63.6955 23.4222 63.4124 23.5494 63.1789 23.7895C62.9454 24.0366 62.8321 24.3403 62.8321 24.7005C62.8321 25.0606 62.9454 25.3784 63.1647 25.6256C63.3841 25.8728 63.6672 25.9999 64.0068 25.9999C64.1554 25.9999 64.3111 25.9646 64.4739 25.8869C64.6366 25.8163 64.764 25.7245 64.856 25.6185V25.9152H65.3868V23.507H64.856V23.8107ZM64.6437 25.2513C64.5093 25.3926 64.3394 25.4702 64.1342 25.4702C63.929 25.4702 63.7662 25.3996 63.6247 25.2584C63.4902 25.1171 63.4195 24.9406 63.4195 24.7287C63.4195 24.5169 63.4902 24.3262 63.6247 24.1779C63.7592 24.0296 63.929 23.9519 64.1342 23.9519C64.3394 23.9519 64.5093 24.0225 64.6437 24.1638C64.7782 24.305 64.8419 24.4886 64.8419 24.7005C64.8419 24.9123 64.7782 25.103 64.6437 25.2513ZM65.967 22.6948H66.5544V25.9081H65.967V22.6948ZM69.8237 22.7231C69.7247 22.7019 69.5548 22.6948 69.3142 22.6948H68.5004V25.9081H69.1019V24.6864H69.3071C69.6327 24.6864 69.8591 24.6581 69.9936 24.6087C70.1634 24.5451 70.2979 24.4251 70.404 24.2485C70.5101 24.072 70.5597 23.8813 70.5597 23.6694C70.5597 23.3799 70.4606 23.1398 70.2625 22.9561C70.1351 22.8361 69.9865 22.7584 69.8237 22.7231ZM69.293 24.1284H69.1019V23.2457H69.3142C69.5477 23.2457 69.7176 23.281 69.8167 23.3446C69.9157 23.4081 69.9653 23.5211 69.9653 23.6694C69.9653 23.9731 69.7388 24.1284 69.2859 24.1284H69.293ZM72.1448 23.4152C71.7839 23.4152 71.4796 23.5423 71.232 23.7965C70.9772 24.0508 70.8498 24.3544 70.8498 24.7075C70.8498 25.0606 70.9772 25.3643 71.232 25.6185C71.4867 25.8728 71.7839 25.9999 72.1377 25.9999C72.4916 25.9999 72.7959 25.8728 73.0506 25.6185C73.2983 25.3643 73.4257 25.0677 73.4257 24.7075C73.4257 24.3474 73.2983 24.0437 73.0506 23.7965C72.8029 23.5494 72.4986 23.4152 72.1448 23.4152ZM72.6331 25.2443C72.4986 25.3855 72.3359 25.4632 72.1377 25.4632C71.9396 25.4632 71.7698 25.3926 71.6353 25.2443C71.5009 25.096 71.4301 24.9123 71.4301 24.7005C71.4301 24.4886 71.5009 24.3121 71.6424 24.1638C71.7839 24.0155 71.9467 23.9378 72.1377 23.9378C72.3288 23.9378 72.4916 24.0155 72.626 24.1638C72.7605 24.3121 72.8312 24.4957 72.8312 24.7075C72.8312 24.9194 72.7676 25.096 72.6331 25.2443ZM73.8786 22.6878H74.4588V25.901H73.8786V22.6878ZM75.032 23.4929H75.6194V25.901H75.032V23.4929ZM76.8436 24.1496C76.7092 24.2909 76.6455 24.4745 76.6455 24.6934C76.6455 24.9123 76.7163 25.096 76.8507 25.2372C76.9852 25.3784 77.1621 25.4491 77.3673 25.4491C77.5867 25.4491 77.7636 25.3361 77.9051 25.1101H78.5561C78.4429 25.4067 78.2731 25.6327 78.0466 25.7739C77.8273 25.9081 77.6008 25.9787 77.3531 25.9787C76.9993 25.9787 76.695 25.8516 76.4473 25.5974C76.1926 25.3431 76.0723 25.0395 76.0723 24.6793C76.0723 24.3191 76.1997 24.0225 76.4473 23.7753C76.7021 23.5282 76.9993 23.4011 77.3531 23.4011C77.7494 23.4011 78.082 23.5564 78.3438 23.8672C78.4358 23.9801 78.5137 24.1214 78.5632 24.2838H77.9122C77.7777 24.0508 77.5937 23.9236 77.3531 23.9236C77.1479 23.9236 76.9852 23.9943 76.8507 24.1355L76.8436 24.1496ZM80.4597 23.4929H81.1178L79.7309 26.7061H79.1081L79.5539 25.675L78.6694 23.4929H79.3346L79.8795 25.0395L80.4597 23.4929ZM82.703 22.6878H83.3045V25.901H82.703V22.6878ZM86.0573 23.9519C86.1209 24.1002 86.1563 24.3191 86.1563 24.6016V25.901H85.569V24.7075C85.569 24.192 85.4062 23.9378 85.0878 23.9378C84.9958 23.9378 84.9109 23.966 84.8259 24.0225C84.741 24.079 84.6844 24.1496 84.649 24.2344C84.6136 24.3332 84.5924 24.5027 84.5924 24.7499V25.901H84.0121V23.4929H84.55V23.7047C84.7481 23.507 84.9675 23.4081 85.2081 23.4081C85.3921 23.4081 85.5619 23.4576 85.7176 23.5564C85.8733 23.6553 85.9865 23.7895 86.0643 23.9519H86.0573ZM88.1448 24.6228C88.2934 24.7499 88.3713 24.9194 88.3713 25.1383C88.3713 25.3714 88.2864 25.5691 88.1165 25.7315C87.9467 25.901 87.7344 25.9858 87.4938 25.9858C87.331 25.9858 87.1753 25.9434 87.0338 25.8587C86.8923 25.781 86.7932 25.668 86.7225 25.5338C86.6729 25.4349 86.6375 25.3078 86.6234 25.1454H87.2107C87.2673 25.3502 87.3735 25.4561 87.5292 25.4561C87.607 25.4561 87.6636 25.4349 87.7132 25.3855C87.7627 25.3361 87.7839 25.2796 87.7839 25.2089C87.7839 25.1383 87.7556 25.0818 87.699 25.0395C87.6424 24.9971 87.5362 24.9476 87.3735 24.8912C87.1612 24.8205 87.0126 24.7428 86.9206 24.6652C86.772 24.538 86.7012 24.3615 86.7012 24.1567C86.7012 23.9519 86.7791 23.7683 86.9347 23.627C87.0904 23.4858 87.2815 23.4081 87.5079 23.4081C87.7344 23.4081 87.9113 23.4787 88.0599 23.62C88.2085 23.7612 88.2934 23.9378 88.3005 24.1426H87.7344C87.7061 24.0013 87.6353 23.9307 87.5079 23.9307C87.4443 23.9307 87.3947 23.9519 87.3523 23.9872C87.3098 24.0225 87.2886 24.072 87.2886 24.1284C87.2886 24.2273 87.3735 24.2979 87.5362 24.3474L87.699 24.4039C87.9113 24.4745 88.0599 24.5451 88.1448 24.6087V24.6228ZM90.4659 23.4929H91.0462V25.901H90.5155V25.6609C90.4235 25.781 90.3315 25.8657 90.2395 25.9081C90.1475 25.9575 90.0272 25.9787 89.8927 25.9787C89.6167 25.9787 89.3903 25.894 89.1992 25.7174C89.0011 25.5338 88.902 25.2584 88.902 24.8982V23.4858H89.4894V24.7217C89.4894 25.2089 89.6521 25.4491 89.9776 25.4491C90.3032 25.4491 90.473 25.2089 90.473 24.7217V23.4858L90.4659 23.4929ZM92.6738 23.4081C92.6738 23.4081 92.7021 23.4081 92.7162 23.4152V23.9731C92.3695 23.9872 92.1997 24.1779 92.1997 24.5451V25.901H91.6194V23.4929H92.1501V23.7047C92.235 23.5917 92.32 23.507 92.3907 23.4717C92.4686 23.4293 92.5606 23.4081 92.6738 23.4081ZM94.91 23.7965C94.825 23.6835 94.6977 23.5917 94.5491 23.5211C94.4005 23.4505 94.2519 23.4081 94.0962 23.4081C93.7494 23.4081 93.4664 23.5352 93.2328 23.7753C92.9993 24.0225 92.8861 24.3262 92.8861 24.6864C92.8861 25.0465 92.9993 25.3643 93.2187 25.6115C93.438 25.8587 93.7211 25.9858 94.0608 25.9858C94.2094 25.9858 94.3651 25.9505 94.5278 25.8728C94.6906 25.8022 94.818 25.7104 94.9029 25.6044V25.901H95.4336V23.4929H94.9029V23.7965H94.91ZM94.6977 25.2372C94.5632 25.3784 94.3934 25.4561 94.1882 25.4561C93.9829 25.4561 93.8202 25.3855 93.6857 25.2443C93.5513 25.103 93.4805 24.9265 93.4805 24.7146C93.4805 24.5027 93.5513 24.3121 93.6857 24.1638C93.8202 24.0155 93.99 23.9378 94.1952 23.9378C94.4005 23.9378 94.5703 24.0084 94.7048 24.1496C94.8392 24.2909 94.9029 24.4745 94.9029 24.6864C94.9029 24.8982 94.8392 25.0889 94.7048 25.2372H94.6977ZM98.0661 23.9448C98.1298 24.0931 98.1652 24.3121 98.1652 24.5945V25.894H97.5849V24.7005C97.5849 24.1849 97.4221 23.9307 97.1037 23.9307C97.0117 23.9307 96.9268 23.959 96.8419 24.0155C96.764 24.072 96.7003 24.1426 96.6649 24.2273C96.6296 24.3262 96.6083 24.4957 96.6083 24.7428V25.894H96.0281V23.4858H96.5659V23.6977C96.764 23.4999 96.9834 23.4011 97.224 23.4011C97.408 23.4011 97.5778 23.4505 97.7335 23.5494C97.8892 23.6482 98.0024 23.7824 98.0803 23.9448H98.0661ZM99.3894 24.1426C99.2549 24.2838 99.1913 24.4674 99.1913 24.6864C99.1913 24.9053 99.262 25.0889 99.3965 25.2301C99.5309 25.3714 99.7078 25.442 99.9131 25.442C100.132 25.442 100.309 25.329 100.451 25.103H101.102C100.996 25.3996 100.826 25.6256 100.592 25.7668C100.38 25.901 100.147 25.9716 99.8989 25.9716C99.5451 25.9716 99.2408 25.8445 98.9931 25.5903C98.7454 25.3361 98.6181 25.0324 98.6181 24.6722C98.6181 24.3121 98.7454 24.0155 98.9931 23.7683C99.2479 23.5211 99.5451 23.394 99.8989 23.394C100.295 23.394 100.628 23.5494 100.89 23.8601C100.982 23.9731 101.059 24.1143 101.109 24.2768H100.458C100.324 24.0437 100.14 23.9166 99.8989 23.9166C99.6937 23.9166 99.5309 23.9872 99.3965 24.1284L99.3894 24.1426ZM102.546 23.3869C102.192 23.3869 101.894 23.514 101.647 23.7683C101.399 24.0225 101.272 24.3333 101.272 24.6934C101.272 25.0536 101.399 25.3572 101.647 25.6044C101.894 25.8516 102.199 25.9787 102.553 25.9787C102.814 25.9787 103.055 25.901 103.274 25.7386C103.494 25.5832 103.635 25.3784 103.713 25.1313H103.076C102.949 25.3431 102.765 25.4491 102.531 25.4491C102.383 25.4491 102.248 25.3996 102.128 25.3078C102.008 25.2089 101.93 25.0889 101.887 24.9476H103.763C103.784 24.8347 103.798 24.7428 103.798 24.6581C103.798 24.3121 103.678 24.0155 103.43 23.7612C103.182 23.514 102.885 23.3869 102.546 23.3869ZM101.873 24.4816C101.909 24.3121 101.994 24.1708 102.121 24.0649C102.248 23.959 102.39 23.9095 102.56 23.9095C102.73 23.9095 102.871 23.959 102.991 24.0649C103.112 24.1638 103.189 24.305 103.232 24.4816H101.873ZM108.044 24.0013H107.4L107.089 24.538L106.791 24.2061C107.131 24.0155 107.301 23.7542 107.301 23.4152C107.301 23.1892 107.223 22.9985 107.06 22.8502C106.905 22.6948 106.707 22.6242 106.473 22.6242C106.239 22.6242 106.041 22.7019 105.886 22.8573C105.73 23.0126 105.652 23.2104 105.652 23.4505C105.652 23.5705 105.673 23.6765 105.723 23.7683C105.751 23.8248 105.822 23.9166 105.921 24.0366C105.787 24.1143 105.68 24.1849 105.617 24.2556C105.419 24.4462 105.32 24.6793 105.32 24.9476C105.32 25.2301 105.419 25.4702 105.631 25.668C105.836 25.8657 106.084 25.9646 106.381 25.9646C106.692 25.9646 106.968 25.8022 107.202 25.4844L107.641 25.9646L108.065 25.5974L107.492 24.9759L108.044 24.0084V24.0013ZM106.282 23.2386C106.331 23.1892 106.395 23.1609 106.473 23.1609C106.558 23.1609 106.622 23.1892 106.671 23.2316C106.721 23.281 106.742 23.3516 106.742 23.4293C106.742 23.507 106.721 23.5705 106.671 23.627C106.629 23.6765 106.544 23.74 106.416 23.7965C106.268 23.6482 106.19 23.5282 106.19 23.4222C106.19 23.3446 106.218 23.281 106.268 23.2316L106.282 23.2386ZM106.339 25.3996C106.211 25.3996 106.105 25.3573 106.02 25.2725C105.935 25.1948 105.893 25.0889 105.893 24.9688C105.893 24.7711 106.02 24.6157 106.282 24.4886L106.784 25.0395C106.65 25.2796 106.501 25.3996 106.339 25.3996ZM109.714 22.6737H111.356V23.2316H110.316V24.0225H111.313V24.5734H110.316V25.8869H109.714V22.6737ZM111.887 23.4787H112.474V25.8869H111.887V23.4787ZM115.184 23.9378C115.248 24.0861 115.283 24.305 115.283 24.5875V25.8869H114.703V24.6934C114.703 24.1779 114.54 23.9236 114.222 23.9236C114.13 23.9236 114.045 23.9519 113.96 24.0084C113.875 24.0649 113.818 24.1355 113.783 24.2203C113.748 24.3191 113.726 24.4886 113.726 24.7358V25.8869H113.146V23.4787H113.684V23.6906C113.882 23.4929 114.101 23.394 114.342 23.394C114.526 23.394 114.696 23.4434 114.852 23.5423C115.007 23.6412 115.12 23.7753 115.198 23.9378H115.184ZM117.746 23.7824C117.654 23.6694 117.534 23.5776 117.385 23.507C117.236 23.4364 117.088 23.394 116.932 23.394C116.585 23.394 116.302 23.5211 116.069 23.7612C115.835 24.0084 115.722 24.3121 115.722 24.6722C115.722 25.0324 115.835 25.3502 116.055 25.5974C116.274 25.8445 116.557 25.9716 116.897 25.9716C117.045 25.9716 117.201 25.9363 117.364 25.8587C117.527 25.788 117.654 25.6962 117.746 25.5903V25.8869H118.277V23.4787H117.746V23.7824ZM117.534 25.2231C117.399 25.3643 117.229 25.442 117.024 25.442C116.819 25.442 116.656 25.3714 116.522 25.2301C116.38 25.0889 116.316 24.9123 116.316 24.7005C116.316 24.4886 116.387 24.2979 116.522 24.1496C116.656 24.0013 116.826 23.9236 117.031 23.9236C117.236 23.9236 117.406 23.9943 117.541 24.1355C117.675 24.2768 117.739 24.4604 117.739 24.6722C117.739 24.8841 117.675 25.0748 117.541 25.2231H117.534ZM120.902 23.9307C120.966 24.079 121.001 24.2979 121.001 24.5804V25.8798H120.421V24.6864C120.421 24.1708 120.258 23.9166 119.94 23.9166C119.848 23.9166 119.763 23.9448 119.678 24.0013C119.6 24.0578 119.536 24.1285 119.508 24.2132C119.473 24.3121 119.451 24.4816 119.451 24.7287V25.8798H118.864V23.4717H119.402V23.6835C119.6 23.4858 119.819 23.3869 120.06 23.3869C120.244 23.3869 120.414 23.4364 120.569 23.5352C120.725 23.6341 120.838 23.7683 120.916 23.9307H120.902ZM122.126 24.1284C121.992 24.2697 121.928 24.4533 121.928 24.6722C121.928 24.8912 121.999 25.0748 122.133 25.216C122.268 25.3572 122.445 25.4279 122.65 25.4279C122.869 25.4279 123.046 25.3149 123.188 25.0889H123.839C123.733 25.3855 123.556 25.6115 123.329 25.7527C123.117 25.8869 122.883 25.9575 122.636 25.9575C122.282 25.9575 121.978 25.8304 121.73 25.5762C121.475 25.3219 121.355 25.0183 121.355 24.6581C121.355 24.2979 121.482 24.0013 121.73 23.7542C121.985 23.507 122.282 23.3799 122.636 23.3799C123.032 23.3799 123.365 23.5352 123.626 23.846C123.718 23.959 123.796 24.1002 123.846 24.2626H123.195C123.06 24.0296 122.876 23.9025 122.636 23.9025C122.431 23.9025 122.268 23.9731 122.133 24.1143L122.126 24.1284ZM125.381 23.3728C125.035 23.3728 124.73 23.4999 124.483 23.7542C124.235 24.0084 124.108 24.3191 124.108 24.6793C124.108 25.0395 124.235 25.3431 124.483 25.5903C124.73 25.8375 125.035 25.9646 125.389 25.9646C125.65 25.9646 125.891 25.8869 126.11 25.7245C126.33 25.5691 126.478 25.3643 126.549 25.1171H125.912C125.785 25.329 125.601 25.4349 125.367 25.4349C125.219 25.4349 125.084 25.3855 124.964 25.2937C124.844 25.1948 124.766 25.0748 124.723 24.9335H126.599C126.62 24.8205 126.634 24.7287 126.634 24.644C126.634 24.2979 126.514 24.0013 126.266 23.7471C126.018 23.4999 125.728 23.3728 125.381 23.3728ZM124.709 24.4674C124.752 24.2979 124.829 24.1567 124.957 24.0508C125.084 23.9448 125.226 23.8954 125.396 23.8954C125.565 23.8954 125.707 23.9448 125.827 24.0508C125.948 24.1496 126.025 24.2909 126.068 24.4674H124.709ZM129.974 24.2273C130.165 24.4109 130.264 24.6299 130.264 24.9053C130.264 25.1948 130.165 25.4349 129.96 25.6397C129.755 25.8445 129.514 25.9434 129.224 25.9434C128.934 25.9434 128.693 25.8516 128.495 25.668C128.297 25.4844 128.191 25.2513 128.177 24.9688H128.799C128.799 25.096 128.842 25.2019 128.92 25.2796C128.998 25.3572 129.104 25.3996 129.238 25.3996C129.373 25.3996 129.472 25.3643 129.55 25.2866C129.627 25.2089 129.67 25.1171 129.67 24.9971C129.67 24.7923 129.528 24.6299 129.238 24.5239C129.005 24.4392 128.849 24.3756 128.778 24.3403C128.7 24.2979 128.63 24.2485 128.566 24.1779C128.382 24.0013 128.297 23.7824 128.297 23.5282C128.297 23.2739 128.389 23.0621 128.573 22.8855C128.757 22.7019 128.976 22.6172 129.238 22.6172C129.5 22.6172 129.726 22.7019 129.903 22.8785C130.08 23.048 130.179 23.2739 130.193 23.5352H129.578C129.557 23.2951 129.443 23.1751 129.224 23.1751C129.125 23.1751 129.04 23.2104 128.983 23.2669C128.92 23.3304 128.891 23.4081 128.891 23.507C128.891 23.6129 128.927 23.6977 128.998 23.7542C129.068 23.8107 129.21 23.8813 129.429 23.959C129.684 24.0437 129.861 24.1426 129.981 24.2556L129.974 24.2273ZM131.878 23.3728C131.524 23.3728 131.227 23.4999 130.979 23.7542C130.731 24.0084 130.604 24.3191 130.604 24.6793C130.604 25.0395 130.731 25.3431 130.979 25.5903C131.227 25.8375 131.524 25.9646 131.885 25.9646C132.147 25.9646 132.387 25.8869 132.607 25.7245C132.826 25.5691 132.975 25.3643 133.045 25.1171H132.408C132.281 25.329 132.097 25.4349 131.871 25.4349C131.722 25.4349 131.588 25.3855 131.467 25.2937C131.347 25.1948 131.269 25.0748 131.227 24.9335H133.102C133.123 24.8205 133.137 24.7287 133.137 24.644C133.137 24.2979 133.017 24.0013 132.769 23.7471C132.522 23.4999 132.232 23.3728 131.885 23.3728H131.878ZM131.198 24.4674C131.234 24.2979 131.319 24.1567 131.446 24.0508C131.573 23.9448 131.722 23.8954 131.885 23.8954C132.048 23.8954 132.196 23.9448 132.316 24.0508C132.437 24.1496 132.522 24.2909 132.564 24.4674H131.205H131.198ZM134.645 23.3869C134.645 23.3869 134.673 23.3869 134.687 23.394V23.9519C134.34 23.966 134.17 24.1567 134.17 24.5239V25.8798H133.59V23.4717H134.121V23.6835C134.206 23.5705 134.291 23.4858 134.362 23.4505C134.432 23.4081 134.531 23.3869 134.645 23.3869ZM136.718 23.4717H137.355L136.371 25.8798H135.918L134.942 23.4717H135.572L136.159 25.0748L136.718 23.4717ZM137.652 23.4717H138.239V25.8798H137.652V23.4717ZM139.471 24.1284C139.336 24.2697 139.273 24.4533 139.273 24.6722C139.273 24.8912 139.343 25.0748 139.478 25.216C139.612 25.3572 139.789 25.4279 139.994 25.4279C140.2 25.4279 140.391 25.3149 140.532 25.0889H141.183C141.077 25.3855 140.907 25.6115 140.674 25.7527C140.454 25.8869 140.228 25.9575 139.98 25.9575C139.626 25.9575 139.322 25.8304 139.074 25.5762C138.82 25.3219 138.699 25.0183 138.699 24.6581C138.699 24.2979 138.827 24.0013 139.074 23.7542C139.322 23.507 139.626 23.3799 139.98 23.3799C140.377 23.3799 140.709 23.5352 140.971 23.846C141.063 23.959 141.141 24.1002 141.197 24.2626H140.546C140.412 24.0296 140.228 23.9025 139.987 23.9025C139.782 23.9025 139.619 23.9731 139.485 24.1143L139.471 24.1284ZM142.726 23.3728C142.379 23.3728 142.075 23.4999 141.827 23.7542C141.58 24.0084 141.459 24.3191 141.459 24.6793C141.459 25.0395 141.587 25.3431 141.827 25.5903C142.075 25.8375 142.379 25.9646 142.733 25.9646C142.995 25.9646 143.235 25.8869 143.455 25.7245C143.674 25.5691 143.823 25.3643 143.894 25.1171H143.257C143.129 25.329 142.945 25.4349 142.712 25.4349C142.563 25.4349 142.429 25.3855 142.308 25.2937C142.188 25.1948 142.11 25.0748 142.068 24.9335H143.943C143.964 24.8205 143.979 24.7287 143.979 24.644C143.979 24.2979 143.858 24.0013 143.611 23.7471C143.363 23.4999 143.073 23.3728 142.726 23.3728ZM142.047 24.4674C142.082 24.2979 142.167 24.1567 142.294 24.0508C142.422 23.9448 142.563 23.8954 142.733 23.8954C142.903 23.8954 143.044 23.9448 143.165 24.0508C143.285 24.1496 143.363 24.2909 143.405 24.4674H142.047Z" fill="white"/>
</g>
<defs>
<clipPath id="clip0_21_8367">
<rect width="144" height="31.7793" fill="white" transform="translate(0 0.110352)"/>
</clipPath>
</defs>
</svg>
