<svg width="144" height="32" viewBox="0 0 144 32" fill="none" xmlns="http://www.w3.org/2000/svg">
<g clip-path="url(#clip0_21_15983)">
<path d="M10.1549 19.1994L9.87889 18.359H7.86208L7.55779 19.1994H5.96558L8.2796 13.4155H9.4543L11.7542 19.1994H10.1478H10.1549ZM8.87402 15.2093L8.26544 17.1867H9.47553L8.87402 15.2093Z" fill="#35A8E0"/>
<path d="M13.6365 19.1994H12.2212V13.4155H14.1177C14.9527 13.4155 15.5472 13.5568 15.901 13.8463C16.3539 14.2206 16.5803 14.7291 16.5803 15.3788C16.5803 16.0285 16.3751 16.5017 15.9717 16.8759C15.6108 17.2149 15.0518 17.3773 14.2805 17.3773H13.6436V19.1923L13.6365 19.1994ZM13.6365 14.7291V16.085H14.2309C14.8466 16.085 15.1509 15.859 15.1509 15.4141C15.1509 14.9692 14.8253 14.7291 14.1672 14.7291H13.6294H13.6365Z" fill="#35A8E0"/>
<path d="M18.8306 19.1994H17.4153V13.4155H20.5785V14.722H18.8306V15.6825H20.5148V16.9889H18.8306V19.1923V19.1994Z" fill="#35A8E0"/>
<path d="M24.7679 13.9663C24.9094 14.1358 25.0014 14.2982 25.0581 14.4465C25.1076 14.6019 25.143 14.8208 25.1571 15.1033H23.6923C23.6427 14.729 23.4658 14.5454 23.1615 14.5454C23.02 14.5454 22.9068 14.5878 22.8006 14.6725C22.7016 14.7573 22.652 14.8632 22.652 14.9832C22.652 15.2163 22.8148 15.407 23.1474 15.5553L23.855 15.8731C24.3433 16.092 24.6901 16.3321 24.8953 16.5863C25.1005 16.8406 25.2067 17.1584 25.2067 17.5397C25.2067 18.0976 25.0297 18.5284 24.6688 18.8391C24.315 19.1499 23.8197 19.3052 23.1757 19.3052C22.5317 19.3052 22.0152 19.1428 21.6401 18.8109C21.265 18.486 21.074 18.0341 21.074 17.4762V17.2855H22.56C22.56 17.5185 22.6167 17.7092 22.7228 17.8504C22.829 17.9917 22.9776 18.0623 23.1615 18.0623C23.3243 18.0623 23.4588 18.0058 23.572 17.8999C23.6852 17.7939 23.7347 17.6598 23.7347 17.5044C23.7347 17.2572 23.5295 17.0454 23.112 16.8829L22.4397 16.6075C22.1567 16.4875 21.9302 16.3533 21.7392 16.1979C21.35 15.8872 21.1589 15.4847 21.1589 15.0044C21.1589 14.5242 21.357 14.1217 21.7462 13.7898C22.1425 13.4578 22.6167 13.2954 23.1899 13.2954C23.8692 13.2954 24.3858 13.5143 24.7538 13.9522L24.7679 13.9663Z" fill="#35A8E0"/>
<path d="M8.18045 26.4942C8.8598 26.7767 9.53914 27.0239 10.2397 27.2287C6.13534 25.1524 3.31889 20.9011 3.31889 16.0071C3.31889 9.07212 8.97302 3.42952 15.9222 3.42952C22.8713 3.42952 28.5254 9.07212 28.5254 16.0071C28.5254 20.9011 25.709 25.1524 21.6117 27.2287C22.2981 27.0239 22.9704 26.7838 23.6356 26.5084C23.8195 26.4307 24.0035 26.353 24.1875 26.2683C24.23 26.2471 24.2795 26.2259 24.322 26.2047L24.4918 26.127C24.5697 26.0917 24.6475 26.0564 24.7324 26.014C24.7961 25.9787 24.8669 25.9434 24.9376 25.9081L25.1146 25.8163C25.1641 25.788 25.2136 25.7668 25.2632 25.7386C25.3552 25.6892 25.4471 25.6397 25.5391 25.5832L25.6736 25.5056C25.6736 25.5056 25.7444 25.4702 25.7797 25.4491C25.9071 25.3784 26.0274 25.3078 26.1477 25.2301L26.2114 25.1948C26.2114 25.1948 26.2609 25.1666 26.2893 25.1524C26.4237 25.0677 26.5511 24.99 26.6855 24.9053L26.7351 24.87C26.7351 24.87 26.7705 24.8488 26.7846 24.8417C26.9261 24.7499 27.0606 24.6581 27.2021 24.5663L27.2729 24.5169C27.4003 24.4251 27.5418 24.3262 27.7046 24.2132L27.7541 24.1779C27.8956 24.072 28.0371 23.966 28.1928 23.846L28.2211 23.8318C28.3697 23.7188 28.5113 23.5988 28.667 23.4717H28.674C29.502 22.7796 30.1389 22.1511 30.6767 21.233C31.5542 19.7358 31.8585 17.8361 31.8585 16.0071C31.8443 7.23598 24.7041 0.110352 15.9222 0.110352C7.1402 0.110352 0 7.23598 0 16C0 17.8291 0.30429 19.7288 1.18178 21.233C2.7103 23.846 5.39938 25.3219 8.18753 26.4942H8.18045Z" fill="url(#paint0_radial_21_15983)"/>
<path d="M15.9221 31.8895C22.0928 31.8895 27.4568 28.3656 30.0963 23.2314C29.792 23.5139 29.4807 23.7893 29.1622 24.0577H29.1551C28.9924 24.1989 28.8438 24.319 28.6881 24.4391L28.6669 24.4532C28.5041 24.5803 28.3555 24.6933 28.2069 24.8063L28.1574 24.8416C27.9946 24.9617 27.846 25.0605 27.7115 25.1594L27.6408 25.2088C27.4709 25.3289 27.3365 25.4136 27.2091 25.4984C27.1879 25.5125 27.1666 25.5266 27.1454 25.5407L27.103 25.569C26.9685 25.6537 26.827 25.7455 26.6854 25.8303C26.6571 25.8444 26.6288 25.8656 26.6005 25.8797L26.5439 25.915C26.4165 25.9927 26.2892 26.0633 26.1547 26.141C26.1193 26.1622 26.0769 26.1834 26.0344 26.2046L25.907 26.2752C25.808 26.3317 25.716 26.3811 25.6169 26.4376C25.5603 26.4659 25.5107 26.4941 25.4541 26.5224L25.2843 26.6142C25.2135 26.6495 25.1428 26.6848 25.0649 26.7272C24.98 26.7695 24.8951 26.8049 24.8102 26.8472L24.6545 26.9249C24.6049 26.9461 24.5554 26.9743 24.5059 26.9955C24.3148 27.0803 24.1237 27.165 23.9327 27.2427C21.3922 28.3091 18.6961 28.8458 15.915 28.8458C13.1339 28.8458 10.4236 28.302 7.87606 27.2356C5.61866 26.2893 3.53816 24.9334 1.7478 23.2668C4.38734 28.4009 9.75134 31.9178 15.9221 31.9178V31.8895Z" fill="url(#paint1_radial_21_15983)"/>
<path d="M68.1892 10.9929C68.4015 11.3742 68.6987 11.7344 69.095 12.0734C69.5762 12.483 70.1282 12.8008 70.758 13.0338L71.5081 11.8756C71.1543 11.7203 70.8288 11.5367 70.5316 11.3248C70.2343 11.1129 69.9796 10.8799 69.7602 10.6256C69.5479 10.3643 69.3781 10.0819 69.2649 9.76407C69.1516 9.44628 69.088 9.10024 69.088 8.71888V8.41522H71.0552V7.14404H65.4577V8.41522H67.2693V8.71888C67.2693 9.10024 67.2127 9.44628 67.0924 9.76407C66.9721 10.0819 66.8093 10.3643 66.597 10.6256C66.3847 10.8799 66.1229 11.12 65.8328 11.3248C65.5355 11.5367 65.21 11.7203 64.8562 11.8756L65.6063 13.0338C66.2432 12.8008 66.7952 12.483 67.2693 12.0734C67.6656 11.7344 67.9628 11.3742 68.1751 10.9929H68.1892Z" fill="#636362"/>
<path d="M46.981 10.739H50.4061V9.37598H43.9381C43.7895 9.37598 43.6834 9.34774 43.6197 9.30536C43.5772 9.27005 43.556 9.21356 43.5418 9.14294V6.89014H41.4472C41.5958 6.98901 41.709 7.12318 41.7798 7.28561C41.8505 7.44804 41.8859 7.59634 41.8859 7.73758V9.71496C41.8859 10.0257 41.985 10.2799 42.1831 10.4635C42.3813 10.6542 42.6502 10.746 42.9828 10.746H45.3322V11.7912H40.8032V13.2178H51.51V11.7912H46.981V10.746V10.739Z" fill="#636362"/>
<path d="M49.3093 14.4465C48.9413 14.2347 48.5025 14.0722 47.9789 13.9522C47.4552 13.8321 46.8608 13.7686 46.1885 13.7686C45.5162 13.7686 44.9147 13.8251 44.3911 13.9522C43.8603 14.0722 43.4145 14.2347 43.0395 14.4465C42.6715 14.6584 42.3884 14.9055 42.1974 15.188C42.0063 15.4705 41.9072 15.7742 41.9072 16.092C41.9072 16.4098 42.0063 16.7205 42.1974 17.003C42.3884 17.2925 42.6715 17.5326 43.0395 17.7445C43.4074 17.9493 43.8603 18.1188 44.3911 18.2388C44.9147 18.3589 45.5233 18.4225 46.1885 18.4225C46.8537 18.4225 47.4552 18.3589 47.9789 18.2388C48.5025 18.1188 48.9484 17.9564 49.3093 17.7445C49.6772 17.5397 49.9532 17.2925 50.1443 17.003C50.3354 16.7205 50.4344 16.4098 50.4344 16.092C50.4344 15.7742 50.3354 15.4705 50.1443 15.188C49.9532 14.9055 49.6702 14.6584 49.3093 14.4465ZM47.9293 16.9324C47.5118 17.1442 46.9316 17.2502 46.1956 17.2502C45.4596 17.2502 44.8794 17.1442 44.4477 16.9324C44.009 16.7205 43.7896 16.438 43.7896 16.092C43.7896 15.7459 44.009 15.4493 44.4477 15.2445C44.8864 15.0397 45.4667 14.9338 46.1956 14.9338C46.9245 14.9338 47.5118 15.0397 47.9293 15.2445C48.3469 15.4493 48.5521 15.7318 48.5521 16.092C48.5521 16.4521 48.3469 16.7134 47.9293 16.9324Z" fill="#636362"/>
<path d="M60.5467 6.6499C60.6812 6.72759 60.7873 6.84764 60.8651 7.01713C60.943 7.18662 60.9854 7.34198 60.9854 7.48323V9.30524H59.0182C58.9403 9.00863 58.82 8.72615 58.6573 8.45779C58.4945 8.18943 58.2822 7.94932 58.0275 7.75158C57.7727 7.54678 57.4755 7.38436 57.1358 7.2643C56.7961 7.14425 56.4211 7.08069 56.0177 7.08069C55.5295 7.08069 55.0907 7.16543 54.7086 7.32786C54.3264 7.49029 54.0009 7.70921 53.7391 7.97757C53.4702 8.24593 53.272 8.55666 53.1376 8.9027C53.0031 9.24874 52.9324 9.60891 52.9324 9.96907C52.9324 10.3292 53.0031 10.6894 53.1376 11.0425C53.272 11.3886 53.4773 11.6993 53.7391 11.9676C54.008 12.236 54.3264 12.4549 54.7086 12.6244C55.0907 12.7868 55.5224 12.8716 56.0177 12.8716C56.4494 12.8716 56.8386 12.808 57.1854 12.6809C57.5321 12.5538 57.8364 12.3843 58.0911 12.1654C58.3459 11.9465 58.5582 11.6993 58.721 11.4097C58.8837 11.1202 58.9899 10.8165 59.0465 10.5058H60.9784V13.0905H62.6272V6.65696H60.5396L60.5467 6.6499ZM57.4189 10.5835C57.3552 10.7812 57.2561 10.9507 57.1287 11.1061C57.0014 11.2614 56.8457 11.3815 56.6546 11.4733C56.4706 11.5651 56.2583 11.6145 56.0177 11.6145C55.7771 11.6145 55.5648 11.5651 55.3738 11.4733C55.1898 11.3815 55.027 11.2614 54.8996 11.1061C54.7723 10.9578 54.6732 10.7812 54.6095 10.5835C54.5458 10.3928 54.5104 10.188 54.5104 9.97614C54.5104 9.76427 54.5458 9.5736 54.6095 9.37586C54.6732 9.18518 54.7723 9.00863 54.8996 8.85327C55.027 8.6979 55.1827 8.57785 55.3738 8.48604C55.5578 8.39423 55.7771 8.35186 56.0177 8.35186C56.2583 8.35186 56.4706 8.4013 56.6546 8.48604C56.8457 8.57785 57.0014 8.6979 57.1287 8.85327C57.2561 9.00863 57.3552 9.18518 57.4189 9.37586C57.4826 9.5736 57.518 9.77134 57.518 9.97614C57.518 10.1809 57.4826 10.3857 57.4189 10.5835Z" fill="#636362"/>
<path d="M73.4188 14.319C73.0792 14.1072 72.6617 13.9377 72.1663 13.8106C71.671 13.6905 71.1048 13.627 70.475 13.627C69.8452 13.627 69.272 13.6905 68.7767 13.8106C68.2742 13.9306 67.8567 14.1001 67.51 14.319C67.1632 14.5309 66.9014 14.7851 66.7174 15.0817C66.5334 15.3713 66.4414 15.682 66.4414 16.0069C66.4414 16.3317 66.5334 16.6425 66.7174 16.932C66.9014 17.2215 67.1632 17.4687 67.51 17.6806C67.8567 17.8924 68.2813 18.0619 68.7767 18.182C69.2791 18.302 69.8452 18.3656 70.475 18.3656C71.1048 18.3656 71.671 18.302 72.1663 18.182C72.6617 18.0619 73.0792 17.8924 73.4188 17.6806C73.7585 17.4687 74.0204 17.2215 74.2043 16.932C74.3883 16.6425 74.4803 16.3388 74.4803 16.0069C74.4803 15.675 74.3883 15.3713 74.2043 15.0817C74.0204 14.7922 73.7585 14.538 73.4188 14.319ZM72.0602 16.8755C71.678 17.1015 71.1544 17.2145 70.4892 17.2145C69.824 17.2145 69.3003 17.1015 68.9111 16.8755C68.5219 16.6495 68.3238 16.367 68.3238 16.021C68.3238 15.6538 68.5219 15.3572 68.9111 15.1241C69.3003 14.8911 69.824 14.7781 70.4892 14.7781C71.1544 14.7781 71.678 14.8911 72.0602 15.1241C72.4423 15.3572 72.6334 15.6538 72.6334 16.021C72.6334 16.367 72.4423 16.6495 72.0602 16.8755Z" fill="#636362"/>
<path d="M72.6901 7.01713C72.7679 7.18662 72.8103 7.34198 72.8103 7.48323V9.10044H70.9563V10.2939H72.8103V13.1329H74.4521V7.43379C74.4521 7.43379 74.4521 7.40554 74.4521 7.39142V6.6499H73.6171C73.6171 6.6499 73.6171 6.6499 73.6029 6.6499H72.3716C72.5061 6.72759 72.6122 6.84764 72.6901 7.01713Z" fill="#636362"/>
<path d="M61.7779 13.7544H60.5537C60.6811 13.8321 60.7872 13.9521 60.865 14.1146C60.9358 14.2699 60.9712 14.4182 60.9783 14.5524V14.7784H56.2582V13.7544H55.4515C55.4515 13.7544 55.4303 13.7544 55.4161 13.7544H54.1919C54.3193 13.8321 54.4254 13.9521 54.5033 14.1146C54.5811 14.284 54.6236 14.4394 54.6236 14.5807V16.3179V16.9959C54.6236 17.4196 54.7297 17.7303 54.942 17.9281C55.1543 18.1258 55.4232 18.2247 55.7487 18.2247H62.6271V13.7544H61.7991C61.7991 13.7544 61.785 13.7544 61.7779 13.7544ZM60.9853 17.0383H56.6333C56.4847 17.0383 56.3856 17.0029 56.3361 16.9323C56.2865 16.8617 56.2653 16.7487 56.2653 16.6004V15.9789H60.9853V17.0383Z" fill="#636362"/>
<path d="M82.4486 7.27136C82.491 7.45498 82.5194 7.61034 82.5194 7.74452V13.1541H84.0337V10.7883H85.166V13.1894H86.7086V12.8786V6.6499H85.8807C85.8807 6.6499 85.8807 6.6499 85.8736 6.6499H84.7555C84.9041 6.74171 85.0103 6.86883 85.074 7.03125C85.1377 7.20074 85.166 7.34198 85.166 7.4691V9.59478H84.0337V6.86176H82.1655C82.3071 6.95357 82.3991 7.08775 82.4486 7.27136Z" fill="#636362"/>
<path d="M79.4692 11.3109C79.547 11.5015 79.6602 11.6922 79.8159 11.8899C79.9716 12.0806 80.1556 12.2642 80.3608 12.4337C80.566 12.6032 80.7783 12.7586 81.0118 12.8928C81.2454 13.0269 81.4718 13.1329 81.6983 13.2106L82.3351 12.3066C81.6558 11.9676 81.1321 11.558 80.7783 11.0778C80.4174 10.5976 80.2193 10.0044 80.1768 9.29817H82.0662V8.10468H80.1839V7.53265C80.1839 7.53265 80.1839 7.5044 80.1839 7.49734V6.7417H79.5187C79.5187 6.7417 79.5045 6.7417 79.4975 6.7417H78.2025C78.2803 6.78407 78.3369 6.84057 78.3864 6.91119C78.4289 6.98181 78.4643 7.05243 78.4926 7.13717C78.5209 7.21486 78.5351 7.29254 78.5492 7.37022C78.5634 7.44791 78.5704 7.51853 78.5704 7.57502V8.10468H76.7305V9.29817H78.5704C78.528 9.98319 78.3298 10.5764 77.976 11.0707C77.6222 11.5651 77.0914 11.9959 76.3979 12.356L77.2188 13.4083C77.7425 13.1682 78.2095 12.8645 78.6129 12.4973C79.0163 12.1301 79.3064 11.7346 79.4692 11.3109Z" fill="#636362"/>
<path d="M94.4857 13.013H97.2668V7.17969H95.1367C95.4623 7.42686 95.625 7.81527 95.625 8.34493V9.23475H91.3083V7.25031H89.1783C89.5038 7.49748 89.6595 7.88589 89.6595 8.42261V11.7842C89.6595 12.2079 89.7657 12.5186 89.978 12.7163C90.1903 12.9141 90.4592 13.013 90.7776 13.013H92.483V15.1245H88.3857V16.5299H98.6396V15.1245H94.4786V13.013H94.4857ZM91.7188 11.8195C91.5702 11.8195 91.464 11.7912 91.4003 11.7418C91.3437 11.6923 91.3154 11.6005 91.3083 11.4664V10.4212H95.625V11.8195H91.7188Z" fill="#636362"/>
<path d="M102.801 13.3588C103.232 13.3588 103.621 13.2953 103.968 13.1682C104.315 13.041 104.605 12.8645 104.846 12.6456C105.086 12.4266 105.27 12.1653 105.391 11.8758C105.518 11.5792 105.575 11.2685 105.575 10.9295C105.575 10.2445 105.327 9.66537 104.839 9.19927H106.148V8.00578H103.593V6.63574H101.612C101.753 6.72755 101.859 6.86173 101.93 7.03122C102.001 7.20777 102.036 7.34901 102.036 7.46907V7.99872H99.425V9.19221H100.741C100.501 9.4182 100.317 9.67949 100.196 9.96904C100.076 10.2656 100.019 10.5764 100.019 10.9224C100.019 11.2685 100.083 11.5792 100.203 11.8687C100.331 12.1583 100.508 12.4196 100.748 12.6385C100.989 12.8574 101.279 13.034 101.619 13.1611C101.958 13.2882 102.348 13.3518 102.786 13.3518L102.801 13.3588ZM101.874 9.94785C102.093 9.69362 102.404 9.5665 102.801 9.5665C103.197 9.5665 103.515 9.69362 103.735 9.94785C103.954 10.2021 104.06 10.5058 104.06 10.873C104.06 11.2402 103.954 11.5509 103.735 11.7981C103.522 12.0453 103.211 12.1653 102.801 12.1653C102.39 12.1653 102.093 12.0453 101.874 11.7981C101.654 11.5509 101.541 11.2473 101.541 10.873C101.541 10.4987 101.654 10.2021 101.874 9.94785Z" fill="#636362"/>
<path d="M119.841 7.24996L112.63 7.23584V8.42933H118.234L118.22 11.3389H111.052V12.8431H121.751V11.3389H119.862L119.841 7.24996Z" fill="#636362"/>
<path d="M125.106 10.7742C125.445 10.9931 125.863 11.1555 126.358 11.2756C126.854 11.3956 127.42 11.4592 128.057 11.4592C128.693 11.4592 129.26 11.4027 129.755 11.2756C130.25 11.1555 130.668 10.986 131.008 10.7742C131.347 10.5553 131.602 10.3081 131.779 10.0115C131.949 9.71488 132.041 9.40415 132.041 9.0581C132.041 8.71206 131.956 8.40133 131.779 8.11179C131.609 7.81518 131.347 7.56095 131.008 7.34908C130.668 7.13722 130.25 6.96773 129.755 6.84768C129.26 6.72762 128.693 6.66406 128.057 6.66406C127.42 6.66406 126.854 6.72762 126.358 6.84768C125.863 6.96773 125.445 7.13722 125.106 7.34908C124.766 7.56095 124.511 7.82224 124.334 8.11179C124.165 8.40839 124.08 8.71912 124.08 9.0581C124.08 9.39708 124.165 9.71488 124.334 10.0115C124.511 10.3081 124.766 10.5623 125.106 10.7742ZM126.479 8.21772C126.868 8.02704 127.398 7.92817 128.057 7.92817C128.715 7.92817 129.245 8.02704 129.635 8.21772C130.024 8.40839 130.222 8.69088 130.222 9.06517C130.222 9.43946 130.024 9.72194 129.635 9.91261C129.245 10.1033 128.722 10.1951 128.057 10.1951C127.391 10.1951 126.868 10.1033 126.479 9.91261C126.089 9.72194 125.898 9.43946 125.898 9.06517C125.898 8.69088 126.096 8.41546 126.479 8.21772Z" fill="#636362"/>
<path d="M135.282 9.93349C135.409 10.216 135.593 10.4561 135.834 10.6679C136.074 10.8727 136.371 11.0422 136.732 11.1552C137.086 11.2753 137.504 11.3388 137.964 11.3388C138.424 11.3388 138.827 11.2753 139.188 11.1552C139.549 11.0352 139.853 10.8727 140.101 10.6679C140.348 10.4631 140.54 10.216 140.667 9.93349C140.794 9.65101 140.858 9.3544 140.858 9.03661C140.858 8.71882 140.794 8.41515 140.667 8.13266C140.54 7.85724 140.348 7.61007 140.101 7.40527C139.853 7.20047 139.549 7.03098 139.188 6.91799C138.827 6.79793 138.417 6.73438 137.964 6.73438C137.511 6.73438 137.086 6.79793 136.732 6.91799C136.379 7.03804 136.074 7.20047 135.834 7.40527C135.593 7.61007 135.409 7.85018 135.282 8.13266C135.154 8.40808 135.091 8.71175 135.091 9.03661C135.091 9.36146 135.154 9.65101 135.282 9.93349ZM136.973 8.28097C137.199 8.07617 137.539 7.97024 137.978 7.97024C138.417 7.97024 138.742 8.07617 138.976 8.28097C139.209 8.48577 139.322 8.74 139.322 9.04367C139.322 9.34734 139.209 9.60157 138.976 9.80637C138.742 10.0112 138.409 10.11 137.978 10.11C137.546 10.11 137.206 10.0112 136.973 9.80637C136.746 9.60157 136.633 9.34734 136.633 9.04367C136.633 8.74 136.746 8.49283 136.973 8.28097Z" fill="#636362"/>
<path d="M137.744 16.8402C137.681 16.7908 137.652 16.6919 137.652 16.5436V14.9688H136.803C136.803 14.9688 136.803 14.9688 136.789 14.9688H135.565C135.699 15.0464 135.805 15.1665 135.883 15.336C135.961 15.5055 136.003 15.6608 136.003 15.795V16.9391V17.0803C136.003 17.391 136.103 17.6453 136.301 17.8289C136.499 18.0125 136.768 18.1043 137.093 18.1043H143.972V16.9108H138.049C137.9 16.9108 137.794 16.8826 137.73 16.8331L137.744 16.8402Z" fill="#636362"/>
<path d="M137.192 12.9635V14.3547H138.834V12.9635H141.778V11.77H134.588V12.9635H137.192Z" fill="#636362"/>
<path d="M109.226 6.65674H107.138C107.273 6.72736 107.379 6.85448 107.457 7.02397C107.535 7.19346 107.577 7.34882 107.577 7.49006V10.209H105.985V11.4024H107.577V13.5917H109.219V6.6638L109.226 6.65674Z" fill="#636362"/>
<path d="M144 6.65674H141.912C142.047 6.72736 142.153 6.84741 142.231 7.0169C142.309 7.18639 142.351 7.34176 142.351 7.483V13.5423H140.44V14.7357H142.351V15.8162H143.993V6.65674H144Z" fill="#636362"/>
<path d="M109.219 14.1994H108.348C108.271 14.1853 108.186 14.1782 108.101 14.1782H101.173V16.996C101.173 17.4197 101.279 17.7304 101.491 17.9282C101.704 18.1259 101.972 18.2248 102.298 18.2248H109.226V15.2517C109.226 15.2517 109.226 15.2446 109.226 15.2375V14.1923L109.219 14.1994ZM107.577 15.9155V17.0384H103.225C103.076 17.0384 102.97 17.0101 102.907 16.9607C102.843 16.9112 102.815 16.8124 102.815 16.6641V15.3717H107.577V15.9155Z" fill="#636362"/>
<path d="M120.209 13.8745L112.432 13.8957V16.9253C112.432 17.349 112.538 17.6598 112.75 17.8575C112.962 18.0553 113.231 18.1541 113.557 18.1541H120.216V13.8745H120.209ZM114.498 16.9606C114.349 16.9606 114.243 16.9324 114.18 16.883C114.116 16.8335 114.088 16.7346 114.088 16.5863V15.0821H118.567V16.9606H114.498Z" fill="#636362"/>
<path d="M85.1942 13.9451H78.5989V15.1385H85.0668V15.7953V18.3165H86.7086V17.5114H86.7156V13.938H85.1942V13.9451Z" fill="#636362"/>
<path d="M133.194 13.1398V11.9463H122.87V13.1398H125.127V14.3545C125.063 14.3898 125 14.418 124.936 14.4533C124.568 14.6652 124.285 14.9124 124.094 15.1948C123.903 15.4773 123.804 15.781 123.804 16.0988C123.804 16.4166 123.903 16.7273 124.094 17.0098C124.285 17.2993 124.568 17.5394 124.936 17.7513C125.304 17.9561 125.757 18.1256 126.281 18.2457C126.811 18.3657 127.406 18.4293 128.085 18.4293C128.764 18.4293 129.352 18.3657 129.875 18.2457C130.399 18.1256 130.845 17.9632 131.206 17.7513C131.567 17.5465 131.85 17.2993 132.041 17.0098C132.232 16.7273 132.331 16.4166 132.331 16.0988C132.331 15.781 132.232 15.4773 132.041 15.1948C131.85 14.9124 131.567 14.6652 131.206 14.4533C131.135 14.418 131.064 14.3827 130.993 14.3403V13.1398H133.187H133.194ZM129.274 13.1398V13.846C128.906 13.7966 128.51 13.7683 128.085 13.7683C127.66 13.7683 127.236 13.7966 126.854 13.846V13.1327H129.267L129.274 13.1398ZM128.099 14.9406C128.835 14.9406 129.415 15.0465 129.833 15.2513C130.25 15.4561 130.456 15.7386 130.456 16.0988C130.456 16.459 130.243 16.7202 129.833 16.9392C129.415 17.151 128.835 17.257 128.099 17.257C127.363 17.257 126.79 17.151 126.351 16.9392C125.913 16.7273 125.7 16.4448 125.7 16.0988C125.7 15.7527 125.92 15.4561 126.351 15.2513C126.79 15.0465 127.37 14.9406 128.099 14.9406Z" fill="#636362"/>
<path d="M49.9956 22.709H49.4082V23.2316H49.9956V22.709Z" fill="#636362"/>
<path d="M75.6267 22.709H75.0393V23.2316H75.6267V22.709Z" fill="#636362"/>
<path d="M112.481 22.709H111.894V23.2316H112.481V22.709Z" fill="#636362"/>
<path d="M138.247 22.709H137.659V23.2316H138.247V22.709Z" fill="#636362"/>
<path d="M42.4307 22.709L41.0933 25.9222H41.7514L42.1123 25.0889H43.2516L43.5983 25.9222H44.2565L42.9049 22.709H42.4378H42.4307ZM42.3175 24.5381L42.6642 23.5494L43.011 24.5381H42.3175Z" fill="#636362"/>
<path d="M46.613 23.8106C46.4078 23.5563 46.1389 23.4292 45.8063 23.4292C45.4737 23.4292 45.1765 23.5563 44.9288 23.8035C44.6882 24.0507 44.5679 24.3543 44.5679 24.7004C44.5679 25.0464 44.6882 25.3642 44.9358 25.6184C45.1835 25.8727 45.4737 26.0069 45.8133 26.0069C46.1318 26.0069 46.4007 25.8797 46.613 25.6184C46.5988 25.8444 46.521 26.028 46.3865 26.1622C46.245 26.3035 46.0752 26.3741 45.8629 26.3741C45.6223 26.3741 45.4241 26.2893 45.2684 26.1057H44.6103C44.7094 26.3529 44.8651 26.5436 45.0845 26.6848C45.3038 26.8261 45.5515 26.9037 45.8275 26.9037C46.1884 26.9037 46.4856 26.7907 46.7333 26.5648C47.0093 26.3035 47.1508 25.9504 47.1508 25.4913V23.521H46.6201V23.8176L46.613 23.8106ZM46.3582 25.2583C46.2238 25.4066 46.061 25.4772 45.8699 25.4772C45.6718 25.4772 45.502 25.3995 45.3604 25.2583C45.2189 25.11 45.1552 24.9264 45.1552 24.7074C45.1552 24.4885 45.226 24.319 45.3604 24.1707C45.4949 24.0295 45.6647 23.9589 45.8558 23.9589C46.0469 23.9589 46.2167 24.0365 46.3512 24.1848C46.4856 24.3331 46.5564 24.5097 46.5564 24.7216C46.5564 24.9334 46.4927 25.11 46.3582 25.2583Z" fill="#636362"/>
<path d="M48.6368 23.4928C48.5661 23.5351 48.4811 23.6128 48.3962 23.7258V23.5139H47.8655V25.9221H48.4528V24.5662C48.4528 24.199 48.6227 24.0012 48.9694 23.9942V23.4363C48.9694 23.4363 48.9411 23.4292 48.927 23.4292C48.8137 23.4292 48.7147 23.4504 48.6439 23.4928H48.6368Z" fill="#636362"/>
<path d="M49.9956 23.5142H49.4082V25.9223H49.9956V23.5142Z" fill="#636362"/>
<path d="M51.7293 23.9518C51.9699 23.9518 52.1539 24.0718 52.2884 24.312H52.9394C52.8828 24.1425 52.812 24.0012 52.72 23.8953C52.4582 23.5846 52.1256 23.4292 51.7293 23.4292C51.3826 23.4292 51.0783 23.5563 50.8235 23.8035C50.5688 24.0507 50.4485 24.3543 50.4485 24.7074C50.4485 25.0605 50.5759 25.3713 50.8235 25.6255C51.0712 25.8797 51.3755 26.0069 51.7293 26.0069C51.977 26.0069 52.2105 25.9362 52.4228 25.8021C52.6564 25.6538 52.8262 25.4348 52.9323 25.1382H52.2813C52.1468 25.3642 51.9629 25.4772 51.7435 25.4772C51.5241 25.4772 51.3614 25.4066 51.2269 25.2653C51.0924 25.1241 51.0217 24.9405 51.0217 24.7216C51.0217 24.5026 51.0854 24.319 51.2198 24.1778C51.3543 24.0365 51.517 23.9659 51.7223 23.9659L51.7293 23.9518Z" fill="#636362"/>
<path d="M54.8854 24.75C54.8854 25.2373 54.7156 25.4774 54.3901 25.4774C54.0646 25.4774 53.9018 25.2373 53.9018 24.75V23.5142H53.3215V24.9266C53.3215 25.2867 53.4206 25.5622 53.6187 25.7458C53.8098 25.9223 54.0433 26.0071 54.3122 26.0071C54.4538 26.0071 54.567 25.9788 54.6661 25.9365C54.7581 25.887 54.8501 25.8023 54.9421 25.6893V25.9294H55.4728V23.5212H54.8854V24.7571V24.75Z" fill="#636362"/>
<path d="M56.6262 22.709H56.0388V25.9222H56.6262V22.709Z" fill="#636362"/>
<path d="M58.0345 22.709H57.4542V23.5141H57.1711V24.0367H57.4542V25.9222H58.0345V24.0367H58.3812V23.5141H58.0345V22.709Z" fill="#636362"/>
<path d="M60.4265 24.75C60.4265 25.2373 60.2637 25.4774 59.9311 25.4774C59.5985 25.4774 59.4428 25.2373 59.4428 24.75V23.5142H58.8555V24.9266C58.8555 25.2867 58.9545 25.5622 59.1527 25.7458C59.3437 25.9223 59.5773 26.0071 59.8462 26.0071C59.9877 26.0071 60.1009 25.9788 60.1929 25.9365C60.2849 25.887 60.3769 25.8023 60.4689 25.6893V25.9294H60.9997V23.5212H60.4123V24.7571L60.4265 24.75Z" fill="#636362"/>
<path d="M62.3512 23.4928C62.2804 23.5351 62.1955 23.6128 62.1106 23.7258V23.5139H61.5798V25.9221H62.1672V24.5662C62.1672 24.199 62.337 24.0012 62.6838 23.9942V23.4363C62.6838 23.4363 62.6555 23.4292 62.6413 23.4292C62.5281 23.4292 62.429 23.4504 62.3583 23.4928H62.3512Z" fill="#636362"/>
<path d="M64.8774 23.8176C64.7854 23.7046 64.6651 23.6128 64.5165 23.5422C64.3679 23.4716 64.2193 23.4292 64.0636 23.4292C63.7168 23.4292 63.4338 23.5563 63.2003 23.7964C62.9667 24.0436 62.8535 24.3473 62.8535 24.7074C62.8535 25.0676 62.9667 25.3854 63.1861 25.6326C63.4055 25.8797 63.6885 26.0069 64.0282 26.0069C64.1768 26.0069 64.3325 25.9715 64.4953 25.8939C64.658 25.8232 64.7854 25.7314 64.8774 25.6255V25.9221H65.4081V23.5139H64.8774V23.8176ZM64.6651 25.2583C64.5306 25.3995 64.3608 25.4772 64.1556 25.4772C63.9504 25.4772 63.7876 25.4066 63.6461 25.2653C63.5116 25.1241 63.4409 24.9475 63.4409 24.7357C63.4409 24.5238 63.5116 24.3331 63.6461 24.1848C63.7805 24.0365 63.9504 23.9589 64.1556 23.9589C64.3608 23.9589 64.5306 24.0295 64.6651 24.1707C64.7996 24.312 64.8632 24.4956 64.8632 24.7074C64.8632 24.9193 64.7996 25.11 64.6651 25.2583Z" fill="#636362"/>
<path d="M66.5688 22.709H65.9814V25.9222H66.5688V22.709Z" fill="#636362"/>
<path d="M69.8382 22.7372C69.7391 22.716 69.5693 22.709 69.3287 22.709H68.5149V25.9222H69.1164V24.7005H69.3216C69.6471 24.7005 69.8736 24.6722 70.008 24.6228C70.1779 24.5592 70.3123 24.4392 70.4185 24.2626C70.5246 24.0861 70.5742 23.8954 70.5742 23.6836C70.5742 23.394 70.4751 23.1539 70.2769 22.9703C70.1496 22.8502 70.001 22.7725 69.8382 22.7372ZM69.3075 24.1426H69.1164V23.2598H69.3287C69.5622 23.2598 69.7321 23.2951 69.8311 23.3587C69.9302 23.4223 69.9797 23.5352 69.9797 23.6836C69.9797 23.9872 69.7533 24.1426 69.3004 24.1426H69.3075Z" fill="#636362"/>
<path d="M72.1522 23.4292C71.7913 23.4292 71.487 23.5563 71.2393 23.8106C70.9846 24.0648 70.8572 24.3685 70.8572 24.7216C70.8572 25.0747 70.9846 25.3783 71.2393 25.6326C71.4941 25.8868 71.7913 26.0139 72.1451 26.0139C72.4989 26.0139 72.8032 25.8868 73.058 25.6326C73.3127 25.3783 73.433 25.0817 73.433 24.7216C73.433 24.3614 73.3057 24.0577 73.058 23.8106C72.8103 23.5634 72.506 23.4292 72.1522 23.4292ZM72.6405 25.2583C72.506 25.3995 72.3432 25.4772 72.1451 25.4772C71.947 25.4772 71.7771 25.4066 71.6427 25.2583C71.5082 25.11 71.4375 24.9264 71.4375 24.7145C71.4375 24.5026 71.5082 24.3261 71.6497 24.1778C71.7913 24.0295 71.954 23.9518 72.1451 23.9518C72.3362 23.9518 72.4989 24.0295 72.6334 24.1778C72.7678 24.3261 72.8386 24.5097 72.8386 24.7216C72.8386 24.9334 72.7749 25.11 72.6405 25.2583Z" fill="#636362"/>
<path d="M74.4733 22.709H73.886V25.9222H74.4733V22.709Z" fill="#636362"/>
<path d="M75.6267 23.5142H75.0393V25.9223H75.6267V23.5142Z" fill="#636362"/>
<path d="M77.3604 23.9518C77.601 23.9518 77.785 24.0718 77.9195 24.312H78.5705C78.5139 24.1425 78.4431 24.0012 78.3511 23.8953C78.0893 23.5846 77.7638 23.4292 77.3604 23.4292C77.0066 23.4292 76.7094 23.5563 76.4546 23.8035C76.1999 24.0507 76.0796 24.3543 76.0796 24.7074C76.0796 25.0605 76.207 25.3713 76.4546 25.6255C76.7094 25.8797 77.0066 26.0069 77.3604 26.0069C77.6081 26.0069 77.8416 25.9362 78.0539 25.8021C78.2875 25.6538 78.4573 25.4348 78.5634 25.1382H77.9124C77.7709 25.3642 77.594 25.4772 77.3746 25.4772C77.1694 25.4772 76.9925 25.4066 76.858 25.2653C76.7236 25.1241 76.6528 24.9405 76.6528 24.7216C76.6528 24.5026 76.7165 24.319 76.8509 24.1778C76.9854 24.0365 77.1481 23.9659 77.3534 23.9659L77.3604 23.9518Z" fill="#636362"/>
<path d="M79.8868 25.0608L79.342 23.5142H78.6768L79.5613 25.6963L79.1155 26.7274H79.7382L81.1323 23.5142H80.4671L79.8868 25.0608Z" fill="#636362"/>
<path d="M83.3117 22.709H82.7102V25.9222H83.3117V22.709Z" fill="#636362"/>
<path d="M85.7179 23.5775C85.5622 23.4786 85.3924 23.4292 85.2084 23.4292C84.9678 23.4292 84.7484 23.5281 84.5503 23.7258V23.5139H84.0125V25.9221H84.5927V24.771C84.5927 24.5238 84.614 24.3543 84.6493 24.2555C84.6847 24.1707 84.7413 24.093 84.8263 24.0436C84.9041 23.9871 84.9961 23.9589 85.0881 23.9589C85.4065 23.9589 85.5693 24.2131 85.5693 24.7286V25.9221H86.1566V24.6227C86.1566 24.3331 86.1212 24.1213 86.0576 23.973C85.9868 23.8106 85.8665 23.6764 85.7108 23.5775H85.7179Z" fill="#636362"/>
<path d="M87.7062 24.4323L87.5435 24.3758C87.3807 24.3263 87.2958 24.2487 87.2958 24.1569C87.2958 24.1004 87.317 24.0509 87.3595 24.0156C87.402 23.9732 87.4515 23.9591 87.5152 23.9591C87.6426 23.9591 87.7133 24.0297 87.7416 24.171H88.3078C88.3007 23.9591 88.2158 23.7896 88.0671 23.6484C87.9185 23.5071 87.7346 23.4365 87.5152 23.4365C87.2958 23.4365 87.0977 23.5142 86.942 23.6554C86.7863 23.7967 86.7085 23.9803 86.7085 24.1851C86.7085 24.3899 86.7792 24.5665 86.9278 24.6936C87.0127 24.7713 87.1684 24.8489 87.3807 24.9196C87.5435 24.9761 87.6496 25.0184 87.7062 25.0679C87.7629 25.1102 87.7912 25.1667 87.7912 25.2374C87.7912 25.308 87.7699 25.3645 87.7204 25.4139C87.6709 25.4633 87.6072 25.4845 87.5364 25.4845C87.3807 25.4845 87.2746 25.3786 87.218 25.1738H86.6306C86.6448 25.3362 86.6802 25.4633 86.7297 25.5622C86.8005 25.6964 86.8995 25.8094 87.0411 25.8871C87.1826 25.9718 87.3312 26.0142 87.501 26.0142C87.7487 26.0142 87.9539 25.9294 88.1238 25.7599C88.2936 25.5975 88.3785 25.3998 88.3785 25.1667C88.3785 24.9478 88.3078 24.7783 88.1521 24.6512C88.0742 24.5806 87.9256 24.517 87.7062 24.4464V24.4323Z" fill="#636362"/>
<path d="M90.4733 24.75C90.4733 25.2373 90.3035 25.4774 89.978 25.4774C89.6525 25.4774 89.4897 25.2373 89.4897 24.75V23.5142H88.9023V24.9266C88.9023 25.2867 89.0014 25.5622 89.1996 25.7458C89.3906 25.9223 89.6241 26.0071 89.8931 26.0071C90.0346 26.0071 90.1478 25.9788 90.2398 25.9365C90.3318 25.887 90.4238 25.8023 90.5158 25.6893V25.9294H91.0465V23.5212H90.4663V24.7571L90.4733 24.75Z" fill="#636362"/>
<path d="M92.3981 23.4928C92.3273 23.5351 92.2424 23.6128 92.1574 23.7258V23.5139H91.6267V25.9221H92.207V24.5662C92.207 24.199 92.3839 24.0012 92.7236 23.9942V23.4363C92.7236 23.4363 92.6953 23.4292 92.6811 23.4292C92.5679 23.4292 92.4688 23.4504 92.3981 23.4928Z" fill="#636362"/>
<path d="M94.9172 23.8176C94.8323 23.7046 94.7049 23.6128 94.5563 23.5422C94.4077 23.4716 94.2591 23.4292 94.1034 23.4292C93.7566 23.4292 93.4736 23.5563 93.2401 23.7964C93.0065 24.0436 92.8933 24.3473 92.8933 24.7074C92.8933 25.0676 93.0065 25.3854 93.2259 25.6326C93.4453 25.8797 93.7283 26.0069 94.068 26.0069C94.2166 26.0069 94.3723 25.9715 94.5351 25.8939C94.6978 25.8232 94.8252 25.7314 94.9101 25.6255V25.9221H95.4408V23.5139H94.9101V23.8176H94.9172ZM94.7049 25.2583C94.5704 25.3995 94.4006 25.4772 94.1954 25.4772C93.9902 25.4772 93.8274 25.4066 93.6929 25.2653C93.5585 25.1241 93.4877 24.9475 93.4877 24.7357C93.4877 24.5238 93.5585 24.3331 93.6929 24.1848C93.8274 24.0365 93.9972 23.9589 94.2025 23.9589C94.4077 23.9589 94.5775 24.0295 94.712 24.1707C94.8464 24.312 94.9101 24.4956 94.9101 24.7074C94.9101 24.9193 94.8464 25.11 94.712 25.2583H94.7049Z" fill="#636362"/>
<path d="M97.7267 23.5775C97.571 23.4786 97.4012 23.4292 97.2172 23.4292C96.9766 23.4292 96.7572 23.5281 96.5591 23.7258V23.5139H96.0212V25.9221H96.6015V24.771C96.6015 24.5238 96.6227 24.3543 96.6581 24.2555C96.6935 24.1707 96.7501 24.093 96.835 24.0436C96.9129 23.9871 97.0049 23.9589 97.0969 23.9589C97.4153 23.9589 97.5781 24.2131 97.5781 24.7286V25.9221H98.1584V24.6227C98.1584 24.3331 98.13 24.1213 98.0593 23.973C97.9885 23.8106 97.8682 23.6764 97.7125 23.5775H97.7267Z" fill="#636362"/>
<path d="M99.8993 23.9518C100.14 23.9518 100.324 24.0718 100.458 24.312H101.109C101.053 24.1425 100.982 24.0012 100.89 23.8953C100.628 23.5846 100.296 23.4292 99.8993 23.4292C99.5454 23.4292 99.2482 23.5563 98.9935 23.8035C98.7458 24.0507 98.6184 24.3543 98.6184 24.7074C98.6184 25.0605 98.7458 25.3713 98.9935 25.6255C99.2482 25.8797 99.5454 26.0069 99.8993 26.0069C100.147 26.0069 100.38 25.9362 100.593 25.8021C100.826 25.6538 100.996 25.4348 101.102 25.1382H100.451C100.31 25.3642 100.133 25.4772 99.9134 25.4772C99.7011 25.4772 99.5313 25.4066 99.3968 25.2653C99.2624 25.1241 99.1916 24.9405 99.1916 24.7216C99.1916 24.5026 99.2553 24.319 99.3897 24.1778C99.5171 24.0365 99.687 23.9659 99.8922 23.9659L99.8993 23.9518Z" fill="#636362"/>
<path d="M102.553 23.415C102.199 23.415 101.902 23.5422 101.654 23.7964C101.406 24.0506 101.279 24.3614 101.279 24.7215C101.279 25.0817 101.406 25.3854 101.654 25.6325C101.902 25.8797 102.206 26.0068 102.56 26.0068C102.822 26.0068 103.062 25.9291 103.282 25.7667C103.501 25.6113 103.643 25.4065 103.72 25.1594H103.084C102.956 25.3712 102.772 25.4772 102.539 25.4772C102.39 25.4772 102.256 25.4277 102.135 25.3359C102.015 25.2371 101.937 25.117 101.895 24.9758H103.77C103.791 24.8628 103.805 24.771 103.805 24.6862C103.805 24.3402 103.685 24.0436 103.437 23.7893C103.19 23.5422 102.893 23.415 102.553 23.415ZM101.881 24.5097C101.916 24.3402 102.001 24.1989 102.128 24.093C102.256 23.9871 102.397 23.9376 102.567 23.9376C102.737 23.9376 102.878 23.9871 102.999 24.093C103.119 24.1919 103.197 24.3331 103.239 24.5097H101.881Z" fill="#636362"/>
<path d="M108.051 24.0294H107.407L107.096 24.5662L106.799 24.2342C107.138 24.0436 107.308 23.7823 107.308 23.4433C107.308 23.2173 107.23 23.0266 107.068 22.8783C106.912 22.723 106.714 22.6523 106.48 22.6523C106.247 22.6523 106.049 22.73 105.893 22.8854C105.737 23.0408 105.66 23.2385 105.66 23.4786C105.66 23.5987 105.681 23.7046 105.73 23.7964C105.759 23.8529 105.829 23.9447 105.928 24.0648C105.794 24.1424 105.688 24.2131 105.624 24.2837C105.426 24.4744 105.327 24.7074 105.327 24.9758C105.327 25.2582 105.426 25.4984 105.638 25.6961C105.843 25.8938 106.091 25.9927 106.388 25.9927C106.7 25.9927 106.976 25.8303 107.209 25.5125L107.648 25.9927L108.073 25.6255L107.499 25.004L108.051 24.0365V24.0294ZM106.289 23.2667C106.339 23.2173 106.403 23.1891 106.48 23.1891C106.565 23.1891 106.629 23.2173 106.679 23.2597C106.728 23.3091 106.749 23.3797 106.749 23.4574C106.749 23.5351 106.728 23.5987 106.679 23.6552C106.636 23.7046 106.551 23.7682 106.424 23.8246C106.275 23.6763 106.197 23.5563 106.197 23.4504C106.197 23.3727 106.226 23.3091 106.275 23.2597L106.289 23.2667ZM106.346 25.4277C106.219 25.4277 106.112 25.3854 106.027 25.3006C105.943 25.2229 105.9 25.117 105.9 24.997C105.9 24.7992 106.027 24.6438 106.289 24.5167L106.792 25.0676C106.657 25.3077 106.509 25.4277 106.346 25.4277Z" fill="#636362"/>
<path d="M109.729 25.9222H110.33V24.6087H111.321V24.0508H110.33V23.2598H111.37V22.709H109.729V25.9222Z" fill="#636362"/>
<path d="M112.481 23.5142H111.894V25.9223H112.481V23.5142Z" fill="#636362"/>
<path d="M114.852 23.5775C114.696 23.4786 114.526 23.4292 114.342 23.4292C114.102 23.4292 113.882 23.5281 113.684 23.7258V23.5139H113.146V25.9221H113.727V24.771C113.727 24.5238 113.748 24.3543 113.783 24.2555C113.819 24.1707 113.875 24.093 113.96 24.0436C114.045 23.9871 114.13 23.9589 114.222 23.9589C114.541 23.9589 114.703 24.2131 114.703 24.7286V25.9221H115.284V24.6227C115.284 24.3331 115.248 24.1213 115.185 23.973C115.107 23.8106 114.993 23.6764 114.838 23.5775H114.852Z" fill="#636362"/>
<path d="M117.76 23.8176C117.668 23.7046 117.548 23.6128 117.399 23.5422C117.251 23.4716 117.102 23.4292 116.946 23.4292C116.6 23.4292 116.317 23.5563 116.083 23.7964C115.85 24.0436 115.736 24.3473 115.736 24.7074C115.736 25.0676 115.85 25.3854 116.069 25.6326C116.288 25.8797 116.571 26.0069 116.911 26.0069C117.06 26.0069 117.215 25.9715 117.378 25.8939C117.541 25.8232 117.668 25.7314 117.76 25.6255V25.9221H118.291V23.5139H117.76V23.8176ZM117.548 25.2583C117.413 25.3995 117.244 25.4772 117.038 25.4772C116.833 25.4772 116.67 25.4066 116.536 25.2653C116.394 25.1241 116.331 24.9475 116.331 24.7357C116.331 24.5238 116.402 24.3331 116.536 24.1848C116.67 24.0365 116.84 23.9589 117.045 23.9589C117.251 23.9589 117.421 24.0295 117.555 24.1707C117.689 24.312 117.753 24.4956 117.753 24.7074C117.753 24.9193 117.689 25.11 117.555 25.2583H117.548Z" fill="#636362"/>
<path d="M120.57 23.5775C120.414 23.4786 120.244 23.4292 120.06 23.4292C119.82 23.4292 119.6 23.5281 119.402 23.7258V23.5139H118.864V25.9221H119.452V24.771C119.452 24.5238 119.473 24.3543 119.508 24.2555C119.544 24.1707 119.6 24.093 119.678 24.0436C119.763 23.9871 119.848 23.9589 119.94 23.9589C120.258 23.9589 120.421 24.2131 120.421 24.7286V25.9221H121.001V24.6227C121.001 24.3331 120.973 24.1213 120.902 23.973C120.832 23.8106 120.711 23.6764 120.556 23.5775H120.57Z" fill="#636362"/>
<path d="M122.643 23.9518C122.884 23.9518 123.068 24.0718 123.202 24.312H123.853C123.797 24.1425 123.726 24.0012 123.634 23.8953C123.372 23.5846 123.039 23.4292 122.643 23.4292C122.289 23.4292 121.992 23.5563 121.737 23.8035C121.483 24.0507 121.362 24.3543 121.362 24.7074C121.362 25.0605 121.49 25.3713 121.737 25.6255C121.992 25.8797 122.289 26.0069 122.643 26.0069C122.891 26.0069 123.124 25.9362 123.337 25.8021C123.57 25.6538 123.74 25.4348 123.846 25.1382H123.195C123.061 25.3642 122.877 25.4772 122.657 25.4772C122.452 25.4772 122.275 25.4066 122.141 25.2653C122.006 25.1241 121.936 24.9405 121.936 24.7216C121.936 24.5026 121.999 24.319 122.134 24.1778C122.268 24.0365 122.431 23.9659 122.636 23.9659L122.643 23.9518Z" fill="#636362"/>
<path d="M125.396 23.415C125.049 23.415 124.745 23.5422 124.497 23.7964C124.249 24.0506 124.122 24.3614 124.122 24.7215C124.122 25.0817 124.249 25.3854 124.497 25.6325C124.745 25.8797 125.049 26.0068 125.403 26.0068C125.665 26.0068 125.905 25.9291 126.125 25.7667C126.344 25.6113 126.493 25.4065 126.563 25.1594H125.927C125.799 25.3712 125.615 25.4772 125.382 25.4772C125.233 25.4772 125.099 25.4277 124.978 25.3359C124.858 25.2371 124.78 25.117 124.738 24.9758H126.613C126.634 24.8628 126.648 24.771 126.648 24.6862C126.648 24.3402 126.528 24.0436 126.28 23.7893C126.033 23.5351 125.743 23.415 125.396 23.415ZM124.724 24.5097C124.766 24.3402 124.844 24.1989 124.971 24.093C125.099 23.9871 125.24 23.9376 125.41 23.9376C125.58 23.9376 125.721 23.9871 125.842 24.093C125.962 24.1919 126.04 24.3331 126.082 24.5097H124.724Z" fill="#636362"/>
<path d="M129.43 23.9731C129.21 23.8955 129.069 23.8319 128.998 23.7683C128.927 23.7118 128.892 23.6271 128.892 23.5212C128.892 23.4223 128.92 23.3446 128.984 23.2811C129.047 23.2246 129.125 23.1893 129.224 23.1893C129.437 23.1893 129.557 23.3093 129.578 23.5494H130.194C130.18 23.2881 130.081 23.0692 129.904 22.8926C129.727 22.7161 129.5 22.6313 129.238 22.6313C128.977 22.6313 128.757 22.7232 128.573 22.8997C128.389 23.0833 128.297 23.2952 128.297 23.5424C128.297 23.7895 128.389 24.0155 128.566 24.1921C128.63 24.2627 128.708 24.3121 128.778 24.3545C128.849 24.3898 129.005 24.4534 129.238 24.5381C129.529 24.644 129.67 24.7994 129.67 25.0113C129.67 25.1313 129.628 25.2302 129.55 25.3008C129.472 25.3785 129.366 25.4138 129.238 25.4138C129.111 25.4138 128.998 25.3714 128.92 25.2937C128.842 25.2161 128.8 25.1101 128.8 24.983H128.177C128.191 25.2655 128.297 25.4985 128.495 25.6822C128.694 25.8658 128.934 25.9576 129.224 25.9576C129.514 25.9576 129.762 25.8587 129.96 25.6539C130.165 25.4491 130.265 25.2019 130.265 24.9195C130.265 24.6511 130.165 24.4251 129.974 24.2415C129.861 24.1356 129.677 24.0367 129.422 23.9449L129.43 23.9731Z" fill="#636362"/>
<path d="M131.885 23.415C131.531 23.415 131.234 23.5422 130.986 23.7964C130.739 24.0506 130.611 24.3614 130.611 24.7215C130.611 25.0817 130.739 25.3854 130.986 25.6325C131.234 25.8797 131.531 26.0068 131.892 26.0068C132.154 26.0068 132.395 25.9291 132.614 25.7667C132.833 25.6113 132.982 25.4065 133.053 25.1594H132.416C132.288 25.3712 132.104 25.4772 131.878 25.4772C131.729 25.4772 131.595 25.4277 131.475 25.3359C131.354 25.2371 131.277 25.117 131.234 24.9758H133.109C133.131 24.8628 133.145 24.771 133.145 24.6862C133.145 24.3402 133.024 24.0436 132.777 23.7893C132.529 23.5422 132.239 23.415 131.892 23.415H131.885ZM131.206 24.5097C131.241 24.3402 131.326 24.1989 131.453 24.093C131.581 23.9871 131.729 23.9376 131.892 23.9376C132.055 23.9376 132.204 23.9871 132.324 24.093C132.444 24.1919 132.529 24.3331 132.572 24.5097H131.213H131.206Z" fill="#636362"/>
<path d="M134.369 23.4928C134.291 23.5351 134.213 23.6128 134.128 23.7258V23.5139H133.597V25.9221H134.178V24.5662C134.178 24.199 134.348 24.0012 134.694 23.9942V23.4363C134.694 23.4363 134.666 23.4292 134.652 23.4292C134.539 23.4292 134.44 23.4504 134.369 23.4928Z" fill="#636362"/>
<path d="M136.173 25.1102L135.586 23.5142H134.956L135.933 25.9223H136.386L137.369 23.5142H136.732L136.173 25.1102Z" fill="#636362"/>
<path d="M138.247 23.5142H137.659V25.9223H138.247V23.5142Z" fill="#636362"/>
<path d="M139.981 23.9518C140.221 23.9518 140.405 24.0718 140.54 24.312H141.191C141.134 24.1425 141.063 24.0012 140.964 23.8953C140.702 23.5846 140.377 23.4292 139.973 23.4292C139.62 23.4292 139.322 23.5563 139.068 23.8035C138.813 24.0507 138.693 24.3543 138.693 24.7074C138.693 25.0605 138.82 25.3713 139.068 25.6255C139.315 25.8797 139.62 26.0069 139.973 26.0069C140.221 26.0069 140.455 25.9362 140.667 25.8021C140.901 25.6538 141.07 25.4348 141.176 25.1382H140.525C140.384 25.3642 140.207 25.4772 139.988 25.4772C139.768 25.4772 139.605 25.4066 139.471 25.2653C139.337 25.1241 139.266 24.9405 139.266 24.7216C139.266 24.5026 139.33 24.319 139.464 24.1778C139.598 24.0365 139.761 23.9659 139.966 23.9659L139.981 23.9518Z" fill="#636362"/>
<path d="M143.986 24.6794C143.986 24.3333 143.865 24.0367 143.618 23.7825C143.37 23.5353 143.08 23.4082 142.733 23.4082C142.386 23.4082 142.082 23.5353 141.835 23.7896C141.587 24.0438 141.467 24.3545 141.467 24.7147C141.467 25.0749 141.594 25.3785 141.835 25.6257C142.082 25.8729 142.386 26 142.74 26C143.002 26 143.243 25.9223 143.462 25.7599C143.681 25.6045 143.83 25.3997 143.901 25.1525H143.264C143.137 25.3644 142.953 25.4703 142.719 25.4703C142.57 25.4703 142.436 25.4209 142.316 25.3291C142.195 25.2302 142.118 25.1102 142.075 24.9689H143.95C143.972 24.8559 143.986 24.7641 143.986 24.6794ZM142.061 24.5028C142.096 24.3333 142.181 24.1921 142.309 24.0862C142.436 23.9802 142.578 23.9308 142.747 23.9308C142.917 23.9308 143.059 23.9802 143.179 24.0862C143.299 24.185 143.377 24.3263 143.42 24.5028H142.061Z" fill="#636362"/>
</g>
<defs>
<radialGradient id="paint0_radial_21_15983" cx="0" cy="0" r="1" gradientUnits="userSpaceOnUse" gradientTransform="translate(15.9222 17.4689) scale(17.3092 17.2738)">
<stop stop-color="#C7E0F6"/>
<stop offset="0.39" stop-color="#50BBEC"/>
<stop offset="0.66" stop-color="#4EB9EA"/>
<stop offset="0.76" stop-color="#49B2E5"/>
<stop offset="0.82" stop-color="#41A6DD"/>
<stop offset="0.88" stop-color="#3595D0"/>
<stop offset="0.93" stop-color="#257FC0"/>
<stop offset="0.97" stop-color="#1265AD"/>
<stop offset="1" stop-color="#004C9B"/>
</radialGradient>
<radialGradient id="paint1_radial_21_15983" cx="0" cy="0" r="1" gradientUnits="userSpaceOnUse" gradientTransform="translate(16.2193 41.8343) scale(13.6294 7.48085)">
<stop stop-color="#88BC24"/>
<stop offset="0.4" stop-color="#85BA24"/>
<stop offset="0.57" stop-color="#7EB526"/>
<stop offset="0.7" stop-color="#72AB28"/>
<stop offset="0.81" stop-color="#609E2C"/>
<stop offset="0.9" stop-color="#498D31"/>
<stop offset="0.98" stop-color="#2C7837"/>
<stop offset="1" stop-color="#277439"/>
</radialGradient>
<clipPath id="clip0_21_15983">
<rect width="144" height="31.7793" fill="white" transform="translate(0 0.110352)"/>
</clipPath>
</defs>
</svg>
