<svg width="174" height="21" viewBox="0 0 174 21" fill="none" xmlns="http://www.w3.org/2000/svg">
<g clip-path="url(#clip0_21_20085)">
<path d="M10.2752 10.7026L16.0552 19.7926H12.2952C11.7852 19.7926 11.6152 19.8126 11.3352 19.4926C11.0352 19.1526 10.7852 18.7926 10.4752 18.3426L5.03521 10.4126V19.7926H0.845215V0.76256H5.04521V9.60256L10.0852 2.19256C10.2052 2.01256 10.3552 1.83256 10.5252 1.66256C10.6952 1.49256 10.8752 1.34256 11.0652 1.20256C11.2552 1.07256 11.4652 0.96256 11.6752 0.88256C11.8852 0.80256 12.0952 0.76256 12.3152 0.76256H16.0752L10.2652 9.32256C10.2652 9.32256 10.2152 9.40256 10.1852 9.43256C10.0052 9.68256 9.75521 10.0226 10.2752 10.6926V10.7026ZM55.2052 3.72256C55.2052 4.17256 55.5852 4.53256 56.0452 4.53256H60.7652V19.7826H64.9652V4.54256H69.7952C70.1952 4.54256 70.5152 4.23256 70.5152 3.84256V0.75256H55.2052V3.72256ZM54.7052 9.41256C54.2952 4.54256 50.0952 0.72256 45.0152 0.72256C42.6352 0.72256 40.7352 1.30256 38.9552 3.09256C38.1652 3.88256 36.8652 6.08256 37.6952 8.31256C37.9152 8.91256 38.1552 9.21256 38.4052 9.34256C38.8052 9.54256 39.2952 9.27256 39.3752 8.83256C39.4952 8.22256 39.8352 7.03256 40.7252 6.10256C41.5552 5.23256 42.5552 4.72256 43.6552 4.51256C47.3052 3.80256 50.7952 6.30256 50.9752 9.94256C51.1352 13.2926 48.4152 16.0626 45.0352 16.0626C43.2652 16.0626 41.6652 15.3126 40.5852 14.4126C40.1252 14.0326 39.5452 13.3726 39.1252 12.8426L36.5252 9.52256L32.6352 4.43256C30.6352 2.03256 27.5552 0.44256 24.0452 0.76256C19.3252 1.19256 15.5452 5.02256 15.2652 9.68256C14.9352 15.2026 19.3952 19.7926 24.9452 19.7926C27.3152 19.7926 29.4852 18.9826 31.3452 17.3826C31.3952 17.3426 31.6252 17.1326 31.5352 16.8426C31.4752 16.6626 31.4052 16.4726 31.3352 16.2926C31.3352 16.2926 30.4752 14.3426 29.6852 13.3926C28.7752 12.3126 28.0252 11.6026 26.7152 10.9226C26.6352 10.8826 26.5852 10.7926 26.6152 10.7126C26.6352 10.6626 26.7352 10.6626 26.8252 10.6826C27.6952 10.9226 28.6352 11.2626 29.7952 12.4226C30.5552 13.1826 31.4352 14.6126 32.0452 15.9026C32.1152 16.0426 32.3352 16.0026 32.3452 15.8426C32.5152 13.3026 31.6052 11.5326 30.1952 10.4726C28.6452 9.31256 26.4252 9.10256 24.2552 9.56256C23.5452 9.71256 23.4852 10.1426 24.1052 10.5226C26.6252 12.0726 26.6552 14.3726 27.4552 15.5126C27.3552 15.6226 27.2052 15.6726 27.1452 15.7026C26.3552 16.0126 25.4752 16.1726 24.5652 16.1126C21.5852 15.9326 19.1652 13.5126 19.0252 10.5726C18.8652 7.22256 21.5752 4.45256 24.9452 4.45256C26.7852 4.45256 28.4352 5.28256 29.5252 6.57256L34.2552 12.2426L37.3352 16.0826C39.3452 18.4826 42.4352 20.0626 45.9552 19.7426C48.3252 19.5226 50.4452 18.4526 52.0252 16.8626C52.1652 16.7226 52.3952 16.7526 52.4952 16.9226C52.7152 17.3426 52.9352 17.6826 53.1552 17.9426C53.5952 18.4626 54.0052 18.8626 54.3952 19.1526C54.8752 19.4926 55.2952 19.6826 55.6752 19.7426C56.0552 19.8026 56.3752 19.8026 56.6352 19.7426C57.1952 19.6026 57.4652 18.9526 57.1452 18.4726C56.3452 17.2526 55.2252 15.3126 54.7352 9.40256L54.7052 9.41256ZM81.5652 12.5026H74.4552V10.2926C74.4552 10.2326 74.4052 10.1726 74.3352 10.1726H73.2852C73.2252 10.1726 73.1652 10.2226 73.1652 10.2926V12.8026C73.1652 13.1026 73.2252 13.3126 73.3552 13.4426C73.4852 13.5926 73.6952 13.6626 73.9952 13.6626H81.5552C81.6252 13.6626 81.6752 13.6126 81.6752 13.5426V12.6226C81.6752 12.5626 81.6252 12.5026 81.5552 12.5026H81.5652ZM78.4352 6.82256C78.5552 7.09256 78.6252 7.38256 78.6252 7.68256C78.6252 7.98256 78.5652 8.29256 78.4352 8.54256C78.3052 8.81256 78.1252 9.04256 77.8752 9.21256C77.6552 9.39256 77.3552 9.54256 76.9552 9.64256C76.5852 9.75256 76.1552 9.80256 75.6452 9.80256C75.1352 9.80256 74.6852 9.75256 74.3452 9.64256C73.9552 9.54256 73.6652 9.40256 73.4252 9.20256C73.1752 9.02256 72.9952 8.79256 72.8852 8.51256C72.7652 8.27256 72.7052 7.98256 72.7052 7.67256C72.7052 7.36256 72.7652 7.09256 72.8852 6.81256C72.9952 6.56256 73.1752 6.33256 73.4252 6.12256C73.6852 5.93256 73.9952 5.79256 74.3452 5.68256C74.7352 5.57256 75.1652 5.52256 75.6452 5.52256C76.1252 5.52256 76.5452 5.57256 76.9552 5.68256C77.3152 5.79256 77.6352 5.94256 77.8752 6.11256C78.1252 6.31256 78.3052 6.54256 78.4352 6.80256V6.82256ZM77.3352 7.68256C77.3352 7.41256 77.2052 7.16256 76.9652 6.96256C76.7052 6.77256 76.2652 6.67256 75.6552 6.67256C75.0452 6.67256 74.6052 6.77256 74.3652 6.96256C74.1152 7.15256 73.9952 7.39256 73.9952 7.68256C73.9952 7.97256 74.1152 8.20256 74.3652 8.38256C74.6152 8.58256 75.0452 8.68256 75.6552 8.68256C76.2652 8.68256 76.7052 8.58256 76.9752 8.38256C77.2252 8.19256 77.3452 7.96256 77.3452 7.68256H77.3352ZM80.2952 10.8326H81.3452C81.4152 10.8326 81.4652 10.7826 81.4652 10.7126V7.14256H83.1052C83.1752 7.14256 83.2252 7.09256 83.2252 7.02256V6.10256C83.2252 6.03256 83.1752 5.98256 83.1052 5.98256H81.4652V2.73256C81.4652 2.67256 81.4152 2.61256 81.3452 2.61256H80.2952C80.2352 2.61256 80.1752 2.66256 80.1752 2.73256V10.7026C80.1752 10.7726 80.2252 10.8226 80.2952 10.8226V10.8326ZM73.7552 3.62256H77.5452C77.6152 3.62256 77.6652 3.57256 77.6652 3.50256V2.61256C77.6652 2.54256 77.6152 2.49256 77.5452 2.49256H73.7552C73.6852 2.49256 73.6352 2.54256 73.6352 2.61256V3.50256C73.6352 3.57256 73.6852 3.62256 73.7552 3.62256ZM79.0652 5.02256V4.13256C79.0652 4.07256 79.0152 4.01256 78.9452 4.01256H72.3652C72.2952 4.01256 72.2452 4.06256 72.2452 4.13256V5.02256C72.2452 5.09256 72.2952 5.14256 72.3652 5.14256H78.9452C79.0152 5.14256 79.0652 5.09256 79.0652 5.02256ZM94.1452 6.89256H93.3052V2.89256C93.3052 2.83256 93.2552 2.77256 93.1852 2.77256H84.7952C84.7352 2.77256 84.6752 2.82256 84.6752 2.89256V3.78256C84.6752 3.84256 84.7252 3.90256 84.7952 3.90256H92.0152V6.89256H83.8152C83.7452 6.89256 83.6952 6.94256 83.6952 7.01256V7.93256C83.6952 8.00256 83.7452 8.05256 83.8152 8.05256H88.3352V9.49256H84.7352C84.6652 9.49256 84.6152 9.54256 84.6152 9.61256V10.5026C84.6152 10.5626 84.6652 10.6226 84.7352 10.6226H92.0852V13.5426C92.0852 13.6026 92.1352 13.6626 92.2052 13.6626H93.2552C93.3252 13.6626 93.3752 13.6126 93.3752 13.5426V9.61256C93.3752 9.55256 93.3252 9.49256 93.2552 9.49256H89.6352V8.05256H94.1652C94.2352 8.05256 94.2852 8.00256 94.2852 7.93256V7.01256C94.2852 6.95256 94.2352 6.89256 94.1652 6.89256H94.1452ZM95.1352 8.93256H105.455C105.525 8.93256 105.575 8.88256 105.575 8.81256V7.89256C105.575 7.82256 105.525 7.77256 105.455 7.77256H100.935V6.96256H104.495C104.555 6.96256 104.615 6.91256 104.615 6.84256V5.95256C104.615 5.89256 104.565 5.83256 104.495 5.83256H97.3952V2.88256C97.3952 2.82256 97.3452 2.76256 97.2752 2.76256H96.2252C96.1552 2.76256 96.1052 2.81256 96.1052 2.88256V6.12256C96.1052 6.42256 96.1752 6.62256 96.3052 6.74256C96.4352 6.89256 96.6452 6.96256 96.9452 6.96256H99.6352V7.77256H95.1152C95.0552 7.77256 94.9952 7.82256 94.9952 7.89256V8.81256C94.9952 8.87256 95.0452 8.93256 95.1152 8.93256H95.1352ZM101.735 13.8626C101.265 13.9526 100.775 13.9926 100.285 13.9926C99.7952 13.9926 99.2952 13.9426 98.8552 13.8626C98.3852 13.7626 98.0152 13.6226 97.7052 13.4426C97.3552 13.2426 97.1052 13.0026 96.9352 12.7126C96.7452 12.4226 96.6552 12.0626 96.6552 11.6426C96.6552 11.2226 96.7552 10.8626 96.9352 10.5726C97.1052 10.2926 97.3552 10.0526 97.7052 9.84256C98.0152 9.67256 98.4052 9.53256 98.8552 9.43256C99.7252 9.25256 100.785 9.25256 101.735 9.43256C102.165 9.53256 102.545 9.66256 102.865 9.83256C103.185 10.0326 103.425 10.2726 103.615 10.5626C103.795 10.8826 103.885 11.2526 103.885 11.6326C103.885 12.0126 103.795 12.3926 103.615 12.7026C103.425 12.9926 103.185 13.2326 102.875 13.4326C102.555 13.6126 102.195 13.7526 101.745 13.8526L101.735 13.8626ZM101.195 12.8126C101.455 12.7726 101.705 12.7026 101.925 12.6026C102.135 12.5026 102.305 12.3726 102.425 12.2326C102.535 12.0726 102.595 11.8826 102.595 11.6526C102.595 11.4226 102.535 11.2326 102.425 11.0626C102.305 10.9226 102.145 10.8026 101.925 10.6926C101.675 10.5926 101.435 10.5226 101.195 10.4726C100.865 10.4326 100.575 10.4126 100.295 10.4126C100.015 10.4126 99.7252 10.4326 99.3952 10.4726C99.1352 10.5126 98.8752 10.5926 98.6452 10.6926C98.4252 10.7926 98.2552 10.9126 98.1352 11.0626C98.0152 11.2226 97.9552 11.4126 97.9552 11.6426C97.9552 11.8726 98.0152 12.0626 98.1352 12.2226C98.2552 12.3726 98.4252 12.4926 98.6452 12.5926C98.8552 12.6826 99.1052 12.7526 99.4052 12.7926C100.045 12.8726 100.525 12.8726 101.215 12.7926L101.195 12.8126ZM106.785 6.63256C106.635 6.30256 106.555 5.90256 106.555 5.46256C106.555 5.02256 106.635 4.63256 106.785 4.27256C106.935 3.91256 107.145 3.60256 107.415 3.35256C107.685 3.09256 108.025 2.89256 108.415 2.74256C108.805 2.60256 109.255 2.53256 109.735 2.53256C110.155 2.53256 110.555 2.59256 110.935 2.70256C111.305 2.83256 111.615 2.99256 111.885 3.19256C112.185 3.44256 112.395 3.69256 112.555 3.96256C112.705 4.24256 112.815 4.53256 112.875 4.87256H114.955V2.73256C114.955 2.67256 115.005 2.61256 115.075 2.61256H116.125C116.195 2.61256 116.245 2.66256 116.245 2.73256V8.49256C116.245 8.56256 116.195 8.61256 116.125 8.61256H115.075C115.005 8.61256 114.955 8.56256 114.955 8.49256V6.04256H112.875C112.815 6.37256 112.705 6.66256 112.555 6.93256C112.395 7.23256 112.155 7.50256 111.885 7.70256C111.615 7.92256 111.305 8.08256 110.935 8.19256C110.585 8.31256 110.195 8.36256 109.735 8.36256C109.215 8.36256 108.775 8.29256 108.405 8.15256C108.005 8.01256 107.665 7.81256 107.405 7.55256C107.135 7.31256 106.925 7.00256 106.775 6.62256L106.785 6.63256ZM107.845 5.46256C107.845 5.76256 107.895 6.02256 107.985 6.22256C108.075 6.45256 108.205 6.63256 108.375 6.77256C108.545 6.93256 108.735 7.04256 108.965 7.10256C109.195 7.18256 109.445 7.22256 109.745 7.22256C110.045 7.22256 110.285 7.18256 110.515 7.11256C110.745 7.04256 110.955 6.93256 111.115 6.78256C111.275 6.64256 111.405 6.45256 111.505 6.22256C111.595 6.00256 111.645 5.73256 111.645 5.46256C111.645 5.19256 111.595 4.92256 111.505 4.68256C111.405 4.47256 111.275 4.28256 111.115 4.13256C110.955 3.99256 110.745 3.88256 110.515 3.80256C110.245 3.73256 109.995 3.69256 109.745 3.69256C109.485 3.69256 109.235 3.73256 108.965 3.81256C108.735 3.89256 108.535 3.99256 108.375 4.14256C108.205 4.29256 108.075 4.48256 107.985 4.69256C107.895 4.91256 107.845 5.16256 107.845 5.47256V5.46256ZM108.785 9.09256V10.2826H114.965V9.09256C114.965 9.02256 115.015 8.97256 115.085 8.97256H116.135C116.205 8.97256 116.255 9.02256 116.255 9.09256V13.5326C116.255 13.5926 116.205 13.6526 116.135 13.6526H108.345C108.045 13.6526 107.835 13.5826 107.705 13.4326C107.575 13.2926 107.505 13.0826 107.505 12.7926V9.09256C107.505 9.02256 107.555 8.97256 107.625 8.97256H108.675C108.745 8.97256 108.795 9.02256 108.795 9.09256H108.785ZM108.785 11.4126V12.5226H114.965V11.4126H108.785ZM127.575 13.5326V2.74256C127.575 2.68256 127.525 2.62256 127.455 2.62256H126.405C126.335 2.62256 126.285 2.67256 126.285 2.74256V13.5326C126.285 13.5926 126.335 13.6526 126.405 13.6526H127.455C127.525 13.6526 127.575 13.6026 127.575 13.5326ZM122.445 9.02256C122.965 8.30256 123.375 7.44256 123.675 6.48256C123.975 5.52256 124.135 4.38256 124.135 3.09256V3.02256C124.135 2.95256 124.085 2.90256 124.015 2.90256H118.465C118.395 2.90256 118.345 2.95256 118.345 3.02256V3.93256C118.345 4.00256 118.395 4.05256 118.465 4.05256H122.805C122.735 5.04256 122.575 5.88256 122.285 6.61256C121.975 7.40256 121.595 8.08256 121.145 8.64256C120.685 9.23256 120.175 9.73256 119.635 10.1326C119.045 10.5626 118.485 10.8926 117.935 11.1526C117.905 11.1726 117.885 11.1926 117.875 11.2226C117.865 11.2526 117.875 11.2926 117.885 11.3226L118.415 12.1326C118.415 12.1326 118.475 12.1826 118.515 12.1826C118.535 12.1826 118.555 12.1826 118.565 12.1726C119.295 11.8126 120.005 11.3726 120.665 10.8626C121.335 10.3526 121.935 9.73256 122.445 9.02256ZM130.015 6.76256C130.015 6.76256 130.095 6.84256 130.145 6.82256C130.975 6.62256 131.765 6.31256 132.475 5.92256C133.135 5.56256 133.715 5.09256 134.205 4.52256C134.485 4.77256 134.775 5.00256 135.075 5.20256C135.485 5.49256 135.815 5.69256 136.135 5.86256C136.465 6.05256 136.835 6.24256 137.235 6.40256C137.605 6.57256 137.975 6.71256 138.325 6.83256C138.335 6.83256 138.355 6.83256 138.365 6.83256C138.405 6.83256 138.445 6.81256 138.465 6.77256L138.905 5.94256C138.905 5.94256 138.925 5.87256 138.905 5.84256C138.895 5.81256 138.865 5.78256 138.835 5.77256C138.495 5.67256 138.155 5.54256 137.815 5.38256C137.445 5.22256 137.095 5.04256 136.765 4.85256C136.435 4.68256 136.095 4.46256 135.745 4.20256C135.445 4.00256 135.165 3.78256 134.905 3.54256C134.955 3.46256 134.995 3.36256 135.045 3.25256C135.075 3.17256 135.115 3.09256 135.155 3.00256L135.205 2.89256C135.205 2.89256 135.215 2.82256 135.205 2.79256C135.185 2.76256 135.155 2.74256 135.125 2.73256L134.145 2.56256C134.095 2.56256 134.035 2.58256 134.015 2.63256C133.835 3.04256 133.605 3.41256 133.315 3.74256C133.035 4.06256 132.715 4.35256 132.315 4.63256C131.935 4.90256 131.525 5.13256 131.105 5.32256C130.665 5.51256 130.205 5.67256 129.695 5.79256C129.655 5.79256 129.625 5.82256 129.615 5.85256C129.605 5.88256 129.605 5.92256 129.615 5.95256L130.015 6.76256ZM133.635 9.10256H130.045C129.985 9.10256 129.925 9.15256 129.925 9.22256V10.1126C129.925 10.1726 129.975 10.2326 130.045 10.2326H137.385V10.7926H130.045C129.985 10.7926 129.925 10.8426 129.925 10.9126V12.8026C129.925 13.1026 129.985 13.3126 130.115 13.4426C130.245 13.5926 130.455 13.6626 130.755 13.6626H138.765C138.825 13.6626 138.885 13.6126 138.885 13.5426V12.6526C138.885 12.5926 138.835 12.5326 138.765 12.5326H131.205V11.9226H138.545C138.615 11.9226 138.665 11.8726 138.665 11.8026V9.22256C138.665 9.15256 138.615 9.10256 138.545 9.10256H134.915V8.49256H139.435C139.505 8.49256 139.555 8.44256 139.555 8.37256V7.45256C139.555 7.38256 139.505 7.33256 139.435 7.33256H129.115C129.055 7.33256 128.995 7.38256 128.995 7.45256V8.37256C128.995 8.43256 129.045 8.49256 129.115 8.49256H133.635V9.10256ZM141.005 9.10256C141.005 9.10256 141.065 9.15256 141.095 9.15256C141.115 9.15256 141.125 9.15256 141.145 9.14256C141.635 8.91256 142.185 8.59256 142.815 8.17256C143.375 7.80256 143.915 7.36256 144.425 6.86256C144.805 7.25256 145.195 7.58256 145.615 7.89256C146.075 8.25256 146.525 8.54256 146.995 8.79256C147.045 8.82256 147.105 8.80256 147.145 8.76256L147.735 8.00256C147.735 8.00256 147.765 7.94256 147.755 7.90256C147.755 7.86256 147.725 7.84256 147.695 7.82256C147.235 7.59256 146.785 7.30256 146.365 6.98256C145.945 6.67256 145.565 6.34256 145.215 6.00256C145.545 5.58256 145.815 5.17256 146.045 4.77256C146.285 4.31256 146.485 3.82256 146.615 3.27256C146.615 3.26256 146.615 3.24256 146.625 3.23256V3.16256C146.625 3.16256 146.625 3.08256 146.615 3.01256C146.615 2.99256 146.595 2.97256 146.585 2.96256C146.565 2.94256 146.555 2.92256 146.525 2.88256C146.515 2.86256 146.495 2.85256 146.485 2.84256C146.425 2.81256 146.345 2.79256 146.255 2.79256H141.295C141.235 2.79256 141.175 2.84256 141.175 2.91256V3.80256C141.175 3.86256 141.225 3.92256 141.295 3.92256H145.105C144.915 4.34256 144.685 4.74256 144.405 5.12256C144.095 5.53256 143.745 5.93256 143.325 6.33256C142.865 6.75256 142.435 7.09256 142.005 7.36256C141.495 7.70256 141.005 7.97256 140.515 8.20256C140.485 8.21256 140.465 8.24256 140.455 8.28256C140.455 8.31256 140.455 8.35256 140.475 8.38256L141.015 9.12256L141.005 9.10256ZM150.335 12.4926H142.765V9.80256C142.765 9.74256 142.715 9.68256 142.645 9.68256H141.595C141.525 9.68256 141.475 9.73256 141.475 9.80256V12.7926C141.475 13.0926 141.535 13.3026 141.665 13.4326C141.795 13.5826 142.005 13.6526 142.305 13.6526H150.325C150.395 13.6526 150.445 13.6026 150.445 13.5326V12.6126C150.445 12.5526 150.395 12.4926 150.325 12.4926H150.335ZM149.065 10.9426H150.115C150.185 10.9426 150.235 10.8926 150.235 10.8226V2.74256C150.235 2.68256 150.185 2.62256 150.115 2.62256H149.065C148.995 2.62256 148.945 2.67256 148.945 2.74256V10.8326C148.945 10.8926 148.995 10.9526 149.065 10.9526V10.9426ZM152.695 4.97256H161.205C161.275 4.97256 161.325 4.92256 161.325 4.85256V3.96256C161.325 3.90256 161.275 3.84256 161.205 3.84256H152.695C152.625 3.84256 152.575 3.89256 152.575 3.96256V4.85256C152.575 4.91256 152.625 4.97256 152.695 4.97256ZM154.865 3.57256H159.015C159.085 3.57256 159.135 3.52256 159.135 3.45256V2.59256C159.135 2.53256 159.085 2.47256 159.015 2.47256H154.865C154.795 2.47256 154.745 2.52256 154.745 2.59256V3.45256C154.745 3.51256 154.795 3.57256 154.865 3.57256ZM159.385 5.51256C159.685 5.63256 159.935 5.80256 160.125 6.02256C160.315 6.26256 160.405 6.54256 160.405 6.85256C160.405 7.16256 160.315 7.46256 160.125 7.68256C159.935 7.90256 159.695 8.06256 159.385 8.18256C159.065 8.31256 158.695 8.39256 158.295 8.42256C157.875 8.47256 157.415 8.49256 156.935 8.49256C156.455 8.49256 155.985 8.47256 155.585 8.42256C155.165 8.37256 154.805 8.29256 154.505 8.16256C154.185 8.04256 153.925 7.88256 153.755 7.66256C153.565 7.46256 153.475 7.19256 153.475 6.85256C153.475 6.51256 153.575 6.24256 153.755 6.02256C153.925 5.82256 154.175 5.65256 154.505 5.52256C154.815 5.41256 155.165 5.32256 155.585 5.26256C155.995 5.21256 156.455 5.19256 156.945 5.19256C157.435 5.19256 157.895 5.21256 158.315 5.26256C158.715 5.31256 159.085 5.39256 159.405 5.50256L159.385 5.51256ZM159.105 6.85256C159.105 6.72256 158.935 6.58256 158.645 6.49256C158.275 6.38256 157.705 6.33256 156.935 6.33256C156.165 6.33256 155.575 6.39256 155.235 6.49256C154.775 6.64256 154.775 6.80256 154.775 6.85256C154.775 6.91256 154.775 7.08256 155.235 7.20256C155.565 7.31256 156.105 7.36256 156.935 7.36256C157.765 7.36256 158.305 7.31256 158.645 7.20256C158.855 7.14256 159.105 7.02256 159.105 6.85256ZM158.375 13.9226C157.845 13.9826 157.375 14.0126 156.915 14.0126C156.455 14.0126 155.985 13.9826 155.475 13.9326C154.965 13.8526 154.605 13.7526 154.315 13.6126C153.985 13.4626 153.725 13.2626 153.545 13.0126C153.355 12.7626 153.255 12.4526 153.255 12.0726C153.255 11.6926 153.355 11.3826 153.545 11.1326C153.715 10.8926 153.985 10.6826 154.315 10.5426C154.605 10.4126 154.985 10.3126 155.465 10.2326C156.495 10.1226 157.315 10.1226 158.375 10.2326C158.835 10.3126 159.205 10.4126 159.525 10.5426C159.845 10.6926 160.095 10.8926 160.295 11.1326C160.475 11.4026 160.575 11.7226 160.575 12.0726C160.575 12.4226 160.485 12.7426 160.305 13.0126C160.095 13.2626 159.835 13.4626 159.525 13.6126C159.215 13.7526 158.845 13.8526 158.375 13.9326V13.9226ZM157.845 12.8426C158.135 12.8126 158.395 12.7626 158.625 12.7026C158.835 12.6326 159.005 12.5526 159.135 12.4426C159.235 12.3426 159.295 12.2226 159.295 12.0826C159.295 11.9426 159.245 11.8226 159.135 11.7126C159.015 11.6126 158.845 11.5226 158.625 11.4526C158.405 11.3926 158.135 11.3526 157.845 11.3126C157.545 11.2926 157.235 11.2626 156.915 11.2626C156.595 11.2626 156.315 11.2826 155.985 11.3126C155.695 11.3426 155.435 11.3926 155.215 11.4526C155.005 11.5126 154.835 11.6026 154.705 11.7126C154.595 11.8126 154.535 11.9226 154.535 12.0726C154.535 12.2226 154.595 12.3426 154.705 12.4326C154.835 12.5426 155.005 12.6326 155.215 12.6926C155.435 12.7426 155.695 12.7926 155.995 12.8326C156.585 12.8826 157.275 12.8826 157.855 12.8326L157.845 12.8426ZM151.765 9.90256H162.095C162.165 9.90256 162.215 9.85256 162.215 9.78256V8.86256C162.215 8.80256 162.165 8.74256 162.095 8.74256H151.765C151.695 8.74256 151.645 8.79256 151.645 8.86256V9.78256C151.645 9.85256 151.695 9.90256 151.765 9.90256ZM163.095 9.03256H166.345V10.8526C166.345 10.9126 166.395 10.9726 166.465 10.9726H167.515C167.585 10.9726 167.635 10.9226 167.635 10.8526V9.03256H171.135C171.205 9.03256 171.255 8.98256 171.255 8.91256V7.99256C171.255 7.92256 171.205 7.87256 171.135 7.87256H163.105C163.045 7.87256 162.985 7.92256 162.985 7.99256V8.91256C162.985 8.97256 163.035 9.03256 163.105 9.03256H163.095ZM165.545 10.2226C165.545 10.1526 165.495 10.1026 165.425 10.1026H164.375C164.315 10.1026 164.255 10.1526 164.255 10.2226V12.7926C164.255 13.0926 164.315 13.3026 164.445 13.4326C164.565 13.5826 164.785 13.6526 165.085 13.6526H172.975C173.045 13.6526 173.095 13.6026 173.095 13.5326V12.6126C173.095 12.5526 173.045 12.4926 172.975 12.4926H165.535V10.2226H165.545ZM169.025 9.65256V10.5826C169.025 10.6426 169.075 10.7026 169.145 10.7026H171.605V11.6326C171.605 11.6926 171.655 11.7526 171.725 11.7526H172.775C172.845 11.7526 172.895 11.7026 172.895 11.6326V2.74256C172.895 2.68256 172.845 2.62256 172.775 2.62256H171.725C171.655 2.62256 171.605 2.67256 171.605 2.74256V9.53256H169.145C169.075 9.53256 169.025 9.58256 169.025 9.65256ZM164.785 6.75256C164.265 6.33256 163.995 5.72256 163.995 4.94256C163.995 4.16256 164.265 3.54256 164.785 3.11256C165.305 2.69256 166.045 2.48256 166.985 2.48256C167.925 2.48256 168.665 2.69256 169.195 3.11256C169.725 3.55256 169.995 4.17256 169.995 4.94256C169.995 5.71256 169.725 6.34256 169.205 6.77256C168.675 7.20256 167.955 7.41256 166.995 7.41256C166.035 7.41256 165.305 7.19256 164.795 6.75256H164.785ZM165.275 4.95256C165.275 5.42256 165.415 5.73256 165.725 5.95256C166.025 6.17256 166.455 6.29256 166.985 6.29256C167.515 6.29256 167.925 6.18256 168.255 5.95256C168.555 5.73256 168.705 5.40256 168.705 4.95256C168.705 4.50256 168.555 4.17256 168.255 3.94256C167.935 3.72256 167.515 3.61256 166.985 3.61256C166.455 3.61256 166.025 3.72256 165.725 3.94256C165.425 4.16256 165.275 4.50256 165.275 4.95256ZM74.8852 15.2726H74.2452L72.9452 16.6026V15.2726H72.4352V18.3126H72.9452V17.2526L73.3452 16.8526L74.3152 18.3026H74.9152L73.6852 16.4926L74.8852 15.2626V15.2726ZM77.3452 16.7626C77.3952 16.9026 77.4152 17.0526 77.4152 17.2126C77.4152 17.3726 77.3952 17.5226 77.3452 17.6626C77.2952 17.8026 77.2352 17.9226 77.1452 18.0326C77.0552 18.1326 76.9552 18.2226 76.8252 18.2826C76.6952 18.3426 76.5552 18.3726 76.3952 18.3726C76.2352 18.3726 76.0852 18.3426 75.9552 18.2826C75.8252 18.2226 75.7252 18.1426 75.6352 18.0326C75.5452 17.9326 75.4852 17.8026 75.4352 17.6626C75.3852 17.5226 75.3652 17.3726 75.3652 17.2126C75.3652 17.0526 75.3852 16.9026 75.4352 16.7626C75.4852 16.6226 75.5452 16.5026 75.6352 16.3926C75.7252 16.2926 75.8252 16.2026 75.9552 16.1426C76.0752 16.0826 76.2252 16.0526 76.3852 16.0526C76.5452 16.0526 76.6952 16.0826 76.8152 16.1426C76.9452 16.2026 77.0452 16.2826 77.1352 16.3926C77.2252 16.5026 77.2852 16.6226 77.3352 16.7626H77.3452ZM76.9152 17.2126C76.9152 17.1126 76.9052 17.0226 76.8752 16.9326C76.8452 16.8426 76.8152 16.7626 76.7652 16.7026C76.7152 16.6326 76.6652 16.5826 76.6052 16.5426C76.5452 16.5026 76.4652 16.4826 76.3852 16.4826C76.3052 16.4826 76.2352 16.5026 76.1752 16.5426C76.1152 16.5826 76.0552 16.6326 76.0152 16.7026C75.9752 16.7726 75.9352 16.8426 75.9152 16.9326C75.8952 17.0226 75.8752 17.1126 75.8752 17.2126C75.8752 17.3126 75.8852 17.4026 75.9152 17.4926C75.9352 17.5826 75.9752 17.6526 76.0152 17.7226C76.0552 17.7926 76.1152 17.8426 76.1752 17.8826C76.2352 17.9226 76.3152 17.9426 76.3852 17.9426C76.4552 17.9426 76.5352 17.9226 76.6052 17.8826C76.6652 17.8426 76.7252 17.7926 76.7652 17.7226C76.8152 17.6526 76.8452 17.5826 76.8752 17.4926C76.8952 17.4026 76.9152 17.3126 76.9152 17.2126ZM78.8952 16.0626C78.8152 16.0626 78.7352 16.0926 78.6652 16.1426C78.5952 16.1926 78.5252 16.2726 78.4652 16.3826L78.3852 16.1126H78.0152V18.3326H78.5152V17.0126C78.5152 16.9526 78.5252 16.8826 78.5452 16.8326C78.5652 16.7726 78.5852 16.7226 78.6252 16.6826C78.6552 16.6426 78.7052 16.6026 78.7552 16.5826C78.8052 16.5526 78.8652 16.5426 78.9252 16.5426C78.9252 16.5426 78.9452 16.5426 78.9552 16.5426C78.9652 16.5426 78.9852 16.5426 79.0152 16.5426C79.0452 16.5426 79.0752 16.5526 79.1052 16.5626C79.1452 16.5626 79.1852 16.5926 79.2352 16.6126V16.1726C79.1552 16.1226 79.0852 16.0926 79.0352 16.0826C78.9752 16.0726 78.9352 16.0626 78.9152 16.0626H78.8952ZM81.4752 16.7226C81.5252 16.8526 81.5452 17.0026 81.5452 17.1526V17.3526H80.0552C80.0552 17.4326 80.0752 17.5126 80.1052 17.5826C80.1352 17.6526 80.1752 17.7226 80.2152 17.7726C80.2552 17.8226 80.3152 17.8726 80.3652 17.9026C80.4252 17.9326 80.4852 17.9526 80.5552 17.9526C80.6752 17.9526 80.7752 17.9226 80.8552 17.8526C80.9352 17.7826 81.0052 17.6826 81.0452 17.5426H81.5052C81.4752 17.6726 81.4352 17.7926 81.3752 17.8926C81.3152 17.9926 81.2352 18.0826 81.1552 18.1526C81.0652 18.2226 80.9752 18.2826 80.8652 18.3126C80.7552 18.3526 80.6552 18.3726 80.5452 18.3726C80.3852 18.3726 80.2452 18.3426 80.1252 18.2726C79.9952 18.2126 79.8952 18.1226 79.8052 18.0126C79.7152 17.9026 79.6452 17.7826 79.6052 17.6326C79.5552 17.4926 79.5352 17.3426 79.5352 17.1826C79.5352 17.0326 79.5552 16.8926 79.6052 16.7526C79.6552 16.6126 79.7252 16.4926 79.8052 16.3926C79.8952 16.2926 79.9952 16.2026 80.1252 16.1426C80.2552 16.0826 80.3952 16.0526 80.5452 16.0526C80.6952 16.0526 80.8352 16.0826 80.9552 16.1326C81.0752 16.1926 81.1852 16.2626 81.2652 16.3626C81.3552 16.4626 81.4152 16.5726 81.4652 16.7026L81.4752 16.7226ZM81.0352 16.9626C81.0352 16.8926 81.0152 16.8326 80.9852 16.7726C80.9552 16.7126 80.9252 16.6626 80.8852 16.6226C80.8452 16.5826 80.7952 16.5526 80.7352 16.5226C80.6752 16.5026 80.6152 16.4926 80.5452 16.4926C80.4852 16.4926 80.4252 16.5026 80.3752 16.5326C80.3252 16.5626 80.2752 16.5926 80.2252 16.6326C80.1852 16.6726 80.1452 16.7226 80.1252 16.7826C80.0952 16.8426 80.0752 16.9026 80.0652 16.9626H81.0452H81.0352ZM83.9952 17.9426C83.9952 17.9426 84.0552 17.9226 84.0952 17.9026V18.2626C84.0952 18.2626 84.0152 18.3126 83.9852 18.3226C83.9552 18.3326 83.9252 18.3426 83.9052 18.3526C83.8852 18.3526 83.8652 18.3626 83.8452 18.3626C83.8252 18.3626 83.8152 18.3626 83.7952 18.3626C83.7452 18.3626 83.6952 18.3626 83.6552 18.3326C83.6152 18.3126 83.5752 18.2926 83.5452 18.2526C83.5152 18.2226 83.4852 18.1826 83.4652 18.1426C83.4452 18.1026 83.4252 18.0626 83.4052 18.0126C83.3452 18.0826 83.2852 18.1326 83.2252 18.1826C83.1652 18.2226 83.1152 18.2626 83.0552 18.2826C82.9952 18.3126 82.9452 18.3226 82.8852 18.3326C82.8252 18.3426 82.7752 18.3426 82.7152 18.3426C82.6152 18.3426 82.5252 18.3326 82.4452 18.2926C82.3652 18.2626 82.2852 18.2126 82.2252 18.1626C82.1652 18.1026 82.1152 18.0326 82.0752 17.9526C82.0352 17.8726 82.0252 17.7826 82.0252 17.6826C82.0252 17.5926 82.0452 17.5226 82.0852 17.4626C82.1252 17.4026 82.1752 17.3426 82.2352 17.3026C82.2952 17.2526 82.3652 17.2126 82.4452 17.1826C82.5252 17.1526 82.6052 17.1226 82.6852 17.0926C82.7652 17.0626 82.8452 17.0426 82.9252 17.0126C83.0052 16.9926 83.0752 16.9626 83.1352 16.9326C83.1952 16.9026 83.2452 16.8726 83.2852 16.8426C83.3252 16.8126 83.3452 16.7626 83.3452 16.7226C83.3452 16.6826 83.3352 16.6326 83.3052 16.6026C83.2852 16.5726 83.2552 16.5426 83.2152 16.5226C83.1752 16.5026 83.1352 16.4926 83.0952 16.4826C83.0552 16.4826 83.0052 16.4726 82.9652 16.4726C82.9252 16.4726 82.8752 16.4726 82.8352 16.4926C82.7952 16.5026 82.7552 16.5226 82.7252 16.5526C82.6952 16.5826 82.6652 16.6126 82.6352 16.6526C82.6152 16.6926 82.5952 16.7426 82.5852 16.8026H82.0752C82.0752 16.6726 82.1152 16.5626 82.1652 16.4626C82.2152 16.3726 82.2852 16.2926 82.3652 16.2226C82.4452 16.1626 82.5352 16.1126 82.6452 16.0826C82.7452 16.0526 82.8552 16.0326 82.9652 16.0326C83.0752 16.0326 83.1852 16.0426 83.2952 16.0726C83.3952 16.1026 83.4952 16.1426 83.5752 16.1926C83.6552 16.2526 83.7152 16.3226 83.7652 16.4126C83.8152 16.5026 83.8352 16.6026 83.8352 16.7226V17.8026C83.8352 17.8026 83.8352 17.8526 83.8652 17.8826C83.8852 17.9026 83.9152 17.9226 83.9452 17.9226C83.9452 17.9226 83.9652 17.9226 83.9952 17.9226V17.9426ZM83.3352 17.2626C83.3352 17.2626 83.2552 17.3026 83.2052 17.3126C83.1552 17.3326 83.0952 17.3426 83.0352 17.3626C82.9752 17.3826 82.9152 17.3926 82.8552 17.4126C82.7952 17.4326 82.7352 17.4526 82.6852 17.4826C82.6352 17.5126 82.5952 17.5326 82.5652 17.5726C82.5352 17.6026 82.5152 17.6426 82.5152 17.6926C82.5152 17.7426 82.5152 17.7726 82.5352 17.8026C82.5452 17.8326 82.5652 17.8626 82.5952 17.8826C82.6152 17.9026 82.6452 17.9226 82.6752 17.9326C82.7052 17.9326 82.7352 17.9426 82.7652 17.9426C82.8652 17.9426 82.9652 17.9126 83.0652 17.8426C83.1652 17.7726 83.2552 17.6726 83.3352 17.5326V17.2526V17.2626ZM87.4052 15.2826L88.4852 18.3226H87.9652L87.6452 17.4326H86.5752C86.5252 17.5826 86.4752 17.7326 86.4152 17.8826C86.3652 18.0326 86.3052 18.1826 86.2552 18.3226H85.7352L86.8152 15.2826H87.3952H87.4052ZM87.4852 17.0026L87.1152 15.9226L86.7352 17.0026H87.4852ZM90.5052 16.1026H91.0052V18.2926C91.0052 18.4526 90.9752 18.5826 90.9252 18.7026C90.8752 18.8226 90.8052 18.9226 90.7152 18.9926C90.6252 19.0726 90.5252 19.1326 90.4152 19.1726C90.3052 19.2126 90.1852 19.2326 90.0652 19.2326C89.9552 19.2326 89.8552 19.2126 89.7652 19.1826C89.6752 19.1526 89.5852 19.1026 89.5052 19.0426C89.4252 18.9826 89.3552 18.8926 89.2852 18.8026C89.2152 18.7026 89.1652 18.5826 89.1252 18.4526H89.6152C89.6652 18.5826 89.7352 18.6726 89.8052 18.7226C89.8752 18.7826 89.9652 18.8026 90.0652 18.8026C90.1252 18.8026 90.1852 18.7926 90.2352 18.7626C90.2852 18.7426 90.3352 18.7026 90.3752 18.6626C90.4152 18.6226 90.4452 18.5626 90.4752 18.5026C90.4952 18.4426 90.5152 18.3726 90.5152 18.3026V18.1026C90.4452 18.1826 90.3652 18.2426 90.2652 18.2826C90.1752 18.3226 90.0752 18.3426 89.9852 18.3426C89.8452 18.3426 89.7152 18.3126 89.5952 18.2526C89.4852 18.1926 89.3852 18.1126 89.3052 18.0026C89.2252 17.9026 89.1652 17.7726 89.1252 17.6326C89.0852 17.4926 89.0652 17.3426 89.0652 17.1826C89.0652 17.0226 89.0852 16.8726 89.1252 16.7326C89.1652 16.5926 89.2352 16.4726 89.3152 16.3626C89.3952 16.2626 89.4952 16.1726 89.6052 16.1126C89.7152 16.0526 89.8452 16.0226 89.9852 16.0226C90.0252 16.0226 90.0652 16.0226 90.1052 16.0226C90.1452 16.0226 90.1852 16.0426 90.2352 16.0526C90.2752 16.0726 90.3252 16.0926 90.3652 16.1326C90.4052 16.1626 90.4552 16.2126 90.4952 16.2626V16.0626L90.5052 16.1026ZM90.5052 17.1826C90.5052 17.0826 90.4952 16.9926 90.4652 16.9126C90.4452 16.8326 90.4152 16.7526 90.3752 16.6926C90.3352 16.6326 90.2952 16.5826 90.2352 16.5426C90.1852 16.5026 90.1152 16.4826 90.0552 16.4826C89.9852 16.4826 89.9152 16.5026 89.8552 16.5426C89.7952 16.5826 89.7452 16.6326 89.6952 16.6926C89.6452 16.7626 89.6152 16.8326 89.5852 16.9226C89.5552 17.0126 89.5452 17.1026 89.5452 17.2026C89.5452 17.3026 89.5552 17.3926 89.5852 17.4826C89.6152 17.5726 89.6452 17.6526 89.6952 17.7126C89.7452 17.7826 89.7952 17.8326 89.8552 17.8726C89.9152 17.9126 89.9852 17.9326 90.0552 17.9326C90.1252 17.9326 90.1852 17.9126 90.2452 17.8726C90.3052 17.8326 90.3452 17.7826 90.3852 17.7126C90.4252 17.6526 90.4552 17.5726 90.4752 17.4826C90.4952 17.3926 90.5052 17.3026 90.5052 17.2026V17.1726V17.1826ZM92.6052 16.0526C92.5252 16.0526 92.4452 16.0826 92.3752 16.1326C92.3052 16.1826 92.2352 16.2626 92.1752 16.3726L92.0952 16.1026H91.7252V18.3226H92.2252V17.0026C92.2252 16.9426 92.2252 16.8726 92.2552 16.8226C92.2752 16.7626 92.2952 16.7126 92.3352 16.6726C92.3652 16.6326 92.4152 16.5926 92.4652 16.5726C92.5152 16.5426 92.5752 16.5326 92.6352 16.5326C92.6352 16.5326 92.6552 16.5326 92.6652 16.5326C92.6752 16.5326 92.6952 16.5326 92.7252 16.5326C92.7552 16.5326 92.7852 16.5426 92.8152 16.5526C92.8552 16.5526 92.8952 16.5826 92.9452 16.6026V16.1626C92.8652 16.1126 92.7952 16.0826 92.7452 16.0726C92.6852 16.0626 92.6452 16.0526 92.6252 16.0526H92.6052ZM93.3552 15.7926H93.8552V15.2826H93.3552V15.7926ZM93.3552 18.3126H93.8552V16.0926H93.3552V18.3126ZM95.0652 16.6826C95.1052 16.6226 95.1552 16.5626 95.2152 16.5326C95.2752 16.4926 95.3452 16.4726 95.4252 16.4726C95.5252 16.4726 95.6152 16.5026 95.6852 16.5726C95.7552 16.6326 95.8052 16.7426 95.8452 16.8826H96.3552C96.3352 16.7626 96.2952 16.6526 96.2452 16.5526C96.1952 16.4526 96.1352 16.3626 96.0552 16.2926C95.9752 16.2226 95.8852 16.1626 95.7852 16.1126C95.6852 16.0726 95.5652 16.0526 95.4352 16.0526C95.2852 16.0526 95.1452 16.0826 95.0252 16.1326C94.9052 16.1926 94.7952 16.2626 94.7152 16.3626C94.6252 16.4626 94.5652 16.5826 94.5152 16.7126C94.4652 16.8526 94.4452 17.0026 94.4452 17.1626C94.4452 17.2626 94.4452 17.3626 94.4752 17.4526C94.4952 17.5526 94.5152 17.6426 94.5552 17.7326C94.5852 17.8226 94.6352 17.9026 94.6852 17.9826C94.7352 18.0626 94.7952 18.1226 94.8752 18.1726C94.9452 18.2326 95.0252 18.2726 95.1152 18.3026C95.2052 18.3326 95.3052 18.3526 95.4152 18.3526C95.5452 18.3526 95.6652 18.3326 95.7752 18.2926C95.8852 18.2526 95.9752 18.1926 96.0552 18.1126C96.1352 18.0326 96.2052 17.9326 96.2552 17.8226C96.3052 17.7126 96.3352 17.5826 96.3552 17.4326H95.8352C95.8252 17.5026 95.8052 17.5626 95.7852 17.6226C95.7652 17.6826 95.7352 17.7326 95.6952 17.7826C95.6652 17.8326 95.6252 17.8626 95.5752 17.8926C95.5252 17.9226 95.4752 17.9326 95.4152 17.9326C95.3452 17.9326 95.2752 17.9126 95.2152 17.8626C95.1552 17.8226 95.1052 17.7626 95.0652 17.6926C95.0252 17.6226 94.9952 17.5426 94.9652 17.4526C94.9452 17.3626 94.9352 17.2626 94.9352 17.1726C94.9352 17.0826 94.9452 16.9926 94.9652 16.9126C94.9852 16.8326 95.0152 16.7526 95.0552 16.6926L95.0652 16.6826ZM98.2752 17.3426C98.2752 17.4226 98.2552 17.4926 98.2352 17.5626C98.2052 17.6326 98.1652 17.6926 98.1152 17.7426C98.0652 17.7926 98.0152 17.8326 97.9452 17.8726C97.8852 17.9026 97.8152 17.9226 97.7552 17.9226C97.7152 17.9226 97.6752 17.9226 97.6352 17.9026C97.5952 17.8926 97.5652 17.8726 97.5452 17.8526C97.5152 17.8326 97.4952 17.7926 97.4852 17.7526C97.4752 17.7126 97.4652 17.6626 97.4652 17.6026V16.0826H96.9652V17.6426C96.9652 17.7526 96.9852 17.8426 97.0152 17.9326C97.0452 18.0226 97.0952 18.0926 97.1552 18.1526C97.2152 18.2126 97.2852 18.2626 97.3752 18.2926C97.4652 18.3226 97.5552 18.3426 97.6652 18.3426C97.7152 18.3426 97.7752 18.3426 97.8252 18.3326C97.8752 18.3326 97.9252 18.3026 97.9752 18.2826C98.0252 18.2626 98.0752 18.2326 98.1252 18.1926C98.1752 18.1526 98.2252 18.1126 98.2852 18.0526V18.3026H98.7852V16.0826H98.2852V17.3326L98.2752 17.3426ZM99.5052 18.3126H100.005V15.2726H99.5052V18.3126ZM101.495 17.9426C101.495 17.9426 101.405 17.9226 101.385 17.8826C101.355 17.8426 101.345 17.7926 101.345 17.7326V16.5226H101.745V16.1026H101.345V15.4926H100.835V16.1026H100.535V16.5226H100.835V17.7826C100.835 17.8726 100.845 17.9526 100.875 18.0226C100.905 18.0926 100.935 18.1526 100.985 18.2026C101.035 18.2526 101.085 18.2926 101.145 18.3226C101.205 18.3526 101.275 18.3626 101.335 18.3626C101.385 18.3626 101.445 18.3626 101.525 18.3526C101.605 18.3526 101.685 18.3226 101.775 18.2926V17.8826C101.695 17.9126 101.625 17.9326 101.585 17.9426C101.535 17.9426 101.505 17.9426 101.495 17.9426ZM103.645 17.3526C103.645 17.4326 103.635 17.5026 103.595 17.5726C103.565 17.6426 103.525 17.7026 103.475 17.7526C103.425 17.8026 103.375 17.8426 103.305 17.8826C103.245 17.9126 103.175 17.9326 103.115 17.9326C103.075 17.9326 103.035 17.9326 102.995 17.9126C102.955 17.9026 102.925 17.8826 102.905 17.8626C102.875 17.8426 102.855 17.8026 102.845 17.7626C102.825 17.7226 102.825 17.6726 102.825 17.6126V16.0926H102.325V17.6526C102.325 17.7626 102.345 17.8526 102.375 17.9426C102.405 18.0326 102.455 18.1026 102.515 18.1626C102.575 18.2226 102.645 18.2726 102.735 18.3026C102.825 18.3326 102.915 18.3526 103.025 18.3526C103.075 18.3526 103.135 18.3526 103.185 18.3426C103.235 18.3326 103.285 18.3126 103.335 18.2926C103.385 18.2726 103.435 18.2426 103.485 18.2026C103.535 18.1626 103.585 18.1226 103.645 18.0626V18.3126H104.145V16.0926H103.645V17.3426V17.3526ZM105.765 16.0626C105.685 16.0626 105.605 16.0926 105.535 16.1426C105.465 16.1926 105.395 16.2726 105.335 16.3826L105.255 16.1126H104.885V18.3326H105.385V17.0126C105.385 16.9526 105.385 16.8826 105.415 16.8326C105.435 16.7726 105.455 16.7226 105.495 16.6826C105.525 16.6426 105.575 16.6026 105.625 16.5826C105.675 16.5526 105.735 16.5426 105.795 16.5426C105.795 16.5426 105.805 16.5426 105.825 16.5426C105.835 16.5426 105.855 16.5426 105.885 16.5426C105.905 16.5426 105.945 16.5526 105.975 16.5626C106.015 16.5626 106.055 16.5926 106.105 16.6126V16.1726C106.025 16.1226 105.955 16.0926 105.905 16.0826C105.845 16.0726 105.805 16.0626 105.785 16.0626H105.765ZM108.345 16.7226C108.395 16.8526 108.415 17.0026 108.415 17.1526V17.3526H106.925C106.925 17.4326 106.945 17.5126 106.975 17.5826C107.005 17.6526 107.045 17.7226 107.085 17.7726C107.125 17.8226 107.185 17.8726 107.235 17.9026C107.295 17.9326 107.355 17.9526 107.425 17.9526C107.545 17.9526 107.645 17.9226 107.725 17.8526C107.805 17.7826 107.875 17.6826 107.915 17.5426H108.375C108.345 17.6726 108.305 17.7926 108.235 17.8926C108.175 17.9926 108.095 18.0826 108.015 18.1526C107.925 18.2226 107.835 18.2826 107.725 18.3126C107.615 18.3526 107.515 18.3726 107.405 18.3726C107.255 18.3726 107.105 18.3426 106.985 18.2726C106.855 18.2126 106.755 18.1226 106.665 18.0126C106.575 17.9026 106.505 17.7826 106.465 17.6326C106.415 17.4926 106.395 17.3426 106.395 17.1826C106.395 17.0326 106.415 16.8926 106.465 16.7526C106.515 16.6126 106.585 16.4926 106.665 16.3926C106.755 16.2926 106.855 16.2026 106.985 16.1426C107.115 16.0826 107.255 16.0526 107.405 16.0526C107.555 16.0526 107.695 16.0826 107.815 16.1326C107.935 16.1926 108.045 16.2626 108.125 16.3626C108.215 16.4626 108.275 16.5726 108.325 16.7026L108.345 16.7226ZM107.905 16.9626C107.905 16.8926 107.885 16.8326 107.855 16.7726C107.825 16.7126 107.795 16.6626 107.755 16.6226C107.715 16.5826 107.665 16.5526 107.605 16.5226C107.545 16.5026 107.485 16.4926 107.415 16.4926C107.355 16.4926 107.295 16.5026 107.235 16.5326C107.185 16.5626 107.135 16.5926 107.085 16.6326C107.045 16.6726 107.005 16.7226 106.985 16.7826C106.955 16.8426 106.935 16.9026 106.925 16.9626H107.905ZM110.185 15.7226H111.125V18.3226H111.635V15.7226H112.565V15.2926H110.185V15.7226ZM115.035 16.7226C115.085 16.8526 115.105 17.0026 115.105 17.1526V17.3526H113.615C113.615 17.4326 113.635 17.5126 113.665 17.5826C113.695 17.6526 113.735 17.7226 113.775 17.7726C113.825 17.8226 113.875 17.8726 113.925 17.9026C113.985 17.9326 114.045 17.9526 114.115 17.9526C114.235 17.9526 114.335 17.9226 114.415 17.8526C114.495 17.7826 114.565 17.6826 114.605 17.5426H115.065C115.035 17.6726 114.995 17.7926 114.935 17.8926C114.875 17.9926 114.795 18.0826 114.715 18.1526C114.625 18.2226 114.535 18.2826 114.425 18.3126C114.325 18.3526 114.215 18.3726 114.105 18.3726C113.945 18.3726 113.805 18.3426 113.685 18.2726C113.555 18.2126 113.455 18.1226 113.365 18.0126C113.275 17.9026 113.205 17.7826 113.165 17.6326C113.115 17.4926 113.095 17.3426 113.095 17.1826C113.095 17.0326 113.115 16.8926 113.165 16.7526C113.215 16.6126 113.285 16.4926 113.365 16.3926C113.455 16.2926 113.555 16.2026 113.685 16.1426C113.815 16.0826 113.955 16.0526 114.105 16.0526C114.255 16.0526 114.395 16.0826 114.515 16.1326C114.635 16.1926 114.745 16.2626 114.825 16.3626C114.915 16.4626 114.975 16.5726 115.025 16.7026L115.035 16.7226ZM114.595 16.9626C114.595 16.8926 114.575 16.8326 114.545 16.7726C114.515 16.7126 114.485 16.6626 114.445 16.6226C114.405 16.5826 114.355 16.5526 114.295 16.5226C114.235 16.5026 114.175 16.4926 114.105 16.4926C114.045 16.4926 113.985 16.5026 113.935 16.5326C113.885 16.5626 113.835 16.5926 113.785 16.6326C113.745 16.6726 113.705 16.7226 113.675 16.7826C113.645 16.8426 113.625 16.9026 113.615 16.9626H114.595ZM116.205 16.6926C116.245 16.6326 116.295 16.5726 116.355 16.5426C116.415 16.5026 116.485 16.4826 116.565 16.4826C116.665 16.4826 116.755 16.5126 116.815 16.5826C116.885 16.6426 116.935 16.7526 116.975 16.8926H117.485C117.465 16.7726 117.425 16.6626 117.375 16.5626C117.325 16.4626 117.265 16.3726 117.185 16.3026C117.105 16.2326 117.015 16.1726 116.915 16.1226C116.815 16.0826 116.695 16.0626 116.565 16.0626C116.415 16.0626 116.275 16.0926 116.155 16.1426C116.035 16.2026 115.925 16.2726 115.845 16.3726C115.755 16.4726 115.695 16.5926 115.645 16.7226C115.595 16.8626 115.575 17.0126 115.575 17.1726C115.575 17.2726 115.575 17.3726 115.605 17.4626C115.625 17.5626 115.645 17.6526 115.685 17.7426C115.715 17.8326 115.765 17.9126 115.815 17.9926C115.865 18.0726 115.925 18.1326 116.005 18.1826C116.075 18.2426 116.155 18.2826 116.245 18.3126C116.335 18.3426 116.435 18.3626 116.545 18.3626C116.675 18.3626 116.795 18.3426 116.905 18.3026C117.015 18.2626 117.105 18.2026 117.185 18.1226C117.265 18.0426 117.335 17.9426 117.385 17.8326C117.435 17.7226 117.465 17.5926 117.485 17.4426H116.965C116.955 17.5126 116.935 17.5726 116.915 17.6326C116.895 17.6926 116.865 17.7426 116.825 17.7926C116.795 17.8426 116.755 17.8726 116.705 17.9026C116.655 17.9326 116.605 17.9426 116.545 17.9426C116.475 17.9426 116.405 17.9226 116.345 17.8726C116.285 17.8326 116.235 17.7726 116.195 17.7026C116.155 17.6326 116.125 17.5526 116.095 17.4626C116.075 17.3726 116.065 17.2726 116.065 17.1826C116.065 17.0926 116.075 17.0026 116.095 16.9226C116.115 16.8426 116.145 16.7626 116.185 16.7026L116.205 16.6926ZM119.725 16.2626C119.665 16.2026 119.585 16.1526 119.495 16.1126C119.405 16.0726 119.305 16.0626 119.195 16.0626C118.955 16.0626 118.755 16.1526 118.605 16.3426V15.2826H118.105V18.3226H118.605V17.0026C118.605 16.9326 118.615 16.8726 118.645 16.8026C118.675 16.7426 118.715 16.6926 118.755 16.6426C118.805 16.5926 118.855 16.5626 118.915 16.5326C118.975 16.5026 119.035 16.4926 119.085 16.4926C119.125 16.4926 119.165 16.4926 119.205 16.5126C119.245 16.5226 119.275 16.5526 119.315 16.5826C119.345 16.6126 119.365 16.6526 119.385 16.7026C119.405 16.7526 119.415 16.8126 119.415 16.8826V18.3226H119.915V16.7626C119.915 16.6626 119.895 16.5726 119.865 16.4926C119.825 16.4026 119.785 16.3326 119.715 16.2726L119.725 16.2626ZM122.315 16.2526C122.255 16.1926 122.175 16.1426 122.095 16.1126C122.005 16.0826 121.905 16.0626 121.795 16.0626C121.685 16.0626 121.585 16.0826 121.485 16.1326C121.385 16.1826 121.285 16.2626 121.185 16.3626V16.1026H120.685V18.3226H121.185V17.0026C121.185 16.9326 121.195 16.8726 121.225 16.8126C121.255 16.7526 121.295 16.6926 121.335 16.6526C121.385 16.6026 121.435 16.5626 121.495 16.5326C121.555 16.5026 121.625 16.4926 121.685 16.4926C121.725 16.4926 121.765 16.4926 121.805 16.5126C121.845 16.5326 121.875 16.5526 121.895 16.5826C121.925 16.6126 121.945 16.6526 121.955 16.6926C121.975 16.7326 121.975 16.7826 121.975 16.8426V18.3226H122.485V16.7626C122.485 16.6526 122.465 16.5626 122.435 16.4726C122.405 16.3826 122.355 16.3126 122.295 16.2526H122.315ZM125.095 16.7726C125.145 16.9126 125.165 17.0626 125.165 17.2226C125.165 17.3826 125.145 17.5326 125.095 17.6726C125.055 17.8126 124.985 17.9326 124.895 18.0426C124.805 18.1426 124.705 18.2326 124.575 18.2926C124.445 18.3526 124.305 18.3826 124.145 18.3826C123.985 18.3826 123.835 18.3526 123.715 18.2926C123.585 18.2326 123.485 18.1526 123.395 18.0426C123.305 17.9426 123.245 17.8126 123.195 17.6726C123.145 17.5326 123.125 17.3826 123.125 17.2226C123.125 17.0626 123.145 16.9126 123.195 16.7726C123.245 16.6326 123.305 16.5126 123.395 16.4026C123.485 16.3026 123.585 16.2126 123.715 16.1526C123.845 16.0926 123.985 16.0626 124.145 16.0626C124.305 16.0626 124.455 16.0926 124.575 16.1526C124.705 16.2126 124.805 16.2926 124.895 16.4026C124.985 16.5126 125.045 16.6326 125.095 16.7726ZM124.665 17.2226C124.665 17.1226 124.655 17.0326 124.625 16.9426C124.595 16.8526 124.565 16.7726 124.525 16.7126C124.475 16.6426 124.425 16.5926 124.365 16.5526C124.305 16.5126 124.225 16.4926 124.155 16.4926C124.085 16.4926 124.005 16.5126 123.945 16.5526C123.885 16.5926 123.825 16.6426 123.785 16.7126C123.745 16.7826 123.705 16.8526 123.685 16.9426C123.665 17.0326 123.645 17.1226 123.645 17.2226C123.645 17.3226 123.655 17.4126 123.685 17.5026C123.705 17.5926 123.745 17.6626 123.785 17.7326C123.825 17.8026 123.885 17.8526 123.945 17.8926C124.005 17.9326 124.085 17.9526 124.155 17.9526C124.225 17.9526 124.305 17.9326 124.365 17.8926C124.425 17.8526 124.485 17.8026 124.525 17.7326C124.565 17.6626 124.605 17.5926 124.625 17.5026C124.645 17.4126 124.665 17.3226 124.665 17.2226ZM125.745 18.3326H126.245V15.2926H125.745V18.3326ZM128.795 16.7826C128.845 16.9226 128.865 17.0726 128.865 17.2326C128.865 17.3926 128.845 17.5426 128.795 17.6826C128.745 17.8226 128.685 17.9426 128.595 18.0526C128.505 18.1526 128.405 18.2426 128.275 18.3026C128.145 18.3626 128.005 18.3926 127.845 18.3926C127.685 18.3926 127.535 18.3626 127.415 18.3026C127.285 18.2426 127.185 18.1626 127.095 18.0526C127.005 17.9526 126.945 17.8226 126.895 17.6826C126.845 17.5426 126.825 17.3926 126.825 17.2326C126.825 17.0726 126.845 16.9226 126.895 16.7826C126.945 16.6426 127.005 16.5226 127.095 16.4126C127.185 16.3126 127.285 16.2226 127.415 16.1626C127.545 16.1026 127.685 16.0726 127.845 16.0726C128.005 16.0726 128.155 16.1026 128.275 16.1626C128.405 16.2226 128.505 16.3026 128.595 16.4126C128.685 16.5226 128.745 16.6426 128.795 16.7826ZM128.365 17.2326C128.365 17.1326 128.355 17.0426 128.325 16.9526C128.305 16.8626 128.265 16.7826 128.215 16.7226C128.165 16.6526 128.115 16.6026 128.055 16.5626C127.995 16.5226 127.915 16.5026 127.845 16.5026C127.775 16.5026 127.695 16.5226 127.635 16.5626C127.575 16.6026 127.515 16.6526 127.475 16.7226C127.435 16.7926 127.395 16.8626 127.375 16.9526C127.355 17.0426 127.335 17.1326 127.335 17.2326C127.335 17.3326 127.345 17.4226 127.375 17.5126C127.395 17.6026 127.435 17.6726 127.475 17.7426C127.525 17.8126 127.575 17.8626 127.635 17.9026C127.695 17.9426 127.775 17.9626 127.845 17.9626C127.915 17.9626 127.995 17.9426 128.055 17.9026C128.115 17.8626 128.175 17.8126 128.215 17.7426C128.265 17.6726 128.295 17.6026 128.325 17.5126C128.355 17.4226 128.365 17.3326 128.365 17.2326ZM130.815 16.1226H131.315V18.3126C131.315 18.4726 131.285 18.6026 131.235 18.7226C131.185 18.8426 131.115 18.9426 131.025 19.0126C130.935 19.0926 130.835 19.1526 130.725 19.1926C130.615 19.2326 130.495 19.2526 130.375 19.2526C130.265 19.2526 130.165 19.2326 130.075 19.2026C129.985 19.1726 129.895 19.1226 129.815 19.0626C129.735 19.0026 129.665 18.9126 129.595 18.8226C129.535 18.7226 129.475 18.6026 129.435 18.4726H129.925C129.975 18.6026 130.045 18.6926 130.115 18.7426C130.185 18.8026 130.275 18.8226 130.375 18.8226C130.435 18.8226 130.495 18.8126 130.545 18.7826C130.595 18.7626 130.645 18.7226 130.685 18.6826C130.725 18.6426 130.755 18.5826 130.785 18.5226C130.805 18.4626 130.825 18.3926 130.825 18.3226V18.1226C130.755 18.2026 130.675 18.2626 130.575 18.3026C130.485 18.3426 130.395 18.3626 130.295 18.3626C130.155 18.3626 130.025 18.3326 129.905 18.2726C129.795 18.2126 129.695 18.1326 129.615 18.0226C129.535 17.9226 129.475 17.7926 129.435 17.6526C129.395 17.5126 129.375 17.3626 129.375 17.2026C129.375 17.0426 129.395 16.8926 129.435 16.7526C129.475 16.6126 129.545 16.4926 129.625 16.3826C129.705 16.2826 129.805 16.1926 129.915 16.1326C130.025 16.0726 130.155 16.0426 130.295 16.0426C130.335 16.0426 130.375 16.0426 130.415 16.0426C130.455 16.0426 130.495 16.0626 130.545 16.0726C130.585 16.0926 130.635 16.1126 130.675 16.1526C130.715 16.1826 130.765 16.2326 130.805 16.2826V16.0826L130.815 16.1226ZM130.815 17.2026C130.815 17.1026 130.805 17.0126 130.775 16.9326C130.755 16.8526 130.725 16.7726 130.685 16.7126C130.645 16.6526 130.605 16.6026 130.545 16.5626C130.495 16.5226 130.435 16.5026 130.365 16.5026C130.295 16.5026 130.225 16.5226 130.165 16.5626C130.105 16.6026 130.055 16.6526 130.005 16.7126C129.955 16.7826 129.925 16.8526 129.895 16.9426C129.865 17.0326 129.855 17.1226 129.855 17.2226C129.855 17.3226 129.865 17.4126 129.895 17.5026C129.925 17.5926 129.955 17.6726 130.005 17.7326C130.055 17.8026 130.105 17.8526 130.165 17.8926C130.225 17.9326 130.295 17.9526 130.365 17.9526C130.435 17.9526 130.495 17.9326 130.555 17.8926C130.605 17.8526 130.655 17.8026 130.695 17.7326C130.735 17.6726 130.765 17.5926 130.785 17.5026C130.805 17.4126 130.815 17.3226 130.815 17.2226V17.1926V17.2026ZM132.805 17.5826L132.315 16.1226H131.785C131.875 16.3826 131.955 16.6026 132.025 16.7926C132.095 16.9826 132.155 17.1526 132.205 17.2926C132.255 17.4326 132.305 17.5526 132.335 17.6626C132.375 17.7626 132.405 17.8526 132.425 17.9226C132.455 17.9926 132.475 18.0626 132.495 18.1126C132.515 18.1626 132.535 18.2226 132.555 18.2726C132.525 18.3626 132.505 18.4526 132.485 18.5126C132.465 18.5826 132.445 18.6326 132.415 18.6826C132.395 18.7326 132.365 18.7626 132.345 18.7826C132.315 18.8026 132.285 18.8126 132.255 18.8126C132.235 18.8126 132.195 18.8126 132.165 18.7926C132.125 18.7826 132.075 18.7626 132.025 18.7326V19.1326C132.075 19.1626 132.135 19.1826 132.205 19.2026C132.265 19.2226 132.315 19.2226 132.365 19.2226C132.415 19.2226 132.465 19.2226 132.515 19.1926C132.565 19.1726 132.625 19.1426 132.675 19.1026C132.725 19.0626 132.775 19.0126 132.815 18.9526C132.865 18.8926 132.895 18.8126 132.925 18.7326L133.825 16.1126H133.315L132.825 17.5726L132.805 17.5826ZM137.685 15.8826C137.725 15.9926 137.745 16.1026 137.745 16.2026C137.745 16.3126 137.725 16.4326 137.685 16.5426C137.645 16.6526 137.585 16.7526 137.505 16.8326C137.425 16.9226 137.325 16.9826 137.205 17.0326C137.085 17.0826 136.955 17.1126 136.795 17.1126H136.125V18.3326H135.625V15.2926H136.795C136.945 15.2926 137.085 15.3226 137.205 15.3726C137.325 15.4226 137.425 15.4926 137.505 15.5826C137.585 15.6726 137.645 15.7626 137.685 15.8726V15.8826ZM137.245 16.2026C137.245 16.1326 137.235 16.0726 137.205 16.0126C137.185 15.9526 137.145 15.9026 137.095 15.8626C137.045 15.8226 136.995 15.7926 136.925 15.7626C136.855 15.7426 136.775 15.7226 136.685 15.7226H136.115V16.6726H136.685C136.785 16.6726 136.875 16.6626 136.945 16.6326C137.015 16.6126 137.075 16.5726 137.115 16.5326C137.155 16.4926 137.185 16.4426 137.205 16.3826C137.225 16.3226 137.235 16.2626 137.235 16.1926L137.245 16.2026ZM139.305 16.0826C139.225 16.0826 139.145 16.1126 139.075 16.1626C139.005 16.2126 138.935 16.2926 138.875 16.4026L138.795 16.1326H138.425V18.3526H138.925V17.0326C138.925 16.9726 138.925 16.9026 138.955 16.8526C138.975 16.7926 138.995 16.7426 139.035 16.7026C139.065 16.6626 139.115 16.6226 139.165 16.6026C139.215 16.5726 139.275 16.5626 139.335 16.5626C139.335 16.5626 139.355 16.5626 139.365 16.5626C139.375 16.5626 139.395 16.5626 139.425 16.5626C139.455 16.5626 139.485 16.5726 139.515 16.5826C139.555 16.5826 139.595 16.6126 139.645 16.6326V16.1926C139.565 16.1426 139.495 16.1126 139.445 16.1026C139.385 16.0926 139.345 16.0826 139.325 16.0826H139.305ZM141.915 16.7926C141.965 16.9326 141.985 17.0826 141.985 17.2426C141.985 17.4026 141.965 17.5526 141.915 17.6926C141.875 17.8326 141.805 17.9526 141.715 18.0626C141.625 18.1626 141.525 18.2526 141.395 18.3126C141.265 18.3726 141.125 18.4026 140.965 18.4026C140.805 18.4026 140.655 18.3726 140.525 18.3126C140.395 18.2526 140.295 18.1726 140.205 18.0626C140.115 17.9626 140.055 17.8326 140.005 17.6926C139.955 17.5526 139.935 17.4026 139.935 17.2426C139.935 17.0826 139.955 16.9326 140.005 16.7926C140.055 16.6526 140.115 16.5326 140.205 16.4226C140.295 16.3226 140.395 16.2326 140.525 16.1726C140.655 16.1126 140.795 16.0826 140.955 16.0826C141.115 16.0826 141.265 16.1126 141.385 16.1726C141.515 16.2326 141.615 16.3126 141.705 16.4226C141.795 16.5326 141.855 16.6526 141.905 16.7926H141.915ZM141.485 17.2426C141.485 17.1426 141.475 17.0526 141.445 16.9626C141.415 16.8726 141.385 16.7926 141.335 16.7326C141.285 16.6626 141.235 16.6126 141.175 16.5726C141.115 16.5326 141.035 16.5126 140.965 16.5126C140.895 16.5126 140.815 16.5326 140.745 16.5726C140.685 16.6126 140.625 16.6626 140.585 16.7326C140.545 16.8026 140.505 16.8726 140.485 16.9626C140.465 17.0526 140.445 17.1426 140.445 17.2426C140.445 17.3426 140.455 17.4326 140.485 17.5226C140.505 17.6126 140.545 17.6826 140.585 17.7526C140.625 17.8226 140.685 17.8726 140.745 17.9126C140.805 17.9526 140.885 17.9726 140.965 17.9726C141.045 17.9726 141.115 17.9526 141.175 17.9126C141.235 17.8726 141.295 17.8226 141.335 17.7526C141.375 17.6826 141.415 17.6126 141.445 17.5226C141.465 17.4326 141.485 17.3426 141.485 17.2426ZM145.395 16.3126C145.335 16.2426 145.255 16.1926 145.165 16.1526C145.075 16.1126 144.975 16.0926 144.865 16.0926C144.805 16.0926 144.755 16.0926 144.695 16.1126C144.635 16.1226 144.585 16.1426 144.525 16.1826C144.465 16.2126 144.415 16.2526 144.355 16.3026C144.305 16.3526 144.245 16.4126 144.195 16.4926C144.155 16.4126 144.105 16.3426 144.065 16.2926C144.025 16.2426 143.975 16.2026 143.935 16.1726C143.895 16.1426 143.845 16.1226 143.795 16.1126C143.745 16.1126 143.695 16.0926 143.645 16.0926C143.565 16.0926 143.475 16.1126 143.385 16.1626C143.295 16.2026 143.205 16.2826 143.115 16.3726V16.1326H142.615V18.3526H143.115V17.0326C143.115 16.9826 143.125 16.9226 143.155 16.8626C143.175 16.8026 143.215 16.7526 143.255 16.7026C143.295 16.6526 143.345 16.6126 143.405 16.5826C143.465 16.5526 143.525 16.5326 143.585 16.5326C143.615 16.5326 143.645 16.5326 143.675 16.5526C143.705 16.5626 143.735 16.5826 143.765 16.6126C143.795 16.6426 143.815 16.6826 143.835 16.7226C143.855 16.7726 143.865 16.8326 143.865 16.9026V18.3626H144.365V17.0226C144.365 16.9526 144.375 16.8926 144.405 16.8326C144.435 16.7726 144.465 16.7226 144.505 16.6826C144.545 16.6426 144.595 16.6026 144.645 16.5826C144.695 16.5626 144.745 16.5426 144.795 16.5426C144.835 16.5426 144.865 16.5426 144.905 16.5626C144.945 16.5726 144.975 16.5926 145.005 16.6226C145.035 16.6526 145.055 16.6926 145.075 16.7326C145.095 16.7826 145.105 16.8426 145.105 16.9126V18.3726H145.605V16.8926C145.605 16.7826 145.585 16.6826 145.555 16.5926C145.525 16.5026 145.475 16.4126 145.415 16.3426L145.395 16.3126ZM148.215 16.7926C148.265 16.9326 148.285 17.0826 148.285 17.2426C148.285 17.4026 148.265 17.5526 148.215 17.6926C148.165 17.8326 148.105 17.9526 148.015 18.0626C147.925 18.1626 147.825 18.2526 147.695 18.3126C147.565 18.3726 147.425 18.4026 147.265 18.4026C147.105 18.4026 146.955 18.3726 146.835 18.3126C146.705 18.2526 146.605 18.1726 146.515 18.0626C146.425 17.9626 146.365 17.8326 146.315 17.6926C146.265 17.5526 146.245 17.4026 146.245 17.2426C146.245 17.0826 146.265 16.9326 146.315 16.7926C146.365 16.6526 146.425 16.5326 146.515 16.4226C146.605 16.3226 146.705 16.2326 146.835 16.1726C146.965 16.1126 147.105 16.0826 147.265 16.0826C147.425 16.0826 147.565 16.1126 147.695 16.1726C147.825 16.2326 147.925 16.3126 148.015 16.4226C148.105 16.5326 148.165 16.6526 148.215 16.7926ZM147.785 17.2426C147.785 17.1426 147.775 17.0526 147.745 16.9626C147.725 16.8726 147.685 16.7926 147.645 16.7326C147.595 16.6626 147.545 16.6126 147.485 16.5726C147.425 16.5326 147.345 16.5126 147.275 16.5126C147.205 16.5126 147.125 16.5326 147.055 16.5726C146.995 16.6126 146.935 16.6626 146.895 16.7326C146.855 16.8026 146.815 16.8726 146.795 16.9626C146.775 17.0526 146.755 17.1426 146.755 17.2426C146.755 17.3426 146.765 17.4326 146.795 17.5226C146.815 17.6126 146.855 17.6826 146.895 17.7526C146.945 17.8226 146.995 17.8726 147.055 17.9126C147.115 17.9526 147.195 17.9726 147.275 17.9726C147.355 17.9726 147.425 17.9526 147.485 17.9126C147.545 17.8726 147.605 17.8226 147.645 17.7526C147.695 17.6826 147.725 17.6126 147.745 17.5226C147.775 17.4326 147.785 17.3426 147.785 17.2426ZM149.665 17.9726C149.665 17.9726 149.575 17.9526 149.555 17.9126C149.525 17.8726 149.515 17.8226 149.515 17.7626V16.5526H149.915V16.1326H149.515V15.5226H149.005V16.1326H148.705V16.5526H149.005V17.8126C149.005 17.9026 149.015 17.9826 149.045 18.0526C149.075 18.1226 149.105 18.1826 149.155 18.2326C149.205 18.2826 149.255 18.3226 149.315 18.3526C149.375 18.3826 149.445 18.3926 149.505 18.3926C149.555 18.3926 149.615 18.3926 149.695 18.3826C149.775 18.3826 149.855 18.3526 149.945 18.3226V17.9126C149.865 17.9426 149.795 17.9626 149.755 17.9726C149.705 17.9726 149.675 17.9726 149.665 17.9726ZM150.455 15.8226H150.955V15.3126H150.455V15.8226ZM150.455 18.3426H150.955V16.1226H150.455V18.3426ZM153.505 16.7926C153.555 16.9326 153.575 17.0826 153.575 17.2426C153.575 17.4026 153.555 17.5526 153.505 17.6926C153.455 17.8326 153.395 17.9526 153.305 18.0626C153.215 18.1626 153.115 18.2526 152.985 18.3126C152.855 18.3726 152.715 18.4026 152.555 18.4026C152.395 18.4026 152.245 18.3726 152.125 18.3126C151.995 18.2526 151.895 18.1726 151.805 18.0626C151.715 17.9626 151.655 17.8326 151.605 17.6926C151.555 17.5526 151.535 17.4026 151.535 17.2426C151.535 17.0826 151.555 16.9326 151.605 16.7926C151.655 16.6526 151.715 16.5326 151.805 16.4226C151.895 16.3226 151.995 16.2326 152.125 16.1726C152.255 16.1126 152.395 16.0826 152.555 16.0826C152.715 16.0826 152.865 16.1126 152.985 16.1726C153.115 16.2326 153.215 16.3126 153.305 16.4226C153.395 16.5326 153.455 16.6526 153.505 16.7926ZM153.075 17.2426C153.075 17.1426 153.065 17.0526 153.035 16.9626C153.015 16.8726 152.975 16.7926 152.925 16.7326C152.875 16.6626 152.825 16.6126 152.765 16.5726C152.705 16.5326 152.625 16.5126 152.555 16.5126C152.485 16.5126 152.405 16.5326 152.345 16.5726C152.285 16.6126 152.225 16.6626 152.185 16.7326C152.145 16.8026 152.105 16.8726 152.085 16.9626C152.065 17.0526 152.045 17.1426 152.045 17.2426C152.045 17.3426 152.055 17.4326 152.085 17.5226C152.105 17.6126 152.145 17.6826 152.185 17.7526C152.225 17.8226 152.285 17.8726 152.345 17.9126C152.405 17.9526 152.485 17.9726 152.555 17.9726C152.625 17.9726 152.705 17.9526 152.765 17.9126C152.825 17.8726 152.885 17.8226 152.925 17.7526C152.975 17.6826 153.005 17.6126 153.035 17.5226C153.065 17.4326 153.075 17.3426 153.075 17.2426ZM155.825 16.2826C155.765 16.2226 155.685 16.1726 155.605 16.1426C155.515 16.1126 155.415 16.0926 155.305 16.0926C155.195 16.0926 155.095 16.1126 154.985 16.1626C154.885 16.2126 154.785 16.2926 154.695 16.3926V16.1326H154.195V18.3526H154.695V17.0326C154.695 16.9626 154.705 16.9026 154.735 16.8426C154.765 16.7826 154.805 16.7226 154.845 16.6826C154.895 16.6326 154.945 16.5926 155.005 16.5626C155.065 16.5326 155.135 16.5226 155.195 16.5226C155.235 16.5226 155.275 16.5226 155.315 16.5426C155.355 16.5626 155.385 16.5826 155.405 16.6126C155.435 16.6426 155.455 16.6826 155.465 16.7226C155.475 16.7626 155.485 16.8126 155.485 16.8726V18.3526H155.995V16.7926C155.995 16.6826 155.975 16.5926 155.945 16.5026C155.915 16.4126 155.865 16.3426 155.805 16.2826H155.825ZM159.585 15.3126L160.665 18.3526H160.145L159.825 17.4626H158.755C158.705 17.6126 158.655 17.7626 158.595 17.9126C158.535 18.0626 158.485 18.2126 158.435 18.3526H157.915L158.995 15.3126H159.575H159.585ZM159.665 17.0326L159.295 15.9526L158.915 17.0326H159.665ZM162.685 16.1326H163.185V18.3226C163.185 18.4826 163.155 18.6126 163.105 18.7326C163.055 18.8526 162.985 18.9526 162.895 19.0226C162.805 19.1026 162.705 19.1626 162.595 19.2026C162.485 19.2426 162.365 19.2626 162.245 19.2626C162.135 19.2626 162.035 19.2426 161.945 19.2126C161.855 19.1826 161.765 19.1326 161.685 19.0726C161.605 19.0126 161.535 18.9226 161.465 18.8326C161.405 18.7326 161.345 18.6126 161.305 18.4826H161.795C161.845 18.6126 161.915 18.7026 161.985 18.7526C162.055 18.8126 162.145 18.8326 162.245 18.8326C162.305 18.8326 162.365 18.8226 162.415 18.7926C162.465 18.7726 162.515 18.7326 162.555 18.6926C162.595 18.6526 162.625 18.5926 162.655 18.5326C162.675 18.4726 162.695 18.4026 162.695 18.3326V18.1326C162.625 18.2126 162.545 18.2726 162.445 18.3126C162.355 18.3526 162.255 18.3726 162.165 18.3726C162.025 18.3726 161.895 18.3426 161.775 18.2826C161.665 18.2226 161.565 18.1426 161.485 18.0326C161.405 17.9326 161.345 17.8026 161.305 17.6626C161.265 17.5226 161.245 17.3726 161.245 17.2126C161.245 17.0526 161.265 16.9026 161.305 16.7626C161.345 16.6226 161.415 16.5026 161.495 16.3926C161.575 16.2926 161.675 16.2026 161.785 16.1426C161.895 16.0826 162.025 16.0526 162.165 16.0526C162.205 16.0526 162.245 16.0526 162.285 16.0526C162.325 16.0526 162.365 16.0726 162.415 16.0826C162.455 16.1026 162.505 16.1226 162.545 16.1626C162.585 16.1926 162.635 16.2426 162.675 16.2926V16.0926L162.685 16.1326ZM162.685 17.2126C162.685 17.1126 162.675 17.0226 162.645 16.9426C162.625 16.8626 162.595 16.7826 162.555 16.7226C162.515 16.6626 162.475 16.6126 162.415 16.5726C162.365 16.5326 162.295 16.5126 162.235 16.5126C162.175 16.5126 162.095 16.5326 162.035 16.5726C161.975 16.6126 161.915 16.6626 161.875 16.7226C161.835 16.7926 161.795 16.8626 161.765 16.9526C161.735 17.0426 161.725 17.1326 161.725 17.2326C161.725 17.3326 161.735 17.4226 161.765 17.5126C161.795 17.6026 161.825 17.6826 161.875 17.7426C161.925 17.8126 161.975 17.8626 162.035 17.9026C162.095 17.9426 162.165 17.9626 162.235 17.9626C162.305 17.9626 162.365 17.9426 162.425 17.9026C162.475 17.8626 162.525 17.8126 162.565 17.7426C162.605 17.6826 162.635 17.6026 162.655 17.5126C162.675 17.4226 162.685 17.3326 162.685 17.2326V17.2026V17.2126ZM165.715 16.7426C165.765 16.8726 165.785 17.0226 165.785 17.1726V17.3726H164.295C164.295 17.4526 164.325 17.5326 164.345 17.6026C164.375 17.6726 164.405 17.7426 164.455 17.7926C164.505 17.8426 164.555 17.8926 164.605 17.9226C164.665 17.9526 164.725 17.9726 164.795 17.9726C164.915 17.9726 165.015 17.9426 165.095 17.8726C165.175 17.8026 165.245 17.7026 165.285 17.5626H165.745C165.715 17.6926 165.675 17.8126 165.615 17.9126C165.555 18.0126 165.475 18.1026 165.395 18.1726C165.305 18.2426 165.215 18.3026 165.105 18.3326C165.005 18.3726 164.895 18.3926 164.785 18.3926C164.625 18.3926 164.485 18.3626 164.365 18.2926C164.235 18.2326 164.135 18.1426 164.045 18.0326C163.955 17.9226 163.895 17.8026 163.845 17.6526C163.795 17.5126 163.775 17.3626 163.775 17.2026C163.775 17.0526 163.795 16.9126 163.845 16.7726C163.895 16.6326 163.965 16.5126 164.045 16.4126C164.135 16.3126 164.245 16.2226 164.365 16.1626C164.495 16.1026 164.635 16.0726 164.785 16.0726C164.935 16.0726 165.075 16.1026 165.195 16.1526C165.315 16.2126 165.425 16.2826 165.505 16.3826C165.595 16.4826 165.655 16.5926 165.705 16.7226L165.715 16.7426ZM165.275 16.9826C165.275 16.9126 165.255 16.8526 165.225 16.7926C165.195 16.7326 165.165 16.6826 165.125 16.6426C165.085 16.6026 165.035 16.5726 164.975 16.5426C164.915 16.5226 164.855 16.5126 164.785 16.5126C164.725 16.5126 164.665 16.5226 164.605 16.5526C164.555 16.5826 164.505 16.6126 164.465 16.6526C164.425 16.6926 164.385 16.7426 164.355 16.8026C164.325 16.8626 164.305 16.9226 164.295 16.9826H165.275ZM168.045 16.2726C167.985 16.2126 167.905 16.1626 167.825 16.1326C167.735 16.1026 167.635 16.0826 167.525 16.0826C167.415 16.0826 167.315 16.1026 167.205 16.1526C167.105 16.2026 167.005 16.2826 166.905 16.3826V16.1226H166.405V18.3426H166.905V17.0226C166.905 16.9526 166.915 16.8926 166.945 16.8326C166.975 16.7726 167.015 16.7126 167.065 16.6726C167.115 16.6226 167.165 16.5826 167.225 16.5526C167.285 16.5226 167.355 16.5126 167.415 16.5126C167.455 16.5126 167.495 16.5126 167.535 16.5326C167.575 16.5526 167.605 16.5726 167.625 16.6026C167.655 16.6326 167.675 16.6726 167.685 16.7126C167.695 16.7526 167.705 16.8026 167.705 16.8626V18.3426H168.215V16.7826C168.215 16.6726 168.195 16.5826 168.165 16.4926C168.135 16.4026 168.085 16.3326 168.025 16.2726H168.045ZM169.475 16.7126C169.515 16.6526 169.565 16.5926 169.625 16.5626C169.685 16.5226 169.755 16.5026 169.835 16.5026C169.935 16.5026 170.025 16.5326 170.085 16.6026C170.155 16.6626 170.205 16.7726 170.245 16.9126H170.755C170.735 16.7926 170.695 16.6826 170.645 16.5826C170.595 16.4826 170.535 16.3926 170.455 16.3226C170.375 16.2526 170.285 16.1926 170.185 16.1426C170.085 16.1026 169.965 16.0826 169.835 16.0826C169.685 16.0826 169.545 16.1126 169.425 16.1626C169.305 16.2226 169.195 16.2926 169.115 16.3926C169.025 16.4926 168.965 16.6126 168.915 16.7426C168.865 16.8826 168.845 17.0326 168.845 17.1926C168.845 17.2926 168.845 17.3926 168.875 17.4826C168.895 17.5826 168.915 17.6726 168.955 17.7626C168.985 17.8526 169.035 17.9326 169.085 18.0126C169.135 18.0926 169.195 18.1526 169.275 18.2026C169.345 18.2626 169.425 18.3026 169.515 18.3326C169.605 18.3626 169.705 18.3826 169.815 18.3826C169.945 18.3826 170.075 18.3626 170.175 18.3226C170.285 18.2826 170.375 18.2226 170.455 18.1426C170.535 18.0626 170.605 17.9626 170.655 17.8526C170.705 17.7426 170.735 17.6126 170.755 17.4626H170.235C170.225 17.5326 170.205 17.5926 170.185 17.6526C170.165 17.7126 170.135 17.7626 170.095 17.8126C170.065 17.8626 170.025 17.8926 169.975 17.9226C169.925 17.9526 169.875 17.9626 169.815 17.9626C169.745 17.9626 169.675 17.9426 169.615 17.8926C169.555 17.8526 169.505 17.7926 169.465 17.7226C169.425 17.6526 169.395 17.5726 169.365 17.4826C169.345 17.3926 169.335 17.2926 169.335 17.2026C169.335 17.1126 169.345 17.0226 169.365 16.9426C169.385 16.8626 169.415 16.7826 169.455 16.7226L169.475 16.7126ZM172.605 16.1226L172.115 17.5826L171.615 16.1226H171.085C171.175 16.3826 171.255 16.6026 171.325 16.7926C171.395 16.9826 171.455 17.1526 171.505 17.2926C171.555 17.4326 171.605 17.5526 171.635 17.6626C171.675 17.7626 171.705 17.8526 171.725 17.9226C171.755 17.9926 171.775 18.0626 171.795 18.1126C171.815 18.1626 171.835 18.2226 171.855 18.2726C171.825 18.3626 171.805 18.4526 171.785 18.5126C171.765 18.5826 171.745 18.6326 171.715 18.6826C171.695 18.7326 171.665 18.7626 171.645 18.7826C171.615 18.8026 171.585 18.8126 171.555 18.8126C171.535 18.8126 171.495 18.8126 171.465 18.7926C171.425 18.7826 171.375 18.7626 171.325 18.7326V19.1326C171.385 19.1626 171.435 19.1826 171.505 19.2026C171.565 19.2226 171.615 19.2226 171.665 19.2226C171.715 19.2226 171.765 19.2226 171.815 19.1926C171.865 19.1726 171.925 19.1426 171.975 19.1026C172.025 19.0626 172.075 19.0126 172.115 18.9526C172.165 18.8926 172.195 18.8126 172.225 18.7326L173.125 16.1126H172.615L172.605 16.1226Z" fill="white"/>
</g>
<defs>
<clipPath id="clip0_21_20085">
<rect width="172.31" height="19.62" fill="white" transform="translate(0.845215 0.722656)"/>
</clipPath>
</defs>
</svg>
