<svg width="176" height="26" viewBox="0 0 176 26" fill="none" xmlns="http://www.w3.org/2000/svg">
<g clip-path="url(#clip0_21_11616)">
<path d="M37.3103 10.1504C37.0989 10.1504 36.8876 10.3177 36.8435 10.5379L36.685 11.2426C36.6409 11.454 36.7731 11.6301 36.9844 11.6301H40.9656L38.4289 23.098C38.3497 23.468 38.3673 23.8467 38.517 24.1638C38.702 24.5866 39.2657 25.2824 39.5828 25.5731C39.5916 25.5819 39.6004 25.5907 39.6092 25.5995C39.8911 25.8549 40.2786 25.9958 40.6838 25.9958H42.2692C42.4806 25.9958 42.692 25.8197 42.736 25.6171L45.8364 11.6301H49.2803C49.4917 11.6301 49.7031 11.4628 49.7471 11.2426L49.9937 10.1504H37.3103Z" fill="#00448A"/>
<path d="M24.1778 10.1504C23.9664 10.1504 23.755 10.3178 23.711 10.538L20.9277 23.0981C20.8484 23.468 20.8748 23.8467 21.0158 24.1638C21.2007 24.5866 21.7644 25.2824 22.0815 25.5731C22.0903 25.5819 22.0991 25.5907 22.1079 25.5995C22.3898 25.8549 22.7685 25.9959 23.1913 25.9959H31.4443C31.6557 25.9959 31.8671 25.8197 31.9112 25.6171L32.1578 24.5249H25.4902L26.873 18.2625H32.3339C32.5453 18.2625 32.7567 18.0952 32.8008 17.8838L33.0386 16.7916H27.1901L28.3351 11.6213H34.624C34.8354 11.6213 35.0468 11.454 35.0908 11.2338L35.3286 10.1416H24.169L24.1778 10.1504Z" fill="#00448A"/>
<path d="M1.16272 13.797L0.0441139 18.7999C-0.0439654 19.1699 -0.00873364 19.5486 0.132193 19.8657C0.31716 20.2885 0.880867 20.9843 1.19795 21.275C1.20676 21.275 1.21557 21.2926 1.22438 21.3014C1.50623 21.5568 1.89378 21.6889 2.30775 21.6889H3.89318C4.10457 21.6889 4.31596 21.5216 4.36 21.3102L6.89668 9.84229C4.93251 10.8904 2.99477 12.194 1.15391 13.7794L1.16272 13.797Z" fill="#00448A"/>
<path d="M18.347 10.1504H9.9178C9.70641 10.1504 9.49502 10.3177 9.45098 10.5379L8.67588 14.0171L7.98005 17.1527L6.66767 23.0892C6.5884 23.4592 6.61482 23.8379 6.75575 24.155C6.94072 24.5778 7.50442 25.2736 7.82151 25.5731C7.83032 25.5819 7.84793 25.5907 7.85674 25.5995C8.13859 25.8549 8.52614 25.9958 8.93131 25.9958H10.5167C10.7281 25.9958 10.9395 25.8285 10.9836 25.6171L11.9965 21.0194H15.9424C18.0651 21.0194 20.1966 19.2754 20.6635 17.1527L21.3593 14.0171C21.8261 11.8944 20.4785 10.1504 18.347 10.1504ZM17.3341 12.555C17.3165 12.6606 17.2988 12.7399 17.2812 12.8104L15.9776 18.606C15.8191 19.3371 15.3875 19.5573 14.771 19.5573H12.3224L14.1104 11.6037H16.4973C16.9465 11.6037 17.4662 11.7887 17.3341 12.555Z" fill="#00448A"/>
<path d="M1.15381 13.7968C2.99467 12.2025 4.93241 10.9078 6.89658 9.8508C20.9716 2.32883 36.8876 7.44624 36.8876 7.44624C36.8876 7.44624 40.8687 6.60949 44.1629 5.83439C14.8237 -5.1579 1.15381 13.7968 1.15381 13.7968Z" fill="#80C244"/>
<path d="M33.3557 1.70371C31.9465 1.18404 30.6693 0.840528 29.7004 0.646754C25.8338 -0.154767 16.6295 -1.16768 9.29248 4.23158C3.71706 8.45938 1.427 13.0131 1.427 13.0131C12.067 0.338477 27.7891 0.999071 33.3557 1.70371Z" fill="#00A8A1"/>
<path d="M169.966 18.9672C171.79 18.9672 172.996 18.2273 172.996 16.8533C172.996 15.4792 171.763 14.6953 169.966 14.6953C168.17 14.6953 166.919 15.4704 166.919 16.8533C166.919 18.2361 168.196 18.9672 169.966 18.9672ZM169.966 15.9637C170.927 15.9637 171.376 16.316 171.376 16.8533C171.376 17.3553 170.918 17.6636 169.975 17.6636C169.033 17.6636 168.557 17.3465 168.557 16.8533C168.557 16.316 168.998 15.9637 169.966 15.9637Z" fill="#00448A"/>
<path d="M149.092 21.3369C146.564 21.3369 145.163 22.2089 145.163 23.6358C145.163 25.0627 146.564 25.9963 149.092 25.9963C151.62 25.9963 153.02 25.1507 153.02 23.6358C153.02 22.1208 151.655 21.3369 149.092 21.3369ZM149.1 24.6487C147.841 24.6487 146.96 24.2964 146.96 23.6446C146.96 22.9928 147.841 22.6581 149.1 22.6581C150.36 22.6581 151.25 22.9576 151.25 23.6446C151.25 24.3316 150.342 24.6487 149.1 24.6487Z" fill="#00448A"/>
<path d="M115.437 16.642C116.282 17.5139 117.859 18.0865 119.374 18.4212L120.166 17.2497C118.555 16.9326 116.37 16.1839 116.37 15.0477V14.4224H114.89C114.714 14.4224 114.573 14.5633 114.573 14.7394V15.0565C114.573 16.2016 112.283 16.959 110.742 17.2497L111.605 18.4652C113.12 18.0953 114.635 17.5139 115.437 16.6508V16.642Z" fill="#00448A"/>
<path d="M60.5104 19.399V18.4566H63.4258C63.5932 18.4566 63.7341 18.3156 63.7341 18.1395V17.0737H57.4981V14.5723H56.0184C55.851 14.5723 55.7013 14.7132 55.7013 14.8893V17.6462C55.7013 17.7519 55.7277 17.8576 55.7894 17.9457C55.8686 18.0602 56.0624 18.254 56.1769 18.3421C56.1769 18.3421 56.1769 18.3421 56.1857 18.3421C56.2826 18.4125 56.3971 18.4478 56.5116 18.4478H58.7048V19.3902H54.5827C54.4153 19.3902 54.2744 19.5311 54.2744 19.7073V19.9803C54.2744 20.086 54.3008 20.1917 54.3625 20.2798C54.4418 20.3943 54.6355 20.5881 54.75 20.6673C54.75 20.6673 54.75 20.6673 54.7588 20.6762C54.8557 20.7466 54.9702 20.7819 55.0847 20.7819H64.6061C64.7823 20.7819 64.9232 20.6409 64.9232 20.4648V19.3814H60.5104V19.399Z" fill="#00448A"/>
<path d="M59.6385 21.2749C56.8376 21.2749 55.5076 22.323 55.5076 23.6266C55.5076 24.9302 56.8464 25.9871 59.6385 25.9871C62.4306 25.9871 63.7077 24.9742 63.7077 23.6266C63.7077 22.279 62.3337 21.2749 59.6385 21.2749ZM59.6385 24.6219C58.1499 24.6219 57.2868 24.2696 57.2868 23.6442C57.2868 22.9836 58.1499 22.6401 59.6385 22.6401C61.0478 22.6401 61.9462 23.0101 61.9462 23.6442C61.9462 24.2784 61.0478 24.6219 59.6385 24.6219Z" fill="#00448A"/>
<path d="M72.225 20.5002C72.3924 20.4738 72.5157 20.324 72.5245 20.1567V19.1878C70.6836 19.3375 69.477 19.408 68.0501 19.408V18.4744H71.2121C71.3883 18.4744 71.5204 18.3334 71.5204 18.1573V14.9424H66.6496C66.4735 14.9424 66.3325 15.0833 66.3325 15.2507V15.4444C66.3325 15.5501 66.3678 15.647 66.4206 15.7439C66.4999 15.8672 66.6937 16.0522 66.8082 16.1403C66.905 16.2107 67.0196 16.246 67.1341 16.246H69.794V17.1972H66.6408C66.4647 17.1972 66.3237 17.3381 66.3237 17.5143V19.9101C66.3237 20.0157 66.359 20.1214 66.4118 20.2095C66.4911 20.324 66.6848 20.5178 66.7994 20.6059C66.8874 20.6763 66.9931 20.7116 67.0988 20.7116C68.7019 20.7116 70.5868 20.6499 72.2074 20.4826L72.225 20.5002Z" fill="#00448A"/>
<path d="M73.6696 14.5107C73.4934 14.5107 73.3613 14.6517 73.3613 14.8278V20.2095C73.3613 20.3152 73.3878 20.4209 73.4494 20.5089C73.5287 20.6323 73.7313 20.8172 73.837 20.9053C73.837 20.9053 73.837 20.9053 73.8458 20.9141C73.9426 20.9846 74.0572 21.0198 74.1717 21.0198H74.8234C74.9996 21.0198 75.1317 20.8789 75.1317 20.7115V14.5196H73.6696V14.5107Z" fill="#00448A"/>
<path d="M67.8385 21.5571C67.6712 21.5571 67.5303 21.6981 67.5303 21.8742V24.9306C67.5303 25.0363 67.5567 25.142 67.6184 25.23C67.6976 25.3445 67.8914 25.5383 68.0059 25.6176C68.0059 25.6176 68.0147 25.6176 68.0147 25.6264C68.1116 25.6969 68.2261 25.7321 68.3406 25.7321H74.8144C74.9906 25.7321 75.1227 25.5912 75.1227 25.4238V21.5571H67.8385ZM73.3964 24.3757H69.2566V22.9136H73.3964V24.3757Z" fill="#00448A"/>
<path d="M84.9435 14.5107C84.7762 14.5107 84.6353 14.6517 84.6353 14.8278V20.2887C84.6353 20.3944 84.6617 20.5001 84.7233 20.5882C84.8026 20.7027 84.9964 20.8965 85.1109 20.9846C85.1109 20.9846 85.1109 20.9846 85.1197 20.9846C85.2166 21.055 85.3311 21.0903 85.4456 21.0903H86.0974C86.2735 21.0903 86.4145 20.9493 86.4145 20.782V14.5107H84.9523H84.9435Z" fill="#00448A"/>
<path d="M78.9103 21.6714C78.743 21.6714 78.6021 21.8124 78.6021 21.9797V22.2616C78.6021 22.3673 78.6285 22.4641 78.6901 22.5522C78.7694 22.6755 78.972 22.8693 79.0777 22.9486C79.0777 22.9486 79.0777 22.9486 79.0865 22.9486C79.1746 23.019 79.2891 23.0543 79.3948 23.0543H84.6267V25.0537C84.6267 25.1594 84.6531 25.2563 84.7148 25.3443C84.794 25.4676 84.9878 25.6526 85.1023 25.7407C85.1023 25.7407 85.1023 25.7407 85.1111 25.7495C85.208 25.82 85.3225 25.8552 85.437 25.8552H86.0888C86.2649 25.8552 86.4059 25.7143 86.4059 25.5381V21.6538H78.9103V21.6714Z" fill="#00448A"/>
<path d="M174.335 14.5108C174.159 14.5108 174.018 14.6517 174.018 14.8279V21.1255H172.019C171.843 21.1255 171.702 21.2665 171.702 21.4426V21.5571C171.702 21.6628 171.737 21.7685 171.79 21.8566C171.869 21.9711 172.072 22.1649 172.177 22.2441C172.177 22.2441 172.186 22.2441 172.186 22.2529C172.283 22.3234 172.397 22.3586 172.512 22.3586H174.009V22.4203C174.009 22.526 174.036 22.6229 174.097 22.7198C174.177 22.8431 174.37 23.0369 174.476 23.1161C174.476 23.1161 174.485 23.1161 174.485 23.1249C174.582 23.1954 174.696 23.2306 174.811 23.2306H175.427C175.604 23.2306 175.736 23.0897 175.736 22.9135V14.4932H174.309L174.335 14.5108Z" fill="#00448A"/>
<path d="M89.3212 14.7749C89.1451 14.7749 89.0129 14.9158 89.0129 15.0832V15.2858C89.0129 15.3915 89.0394 15.4972 89.101 15.5853C89.1803 15.6998 89.3741 15.8935 89.4886 15.9728C89.4886 15.9728 89.4886 15.9728 89.4974 15.9816C89.5943 16.0521 89.7088 16.0873 89.8233 16.0873H97.1515C97.3188 16.0873 97.4597 15.9464 97.4597 15.779V14.7661H89.3212V14.7749Z" fill="#00448A"/>
<path d="M97.3893 19.2226C97.5566 19.2226 97.6975 19.0817 97.6975 18.9055V17.9014H96.1209L96.3147 16.5186H94.5531L94.4034 17.9014H92.1045L91.8931 16.5186H90.1844L90.431 17.9014H89.101C88.9337 17.9014 88.7927 18.0423 88.7927 18.2185V18.4035C88.7927 18.5091 88.8192 18.6148 88.8808 18.7029C88.9601 18.8174 89.1539 19.0112 89.2684 19.0905C89.2684 19.0905 89.2684 19.0905 89.2772 19.0993C89.3741 19.1697 89.4886 19.205 89.6031 19.205H97.3981L97.3893 19.2226Z" fill="#00448A"/>
<path d="M88.2289 19.8833C88.0616 19.8833 87.9207 20.0242 87.9207 20.2004V20.4558C87.9207 20.5615 87.9559 20.6672 88.0087 20.7553C88.088 20.8698 88.2818 21.0636 88.3963 21.1429C88.3963 21.1429 88.3963 21.1429 88.4051 21.1517C88.502 21.2221 88.6165 21.2574 88.731 21.2574H92.3246V22.0148H89.6118C89.4356 22.0148 89.2947 22.1558 89.2947 22.3319V24.9215C89.2947 25.0272 89.3211 25.1328 89.3828 25.2209C89.462 25.3354 89.6558 25.5292 89.7703 25.6085C89.7703 25.6085 89.7791 25.6085 89.7791 25.6173C89.876 25.6877 89.9905 25.723 90.105 25.723H96.9224C97.0985 25.723 97.2394 25.582 97.2394 25.4147V22.0148H94.1655V21.2574H98.2524C98.4285 21.2574 98.5694 21.1164 98.5694 20.9403V19.8745H88.2377L88.2289 19.8833ZM95.5043 23.3625V24.3754H91.021V23.3625H95.5043Z" fill="#00448A"/>
<path d="M107.131 14.5108C106.955 14.5108 106.823 14.6517 106.823 14.8279V25.0098C106.823 25.1155 106.849 25.2212 106.911 25.3093C106.99 25.4238 107.192 25.6176 107.298 25.6968C107.298 25.6968 107.298 25.6968 107.307 25.6968C107.404 25.7673 107.518 25.8025 107.633 25.8025H108.293C108.47 25.8025 108.611 25.6616 108.611 25.4855V14.4932H107.14L107.131 14.5108Z" fill="#00448A"/>
<path d="M110.451 18.8531C110.275 18.8531 110.134 18.994 110.134 19.1702V19.408C110.134 19.5137 110.17 19.6194 110.231 19.7074C110.31 19.8307 110.513 20.0157 110.619 20.1038C110.619 20.1038 110.619 20.1038 110.628 20.1038C110.724 20.1743 110.839 20.2095 110.953 20.2095H114.547V20.8701H111.834C111.667 20.8701 111.517 21.011 111.517 21.1872V21.3457C111.517 21.4514 111.552 21.5483 111.614 21.6364C111.693 21.7597 111.896 21.9535 112.002 22.0327H112.01C112.107 22.1032 112.222 22.1384 112.336 22.1384H117.647V22.6933H111.843C111.676 22.6933 111.526 22.8342 111.526 23.0104V25.045C111.526 25.1507 111.561 25.2564 111.623 25.3445C111.702 25.4678 111.905 25.6528 112.01 25.7409C112.01 25.7409 112.019 25.7409 112.019 25.7497C112.116 25.8201 112.231 25.8554 112.345 25.8554H119.427C119.594 25.8554 119.744 25.7144 119.744 25.5383V24.5782H113.358V23.9529H119.162C119.339 23.9529 119.479 23.8119 119.479 23.6358V20.8613H116.406V20.2007H120.492C120.669 20.2007 120.809 20.0598 120.809 19.8836V18.8354H110.478L110.451 18.8531Z" fill="#00448A"/>
<path d="M129.159 14.5108C128.983 14.5108 128.851 14.6517 128.851 14.8278V25.0098C128.851 25.1155 128.878 25.2212 128.939 25.3093C129.018 25.4238 129.212 25.6176 129.327 25.6968C129.327 25.6968 129.336 25.6968 129.336 25.7056C129.432 25.7761 129.547 25.8113 129.661 25.8113H130.322C130.498 25.8113 130.639 25.6704 130.639 25.4942V14.502H129.168L129.159 14.5108Z" fill="#00448A"/>
<path d="M140.337 14.5108C140.16 14.5108 140.02 14.6517 140.02 14.8278V21.1431C140.02 21.2488 140.046 21.3545 140.116 21.4426C140.196 21.5571 140.398 21.7509 140.504 21.839C140.504 21.839 140.504 21.839 140.513 21.839C140.61 21.9094 140.724 21.9447 140.839 21.9447H141.455C141.623 21.9447 141.772 21.8037 141.772 21.6276V14.502H140.345L140.337 14.5108Z" fill="#00448A"/>
<path d="M134.11 22.4644C133.933 22.4644 133.801 22.6053 133.801 22.7814V23.0193C133.801 23.1249 133.828 23.2218 133.889 23.3187C133.969 23.4332 134.162 23.627 134.277 23.7151C134.277 23.7151 134.277 23.7151 134.286 23.7151C134.383 23.7855 134.497 23.8296 134.612 23.8296H140.028V25.0627C140.028 25.1684 140.055 25.2741 140.117 25.3622C140.196 25.4855 140.39 25.6704 140.504 25.7585C140.504 25.7585 140.504 25.7585 140.513 25.7673C140.61 25.8378 140.724 25.873 140.839 25.873H141.447C141.614 25.873 141.764 25.7321 141.764 25.5559V22.4644H134.11Z" fill="#00448A"/>
<path d="M149.4 16.3779C149.567 16.3779 149.708 16.237 149.708 16.0696V15.0127H143.869C143.692 15.0127 143.552 15.1536 143.552 15.3298V15.5764C143.552 15.6821 143.578 15.7878 143.64 15.8759C143.719 15.9904 143.921 16.1841 144.027 16.2722C144.027 16.2722 144.027 16.2722 144.036 16.281C144.133 16.3515 144.247 16.3867 144.362 16.3867H149.4V16.3779Z" fill="#00448A"/>
<path d="M136.866 15.4354V14.3696H135.466C135.29 14.3696 135.149 14.5106 135.149 14.6867V15.4442H132.973C132.797 15.4442 132.665 15.5851 132.665 15.7613V15.8846C132.665 15.9903 132.691 16.096 132.753 16.1841C132.832 16.2986 133.026 16.4923 133.141 16.5804C133.141 16.5804 133.149 16.5804 133.158 16.5804C133.255 16.6509 133.37 16.6861 133.484 16.6861H138.883C139.06 16.6861 139.201 16.5452 139.201 16.369V15.4442H136.893L136.866 15.4354Z" fill="#00448A"/>
<path d="M163.317 18.5976V14.5107H161.846C161.669 14.5107 161.529 14.6517 161.529 14.8278V25.0098C161.529 25.1155 161.555 25.2212 161.617 25.3093C161.696 25.4238 161.89 25.6175 161.995 25.6968C161.995 25.6968 161.995 25.6968 162.004 25.6968C162.101 25.7673 162.216 25.8025 162.33 25.8025H162.991C163.167 25.8025 163.308 25.6616 163.308 25.4854V20.0245H164.964C165.14 20.0245 165.281 19.8836 165.281 19.7074V18.5712H163.317V18.5976Z" fill="#00448A"/>
<path d="M166.62 19.5489C166.452 19.5489 166.311 19.6899 166.311 19.866V19.9981C166.311 20.1038 166.347 20.2007 166.399 20.2976C166.479 20.4121 166.681 20.6059 166.787 20.694C166.787 20.694 166.796 20.694 166.796 20.7028C166.893 20.7732 167.007 20.8085 167.122 20.8085H168.777V21.4514C168.777 21.5571 168.804 21.654 168.866 21.7509C168.945 21.8654 169.147 22.0592 169.253 22.1473C169.253 22.1473 169.253 22.1473 169.262 22.1473C169.359 22.2177 169.473 22.253 169.588 22.253H170.187C170.363 22.253 170.504 22.112 170.504 21.9447V20.7556C171.596 20.7204 172.609 20.6499 173.516 20.5266V19.2759C171.543 19.4873 169.218 19.5489 166.611 19.5577L166.62 19.5489Z" fill="#00448A"/>
<path d="M169.632 24.1995V22.6934H168.134C167.958 22.6934 167.826 22.8343 167.826 23.0104V24.772C167.826 24.8777 167.853 24.9834 167.914 25.0715C167.994 25.1948 168.187 25.3798 168.302 25.4679C168.302 25.4679 168.302 25.4679 168.311 25.4767C168.407 25.5471 168.522 25.5824 168.637 25.5824H175.692C175.859 25.5824 176 25.4414 176 25.2653V24.1995H169.632Z" fill="#00448A"/>
<path d="M149.647 19.4343C149.382 19.4608 149.136 19.4784 148.872 19.496L148.986 17.0386H147.577C147.409 17.0386 147.268 17.1707 147.251 17.338L147.18 19.6017C146.819 19.6105 146.581 19.6281 146.203 19.6369L146.132 17.0386H144.732C144.564 17.0386 144.432 17.1707 144.432 17.338L144.512 19.681H143.622C143.446 19.681 143.305 19.8219 143.305 19.998V20.183C143.305 20.2887 143.331 20.3944 143.393 20.4825C143.472 20.6058 143.666 20.7908 143.772 20.8788C143.772 20.8788 143.772 20.8788 143.781 20.8876C143.869 20.9493 143.974 20.9845 144.071 20.9933C146.203 20.9845 148.123 20.9053 149.796 20.7203C149.973 20.7027 150.105 20.5441 150.105 20.368V19.3903L149.629 19.4343H149.647Z" fill="#00448A"/>
<path d="M151.496 14.5108C151.32 14.5108 151.179 14.6517 151.179 14.8279V16.105H150.166C149.999 16.105 149.858 16.2459 149.858 16.4221V16.6423C149.858 16.748 149.885 16.8537 149.946 16.9418C150.026 17.0563 150.219 17.25 150.334 17.3381C150.334 17.3381 150.334 17.3381 150.343 17.3469C150.439 17.4174 150.554 17.4526 150.668 17.4526H151.179V18.1837H150.175C149.999 18.1837 149.858 18.3246 149.858 18.492V18.7474C149.858 18.8531 149.893 18.95 149.946 19.0381C150.026 19.1614 150.219 19.3463 150.334 19.4344C150.334 19.4344 150.334 19.4344 150.343 19.4344C150.431 19.5049 150.536 19.5401 150.642 19.5401H151.179V20.3152C151.179 20.4209 151.206 20.5266 151.267 20.6147C151.347 20.738 151.54 20.9229 151.646 21.011C151.646 21.011 151.655 21.011 151.664 21.0198C151.761 21.0903 151.875 21.1255 151.99 21.1255H152.641C152.818 21.1255 152.959 20.9846 152.959 20.8084V14.4932H151.496V14.5108Z" fill="#00448A"/>
<path d="M136.858 20.6936V20.2796C138.091 20.077 138.857 19.4693 138.857 18.6502C138.857 17.5139 137.624 16.9326 135.95 16.9326C134.277 16.9326 133.088 17.5492 133.088 18.6502C133.088 19.4869 133.907 20.1035 135.149 20.2884V20.7553C134.242 20.7817 132.621 20.7905 132.621 20.7905C132.454 20.7905 132.304 20.9314 132.304 21.1076V21.2309C132.304 21.3366 132.33 21.4423 132.392 21.5304C132.471 21.6449 132.674 21.8386 132.78 21.9179C132.78 21.9179 132.788 21.9179 132.788 21.9267C132.876 21.9972 132.991 22.0324 133.105 22.0324C135.378 22.0324 137.483 21.9884 139.218 21.7594C139.386 21.7329 139.518 21.5744 139.518 21.407V20.4822C138.69 20.5703 137.8 20.6584 136.858 20.7024V20.6936ZM134.735 18.6502C134.735 18.2538 135.351 18.0512 135.95 18.0512C136.664 18.0512 137.192 18.2626 137.192 18.6502C137.192 18.9849 136.69 19.1963 135.95 19.1963C135.299 19.1963 134.735 18.9937 134.735 18.6502Z" fill="#00448A"/>
<path d="M81.262 16.7038V14.8101H79.8087C79.6326 14.8101 79.4916 14.951 79.4916 15.1271V16.7214C79.4916 18.1923 78.1704 19.1348 76.8316 19.8306C76.6819 19.9098 76.6555 20.086 76.77 20.2269L77.5363 21.1341C78.6284 20.5616 79.8263 19.813 80.4517 18.8969C81.1387 19.7337 82.1957 20.3855 83.2614 20.7906L83.9925 19.5928C82.6801 19.0379 81.262 18.2099 81.262 16.7126V16.7038Z" fill="#00448A"/>
<path d="M100.023 15.2944C99.8466 15.2944 99.7057 15.4354 99.7057 15.6115V15.9022C99.7057 16.0079 99.7409 16.1136 99.7938 16.2016C99.8731 16.325 100.076 16.5187 100.181 16.598C100.181 16.598 100.181 16.598 100.19 16.6068C100.287 16.6773 100.402 16.7125 100.516 16.7125H103.484C103.387 19.1963 102.093 20.7906 99.4503 22.3232C99.2917 22.3936 99.2917 22.5786 99.4062 22.7195L100.331 23.7236C103.246 22.0942 105.316 19.9186 105.36 15.2944H100.023Z" fill="#00448A"/>
<path d="M122.052 15.2944C121.884 15.2944 121.734 15.4354 121.734 15.6115V15.9022C121.734 16.0079 121.77 16.1136 121.831 16.2016C121.911 16.325 122.113 16.5187 122.219 16.598C122.219 16.598 122.228 16.598 122.228 16.6068C122.325 16.6773 122.439 16.7125 122.554 16.7125H125.522C125.425 19.1963 124.13 20.7906 121.488 22.3232C121.338 22.3936 121.329 22.5786 121.444 22.7195L122.369 23.7236C125.284 22.0942 127.354 19.9186 127.398 15.2944H122.06H122.052Z" fill="#00448A"/>
<path d="M155.055 15.2944C154.887 15.2944 154.738 15.4354 154.738 15.6115V15.9022C154.738 16.0079 154.773 16.1136 154.835 16.2016C154.914 16.325 155.116 16.5187 155.222 16.598C155.222 16.598 155.231 16.598 155.231 16.6068C155.328 16.6773 155.442 16.7125 155.557 16.7125H158.411C158.305 19.1963 157.125 20.7906 154.491 22.3232C154.341 22.4024 154.333 22.5786 154.438 22.7107L155.372 23.7324C158.27 22.103 160.243 19.9274 160.287 15.3032H155.055V15.2944Z" fill="#00448A"/>
<path d="M110.865 17.4082L110.945 17.5227C110.804 17.3201 110.874 17.2056 111.05 17.1704L110.742 17.2321L110.821 17.3378L110.865 17.4082Z" fill="#00448A"/>
</g>
<defs>
<clipPath id="clip0_21_11616">
<rect width="176" height="25.9922" fill="white" transform="translate(0 0.00390625)"/>
</clipPath>
</defs>
</svg>
