<svg width="22" height="22" viewBox="0 0 22 22" fill="none" xmlns="http://www.w3.org/2000/svg">
<g clip-path="url(#clip0_21_19317)">
<path d="M13.625 10.3306V8.375C13.625 8.25897 13.5789 8.14769 13.4969 8.06564C13.4148 7.98359 13.3035 7.9375 13.1875 7.9375H8.8125C8.69647 7.9375 8.58519 7.98359 8.50314 8.06564C8.4211 8.14769 8.375 8.25897 8.375 8.375V10.3306C7.24536 10.9183 6.34562 11.8681 5.81988 13.0279C5.29414 14.1877 5.17282 15.4904 5.47534 16.7273C5.77785 17.9642 6.48672 19.0639 7.48839 19.8501C8.49007 20.6363 9.72662 21.0636 11 21.0636C12.2734 21.0636 13.5099 20.6363 14.5116 19.8501C15.5133 19.0639 16.2222 17.9642 16.5247 16.7273C16.8272 15.4904 16.7059 14.1877 16.1801 13.0279C15.6544 11.8681 14.7546 10.9183 13.625 10.3306ZM12.75 9.96312C11.6123 9.59523 10.3877 9.59523 9.25 9.96312V8.8125C9.25 8.8125 9.48188 8.16063 10.7856 8.16063C11.4984 8.12813 12.1981 8.36031 12.75 8.8125V9.96312Z" fill="url(#paint0_linear_21_19317)"/>
<path d="M15.375 1.8125V6.59438C15.3747 6.7381 15.3391 6.87954 15.2712 7.00621C15.2032 7.13287 15.1052 7.24086 14.9856 7.32063L12.75 8.8125C12.1981 8.36031 11.4984 8.12813 10.7856 8.16062C9.48188 8.16062 9.25 8.8125 9.25 8.8125L7.01438 7.32063C6.89482 7.24086 6.79675 7.13287 6.72884 7.00621C6.66093 6.87954 6.62527 6.7381 6.625 6.59438V1.8125H15.375Z" fill="url(#paint1_linear_21_19317)"/>
<path d="M12.75 1.8125H9.25V8.8125H12.75V1.8125Z" fill="url(#paint2_linear_21_19317)"/>
<path d="M11 19.75C13.4162 19.75 15.375 17.7912 15.375 15.375C15.375 12.9588 13.4162 11 11 11C8.58375 11 6.625 12.9588 6.625 15.375C6.625 17.7912 8.58375 19.75 11 19.75Z" fill="#EB7F58"/>
<path d="M15.8125 1.8125H6.1875C6.07147 1.8125 5.96019 1.76641 5.87814 1.68436C5.79609 1.60231 5.75 1.49103 5.75 1.375C5.75 1.25897 5.79609 1.14769 5.87814 1.06564C5.96019 0.983594 6.07147 0.9375 6.1875 0.9375H15.8125C15.9285 0.9375 16.0398 0.983594 16.1219 1.06564C16.2039 1.14769 16.25 1.25897 16.25 1.375C16.25 1.49103 16.2039 1.60231 16.1219 1.68436C16.0398 1.76641 15.9285 1.8125 15.8125 1.8125Z" fill="#4795EA"/>
<path d="M13.9881 14.8629L12.6756 16.1404L12.9862 17.9516C12.9926 17.9869 12.9912 18.0231 12.9821 18.0578C12.973 18.0925 12.9563 18.1247 12.9334 18.1522C12.9104 18.1798 12.8817 18.2019 12.8493 18.2172C12.8169 18.2324 12.7815 18.2403 12.7456 18.2404C12.6625 18.2404 12.785 18.2929 10.9956 17.3654L9.36812 18.2404C9.32734 18.2617 9.28138 18.2712 9.23549 18.2676C9.1896 18.264 9.14565 18.2476 9.10866 18.2202C9.07168 18.1928 9.04316 18.1555 9.02637 18.1127C9.00958 18.0698 9.00521 18.0231 9.01374 17.9779L9.32437 16.1666L8.01187 14.8891C7.97484 14.8575 7.9479 14.8157 7.93437 14.7688C7.92084 14.722 7.92132 14.6723 7.93574 14.6258C7.95017 14.5792 7.97791 14.5379 8.01554 14.507C8.05317 14.476 8.09905 14.4568 8.14749 14.4516L9.96749 14.1891L10.7769 12.5398C10.8008 12.5037 10.8333 12.4741 10.8715 12.4536C10.9097 12.4331 10.9523 12.4224 10.9956 12.4224C11.0389 12.4224 11.0816 12.4331 11.1197 12.4536C11.1579 12.4741 11.1904 12.5037 11.2144 12.5398L12.0237 14.1891L13.8437 14.4516C13.8876 14.4592 13.9286 14.4782 13.9625 14.5069C13.9965 14.5356 14.0221 14.5729 14.0368 14.6148C14.0516 14.6568 14.0548 14.7019 14.0462 14.7455C14.0377 14.7891 14.0176 14.8296 13.9881 14.8629Z" fill="url(#paint3_linear_21_19317)"/>
</g>
<defs>
<linearGradient id="paint0_linear_21_19317" x1="11" y1="21.0625" x2="11" y2="7.9375" gradientUnits="userSpaceOnUse">
<stop stop-color="#FE9661"/>
<stop offset="1" stop-color="#FFB369"/>
</linearGradient>
<linearGradient id="paint1_linear_21_19317" x1="11" y1="8.8125" x2="11" y2="1.8125" gradientUnits="userSpaceOnUse">
<stop stop-color="#54A5FF"/>
<stop offset="1" stop-color="#8AD3FE"/>
</linearGradient>
<linearGradient id="paint2_linear_21_19317" x1="11" y1="8.8125" x2="11" y2="1.8125" gradientUnits="userSpaceOnUse">
<stop stop-color="#D3E6F5"/>
<stop offset="1" stop-color="#F0F7FC"/>
</linearGradient>
<linearGradient id="paint3_linear_21_19317" x1="7.93749" y1="15.3223" x2="14.0625" y2="15.3223" gradientUnits="userSpaceOnUse">
<stop stop-color="#FE9661"/>
<stop offset="1" stop-color="#FFB369"/>
</linearGradient>
<clipPath id="clip0_21_19317">
<rect width="21" height="21" fill="white" transform="translate(0.5 0.5)"/>
</clipPath>
</defs>
</svg>
