<svg width="152" height="30" viewBox="0 0 152 30" fill="none" xmlns="http://www.w3.org/2000/svg">
<g clip-path="url(#clip0_430_20708)">
<g clip-path="url(#clip1_430_20708)">
<path d="M20.1999 15.8301L20.0599 15.8901C18.5299 16.5001 16.9899 16.9901 15.4899 17.3601L15.3999 17.3801L19.9299 22.7801L20.0499 22.7001C20.6999 22.2501 21.3899 21.8501 22.1199 21.5101L22.2499 21.4501L20.2099 15.8401L20.1999 15.8301Z" fill="#CB743A"/>
<path d="M15.39 17.38L15.48 17.36C16.98 17 18.52 16.5 20.05 15.89L20.19 15.83L15.63 3.28003L15.48 3.34003C12.68 4.47003 10.04 6.00003 7.64001 7.88003L7.51001 7.98003L15.39 17.37V17.38Z" fill="#FAA61A"/>
<path d="M28.8401 11.65L28.6301 11.74V20.31H28.7701C29.5501 20.39 30.3401 20.53 31.1201 20.75L31.2601 20.79L35.1901 9.97998H35.1001C33.0201 10.26 30.9101 10.82 28.8401 11.65Z" fill="#326DAC"/>
<path d="M28.6201 11.74L28.8301 11.65C30.9001 10.82 33.0001 10.26 35.0901 9.99H35.1801V9.98L37.8601 2.63L37.7101 2.58C34.8301 1.64 31.8301 1.11 28.7801 1H28.6201V1.16V11.73V11.74Z" fill="#6993CD"/>
<path d="M25.19 13.41C24.19 13.98 23.16 14.51 22.13 14.99L21.97 15.06L24.05 20.78L24.19 20.74C24.96 20.53 25.76 20.38 26.54 20.32H26.68V12.61L26.59 12.65C26.09 12.9 25.63 13.15 25.17 13.4L25.19 13.41Z" fill="#489236"/>
<path d="M26.69 1H26.53C23.49 1.11 20.48 1.64 17.6 2.57L17.45 2.62L21.9799 15.06L22.1399 14.99C23.1699 14.51 24.2 13.98 25.2 13.41C25.65 13.15 26.11 12.91 26.62 12.66L26.7099 12.62V1H26.69Z" fill="#8DC63F"/>
<path d="M13.23 17.81L12.96 17.85C8.43999 18.54 4.15999 18.1 0.23999 16.54L16.74 26.06L16.82 25.94C17.28 25.28 17.79 24.66 18.35 24.11L18.45 24.01L13.24 17.8L13.23 17.81Z" fill="#BA141A"/>
<path d="M6.03 9.22998L5.91 9.33998C3.65 11.37 1.69 13.7 0.09 16.28L0 16.42L0.23 16.55C4.15 18.11 8.43 18.55 12.95 17.86L13.22 17.82L6.02 9.23998L6.03 9.22998Z" fill="#F3715A"/>
<path d="M33.0701 21.4401L33.2001 21.5001C33.9301 21.8301 34.6301 22.2301 35.2701 22.6901L35.3901 22.7701L45.2501 11.0301C42.7501 10.2901 40.0801 9.87006 37.3101 9.81006L33.0801 21.4401H33.0701Z" fill="#00549F"/>
<path d="M36.8701 24.0199L36.9701 24.1199C37.5301 24.6799 38.0501 25.2899 38.5001 25.9499L38.5801 26.0699L55.3101 16.4099C52.9801 14.4299 50.2401 12.8199 47.2101 11.6899L36.8601 24.0199H36.8701Z" fill="#8C0050"/>
<path d="M47.67 7.88003C45.27 6.00003 42.6301 4.47003 39.8301 3.34003L39.68 3.28003L37.3 9.81003C40.07 9.86003 42.7401 10.29 45.2401 11.03L47.8 7.98003L47.67 7.88003Z" fill="#3D85C6"/>
<path d="M55.16 16.17C53.56 13.63 51.62 11.34 49.41 9.33998L49.29 9.22998L47.22 11.69C50.25 12.82 52.99 14.43 55.32 16.41L55.16 16.16V16.17Z" fill="#BE4783"/>
<path d="M68.25 8.56997C68.77 8.58997 69.53 8.70997 69.96 9.65997H70.73V7.58997H61.73V8.25997C61.73 8.25997 62.89 9.03997 62.89 9.67997V18.61H65.39V13.52H69.63V12.44H65.39V8.56997H68.25Z" fill="#684B4E"/>
<path d="M76.77 7.33997C75.06 7.33997 73.68 7.85997 72.69 8.87997C71.7 9.89997 71.2 11.32 71.2 13.08C71.2 14.84 71.7 16.26 72.69 17.28C73.68 18.3 75.05 18.83 76.77 18.83C78.49 18.83 79.85 18.31 80.84 17.28C81.83 16.25 82.33 14.84 82.33 13.08C82.33 11.32 81.83 9.89997 80.84 8.87997C79.85 7.84997 78.48 7.33997 76.77 7.33997ZM74.57 9.46997C75.06 8.68997 75.78 8.30997 76.76 8.30997C77.74 8.30997 78.47 8.68997 78.96 9.46997C79.46 10.26 79.71 11.46 79.71 13.06C79.71 14.66 79.46 15.89 78.96 16.69C78.47 17.48 77.75 17.86 76.76 17.86C75.77 17.86 75.06 17.48 74.57 16.69C74.07 15.89 73.82 14.67 73.82 13.06C73.82 11.45 74.07 10.26 74.57 9.46997Z" fill="#684B4E"/>
<path d="M89.1501 7.33997C87.4401 7.33997 86.0601 7.85997 85.0701 8.87997C84.0801 9.89997 83.5801 11.32 83.5801 13.08C83.5801 14.84 84.0801 16.26 85.0701 17.28C86.0601 18.3 87.4301 18.83 89.1501 18.83C90.8701 18.83 92.2301 18.31 93.2201 17.28C94.2101 16.25 94.7101 14.84 94.7101 13.08C94.7101 11.32 94.2101 9.89997 93.2201 8.87997C92.2301 7.84997 90.8601 7.33997 89.1501 7.33997ZM86.9601 9.46997C87.4501 8.68997 88.1701 8.30997 89.1501 8.30997C90.1301 8.30997 90.8601 8.68997 91.3501 9.46997C91.8401 10.26 92.0901 11.46 92.0901 13.06C92.0901 14.66 91.8401 15.89 91.3401 16.69C90.8501 17.48 90.1301 17.86 89.1401 17.86C88.1501 17.86 87.4401 17.48 86.9501 16.69C86.4501 15.89 86.2001 14.67 86.2001 13.06C86.2001 11.45 86.4501 10.26 86.9501 9.46997H86.9601Z" fill="#684B4E"/>
<path d="M123.42 7.33997C121.71 7.33997 120.33 7.85997 119.34 8.87997C118.35 9.89997 117.85 11.32 117.85 13.08C117.85 14.84 118.35 16.26 119.34 17.28C120.33 18.3 121.7 18.83 123.42 18.83C125.14 18.83 126.5 18.31 127.49 17.28C128.48 16.25 128.98 14.84 128.98 13.08C128.98 11.32 128.48 9.89997 127.49 8.87997C126.5 7.84997 125.13 7.33997 123.42 7.33997ZM121.22 9.46997C121.71 8.68997 122.43 8.30997 123.41 8.30997C124.39 8.30997 125.12 8.68997 125.61 9.46997C126.11 10.26 126.36 11.47 126.36 13.06C126.36 14.65 126.11 15.89 125.61 16.69C125.12 17.48 124.4 17.86 123.41 17.86C122.42 17.86 121.71 17.48 121.22 16.69C120.72 15.89 120.47 14.67 120.47 13.06C120.47 11.45 120.72 10.26 121.22 9.46997Z" fill="#684B4E"/>
<path d="M133.45 17.53V9.81998L133.47 7.60999H133.34H131.08H129.79V8.27999C129.79 8.27999 130.95 9.05999 130.95 9.69999V18.59H138.32V17.54H133.45V17.53Z" fill="#684B4E"/>
<path d="M141.88 7.59998H138.35V8.26998C138.35 8.26998 139.51 9.04998 139.51 9.68998V18.55H142.01V7.59998H141.88Z" fill="#684B4E"/>
<path d="M105.07 8.96998C104.15 8.05998 102.82 7.59998 101.12 7.59998H95.3899V8.26998C95.3899 8.26998 96.5499 9.04998 96.5499 9.68998V18.59H101.28C102.84 18.59 104.11 18.07 105.04 17.03C105.97 16 106.44 14.61 106.44 12.88C106.44 11.15 105.97 9.87998 105.06 8.96998H105.07ZM102.99 16.41C102.44 17.17 101.6 17.56 100.49 17.56H99.0599V8.57998H99.7399C101.23 8.57998 102.3 8.89998 102.91 9.54998C103.53 10.2 103.84 11.31 103.84 12.87C103.84 14.43 103.56 15.63 103 16.41H102.99Z" fill="#684B4E"/>
<path d="M150.77 13.6699C150.35 13.1799 149.6 12.6399 148.47 12.0199L147.71 11.5999C147.11 11.2699 146.7 10.9799 146.5 10.7399C146.3 10.5099 146.2 10.2299 146.2 9.88995C146.2 9.43995 146.35 9.06995 146.66 8.75995C146.97 8.44995 147.34 8.29995 147.78 8.29995C148.18 8.29995 149.07 8.55995 149.7 9.09995L149.81 9.18995L150.86 7.84995L150.68 7.78995C149.54 7.47995 148.51 7.31995 147.62 7.31995C146.47 7.31995 145.53 7.60995 144.83 8.17995C144.12 8.75995 143.76 9.52995 143.76 10.4699C143.76 11.6799 144.72 12.7999 146.63 13.7999L147.38 14.1899C147.98 14.5099 148.39 14.7999 148.59 15.0499C148.79 15.2999 148.89 15.6399 148.89 16.0599C148.89 16.5899 148.72 17.0199 148.37 17.3499C148.02 17.6799 147.58 17.8399 147.01 17.8399C146.44 17.8399 145.32 17.3799 144.86 17.0199L144.75 16.9399L143.61 18.3799L143.81 18.4199C145.01 18.6799 146.08 18.8099 147.01 18.8099C148.33 18.8099 149.4 18.5099 150.2 17.9099C151 17.2999 151.4 16.4799 151.4 15.4699C151.4 14.7599 151.19 14.1499 150.77 13.6499V13.6699Z" fill="#684B4E"/>
<path d="M116.84 10.63C116.72 9.72998 116.34 9.01998 115.71 8.51998C114.94 7.90998 113.77 7.59998 112.25 7.59998H107.27V8.26998C107.27 8.26998 108.43 9.04998 108.43 9.68998V18.6H110.82V14.61H112.24C113.77 14.61 114.93 14.3 115.7 13.69C116.34 13.19 116.71 12.48 116.83 11.58C116.91 10.98 116.83 10.63 116.83 10.63H116.84ZM113.75 13.01C113.37 13.42 112.78 13.64 112 13.64H110.82V8.57998H112C112.78 8.57998 113.37 8.78998 113.75 9.20998C114.13 9.62998 114.33 10.27 114.33 11.12C114.33 11.97 114.13 12.61 113.75 13.03V13.01Z" fill="#684B4E"/>
<path d="M70.58 25.0299C70.58 25.2499 70.54 25.4399 70.47 25.6199C70.39 25.7999 70.28 25.9499 70.14 26.0799C70 26.2099 69.82 26.3099 69.62 26.3799C69.42 26.4499 69.19 26.4899 68.93 26.4899C68.67 26.4899 68.45 26.4499 68.24 26.3799C68.04 26.3099 67.86 26.2099 67.72 26.0799C67.58 25.9499 67.47 25.7999 67.39 25.6199C67.31 25.4399 67.28 25.2399 67.28 25.0299C67.28 24.7399 67.37 24.4799 67.56 24.2699H67.51C67.25 24.2699 67.07 24.2199 66.95 24.1499C66.84 24.0799 66.78 23.9799 66.78 23.8499V23.7399C66.78 23.6299 66.84 23.5699 66.96 23.5699H70.76C70.87 23.5699 70.93 23.6299 70.93 23.7499V24.0899C70.93 24.2099 70.87 24.2699 70.76 24.2699H70.3C70.4 24.3799 70.47 24.4899 70.51 24.6199C70.56 24.7499 70.58 24.8799 70.58 25.0299ZM70.14 22.9699C70.14 23.0899 70.08 23.1499 69.97 23.1499H68.48C68.19 23.1499 67.99 23.1099 67.86 23.0399C67.73 22.9699 67.67 22.8599 67.67 22.7199V22.5999C67.67 22.4899 67.73 22.4299 67.85 22.4299H69.97C70.08 22.4299 70.14 22.4899 70.14 22.6099V22.9699ZM72.11 28.6499C71.92 28.6999 71.67 28.7399 71.38 28.7699C71.09 28.7999 70.78 28.8299 70.46 28.8399C70.14 28.8599 69.82 28.8599 69.5 28.8599C69.18 28.8599 68.9 28.8499 68.65 28.8199C68.51 28.8099 68.39 28.7799 68.29 28.7499C68.19 28.7199 68.11 28.6699 68.04 28.6099C67.97 28.5499 67.92 28.4699 67.9 28.3699C67.87 28.2699 67.86 28.1499 67.86 28.0099V27.0299C67.86 26.9099 67.92 26.8499 68.03 26.8499H68.62C68.73 26.8499 68.79 26.9099 68.79 27.0299V27.8799C68.79 28.0099 68.85 28.0799 68.98 28.0899C69.17 28.1099 69.38 28.1299 69.63 28.1299C69.87 28.1299 70.13 28.1299 70.39 28.1299C70.66 28.1299 70.93 28.1099 71.21 28.0899C71.49 28.0699 71.76 28.0399 72.01 28.0099C72.11 27.9999 72.19 28.0099 72.25 28.0799C72.31 28.1399 72.35 28.1999 72.36 28.2799C72.37 28.3599 72.36 28.4299 72.32 28.4999C72.28 28.5699 72.21 28.6199 72.11 28.6399V28.6499ZM68.21 25.0299C68.21 25.2599 68.27 25.4399 68.4 25.5799C68.53 25.7199 68.71 25.7899 68.93 25.7899C69.15 25.7899 69.33 25.7199 69.46 25.5799C69.59 25.4399 69.65 25.2599 69.65 25.0299C69.65 24.8099 69.59 24.6299 69.46 24.4899C69.34 24.3499 69.16 24.2699 68.92 24.2699C68.68 24.2699 68.51 24.3399 68.38 24.4899C68.26 24.6299 68.19 24.8199 68.19 25.0299H68.21ZM73.01 24.9499C73.01 25.0699 72.95 25.1299 72.84 25.1299H72.14V26.3499C72.14 26.6899 72.1 26.9299 72.02 27.0699C71.94 27.2099 71.82 27.2799 71.67 27.2799H71.39C71.28 27.2799 71.22 27.2199 71.22 27.0999V22.7199C71.22 22.5999 71.28 22.5399 71.39 22.5399H71.97C72.08 22.5399 72.14 22.5999 72.14 22.7199V24.3999H72.84C72.95 24.3999 73.01 24.4599 73.01 24.5799V24.9499Z" fill="#684B4E"/>
<path d="M79.27 25.3699C79.27 25.4899 79.21 25.5499 79.1 25.5499H76.69V26.4299H78.37C78.48 26.4299 78.54 26.4899 78.54 26.6099V27.9599C78.54 28.2999 78.5 28.5399 78.42 28.6799C78.34 28.8199 78.22 28.8899 78.07 28.8899H77.79C77.67 28.8899 77.62 28.8299 77.62 28.7099V27.1399H74.72C74.43 27.1399 74.23 27.1099 74.1 27.0399C73.97 26.9699 73.91 26.8699 73.91 26.7299V26.6099C73.91 26.4999 73.97 26.4399 74.09 26.4399H75.77V25.5599H74.07C73.78 25.5599 73.58 25.5199 73.45 25.4499C73.32 25.3799 73.26 25.2699 73.26 25.1299V25.0299C73.26 24.9199 73.32 24.8599 73.44 24.8599H77.52C77.54 24.7099 77.56 24.5499 77.58 24.3799C77.6 24.2099 77.6 24.0599 77.6 23.9199V23.3599H74.81C74.52 23.3599 74.32 23.3199 74.19 23.2499C74.06 23.1799 74 23.0699 74 22.9299V22.8299C74 22.7199 74.06 22.6599 74.18 22.6599H78.36C78.47 22.6599 78.53 22.7199 78.53 22.8399V23.7199C78.53 23.8999 78.52 24.0999 78.49 24.2999C78.46 24.4999 78.43 24.6899 78.38 24.8599H79.13C79.24 24.8599 79.3 24.9199 79.3 25.0399V25.3799L79.27 25.3699Z" fill="#684B4E"/>
<path d="M82.1401 23.3099C82.1401 23.5899 82.1001 23.8499 82.0101 24.0999C82.1901 24.3299 82.4001 24.5099 82.6401 24.6599C82.8801 24.8099 83.1301 24.9199 83.3901 25.0099C83.5001 25.0499 83.5801 25.0999 83.6301 25.1699C83.6801 25.2399 83.7101 25.3099 83.7201 25.3899C83.7201 25.4699 83.7201 25.5499 83.6901 25.6199C83.6601 25.6899 83.6201 25.7599 83.5601 25.8099C83.5001 25.8599 83.4301 25.8899 83.3401 25.9099C83.2501 25.9199 83.1601 25.9099 83.0601 25.8599C82.8101 25.7499 82.5701 25.5899 82.3401 25.3899C82.1101 25.1899 81.8901 24.9599 81.7101 24.6999C81.3401 25.2399 80.7701 25.6499 79.9901 25.9299C79.9001 25.9599 79.8201 25.9599 79.7501 25.9299C79.6801 25.8999 79.6301 25.8499 79.6001 25.7899C79.5701 25.7299 79.5701 25.6599 79.5901 25.5799C79.6101 25.5099 79.6601 25.4399 79.7501 25.3899C80.7201 24.8299 81.2101 24.1399 81.2101 23.3099V22.7899C81.2101 22.6699 81.2701 22.6099 81.3801 22.6099H81.9701C82.0801 22.6099 82.1401 22.6699 82.1401 22.7899V23.3099ZM84.1501 27.1499H81.4901C81.2001 27.1499 81.0001 27.1099 80.8701 27.0399C80.7401 26.9699 80.6801 26.8599 80.6801 26.7199V26.5899C80.6801 26.4799 80.7401 26.4199 80.8601 26.4199H84.9101C85.0201 26.4199 85.0801 26.4799 85.0801 26.5999V27.9599C85.0801 28.2999 85.0401 28.5399 84.9601 28.6799C84.8801 28.8199 84.7601 28.8899 84.6101 28.8899H84.3301C84.2101 28.8899 84.1601 28.8299 84.1601 28.7099V27.1599L84.1501 27.1499ZM84.1501 22.7099C84.1501 22.5899 84.2101 22.5299 84.3201 22.5299H84.9001C85.0101 22.5299 85.0701 22.5899 85.0701 22.7099V25.1099C85.0701 25.4499 85.0301 25.6899 84.9501 25.8299C84.8701 25.9699 84.7501 26.0399 84.6001 26.0399H84.3201C84.2001 26.0399 84.1501 25.9799 84.1501 25.8599V22.7099Z" fill="#684B4E"/>
<path d="M89.31 28.7399C89.07 28.7699 88.82 28.7899 88.55 28.8099C88.29 28.8299 88.03 28.8399 87.77 28.8499C87.51 28.8499 87.28 28.8599 87.07 28.8499C86.79 28.8499 86.59 28.7799 86.47 28.6499C86.35 28.5199 86.28 28.3199 86.28 28.0299V26.8399C86.28 26.7199 86.34 26.6599 86.45 26.6599H88.1V26.0999H86.36C86.07 26.0999 85.87 26.0699 85.74 25.9999C85.61 25.9299 85.55 25.8299 85.55 25.6899V25.5699C85.55 25.4599 85.61 25.3999 85.73 25.3999H91.41C91.52 25.3999 91.58 25.4599 91.58 25.5799V25.9199C91.58 26.0399 91.52 26.0999 91.41 26.0999H89.03V26.6599H90.68C90.79 26.6599 90.85 26.7199 90.85 26.8399V27.9199C90.85 28.2599 90.81 28.4999 90.73 28.6399C90.65 28.7799 90.53 28.8499 90.38 28.8499H90.1C89.98 28.8499 89.93 28.7899 89.93 28.6699V28.6499C89.76 28.6799 89.56 28.7099 89.32 28.7399H89.31ZM86.71 23.3499C86.42 23.3499 86.22 23.3099 86.1 23.2399C85.98 23.1699 85.92 23.0599 85.92 22.9199V22.8199C85.92 22.7099 85.98 22.6499 86.1 22.6499H91.02C91.13 22.6499 91.19 22.7099 91.19 22.8299V23.1699C91.19 23.2899 91.13 23.3499 91.02 23.3499H90.32V23.8799C90.32 24.0999 90.26 24.2599 90.15 24.3599H90.98C91.09 24.3599 91.15 24.4199 91.15 24.5299V24.8699C91.15 24.9299 91.14 24.9699 91.11 25.0099C91.08 25.0499 91.04 25.0699 90.98 25.0699H86.76C86.47 25.0699 86.27 25.0399 86.14 24.9699C86.01 24.8999 85.95 24.7999 85.95 24.6599V24.5399C85.95 24.4299 86.01 24.3699 86.13 24.3699H86.91C86.91 24.3699 86.83 24.2999 86.81 24.2399C86.79 24.1799 86.78 24.1299 86.78 24.0799V23.6699C86.78 23.6099 86.79 23.5399 86.82 23.4799C86.85 23.4199 86.89 23.3799 86.96 23.3599H86.7L86.71 23.3499ZM87.39 28.1499C87.56 28.1499 87.75 28.1599 87.97 28.1599C88.19 28.1599 88.41 28.1599 88.63 28.1399C88.85 28.1399 89.06 28.1199 89.25 28.1099C89.45 28.0999 89.6 28.0799 89.72 28.0599C89.86 28.0399 89.93 27.9499 89.93 27.7899V27.3799H87.21V27.9599C87.21 28.0799 87.27 28.1499 87.4 28.1499H87.39ZM89.35 24.2499C89.39 24.1899 89.41 24.1299 89.41 24.0599V23.3499H87.93C87.86 23.3499 87.8 23.3699 87.77 23.4199C87.74 23.4599 87.73 23.5099 87.73 23.5699V24.1699C87.73 24.2699 87.76 24.3399 87.83 24.3599H89.19C89.26 24.3499 89.31 24.3099 89.35 24.2599V24.2499Z" fill="#684B4E"/>
<path d="M94.36 23.4499C94.36 23.7399 94.32 24.0199 94.24 24.2699C94.41 24.5099 94.62 24.7199 94.86 24.8799C95.1 25.0499 95.35 25.1799 95.61 25.2699C95.71 25.3099 95.79 25.3599 95.84 25.4299C95.89 25.4999 95.92 25.5799 95.92 25.6499C95.92 25.7299 95.92 25.7999 95.88 25.8799C95.85 25.9499 95.8 26.0099 95.74 26.0599C95.68 26.1099 95.6 26.1399 95.52 26.1499C95.43 26.1499 95.34 26.1399 95.25 26.0899C95.01 25.9699 94.78 25.8099 94.55 25.5999C94.32 25.3899 94.12 25.1599 93.95 24.8999C93.6 25.4399 93.03 25.8699 92.27 26.1799C92.18 26.2199 92.1 26.2199 92.03 26.1799C91.96 26.1499 91.91 26.0999 91.88 26.0399C91.85 25.9799 91.84 25.9099 91.86 25.8299C91.88 25.7499 91.93 25.6899 92.02 25.6299C92.48 25.3499 92.83 25.0299 93.08 24.6699C93.33 24.3099 93.45 23.8899 93.45 23.4299V22.7799C93.45 22.6599 93.51 22.5999 93.62 22.5999H94.21C94.32 22.5999 94.38 22.6599 94.38 22.7799V23.4299L94.36 23.4499ZM97.11 28.6299C96.92 28.6799 96.67 28.7199 96.38 28.7499C96.09 28.7799 95.78 28.8099 95.46 28.8199C95.14 28.8399 94.82 28.8399 94.5 28.8399C94.18 28.8399 93.9 28.8299 93.65 28.7999C93.51 28.7899 93.39 28.7599 93.29 28.7299C93.19 28.6999 93.11 28.6499 93.04 28.5899C92.97 28.5299 92.92 28.4499 92.9 28.3499C92.87 28.2499 92.86 28.1299 92.86 27.9899V26.7899C92.86 26.6699 92.92 26.6099 93.03 26.6099H93.62C93.73 26.6099 93.79 26.6699 93.79 26.7899V27.8599C93.79 27.9899 93.85 28.0599 93.98 28.0699C94.17 28.0899 94.38 28.1099 94.63 28.1099C94.87 28.1099 95.13 28.1099 95.39 28.1099C95.66 28.1099 95.93 28.0899 96.21 28.0699C96.49 28.0499 96.76 28.0199 97.01 27.9899C97.11 27.9799 97.19 27.9899 97.25 28.0599C97.31 28.1199 97.35 28.1799 97.36 28.2599C97.37 28.3399 97.36 28.4099 97.32 28.4799C97.28 28.5499 97.21 28.5999 97.11 28.6199V28.6299ZM98.01 24.4799C98.01 24.5999 97.95 24.6599 97.84 24.6599H97.14V26.1199C97.14 26.4599 97.1 26.6999 97.02 26.8399C96.94 26.9799 96.82 27.0499 96.67 27.0499H96.39C96.27 27.0499 96.22 26.9899 96.22 26.8699V22.7199C96.22 22.5999 96.28 22.5399 96.39 22.5399H96.97C97.08 22.5399 97.14 22.5999 97.14 22.7199V23.9299H97.84C97.95 23.9299 98.01 23.9899 98.01 24.1099V24.4799Z" fill="#684B4E"/>
<path d="M98.3701 24.12C98.3701 23.88 98.4101 23.65 98.4901 23.45C98.5701 23.25 98.6901 23.08 98.8401 22.94C98.9901 22.8 99.1801 22.69 99.4001 22.62C99.6201 22.54 99.8701 22.51 100.15 22.51C100.63 22.51 101.02 22.62 101.32 22.84C101.62 23.06 101.8 23.36 101.88 23.73H102.77V22.72C102.77 22.6 102.83 22.54 102.94 22.54H103.52C103.63 22.54 103.69 22.6 103.69 22.72V24.89C103.69 25.23 103.65 25.47 103.57 25.61C103.49 25.75 103.37 25.82 103.22 25.82H102.94C102.82 25.82 102.77 25.76 102.77 25.64V24.46H101.89C101.83 24.85 101.65 25.16 101.35 25.39C101.05 25.62 100.65 25.73 100.15 25.73C99.8701 25.73 99.6201 25.69 99.4001 25.62C99.1801 25.54 99.0001 25.44 98.8401 25.3C98.6901 25.16 98.5701 24.99 98.4901 24.79C98.4101 24.59 98.3701 24.37 98.3701 24.12ZM99.2901 24.12C99.2901 24.4 99.3701 24.62 99.5201 24.77C99.6701 24.92 99.8801 25 100.14 25C100.4 25 100.61 24.92 100.76 24.77C100.91 24.62 100.99 24.4 100.99 24.12C100.99 23.84 100.91 23.62 100.76 23.47C100.61 23.32 100.4 23.24 100.14 23.24C99.8801 23.24 99.6701 23.32 99.5201 23.47C99.3701 23.62 99.2901 23.84 99.2901 24.12ZM102.76 27.47H101.29C101 27.47 100.8 27.44 100.67 27.37C100.54 27.3 100.48 27.2 100.48 27.06V26.94C100.48 26.83 100.54 26.77 100.66 26.77H102.76V26.34C102.76 26.22 102.82 26.16 102.93 26.16H103.51C103.62 26.16 103.68 26.22 103.68 26.34V27.93C103.68 28.27 103.64 28.51 103.56 28.65C103.48 28.79 103.36 28.86 103.21 28.86H102.93C102.81 28.86 102.76 28.8 102.76 28.68V28.65C102.6 28.68 102.41 28.71 102.19 28.74C101.97 28.77 101.74 28.79 101.51 28.81C101.27 28.83 101.04 28.85 100.81 28.85C100.58 28.85 100.37 28.86 100.18 28.85C99.9001 28.85 99.7001 28.78 99.5801 28.65C99.4601 28.52 99.3901 28.32 99.3901 28.03V26.33C99.3901 26.21 99.4501 26.15 99.5601 26.15H100.14C100.25 26.15 100.31 26.21 100.31 26.33V27.93C100.31 28.05 100.37 28.12 100.5 28.12C100.67 28.12 100.85 28.13 101.05 28.12C101.25 28.12 101.45 28.11 101.64 28.1C101.83 28.1 102.01 28.08 102.18 28.06C102.35 28.04 102.47 28.03 102.57 28.01C102.71 27.98 102.78 27.89 102.78 27.74V27.45L102.76 27.47Z" fill="#684B4E"/>
<path d="M105.63 24.42C105.34 24.42 105.14 24.38 105.01 24.31C104.88 24.24 104.82 24.13 104.82 23.99V23.91C104.82 23.8 104.88 23.74 105 23.74H107.26C107.45 23.74 107.64 23.74 107.81 23.74C107.98 23.74 108.15 23.72 108.29 23.68C108.35 23.67 108.41 23.64 108.46 23.6C108.51 23.56 108.53 23.51 108.53 23.45V23.3H105.74C105.45 23.3 105.25 23.26 105.12 23.19C104.99 23.12 104.93 23.01 104.93 22.87V22.79C104.93 22.68 104.99 22.62 105.11 22.62H109.29C109.4 22.62 109.46 22.68 109.46 22.8V23.78C109.46 23.97 109.45 24.17 109.42 24.37C109.39 24.57 109.35 24.76 109.3 24.94H110.04C110.15 24.94 110.21 25 110.21 25.12V25.44C110.21 25.56 110.15 25.62 110.04 25.62H105C104.71 25.62 104.51 25.59 104.38 25.52C104.25 25.46 104.19 25.35 104.19 25.22V25.12C104.19 25.01 104.25 24.95 104.37 24.95H108.46C108.48 24.83 108.5 24.7 108.52 24.57C108.53 24.44 108.54 24.31 108.55 24.18C108.53 24.22 108.49 24.25 108.43 24.27C108.37 24.3 108.31 24.32 108.24 24.34C108.16 24.36 108.07 24.37 107.96 24.38C107.86 24.38 107.75 24.4 107.65 24.4C107.54 24.4 107.43 24.41 107.33 24.41C107.22 24.41 107.12 24.41 107.02 24.41H105.66L105.63 24.42ZM109.36 28.68C109.23 28.71 109.08 28.74 108.89 28.77C108.71 28.8 108.51 28.82 108.29 28.84C108.07 28.86 107.85 28.87 107.61 28.88C107.37 28.88 107.14 28.89 106.91 28.9C106.68 28.9 106.46 28.9 106.25 28.9C106.04 28.9 105.86 28.88 105.69 28.87C105.55 28.86 105.43 28.83 105.33 28.8C105.23 28.77 105.15 28.72 105.08 28.66C105.01 28.6 104.97 28.52 104.94 28.42C104.91 28.32 104.9 28.2 104.9 28.06V27.34C104.9 27.22 104.96 27.16 105.07 27.16H108.5V26.79H105.71C105.42 26.79 105.22 26.76 105.09 26.7C104.96 26.64 104.9 26.54 104.9 26.4V26.28C104.9 26.22 104.91 26.18 104.94 26.17C104.97 26.15 105.01 26.15 105.07 26.15H109.24C109.3 26.15 109.34 26.16 109.37 26.18C109.4 26.2 109.41 26.24 109.41 26.29V27.61C109.41 27.73 109.35 27.79 109.24 27.79H105.82V27.98C105.82 28.11 105.88 28.18 106.01 28.19C106.2 28.21 106.43 28.23 106.69 28.23C106.95 28.23 107.23 28.23 107.52 28.23C107.81 28.23 108.11 28.21 108.41 28.19C108.71 28.17 108.99 28.14 109.24 28.11C109.34 28.1 109.42 28.11 109.48 28.17C109.54 28.22 109.58 28.28 109.59 28.35C109.6 28.42 109.59 28.49 109.55 28.55C109.51 28.62 109.44 28.66 109.34 28.68H109.36Z" fill="#684B4E"/>
<path d="M114.05 26.5799C114.16 26.5699 114.25 26.5799 114.31 26.6499C114.37 26.7099 114.41 26.7799 114.42 26.8599C114.43 26.9399 114.42 27.0199 114.38 27.0999C114.34 27.1799 114.27 27.2299 114.17 27.2399C114 27.2799 113.79 27.3099 113.57 27.3299C113.34 27.3499 113.11 27.3699 112.86 27.3799C112.62 27.3899 112.37 27.3999 112.13 27.3999C111.89 27.3999 111.66 27.3999 111.46 27.3699C111.32 27.3599 111.2 27.3299 111.1 27.2999C111 27.2699 110.92 27.2199 110.85 27.1599C110.78 27.0999 110.73 27.0199 110.71 26.9199C110.68 26.8199 110.67 26.6999 110.67 26.5599V24.7599C110.67 24.6399 110.73 24.5799 110.84 24.5799H112.92V23.4299H111.49C111.2 23.4299 111 23.3899 110.87 23.3199C110.74 23.2499 110.68 23.1399 110.68 22.9999V22.8699C110.68 22.7599 110.74 22.6999 110.86 22.6999H113.68C113.79 22.6999 113.85 22.7599 113.85 22.8799V25.1199C113.85 25.2399 113.79 25.2999 113.68 25.2999H111.6V26.4399C111.6 26.5699 111.66 26.6399 111.79 26.6499C111.94 26.6499 112.11 26.6599 112.31 26.6699C112.5 26.6699 112.7 26.6699 112.91 26.6699C113.12 26.6699 113.32 26.6499 113.52 26.6399C113.72 26.6299 113.91 26.6099 114.07 26.5899L114.05 26.5799ZM114.9 25.2799H114.67C114.42 25.2799 114.24 25.2399 114.14 25.1699C114.03 25.0999 113.98 24.9899 113.98 24.8599V24.7199C113.98 24.6099 114.04 24.5499 114.16 24.5499H114.91V22.7199C114.91 22.5999 114.97 22.5399 115.08 22.5399H115.66C115.77 22.5399 115.83 22.5999 115.83 22.7199V27.8899C115.83 28.2299 115.79 28.4699 115.71 28.6099C115.63 28.7499 115.51 28.8199 115.36 28.8199H115.08C114.96 28.8199 114.91 28.7599 114.91 28.6399V25.2799H114.9Z" fill="#684B4E"/>
<path d="M122.33 27.87C122.33 27.99 122.27 28.05 122.16 28.05H117.12C116.83 28.05 116.63 28.01 116.5 27.94C116.37 27.87 116.31 27.76 116.31 27.62V27.49C116.31 27.38 116.37 27.32 116.49 27.32H122.17C122.28 27.32 122.34 27.38 122.34 27.5V27.87H122.33ZM119.78 23.45C119.78 23.71 119.73 23.98 119.62 24.24C119.86 24.47 120.15 24.66 120.48 24.83C120.81 25 121.15 25.12 121.5 25.21C121.66 25.25 121.77 25.32 121.83 25.43C121.89 25.53 121.92 25.64 121.91 25.74C121.9 25.85 121.84 25.94 121.75 26.01C121.66 26.08 121.53 26.11 121.38 26.09C121.23 26.07 121.06 26.02 120.89 25.95C120.71 25.87 120.53 25.78 120.35 25.67C120.17 25.56 119.99 25.43 119.81 25.28C119.63 25.13 119.47 24.97 119.32 24.8C119.09 25.11 118.79 25.38 118.42 25.62C118.04 25.86 117.6 26.03 117.08 26.14C116.98 26.16 116.9 26.15 116.84 26.11C116.78 26.06 116.74 26.01 116.72 25.93C116.7 25.86 116.71 25.79 116.74 25.72C116.77 25.65 116.83 25.59 116.93 25.56C117.26 25.45 117.54 25.3 117.78 25.14C118.02 24.97 118.22 24.8 118.38 24.61C118.54 24.42 118.66 24.23 118.74 24.03C118.82 23.83 118.86 23.65 118.86 23.47V22.91C118.86 22.79 118.92 22.73 119.03 22.73H119.62C119.73 22.73 119.79 22.79 119.79 22.91V23.47L119.78 23.45Z" fill="#684B4E"/>
<path d="M125.82 23.2499C125.82 23.3699 125.76 23.4299 125.65 23.4299H123.57V24.5599H125.34C125.45 24.5599 125.51 24.6199 125.51 24.7399V25.0999C125.51 25.2199 125.45 25.2799 125.34 25.2799H123.57V26.4699C123.57 26.5699 123.63 26.6299 123.74 26.6499C123.83 26.6699 123.97 26.6799 124.16 26.6799C124.35 26.6799 124.55 26.6799 124.76 26.6799C124.97 26.6799 125.19 26.6699 125.39 26.6499C125.6 26.6299 125.78 26.6099 125.92 26.5899C126.02 26.5699 126.1 26.5899 126.16 26.6399C126.22 26.6899 126.26 26.7599 126.27 26.8299C126.28 26.8999 126.27 26.9799 126.24 27.0499C126.2 27.1199 126.14 27.1699 126.05 27.1999C125.9 27.2399 125.72 27.2799 125.51 27.2999C125.3 27.3299 125.08 27.3499 124.84 27.3599C124.61 27.3699 124.38 27.3799 124.14 27.3799C123.91 27.3799 123.7 27.3799 123.52 27.3599C123.23 27.3399 123.01 27.2699 122.86 27.1599C122.71 27.0499 122.64 26.8499 122.64 26.5699V23.3799C122.49 23.3499 122.39 23.3099 122.32 23.2399C122.26 23.1699 122.22 23.0899 122.22 22.9899V22.8599C122.22 22.7499 122.28 22.6899 122.4 22.6899H125.64C125.75 22.6899 125.81 22.7499 125.81 22.8699V23.2399L125.82 23.2499ZM126.85 25.2799H126.59C126.3 25.2799 126.1 25.2399 125.97 25.1699C125.84 25.0999 125.78 24.9899 125.78 24.8499V24.7199C125.78 24.6099 125.84 24.5499 125.96 24.5499H126.85V22.7199C126.85 22.5999 126.91 22.5399 127.02 22.5399H127.6C127.71 22.5399 127.77 22.5999 127.77 22.7199V27.8899C127.77 28.2299 127.73 28.4699 127.65 28.6099C127.57 28.7499 127.45 28.8199 127.3 28.8199H127.02C126.9 28.8199 126.85 28.7599 126.85 28.6399V25.2799Z" fill="#684B4E"/>
<path d="M132.24 23.2399C132.24 23.3599 132.18 23.4199 132.07 23.4199H130.88V23.6999C130.88 23.8199 130.88 23.9399 130.85 24.0499C130.83 24.1599 130.8 24.2699 130.77 24.3799C130.94 24.6099 131.15 24.8099 131.38 24.9599C131.61 25.1099 131.87 25.2299 132.14 25.3099C132.24 25.3399 132.32 25.3899 132.37 25.4499C132.42 25.5099 132.46 25.5799 132.47 25.6599C132.48 25.7299 132.47 25.8099 132.45 25.8799C132.42 25.9499 132.38 26.0199 132.33 26.0699C132.28 26.1199 132.21 26.1499 132.13 26.1699C132.05 26.1899 131.96 26.1699 131.86 26.1299C131.6 26.0199 131.35 25.8699 131.11 25.6699C130.87 25.4699 130.65 25.2399 130.46 24.9799C130.28 25.2399 130.04 25.4799 129.75 25.6899C129.46 25.8999 129.11 26.0799 128.7 26.2199C128.61 26.2499 128.53 26.2499 128.46 26.2199C128.39 26.1899 128.34 26.1399 128.31 26.0699C128.28 26.0099 128.28 25.9399 128.3 25.8599C128.32 25.7899 128.37 25.7299 128.46 25.6799C128.96 25.4099 129.33 25.1099 129.58 24.7799C129.82 24.4499 129.95 24.0799 129.95 23.6899V23.4099H129.29C129 23.4099 128.8 23.3699 128.67 23.2999C128.54 23.2299 128.48 23.1199 128.48 22.9799V22.8499C128.48 22.7399 128.54 22.6799 128.66 22.6799H132.08C132.19 22.6799 132.25 22.7399 132.25 22.8599V23.2299L132.24 23.2399ZM133.78 28.6299C133.58 28.6799 133.33 28.7199 133.03 28.7499C132.73 28.7799 132.42 28.8099 132.1 28.8199C131.78 28.8399 131.45 28.8399 131.13 28.8399C130.81 28.8399 130.53 28.8299 130.28 28.7999C130.14 28.7899 130.02 28.7599 129.92 28.7299C129.82 28.6999 129.74 28.6499 129.67 28.5899C129.6 28.5299 129.55 28.4499 129.53 28.3499C129.5 28.2499 129.49 28.1299 129.49 27.9899V26.8199C129.49 26.6999 129.55 26.6399 129.66 26.6399H130.25C130.36 26.6399 130.42 26.6999 130.42 26.8199V27.8599C130.42 27.9899 130.48 28.0599 130.61 28.0699C130.8 28.0899 131.02 28.1099 131.26 28.1099C131.51 28.1099 131.76 28.1099 132.04 28.1099C132.31 28.1099 132.59 28.0899 132.87 28.0699C133.15 28.0499 133.42 28.0199 133.68 27.9899C133.78 27.9799 133.86 27.9899 133.92 28.0599C133.98 28.1199 134.02 28.1799 134.03 28.2599C134.04 28.3399 134.03 28.4099 133.99 28.4799C133.95 28.5499 133.88 28.5999 133.78 28.6199V28.6299ZM132.89 22.7199C132.89 22.5999 132.95 22.5399 133.06 22.5399H133.64C133.75 22.5399 133.81 22.5999 133.81 22.7199V26.1499C133.81 26.4899 133.77 26.7299 133.69 26.8699C133.61 27.0099 133.49 27.0799 133.34 27.0799H133.06C132.94 27.0799 132.89 27.0199 132.89 26.8999V22.7299V22.7199Z" fill="#684B4E"/>
<path d="M140.32 26.42C140.32 26.54 140.26 26.6 140.15 26.6H135.11C134.82 26.6 134.62 26.57 134.49 26.5C134.36 26.43 134.3 26.33 134.3 26.19V26.1C134.3 25.99 134.36 25.93 134.48 25.93H140.16C140.27 25.93 140.33 25.99 140.33 26.11V26.43L140.32 26.42ZM139.31 24.47C139.31 24.64 139.27 24.81 139.2 24.95C139.13 25.1 139.01 25.22 138.85 25.33C138.69 25.44 138.48 25.52 138.23 25.59C137.98 25.65 137.67 25.68 137.31 25.68C136.95 25.68 136.65 25.65 136.39 25.59C136.14 25.53 135.93 25.44 135.77 25.33C135.61 25.22 135.49 25.09 135.42 24.95C135.35 24.8 135.31 24.64 135.31 24.47C135.31 24.37 135.33 24.28 135.36 24.18C135.39 24.09 135.45 24 135.53 23.91H135.43C135.14 23.91 134.94 23.88 134.81 23.81C134.68 23.75 134.62 23.65 134.62 23.51V23.42C134.62 23.31 134.68 23.25 134.8 23.25H139.86C139.97 23.25 140.03 23.31 140.03 23.43V23.73C140.03 23.85 139.97 23.91 139.86 23.91H139.11C139.19 23.99 139.24 24.08 139.28 24.18C139.31 24.27 139.33 24.37 139.33 24.47H139.31ZM135.24 27.95C135.24 27.59 135.41 27.31 135.74 27.11C136.07 26.91 136.6 26.81 137.31 26.81C138.02 26.81 138.55 26.91 138.88 27.11C139.21 27.31 139.38 27.59 139.38 27.95C139.38 28.31 139.21 28.59 138.88 28.79C138.55 28.99 138.02 29.09 137.31 29.09C136.6 29.09 136.07 28.99 135.74 28.79C135.41 28.59 135.24 28.31 135.24 27.95ZM138.66 22.83C138.66 22.95 138.6 23.01 138.49 23.01H136.7C136.41 23.01 136.21 22.97 136.08 22.9C135.95 22.82 135.89 22.72 135.89 22.58V22.5C135.89 22.39 135.95 22.33 136.07 22.33H138.49C138.6 22.33 138.66 22.39 138.66 22.51V22.83ZM138.45 27.95C138.45 27.8 138.36 27.69 138.18 27.61C138 27.53 137.71 27.49 137.3 27.49C136.89 27.49 136.6 27.53 136.42 27.61C136.24 27.69 136.15 27.81 136.15 27.95C136.15 28.09 136.24 28.21 136.42 28.29C136.6 28.37 136.89 28.41 137.3 28.41C137.71 28.41 138 28.37 138.18 28.29C138.36 28.21 138.45 28.09 138.45 27.95ZM136.23 24.47C136.23 24.54 136.25 24.61 136.28 24.67C136.31 24.73 136.37 24.79 136.45 24.85C136.53 24.9 136.64 24.94 136.78 24.97C136.92 25 137.09 25.01 137.3 25.01C137.51 25.01 137.69 25 137.82 24.97C137.96 24.94 138.07 24.9 138.15 24.85C138.23 24.8 138.29 24.74 138.32 24.67C138.35 24.61 138.37 24.54 138.37 24.47C138.37 24.4 138.35 24.33 138.32 24.27C138.29 24.2 138.23 24.14 138.15 24.09C138.07 24.04 137.96 24 137.82 23.97C137.68 23.94 137.51 23.93 137.3 23.93C137.09 23.93 136.91 23.94 136.78 23.97C136.64 24 136.53 24.04 136.45 24.09C136.37 24.14 136.31 24.2 136.28 24.27C136.25 24.34 136.23 24.4 136.23 24.47Z" fill="#684B4E"/>
<path d="M146.1 28.63C145.9 28.68 145.64 28.72 145.33 28.75C145.02 28.78 144.69 28.81 144.34 28.82C143.99 28.84 143.65 28.84 143.31 28.84C142.97 28.84 142.68 28.83 142.44 28.8C142.3 28.79 142.18 28.76 142.08 28.73C141.98 28.7 141.9 28.65 141.83 28.59C141.76 28.53 141.71 28.45 141.69 28.35C141.66 28.25 141.65 28.13 141.65 27.99V27.08C141.65 26.96 141.71 26.9 141.82 26.9H142.47V26.11H141.41C141.12 26.11 140.92 26.08 140.79 26.01C140.66 25.94 140.6 25.84 140.6 25.7V25.58C140.6 25.47 140.66 25.41 140.78 25.41H143.48C143.58 25.41 143.68 25.41 143.79 25.41C143.9 25.41 144.02 25.41 144.13 25.4C144.24 25.4 144.35 25.39 144.45 25.38C144.55 25.38 144.64 25.36 144.72 25.35C144.81 25.34 144.88 25.35 144.93 25.4C144.99 25.45 145.02 25.51 145.04 25.58C145.06 25.65 145.05 25.72 145.02 25.79C144.99 25.86 144.94 25.91 144.85 25.93C144.77 25.96 144.67 25.98 144.55 26.01C144.44 26.04 144.31 26.06 144.18 26.08C144.05 26.1 143.92 26.11 143.79 26.12C143.66 26.12 143.53 26.13 143.4 26.13H143.38V26.45C143.38 26.79 143.34 27.03 143.26 27.17C143.18 27.31 143.06 27.38 142.91 27.38H142.57V27.88C142.57 28.01 142.63 28.08 142.76 28.09C142.95 28.11 143.17 28.13 143.44 28.13C143.7 28.13 143.98 28.13 144.27 28.13C144.56 28.13 144.86 28.11 145.16 28.09C145.46 28.07 145.74 28.04 145.99 28.01C146.09 28 146.17 28.01 146.23 28.08C146.29 28.14 146.33 28.2 146.34 28.28C146.35 28.36 146.34 28.43 146.3 28.5C146.26 28.57 146.19 28.62 146.09 28.64L146.1 28.63ZM141.12 23.8C141.12 23.61 141.16 23.43 141.24 23.27C141.32 23.11 141.44 22.97 141.6 22.85C141.75 22.73 141.94 22.64 142.17 22.57C142.39 22.5 142.65 22.47 142.93 22.47C143.21 22.47 143.46 22.5 143.69 22.57C143.92 22.64 144.11 22.73 144.26 22.85C144.41 22.97 144.53 23.11 144.62 23.27C144.7 23.43 144.74 23.61 144.74 23.8C144.74 23.99 144.7 24.17 144.62 24.33C144.54 24.49 144.42 24.63 144.26 24.75C144.11 24.87 143.92 24.96 143.69 25.03C143.46 25.1 143.21 25.13 142.93 25.13C142.65 25.13 142.39 25.1 142.17 25.03C141.95 24.96 141.76 24.87 141.6 24.75C141.45 24.63 141.33 24.49 141.24 24.33C141.16 24.17 141.12 23.99 141.12 23.8ZM142.04 23.8C142.04 23.98 142.12 24.13 142.27 24.24C142.43 24.35 142.64 24.4 142.92 24.4C143.2 24.4 143.41 24.35 143.57 24.24C143.73 24.13 143.8 23.99 143.8 23.8C143.8 23.61 143.72 23.47 143.57 23.36C143.41 23.25 143.2 23.2 142.92 23.2C142.64 23.2 142.43 23.25 142.27 23.36C142.11 23.47 142.04 23.61 142.04 23.8ZM145.21 27.06H144.76C144.47 27.06 144.27 27.03 144.14 26.96C144.01 26.9 143.95 26.79 143.95 26.66V26.56C143.95 26.45 144.01 26.39 144.13 26.39H145.21V22.73C145.21 22.61 145.27 22.55 145.38 22.55H145.96C146.07 22.55 146.13 22.61 146.13 22.73V26.47C146.13 26.81 146.09 27.05 146.01 27.19C145.93 27.33 145.81 27.4 145.66 27.4H145.38C145.26 27.4 145.21 27.34 145.21 27.22V27.08V27.06Z" fill="#684B4E"/>
</g>
</g>
<defs>
<clipPath id="clip0_430_20708">
<rect width="151.39" height="28.5" fill="white" transform="translate(0 0.51001)"/>
</clipPath>
<clipPath id="clip1_430_20708">
<rect width="151.4" height="28.1" fill="white" transform="translate(0 1)"/>
</clipPath>
</defs>
</svg>
