<svg width="40" height="40" viewBox="0 0 40 40" fill="none" xmlns="http://www.w3.org/2000/svg">
<circle cx="20" cy="20" r="20" fill="url(#paint0_linear_401_20472)"/>
<path d="M24.4531 27.6754C22.8536 28.8257 21.1211 29.2131 19.5134 29.2131C17.7436 29.2131 16.1324 28.7441 15.0054 28.3054C14.4163 29.7253 14.2039 30.6563 14.1981 30.6808C14.1106 31.0926 13.7466 31.3738 13.3429 31.3738C13.2834 31.3738 13.2227 31.3679 13.1621 31.3551C12.6896 31.2559 12.3874 30.7928 12.4866 30.3203C12.5531 30.0041 14.1981 22.5071 21.9937 16.6551C22.3811 16.3646 22.9294 16.4439 23.2187 16.8301C23.5092 17.2163 23.4311 17.7646 23.0449 18.0551C19.2532 20.9018 17.0214 24.1988 15.7439 26.7141C17.5803 27.4129 20.7886 28.1549 23.4323 26.2544C28.9728 22.2691 27.2169 14.2832 26.2077 11.0411C25.5509 11.7224 24.5523 12.5204 23.1803 12.9976C22.1956 13.3347 21.2961 13.5727 20.4258 13.8026C19.0013 14.1794 17.7716 14.5037 16.5513 15.1582C12.2521 17.4752 12.2439 22.2341 13.2881 24.8684C13.4666 25.3176 13.2461 25.8262 12.7969 26.0047C12.3489 26.1821 11.8391 25.9628 11.6606 25.5136C10.3866 22.2983 10.4158 16.4766 15.7218 13.6183C17.1253 12.8658 18.5113 12.4994 19.9778 12.1109C20.8178 11.8892 21.6869 11.6594 22.6074 11.3433C24.2594 10.7681 25.2102 9.58745 25.5427 9.10678C25.7609 8.77078 26.1634 8.5794 26.5881 8.6319C27.0092 8.6844 27.3546 8.96907 27.4899 9.37274C28.2704 11.4774 31.83 22.3706 24.4531 27.6754Z" fill="white"/>
<defs>
<linearGradient id="paint0_linear_401_20472" x1="-1.75243" y1="-2.06044" x2="52.8062" y2="11.4131" gradientUnits="userSpaceOnUse">
<stop stop-color="#018085"/>
<stop offset="1" stop-color="#019298"/>
</linearGradient>
</defs>
</svg>
