<svg width="40" height="40" viewBox="0 0 40 40" fill="none" xmlns="http://www.w3.org/2000/svg">
<circle cx="20" cy="20" r="20" fill="url(#paint0_linear_401_20464)"/>
<g filter="url(#filter0_d_401_20464)">
<path d="M28.0453 14.6775L27.673 14.3065C27.6007 14.233 27.5588 14.135 27.5588 14.0312V13.5085C27.5588 11.6337 26.0327 10.1077 24.1579 10.1077H23.6352C23.5326 10.1077 23.4321 10.0656 23.3598 9.99445L22.989 9.62232C21.6648 8.29698 19.5076 8.29465 18.1787 9.62232L17.8079 9.99331C17.7356 10.0656 17.6351 10.1077 17.5325 10.1077H17.0098C15.135 10.1077 13.6089 11.6337 13.6089 13.5085V14.0312C13.6089 14.135 13.5682 14.233 13.4947 14.3054L13.1224 14.6786C11.7971 16.004 11.7971 18.1624 13.1224 19.4889L13.4947 19.8598C13.567 19.9333 13.6089 20.0313 13.6089 20.1351V20.6578C13.6089 22.087 14.4968 23.3073 15.7474 23.8102L13.9088 30.2594C13.8178 30.5803 13.917 30.9257 14.1655 31.1497C14.4116 31.3725 14.7651 31.4367 15.0766 31.3119L18.3061 30.0181C19.7761 29.4324 21.3928 29.4324 22.8605 30.0181L26.0922 31.313C26.1984 31.355 26.3092 31.376 26.4177 31.376C26.6312 31.376 26.84 31.299 27.0034 31.1508C27.2519 30.9268 27.351 30.5827 27.26 30.2607L25.4214 23.8113C26.6721 23.3085 27.5599 22.0881 27.5599 20.6589V20.1363C27.5599 20.0324 27.6006 19.9345 27.6741 19.8621L28.0464 19.49C28.0464 19.49 28.0464 19.49 28.0464 19.4889C29.3706 18.1624 29.3706 16.004 28.0453 14.6775ZM23.5093 28.3917C21.6252 27.6403 19.5473 27.6392 17.6549 28.3917L16.0798 29.0229L17.4951 24.0587H17.5302C17.6328 24.0587 17.733 24.1007 17.8053 24.1719L18.1765 24.544C18.8391 25.2067 19.7095 25.5392 20.5821 25.5392C21.4525 25.5392 22.324 25.2079 22.9878 24.544L23.3587 24.173C23.431 24.1007 23.5314 24.0587 23.6341 24.0587H23.6691L25.0842 29.0229L23.5093 28.3917ZM26.8085 18.251L26.4365 18.6231C26.0317 19.0268 25.8099 19.5646 25.8099 20.1351V20.6578C25.8099 21.5678 25.069 22.3087 24.159 22.3087H23.6364C23.0729 22.3087 22.5212 22.5373 22.1234 22.9363L21.7522 23.3073C21.1281 23.9303 20.0408 23.9303 19.4166 23.3073L19.0455 22.9352C18.6476 22.5373 18.0971 22.3087 17.5325 22.3087H17.0098C16.0998 22.3087 15.3589 21.5678 15.3589 20.6578V20.1351C15.3589 19.5635 15.1374 19.0268 14.7326 18.622L14.3603 18.251C13.7175 17.607 13.7175 16.5582 14.3603 15.9154L14.7326 15.5432C15.1374 15.1396 15.3589 14.6017 15.3589 14.0312V13.5085C15.3589 12.5985 16.0998 11.8577 17.0098 11.8577H17.5325C18.096 11.8577 18.6476 11.629 19.0455 11.23L19.4166 10.8591C20.0408 10.2361 21.1281 10.2361 21.7522 10.8591L22.1234 11.2312C22.5212 11.629 23.0717 11.8577 23.6364 11.8577H24.159C25.069 11.8577 25.8099 12.5985 25.8099 13.5085V14.0312C25.8099 14.6029 26.0317 15.1395 26.4365 15.5444L26.8085 15.9154C27.4514 16.5594 27.4514 17.607 26.8085 18.251ZM20.5833 13.2915C18.4926 13.2915 16.7916 14.9925 16.7916 17.0832C16.7916 19.1738 18.4926 20.8748 20.5833 20.8748C22.6739 20.8748 24.3749 19.1738 24.3749 17.0832C24.3749 14.9925 22.6739 13.2915 20.5833 13.2915ZM20.5833 19.1248C19.4574 19.1248 18.5416 18.209 18.5416 17.0832C18.5416 15.9573 19.4574 15.0415 20.5833 15.0415C21.7091 15.0415 22.6249 15.9573 22.6249 17.0832C22.6249 18.209 21.7091 19.1248 20.5833 19.1248Z" fill="white"/>
</g>
<defs>
<filter id="filter0_d_401_20464" x="8.12842" y="8.62744" width="24.9109" height="30.7485" filterUnits="userSpaceOnUse" color-interpolation-filters="sRGB">
<feFlood flood-opacity="0" result="BackgroundImageFix"/>
<feColorMatrix in="SourceAlpha" type="matrix" values="0 0 0 0 0 0 0 0 0 0 0 0 0 0 0 0 0 0 127 0" result="hardAlpha"/>
<feOffset dy="4"/>
<feGaussianBlur stdDeviation="2"/>
<feComposite in2="hardAlpha" operator="out"/>
<feColorMatrix type="matrix" values="0 0 0 0 0 0 0 0 0 0 0 0 0 0 0 0 0 0 0.25 0"/>
<feBlend mode="normal" in2="BackgroundImageFix" result="effect1_dropShadow_401_20464"/>
<feBlend mode="normal" in="SourceGraphic" in2="effect1_dropShadow_401_20464" result="shape"/>
</filter>
<linearGradient id="paint0_linear_401_20464" x1="-9.64539" y1="-4.16667" x2="53.1254" y2="1.23928" gradientUnits="userSpaceOnUse">
<stop stop-color="#4072F2"/>
<stop offset="1" stop-color="#60CDEF"/>
</linearGradient>
</defs>
</svg>
