<svg width="65" height="64" viewBox="0 0 65 64" fill="none" xmlns="http://www.w3.org/2000/svg">
<path d="M32.5 61.091C48.5664 61.091 61.5909 48.0666 61.5909 32.0001C61.5909 15.9336 48.5664 2.90918 32.5 2.90918C16.4335 2.90918 3.40906 15.9336 3.40906 32.0001C3.40906 48.0666 16.4335 61.091 32.5 61.091Z" fill="#E7EFFF"/>
<path d="M13.3 4.07294C14.264 4.07294 15.0455 3.29147 15.0455 2.32749C15.0455 1.3635 14.264 0.582031 13.3 0.582031C12.336 0.582031 11.5546 1.3635 11.5546 2.32749C11.5546 3.29147 12.336 4.07294 13.3 4.07294Z" fill="#00C99F"/>
<path d="M62.1727 20.364C63.1367 20.364 63.9182 19.5825 63.9182 18.6185C63.9182 17.6545 63.1367 16.873 62.1727 16.873C61.2087 16.873 60.4272 17.6545 60.4272 18.6185C60.4272 19.5825 61.2087 20.364 62.1727 20.364Z" fill="#FFA100"/>
<path d="M52.2818 63.4182C53.2458 63.4182 54.0273 62.6367 54.0273 61.6727C54.0273 60.7087 53.2458 59.9272 52.2818 59.9272C51.3178 59.9272 50.5364 60.7087 50.5364 61.6727C50.5364 62.6367 51.3178 63.4182 52.2818 63.4182Z" fill="#00C99F"/>
<path d="M2.82724 52.9455C3.79123 52.9455 4.5727 52.164 4.5727 51.2C4.5727 50.2361 3.79123 49.4546 2.82724 49.4546C1.86325 49.4546 1.08179 50.2361 1.08179 51.2C1.08179 52.164 1.86325 52.9455 2.82724 52.9455Z" fill="#FF4D69"/>
<path d="M26.6817 51.7821H20.8636C20.092 51.7821 19.3521 51.4756 18.8065 50.93C18.261 50.3844 17.9545 49.6445 17.9545 48.873V46.5457C17.9545 46.3914 18.0158 46.2434 18.1249 46.1343C18.234 46.0252 18.382 45.9639 18.5363 45.9639C18.6906 45.9639 18.8386 46.0252 18.9477 46.1343C19.0568 46.2434 19.1181 46.3914 19.1181 46.5457V48.873C19.1181 49.3359 19.302 49.7798 19.6293 50.1072C19.9567 50.4345 20.4006 50.6184 20.8636 50.6184H26.6817C26.836 50.6184 26.984 50.6797 27.0931 50.7888C27.2023 50.8979 27.2636 51.0459 27.2636 51.2002C27.2636 51.3545 27.2023 51.5025 27.0931 51.6116C26.984 51.7208 26.836 51.7821 26.6817 51.7821Z" fill="#A5BCED"/>
<path d="M44.1363 51.7821H38.3181C38.1638 51.7821 38.0159 51.7208 37.9067 51.6116C37.7976 51.5025 37.7363 51.3545 37.7363 51.2002C37.7363 51.0459 37.7976 50.8979 37.9067 50.7888C38.0159 50.6797 38.1638 50.6184 38.3181 50.6184H44.1363C44.5993 50.6184 45.0432 50.4345 45.3706 50.1072C45.6979 49.7798 45.8818 49.3359 45.8818 48.873V46.5457C45.8818 46.3914 45.9431 46.2434 46.0522 46.1343C46.1613 46.0252 46.3093 45.9639 46.4636 45.9639C46.6179 45.9639 46.7659 46.0252 46.875 46.1343C46.9841 46.2434 47.0454 46.3914 47.0454 46.5457V48.873C47.0454 49.6445 46.7389 50.3844 46.1934 50.93C45.6478 51.4756 44.9079 51.7821 44.1363 51.7821Z" fill="#A5BCED"/>
<path d="M38.9 46.5459V60.3815C34.686 61.3299 30.3139 61.3299 26.1 60.3815V46.5459H38.9Z" fill="#323FD4"/>
<path d="M11.5546 9.30908H53.4455C54.0627 9.30908 54.6547 9.55428 55.0911 9.99072C55.5276 10.4272 55.7728 11.0191 55.7728 11.6364V41.8909H9.22729V11.6364C9.22729 11.0191 9.47249 10.4272 9.90894 9.99072C10.3454 9.55428 10.9373 9.30908 11.5546 9.30908V9.30908Z" fill="#8FA2FF"/>
<path d="M52.8637 11.6367H12.1364C11.8151 11.6367 11.5546 11.8972 11.5546 12.2185V38.9822C11.5546 39.3035 11.8151 39.564 12.1364 39.564H52.8637C53.185 39.564 53.4455 39.3035 53.4455 38.9822V12.2185C53.4455 11.8972 53.185 11.6367 52.8637 11.6367Z" fill="white"/>
<path d="M15.6272 6.40018C15.6272 6.55449 15.6885 6.70247 15.7976 6.81159C15.9067 6.9207 16.0547 6.982 16.209 6.982H20.2817V9.30927H21.4454V6.982H27.8454V9.30927H29.009V6.982H35.9908V9.30927H37.1545V6.982H43.5545V9.30927H44.7181V6.982H48.7908C48.9451 6.982 49.0931 6.9207 49.2022 6.81159C49.3114 6.70247 49.3727 6.55449 49.3727 6.40018C49.3727 6.24587 49.3114 6.09788 49.2022 5.98877C49.0931 5.87966 48.9451 5.81836 48.7908 5.81836H16.209C16.0547 5.81836 15.9067 5.87966 15.7976 5.98877C15.6885 6.09788 15.6272 6.24587 15.6272 6.40018Z" fill="#4E6AFF"/>
<path d="M58.1 41.8911H6.89996C6.25731 41.8911 5.73633 42.4121 5.73633 43.0548V46.5457C5.73633 47.1883 6.25731 47.7093 6.89996 47.7093H58.1C58.7426 47.7093 59.2636 47.1883 59.2636 46.5457V43.0548C59.2636 42.4121 58.7426 41.8911 58.1 41.8911Z" fill="#4E6AFF"/>
<path d="M26.0999 18.0364V20.9455C24.1958 20.9472 22.3624 21.667 20.9657 22.9612C19.569 24.2554 18.7118 26.0288 18.5654 27.9273H16.209C16.0547 27.9273 15.9067 27.866 15.7976 27.7569C15.6885 27.6478 15.6272 27.4998 15.6272 27.3455V18.0364C15.6272 17.8821 15.6885 17.7341 15.7976 17.625C15.9067 17.5159 16.0547 17.4546 16.209 17.4546H25.5181C25.6724 17.4546 25.8204 17.5159 25.9295 17.625C26.0386 17.7341 26.0999 17.8821 26.0999 18.0364Z" fill="#00C99F"/>
<path d="M26.1 33.7457C28.992 33.7457 31.3364 31.4013 31.3364 28.5093C31.3364 25.6173 28.992 23.2729 26.1 23.2729C23.208 23.2729 20.8636 25.6173 20.8636 28.5093C20.8636 31.4013 23.208 33.7457 26.1 33.7457Z" fill="#FF4D69"/>
<path d="M48.7909 18.6182H40.6454C40.4911 18.6182 40.3431 18.5569 40.234 18.4478C40.1249 18.3387 40.0636 18.1907 40.0636 18.0364C40.0636 17.8821 40.1249 17.7341 40.234 17.625C40.3431 17.5159 40.4911 17.4546 40.6454 17.4546H48.7909C48.9452 17.4546 49.0932 17.5159 49.2023 17.625C49.3114 17.7341 49.3727 17.8821 49.3727 18.0364C49.3727 18.1907 49.3114 18.3387 49.2023 18.4478C49.0932 18.5569 48.9452 18.6182 48.7909 18.6182Z" fill="#7F96D1"/>
<path d="M48.7908 20.9459H34.8272C34.6729 20.9459 34.5249 20.8846 34.4158 20.7755C34.3067 20.6663 34.2454 20.5184 34.2454 20.364C34.2454 20.2097 34.3067 20.0617 34.4158 19.9526C34.5249 19.8435 34.6729 19.7822 34.8272 19.7822H48.7908C48.9451 19.7822 49.0931 19.8435 49.2022 19.9526C49.3113 20.0617 49.3726 20.2097 49.3726 20.364C49.3726 20.5184 49.3113 20.6663 49.2022 20.7755C49.0931 20.8846 48.9451 20.9459 48.7908 20.9459Z" fill="#7F96D1"/>
<path d="M48.7908 23.273H34.8272C34.6729 23.273 34.5249 23.2117 34.4158 23.1026C34.3067 22.9935 34.2454 22.8455 34.2454 22.6912C34.2454 22.5369 34.3067 22.3889 34.4158 22.2798C34.5249 22.1707 34.6729 22.1094 34.8272 22.1094H48.7908C48.9451 22.1094 49.0931 22.1707 49.2022 22.2798C49.3113 22.3889 49.3726 22.5369 49.3726 22.6912C49.3726 22.8455 49.3113 22.9935 49.2022 23.1026C49.0931 23.2117 48.9451 23.273 48.7908 23.273Z" fill="#7F96D1"/>
<path d="M48.7908 25.6002H34.8272C34.6729 25.6002 34.5249 25.5389 34.4158 25.4298C34.3067 25.3206 34.2454 25.1726 34.2454 25.0183C34.2454 24.864 34.3067 24.716 34.4158 24.6069C34.5249 24.4978 34.6729 24.4365 34.8272 24.4365H48.7908C48.9451 24.4365 49.0931 24.4978 49.2022 24.6069C49.3113 24.716 49.3726 24.864 49.3726 25.0183C49.3726 25.1726 49.3113 25.3206 49.2022 25.4298C49.0931 25.5389 48.9451 25.6002 48.7908 25.6002Z" fill="#7F96D1"/>
<path d="M48.7908 27.9273H34.8272C34.6729 27.9273 34.5249 27.866 34.4158 27.7569C34.3067 27.6478 34.2454 27.4998 34.2454 27.3455C34.2454 27.1912 34.3067 27.0432 34.4158 26.9341C34.5249 26.825 34.6729 26.7637 34.8272 26.7637H48.7908C48.9451 26.7637 49.0931 26.825 49.2022 26.9341C49.3113 27.0432 49.3726 27.1912 49.3726 27.3455C49.3726 27.4998 49.3113 27.6478 49.2022 27.7569C49.0931 27.866 48.9451 27.9273 48.7908 27.9273Z" fill="#7F96D1"/>
<path d="M48.7908 30.2549H34.8272C34.6729 30.2549 34.5249 30.1936 34.4158 30.0845C34.3067 29.9754 34.2454 29.8274 34.2454 29.6731C34.2454 29.5188 34.3067 29.3708 34.4158 29.2617C34.5249 29.1526 34.6729 29.0913 34.8272 29.0913H48.7908C48.9451 29.0913 49.0931 29.1526 49.2022 29.2617C49.3113 29.3708 49.3726 29.5188 49.3726 29.6731C49.3726 29.8274 49.3113 29.9754 49.2022 30.0845C49.0931 30.1936 48.9451 30.2549 48.7908 30.2549Z" fill="#7F96D1"/>
<path d="M42.9726 32.5821H34.8272C34.6729 32.5821 34.5249 32.5208 34.4158 32.4117C34.3067 32.3026 34.2454 32.1546 34.2454 32.0003C34.2454 31.846 34.3067 31.698 34.4158 31.5889C34.5249 31.4798 34.6729 31.4185 34.8272 31.4185H42.9726C43.1269 31.4185 43.2749 31.4798 43.384 31.5889C43.4932 31.698 43.5545 31.846 43.5545 32.0003C43.5545 32.1546 43.4932 32.3026 43.384 32.4117C43.2749 32.5208 43.1269 32.5821 42.9726 32.5821Z" fill="#7F96D1"/>
</svg>
