<svg width="65" height="64" viewBox="0 0 65 64" fill="none" xmlns="http://www.w3.org/2000/svg">
<g clip-path="url(#clip0_57_41620)">
<path d="M32.1667 64C49.2876 64 63.1667 50.1208 63.1667 33C63.1667 15.8792 49.2876 2 32.1667 2C15.0459 2 1.16675 15.8792 1.16675 33C1.16675 50.1208 15.0459 64 32.1667 64Z" fill="#E7EFFF"/>
<path d="M34.1667 36V63.935C32.8349 64.0225 31.4986 64.0225 30.1667 63.935V36H34.1667Z" fill="#323FD4"/>
<path d="M32.1667 40C43.2124 40 52.1667 31.0457 52.1667 20C52.1667 8.9543 43.2124 0 32.1667 0C21.1211 0 12.1667 8.9543 12.1667 20C12.1667 31.0457 21.1211 40 32.1667 40Z" fill="#4E6AFF"/>
<path d="M44.1667 41H48.1667C48.6972 41 49.2059 41.2107 49.581 41.5858C49.956 41.9609 50.1667 42.4696 50.1667 43V47C50.1667 49.6522 49.1132 52.1957 47.2378 54.0711C45.3625 55.9464 42.8189 57 40.1667 57H34.1667V51C34.1667 48.3478 35.2203 45.8043 37.0957 43.9289C38.971 42.0536 41.5146 41 44.1667 41V41Z" fill="#8FA2FF"/>
<path d="M30.1667 57H24.1667C21.5146 57 18.971 55.9464 17.0957 54.0711C15.2203 52.1957 14.1667 49.6522 14.1667 47V43C14.1667 42.4696 14.3775 41.9609 14.7525 41.5858C15.1276 41.2107 15.6363 41 16.1667 41H20.1667C22.8189 41 25.3625 42.0536 27.2378 43.9289C29.1132 45.8043 30.1667 48.3478 30.1667 51V57Z" fill="#8FA2FF"/>
<path d="M32.1668 60.0001C31.902 59.999 31.6484 59.8929 31.4618 59.7051L18.4618 46.7051C18.2979 46.5138 18.2123 46.2678 18.2221 46.0161C18.2318 45.7644 18.3361 45.5257 18.5142 45.3476C18.6923 45.1695 18.931 45.0652 19.1827 45.0554C19.4344 45.0457 19.6805 45.1313 19.8718 45.2951L32.8718 58.2951C33.0108 58.435 33.1053 58.6128 33.1436 58.8062C33.1818 58.9996 33.162 59.2001 33.0867 59.3823C33.0113 59.5645 32.8838 59.7203 32.7201 59.8303C32.5565 59.9402 32.3639 59.9993 32.1668 60.0001V60.0001Z" fill="#323FD4"/>
<path d="M23.1667 51C22.9015 51 22.6472 50.8946 22.4596 50.7071C22.2721 50.5196 22.1667 50.2652 22.1667 50V46C22.1667 45.7348 22.2721 45.4804 22.4596 45.2929C22.6472 45.1054 22.9015 45 23.1667 45C23.432 45 23.6863 45.1054 23.8739 45.2929C24.0614 45.4804 24.1667 45.7348 24.1667 46V50C24.1667 50.2652 24.0614 50.5196 23.8739 50.7071C23.6863 50.8946 23.432 51 23.1667 51Z" fill="#323FD4"/>
<path d="M26.1667 54H22.1667C21.9015 54 21.6472 53.8946 21.4596 53.7071C21.2721 53.5196 21.1667 53.2652 21.1667 53C21.1667 52.7348 21.2721 52.4804 21.4596 52.2929C21.6472 52.1054 21.9015 52 22.1667 52H26.1667C26.432 52 26.6863 52.1054 26.8739 52.2929C27.0614 52.4804 27.1667 52.7348 27.1667 53C27.1667 53.2652 27.0614 53.5196 26.8739 53.7071C26.6863 53.8946 26.432 54 26.1667 54Z" fill="#323FD4"/>
<path d="M32.1667 60.0001C31.9695 59.9993 31.777 59.9402 31.6133 59.8303C31.4496 59.7203 31.3221 59.5645 31.2468 59.3823C31.1714 59.2001 31.1516 58.9996 31.1899 58.8062C31.2281 58.6128 31.3227 58.435 31.4617 58.2951L44.4617 45.2951C44.653 45.1313 44.8991 45.0457 45.1508 45.0554C45.4024 45.0652 45.6412 45.1695 45.8193 45.3476C45.9974 45.5257 46.1017 45.7644 46.1114 46.0161C46.1211 46.2678 46.0355 46.5138 45.8717 46.7051L32.8717 59.7051C32.685 59.8929 32.4315 59.999 32.1667 60.0001Z" fill="#323FD4"/>
<path d="M41.1667 51C40.9015 51 40.6472 50.8946 40.4596 50.7071C40.2721 50.5196 40.1667 50.2652 40.1667 50V46C40.1667 45.7348 40.2721 45.4804 40.4596 45.2929C40.6472 45.1054 40.9015 45 41.1667 45C41.432 45 41.6863 45.1054 41.8739 45.2929C42.0614 45.4804 42.1667 45.7348 42.1667 46V50C42.1667 50.2652 42.0614 50.5196 41.8739 50.7071C41.6863 50.8946 41.432 51 41.1667 51Z" fill="#323FD4"/>
<path d="M42.1667 54H38.1667C37.9015 54 37.6472 53.8946 37.4596 53.7071C37.2721 53.5196 37.1667 53.2652 37.1667 53C37.1667 52.7348 37.2721 52.4804 37.4596 52.2929C37.6472 52.1054 37.9015 52 38.1667 52H42.1667C42.432 52 42.6863 52.1054 42.8739 52.2929C43.0614 52.4804 43.1667 52.7348 43.1667 53C43.1667 53.2652 43.0614 53.5196 42.8739 53.7071C42.6863 53.8946 42.432 54 42.1667 54Z" fill="#323FD4"/>
<path d="M5.66675 22C6.49518 22 7.16675 21.3284 7.16675 20.5C7.16675 19.6716 6.49518 19 5.66675 19C4.83832 19 4.16675 19.6716 4.16675 20.5C4.16675 21.3284 4.83832 22 5.66675 22Z" fill="#FFA100"/>
<path d="M58.6667 40C59.4952 40 60.1667 39.3284 60.1667 38.5C60.1667 37.6716 59.4952 37 58.6667 37C57.8383 37 57.1667 37.6716 57.1667 38.5C57.1667 39.3284 57.8383 40 58.6667 40Z" fill="#FFA100"/>
<path d="M58.6667 12C59.4952 12 60.1667 11.3284 60.1667 10.5C60.1667 9.67157 59.4952 9 58.6667 9C57.8383 9 57.1667 9.67157 57.1667 10.5C57.1667 11.3284 57.8383 12 58.6667 12Z" fill="#00C99F"/>
<path d="M10.6667 56C11.4952 56 12.1667 55.3284 12.1667 54.5C12.1667 53.6716 11.4952 53 10.6667 53C9.83832 53 9.16675 53.6716 9.16675 54.5C9.16675 55.3284 9.83832 56 10.6667 56Z" fill="#00C99F"/>
<g clip-path="url(#clip1_57_41620)">
<path d="M44.6667 19.1576V21.1482C44.6667 21.6565 44.2557 22.0631 43.7419 22.0631H41.5068C40.8218 24.8247 40.1367 27.5947 39.4345 30.4748C39.366 30.7543 39.0663 31 38.758 31H35.7351C35.4525 31 35.1271 30.7713 35.0586 30.4917C34.2022 27.1796 33.5 24.3757 32.5752 21.072C32.5495 20.9111 32.4553 20.2927 32.3868 20.0131L32.2241 21.0974C31.4105 24.2486 30.5542 27.3236 29.7407 30.4748C29.6722 30.7543 29.3724 31 29.0642 31H26.067C25.7672 31 25.459 30.7459 25.3904 30.4748C24.6626 27.5947 23.9689 24.8247 23.2924 22.0631H21.0916C20.5778 22.0631 20.1667 21.6565 20.1667 21.1482V19.1576C20.1667 18.6493 20.5778 18.2427 21.0916 18.2427H22.3676C21.8623 16.1419 21.3485 14.0241 20.8261 11.8471C20.7062 11.3897 21.0317 11 21.5026 11H24.9623C25.262 11 25.5703 11.2541 25.6388 11.5506L27.6598 20.9704C27.6598 21.0635 27.7968 21.9784 27.7968 22.2325L27.9338 21.2245C28.6788 18.2173 29.5865 14.651 30.4001 11.5252C30.4686 11.2457 30.794 11 31.0766 11H33.7912C34.0909 11 34.3992 11.2541 34.4677 11.5252L36.9511 21.3177C36.9511 21.4363 36.9768 22.0038 37.0453 22.2156C37.1138 21.8683 37.071 21.5464 37.1395 21.0889C37.5077 19.4117 37.8588 17.6836 39.229 11.5506C39.2975 11.2541 39.5972 11 39.9055 11H43.348C43.8104 11 44.1358 11.3897 44.0245 11.8471C43.4936 14.0326 42.9712 16.1419 42.4574 18.2427H43.7505C44.2643 18.2427 44.6753 18.6493 44.6753 19.1576H44.6667Z" fill="white"/>
</g>
</g>
<defs>
<clipPath id="clip0_57_41620">
<rect width="64" height="64" fill="white" transform="translate(0.166748)"/>
</clipPath>
<clipPath id="clip1_57_41620">
<rect width="24.5" height="20" fill="white" transform="translate(20.1667 11)"/>
</clipPath>
</defs>
</svg>
