<svg width="65" height="64" viewBox="0 0 65 64" fill="none" xmlns="http://www.w3.org/2000/svg">
<path d="M30.1727 63.4186C46.2392 63.4186 59.2636 50.3942 59.2636 34.3277C59.2636 18.2613 46.2392 5.23682 30.1727 5.23682C14.1062 5.23682 1.08179 18.2613 1.08179 34.3277C1.08179 50.3942 14.1062 63.4186 30.1727 63.4186Z" fill="#E7EFFF"/>
<path d="M2.82724 4.07294C3.79123 4.07294 4.5727 3.29147 4.5727 2.32749C4.5727 1.3635 3.79123 0.582031 2.82724 0.582031C1.86325 0.582031 1.08179 1.3635 1.08179 2.32749C1.08179 3.29147 1.86325 4.07294 2.82724 4.07294Z" fill="#00C99F"/>
<path d="M59.8454 11.0549C60.8094 11.0549 61.5909 10.2734 61.5909 9.30942C61.5909 8.34543 60.8094 7.56396 59.8454 7.56396C58.8814 7.56396 58.1 8.34543 58.1 9.30942C58.1 10.2734 58.8814 11.0549 59.8454 11.0549Z" fill="#FFA100"/>
<path d="M54.6091 60.5095C55.5731 60.5095 56.3546 59.728 56.3546 58.764C56.3546 57.8 55.5731 57.0186 54.6091 57.0186C53.6451 57.0186 52.8636 57.8 52.8636 58.764C52.8636 59.728 53.6451 60.5095 54.6091 60.5095Z" fill="#00C99F"/>
<path d="M3.40903 58.1818C4.37302 58.1818 5.15448 57.4004 5.15448 56.4364C5.15448 55.4724 4.37302 54.6909 3.40903 54.6909C2.44504 54.6909 1.66357 55.4724 1.66357 56.4364C1.66357 57.4004 2.44504 58.1818 3.40903 58.1818Z" fill="#FF4D69"/>
<path d="M17.9546 58.7639C17.9546 60.0556 18.0069 60.2417 17.7218 60.6257C14.3129 59.0048 11.2503 56.7385 8.70366 53.9523L8.06366 49.4548C7.75505 49.4548 7.45907 49.3322 7.24085 49.114C7.02262 48.8958 6.90002 48.5998 6.90002 48.2912V44.8003H15.6273V57.6003H16.7909C17.0995 57.6003 17.3955 57.7229 17.6137 57.9411C17.832 58.1593 17.9546 58.4553 17.9546 58.7639Z" fill="#323FD4"/>
<path d="M15.6272 50.0366V57.6003H12.7181C12.1363 57.1523 11.5545 56.6752 10.9727 56.1748V51.2003C10.9727 50.8916 11.0953 50.5957 11.3135 50.3774C11.5317 50.1592 11.8277 50.0366 12.1363 50.0366H15.6272Z" fill="#4E6AFF"/>
<path d="M15.6272 45.3818H20.2817V47.7091C20.2817 48.3263 20.0365 48.9183 19.6001 49.3547C19.1637 49.7912 18.5717 50.0364 17.9545 50.0364H15.6272V45.3818Z" fill="#8FA2FF"/>
<path d="M47.6273 43.0549C51.1619 43.0549 54.0273 40.1895 54.0273 36.6549C54.0273 33.1203 51.1619 30.2549 47.6273 30.2549C44.0927 30.2549 41.2273 33.1203 41.2273 36.6549C41.2273 40.1895 44.0927 43.0549 47.6273 43.0549Z" fill="#323FD4"/>
<path d="M10.3908 36.6548C10.3871 37.6341 10.1363 38.5967 9.66152 39.4533C9.18675 40.3099 8.50343 41.0328 7.6749 41.555C6.84636 42.0772 5.89941 42.3818 4.92181 42.4405C3.94421 42.4993 2.9676 42.3103 2.08247 41.8912C1.21197 38.6474 0.906903 35.2778 1.18065 31.9304C2.04988 31.3067 3.07425 30.9347 4.14116 30.8554C5.20807 30.776 6.2762 30.9924 7.22812 31.4807C8.18004 31.969 8.9789 32.7103 9.53688 33.6231C10.0949 34.5359 10.3903 35.5849 10.3908 36.6548V36.6548Z" fill="#323FD4"/>
<path d="M8.64545 24.4365H10.9727C11.2813 24.4365 11.5773 24.5591 11.7955 24.7773C12.0138 24.9956 12.1364 25.2915 12.1364 25.6002V27.9274H7.48181V25.6002C7.48181 25.2915 7.60441 24.9956 7.82263 24.7773C8.04086 24.5591 8.33683 24.4365 8.64545 24.4365Z" fill="#323FD4"/>
<path d="M44.1363 21.5273C44.1363 53.1666 44.0782 51.7412 44.1363 51.7819C38.0355 47.5867 30.9512 45.0449 23.5749 44.4044L21.4454 44.2183V29.091L23.5749 28.9048C30.9512 28.2643 38.0355 25.7225 44.1363 21.5273Z" fill="#8FA2FF"/>
<path d="M8.06366 26.7637H20.2818C20.7448 26.7637 21.1887 26.9476 21.5161 27.2749C21.8434 27.6022 22.0273 28.0462 22.0273 28.5091V44.8C22.0273 45.263 21.8434 45.7069 21.5161 46.0343C21.1887 46.3616 20.7448 46.5455 20.2818 46.5455H8.06366C7.13782 46.5455 6.24989 46.1777 5.59522 45.523C4.94055 44.8684 4.57275 43.9804 4.57275 43.0546V30.2546C4.57275 29.3287 4.94055 28.4408 5.59522 27.7861C6.24989 27.1315 7.13782 26.7637 8.06366 26.7637V26.7637Z" fill="#4E6AFF"/>
<path d="M45.2999 55.8546C44.6827 55.8546 44.0907 55.6094 43.6543 55.173C43.2178 54.7365 42.9727 54.1446 42.9727 53.5273V19.7819C42.9727 19.1646 43.2178 18.5727 43.6543 18.1362C44.0907 17.6998 44.6827 17.4546 45.2999 17.4546C45.9172 17.4546 46.5091 17.6998 46.9456 18.1362C47.382 18.5727 47.6272 19.1646 47.6272 19.7819V53.5273C47.6272 54.1446 47.382 54.7365 46.9456 55.173C46.5091 55.6094 45.9172 55.8546 45.2999 55.8546Z" fill="#4E6AFF"/>
<path d="M8.64545 35.491C8.33683 35.491 8.04086 35.3684 7.82263 35.1502C7.60441 34.932 7.48181 34.636 7.48181 34.3274V30.8365C7.48181 30.5279 7.60441 30.2319 7.82263 30.0137C8.04086 29.7954 8.33683 29.6729 8.64545 29.6729C8.95406 29.6729 9.25004 29.7954 9.46826 30.0137C9.68649 30.2319 9.80908 30.5279 9.80908 30.8365V34.3274C9.80908 34.636 9.68649 34.932 9.46826 35.1502C9.25004 35.3684 8.95406 35.491 8.64545 35.491Z" fill="#323FD4"/>
<path d="M13.3 35.491C12.9914 35.491 12.6954 35.3684 12.4772 35.1502C12.2589 34.932 12.1364 34.636 12.1364 34.3274V30.8365C12.1364 30.5279 12.2589 30.2319 12.4772 30.0137C12.6954 29.7954 12.9914 29.6729 13.3 29.6729C13.6086 29.6729 13.9046 29.7954 14.1228 30.0137C14.341 30.2319 14.4636 30.5279 14.4636 30.8365V34.3274C14.4636 34.636 14.341 34.932 14.1228 35.1502C13.9046 35.3684 13.6086 35.491 13.3 35.491Z" fill="#323FD4"/>
<path d="M17.9545 35.491C17.6459 35.491 17.3499 35.3684 17.1317 35.1502C16.9135 34.932 16.7909 34.636 16.7909 34.3274V30.8365C16.7909 30.5279 16.9135 30.2319 17.1317 30.0137C17.3499 29.7954 17.6459 29.6729 17.9545 29.6729C18.2631 29.6729 18.5591 29.7954 18.7773 30.0137C18.9956 30.2319 19.1182 30.5279 19.1182 30.8365V34.3274C19.1182 34.636 18.9956 34.932 18.7773 35.1502C18.5591 35.3684 18.2631 35.491 17.9545 35.491Z" fill="#323FD4"/>
<path d="M18.5364 40.7276H8.06363C7.90932 40.7276 7.76133 40.6663 7.65222 40.5572C7.54311 40.4481 7.48181 40.3001 7.48181 40.1458C7.48181 39.9915 7.54311 39.8435 7.65222 39.7344C7.76133 39.6253 7.90932 39.564 8.06363 39.564H18.5364C18.6907 39.564 18.8387 39.6253 18.9478 39.7344C19.0569 39.8435 19.1182 39.9915 19.1182 40.1458C19.1182 40.3001 19.0569 40.4481 18.9478 40.5572C18.8387 40.6663 18.6907 40.7276 18.5364 40.7276Z" fill="white"/>
<path d="M9.80911 41.8913C9.65481 41.8913 9.50682 41.83 9.39771 41.7209C9.28859 41.6118 9.22729 41.4638 9.22729 41.3095V38.9822C9.22729 38.8279 9.28859 38.6799 9.39771 38.5708C9.50682 38.4617 9.65481 38.4004 9.80911 38.4004C9.96342 38.4004 10.1114 38.4617 10.2205 38.5708C10.3296 38.6799 10.3909 38.8279 10.3909 38.9822V41.3095C10.3909 41.4638 10.3296 41.6118 10.2205 41.7209C10.1114 41.83 9.96342 41.8913 9.80911 41.8913Z" fill="#323FD4"/>
<path d="M62.7545 37.8185H57.5181C57.2095 37.8185 56.9135 37.6959 56.6953 37.4777C56.4771 37.2594 56.3545 36.9635 56.3545 36.6548C56.3545 36.3462 56.4771 36.0503 56.6953 35.832C56.9135 35.6138 57.2095 35.4912 57.5181 35.4912H62.7545C63.0631 35.4912 63.3591 35.6138 63.5773 35.832C63.7955 36.0503 63.9181 36.3462 63.9181 36.6548C63.9181 36.9635 63.7955 37.2594 63.5773 37.4777C63.3591 37.6959 63.0631 37.8185 62.7545 37.8185Z" fill="#FFA100"/>
<path d="M57.5181 30.8366C57.2802 30.8366 57.048 30.7637 56.8529 30.6277C56.6577 30.4918 56.5088 30.2992 56.4264 30.0761C56.344 29.8529 56.332 29.6099 56.3919 29.3797C56.4519 29.1495 56.5809 28.9432 56.7617 28.7886L60.8345 25.2977C61.0702 25.1394 61.3556 25.0728 61.6371 25.1103C61.9185 25.1479 62.1765 25.2871 62.3625 25.5016C62.5484 25.7162 62.6495 25.9914 62.6467 26.2753C62.6439 26.5592 62.5374 26.8323 62.3472 27.0431L58.2745 30.534C58.067 30.7227 57.7984 30.8302 57.5181 30.8366Z" fill="#FFA100"/>
<path d="M61.5908 48.2913C61.3135 48.2914 61.0452 48.1923 60.8345 48.0121L56.7617 44.5212C56.5716 44.3103 56.465 44.0372 56.4622 43.7533C56.4594 43.4694 56.5605 43.1942 56.7464 42.9797C56.9324 42.7651 57.1904 42.6259 57.4718 42.5884C57.7533 42.5508 58.0387 42.6174 58.2745 42.7757L62.3472 46.2666C62.5194 46.4231 62.6408 46.6276 62.6957 46.8537C62.7505 47.0798 62.7363 47.3172 62.6549 47.5352C62.5735 47.7532 62.4286 47.9417 62.2389 48.0765C62.0492 48.2113 61.8235 48.2861 61.5908 48.2913Z" fill="#FFA100"/>
<path d="M24.9363 24.4367C30.7203 24.4367 35.4091 19.7479 35.4091 13.9639C35.4091 8.18001 30.7203 3.49121 24.9363 3.49121C19.1524 3.49121 14.4636 8.18001 14.4636 13.9639C14.4636 19.7479 19.1524 24.4367 24.9363 24.4367Z" fill="#00C99F"/>
<path d="M22.9524 17.6933L19.4614 14.2024C19.2708 13.9798 19.1712 13.6934 19.1825 13.4006C19.1938 13.1077 19.3152 12.8299 19.5225 12.6227C19.7297 12.4154 20.0075 12.294 20.3004 12.2827C20.5932 12.2714 20.8796 12.371 21.1022 12.5617L23.7727 15.2264L28.7705 10.2344C28.9931 10.0438 29.2795 9.94415 29.5723 9.95546C29.8652 9.96677 30.143 10.0882 30.3502 10.2954C30.5575 10.5026 30.6789 10.7805 30.6902 11.0733C30.7015 11.3662 30.6019 11.6525 30.4113 11.8751L24.5931 17.6933C24.3751 17.91 24.0801 18.0317 23.7727 18.0317C23.4653 18.0317 23.1704 17.91 22.9524 17.6933Z" fill="white"/>
<path d="M37.7364 14.5455C38.0577 14.5455 38.3182 14.285 38.3182 13.9637C38.3182 13.6423 38.0577 13.3818 37.7364 13.3818C37.415 13.3818 37.1545 13.6423 37.1545 13.9637C37.1545 14.285 37.415 14.5455 37.7364 14.5455Z" fill="white"/>
<path d="M40.0636 14.5455C40.385 14.5455 40.6454 14.285 40.6454 13.9637C40.6454 13.6423 40.385 13.3818 40.0636 13.3818C39.7423 13.3818 39.4818 13.6423 39.4818 13.9637C39.4818 14.285 39.7423 14.5455 40.0636 14.5455Z" fill="white"/>
</svg>
