<svg width="65" height="64" viewBox="0 0 65 64" fill="none" xmlns="http://www.w3.org/2000/svg">
<path d="M32.5001 63.4186C48.5666 63.4186 61.591 50.3942 61.591 34.3277C61.591 18.2613 48.5666 5.23682 32.5001 5.23682C16.4336 5.23682 3.40918 18.2613 3.40918 34.3277C3.40918 50.3942 16.4336 63.4186 32.5001 63.4186Z" fill="#E7EFFF"/>
<path d="M16.2091 4.07294C17.1731 4.07294 17.9545 3.29147 17.9545 2.32749C17.9545 1.3635 17.1731 0.582031 16.2091 0.582031C15.2451 0.582031 14.4636 1.3635 14.4636 2.32749C14.4636 3.29147 15.2451 4.07294 16.2091 4.07294Z" fill="#00C99F"/>
<path d="M3.99094 33.1638C4.95493 33.1638 5.73639 32.3823 5.73639 31.4183C5.73639 30.4543 4.95493 29.6729 3.99094 29.6729C3.02695 29.6729 2.24548 30.4543 2.24548 31.4183C2.24548 32.3823 3.02695 33.1638 3.99094 33.1638Z" fill="#FF4D69"/>
<path d="M56.9364 33.1638C57.9004 33.1638 58.6818 32.3823 58.6818 31.4183C58.6818 30.4543 57.9004 29.6729 56.9364 29.6729C55.9724 29.6729 55.1909 30.4543 55.1909 31.4183C55.1909 32.3823 55.9724 33.1638 56.9364 33.1638Z" fill="#00C99F"/>
<path d="M61.0091 63.4182C61.9731 63.4182 62.7546 62.6367 62.7546 61.6727C62.7546 60.7087 61.9731 59.9272 61.0091 59.9272C60.0451 59.9272 59.2637 60.7087 59.2637 61.6727C59.2637 62.6367 60.0451 63.4182 61.0091 63.4182Z" fill="#FFA100"/>
<path d="M52.8636 39.2496V49.4547H12.1364V39.2496C12.138 37.8072 12.5864 36.4007 13.4198 35.2234C14.2533 34.0461 15.431 33.1559 16.7909 32.6751L28.4273 28.5093H36.5727L48.2091 32.6751C49.569 33.1559 50.7467 34.0461 51.5801 35.2234C52.4136 36.4007 52.862 37.8072 52.8636 39.2496Z" fill="#323FD4"/>
<path d="M38.26 29.0911L36.5727 47.1275H28.4273C26.6469 28.1195 26.6818 29.126 26.7691 29.0911L28.4273 28.5093H36.5727L38.26 29.0911Z" fill="#8FA2FF"/>
<path d="M35.4091 35.4913L34.2455 37.8186H30.7546L29.5909 35.4913L32.5 33.1641L35.4091 35.4913Z" fill="#FFA100"/>
<path d="M32.5 33.1638C31.4198 33.1638 30.3839 32.7347 29.6201 31.9709C28.8563 31.2072 28.4272 30.1712 28.4272 29.0911V28.5093H36.5727V29.0911C36.5727 30.1712 36.1436 31.2072 35.3798 31.9709C34.616 32.7347 33.5801 33.1638 32.5 33.1638V33.1638Z" fill="#7F96D1"/>
<path d="M56.6047 50.6182C45.0673 67.6596 19.9502 67.7003 8.39526 50.6182H56.6047Z" fill="#A5BCED"/>
<path d="M32.5001 33.1638L29.8295 35.8344C29.3025 36.3591 28.5892 36.654 27.8455 36.6547L26.7692 29.0911L28.4273 28.5093L32.5001 33.1638Z" fill="#4E6AFF"/>
<path d="M38.2309 29.0911L37.1545 36.6547C36.4108 36.654 35.6976 36.3591 35.1705 35.8344L32.5 33.1638L36.5727 28.5093L38.2309 29.0911Z" fill="#4E6AFF"/>
<path d="M37.1545 47.1274H27.8455L30.7545 37.8184H34.2455L37.1545 47.1274Z" fill="#FFA100"/>
<path d="M23.1909 47.1275L24.8084 40.6693C24.8489 40.5054 24.8532 40.3346 24.821 40.1688C24.7889 40.0031 24.721 39.8463 24.6222 39.7093L22.4753 36.7013C22.3428 36.5148 22.2683 36.2933 22.2611 36.0646C22.2538 35.8359 22.3142 35.6101 22.4346 35.4155L26.1873 29.3123L26.7691 29.1028C26.8273 29.1028 26.6295 28.2359 30.1727 47.1392L23.1909 47.1275Z" fill="white"/>
<path d="M38.8127 29.3124L42.5655 35.4157C42.6858 35.6103 42.7462 35.836 42.7389 36.0647C42.7317 36.2934 42.6572 36.5149 42.5247 36.7015L40.3778 39.7095C40.279 39.8464 40.2111 40.0032 40.179 40.169C40.1468 40.3348 40.1512 40.5056 40.1916 40.6695L41.8091 47.1277H34.8273L38.2076 29.0913L38.8127 29.3124Z" fill="white"/>
<path d="M31.3364 2.90918H33.6637C36.1326 2.90918 38.5004 3.88996 40.2462 5.63575C41.992 7.38154 42.9728 9.74935 42.9728 12.2183V19.2001H22.0273V12.2183C22.0273 9.74935 23.0081 7.38154 24.7539 5.63575C26.4997 3.88996 28.8675 2.90918 31.3364 2.90918V2.90918Z" fill="#323FD4"/>
<path d="M32.5001 29.6728C30.3398 29.6728 28.2679 28.8146 26.7404 27.2871C25.2128 25.7595 24.3546 23.6877 24.3546 21.5274V15.7092C24.3546 15.0919 24.5998 14.5 25.0363 14.0635C25.4727 13.6271 26.0647 13.3819 26.6819 13.3819L28.3284 14.0394C29.1592 14.3793 30.049 14.5514 30.9466 14.5455C33.4077 14.5455 34.7168 13.4575 36.5728 12.2183C37.653 12.2183 38.6889 12.6474 39.4526 13.4111C40.2164 14.1749 40.6455 15.2108 40.6455 16.291V21.5274C40.6455 23.6877 39.7873 25.7595 38.2598 27.2871C36.7322 28.8146 34.6604 29.6728 32.5001 29.6728V29.6728Z" fill="#A5BCED"/>
<path d="M23.1909 20.364H24.3546V15.7095H23.1909C22.5737 15.7095 21.9817 15.9547 21.5453 16.3911C21.1088 16.8276 20.8636 17.4195 20.8636 18.0367C20.8636 18.654 21.1088 19.2459 21.5453 19.6824C21.9817 20.1188 22.5737 20.364 23.1909 20.364V20.364Z" fill="#A5BCED"/>
<path d="M41.8092 20.364H40.0637V15.7095H41.8092C42.4264 15.7095 43.0184 15.9547 43.4548 16.3911C43.8913 16.8276 44.1364 17.4195 44.1364 18.0367C44.1364 18.654 43.8913 19.2459 43.4548 19.6824C43.0184 20.1188 42.4264 20.364 41.8092 20.364Z" fill="#A5BCED"/>
<path d="M29.9109 26.118C29.837 26.0872 29.7703 26.0415 29.7149 25.9838C29.6595 25.9261 29.6166 25.8576 29.5888 25.7826C29.5611 25.7075 29.5491 25.6275 29.5537 25.5477C29.5582 25.4678 29.5792 25.3897 29.6153 25.3183C29.6514 25.2469 29.7019 25.1837 29.7635 25.1327C29.8251 25.0817 29.8966 25.0439 29.9735 25.0218C30.0504 24.9996 30.131 24.9936 30.2103 25.004C30.2896 25.0144 30.366 25.0411 30.4345 25.0823C31.0766 25.4003 31.7835 25.5657 32.5 25.5657C33.2165 25.5657 33.9233 25.4003 34.5654 25.0823C34.634 25.0411 34.7103 25.0144 34.7896 25.004C34.869 24.9936 34.9496 24.9996 35.0265 25.0218C35.1034 25.0439 35.1748 25.0817 35.2365 25.1327C35.2981 25.1837 35.3485 25.2469 35.3846 25.3183C35.4207 25.3897 35.4417 25.4678 35.4463 25.5477C35.4508 25.6275 35.4389 25.7075 35.4111 25.7826C35.3834 25.8576 35.3405 25.9261 35.2851 25.9838C35.2297 26.0415 35.1629 26.0872 35.0891 26.118C34.2845 26.5177 33.3984 26.7258 32.5 26.7258C31.6016 26.7258 30.7154 26.5177 29.9109 26.118Z" fill="#7F96D1"/>
<path d="M60.4273 47.7093V50.0365C60.4273 50.1908 60.366 50.3388 60.2568 50.4479C60.1477 50.5571 59.9997 50.6184 59.8454 50.6184H8.39525C7.63941 49.5047 6.9647 48.338 6.37634 47.1274H59.8454C59.9997 47.1274 60.1477 47.1887 60.2568 47.2979C60.366 47.407 60.4273 47.555 60.4273 47.7093Z" fill="#7F96D1"/>
<path d="M17.3727 45.3821V46.5457C17.3727 46.7001 17.3114 46.848 17.2023 46.9572C17.0932 47.0663 16.9452 47.1276 16.7909 47.1276H6.37634C5.99658 46.3701 5.65673 45.5933 5.35815 44.8003H16.7909C16.9452 44.8003 17.0932 44.8616 17.2023 44.9707C17.3114 45.0798 17.3727 45.2278 17.3727 45.3821Z" fill="#A5BCED"/>
<path d="M17.3727 43.055V44.2186C17.3727 44.3729 17.3114 44.5209 17.2023 44.63C17.0932 44.7391 16.9452 44.8004 16.7909 44.8004H5.35818C5.09636 44.1313 4.85781 43.4506 4.65417 42.7582C4.70567 42.6714 4.77888 42.5994 4.86661 42.5494C4.95434 42.4995 5.05357 42.4732 5.15454 42.4731H16.7909C16.9452 42.4731 17.0932 42.5344 17.2023 42.6436C17.3114 42.7527 17.3727 42.9007 17.3727 43.055Z" fill="#7F96D1"/>
<path d="M61.5909 15.2149L60.4272 22.7785C60.4062 22.9173 60.3357 23.0437 60.2288 23.1346C60.1219 23.2255 59.9857 23.2746 59.8454 23.2731H49.3727C49.2324 23.2746 49.0962 23.2255 48.9893 23.1346C48.8824 23.0437 48.8119 22.9173 48.7909 22.7785L47.6272 15.2149C47.6091 15.098 47.6271 14.9783 47.6787 14.8719C47.7303 14.7654 47.8132 14.6773 47.9162 14.6191C48.0192 14.561 48.1375 14.5356 48.2553 14.5464C48.3731 14.5572 48.4849 14.6037 48.5756 14.6796L51.5545 17.164L54.1087 13.0912C54.1609 13.007 54.2337 12.9376 54.3202 12.8894C54.4068 12.8412 54.5042 12.8159 54.6032 12.8159C54.7023 12.8159 54.7997 12.8412 54.8862 12.8894C54.9728 12.9376 55.0456 13.007 55.0978 13.0912L57.652 17.164L60.6309 14.6796C60.7211 14.5992 60.8341 14.5489 60.9543 14.5357C61.0744 14.5225 61.1956 14.5471 61.3012 14.6059C61.4067 14.6648 61.4913 14.755 61.5432 14.8641C61.5952 14.9733 61.6118 15.0959 61.5909 15.2149Z" fill="#FFA100"/>
<path d="M54.6092 11.6364C55.2519 11.6364 55.7728 11.1154 55.7728 10.4727C55.7728 9.83006 55.2519 9.30908 54.6092 9.30908C53.9665 9.30908 53.4456 9.83006 53.4456 10.4727C53.4456 11.1154 53.9665 11.6364 54.6092 11.6364Z" fill="#FFA100"/>
<path d="M48.209 13.382C48.8517 13.382 49.3727 12.861 49.3727 12.2183C49.3727 11.5757 48.8517 11.0547 48.209 11.0547C47.5664 11.0547 47.0454 11.5757 47.0454 12.2183C47.0454 12.861 47.5664 13.382 48.209 13.382Z" fill="#FFA100"/>
<path d="M61.0091 13.382C61.6518 13.382 62.1727 12.861 62.1727 12.2183C62.1727 11.5757 61.6518 11.0547 61.0091 11.0547C60.3664 11.0547 59.8455 11.5757 59.8455 12.2183C59.8455 12.861 60.3664 13.382 61.0091 13.382Z" fill="#FFA100"/>
<path d="M49.9545 36.6548V37.8184H48.2091C47.7462 37.8184 47.3022 38.0023 46.9749 38.3297C46.6475 38.657 46.4636 39.101 46.4636 39.5639V43.0548C46.4636 43.5177 46.6475 43.9617 46.9749 44.289C47.3022 44.6163 47.7462 44.8002 48.2091 44.8002H49.9545V45.9639C49.9545 46.2725 50.0771 46.5685 50.2954 46.7867C50.5136 47.0049 50.8096 47.1275 51.1182 47.1275H56.9364C57.245 47.1275 57.5409 47.0049 57.7592 46.7867C57.9774 46.5685 58.1 46.2725 58.1 45.9639V36.6548H49.9545ZM48.2091 43.6366C48.0548 43.6366 47.9068 43.5753 47.7977 43.4662C47.6886 43.3571 47.6273 43.2091 47.6273 43.0548V39.5639C47.6273 39.4096 47.6886 39.2616 47.7977 39.1525C47.9068 39.0434 48.0548 38.9821 48.2091 38.9821H49.9545V43.6366H48.2091Z" fill="white"/>
</svg>
