<svg width="65" height="64" viewBox="0 0 65 64" fill="none" xmlns="http://www.w3.org/2000/svg">
<path d="M32.5 61.091C48.5664 61.091 61.5909 48.0666 61.5909 32.0001C61.5909 15.9336 48.5664 2.90918 32.5 2.90918C16.4335 2.90918 3.40906 15.9336 3.40906 32.0001C3.40906 48.0666 16.4335 61.091 32.5 61.091Z" fill="#E7EFFF"/>
<path d="M54.8825 50.5776C52.1526 53.8658 48.7318 56.512 44.8633 58.3283C40.9948 60.1446 36.7736 61.0862 32.5 61.0862C28.2263 61.0862 24.0051 60.1446 20.1366 58.3283C16.2681 56.512 12.8473 53.8658 10.1174 50.5776C10.3619 49.9328 10.7465 49.3504 11.2436 48.8724C11.7407 48.3945 12.3377 48.0329 12.9916 47.814L27.2636 43.0547H37.7363L52.0083 47.814C52.6622 48.0329 53.2593 48.3945 53.7563 48.8724C54.2534 49.3504 54.6381 49.9328 54.8825 50.5776Z" fill="#4E6AFF"/>
<path d="M32.4999 51.2001C31.1111 51.2001 29.7793 50.6485 28.7972 49.6664C27.8152 48.6844 27.2635 47.3525 27.2635 45.9638V43.0547H37.7363V45.9638C37.7363 47.3525 37.1846 48.6844 36.2026 49.6664C35.2206 50.6485 33.8887 51.2001 32.4999 51.2001V51.2001Z" fill="#7F96D1"/>
<path d="M32.5 51.2001L28.1305 54.6911C27.9766 54.8142 27.7938 54.8963 27.5994 54.9295C27.405 54.9626 27.2054 54.9459 27.0192 54.8807C26.8331 54.8156 26.6666 54.7042 26.5353 54.557C26.404 54.4099 26.3123 54.2317 26.2687 54.0394L24.0171 44.1485L27.2636 43.0547L32.5 51.2001Z" fill="#323FD4"/>
<path d="M40.9829 44.1369L38.7313 54.0278C38.6893 54.2211 38.5987 54.4005 38.468 54.5491C38.3374 54.6976 38.171 54.8104 37.9847 54.8768C37.7983 54.9432 37.5981 54.961 37.403 54.9285C37.2079 54.896 37.0242 54.8143 36.8695 54.6911L32.5 51.2001L37.7364 43.0547L40.9829 44.1369Z" fill="#323FD4"/>
<path d="M49.3727 33.1638H15.6272V23.8547C15.6272 19.3797 17.4049 15.0881 20.5691 11.9238C23.7334 8.75959 28.025 6.98193 32.4999 6.98193C36.9748 6.98193 41.2665 8.75959 44.4307 11.9238C47.595 15.0881 49.3727 19.3797 49.3727 23.8547V33.1638Z" fill="#7F96D1"/>
<path d="M49.3727 29.0911C49.0641 29.0911 48.7681 28.9685 48.5499 28.7503C48.3317 28.532 48.2091 28.2361 48.2091 27.9275V23.8547C48.2091 19.6884 46.554 15.6927 43.608 12.7467C40.662 9.80069 36.6663 8.14563 32.5 8.14563C28.3337 8.14563 24.338 9.80069 21.392 12.7467C18.446 15.6927 16.7909 19.6884 16.7909 23.8547V27.9275C16.7909 28.2361 16.6683 28.532 16.4501 28.7503C16.2318 28.9685 15.9359 29.0911 15.6273 29.0911C15.3186 29.0911 15.0227 28.9685 14.8044 28.7503C14.5862 28.532 14.4636 28.2361 14.4636 27.9275V23.8547C14.4636 19.0712 16.3639 14.4836 19.7464 11.1011C23.1288 7.71861 27.7164 5.81836 32.5 5.81836C37.2835 5.81836 41.8711 7.71861 45.2536 11.1011C48.6361 14.4836 50.5363 19.0712 50.5363 23.8547V27.9275C50.5363 28.2361 50.4137 28.532 50.1955 28.7503C49.9773 28.9685 49.6813 29.0911 49.3727 29.0911Z" fill="#FFA100"/>
<path d="M2.82724 8.72773C3.79123 8.72773 4.5727 7.94626 4.5727 6.98227C4.5727 6.01828 3.79123 5.23682 2.82724 5.23682C1.86325 5.23682 1.08179 6.01828 1.08179 6.98227C1.08179 7.94626 1.86325 8.72773 2.82724 8.72773Z" fill="#00C99F"/>
<path d="M58.0999 4.07294C59.0639 4.07294 59.8454 3.29147 59.8454 2.32749C59.8454 1.3635 59.0639 0.582031 58.0999 0.582031C57.136 0.582031 56.3545 1.3635 56.3545 2.32749C56.3545 3.29147 57.136 4.07294 58.0999 4.07294Z" fill="#FFA100"/>
<path d="M62.1727 57.6003C63.1367 57.6003 63.9182 56.8188 63.9182 55.8548C63.9182 54.8908 63.1367 54.1094 62.1727 54.1094C61.2087 54.1094 60.4272 54.8908 60.4272 55.8548C60.4272 56.8188 61.2087 57.6003 62.1727 57.6003Z" fill="#00C99F"/>
<path d="M5.7363 63.4182C6.70029 63.4182 7.48175 62.6367 7.48175 61.6727C7.48175 60.7087 6.70029 59.9272 5.7363 59.9272C4.77231 59.9272 3.99084 60.7087 3.99084 61.6727C3.99084 62.6367 4.77231 63.4182 5.7363 63.4182Z" fill="#FF4D69"/>
<path d="M32.5 45.9638C29.2595 45.9638 26.1517 44.6766 23.8604 42.3852C21.569 40.0939 20.2818 36.9861 20.2818 33.7456V24.4366C20.2743 24.0329 20.372 23.6342 20.5653 23.2797C20.7585 22.9252 21.0407 22.627 21.384 22.4146C21.7274 22.2021 22.1201 22.0826 22.5236 22.0679C22.9271 22.0531 23.3275 22.1436 23.6854 22.3304C26.4225 23.6978 29.4403 24.4096 32.5 24.4096C35.5596 24.4096 38.5774 23.6978 41.3145 22.3304C41.6747 22.1422 42.0778 22.0517 42.4838 22.0677C42.8898 22.0838 43.2846 22.2058 43.6288 22.4218C43.973 22.6377 44.2546 22.94 44.4458 23.2986C44.6369 23.6571 44.7308 24.0595 44.7181 24.4656V33.7456C44.7181 36.9861 43.4309 40.0939 41.1395 42.3852C38.8482 44.6766 35.7404 45.9638 32.5 45.9638V45.9638Z" fill="#A5BCED"/>
<path d="M19.1182 23.2729H17.9545C17.3119 23.2729 16.7909 23.7939 16.7909 24.4366V34.9093C16.7909 35.552 17.3119 36.073 17.9545 36.073H19.1182C19.7608 36.073 20.2818 35.552 20.2818 34.9093V24.4366C20.2818 23.7939 19.7608 23.2729 19.1182 23.2729Z" fill="#323FD4"/>
<path d="M14.4636 24.4365H16.7909V34.9093H14.4636C13.8464 34.9093 13.2544 34.6641 12.818 34.2276C12.3815 33.7912 12.1364 33.1992 12.1364 32.582V26.7638C12.1364 26.1466 12.3815 25.5546 12.818 25.1182C13.2544 24.6817 13.8464 24.4365 14.4636 24.4365Z" fill="#4E6AFF"/>
<path d="M45.8818 42.4729H39.4818C39.1731 42.4729 38.8772 42.3503 38.6589 42.1321C38.4407 41.9139 38.3181 41.6179 38.3181 41.3093C38.3181 41.0007 38.4407 40.7047 38.6589 40.4865C38.8772 40.2683 39.1731 40.1457 39.4818 40.1457H45.8818C46.499 40.1457 47.0909 39.9005 47.5274 39.464C47.9638 39.0276 48.209 38.4356 48.209 37.8184V33.7457C48.209 33.4371 48.3316 33.1411 48.5498 32.9229C48.7681 32.7046 49.064 32.582 49.3727 32.582C49.6813 32.582 49.9773 32.7046 50.1955 32.9229C50.4137 33.1411 50.5363 33.4371 50.5363 33.7457V37.8184C50.5363 39.0529 50.0459 40.2368 49.173 41.1097C48.3001 41.9826 47.1162 42.4729 45.8818 42.4729Z" fill="#FFA100"/>
<path d="M45.8818 36.0728H47.0455C47.6881 36.0728 48.2091 35.5518 48.2091 34.9091V24.4364C48.2091 23.7937 47.6881 23.2728 47.0455 23.2728H45.8818C45.2392 23.2728 44.7182 23.7937 44.7182 24.4364V34.9091C44.7182 35.5518 45.2392 36.0728 45.8818 36.0728Z" fill="#323FD4"/>
<path d="M50.5364 34.9092H48.2091V24.4365H50.5364C51.1536 24.4365 51.7456 24.6816 52.182 25.1181C52.6185 25.5545 52.8636 26.1465 52.8636 26.7637V32.5819C52.8636 33.1991 52.6185 33.7911 52.182 34.2275C51.7456 34.664 51.1536 34.9092 50.5364 34.9092Z" fill="#4E6AFF"/>
<path d="M27.8454 33.7459C27.5368 33.7459 27.2408 33.6233 27.0226 33.405C26.8044 33.1868 26.6818 32.8908 26.6818 32.5822V30.2549C26.6818 29.9463 26.8044 29.6504 27.0226 29.4321C27.2408 29.2139 27.5368 29.0913 27.8454 29.0913C28.154 29.0913 28.45 29.2139 28.6682 29.4321C28.8864 29.6504 29.009 29.9463 29.009 30.2549V32.5822C29.009 32.8908 28.8864 33.1868 28.6682 33.405C28.45 33.6233 28.154 33.7459 27.8454 33.7459Z" fill="#7F96D1"/>
<path d="M37.1545 33.7459C36.8459 33.7459 36.5499 33.6233 36.3317 33.405C36.1134 33.1868 35.9908 32.8908 35.9908 32.5822V30.2549C35.9908 29.9463 36.1134 29.6504 36.3317 29.4321C36.5499 29.2139 36.8459 29.0913 37.1545 29.0913C37.4631 29.0913 37.7591 29.2139 37.9773 29.4321C38.1955 29.6504 38.3181 29.9463 38.3181 30.2549V32.5822C38.3181 32.8908 38.1955 33.1868 37.9773 33.405C37.7591 33.6233 37.4631 33.7459 37.1545 33.7459Z" fill="#7F96D1"/>
<path d="M12.7182 45.9637C12.456 45.9634 12.2017 45.8746 11.9963 45.7117C11.7909 45.5488 11.6465 45.3213 11.5866 45.0661C11.5267 44.8109 11.5547 44.5429 11.6661 44.3056C11.7775 44.0683 11.9657 43.8756 12.2004 43.7586L14.5276 42.595C14.8024 42.4688 15.1156 42.4545 15.4007 42.5551C15.6859 42.6558 15.9207 42.8636 16.0553 43.1343C16.1899 43.4051 16.2139 43.7177 16.122 44.0058C16.0302 44.2939 15.8298 44.535 15.5633 44.6779C13.0207 45.9637 13.0847 45.9637 12.7182 45.9637Z" fill="#8FA2FF"/>
<path d="M15.0454 40.1455C14.6672 40.1455 14.7137 40.1456 12.2003 38.8597C12.0587 38.7947 11.9316 38.7019 11.8265 38.5868C11.7215 38.4717 11.6406 38.3366 11.5887 38.1897C11.5368 38.0428 11.515 37.8869 11.5245 37.7314C11.534 37.5758 11.5746 37.4238 11.644 37.2842C11.7134 37.1447 11.8101 37.0205 11.9284 36.9191C12.0467 36.8176 12.1841 36.741 12.3326 36.6936C12.481 36.6463 12.6375 36.6293 12.7927 36.6436C12.9479 36.6579 13.0986 36.7032 13.2359 36.7768L15.5632 37.9405C15.7978 38.0574 15.9861 38.2501 16.0975 38.4874C16.2089 38.7248 16.2369 38.9927 16.1769 39.2479C16.117 39.5031 15.9727 39.7306 15.7673 39.8936C15.5619 40.0565 15.3075 40.1453 15.0454 40.1455Z" fill="#8FA2FF"/>
<path d="M33.0817 43.055H31.9181C30.6836 43.055 29.4997 42.5646 28.6268 41.6917C27.7539 40.8188 27.2635 39.6349 27.2635 38.4005C27.2635 38.0918 27.3861 37.7959 27.6044 37.5776C27.8226 37.3594 28.1186 37.2368 28.4272 37.2368H36.5726C36.8813 37.2368 37.1772 37.3594 37.3955 37.5776C37.6137 37.7959 37.7363 38.0918 37.7363 38.4005C37.7363 39.6349 37.2459 40.8188 36.373 41.6917C35.5001 42.5646 34.3162 43.055 33.0817 43.055Z" fill="white"/>
</svg>
