<svg width="65" height="64" viewBox="0 0 65 64" fill="none" xmlns="http://www.w3.org/2000/svg">
<path d="M6.9 4.07294C7.86398 4.07294 8.64545 3.29147 8.64545 2.32749C8.64545 1.3635 7.86398 0.582031 6.9 0.582031C5.93601 0.582031 5.15454 1.3635 5.15454 2.32749C5.15454 3.29147 5.93601 4.07294 6.9 4.07294Z" fill="#FF4D69"/>
<path d="M62.1727 9.30927C63.1367 9.30927 63.9182 8.5278 63.9182 7.56381C63.9182 6.59983 63.1367 5.81836 62.1727 5.81836C61.2087 5.81836 60.4272 6.59983 60.4272 7.56381C60.4272 8.5278 61.2087 9.30927 62.1727 9.30927Z" fill="#00C99F"/>
<path d="M58.0999 63.4182C59.0639 63.4182 59.8454 62.6367 59.8454 61.6727C59.8454 60.7087 59.0639 59.9272 58.0999 59.9272C57.136 59.9272 56.3545 60.7087 56.3545 61.6727C56.3545 62.6367 57.136 63.4182 58.0999 63.4182Z" fill="#FFA100"/>
<path d="M2.82724 58.7639C3.79123 58.7639 4.5727 57.9824 4.5727 57.0184C4.5727 56.0544 3.79123 55.2729 2.82724 55.2729C1.86325 55.2729 1.08179 56.0544 1.08179 57.0184C1.08179 57.9824 1.86325 58.7639 2.82724 58.7639Z" fill="#00C99F"/>
<path d="M30.1727 61.091C46.2392 61.091 59.2636 48.0666 59.2636 32.0001C59.2636 15.9336 46.2392 2.90918 30.1727 2.90918C14.1062 2.90918 1.08179 15.9336 1.08179 32.0001C1.08179 48.0666 14.1062 61.091 30.1727 61.091Z" fill="#E7EFFF"/>
<path d="M49.9546 11.0547V52.9456C49.9546 53.5628 49.7094 54.1548 49.2729 54.5912C48.8365 55.0277 48.2445 55.2729 47.6273 55.2729H12.7182C9.35045 52.746 6.57132 49.5182 4.57275 45.8125V11.0547H49.9546Z" fill="#A5BCED"/>
<path d="M47.6273 13.3818V52.9455H9.9953C8.87001 51.8682 7.8348 50.7007 6.90002 49.4546V13.3818H47.6273Z" fill="white"/>
<path d="M43.5545 32.0001H10.9727C10.6641 32.0001 10.3681 31.8775 10.1499 31.6593C9.93168 31.4411 9.80908 31.1451 9.80908 30.8365C9.80908 30.5279 9.93168 30.2319 10.1499 30.0137C10.3681 29.7954 10.6641 29.6729 10.9727 29.6729H43.5545C43.8632 29.6729 44.1591 29.7954 44.3774 30.0137C44.5956 30.2319 44.7182 30.5279 44.7182 30.8365C44.7182 31.1451 44.5956 31.4411 44.3774 31.6593C44.1591 31.8775 43.8632 32.0001 43.5545 32.0001Z" fill="#A5BCED"/>
<path d="M43.5545 36.6549H10.9727C10.6641 36.6549 10.3681 36.5323 10.1499 36.3141C9.93168 36.0959 9.80908 35.7999 9.80908 35.4913C9.80908 35.1827 9.93168 34.8867 10.1499 34.6685C10.3681 34.4502 10.6641 34.3276 10.9727 34.3276H43.5545C43.8632 34.3276 44.1591 34.4502 44.3774 34.6685C44.5956 34.8867 44.7182 35.1827 44.7182 35.4913C44.7182 35.7999 44.5956 36.0959 44.3774 36.3141C44.1591 36.5323 43.8632 36.6549 43.5545 36.6549Z" fill="#A5BCED"/>
<path d="M43.5545 41.3092H10.9727C10.6641 41.3092 10.3681 41.1866 10.1499 40.9684C9.93168 40.7502 9.80908 40.4542 9.80908 40.1456C9.80908 39.837 9.93168 39.541 10.1499 39.3228C10.3681 39.1045 10.6641 38.9819 10.9727 38.9819H43.5545C43.8632 38.9819 44.1591 39.1045 44.3774 39.3228C44.5956 39.541 44.7182 39.837 44.7182 40.1456C44.7182 40.4542 44.5956 40.7502 44.3774 40.9684C44.1591 41.1866 43.8632 41.3092 43.5545 41.3092Z" fill="#A5BCED"/>
<path d="M43.5545 45.964H10.9727C10.6641 45.964 10.3681 45.8414 10.1499 45.6232C9.93168 45.4049 9.80908 45.109 9.80908 44.8004C9.80908 44.4917 9.93168 44.1958 10.1499 43.9775C10.3681 43.7593 10.6641 43.6367 10.9727 43.6367H43.5545C43.8632 43.6367 44.1591 43.7593 44.3774 43.9775C44.5956 44.1958 44.7182 44.4917 44.7182 44.8004C44.7182 45.109 44.5956 45.4049 44.3774 45.6232C44.1591 45.8414 43.8632 45.964 43.5545 45.964Z" fill="#A5BCED"/>
<path d="M17.3727 50.6183H10.9727C10.6641 50.6183 10.3681 50.4957 10.1499 50.2775C9.93168 50.0592 9.80908 49.7633 9.80908 49.4547C9.80908 49.146 9.93168 48.8501 10.1499 48.6318C10.3681 48.4136 10.6641 48.291 10.9727 48.291H17.3727C17.6813 48.291 17.9773 48.4136 18.1955 48.6318C18.4138 48.8501 18.5364 49.146 18.5364 49.4547C18.5364 49.7633 18.4138 50.0592 18.1955 50.2775C17.9773 50.4957 17.6813 50.6183 17.3727 50.6183Z" fill="#A5BCED"/>
<path d="M31.3363 53.5273V61.091C29.4865 61.172 27.6332 61.0707 25.8032 60.7884L24.3545 53.5273H31.3363Z" fill="#323FD4"/>
<path d="M31.3363 52.9458H34.8272V54.6913C34.8272 55.1542 34.6433 55.5981 34.316 55.9255C33.9886 56.2528 33.5447 56.4367 33.0818 56.4367H31.3363V52.9458Z" fill="#8FA2FF"/>
<path d="M23.1909 50.6186C25.4402 50.6186 27.2636 48.7952 27.2636 46.5459C27.2636 44.2966 25.4402 42.4731 23.1909 42.4731C20.9416 42.4731 19.1182 44.2966 19.1182 46.5459C19.1182 48.7952 20.9416 50.6186 23.1909 50.6186Z" fill="#323FD4"/>
<path d="M55.1909 50.6186C57.4402 50.6186 59.2636 48.7952 59.2636 46.5459C59.2636 44.2966 57.4402 42.4731 55.1909 42.4731C52.9416 42.4731 51.1182 44.2966 51.1182 46.5459C51.1182 48.7952 52.9416 50.6186 55.1909 50.6186Z" fill="#323FD4"/>
<path d="M54.0272 62.2546C53.5643 62.2546 53.1203 62.0707 52.793 61.7434C52.4656 61.416 52.2817 60.9721 52.2817 60.5092V32.5819C52.2817 32.119 52.4656 31.675 52.793 31.3477C53.1203 31.0203 53.5643 30.8364 54.0272 30.8364C54.4901 30.8364 54.9341 31.0203 55.2614 31.3477C55.5888 31.675 55.7726 32.119 55.7726 32.5819V60.5092C55.7726 60.9721 55.5888 61.416 55.2614 61.7434C54.9341 62.0707 54.4901 62.2546 54.0272 62.2546Z" fill="#4E6AFF"/>
<path d="M52.2818 33.7456C52.2818 60.7711 52.2236 59.2991 52.2818 59.3456C47.4856 55.7531 41.9 53.3593 35.9908 52.3638V40.7274C41.9 39.7319 47.4856 37.3381 52.2818 33.7456V33.7456Z" fill="#8FA2FF"/>
<path d="M34.2455 38.9819H24.9364C23.9724 38.9819 23.1909 39.7634 23.1909 40.7274V52.3638C23.1909 53.3277 23.9724 54.1092 24.9364 54.1092H34.2455C35.2095 54.1092 35.9909 53.3277 35.9909 52.3638V40.7274C35.9909 39.7634 35.2095 38.9819 34.2455 38.9819Z" fill="#4E6AFF"/>
<path d="M27.2636 36.6548H29.5909C29.8995 36.6548 30.1955 36.7774 30.4137 36.9956C30.6319 37.2138 30.7545 37.5098 30.7545 37.8184V38.9821H26.1V37.8184C26.1 37.5098 26.2226 37.2138 26.4408 36.9956C26.659 36.7774 26.955 36.6548 27.2636 36.6548Z" fill="#323FD4"/>
<path d="M31.3364 56.4365V61.0911C30.1726 61.1445 29.0065 61.1231 27.8455 61.0271V57.0183C27.8455 56.864 27.9068 56.716 28.0159 56.6069C28.125 56.4978 28.273 56.4365 28.4273 56.4365H31.3364Z" fill="#4E6AFF"/>
<path d="M30.7546 42.4727H26.1C25.9457 42.4727 25.7977 42.4114 25.6886 42.3023C25.5795 42.1932 25.5182 42.0452 25.5182 41.8909C25.5182 41.7366 25.5795 41.5886 25.6886 41.4795C25.7977 41.3704 25.9457 41.3091 26.1 41.3091H30.7546C30.9089 41.3091 31.0568 41.3704 31.166 41.4795C31.2751 41.5886 31.3364 41.7366 31.3364 41.8909C31.3364 42.0452 31.2751 42.1932 31.166 42.3023C31.0568 42.4114 30.9089 42.4727 30.7546 42.4727Z" fill="white"/>
<path d="M30.7546 45.3819H26.1C25.9457 45.3819 25.7977 45.3206 25.6886 45.2115C25.5795 45.1024 25.5182 44.9544 25.5182 44.8001C25.5182 44.6458 25.5795 44.4978 25.6886 44.3887C25.7977 44.2796 25.9457 44.2183 26.1 44.2183H30.7546C30.9089 44.2183 31.0568 44.2796 31.166 44.3887C31.2751 44.4978 31.3364 44.6458 31.3364 44.8001C31.3364 44.9544 31.2751 45.1024 31.166 45.2115C31.0568 45.3206 30.9089 45.3819 30.7546 45.3819Z" fill="white"/>
<path d="M17.3727 5.23682H47.6272C48.2445 5.23682 48.8364 5.48201 49.2729 5.91846C49.7093 6.35491 49.9545 6.94686 49.9545 7.56409V11.055H17.3727V5.23682Z" fill="#323FD4"/>
<path d="M20.8637 11.0545H4.57275V7.56361C4.57275 6.94638 4.81795 6.35442 5.2544 5.91798C5.69084 5.48153 6.2828 5.23633 6.90003 5.23633H17.3728C17.8741 5.23522 18.3624 5.39602 18.7649 5.6948C19.1675 5.99358 19.4628 6.41436 19.6069 6.89452L20.8637 11.0545Z" fill="#4E6AFF"/>
<path d="M16.7908 9.30921C17.4335 9.30921 17.9545 8.78823 17.9545 8.14557C17.9545 7.50291 17.4335 6.98193 16.7908 6.98193C16.1482 6.98193 15.6272 7.50291 15.6272 8.14557C15.6272 8.78823 16.1482 9.30921 16.7908 9.30921Z" fill="white"/>
<path d="M46.4636 9.30921C47.1062 9.30921 47.6272 8.78823 47.6272 8.14557C47.6272 7.50291 47.1062 6.98193 46.4636 6.98193C45.8209 6.98193 45.2999 7.50291 45.2999 8.14557C45.2999 8.78823 45.8209 9.30921 46.4636 9.30921Z" fill="white"/>
<path d="M42.3909 9.30921C43.0336 9.30921 43.5546 8.78823 43.5546 8.14557C43.5546 7.50291 43.0336 6.98193 42.3909 6.98193C41.7483 6.98193 41.2273 7.50291 41.2273 8.14557C41.2273 8.78823 41.7483 9.30921 42.3909 9.30921Z" fill="white"/>
<path d="M38.3182 9.30921C38.9608 9.30921 39.4818 8.78823 39.4818 8.14557C39.4818 7.50291 38.9608 6.98193 38.3182 6.98193C37.6755 6.98193 37.1545 7.50291 37.1545 8.14557C37.1545 8.78823 37.6755 9.30921 38.3182 9.30921Z" fill="white"/>
<path d="M44.1364 15.7095H10.3909C9.74827 15.7095 9.22729 16.2305 9.22729 16.8731V26.1822C9.22729 26.8249 9.74827 27.3458 10.3909 27.3458H44.1364C44.779 27.3458 45.3 26.8249 45.3 26.1822V16.8731C45.3 16.2305 44.779 15.7095 44.1364 15.7095Z" fill="#4E6AFF"/>
</svg>
