<svg width="65" height="64" viewBox="0 0 65 64" fill="none" xmlns="http://www.w3.org/2000/svg">
<path d="M30.1727 63.4186C46.2392 63.4186 59.2636 50.3942 59.2636 34.3277C59.2636 18.2613 46.2392 5.23682 30.1727 5.23682C14.1062 5.23682 1.08179 18.2613 1.08179 34.3277C1.08179 50.3942 14.1062 63.4186 30.1727 63.4186Z" fill="#E7EFFF"/>
<path d="M8.64548 4.07294C9.60947 4.07294 10.3909 3.29147 10.3909 2.32749C10.3909 1.3635 9.60947 0.582031 8.64548 0.582031C7.68149 0.582031 6.90002 1.3635 6.90002 2.32749C6.90002 3.29147 7.68149 4.07294 8.64548 4.07294Z" fill="#FF4D69"/>
<path d="M55.1909 6.40009C56.1549 6.40009 56.9363 5.61862 56.9363 4.65463C56.9363 3.69065 56.1549 2.90918 55.1909 2.90918C54.2269 2.90918 53.4454 3.69065 53.4454 4.65463C53.4454 5.61862 54.2269 6.40009 55.1909 6.40009Z" fill="#00C99F"/>
<path d="M62.1727 46.5456C63.1367 46.5456 63.9182 45.7641 63.9182 44.8001C63.9182 43.8362 63.1367 43.0547 62.1727 43.0547C61.2087 43.0547 60.4272 43.8362 60.4272 44.8001C60.4272 45.7641 61.2087 46.5456 62.1727 46.5456Z" fill="#FFA100"/>
<path d="M5.7363 60.5095C6.70029 60.5095 7.48175 59.728 7.48175 58.764C7.48175 57.8 6.70029 57.0186 5.7363 57.0186C4.77231 57.0186 3.99084 57.8 3.99084 58.764C3.99084 59.728 4.77231 60.5095 5.7363 60.5095Z" fill="#00C99F"/>
<path d="M45.3 16.2911V20.9457H4.33997C5.67279 18.3795 7.38078 16.0263 9.4076 13.9639H42.9727C43.5899 13.9639 44.1819 14.2091 44.6183 14.6455C45.0548 15.082 45.3 15.6739 45.3 16.2911Z" fill="#4E6AFF"/>
<path d="M45.2999 20.9458V53.5276C45.2999 54.1449 45.0547 54.7368 44.6183 55.1733C44.1818 55.6097 43.5899 55.8549 42.9727 55.8549H10.6119C5.86404 51.5417 2.67484 45.7802 1.54053 39.4667C0.406213 33.1533 1.39039 26.642 4.33993 20.9458H45.2999Z" fill="#8FA2FF"/>
<path d="M35.409 13.9637H29.5908V11.0546C29.5908 10.2831 29.8973 9.54312 30.4429 8.99756C30.9884 8.452 31.7284 8.14551 32.4999 8.14551C33.2715 8.14551 34.0114 8.452 34.557 8.99756C35.1025 9.54312 35.409 10.2831 35.409 11.0546V13.9637Z" fill="#323FD4"/>
<path d="M40.6455 24.4365H24.3546C23.7119 24.4365 23.1909 24.9575 23.1909 25.6002V51.2002C23.1909 51.8428 23.7119 52.3638 24.3546 52.3638H40.6455C41.2881 52.3638 41.8091 51.8428 41.8091 51.2002V25.6002C41.8091 24.9575 41.2881 24.4365 40.6455 24.4365Z" fill="#4E6AFF"/>
<path d="M18.5364 26.1821H15.0455C14.4028 26.1821 13.8818 26.7031 13.8818 27.3458V30.8367C13.8818 31.4793 14.4028 32.0003 15.0455 32.0003H18.5364C19.179 32.0003 19.7 31.4793 19.7 30.8367V27.3458C19.7 26.7031 19.179 26.1821 18.5364 26.1821Z" fill="white"/>
<path d="M9.2273 26.1821H5.73639C5.09373 26.1821 4.57275 26.7031 4.57275 27.3458V30.8367C4.57275 31.4793 5.09373 32.0003 5.73639 32.0003H9.2273C9.86996 32.0003 10.3909 31.4793 10.3909 30.8367V27.3458C10.3909 26.7031 9.86996 26.1821 9.2273 26.1821Z" fill="white"/>
<path d="M18.5364 35.4912H15.0455C14.4028 35.4912 13.8818 36.0122 13.8818 36.6548V40.1458C13.8818 40.7884 14.4028 41.3094 15.0455 41.3094H18.5364C19.179 41.3094 19.7 40.7884 19.7 40.1458V36.6548C19.7 36.0122 19.179 35.4912 18.5364 35.4912Z" fill="white"/>
<path d="M9.2273 35.4912H5.73639C5.09373 35.4912 4.57275 36.0122 4.57275 36.6548V40.1458C4.57275 40.7884 5.09373 41.3094 5.73639 41.3094H9.2273C9.86996 41.3094 10.3909 40.7884 10.3909 40.1458V36.6548C10.3909 36.0122 9.86996 35.4912 9.2273 35.4912Z" fill="white"/>
<path d="M18.5364 44.8003H15.0455C14.4028 44.8003 13.8818 45.3213 13.8818 45.9639V49.4548C13.8818 50.0975 14.4028 50.6185 15.0455 50.6185H18.5364C19.179 50.6185 19.7 50.0975 19.7 49.4548V45.9639C19.7 45.3213 19.179 44.8003 18.5364 44.8003Z" fill="white"/>
<path d="M10.3909 45.9639V49.4548C10.3909 49.7635 10.2683 50.0594 10.0501 50.2777C9.83189 50.4959 9.53592 50.6185 9.2273 50.6185H6.07384C5.53245 49.8219 5.03145 48.9985 4.57275 48.1516V45.9639C4.57275 45.6553 4.69535 45.3593 4.91358 45.1411C5.1318 44.9229 5.42777 44.8003 5.73639 44.8003H9.2273C9.53592 44.8003 9.83189 44.9229 10.0501 45.1411C10.2683 45.3593 10.3909 45.6553 10.3909 45.9639Z" fill="white"/>
<path d="M17.6113 47.7093L18.3677 46.9587C18.4219 46.9045 18.4649 46.8401 18.4943 46.7692C18.5236 46.6983 18.5388 46.6223 18.5388 46.5456C18.5388 46.4689 18.5236 46.3929 18.4943 46.3221C18.4649 46.2512 18.4219 46.1868 18.3677 46.1325C18.3134 46.0783 18.249 46.0353 18.1781 46.0059C18.1072 45.9765 18.0313 45.9614 17.9546 45.9614C17.8778 45.9614 17.8019 45.9765 17.731 46.0059C17.6601 46.0353 17.5957 46.0783 17.5415 46.1325L16.7909 46.8889L16.0404 46.1325C15.9308 46.023 15.7822 45.9614 15.6273 45.9614C15.4724 45.9614 15.3238 46.023 15.2142 46.1325C15.1046 46.2421 15.0431 46.3907 15.0431 46.5456C15.0431 46.7006 15.1046 46.8492 15.2142 46.9587L15.9706 47.7093L15.2142 48.4598C15.1046 48.5694 15.0431 48.718 15.0431 48.8729C15.0431 49.0278 15.1046 49.1764 15.2142 49.286C15.3238 49.3955 15.4724 49.4571 15.6273 49.4571C15.7822 49.4571 15.9308 49.3955 16.0404 49.286L16.7909 48.5296L17.5415 49.286C17.5957 49.3402 17.6601 49.3833 17.731 49.4126C17.8019 49.442 17.8778 49.4571 17.9546 49.4571C18.0313 49.4571 18.1072 49.442 18.1781 49.4126C18.249 49.3833 18.3134 49.3402 18.3677 49.286C18.4219 49.2317 18.4649 49.1673 18.4943 49.0965C18.5236 49.0256 18.5388 48.9496 18.5388 48.8729C18.5388 48.7962 18.5236 48.7202 18.4943 48.6493C18.4649 48.5785 18.4219 48.5141 18.3677 48.4598L17.6113 47.7093Z" fill="#FF4D69"/>
<path d="M8.30221 29.0911L9.05857 28.3406C9.16813 28.231 9.22968 28.0824 9.22968 27.9275C9.22968 27.7725 9.16813 27.6239 9.05857 27.5144C8.94901 27.4048 8.80042 27.3433 8.64548 27.3433C8.49054 27.3433 8.34195 27.4048 8.23239 27.5144L7.48184 28.2707L6.7313 27.5144C6.62174 27.4048 6.47315 27.3433 6.31821 27.3433C6.16327 27.3433 6.01467 27.4048 5.90512 27.5144C5.79556 27.6239 5.73401 27.7725 5.73401 27.9275C5.73401 28.0824 5.79556 28.231 5.90512 28.3406L6.66148 29.0911L5.90512 29.8416C5.79556 29.9512 5.73401 30.0998 5.73401 30.2547C5.73401 30.4097 5.79556 30.5583 5.90512 30.6678C6.01467 30.7774 6.16327 30.8389 6.31821 30.8389C6.47315 30.8389 6.62174 30.7774 6.7313 30.6678L7.48184 29.9115L8.23239 30.6678C8.34195 30.7774 8.49054 30.8389 8.64548 30.8389C8.80042 30.8389 8.94901 30.7774 9.05857 30.6678C9.16813 30.5583 9.22968 30.4097 9.22968 30.2547C9.22968 30.0998 9.16813 29.9512 9.05857 29.8416L8.30221 29.0911Z" fill="#FF4D69"/>
<path d="M24.3546 52.3638C24.0459 52.3638 23.75 52.2413 23.5317 52.023C23.3135 51.8048 23.1909 51.5088 23.1909 51.2002V44.2184L27.5313 39.4009C27.6405 39.2771 27.7748 39.178 27.9252 39.11C28.0757 39.0421 28.2389 39.007 28.404 39.007C28.5691 39.007 28.7323 39.0421 28.8828 39.11C29.0332 39.178 29.1675 39.2771 29.2767 39.4009L31.3364 41.8911L35.6826 36.0729C35.7914 35.9339 35.9305 35.8214 36.0892 35.744C36.248 35.6667 36.4223 35.6265 36.5989 35.6265C36.7755 35.6265 36.9498 35.6667 37.1086 35.744C37.2674 35.8214 37.4064 35.9339 37.5153 36.0729L41.8091 41.3093V51.2002C41.8091 51.5088 41.6865 51.8048 41.4683 52.023C41.2501 52.2413 40.9541 52.3638 40.6455 52.3638H24.3546Z" fill="#323FD4"/>
<path d="M47.6272 63.4185C53.0898 63.4185 57.5181 58.9902 57.5181 53.5276C57.5181 48.065 53.0898 43.6367 47.6272 43.6367C42.1646 43.6367 37.7363 48.065 37.7363 53.5276C37.7363 58.9902 42.1646 63.4185 47.6272 63.4185Z" fill="#00C99F"/>
<path d="M46.225 57.8388L43.3159 54.9297C43.1253 54.7071 43.0257 54.4208 43.037 54.1279C43.0483 53.835 43.1697 53.5572 43.377 53.35C43.5842 53.1428 43.862 53.0214 44.1549 53.0101C44.4477 52.9987 44.7341 53.0984 44.9567 53.289L47.0454 55.3719L52.0432 50.3799C52.2658 50.1893 52.5522 50.0897 52.845 50.101C53.1379 50.1123 53.4157 50.2337 53.6229 50.4409C53.8302 50.6482 53.9516 50.926 53.9629 51.2188C53.9742 51.5117 53.8746 51.798 53.6839 52.0206L47.8658 57.8388C47.6477 58.0555 47.3528 58.1772 47.0454 58.1772C46.738 58.1772 46.443 58.0555 46.225 57.8388Z" fill="white"/>
<path d="M30.1726 34.3275C31.7793 34.3275 33.0817 33.025 33.0817 31.4184C33.0817 29.8117 31.7793 28.5093 30.1726 28.5093C28.566 28.5093 27.2635 29.8117 27.2635 31.4184C27.2635 33.025 28.566 34.3275 30.1726 34.3275Z" fill="#8FA2FF"/>
<path d="M51.6999 41.3091H48.209C48.0547 41.3091 47.9067 41.2478 47.7976 41.1387C47.6885 41.0296 47.6272 40.8816 47.6272 40.7273C47.6272 40.573 47.6885 40.425 47.7976 40.3159C47.9067 40.2068 48.0547 40.1455 48.209 40.1455H51.6999C51.8542 40.1455 52.0022 40.2068 52.1113 40.3159C52.2204 40.425 52.2817 40.573 52.2817 40.7273C52.2817 40.8816 52.2204 41.0296 52.1113 41.1387C52.0022 41.2478 51.8542 41.3091 51.6999 41.3091Z" fill="#7F96D1"/>
<path d="M54.0272 37.8184H48.209C48.0547 37.8184 47.9067 37.7571 47.7976 37.648C47.6885 37.5389 47.6272 37.3909 47.6272 37.2366C47.6272 37.0823 47.6885 36.9343 47.7976 36.8252C47.9067 36.7161 48.0547 36.6548 48.209 36.6548H54.0272C54.1815 36.6548 54.3295 36.7161 54.4386 36.8252C54.5477 36.9343 54.609 37.0823 54.609 37.2366C54.609 37.3909 54.5477 37.5389 54.4386 37.648C54.3295 37.7571 54.1815 37.8184 54.0272 37.8184Z" fill="#7F96D1"/>
<path d="M51.6999 34.3277H48.209C48.0547 34.3277 47.9067 34.2664 47.7976 34.1573C47.6885 34.0482 47.6272 33.9002 47.6272 33.7459C47.6272 33.5916 47.6885 33.4436 47.7976 33.3345C47.9067 33.2254 48.0547 33.1641 48.209 33.1641H51.6999C51.8542 33.1641 52.0022 33.2254 52.1113 33.3345C52.2204 33.4436 52.2817 33.5916 52.2817 33.7459C52.2817 33.9002 52.2204 34.0482 52.1113 34.1573C52.0022 34.2664 51.8542 34.3277 51.6999 34.3277Z" fill="#7F96D1"/>
<path d="M32.4999 12.2184C33.1426 12.2184 33.6636 11.6974 33.6636 11.0547C33.6636 10.4121 33.1426 9.89111 32.4999 9.89111C31.8573 9.89111 31.3363 10.4121 31.3363 11.0547C31.3363 11.6974 31.8573 12.2184 32.4999 12.2184Z" fill="white"/>
<path d="M42.3909 18.6182H40.0636C39.9093 18.6182 39.7613 18.5569 39.6522 18.4478C39.5431 18.3387 39.4818 18.1907 39.4818 18.0364C39.4818 17.8821 39.5431 17.7341 39.6522 17.625C39.7613 17.5159 39.9093 17.4546 40.0636 17.4546H42.3909C42.5452 17.4546 42.6932 17.5159 42.8023 17.625C42.9114 17.7341 42.9727 17.8821 42.9727 18.0364C42.9727 18.1907 42.9114 18.3387 42.8023 18.4478C42.6932 18.5569 42.5452 18.6182 42.3909 18.6182Z" fill="white"/>
<path d="M36.5727 18.6182H34.2454C34.0911 18.6182 33.9431 18.5569 33.834 18.4478C33.7249 18.3387 33.6636 18.1907 33.6636 18.0364C33.6636 17.8821 33.7249 17.7341 33.834 17.625C33.9431 17.5159 34.0911 17.4546 34.2454 17.4546H36.5727C36.727 17.4546 36.875 17.5159 36.9841 17.625C37.0932 17.7341 37.1545 17.8821 37.1545 18.0364C37.1545 18.1907 37.0932 18.3387 36.9841 18.4478C36.875 18.5569 36.727 18.6182 36.5727 18.6182Z" fill="white"/>
</svg>
