<svg width="65" height="64" viewBox="0 0 65 64" fill="none" xmlns="http://www.w3.org/2000/svg">
<path d="M30.1727 61.091C46.2392 61.091 59.2636 48.0666 59.2636 32.0001C59.2636 15.9336 46.2392 2.90918 30.1727 2.90918C14.1062 2.90918 1.08179 15.9336 1.08179 32.0001C1.08179 48.0666 14.1062 61.091 30.1727 61.091Z" fill="#E7EFFF"/>
<path d="M61.5909 12.8003V54.6912C61.5909 55.3084 61.3457 55.9004 60.9092 56.3368C60.4728 56.7733 59.8808 57.0185 59.2636 57.0185H15.3305C11.4618 54.721 8.17796 51.5586 5.73633 47.7792V16.2214C6.5142 15.019 7.37957 13.8755 8.32542 12.8003H61.5909Z" fill="#A5BCED"/>
<path d="M22.0272 6.98193H59.2636C59.8808 6.98193 60.4728 7.22713 60.9092 7.66358C61.3457 8.10002 61.5909 8.69198 61.5909 9.30921V12.8001H22.0272V6.98193Z" fill="#323FD4"/>
<path d="M25.5182 12.8001H8.32544C10.3318 10.5052 12.6881 8.5416 15.3073 6.98194H22.0273C22.5286 6.98083 23.0169 7.14163 23.4194 7.4404C23.822 7.73918 24.1173 8.15996 24.2614 8.64012L25.5182 12.8001Z" fill="#4E6AFF"/>
<path d="M21.4454 11.0548C22.088 11.0548 22.609 10.5338 22.609 9.89118C22.609 9.24852 22.088 8.72754 21.4454 8.72754C20.8027 8.72754 20.2817 9.24852 20.2817 9.89118C20.2817 10.5338 20.8027 11.0548 21.4454 11.0548Z" fill="white"/>
<path d="M58.6818 11.0548C59.3245 11.0548 59.8455 10.5338 59.8455 9.89118C59.8455 9.24852 59.3245 8.72754 58.6818 8.72754C58.0392 8.72754 57.5182 9.24852 57.5182 9.89118C57.5182 10.5338 58.0392 11.0548 58.6818 11.0548Z" fill="white"/>
<path d="M54.6091 11.0548C55.2517 11.0548 55.7727 10.5338 55.7727 9.89118C55.7727 9.24852 55.2517 8.72754 54.6091 8.72754C53.9664 8.72754 53.4454 9.24852 53.4454 9.89118C53.4454 10.5338 53.9664 11.0548 54.6091 11.0548Z" fill="white"/>
<path d="M50.5363 11.0548C51.179 11.0548 51.7 10.5338 51.7 9.89118C51.7 9.24852 51.179 8.72754 50.5363 8.72754C49.8937 8.72754 49.3727 9.24852 49.3727 9.89118C49.3727 10.5338 49.8937 11.0548 50.5363 11.0548Z" fill="white"/>
<path d="M6.9 5.81855C7.86398 5.81855 8.64545 5.03708 8.64545 4.07309C8.64545 3.1091 7.86398 2.32764 6.9 2.32764C5.93601 2.32764 5.15454 3.1091 5.15454 4.07309C5.15454 5.03708 5.93601 5.81855 6.9 5.81855Z" fill="#00C99F"/>
<path d="M52.2818 4.07294C53.2458 4.07294 54.0273 3.29147 54.0273 2.32749C54.0273 1.3635 53.2458 0.582031 52.2818 0.582031C51.3178 0.582031 50.5364 1.3635 50.5364 2.32749C50.5364 3.29147 51.3178 4.07294 52.2818 4.07294Z" fill="#FFA100"/>
<path d="M62.1727 63.4182C63.1367 63.4182 63.9182 62.6367 63.9182 61.6727C63.9182 60.7087 63.1367 59.9272 62.1727 59.9272C61.2087 59.9272 60.4272 60.7087 60.4272 61.6727C60.4272 62.6367 61.2087 63.4182 62.1727 63.4182Z" fill="#00C99F"/>
<path d="M2.82724 60.5095C3.79123 60.5095 4.5727 59.728 4.5727 58.764C4.5727 57.8 3.79123 57.0186 2.82724 57.0186C1.86325 57.0186 1.08179 57.8 1.08179 58.764C1.08179 59.728 1.86325 60.5095 2.82724 60.5095Z" fill="#FF4D69"/>
<path d="M34.8273 16.291H11.5546C10.2693 16.291 9.22729 17.333 9.22729 18.6183V33.7456C9.22729 35.0309 10.2693 36.0728 11.5546 36.0728H34.8273C36.1126 36.0728 37.1546 35.0309 37.1546 33.7456V18.6183C37.1546 17.333 36.1126 16.291 34.8273 16.291Z" fill="#FF4D69"/>
<path d="M56.3545 16.291H42.3908C41.4269 16.291 40.6454 17.0725 40.6454 18.0365V25.0183C40.6454 25.9823 41.4269 26.7637 42.3908 26.7637H56.3545C57.3185 26.7637 58.0999 25.9823 58.0999 25.0183V18.0365C58.0999 17.0725 57.3185 16.291 56.3545 16.291Z" fill="#4E6AFF"/>
<path d="M46.4636 29.0913H41.809C41.1664 29.0913 40.6454 29.6123 40.6454 30.2549V33.7459C40.6454 34.3885 41.1664 34.9095 41.809 34.9095H46.4636C47.1062 34.9095 47.6272 34.3885 47.6272 33.7459V30.2549C47.6272 29.6123 47.1062 29.0913 46.4636 29.0913Z" fill="#4E6AFF"/>
<path d="M57.5181 30.2549H50.5363C50.382 30.2549 50.234 30.1936 50.1249 30.0845C50.0158 29.9754 49.9545 29.8274 49.9545 29.6731C49.9545 29.5188 50.0158 29.3708 50.1249 29.2617C50.234 29.1526 50.382 29.0913 50.5363 29.0913H57.5181C57.6724 29.0913 57.8204 29.1526 57.9295 29.2617C58.0386 29.3708 58.0999 29.5188 58.0999 29.6731C58.0999 29.8274 58.0386 29.9754 57.9295 30.0845C57.8204 30.1936 57.6724 30.2549 57.5181 30.2549Z" fill="white"/>
<path d="M54.0272 32.5821H50.5363C50.382 32.5821 50.234 32.5208 50.1249 32.4117C50.0158 32.3026 49.9545 32.1546 49.9545 32.0003C49.9545 31.846 50.0158 31.698 50.1249 31.5889C50.234 31.4798 50.382 31.4185 50.5363 31.4185H54.0272C54.1815 31.4185 54.3295 31.4798 54.4386 31.5889C54.5477 31.698 54.609 31.846 54.609 32.0003C54.609 32.1546 54.5477 32.3026 54.4386 32.4117C54.3295 32.5208 54.1815 32.5821 54.0272 32.5821Z" fill="white"/>
<path d="M46.4636 37.2368H41.809C41.1664 37.2368 40.6454 37.7578 40.6454 38.4005V41.8914C40.6454 42.534 41.1664 43.055 41.809 43.055H46.4636C47.1062 43.055 47.6272 42.534 47.6272 41.8914V38.4005C47.6272 37.7578 47.1062 37.2368 46.4636 37.2368Z" fill="#4E6AFF"/>
<path d="M57.5181 38.4005H50.5363C50.382 38.4005 50.234 38.3392 50.1249 38.23C50.0158 38.1209 49.9545 37.9729 49.9545 37.8186C49.9545 37.6643 50.0158 37.5163 50.1249 37.4072C50.234 37.2981 50.382 37.2368 50.5363 37.2368H57.5181C57.6724 37.2368 57.8204 37.2981 57.9295 37.4072C58.0386 37.5163 58.0999 37.6643 58.0999 37.8186C58.0999 37.9729 58.0386 38.1209 57.9295 38.23C57.8204 38.3392 57.6724 38.4005 57.5181 38.4005Z" fill="white"/>
<path d="M54.0272 40.7276H50.5363C50.382 40.7276 50.234 40.6663 50.1249 40.5572C50.0158 40.4481 49.9545 40.3001 49.9545 40.1458C49.9545 39.9915 50.0158 39.8435 50.1249 39.7344C50.234 39.6253 50.382 39.564 50.5363 39.564H54.0272C54.1815 39.564 54.3295 39.6253 54.4386 39.7344C54.5477 39.8435 54.609 39.9915 54.609 40.1458C54.609 40.3001 54.5477 40.4481 54.4386 40.5572C54.3295 40.6663 54.1815 40.7276 54.0272 40.7276Z" fill="white"/>
<path d="M46.4636 45.3818H41.809C41.1664 45.3818 40.6454 45.9028 40.6454 46.5455V50.0364C40.6454 50.679 41.1664 51.2 41.809 51.2H46.4636C47.1062 51.2 47.6272 50.679 47.6272 50.0364V46.5455C47.6272 45.9028 47.1062 45.3818 46.4636 45.3818Z" fill="#4E6AFF"/>
<path d="M57.5181 46.5455H50.5363C50.382 46.5455 50.234 46.4842 50.1249 46.3751C50.0158 46.2659 49.9545 46.118 49.9545 45.9637C49.9545 45.8093 50.0158 45.6614 50.1249 45.5522C50.234 45.4431 50.382 45.3818 50.5363 45.3818H57.5181C57.6724 45.3818 57.8204 45.4431 57.9295 45.5522C58.0386 45.6614 58.0999 45.8093 58.0999 45.9637C58.0999 46.118 58.0386 46.2659 57.9295 46.3751C57.8204 46.4842 57.6724 46.5455 57.5181 46.5455Z" fill="white"/>
<path d="M54.0272 48.8731H50.5363C50.382 48.8731 50.234 48.8118 50.1249 48.7027C50.0158 48.5936 49.9545 48.4456 49.9545 48.2913C49.9545 48.137 50.0158 47.989 50.1249 47.8799C50.234 47.7708 50.382 47.7095 50.5363 47.7095H54.0272C54.1815 47.7095 54.3295 47.7708 54.4386 47.8799C54.5477 47.989 54.609 48.137 54.609 48.2913C54.609 48.4456 54.5477 48.5936 54.4386 48.7027C54.3295 48.8118 54.1815 48.8731 54.0272 48.8731Z" fill="white"/>
<path d="M36.5727 39.564H9.80911C9.65481 39.564 9.50682 39.5027 9.39771 39.3936C9.28859 39.2845 9.22729 39.1365 9.22729 38.9822C9.22729 38.8279 9.28859 38.6799 9.39771 38.5708C9.50682 38.4617 9.65481 38.4004 9.80911 38.4004H36.5727C36.7271 38.4004 36.875 38.4617 36.9842 38.5708C37.0933 38.6799 37.1546 38.8279 37.1546 38.9822C37.1546 39.1365 37.0933 39.2845 36.9842 39.3936C36.875 39.5027 36.7271 39.564 36.5727 39.564Z" fill="#E7EFFF"/>
<path d="M13.8818 40.1456C14.5244 40.1456 15.0454 39.6247 15.0454 38.982C15.0454 38.3393 14.5244 37.8184 13.8818 37.8184C13.2391 37.8184 12.7181 38.3393 12.7181 38.982C12.7181 39.6247 13.2391 40.1456 13.8818 40.1456Z" fill="#4E6AFF"/>
<path d="M22.0273 44.2184H10.3909C10.0823 44.2184 9.78634 44.0958 9.56812 43.8776C9.34989 43.6593 9.22729 43.3634 9.22729 43.0548C9.22729 42.7461 9.34989 42.4502 9.56812 42.2319C9.78634 42.0137 10.0823 41.8911 10.3909 41.8911H22.0273C22.3359 41.8911 22.6319 42.0137 22.8501 42.2319C23.0683 42.4502 23.1909 42.7461 23.1909 43.0548C23.1909 43.3634 23.0683 43.6593 22.8501 43.8776C22.6319 44.0958 22.3359 44.2184 22.0273 44.2184Z" fill="white"/>
<path d="M32.5 48.8732H10.3909C10.0823 48.8732 9.78634 48.7506 9.56812 48.5324C9.34989 48.3141 9.22729 48.0182 9.22729 47.7095C9.22729 47.4009 9.34989 47.1049 9.56812 46.8867C9.78634 46.6685 10.0823 46.5459 10.3909 46.5459H32.5C32.8086 46.5459 33.1046 46.6685 33.3228 46.8867C33.5411 47.1049 33.6637 47.4009 33.6637 47.7095C33.6637 48.0182 33.5411 48.3141 33.3228 48.5324C33.1046 48.7506 32.8086 48.8732 32.5 48.8732Z" fill="white"/>
<path d="M33.6636 52.3638C33.6636 52.6724 33.541 52.9684 33.3228 53.1866C33.1046 53.4049 32.8086 53.5275 32.5 53.5275H10.6062C10.1407 53.0969 9.68107 52.6547 9.23889 52.1951C9.27942 51.9186 9.41813 51.6658 9.62965 51.4832C9.84118 51.3005 10.1114 51.2 10.3909 51.2002H32.5C32.8086 51.2002 33.1046 51.3228 33.3228 51.541C33.541 51.7592 33.6636 52.0552 33.6636 52.3638Z" fill="white"/>
<path d="M26.7458 27.148L21.5094 30.6389C21.3343 30.7557 21.1308 30.8229 20.9206 30.8332C20.7104 30.8435 20.5013 30.7966 20.3156 30.6975C20.13 30.5984 19.9747 30.4508 19.8662 30.2704C19.7578 30.09 19.7003 29.8836 19.7 29.6731V22.6913C19.7003 22.4808 19.7578 22.2744 19.8662 22.094C19.9747 21.9136 20.13 21.766 20.3156 21.6669C20.5013 21.5678 20.7104 21.5209 20.9206 21.5312C21.1308 21.5415 21.3343 21.6086 21.5094 21.7255L26.7458 25.2164C26.9042 25.3228 27.034 25.4666 27.1237 25.635C27.2134 25.8034 27.2604 25.9913 27.2604 26.1822C27.2604 26.373 27.2134 26.5609 27.1237 26.7294C27.034 26.8978 26.9042 27.0416 26.7458 27.148V27.148Z" fill="white"/>
<path d="M47.0454 19.2002C46.5825 19.2002 46.1385 19.3841 45.8112 19.7114C45.4838 20.0388 45.2999 20.4827 45.2999 20.9457V23.2729C45.2999 23.4272 45.3612 23.5752 45.4703 23.6843C45.5794 23.7934 45.7274 23.8547 45.8817 23.8547C46.0361 23.8547 46.184 23.7934 46.2932 23.6843C46.4023 23.5752 46.4636 23.4272 46.4636 23.2729V22.6911H47.6272V23.2729C47.6272 23.4272 47.6885 23.5752 47.7976 23.6843C47.9067 23.7934 48.0547 23.8547 48.209 23.8547C48.3633 23.8547 48.5113 23.7934 48.6204 23.6843C48.7295 23.5752 48.7908 23.4272 48.7908 23.2729V20.9457C48.7908 20.4827 48.6069 20.0388 48.2796 19.7114C47.9523 19.3841 47.5083 19.2002 47.0454 19.2002ZM46.4636 21.5275V20.9457C46.4636 20.7913 46.5249 20.6434 46.634 20.5342C46.7431 20.4251 46.8911 20.3638 47.0454 20.3638C47.1997 20.3638 47.3477 20.4251 47.4568 20.5342C47.5659 20.6434 47.6272 20.7913 47.6272 20.9457V21.5275H46.4636Z" fill="white"/>
<path d="M51.6999 19.2002H50.5363C50.382 19.2002 50.234 19.2615 50.1249 19.3706C50.0158 19.4797 49.9545 19.6277 49.9545 19.782V23.2729C49.9545 23.4272 50.0158 23.5752 50.1249 23.6843C50.234 23.7934 50.382 23.8547 50.5363 23.8547H51.6999C52.1628 23.8547 52.6068 23.6708 52.9341 23.3435C53.2615 23.0162 53.4454 22.5722 53.4454 22.1093V20.9457C53.4454 20.4827 53.2615 20.0388 52.9341 19.7114C52.6068 19.3841 52.1628 19.2002 51.6999 19.2002ZM52.2817 22.1093C52.2817 22.2636 52.2204 22.4116 52.1113 22.5207C52.0022 22.6298 51.8542 22.6911 51.6999 22.6911H51.1181V20.3638H51.6999C51.8542 20.3638 52.0022 20.4251 52.1113 20.5342C52.2204 20.6434 52.2817 20.7913 52.2817 20.9457V22.1093Z" fill="white"/>
</svg>
