<svg width="65" height="65" viewBox="0 0 65 65" fill="none" xmlns="http://www.w3.org/2000/svg">
<path d="M32.5 63.9186C48.5664 63.9186 61.5909 50.8942 61.5909 34.8277C61.5909 18.7613 48.5664 5.73682 32.5 5.73682C16.4335 5.73682 3.40906 18.7613 3.40906 34.8277C3.40906 50.8942 16.4335 63.9186 32.5 63.9186Z" fill="#E7EFFF"/>
<path d="M43.5545 18.5367V61.7367C36.7025 64.5512 29.035 64.6459 22.1156 62.0014C15.1963 59.3569 9.54632 54.1725 6.31812 47.5054V18.5367C6.31812 18.2281 6.44071 17.9321 6.65894 17.7139C6.87716 17.4956 7.17314 17.373 7.48175 17.373H42.3908C42.6995 17.373 42.9954 17.4956 43.2137 17.7139C43.4319 17.9321 43.5545 18.2281 43.5545 18.5367Z" fill="#4E6AFF"/>
<path d="M49.3727 10.9727V58.5247C48.0489 59.4664 46.6497 60.2973 45.1894 61.0091H19.8105C16.9762 59.6306 14.3845 57.8013 12.1364 55.5924V10.9727C12.1364 10.6641 12.2589 10.3681 12.4772 10.1499C12.6954 9.93168 12.9914 9.80908 13.3 9.80908H48.2091C48.5177 9.80908 48.8137 9.93168 49.0319 10.1499C49.2501 10.3681 49.3727 10.6641 49.3727 10.9727Z" fill="#8FA2FF"/>
<path d="M20.2817 22.6094C22.8524 22.6094 24.9363 20.5255 24.9363 17.9548C24.9363 15.3842 22.8524 13.3003 20.2817 13.3003C17.7111 13.3003 15.6272 15.3842 15.6272 17.9548C15.6272 20.5255 17.7111 22.6094 20.2817 22.6094Z" fill="#FFA100"/>
<path d="M44.7182 14.4639H29.5909C28.9482 14.4639 28.4272 14.9848 28.4272 15.6275V20.282C28.4272 20.9247 28.9482 21.4457 29.5909 21.4457H44.7182C45.3608 21.4457 45.8818 20.9247 45.8818 20.282V15.6275C45.8818 14.9848 45.3608 14.4639 44.7182 14.4639Z" fill="white"/>
<path d="M47.6272 20.2822C52.4471 20.2822 56.3545 16.3749 56.3545 11.5549C56.3545 6.73497 52.4471 2.82764 47.6272 2.82764C42.8072 2.82764 38.8999 6.73497 38.8999 11.5549C38.8999 16.3749 42.8072 20.2822 47.6272 20.2822Z" fill="#00C99F"/>
<path d="M46.225 14.7025L43.3159 11.7934C43.1253 11.5708 43.0257 11.2845 43.037 10.9916C43.0483 10.6988 43.1697 10.421 43.377 10.2137C43.5842 10.0065 43.862 9.88508 44.1549 9.87376C44.4477 9.86245 44.7341 9.96207 44.9567 10.1527L47.0454 12.2356L50.8796 8.40725C51.1022 8.21661 51.3885 8.117 51.6814 8.12831C51.9742 8.13962 52.252 8.26103 52.4593 8.46826C52.6665 8.6755 52.7879 8.95331 52.7992 9.24617C52.8105 9.53903 52.7109 9.82537 52.5203 10.048L47.8658 14.7025C47.6477 14.9192 47.3528 15.0409 47.0454 15.0409C46.738 15.0409 46.443 14.9192 46.225 14.7025Z" fill="white"/>
<path d="M45.2999 27.2637H16.209C16.0547 27.2637 15.9067 27.2024 15.7976 27.0933C15.6885 26.9842 15.6272 26.8362 15.6272 26.6819C15.6272 26.5276 15.6885 26.3796 15.7976 26.2705C15.9067 26.1614 16.0547 26.1001 16.209 26.1001H45.2999C45.4542 26.1001 45.6022 26.1614 45.7113 26.2705C45.8204 26.3796 45.8817 26.5276 45.8817 26.6819C45.8817 26.8362 45.8204 26.9842 45.7113 27.0933C45.6022 27.2024 45.4542 27.2637 45.2999 27.2637Z" fill="#E7EFFF"/>
<path d="M45.2999 30.7549H16.209C16.0547 30.7549 15.9067 30.6936 15.7976 30.5845C15.6885 30.4754 15.6272 30.3274 15.6272 30.1731C15.6272 30.0188 15.6885 29.8708 15.7976 29.7617C15.9067 29.6526 16.0547 29.5913 16.209 29.5913H45.2999C45.4542 29.5913 45.6022 29.6526 45.7113 29.7617C45.8204 29.8708 45.8817 30.0188 45.8817 30.1731C45.8817 30.3274 45.8204 30.4754 45.7113 30.5845C45.6022 30.6936 45.4542 30.7549 45.2999 30.7549Z" fill="#E7EFFF"/>
<path d="M45.2999 34.2457H16.209C16.0547 34.2457 15.9067 34.1844 15.7976 34.0753C15.6885 33.9661 15.6272 33.8182 15.6272 33.6638C15.6272 33.5095 15.6885 33.3616 15.7976 33.2524C15.9067 33.1433 16.0547 33.082 16.209 33.082H45.2999C45.4542 33.082 45.6022 33.1433 45.7113 33.2524C45.8204 33.3616 45.8817 33.5095 45.8817 33.6638C45.8817 33.8182 45.8204 33.9661 45.7113 34.0753C45.6022 34.1844 45.4542 34.2457 45.2999 34.2457Z" fill="#E7EFFF"/>
<path d="M45.2999 37.7364H16.209C16.0547 37.7364 15.9067 37.6751 15.7976 37.566C15.6885 37.4569 15.6272 37.3089 15.6272 37.1546C15.6272 37.0003 15.6885 36.8523 15.7976 36.7432C15.9067 36.6341 16.0547 36.5728 16.209 36.5728H45.2999C45.4542 36.5728 45.6022 36.6341 45.7113 36.7432C45.8204 36.8523 45.8817 37.0003 45.8817 37.1546C45.8817 37.3089 45.8204 37.4569 45.7113 37.566C45.6022 37.6751 45.4542 37.7364 45.2999 37.7364Z" fill="#E7EFFF"/>
<path d="M34.8272 41.2276H16.209C16.0547 41.2276 15.9067 41.1663 15.7976 41.0572C15.6885 40.9481 15.6272 40.8001 15.6272 40.6458C15.6272 40.4915 15.6885 40.3435 15.7976 40.2344C15.9067 40.1253 16.0547 40.064 16.209 40.064H34.8272C34.9815 40.064 35.1295 40.1253 35.2386 40.2344C35.3477 40.3435 35.409 40.4915 35.409 40.6458C35.409 40.8001 35.3477 40.9481 35.2386 41.0572C35.1295 41.1663 34.9815 41.2276 34.8272 41.2276Z" fill="#E7EFFF"/>
<path d="M34.8272 44.7183H16.209C16.0547 44.7183 15.9067 44.657 15.7976 44.5479C15.6885 44.4388 15.6272 44.2908 15.6272 44.1365C15.6272 43.9822 15.6885 43.8342 15.7976 43.7251C15.9067 43.616 16.0547 43.5547 16.209 43.5547H34.8272C34.9815 43.5547 35.1295 43.616 35.2386 43.7251C35.3477 43.8342 35.409 43.9822 35.409 44.1365C35.409 44.2908 35.3477 44.4388 35.2386 44.5479C35.1295 44.657 34.9815 44.7183 34.8272 44.7183Z" fill="#E7EFFF"/>
<path d="M34.8272 48.2095H16.209C16.0547 48.2095 15.9067 48.1482 15.7976 48.0391C15.6885 47.93 15.6272 47.782 15.6272 47.6277C15.6272 47.4734 15.6885 47.3254 15.7976 47.2163C15.9067 47.1072 16.0547 47.0459 16.209 47.0459H34.8272C34.9815 47.0459 35.1295 47.1072 35.2386 47.2163C35.3477 47.3254 35.409 47.4734 35.409 47.6277C35.409 47.782 35.3477 47.93 35.2386 48.0391C35.1295 48.1482 34.9815 48.2095 34.8272 48.2095Z" fill="#E7EFFF"/>
<path d="M34.8272 51.7003H16.209C16.0547 51.7003 15.9067 51.639 15.7976 51.5298C15.6885 51.4207 15.6272 51.2727 15.6272 51.1184C15.6272 50.9641 15.6885 50.8161 15.7976 50.707C15.9067 50.5979 16.0547 50.5366 16.209 50.5366H34.8272C34.9815 50.5366 35.1295 50.5979 35.2386 50.707C35.3477 50.8161 35.409 50.9641 35.409 51.1184C35.409 51.2727 35.3477 51.4207 35.2386 51.5298C35.1295 51.639 34.9815 51.7003 34.8272 51.7003Z" fill="#E7EFFF"/>
<path d="M34.8272 55.191H16.209C16.0547 55.191 15.9067 55.1297 15.7976 55.0206C15.6885 54.9115 15.6272 54.7635 15.6272 54.6092C15.6272 54.4549 15.6885 54.3069 15.7976 54.1978C15.9067 54.0886 16.0547 54.0273 16.209 54.0273H34.8272C34.9815 54.0273 35.1295 54.0886 35.2386 54.1978C35.3477 54.3069 35.409 54.4549 35.409 54.6092C35.409 54.7635 35.3477 54.9115 35.2386 55.0206C35.1295 55.1297 34.9815 55.191 34.8272 55.191Z" fill="#E7EFFF"/>
<path d="M55.7744 30.751L40.647 45.8784L45.3 50.5314L60.4274 35.404L55.7744 30.751Z" fill="#4E6AFF"/>
<path d="M55.7727 30.7547L60.4273 35.4093L62.6847 33.1518C63.0116 32.8246 63.1952 32.3809 63.1952 31.9184C63.1952 31.4558 63.0116 31.0122 62.6847 30.6849L60.4971 28.4973C60.1698 28.1704 59.7262 27.9868 59.2636 27.9868C58.8011 27.9868 58.3574 28.1704 58.0302 28.4973L55.7727 30.7547Z" fill="#323FD4"/>
<path d="M40.6454 45.8818L38.8999 52.2818L45.2999 50.5364L40.6454 45.8818Z" fill="white"/>
<path d="M41.6403 51.5313L38.8999 52.2819L39.6504 49.5415L41.6403 51.5313Z" fill="#4E6AFF"/>
<path d="M27.2636 4.57294C28.2276 4.57294 29.0091 3.79147 29.0091 2.82749C29.0091 1.8635 28.2276 1.08203 27.2636 1.08203C26.2997 1.08203 25.5182 1.8635 25.5182 2.82749C25.5182 3.79147 26.2997 4.57294 27.2636 4.57294Z" fill="#00C99F"/>
<path d="M2.82724 24.9367C3.79123 24.9367 4.5727 24.1552 4.5727 23.1913C4.5727 22.2273 3.79123 21.4458 2.82724 21.4458C1.86325 21.4458 1.08179 22.2273 1.08179 23.1913C1.08179 24.1552 1.86325 24.9367 2.82724 24.9367Z" fill="#FF4D69"/>
<path d="M62.1727 41.8093C63.1367 41.8093 63.9182 41.0278 63.9182 40.0638C63.9182 39.0998 63.1367 38.3184 62.1727 38.3184C61.2087 38.3184 60.4272 39.0998 60.4272 40.0638C60.4272 41.0278 61.2087 41.8093 62.1727 41.8093Z" fill="#FFA100"/>
<path d="M53.8294 63.9182C54.7934 63.9182 55.5749 63.1367 55.5749 62.1727C55.5749 61.2087 54.7934 60.4272 53.8294 60.4272C52.8655 60.4272 52.084 61.2087 52.084 62.1727C52.084 63.1367 52.8655 63.9182 53.8294 63.9182Z" fill="#00C99F"/>
</svg>
